<svg width="24" height="19" viewBox="0 0 24 19" fill="none" xmlns="http://www.w3.org/2000/svg">
<path d="M0.436798 0.999898C1.17511 0.789244 2.5 1.68354 3.67849 5.5M19.4632 15.4999C16.9597 15.4999 10.651 15.4999 5.44374 15.4999C5.33976 14.4269 5.22502 13.4284 5.10142 12.5M3.67849 5.5H22.4674M3.67849 5.5C4.20344 7.2 4.69934 9.47979 5.10142 12.5M5.10142 12.5H20.4646C22.8679 10.5 22.6343 5.16667 22.4674 3" stroke="#005245"/>
<path d="M9.45001 17C9.45001 17.8278 8.77785 18.5 7.94724 18.5C7.11662 18.5 6.44446 17.8278 6.44446 17C6.44446 16.1722 7.11662 15.5 7.94724 15.5C8.77785 15.5 9.45001 16.1722 9.45001 17Z" stroke="#005245"/>
<path d="M18.4625 17C18.4625 17.8278 17.7903 18.5 16.9597 18.5C16.1291 18.5 15.4569 17.8278 15.4569 17C15.4569 16.1722 16.1291 15.5 16.9597 15.5C17.7903 15.5 18.4625 16.1722 18.4625 17Z" stroke="#005245"/>
</svg>
