<svg width="369" height="336" viewBox="0 0 369 336" fill="none" xmlns="http://www.w3.org/2000/svg">
<g filter="url(#filter0_d)">
<path d="M140.5 318.5L12 242L219 126L239.5 120L357 193L140.5 318.5Z" fill="#2D2323"/>
</g>
<path d="M190.473 17.9051L190.471 18.2049L189.974 91.5648L178.312 91.88L178.812 18.2203L190.473 17.9051Z" fill="#D1D9DC"/>
<path d="M183.868 21.1987C187.432 21.0841 190.338 19.6887 190.359 18.0819C190.381 16.4752 187.508 15.2655 183.944 15.3801C180.38 15.4946 177.474 16.8901 177.453 18.4968C177.431 20.1036 180.304 21.3132 183.868 21.1987Z" fill="#E0E9EF"/>
<path d="M183.923 20.3497C186.516 20.2666 188.63 19.2762 188.645 18.1378C188.659 16.9993 186.569 16.1439 183.976 16.2271C181.383 16.3103 179.269 17.3006 179.254 18.439C179.239 19.5775 181.33 20.4329 183.923 20.3497Z" fill="#2E3E44"/>
<path d="M178.006 67.7475L178.048 64.0027C178.031 65.5522 180.753 66.7163 184.123 66.6126C187.493 66.5089 190.243 65.1765 190.261 63.6269L190.613 32.3342C190.595 33.8838 187.846 35.2162 184.475 35.3199C181.105 35.4236 178.383 34.2595 178.401 32.71L178.006 67.7475Z" fill="#FFCC00"/>
<path d="M212.52 4.30347L212.518 4.73124L212.054 98.927L200.626 99.2173L201.092 4.59375L212.52 4.30347Z" fill="#D1D9DC"/>
<path d="M205.958 7.5944C209.522 7.47983 212.429 6.08435 212.45 4.4775C212.471 2.87065 209.599 1.66091 206.034 1.77547C202.47 1.89004 199.564 3.28552 199.543 4.89237C199.522 6.49922 202.394 7.70896 205.958 7.5944Z" fill="#E0E9EF"/>
<path d="M205.971 6.74639C208.564 6.66319 210.678 5.67291 210.692 4.53455C210.707 3.39618 208.617 2.54081 206.024 2.62401C203.431 2.70721 201.317 3.69748 201.302 4.83585C201.287 5.97421 203.377 6.82959 205.971 6.74639Z" fill="#2E3E44"/>
<path d="M200.054 54.1444L200.096 50.3996C200.079 51.9491 202.801 53.1132 206.171 53.0095C209.542 52.9058 212.292 51.5733 212.309 50.0237L212.661 18.7737C212.644 20.3233 209.894 21.6558 206.523 21.7595C203.153 21.8632 200.431 20.6991 200.448 19.1495L200.054 54.1444Z" fill="#FFCC00"/>
<path d="M168.039 31.3016L168.036 31.6442L167.54 104.962L155.879 105.277L156.378 31.6168L168.039 31.3016Z" fill="#D1D9DC"/>
<path d="M161.477 34.5947C165.041 34.4801 167.947 33.0846 167.968 31.4777C167.989 29.8709 165.117 28.6611 161.553 28.7757C157.989 28.8903 155.083 30.2858 155.062 31.8926C155.04 33.4995 157.913 34.7092 161.477 34.5947Z" fill="#E0E9EF"/>
<path d="M161.488 33.7463C164.081 33.6631 166.195 32.6729 166.21 31.5346C166.225 30.3963 164.135 29.541 161.542 29.6242C158.949 29.7074 156.835 30.6977 156.82 31.8359C156.805 32.9742 158.895 33.8295 161.488 33.7463Z" fill="#2E3E44"/>
<path d="M155.572 81.1443L155.614 77.3994C155.597 78.949 158.319 80.1131 161.689 80.0094C165.06 79.9057 167.81 78.5732 167.827 77.0236L168.179 45.7732C168.162 47.3228 165.412 48.6553 162.041 48.759C158.671 48.8627 155.949 47.6987 155.966 46.149L155.572 81.1443Z" fill="#FFCC00"/>
<path d="M193.553 191.427L112.946 149.156L222.699 79.6942L301.251 127.823L193.553 191.427Z" fill="#2E3E44"/>
<path d="M193.437 249.451L91.3661 189.53L227.257 103.475L329.919 169.689L193.437 249.451Z" fill="#2E3E44"/>
<path d="M193.553 191.428L194.097 234.331L301.79 170.345L301.251 127.824L193.553 191.428Z" fill="#D1D9DC"/>
<path d="M193.437 249.451L194.561 270.892L330.181 190.332L329.919 169.689L193.437 249.451Z" fill="#D1D9DC"/>
<path d="M193.553 191.427L194.097 234.331L113.438 187.931L112.706 130.216L161.928 158.156L162.31 174.838L193.553 191.427Z" fill="#BCC5CB"/>
<path d="M194.561 270.893L91.6226 209.748L91.3661 189.531L193.437 249.451L194.561 270.893Z" fill="#D1D9DC"/>
<path d="M237.017 205.094L236.754 184.323L261.298 169.538L261.562 190.352L237.017 205.094Z" fill="#2E3E44"/>
<path d="M270.311 185.387L270.047 164.574L294.634 149.831L294.898 170.644L270.311 185.387Z" fill="#2E3E44"/>
<path d="M185.464 198.127L185.527 203.022L121.557 166.883L121.668 162.199L185.464 198.127Z" fill="#2E3E44"/>
<path d="M161.696 139.811L112.9 111.95L175.016 75.7866L224.472 102.063L161.696 139.811Z" fill="#E0E9EF"/>
<path d="M171.782 196.684L171.699 190.172L177.317 193.379L177.406 200.401L171.782 196.684Z" fill="#BCC5CB"/>
<path d="M161.928 158.156L112.706 130.216L171.937 94.8124L225.084 120.063L161.928 158.156Z" fill="white"/>
<path d="M157.889 188.73L157.807 182.217L163.466 185.381L163.555 192.446L157.889 188.73Z" fill="#BCC5CB"/>
<path d="M143.652 180.481L143.57 173.969L149.186 177.133L149.276 184.198L143.652 180.481Z" fill="#BCC5CB"/>
<path d="M129.504 172.572L129.422 166.102L135.039 169.266L135.128 176.289L129.504 172.572Z" fill="#BCC5CB"/>
<path d="M161.928 158.155L162.31 174.838L225.304 137.386L225.084 120.063L161.928 158.155Z" fill="#D1D9DC"/>
<path d="M112.706 130.216L174.698 90.9883L225.084 120.063L161.928 158.156L112.706 130.216Z" fill="#E0E9EF"/>
<path d="M116.572 122.845L116.658 129.655L161.975 155.133L161.804 148.324L116.572 122.845Z" fill="#151819"/>
<path d="M220.028 114.125L220.11 120.595L161.975 155.133L161.806 148.537L220.028 114.125Z" fill="#2E3E44"/>
<path d="M113.012 120.803L112.9 111.95L161.696 139.811L161.806 148.536L113.012 120.803Z" fill="#BCC5CB"/>
<path d="M224.472 102.063L224.593 111.555L161.806 148.536L161.696 139.811L224.472 102.063Z" fill="#D1D9DC"/>
<path d="M173.892 174.186L192.935 185.271L193.037 177.97L173.991 167.148L173.892 174.186Z" fill="#BCC5CB"/>
<path d="M208.143 176.113L193.506 185.528L193.608 178.136L208.143 176.113Z" fill="#D1D9DC"/>
<path d="M189.201 164.414L207.791 176.391L193.172 178.429L173.816 167.285L189.201 164.414Z" fill="#FFCC00"/>
<path d="M201.432 157.276L220.432 168.362L220.534 161.062L201.53 150.239L201.432 157.276Z" fill="#BCC5CB"/>
<path d="M235.64 159.205L221.004 168.619L221.105 161.228L235.64 159.205Z" fill="#D1D9DC"/>
<path d="M216.698 147.505L235.288 159.482L220.669 161.521L201.356 150.375L216.698 147.505Z" fill="#FFCC00"/>
<path d="M229.322 141.087L248.364 152.171L248.466 144.871L229.42 134.049L229.322 141.087Z" fill="#BCC5CB"/>
<path d="M263.572 143.014L248.935 152.428L249.037 145.038L263.572 143.014Z" fill="#D1D9DC"/>
<path d="M244.629 131.315L263.22 143.291L248.601 145.33L229.245 134.186L244.629 131.315Z" fill="#FFCC00"/>
<path d="M27 241L41 232.888L80.5 210" stroke="#D1D9DC"/>
<path d="M27.0002 240.901L40.843 249.279L49 254.5" stroke="#D1D9DC"/>
<path d="M55.0002 225.131L68.272 233.163L76.0925 238.168" stroke="#D1D9DC"/>
<path d="M41.0002 233.131L54.272 241.163L62.0925 246.168" stroke="#D1D9DC"/>
<path d="M68.0002 217.131L81.843 225.508L90 230.729" stroke="#D1D9DC"/>
<path d="M80 209.9L85.8915 213.466L102.514 223.526" stroke="#D1D9DC"/>
<path d="M49 254L63.1308 245.888L103 223" stroke="#D1D9DC"/>
<defs>
<filter id="filter0_d" x="0" y="113" width="369" height="222.5" filterUnits="userSpaceOnUse" color-interpolation-filters="sRGB">
<feFlood flood-opacity="0" result="BackgroundImageFix"/>
<feColorMatrix in="SourceAlpha" type="matrix" values="0 0 0 0 0 0 0 0 0 0 0 0 0 0 0 0 0 0 127 0"/>
<feOffset dy="5"/>
<feGaussianBlur stdDeviation="6"/>
<feColorMatrix type="matrix" values="0 0 0 0 0 0 0 0 0 0 0 0 0 0 0 0 0 0 0.25 0"/>
<feBlend mode="normal" in2="BackgroundImageFix" result="effect1_dropShadow"/>
<feBlend mode="normal" in="SourceGraphic" in2="effect1_dropShadow" result="shape"/>
</filter>
</defs>
</svg>
