<svg width="831" height="484" viewBox="0 0 831 484" fill="none" xmlns="http://www.w3.org/2000/svg">
<g filter="url(#filter0_d)">
<path d="M801.85 312.732C784.347 284.801 705.814 226.962 668.735 201.534C652.189 196.296 636.487 208.224 609.036 213.895C581.585 219.566 418.783 237.853 366.201 247.787C313.619 257.721 173.742 318.132 157.478 333.863C141.214 349.594 259.505 443.891 309.856 440.48C360.207 437.069 503.294 380.664 558.48 375.981C613.665 371.298 754.761 325.518 801.85 312.732Z" fill="#302220"/>
</g>
<mask id="mask0" mask-type="alpha" maskUnits="userSpaceOnUse" x="157" y="202" width="646" height="237">
<path d="M802.927 312.842C785.425 285.324 706.891 228.339 669.813 203.286C653.267 198.125 637.565 209.877 610.114 215.464C582.663 221.052 419.86 239.068 367.278 248.856C314.697 258.644 174.819 318.163 158.555 333.661C142.291 349.159 260.583 442.065 310.933 438.704C361.284 435.343 504.372 379.771 559.557 375.157C614.743 370.544 755.838 325.44 802.927 312.842Z" fill="#7C5A57"/>
</mask>
<g mask="url(#mask0)">
<path d="M276.457 397.815C247.509 388.186 192.586 340.307 168.744 317.572C173.933 313.56 184.985 306.739 187.678 311.553C191.044 317.572 276.457 390.292 315.166 397.815C344.514 403.519 375.194 427.739 395.53 440.695C385.012 441.866 361.533 442.2 351.772 434.176C339.57 424.145 312.642 409.852 276.457 397.815Z" fill="#3F2A29"/>
<path d="M259.627 418.378C233.183 406.462 161.871 355.755 138.029 333.019C143.218 329.007 154.27 322.187 156.963 327.001C160.329 333.019 223.709 388.138 253.736 402.58C277.719 414.115 344.479 443.187 364.815 456.143C354.296 457.313 330.818 457.648 321.057 449.623C308.855 439.593 294.129 433.925 259.627 418.378Z" fill="#3F2A29"/>
<path d="M291.604 355.186C268.462 340.642 236.765 317.64 212.923 294.904C218.112 290.892 229.164 284.071 231.857 288.886C235.223 294.904 310.538 357.594 344.619 368.377C371.884 377.003 419.373 405.072 439.709 418.028C429.191 419.198 405.712 419.532 395.951 411.508C383.749 401.477 320.118 373.107 291.604 355.186Z" fill="#3F2A29"/>
<path d="M342.515 341.645C318.901 327.778 283.89 301.591 260.047 278.855C265.237 274.843 276.288 268.022 278.981 272.837C282.347 278.855 357.662 341.545 391.744 352.328C419.008 360.954 466.498 389.023 486.834 401.979C476.315 403.149 452.837 403.483 443.076 395.459C430.874 385.429 371.127 358.446 342.515 341.645Z" fill="#3F2A29"/>
<path d="M418.251 342.549C389.303 332.92 334.381 285.041 310.538 262.305C315.727 258.293 326.779 251.472 329.472 256.287C332.838 262.305 408.153 324.995 442.234 335.778C469.499 344.404 516.988 372.473 537.325 385.429C526.806 386.599 503.328 386.933 493.566 378.909C481.364 368.879 454.436 354.585 418.251 342.549Z" fill="#3F2A29"/>
<path d="M490.2 339.137C458.718 332.946 382.347 270.998 358.504 248.262C363.693 244.25 374.745 237.429 377.438 242.244C380.804 248.262 456.119 310.953 490.2 321.735C517.465 330.361 564.954 358.43 585.291 371.386C574.772 372.556 573.594 384.776 563.832 376.751C551.63 366.721 532.275 347.412 490.2 339.137Z" fill="#3F2A29"/>
<path d="M559.625 330.11C534.379 323.339 438.728 260.466 414.885 237.73C420.074 233.718 431.126 226.898 433.819 231.712C437.185 237.73 512.5 300.421 546.581 311.203C573.846 319.83 621.335 347.898 641.672 360.854C631.153 362.024 619.076 376.47 614.323 366.972C607.17 352.678 587.747 337.652 559.625 330.11Z" fill="#3F2A29"/>
<path d="M580.242 310.049C560.417 294.213 488.377 251.439 464.534 228.703C469.723 224.691 480.775 217.87 483.468 222.685C486.834 228.703 572.794 283.908 596.23 302.176C617.268 318.575 670.984 338.871 691.321 351.827C680.802 352.997 662.015 350.211 647.562 345.307C625.683 337.884 604.225 329.206 580.242 310.049Z" fill="#3F2A29"/>
<path d="M623.579 296.408C594.631 286.779 539.709 238.901 515.866 216.165C521.055 212.153 532.107 205.332 534.8 210.147C538.166 216.165 613.481 278.855 647.562 289.638C674.827 298.264 722.316 326.333 742.653 339.289C732.134 340.459 708.656 340.793 698.894 332.769C686.692 322.738 659.764 308.445 623.579 296.408Z" fill="#3F2A29"/>
<path d="M648.404 270.178C626.525 254.981 595.249 228.87 571.406 206.134C576.595 202.122 587.647 195.302 590.34 200.116C593.706 206.134 683.747 274.19 717.828 284.973C745.093 293.599 777.856 316.302 798.193 329.258C787.674 330.428 764.196 330.763 754.434 322.738C742.232 312.708 675.388 288.921 648.404 270.178Z" fill="#3F2A29"/>
<path d="M712.779 264.912C688.564 251.418 644.056 219.341 620.213 196.606C625.402 192.594 636.454 185.773 639.147 190.587C642.513 196.606 717.828 259.296 751.909 270.079C779.174 278.705 826.663 306.773 847 319.729C836.481 320.9 813.003 321.234 803.241 313.21C791.04 303.179 745.177 282.967 712.779 264.912Z" fill="#3F2A29"/>
</g>
<path d="M795.492 326.043L790.588 304.701L793.449 282.554L797.945 300.674V315.976L796.719 324.835L804.893 307.52L813.067 306.312L814.293 318.795L809.593 313.157L808.163 315.976L796.719 328.459L795.492 326.043Z" fill="#127262"/>
<path d="M402.064 255L401.044 275H399.004L401.044 254.5C401.044 254.5 391.097 250.602 388.291 245.5C385.55 240.515 384.721 229 384.721 229C384.721 229 398.231 236.247 401.044 242.5C402.352 245.408 402.574 250.5 402.574 250.5C402.574 250.5 411.563 245.723 417.877 244.5C424.522 243.213 435.221 244.5 435.221 244.5C435.221 244.5 431.045 249.644 427.569 252C423.005 255.094 419.837 256.558 414.307 257C409.05 257.42 402.064 255 402.064 255Z" fill="#36C06D"/>
<path d="M427.059 251C429.747 249.222 433.18 245.5 433.18 245.5L403.594 253C403.594 253 410.328 255.714 414.817 255.5C419.917 255.257 422.827 253.8 427.059 251Z" fill="#36C06D"/>
<path d="M387.271 232L401.554 252C401.554 252 392.817 248.986 389.822 244.5C387.04 240.335 387.271 232 387.271 232Z" fill="#36C06D"/>
<path d="M461.943 294.913L461.165 311H459.61L461.165 294.511C461.165 294.511 453.582 291.375 451.443 287.272C449.353 283.262 448.721 274 448.721 274C448.721 274 459.021 279.829 461.165 284.859C462.163 287.198 462.332 291.293 462.332 291.293C462.332 291.293 469.185 287.451 473.998 286.467C479.064 285.432 487.221 286.467 487.221 286.467C487.221 286.467 484.037 290.605 481.387 292.5C477.908 294.988 475.493 296.166 471.276 296.522C467.269 296.86 461.943 294.913 461.943 294.913Z" fill="#36C06D"/>
<path d="M480.998 291.696C483.048 290.266 485.665 287.272 485.665 287.272L463.11 293.304C463.11 293.304 468.243 295.487 471.665 295.315C475.553 295.12 477.772 293.948 480.998 291.696Z" fill="#36C06D"/>
<path d="M450.665 276.413L461.554 292.5C461.554 292.5 454.893 290.076 452.61 286.467C450.489 283.117 450.665 276.413 450.665 276.413Z" fill="#36C06D"/>
<path d="M529.221 331L530.221 351H532.221L530.221 330.5C530.221 330.5 539.971 326.602 542.721 321.5C545.408 316.515 546.221 305 546.221 305C546.221 305 532.978 312.247 530.221 318.5C528.938 321.408 528.721 326.5 528.721 326.5C528.721 326.5 519.91 321.723 513.721 320.5C507.208 319.213 496.721 320.5 496.721 320.5C496.721 320.5 500.814 325.644 504.221 328C508.695 331.094 511.799 332.558 517.221 333C522.373 333.42 529.221 331 529.221 331Z" fill="#36C06D"/>
<path d="M504.721 327C502.086 325.222 498.721 321.5 498.721 321.5L527.721 329C527.721 329 521.121 331.714 516.721 331.5C511.722 331.257 508.869 329.8 504.721 327Z" fill="#36C06D"/>
<path d="M543.721 308L529.721 328C529.721 328 538.284 324.986 541.221 320.5C543.947 316.335 543.721 308 543.721 308Z" fill="#36C06D"/>
<path d="M342.221 296L343.221 316H345.221L343.221 295.5C343.221 295.5 352.971 291.602 355.721 286.5C358.408 281.515 359.221 270 359.221 270C359.221 270 345.978 277.247 343.221 283.5C341.938 286.408 341.721 291.5 341.721 291.5C341.721 291.5 332.91 286.723 326.721 285.5C320.208 284.213 309.721 285.5 309.721 285.5C309.721 285.5 313.814 290.644 317.221 293C321.695 296.094 324.799 297.558 330.221 298C335.373 298.42 342.221 296 342.221 296Z" fill="#36C06D"/>
<path d="M317.721 292C315.086 290.222 311.721 286.5 311.721 286.5L340.721 294C340.721 294 334.121 296.714 329.721 296.5C324.722 296.257 321.869 294.8 317.721 292Z" fill="#36C06D"/>
<path d="M356.721 273L342.721 293C342.721 293 351.284 289.986 354.221 285.5C356.947 281.335 356.721 273 356.721 273Z" fill="#36C06D"/>
<path d="M392.221 329L393.221 349H395.221L393.221 328.5C393.221 328.5 402.971 324.602 405.721 319.5C408.408 314.515 409.221 303 409.221 303C409.221 303 395.978 310.247 393.221 316.5C391.938 319.408 391.721 324.5 391.721 324.5C391.721 324.5 382.91 319.723 376.721 318.5C370.208 317.213 359.721 318.5 359.721 318.5C359.721 318.5 363.814 323.644 367.221 326C371.695 329.094 374.799 330.558 380.221 331C385.373 331.42 392.221 329 392.221 329Z" fill="#36C06D"/>
<path d="M367.721 325C365.086 323.222 361.721 319.5 361.721 319.5L390.721 327C390.721 327 384.121 329.714 379.721 329.5C374.722 329.257 371.869 327.8 367.721 325Z" fill="#36C06D"/>
<path d="M406.721 306L392.721 326C392.721 326 401.284 322.986 404.221 318.5C406.947 314.335 406.721 306 406.721 306Z" fill="#36C06D"/>
<path d="M457.998 361.222L458.776 376.778H460.332L458.776 360.833C458.776 360.833 466.36 357.801 468.498 353.833C470.588 349.956 471.221 341 471.221 341C471.221 341 460.921 346.636 458.776 351.5C457.779 353.762 457.61 357.722 457.61 357.722C457.61 357.722 450.757 354.007 445.943 353.056C440.877 352.054 432.721 353.056 432.721 353.056C432.721 353.056 435.904 357.057 438.554 358.889C442.034 361.295 444.449 362.434 448.665 362.778C452.673 363.104 457.998 361.222 457.998 361.222Z" fill="#36C06D"/>
<path d="M438.943 358.111C436.894 356.728 434.276 353.833 434.276 353.833L456.832 359.667C456.832 359.667 451.699 361.777 448.276 361.611C444.388 361.422 442.17 360.289 438.943 358.111Z" fill="#36C06D"/>
<path d="M469.276 343.333L458.387 358.889C458.387 358.889 465.048 356.545 467.332 353.056C469.452 349.816 469.276 343.333 469.276 343.333Z" fill="#36C06D"/>
<path d="M253.221 326L254.221 346H256.221L254.221 325.5C254.221 325.5 263.971 321.602 266.721 316.5C269.408 311.515 270.221 300 270.221 300C270.221 300 256.978 307.247 254.221 313.5C252.938 316.408 252.721 321.5 252.721 321.5C252.721 321.5 243.91 316.723 237.721 315.5C231.208 314.213 220.721 315.5 220.721 315.5C220.721 315.5 224.814 320.644 228.221 323C232.695 326.094 235.799 327.558 241.221 328C246.373 328.42 253.221 326 253.221 326Z" fill="#36C06D"/>
<path d="M228.721 322C226.086 320.222 222.721 316.5 222.721 316.5L251.721 324C251.721 324 245.121 326.714 240.721 326.5C235.722 326.257 232.869 324.8 228.721 322Z" fill="#36C06D"/>
<path d="M267.721 303L253.721 323C253.721 323 262.284 319.986 265.221 315.5C267.947 311.335 267.721 303 267.721 303Z" fill="#36C06D"/>
<path d="M300.771 358.161L300.004 373.515H298.468L300.004 357.778C300.004 357.778 292.519 354.785 290.408 350.869C288.345 347.042 287.721 338.202 287.721 338.202C287.721 338.202 297.887 343.765 300.004 348.566C300.988 350.798 301.155 354.707 301.155 354.707C301.155 354.707 307.919 351.04 312.67 350.101C317.67 349.113 325.721 350.101 325.721 350.101C325.721 350.101 322.579 354.05 319.963 355.858C316.529 358.233 314.145 359.358 309.983 359.697C306.028 360.019 300.771 358.161 300.771 358.161Z" fill="#36C06D"/>
<path d="M319.579 355.091C321.602 353.726 324.185 350.869 324.185 350.869L301.923 356.626C301.923 356.626 306.989 358.709 310.367 358.545C314.205 358.359 316.394 357.24 319.579 355.091Z" fill="#36C06D"/>
<path d="M289.64 340.505L300.387 355.858C300.387 355.858 293.813 353.545 291.559 350.101C289.466 346.903 289.64 340.505 289.64 340.505Z" fill="#36C06D"/>
<path d="M366.221 392L367.221 412H369.221L367.221 391.5C367.221 391.5 376.971 387.602 379.721 382.5C382.408 377.515 383.221 366 383.221 366C383.221 366 369.978 373.247 367.221 379.5C365.938 382.408 365.721 387.5 365.721 387.5C365.721 387.5 356.91 382.723 350.721 381.5C344.208 380.213 333.721 381.5 333.721 381.5C333.721 381.5 337.814 386.644 341.221 389C345.695 392.094 348.799 393.558 354.221 394C359.373 394.42 366.221 392 366.221 392Z" fill="#36C06D"/>
<path d="M341.721 388C339.086 386.222 335.721 382.5 335.721 382.5L364.721 390C364.721 390 358.121 392.714 353.721 392.5C348.722 392.257 345.869 390.8 341.721 388Z" fill="#36C06D"/>
<path d="M380.721 369L366.721 389C366.721 389 375.284 385.986 378.221 381.5C380.947 377.335 380.721 369 380.721 369Z" fill="#36C06D"/>
<path d="M609.221 222L610.221 242H612.221L610.221 221.5C610.221 221.5 619.971 217.602 622.721 212.5C625.408 207.515 626.221 196 626.221 196C626.221 196 612.978 203.247 610.221 209.5C608.938 212.408 608.721 217.5 608.721 217.5C608.721 217.5 599.91 212.723 593.721 211.5C587.208 210.213 576.721 211.5 576.721 211.5C576.721 211.5 580.814 216.644 584.221 219C588.695 222.094 591.799 223.558 597.221 224C602.373 224.42 609.221 222 609.221 222Z" fill="#36C06D"/>
<path d="M584.721 218C582.086 216.222 578.721 212.5 578.721 212.5L607.721 220C607.721 220 601.121 222.714 596.721 222.5C591.722 222.257 588.869 220.8 584.721 218Z" fill="#36C06D"/>
<path d="M623.721 199L609.721 219C609.721 219 618.284 215.986 621.221 211.5C623.947 207.335 623.721 199 623.721 199Z" fill="#36C06D"/>
<path d="M659.221 255L660.221 275H662.221L660.221 254.5C660.221 254.5 669.971 250.602 672.721 245.5C675.408 240.515 676.221 229 676.221 229C676.221 229 662.978 236.247 660.221 242.5C658.938 245.408 658.721 250.5 658.721 250.5C658.721 250.5 649.91 245.723 643.721 244.5C637.208 243.213 626.721 244.5 626.721 244.5C626.721 244.5 630.814 249.644 634.221 252C638.695 255.094 641.799 256.558 647.221 257C652.373 257.42 659.221 255 659.221 255Z" fill="#36C06D"/>
<path d="M634.721 251C632.086 249.222 628.721 245.5 628.721 245.5L657.721 253C657.721 253 651.121 255.714 646.721 255.5C641.722 255.257 638.869 253.8 634.721 251Z" fill="#36C06D"/>
<path d="M673.721 232L659.721 252C659.721 252 668.284 248.986 671.221 244.5C673.947 240.335 673.721 232 673.721 232Z" fill="#36C06D"/>
<path d="M724.998 287.222L725.776 302.778H727.332L725.776 286.833C725.776 286.833 733.36 283.801 735.498 279.833C737.588 275.956 738.221 267 738.221 267C738.221 267 727.921 272.636 725.776 277.5C724.779 279.762 724.61 283.722 724.61 283.722C724.61 283.722 717.757 280.007 712.943 279.056C707.877 278.054 699.721 279.056 699.721 279.056C699.721 279.056 702.904 283.057 705.554 284.889C709.034 287.295 711.449 288.434 715.665 288.778C719.673 289.104 724.998 287.222 724.998 287.222Z" fill="#36C06D"/>
<path d="M705.943 284.111C703.894 282.728 701.276 279.833 701.276 279.833L723.832 285.667C723.832 285.667 718.699 287.777 715.276 287.611C711.388 287.422 709.17 286.289 705.943 284.111Z" fill="#36C06D"/>
<path d="M736.276 269.333L725.387 284.889C725.387 284.889 732.048 282.545 734.332 279.056C736.452 275.816 736.276 269.333 736.276 269.333Z" fill="#36C06D"/>
<path d="M520.221 252L521.221 272H523.221L521.221 251.5C521.221 251.5 530.971 247.602 533.721 242.5C536.408 237.515 537.221 226 537.221 226C537.221 226 523.978 233.247 521.221 239.5C519.938 242.408 519.721 247.5 519.721 247.5C519.721 247.5 510.91 242.723 504.721 241.5C498.208 240.213 487.721 241.5 487.721 241.5C487.721 241.5 491.814 246.644 495.221 249C499.695 252.094 502.799 253.558 508.221 254C513.373 254.42 520.221 252 520.221 252Z" fill="#36C06D"/>
<path d="M495.721 248C493.086 246.222 489.721 242.5 489.721 242.5L518.721 250C518.721 250 512.121 252.714 507.721 252.5C502.722 252.257 499.869 250.8 495.721 248Z" fill="#36C06D"/>
<path d="M534.721 229L520.721 249C520.721 249 529.284 245.986 532.221 241.5C534.947 237.335 534.721 229 534.721 229Z" fill="#36C06D"/>
<path d="M567.771 284.161L567.004 299.515H565.468L567.004 283.778C567.004 283.778 559.519 280.785 557.408 276.869C555.345 273.042 554.721 264.202 554.721 264.202C554.721 264.202 564.887 269.765 567.004 274.566C567.988 276.798 568.155 280.707 568.155 280.707C568.155 280.707 574.919 277.04 579.67 276.101C584.67 275.113 592.721 276.101 592.721 276.101C592.721 276.101 589.579 280.05 586.963 281.858C583.529 284.233 581.145 285.358 576.983 285.697C573.028 286.019 567.771 284.161 567.771 284.161Z" fill="#36C06D"/>
<path d="M586.579 281.091C588.602 279.726 591.185 276.869 591.185 276.869L568.923 282.626C568.923 282.626 573.989 284.709 577.367 284.545C581.205 284.359 583.394 283.24 586.579 281.091Z" fill="#36C06D"/>
<path d="M556.64 266.505L567.387 281.858C567.387 281.858 560.813 279.545 558.559 276.101C556.466 272.903 556.64 266.505 556.64 266.505Z" fill="#36C06D"/>
<path d="M633.221 318L634.221 338H636.221L634.221 317.5C634.221 317.5 643.971 313.602 646.721 308.5C649.408 303.515 650.221 292 650.221 292C650.221 292 636.978 299.247 634.221 305.5C632.938 308.408 632.721 313.5 632.721 313.5C632.721 313.5 623.91 308.723 617.721 307.5C611.208 306.213 600.721 307.5 600.721 307.5C600.721 307.5 604.814 312.644 608.221 315C612.695 318.094 615.799 319.558 621.221 320C626.373 320.42 633.221 318 633.221 318Z" fill="#36C06D"/>
<path d="M608.721 314C606.086 312.222 602.721 308.5 602.721 308.5L631.721 316C631.721 316 625.121 318.714 620.721 318.5C615.722 318.257 612.869 316.8 608.721 314Z" fill="#36C06D"/>
<path d="M647.721 295L633.721 315C633.721 315 642.284 311.986 645.221 307.5C647.947 303.335 647.721 295 647.721 295Z" fill="#36C06D"/>
<g filter="url(#filter1_d)">
<path d="M595.548 136.939C580.547 113 513.237 63.4275 481.458 41.6334C467.276 37.1436 453.818 47.3669 430.291 52.2275C406.763 57.0882 267.227 72.7613 222.16 81.276C177.093 89.7906 57.2054 141.568 43.2658 155.051C29.3262 168.533 130.712 249.354 173.867 246.43C217.022 243.507 339.661 195.163 386.959 191.149C434.258 187.136 555.189 147.898 595.548 136.939Z" fill="#302220"/>
</g>
<mask id="mask1" mask-type="alpha" maskUnits="userSpaceOnUse" x="42" y="42" width="555" height="203">
<path d="M596.472 137.034C581.471 113.448 514.161 64.6074 482.381 43.1351C468.2 38.7116 454.742 48.7839 431.214 53.5728C407.686 58.3617 268.15 73.8034 223.083 82.1923C178.016 90.5813 58.129 141.594 44.1894 154.878C30.2498 168.161 131.636 247.789 174.791 244.908C217.946 242.028 340.584 194.398 387.883 190.444C435.182 186.489 556.113 147.831 596.472 137.034Z" fill="#7C5A57"/>
</mask>
<g mask="url(#mask1)">
<path d="M145.241 209.863C120.43 201.61 73.3569 160.574 52.9216 141.088C57.3693 137.649 66.8417 131.803 69.1497 135.929C72.0347 141.088 145.241 203.415 178.419 209.863C203.572 214.752 229.867 235.511 247.298 246.615C238.282 247.618 218.159 247.905 209.793 241.027C199.335 232.43 176.255 220.18 145.241 209.863Z" fill="#3F2A29"/>
<path d="M130.816 227.487C108.152 217.274 47.0315 173.814 26.5962 154.328C31.0439 150.889 40.5162 145.043 42.8242 149.17C45.7092 154.328 100.032 201.569 125.768 213.947C146.323 223.833 203.542 248.751 220.972 259.855C211.957 260.858 191.834 261.145 183.467 254.267C173.009 245.67 160.387 240.812 130.816 227.487Z" fill="#3F2A29"/>
<path d="M158.224 173.326C138.389 160.861 111.222 141.146 90.787 121.659C95.2347 118.22 104.707 112.375 107.015 116.501C109.9 121.659 174.452 175.39 203.662 184.632C227.03 192.025 267.733 216.083 285.163 227.187C276.147 228.19 256.025 228.477 247.658 221.599C237.2 213.002 182.663 188.686 158.224 173.326Z" fill="#3F2A29"/>
<path d="M201.859 161.72C181.619 149.835 151.612 127.39 131.177 107.904C135.625 104.465 145.097 98.6193 147.405 102.746C150.29 107.904 214.841 161.635 244.052 170.877C267.42 178.27 308.123 202.327 325.553 213.432C316.537 214.435 296.414 214.721 288.048 207.844C277.59 199.247 226.381 176.12 201.859 161.72Z" fill="#3F2A29"/>
<path d="M266.771 162.495C241.96 154.242 194.887 113.206 174.452 93.7195C178.899 90.2807 188.372 84.4348 190.68 88.5613C193.565 93.7195 258.116 147.451 287.327 156.692C310.695 164.086 351.397 188.143 368.828 199.247C359.812 200.25 339.689 200.537 331.323 193.659C320.865 185.062 297.785 172.812 266.771 162.495Z" fill="#3F2A29"/>
<path d="M328.438 159.571C301.455 154.264 235.998 101.17 215.563 81.6833C220.01 78.2445 229.483 72.3986 231.791 76.5251C234.676 81.6833 299.227 135.414 328.438 144.656C351.806 152.049 392.508 176.107 409.939 187.211C400.923 188.214 399.913 198.687 391.547 191.81C381.089 183.213 364.5 166.663 328.438 159.571Z" fill="#3F2A29"/>
<path d="M387.941 151.834C366.303 146.031 284.322 92.1432 263.886 72.6567C268.334 69.2179 277.806 63.372 280.114 67.4985C282.999 72.6567 347.551 126.388 376.761 135.629C400.13 143.023 440.832 167.08 458.262 178.184C449.247 179.187 438.895 191.568 434.822 183.428C428.691 171.177 412.044 158.298 387.941 151.834Z" fill="#3F2A29"/>
<path d="M405.611 134.64C388.62 121.067 326.875 84.4058 306.44 64.9194C310.887 61.4806 320.36 55.6346 322.668 59.7612C325.553 64.9194 399.228 112.234 419.315 127.892C437.346 141.947 483.385 159.343 500.816 170.447C491.8 171.45 475.698 169.062 463.311 164.859C444.558 158.496 426.167 151.059 405.611 134.64Z" fill="#3F2A29"/>
<path d="M442.755 122.949C417.944 114.696 370.871 73.6595 350.436 54.1731C354.883 50.7343 364.356 44.8883 366.664 49.0149C369.549 54.1731 434.1 107.904 463.311 117.146C486.679 124.539 527.382 148.596 544.812 159.701C535.796 160.704 515.673 160.99 507.307 154.113C496.849 145.516 473.769 133.265 442.755 122.949Z" fill="#3F2A29"/>
<path d="M464.032 100.467C445.28 87.4417 418.473 65.0625 398.038 45.5761C402.486 42.1373 411.958 36.2914 414.266 40.4179C417.151 45.5761 494.324 103.906 523.535 113.147C546.903 120.541 574.984 139.999 592.414 151.104C583.398 152.107 563.276 152.393 554.909 145.516C544.451 136.919 487.16 116.531 464.032 100.467Z" fill="#3F2A29"/>
<path d="M519.207 95.9537C498.453 84.3878 460.306 56.8956 439.87 37.4091C444.318 33.9704 453.79 28.1244 456.098 32.251C458.983 37.4091 523.535 91.1402 552.745 100.382C576.114 107.775 616.816 131.832 634.246 142.937C625.231 143.94 605.108 144.226 596.741 137.349C586.283 128.752 546.975 111.428 519.207 95.9537Z" fill="#3F2A29"/>
</g>
<path d="M590.1 148.348L585.896 130.056L588.348 111.074L592.202 126.605V139.72L591.151 147.313L598.157 132.472L605.163 131.437L606.214 142.136L602.185 137.304L600.959 139.72L591.151 150.419L590.1 148.348Z" fill="#127262"/>
<path d="M446.721 70C446.721 77.1618 451.556 77.4439 459.109 77.4439C462.221 80.5 464.438 79.6361 465.936 79.7193C467.207 79.7899 469.105 80.321 470.284 80.857C471.76 81.5277 474.131 81.0845 475.72 81.0845C480.677 81.0845 482.345 75.1279 482.748 71.098C482.924 69.3421 482.442 67.6644 483.33 66.0668C484.047 64.7769 486.09 63.921 487.324 63.2352C491.107 61.1336 491.466 54.6837 490.055 50.948C488.22 46.0918 485.164 40.5674 488.462 35.8039C492.021 30.6628 491.813 22.2245 489.827 16.4882C486.898 8.02621 481.099 6.18757 472.863 5.99603C468.983 5.9058 469.203 0.288833 465.025 0.0799616C460.389 -0.15186 457.27 -0.143677 454.559 3.92287C453.241 5.89866 451.969 7.6921 451.828 10.0918C451.777 10.9648 448.235 10.5468 447.48 10.5468C442.065 10.5468 440.451 18.7299 440.451 22.7329C440.451 25.7143 442.271 28.3051 442.271 31.2278C442.271 33.4702 441.085 33.7663 440.35 35.6775C439.213 38.6335 439.339 40.9985 439.339 44.4207C439.339 48.9923 438.892 49.1893 441.221 53C442.822 55.6196 440.518 61.5735 443.221 63C443.721 64 446.721 67.7495 446.721 70Z" fill="#116F36"/>
<path d="M456.702 28.6928C457.881 29.6769 459.341 30.0348 460.044 29.7374C460.788 29.4212 460.846 28.304 460.052 27.5137C459.354 26.8209 458.045 26.4239 456.972 26.6411C458.307 25.8509 459.015 24.5386 458.841 23.7079C458.656 22.8226 457.428 22.3003 456.373 22.7776C455.492 23.1778 454.785 24.2522 454.724 25.3698C454.337 23.9556 453.461 22.7775 452.832 22.5248C452.143 22.2471 451.532 22.9934 451.692 24.0798C451.835 25.0561 452.598 26.2489 453.498 26.7973C451.933 26.2898 450.195 26.4447 449.624 26.9219C449.049 27.3996 449.397 28.3598 450.447 28.6844C451.445 28.9923 453.131 28.8048 453.982 28.3153C452.722 29.6666 452.697 31.4142 453.465 32.1774C454.207 32.9164 455.845 32.8865 456.683 32.0078C457.434 31.2177 457.491 29.7878 456.702 28.6928Z" fill="#DFFFEC"/>
<path d="M467.353 34.919C467.077 35.7634 467.195 36.6215 467.507 36.936C467.835 37.2669 468.448 37.0586 468.706 36.4612C468.929 35.9382 468.859 35.1508 468.514 34.6224C469.223 35.1693 470.081 35.2672 470.49 34.9937C470.924 34.7038 470.943 33.934 470.46 33.4708C470.055 33.0863 469.326 32.9368 468.713 33.1451C469.392 32.6324 469.834 31.9092 469.836 31.5177C469.838 31.0885 469.304 30.9212 468.755 31.2415C468.261 31.5313 467.784 32.1941 467.684 32.7952C467.62 31.8471 467.164 30.9479 466.784 30.7441C466.404 30.5403 465.964 30.9313 466.015 31.565C466.062 32.1681 466.526 33.0288 466.972 33.3818C465.975 32.9956 465.031 33.3586 464.786 33.9353C464.547 34.4922 464.914 35.3646 465.566 35.6231C466.154 35.854 466.932 35.5763 467.353 34.919Z" fill="#DFFFEC"/>
<path d="M471.219 18.0607C470.593 19.9801 470.863 21.9321 471.572 22.6448C472.323 23.395 473.719 22.9178 474.298 21.5659C474.802 20.3761 474.649 18.5875 473.86 17.3863C475.473 18.6251 477.426 18.8467 478.355 18.2293C479.343 17.5713 479.384 15.8183 478.286 14.7654C477.368 13.8847 475.71 13.5482 474.314 14.0224C475.857 12.8586 476.867 11.2143 476.87 10.3248C476.871 9.351 475.662 8.96977 474.411 9.69674C473.287 10.3508 472.2 11.8631 471.971 13.2292C471.826 11.073 470.787 9.0311 469.925 8.56753C469.063 8.10395 468.06 8.99267 468.175 10.4335C468.287 11.7996 469.342 13.7608 470.354 14.5611C468.089 13.6868 465.939 14.5133 465.381 15.8211C464.838 17.0889 465.674 19.0717 467.158 19.6607C468.491 20.1887 470.264 19.5587 471.219 18.0607Z" fill="#DFFFEC"/>
<path d="M448.545 16.212C448.637 16.8019 448.233 17.353 447.643 17.4451C447.052 17.5371 446.5 17.1347 446.408 16.5449C446.317 15.955 446.72 15.4039 447.31 15.3118C447.901 15.2198 448.453 15.6222 448.545 16.212Z" fill="#DFFFEC"/>
<path d="M461.322 20.6387C461.756 21.05 461.772 21.7331 461.359 22.1636C460.947 22.5972 460.263 22.613 459.832 22.2012C459.398 21.7898 459.383 21.1068 459.795 20.6762C460.207 20.2426 460.888 20.2273 461.322 20.6387Z" fill="#DFFFEC"/>
<path d="M476.752 44.5425C477.186 44.9538 477.202 45.637 476.789 46.0675C476.376 46.498 475.693 46.5169 475.262 46.1051C474.828 45.6937 474.812 45.0106 475.225 44.5801C475.637 44.1465 476.318 44.1312 476.752 44.5425Z" fill="#DFFFEC"/>
<path d="M477.853 20.9463C478.071 21.1535 478.077 21.4937 477.872 21.7103C477.665 21.9273 477.324 21.9365 477.107 21.7293C476.89 21.5221 476.884 21.1819 477.088 20.9653C477.296 20.7483 477.637 20.7421 477.853 20.9463Z" fill="#DFFFEC"/>
<path d="M464.568 10.5665C464.786 10.7737 464.792 11.114 464.587 11.3306C464.383 11.5471 464.042 11.5563 463.822 11.3496C463.605 11.1424 463.599 10.8021 463.803 10.5855C464.011 10.3685 464.352 10.3624 464.568 10.5665Z" fill="#DFFFEC"/>
<path d="M483.085 25.2901C483.302 25.4973 483.308 25.8376 483.104 26.0541C482.896 26.2711 482.556 26.2773 482.339 26.0731C482.122 25.8659 482.116 25.5257 482.32 25.3091C482.528 25.0921 482.868 25.0859 483.085 25.2901Z" fill="#DFFFEC"/>
<path d="M486.229 32.307C486.446 32.5142 486.452 32.8545 486.247 33.071C486.04 33.2881 485.699 33.2942 485.482 33.0901C485.265 32.8829 485.259 32.5426 485.463 32.326C485.671 32.109 486.012 32.1029 486.229 32.307Z" fill="#DFFFEC"/>
<path d="M477.752 36.2133C477.859 36.3156 477.864 36.487 477.761 36.5937C477.659 36.7005 477.487 36.7053 477.38 36.603C477.274 36.5007 477.269 36.3293 477.371 36.2225C477.474 36.1158 477.645 36.111 477.752 36.2133Z" fill="#DFFFEC"/>
<path d="M469.438 28.3021C469.545 28.4044 469.55 28.5758 469.447 28.6826C469.342 28.7929 469.173 28.7941 469.066 28.6918C468.959 28.5895 468.955 28.4181 469.057 28.3114C469.16 28.2046 469.331 28.1998 469.438 28.3021Z" fill="#DFFFEC"/>
<path d="M462.197 25.0039C462.304 25.1062 462.308 25.2776 462.206 25.3843C462.104 25.4941 461.932 25.4959 461.825 25.3936C461.718 25.2913 461.713 25.1199 461.816 25.0131C461.918 24.9064 462.09 24.9015 462.197 25.0039Z" fill="#DFFFEC"/>
<path d="M454.889 19.6312C454.996 19.7335 455.001 19.9049 454.899 20.0117C454.796 20.1184 454.624 20.1232 454.518 20.0209C454.411 19.9186 454.406 19.7472 454.508 19.6404C454.611 19.5337 454.783 19.5289 454.889 19.6312Z" fill="#DFFFEC"/>
<path d="M454.692 13.4544C454.799 13.5567 454.804 13.7281 454.701 13.8348C454.599 13.9447 454.427 13.9464 454.32 13.8441C454.213 13.7418 454.209 13.5704 454.311 13.4637C454.414 13.3569 454.585 13.3521 454.692 13.4544Z" fill="#DFFFEC"/>
<path d="M466.534 25.7776C466.395 26.1967 466.516 26.5316 466.673 26.6888C466.836 26.8542 466.667 26.8118 466.92 26.6095C467.241 26.356 467.282 25.8926 467.109 25.6284C467.465 25.9016 467.765 25.8956 468.033 25.6411C468.221 25.4615 468.361 25.6119 468.159 25.3459C467.8 24.8728 467.515 24.7889 467.208 24.8931C467.544 24.6372 467.618 24.369 467.62 24.1747C467.621 23.9616 467.735 24.091 467.417 24.0811C466.995 24.0686 466.746 24.4204 466.695 24.7194C466.662 24.2456 466.64 24.0049 466.269 23.8937C466.064 23.8316 466.19 23.7932 466.036 24.0708C465.849 24.4035 466.12 24.834 466.342 25.0092C465.845 24.8174 465.317 25.3535 465.196 25.6416C465.079 25.9196 465.12 25.7756 465.444 25.9036C465.738 26.0205 466.325 26.1044 466.534 25.7776Z" fill="#DFFFEC"/>
<path d="M478.187 29.2461C478.049 29.6653 478.17 30.0001 478.326 30.1573C478.49 30.3228 478.323 30.2799 478.574 30.0781C478.895 29.8246 478.936 29.3612 478.763 29.097C479.119 29.3702 479.419 29.3642 479.686 29.1096C479.875 28.93 480.014 29.0805 479.813 28.8144C479.454 28.3413 479.168 28.2575 478.861 28.3616C479.198 28.1058 479.272 27.8375 479.273 27.6433C479.274 27.4302 479.389 27.5595 479.07 27.5496C478.648 27.5371 478.399 27.889 478.348 28.188C478.315 27.7142 478.294 27.4734 477.922 27.3623C477.718 27.3001 477.844 27.2618 477.689 27.5394C477.503 27.8721 477.774 28.3026 477.995 28.4778C477.498 28.286 476.971 28.8221 476.849 29.1102C476.733 29.3882 476.773 29.2442 477.097 29.3721C477.391 29.4891 477.978 29.573 478.187 29.2461Z" fill="#DFFFEC"/>
<path d="M483.412 40.8315C483.274 41.2507 483.395 41.5855 483.551 41.7428C483.715 41.9082 483.545 41.8658 483.799 41.6635C484.12 41.41 484.161 40.9466 483.988 40.6824C484.344 40.9556 484.644 40.9496 484.911 40.695C485.1 40.5154 485.239 40.6659 485.038 40.3999C484.679 39.9267 484.393 39.8429 484.086 39.9471C484.423 39.6912 484.497 39.4229 484.498 39.2287C484.499 39.0156 484.614 39.145 484.295 39.135C483.873 39.1225 483.624 39.4744 483.574 39.7734C483.54 39.2996 483.519 39.0588 483.147 38.9477C482.943 38.8856 483.069 38.8472 482.914 39.1248C482.728 39.4575 482.999 39.888 483.221 40.0632C482.724 39.8714 482.196 40.4075 482.075 40.6956C481.958 40.9736 481.998 40.8296 482.322 40.9575C482.616 41.0745 483.203 41.1584 483.412 40.8315Z" fill="#DFFFEC"/>
<path d="M477.48 42.7325C477.341 43.1516 477.462 43.4865 477.618 43.6437C477.782 43.8061 477.612 43.7637 477.866 43.5644C478.187 43.3109 478.228 42.8476 478.055 42.5834C478.411 42.8566 478.711 42.8505 478.979 42.596C479.167 42.4164 479.306 42.5669 479.105 42.3008C478.746 41.8277 478.46 41.7439 478.154 41.848C478.49 41.5922 478.564 41.3239 478.565 41.1296C478.567 40.9166 478.681 41.0459 478.363 41.036C477.941 41.0235 477.691 41.3754 477.641 41.6744C477.608 41.2006 477.586 40.9598 477.214 40.8487C477.01 40.7865 477.136 40.7482 476.982 41.0258C476.795 41.3584 477.066 41.7889 477.288 41.9641C476.791 41.7723 476.263 42.3085 476.142 42.5966C476.025 42.8746 476.065 42.7306 476.389 42.8585C476.683 42.9755 477.27 43.0594 477.48 42.7325Z" fill="#DFFFEC"/>
<path d="M504.137 118C504.137 125.162 508.973 125.444 516.526 125.444C519.637 128.5 521.855 127.636 523.352 127.719C524.623 127.79 526.521 128.321 527.701 128.857C529.176 129.528 531.548 129.085 533.136 129.085C538.094 129.085 539.762 123.128 540.165 119.098C540.34 117.342 539.859 115.664 540.746 114.067C541.463 112.777 543.506 111.921 544.741 111.235C548.524 109.134 548.883 102.684 547.471 98.948C545.637 94.0918 542.581 88.5674 545.879 83.8039C549.438 78.6628 549.229 70.2245 547.244 64.4882C544.315 56.0262 538.516 54.1876 530.279 53.996C526.399 53.9058 526.619 48.2888 522.442 48.08C517.805 47.8481 514.686 47.8563 511.975 51.9229C510.658 53.8987 509.386 55.6921 509.244 58.0918C509.193 58.9648 505.652 58.5468 504.896 58.5468C499.481 58.5468 497.867 66.7299 497.867 70.7329C497.867 73.7143 499.688 76.3051 499.688 79.2278C499.688 81.4702 498.501 81.7663 497.766 83.6775C496.629 86.6335 496.755 88.9985 496.755 92.4207C496.755 96.9923 496.308 97.1893 498.637 101C500.238 103.62 497.934 109.574 500.637 111C501.137 112 504.137 115.749 504.137 118Z" fill="#116F36"/>
<path d="M514.119 76.6928C515.297 77.6769 516.757 78.0348 517.46 77.7374C518.204 77.4212 518.262 76.304 517.468 75.5137C516.771 74.8209 515.461 74.4239 514.389 74.6411C515.723 73.8509 516.431 72.5386 516.258 71.7079C516.073 70.8226 514.844 70.3003 513.79 70.7776C512.909 71.1778 512.201 72.2522 512.14 73.3698C511.754 71.9556 510.877 70.7775 510.249 70.5248C509.56 70.2471 508.949 70.9934 509.109 72.0798C509.251 73.0561 510.014 74.2489 510.914 74.7973C509.349 74.2898 507.612 74.4447 507.04 74.9219C506.466 75.3996 506.813 76.3598 507.863 76.6844C508.861 76.9923 510.547 76.8048 511.399 76.3153C510.139 77.6666 510.113 79.4142 510.881 80.1774C511.623 80.9164 513.261 80.8865 514.099 80.0078C514.851 79.2177 514.907 77.7878 514.119 76.6928Z" fill="#DFFFEC"/>
<path d="M524.769 82.919C524.493 83.7634 524.611 84.6215 524.924 84.936C525.251 85.2669 525.864 85.0586 526.122 84.4612C526.345 83.9382 526.276 83.1508 525.93 82.6224C526.639 83.1693 527.498 83.2672 527.906 82.9937C528.341 82.7038 528.359 81.934 527.876 81.4708C527.471 81.0863 526.743 80.9368 526.129 81.1451C526.808 80.6324 527.25 79.9092 527.252 79.5177C527.254 79.0885 526.72 78.9212 526.171 79.2415C525.677 79.5313 525.201 80.1941 525.1 80.7952C525.037 79.8471 524.58 78.9479 524.2 78.7441C523.821 78.5403 523.38 78.9313 523.432 79.565C523.479 80.1681 523.942 81.0288 524.389 81.3818C523.391 80.9956 522.448 81.3586 522.202 81.9353C521.963 82.4922 522.331 83.3646 522.982 83.6231C523.57 83.854 524.348 83.5763 524.769 82.919Z" fill="#DFFFEC"/>
<path d="M528.635 66.0607C528.009 67.9801 528.279 69.9321 528.989 70.6448C529.739 71.395 531.135 70.9178 531.714 69.5659C532.219 68.3761 532.065 66.5875 531.276 65.3863C532.889 66.6251 534.842 66.8467 535.771 66.2293C536.76 65.5713 536.8 63.8183 535.702 62.7654C534.784 61.8847 533.127 61.5482 531.73 62.0224C533.273 60.8586 534.283 59.2143 534.286 58.3248C534.288 57.351 533.078 56.9698 531.828 57.6967C530.704 58.3508 529.616 59.8631 529.387 61.2292C529.243 59.073 528.203 57.0311 527.341 56.5675C526.479 56.1039 525.476 56.9927 525.591 58.4335C525.704 59.7996 526.758 61.7608 527.77 62.5611C525.505 61.6868 523.355 62.5133 522.797 63.8211C522.255 65.0889 523.09 67.0717 524.574 67.6607C525.907 68.1887 527.68 67.5587 528.635 66.0607Z" fill="#DFFFEC"/>
<path d="M505.961 64.212C506.053 64.8019 505.65 65.353 505.059 65.4451C504.468 65.5371 503.917 65.1347 503.825 64.5449C503.733 63.955 504.136 63.4039 504.727 63.3118C505.318 63.2198 505.869 63.6222 505.961 64.212Z" fill="#DFFFEC"/>
<path d="M518.739 68.6387C519.173 69.05 519.188 69.7331 518.776 70.1636C518.364 70.5972 517.68 70.613 517.249 70.2012C516.815 69.7898 516.799 69.1068 517.212 68.6762C517.624 68.2426 518.305 68.2273 518.739 68.6387Z" fill="#DFFFEC"/>
<path d="M534.168 92.5425C534.602 92.9538 534.618 93.637 534.205 94.0675C533.793 94.498 533.109 94.5169 532.678 94.1051C532.244 93.6937 532.229 93.0106 532.641 92.5801C533.053 92.1465 533.734 92.1312 534.168 92.5425Z" fill="#DFFFEC"/>
<path d="M535.27 68.9463C535.487 69.1535 535.493 69.4937 535.289 69.7103C535.081 69.9273 534.741 69.9365 534.524 69.7293C534.306 69.5221 534.3 69.1819 534.505 68.9653C534.712 68.7483 535.053 68.7421 535.27 68.9463Z" fill="#DFFFEC"/>
<path d="M521.985 58.5665C522.202 58.7737 522.208 59.114 522.004 59.3306C521.799 59.5471 521.459 59.5563 521.238 59.3496C521.021 59.1424 521.015 58.8021 521.22 58.5855C521.427 58.3685 521.768 58.3624 521.985 58.5665Z" fill="#DFFFEC"/>
<path d="M540.502 73.2901C540.719 73.4973 540.725 73.8376 540.52 74.0541C540.313 74.2711 539.972 74.2773 539.755 74.0731C539.538 73.8659 539.532 73.5257 539.736 73.3091C539.944 73.0921 540.285 73.0859 540.502 73.2901Z" fill="#DFFFEC"/>
<path d="M543.645 80.307C543.862 80.5142 543.868 80.8545 543.664 81.071C543.456 81.2881 543.115 81.2942 542.899 81.0901C542.681 80.8829 542.675 80.5426 542.88 80.326C543.087 80.109 543.428 80.1029 543.645 80.307Z" fill="#DFFFEC"/>
<path d="M535.169 84.2133C535.276 84.3156 535.28 84.487 535.178 84.5937C535.075 84.7005 534.904 84.7053 534.797 84.603C534.69 84.5007 534.685 84.3293 534.788 84.2225C534.89 84.1158 535.062 84.111 535.169 84.2133Z" fill="#DFFFEC"/>
<path d="M526.855 76.3021C526.961 76.4044 526.966 76.5758 526.864 76.6826C526.759 76.7929 526.589 76.7941 526.483 76.6918C526.376 76.5895 526.371 76.4181 526.473 76.3114C526.576 76.2046 526.748 76.1998 526.855 76.3021Z" fill="#DFFFEC"/>
<path d="M519.613 73.0039C519.72 73.1062 519.725 73.2776 519.622 73.3843C519.52 73.4941 519.348 73.4959 519.241 73.3936C519.135 73.2913 519.13 73.1199 519.232 73.0131C519.335 72.9064 519.506 72.9015 519.613 73.0039Z" fill="#DFFFEC"/>
<path d="M512.306 67.6312C512.413 67.7335 512.417 67.9049 512.315 68.0117C512.212 68.1184 512.041 68.1232 511.934 68.0209C511.827 67.9186 511.822 67.7472 511.925 67.6404C512.027 67.5337 512.199 67.5289 512.306 67.6312Z" fill="#DFFFEC"/>
<path d="M512.108 61.4544C512.215 61.5567 512.22 61.7281 512.118 61.8348C512.016 61.9447 511.843 61.9464 511.737 61.8441C511.63 61.7418 511.625 61.5704 511.727 61.4637C511.83 61.3569 512.002 61.3521 512.108 61.4544Z" fill="#DFFFEC"/>
<path d="M523.95 73.7776C523.812 74.1967 523.933 74.5316 524.089 74.6888C524.253 74.8542 524.083 74.8118 524.337 74.6095C524.658 74.356 524.699 73.8926 524.526 73.6284C524.882 73.9016 525.182 73.8956 525.449 73.6411C525.638 73.4615 525.777 73.6119 525.576 73.3459C525.217 72.8728 524.931 72.7889 524.624 72.8931C524.961 72.6372 525.035 72.369 525.036 72.1747C525.037 71.9616 525.151 72.091 524.833 72.0811C524.411 72.0686 524.162 72.4204 524.111 72.7194C524.078 72.2456 524.056 72.0049 523.685 71.8937C523.481 71.8316 523.607 71.7932 523.452 72.0708C523.266 72.4035 523.537 72.834 523.758 73.0092C523.261 72.8174 522.734 73.3535 522.612 73.6416C522.496 73.9196 522.536 73.7756 522.86 73.9036C523.154 74.0205 523.741 74.1044 523.95 73.7776Z" fill="#DFFFEC"/>
<path d="M535.604 77.2461C535.465 77.6653 535.586 78.0001 535.742 78.1573C535.906 78.3228 535.74 78.2799 535.99 78.0781C536.311 77.8246 536.352 77.3612 536.179 77.097C536.535 77.3702 536.835 77.3642 537.103 77.1096C537.291 76.93 537.431 77.0805 537.229 76.8144C536.87 76.3413 536.584 76.2575 536.278 76.3616C536.614 76.1058 536.688 75.8375 536.689 75.6433C536.691 75.4302 536.805 75.5595 536.487 75.5496C536.065 75.5371 535.815 75.889 535.765 76.188C535.732 75.7142 535.71 75.4734 535.338 75.3623C535.134 75.3001 535.26 75.2618 535.106 75.5394C534.919 75.8721 535.19 76.3026 535.412 76.4778C534.915 76.286 534.387 76.8221 534.266 77.1102C534.149 77.3882 534.19 77.2442 534.514 77.3721C534.808 77.4891 535.394 77.573 535.604 77.2461Z" fill="#DFFFEC"/>
<path d="M540.829 88.8315C540.69 89.2507 540.811 89.5855 540.968 89.7428C541.131 89.9082 540.962 89.8658 541.215 89.6635C541.536 89.41 541.577 88.9466 541.404 88.6824C541.76 88.9556 542.06 88.9496 542.328 88.695C542.516 88.5154 542.656 88.6659 542.454 88.3999C542.095 87.9267 541.81 87.8429 541.503 87.9471C541.839 87.6912 541.913 87.4229 541.914 87.2287C541.916 87.0156 542.03 87.145 541.712 87.135C541.29 87.1225 541.04 87.4744 540.99 87.7734C540.957 87.2996 540.935 87.0588 540.563 86.9477C540.359 86.8856 540.485 86.8472 540.331 87.1248C540.144 87.4575 540.415 87.888 540.637 88.0632C540.14 87.8714 539.612 88.4075 539.491 88.6956C539.374 88.9736 539.415 88.8296 539.739 88.9575C540.033 89.0745 540.619 89.1584 540.829 88.8315Z" fill="#DFFFEC"/>
<path d="M534.896 90.7325C534.757 91.1516 534.879 91.4865 535.035 91.6437C535.198 91.8061 535.028 91.7637 535.283 91.5644C535.604 91.3109 535.644 90.8476 535.471 90.5834C535.827 90.8566 536.127 90.8505 536.395 90.596C536.583 90.4164 536.723 90.5669 536.521 90.3008C536.162 89.8277 535.877 89.7439 535.57 89.848C535.906 89.5922 535.981 89.3239 535.982 89.1296C535.983 88.9166 536.097 89.0459 535.779 89.036C535.357 89.0235 535.108 89.3754 535.057 89.6744C535.024 89.2006 535.002 88.9598 534.631 88.8487C534.427 88.7865 534.552 88.7482 534.398 89.0258C534.212 89.3584 534.482 89.7889 534.704 89.9641C534.207 89.7723 533.679 90.3085 533.558 90.5966C533.442 90.8746 533.482 90.7306 533.806 90.8585C534.1 90.9755 534.687 91.0594 534.896 90.7325Z" fill="#DFFFEC"/>
<path d="M348.137 100C348.137 107.162 352.973 107.444 360.526 107.444C363.637 110.5 365.855 109.636 367.352 109.719C368.623 109.79 370.521 110.321 371.701 110.857C373.176 111.528 375.548 111.085 377.136 111.085C382.094 111.085 383.762 105.128 384.165 101.098C384.34 99.3421 383.859 97.6644 384.746 96.0668C385.463 94.7769 387.506 93.921 388.741 93.2352C392.524 91.1336 392.883 84.6837 391.471 80.948C389.637 76.0918 386.581 70.5674 389.879 65.8039C393.438 60.6628 393.229 52.2245 391.244 46.4882C388.315 38.0262 382.516 36.1876 374.279 35.996C370.399 35.9058 370.619 30.2888 366.442 30.08C361.805 29.8481 358.686 29.8563 355.975 33.9229C354.658 35.8987 353.386 37.6921 353.244 40.0918C353.193 40.9648 349.652 40.5468 348.896 40.5468C343.481 40.5468 341.867 48.7299 341.867 52.7329C341.867 55.7143 343.688 58.3051 343.688 61.2278C343.688 63.4702 342.501 63.7663 341.766 65.6775C340.629 68.6335 340.755 70.9985 340.755 74.4207C340.755 78.9923 340.308 79.1893 342.637 83C344.238 85.6196 341.934 91.5735 344.637 93C345.137 94 348.137 97.7495 348.137 100Z" fill="#116F36"/>
<path d="M358.119 58.6928C359.297 59.6769 360.757 60.0348 361.46 59.7374C362.204 59.4212 362.262 58.304 361.468 57.5137C360.771 56.8209 359.461 56.4239 358.389 56.6411C359.723 55.8509 360.431 54.5386 360.258 53.7079C360.073 52.8226 358.844 52.3003 357.79 52.7776C356.909 53.1778 356.201 54.2522 356.14 55.3698C355.754 53.9556 354.877 52.7775 354.249 52.5248C353.56 52.2471 352.949 52.9934 353.109 54.0798C353.251 55.0561 354.014 56.2489 354.914 56.7973C353.349 56.2898 351.612 56.4447 351.04 56.9219C350.466 57.3996 350.813 58.3598 351.863 58.6844C352.861 58.9923 354.547 58.8048 355.399 58.3153C354.139 59.6666 354.113 61.4142 354.881 62.1774C355.623 62.9164 357.261 62.8865 358.099 62.0078C358.851 61.2177 358.907 59.7878 358.119 58.6928Z" fill="#DFFFEC"/>
<path d="M368.769 64.919C368.493 65.7634 368.611 66.6215 368.924 66.936C369.251 67.2669 369.864 67.0586 370.122 66.4612C370.345 65.9382 370.276 65.1508 369.93 64.6224C370.639 65.1693 371.498 65.2672 371.906 64.9937C372.341 64.7038 372.359 63.934 371.876 63.4708C371.471 63.0863 370.743 62.9368 370.129 63.1451C370.808 62.6324 371.25 61.9092 371.252 61.5177C371.254 61.0885 370.72 60.9212 370.171 61.2415C369.677 61.5313 369.201 62.1941 369.1 62.7952C369.037 61.8471 368.58 60.9479 368.2 60.7441C367.821 60.5403 367.38 60.9313 367.432 61.565C367.479 62.1681 367.942 63.0288 368.389 63.3818C367.391 62.9956 366.448 63.3586 366.202 63.9353C365.963 64.4922 366.331 65.3646 366.982 65.6231C367.57 65.854 368.348 65.5763 368.769 64.919Z" fill="#DFFFEC"/>
<path d="M372.635 48.0607C372.009 49.9801 372.279 51.9321 372.989 52.6448C373.739 53.395 375.135 52.9178 375.714 51.5659C376.219 50.3761 376.065 48.5875 375.276 47.3863C376.889 48.6251 378.842 48.8467 379.771 48.2293C380.76 47.5713 380.8 45.8183 379.702 44.7654C378.784 43.8847 377.127 43.5482 375.73 44.0224C377.273 42.8586 378.283 41.2143 378.286 40.3248C378.288 39.351 377.078 38.9698 375.828 39.6967C374.704 40.3508 373.616 41.8631 373.387 43.2292C373.243 41.073 372.203 39.0311 371.341 38.5675C370.479 38.1039 369.476 38.9927 369.591 40.4335C369.704 41.7996 370.758 43.7608 371.77 44.5611C369.505 43.6868 367.355 44.5133 366.797 45.8211C366.255 47.0889 367.09 49.0717 368.574 49.6607C369.907 50.1887 371.68 49.5587 372.635 48.0607Z" fill="#DFFFEC"/>
<path d="M349.961 46.212C350.053 46.8019 349.65 47.353 349.059 47.4451C348.468 47.5371 347.917 47.1347 347.825 46.5449C347.733 45.955 348.136 45.4039 348.727 45.3118C349.318 45.2198 349.869 45.6222 349.961 46.212Z" fill="#DFFFEC"/>
<path d="M362.739 50.6387C363.173 51.05 363.188 51.7331 362.776 52.1636C362.364 52.5972 361.68 52.613 361.249 52.2012C360.815 51.7898 360.799 51.1068 361.212 50.6762C361.624 50.2426 362.305 50.2273 362.739 50.6387Z" fill="#DFFFEC"/>
<path d="M378.168 74.5425C378.602 74.9538 378.618 75.637 378.205 76.0675C377.793 76.498 377.109 76.5169 376.678 76.1051C376.244 75.6937 376.229 75.0106 376.641 74.5801C377.053 74.1465 377.734 74.1312 378.168 74.5425Z" fill="#DFFFEC"/>
<path d="M379.27 50.9463C379.487 51.1535 379.493 51.4937 379.289 51.7103C379.081 51.9273 378.741 51.9365 378.524 51.7293C378.306 51.5221 378.3 51.1819 378.505 50.9653C378.712 50.7483 379.053 50.7421 379.27 50.9463Z" fill="#DFFFEC"/>
<path d="M365.985 40.5665C366.202 40.7737 366.208 41.114 366.004 41.3306C365.799 41.5471 365.459 41.5563 365.238 41.3496C365.021 41.1424 365.015 40.8021 365.22 40.5855C365.427 40.3685 365.768 40.3624 365.985 40.5665Z" fill="#DFFFEC"/>
<path d="M384.502 55.2901C384.719 55.4973 384.725 55.8376 384.52 56.0541C384.313 56.2711 383.972 56.2773 383.755 56.0731C383.538 55.8659 383.532 55.5257 383.736 55.3091C383.944 55.0921 384.285 55.0859 384.502 55.2901Z" fill="#DFFFEC"/>
<path d="M387.645 62.307C387.862 62.5142 387.868 62.8545 387.664 63.071C387.456 63.2881 387.115 63.2942 386.899 63.0901C386.681 62.8829 386.675 62.5426 386.88 62.326C387.087 62.109 387.428 62.1029 387.645 62.307Z" fill="#DFFFEC"/>
<path d="M379.169 66.2133C379.276 66.3156 379.28 66.487 379.178 66.5937C379.075 66.7005 378.904 66.7053 378.797 66.603C378.69 66.5007 378.685 66.3293 378.788 66.2225C378.89 66.1158 379.062 66.111 379.169 66.2133Z" fill="#DFFFEC"/>
<path d="M370.855 58.3021C370.961 58.4044 370.966 58.5758 370.864 58.6826C370.759 58.7929 370.589 58.7941 370.483 58.6918C370.376 58.5895 370.371 58.4181 370.473 58.3114C370.576 58.2046 370.748 58.1998 370.855 58.3021Z" fill="#DFFFEC"/>
<path d="M363.613 55.0039C363.72 55.1062 363.725 55.2776 363.622 55.3843C363.52 55.4941 363.348 55.4959 363.241 55.3936C363.135 55.2913 363.13 55.1199 363.232 55.0131C363.335 54.9064 363.506 54.9015 363.613 55.0039Z" fill="#DFFFEC"/>
<path d="M356.306 49.6312C356.413 49.7335 356.417 49.9049 356.315 50.0117C356.212 50.1184 356.041 50.1232 355.934 50.0209C355.827 49.9186 355.822 49.7472 355.925 49.6404C356.027 49.5337 356.199 49.5289 356.306 49.6312Z" fill="#DFFFEC"/>
<path d="M356.108 43.4544C356.215 43.5567 356.22 43.7281 356.118 43.8348C356.016 43.9447 355.843 43.9464 355.737 43.8441C355.63 43.7418 355.625 43.5704 355.727 43.4637C355.83 43.3569 356.002 43.3521 356.108 43.4544Z" fill="#DFFFEC"/>
<path d="M367.95 55.7776C367.812 56.1967 367.933 56.5316 368.089 56.6888C368.253 56.8542 368.083 56.8118 368.337 56.6095C368.658 56.356 368.699 55.8926 368.526 55.6284C368.882 55.9016 369.182 55.8956 369.449 55.6411C369.638 55.4615 369.777 55.6119 369.576 55.3459C369.217 54.8728 368.931 54.7889 368.624 54.8931C368.961 54.6372 369.035 54.369 369.036 54.1747C369.037 53.9616 369.151 54.091 368.833 54.0811C368.411 54.0686 368.162 54.4204 368.111 54.7194C368.078 54.2456 368.056 54.0049 367.685 53.8937C367.481 53.8316 367.607 53.7932 367.452 54.0708C367.266 54.4035 367.537 54.834 367.758 55.0092C367.261 54.8174 366.734 55.3535 366.612 55.6416C366.496 55.9196 366.536 55.7756 366.86 55.9036C367.154 56.0205 367.741 56.1044 367.95 55.7776Z" fill="#DFFFEC"/>
<path d="M379.604 59.2461C379.465 59.6653 379.586 60.0001 379.742 60.1573C379.906 60.3228 379.74 60.2799 379.99 60.0781C380.311 59.8246 380.352 59.3612 380.179 59.097C380.535 59.3702 380.835 59.3642 381.103 59.1096C381.291 58.93 381.431 59.0805 381.229 58.8144C380.87 58.3413 380.584 58.2575 380.278 58.3616C380.614 58.1058 380.688 57.8375 380.689 57.6433C380.691 57.4302 380.805 57.5595 380.487 57.5496C380.065 57.5371 379.815 57.889 379.765 58.188C379.732 57.7142 379.71 57.4734 379.338 57.3623C379.134 57.3001 379.26 57.2618 379.106 57.5394C378.919 57.8721 379.19 58.3026 379.412 58.4778C378.915 58.286 378.387 58.8221 378.266 59.1102C378.149 59.3882 378.19 59.2442 378.514 59.3721C378.808 59.4891 379.394 59.573 379.604 59.2461Z" fill="#DFFFEC"/>
<path d="M384.829 70.8315C384.69 71.2507 384.811 71.5855 384.968 71.7428C385.131 71.9082 384.962 71.8658 385.215 71.6635C385.536 71.41 385.577 70.9466 385.404 70.6824C385.76 70.9556 386.06 70.9496 386.328 70.695C386.516 70.5154 386.656 70.6659 386.454 70.3999C386.095 69.9267 385.81 69.8429 385.503 69.9471C385.839 69.6912 385.913 69.4229 385.914 69.2287C385.916 69.0156 386.03 69.145 385.712 69.135C385.29 69.1225 385.04 69.4744 384.99 69.7734C384.957 69.2996 384.935 69.0588 384.563 68.9477C384.359 68.8856 384.485 68.8472 384.331 69.1248C384.144 69.4575 384.415 69.888 384.637 70.0632C384.14 69.8714 383.612 70.4075 383.491 70.6956C383.374 70.9736 383.415 70.8296 383.739 70.9575C384.033 71.0745 384.619 71.1584 384.829 70.8315Z" fill="#DFFFEC"/>
<path d="M378.896 72.7325C378.757 73.1516 378.879 73.4865 379.035 73.6437C379.198 73.8061 379.028 73.7637 379.283 73.5644C379.604 73.3109 379.644 72.8476 379.471 72.5834C379.827 72.8566 380.127 72.8505 380.395 72.596C380.583 72.4164 380.723 72.5669 380.521 72.3008C380.162 71.8277 379.877 71.7439 379.57 71.848C379.906 71.5922 379.981 71.3239 379.982 71.1296C379.983 70.9166 380.097 71.0459 379.779 71.036C379.357 71.0235 379.108 71.3754 379.057 71.6744C379.024 71.2006 379.002 70.9598 378.631 70.8487C378.427 70.7865 378.552 70.7482 378.398 71.0258C378.212 71.3584 378.482 71.7889 378.704 71.9641C378.207 71.7723 377.679 72.3085 377.558 72.5966C377.442 72.8746 377.482 72.7306 377.806 72.8585C378.1 72.9755 378.687 73.0594 378.896 72.7325Z" fill="#DFFFEC"/>
<path d="M405.553 148C405.553 155.162 410.389 155.444 417.942 155.444C421.053 158.5 423.271 157.636 424.768 157.719C426.039 157.79 427.938 158.321 429.117 158.857C430.593 159.528 432.964 159.085 434.553 159.085C439.51 159.085 441.178 153.128 441.581 149.098C441.757 147.342 441.275 145.664 442.163 144.067C442.879 142.777 444.923 141.921 446.157 141.235C449.94 139.134 450.299 132.684 448.888 128.948C447.053 124.092 443.997 118.567 447.295 113.804C450.854 108.663 450.646 100.224 448.66 94.4882C445.731 86.0262 439.932 84.1876 431.696 83.996C427.816 83.9058 428.036 78.2888 423.858 78.08C419.222 77.8481 416.102 77.8563 413.391 81.9229C412.074 83.8987 410.802 85.6921 410.661 88.0918C410.609 88.9648 407.068 88.5468 406.312 88.5468C400.897 88.5468 399.284 96.7299 399.284 100.733C399.284 103.714 401.104 106.305 401.104 109.228C401.104 111.47 399.918 111.766 399.183 113.677C398.046 116.633 398.171 118.999 398.171 122.421C398.171 126.992 397.725 127.189 400.053 131C401.654 133.62 399.351 139.574 402.053 141C402.554 142 405.553 145.749 405.553 148Z" fill="#116F36"/>
<path d="M415.535 106.693C416.714 107.677 418.174 108.035 418.877 107.737C419.621 107.421 419.679 106.304 418.885 105.514C418.187 104.821 416.878 104.424 415.805 104.641C417.14 103.851 417.847 102.539 417.674 101.708C417.489 100.823 416.26 100.3 415.206 100.778C414.325 101.178 413.618 102.252 413.557 103.37C413.17 101.956 412.294 100.777 411.665 100.525C410.976 100.247 410.365 100.993 410.525 102.08C410.668 103.056 411.43 104.249 412.331 104.797C410.766 104.29 409.028 104.445 408.457 104.922C407.882 105.4 408.229 106.36 409.28 106.684C410.278 106.992 411.963 106.805 412.815 106.315C411.555 107.667 411.53 109.414 412.297 110.177C413.04 110.916 414.678 110.887 415.516 110.008C416.267 109.218 416.323 107.788 415.535 106.693Z" fill="#DFFFEC"/>
<path d="M426.186 112.919C425.91 113.763 426.028 114.622 426.34 114.936C426.667 115.267 427.281 115.059 427.539 114.461C427.761 113.938 427.692 113.151 427.346 112.622C428.055 113.169 428.914 113.267 429.323 112.994C429.757 112.704 429.775 111.934 429.292 111.471C428.888 111.086 428.159 110.937 427.546 111.145C428.224 110.632 428.667 109.909 428.668 109.518C428.67 109.088 428.137 108.921 427.588 109.242C427.094 109.531 426.617 110.194 426.516 110.795C426.453 109.847 425.996 108.948 425.617 108.744C425.237 108.54 424.796 108.931 424.848 109.565C424.895 110.168 425.358 111.029 425.805 111.382C424.808 110.996 423.864 111.359 423.619 111.935C423.379 112.492 423.747 113.365 424.399 113.623C424.987 113.854 425.765 113.576 426.186 112.919Z" fill="#DFFFEC"/>
<path d="M430.052 96.0607C429.426 97.9801 429.695 99.9321 430.405 100.645C431.155 101.395 432.551 100.918 433.131 99.5659C433.635 98.3761 433.482 96.5875 432.693 95.3863C434.306 96.6251 436.259 96.8467 437.188 96.2293C438.176 95.5713 438.217 93.8183 437.118 92.7654C436.201 91.8847 434.543 91.5482 433.147 92.0224C434.69 90.8586 435.7 89.2143 435.702 88.3248C435.704 87.351 434.494 86.9698 433.244 87.6967C432.12 88.3508 431.033 89.8631 430.804 91.2292C430.659 89.073 429.62 87.0311 428.758 86.5675C427.895 86.1039 426.893 86.9927 427.008 88.4335C427.12 89.7996 428.175 91.7608 429.187 92.5611C426.922 91.6868 424.772 92.5133 424.214 93.8211C423.671 95.0889 424.507 97.0717 425.99 97.6607C427.323 98.1887 429.097 97.5587 430.052 96.0607Z" fill="#DFFFEC"/>
<path d="M407.378 94.212C407.469 94.8019 407.066 95.353 406.476 95.4451C405.885 95.5371 405.333 95.1347 405.241 94.5449C405.149 93.955 405.553 93.4039 406.143 93.3118C406.734 93.2198 407.286 93.6222 407.378 94.212Z" fill="#DFFFEC"/>
<path d="M420.155 98.6387C420.589 99.05 420.605 99.7331 420.192 100.164C419.78 100.597 419.096 100.613 418.665 100.201C418.231 99.7898 418.216 99.1068 418.628 98.6762C419.04 98.2426 419.721 98.2273 420.155 98.6387Z" fill="#DFFFEC"/>
<path d="M435.585 122.543C436.019 122.954 436.034 123.637 435.622 124.067C435.209 124.498 434.526 124.517 434.095 124.105C433.661 123.694 433.645 123.011 434.058 122.58C434.47 122.146 435.151 122.131 435.585 122.543Z" fill="#DFFFEC"/>
<path d="M436.686 98.9463C436.903 99.1535 436.909 99.4937 436.705 99.7103C436.497 99.9273 436.157 99.9365 435.94 99.7293C435.723 99.5221 435.717 99.1819 435.921 98.9653C436.129 98.7483 436.469 98.7421 436.686 98.9463Z" fill="#DFFFEC"/>
<path d="M423.401 88.5665C423.618 88.7737 423.624 89.114 423.42 89.3306C423.215 89.5471 422.875 89.5563 422.655 89.3496C422.438 89.1424 422.432 88.8021 422.636 88.5855C422.844 88.3685 423.184 88.3624 423.401 88.5665Z" fill="#DFFFEC"/>
<path d="M441.918 103.29C442.135 103.497 442.141 103.838 441.937 104.054C441.729 104.271 441.388 104.277 441.172 104.073C440.954 103.866 440.948 103.526 441.153 103.309C441.36 103.092 441.701 103.086 441.918 103.29Z" fill="#DFFFEC"/>
<path d="M445.061 110.307C445.279 110.514 445.285 110.854 445.08 111.071C444.872 111.288 444.532 111.294 444.315 111.09C444.098 110.883 444.092 110.543 444.296 110.326C444.504 110.109 444.845 110.103 445.061 110.307Z" fill="#DFFFEC"/>
<path d="M436.585 114.213C436.692 114.316 436.697 114.487 436.594 114.594C436.492 114.7 436.32 114.705 436.213 114.603C436.106 114.501 436.102 114.329 436.204 114.223C436.307 114.116 436.478 114.111 436.585 114.213Z" fill="#DFFFEC"/>
<path d="M428.271 106.302C428.378 106.404 428.382 106.576 428.28 106.683C428.175 106.793 428.006 106.794 427.899 106.692C427.792 106.59 427.787 106.418 427.89 106.311C427.992 106.205 428.164 106.2 428.271 106.302Z" fill="#DFFFEC"/>
<path d="M421.03 103.004C421.136 103.106 421.141 103.278 421.039 103.384C420.937 103.494 420.765 103.496 420.658 103.394C420.551 103.291 420.546 103.12 420.649 103.013C420.751 102.906 420.923 102.902 421.03 103.004Z" fill="#DFFFEC"/>
<path d="M413.722 97.6312C413.829 97.7335 413.834 97.9049 413.731 98.0117C413.629 98.1184 413.457 98.1232 413.35 98.0209C413.243 97.9186 413.239 97.7472 413.341 97.6404C413.444 97.5337 413.615 97.5289 413.722 97.6312Z" fill="#DFFFEC"/>
<path d="M413.525 91.4544C413.632 91.5567 413.636 91.7281 413.534 91.8348C413.432 91.9447 413.26 91.9464 413.153 91.8441C413.046 91.7418 413.041 91.5704 413.144 91.4637C413.246 91.3569 413.418 91.3521 413.525 91.4544Z" fill="#DFFFEC"/>
<path d="M425.367 103.778C425.228 104.197 425.349 104.532 425.505 104.689C425.669 104.854 425.499 104.812 425.753 104.609C426.074 104.356 426.115 103.893 425.942 103.628C426.298 103.902 426.598 103.896 426.866 103.641C427.054 103.461 427.193 103.612 426.992 103.346C426.633 102.873 426.347 102.789 426.041 102.893C426.377 102.637 426.451 102.369 426.452 102.175C426.454 101.962 426.568 102.091 426.25 102.081C425.828 102.069 425.578 102.42 425.528 102.719C425.495 102.246 425.473 102.005 425.101 101.894C424.897 101.832 425.023 101.793 424.869 102.071C424.682 102.404 424.953 102.834 425.175 103.009C424.678 102.817 424.15 103.354 424.029 103.642C423.912 103.92 423.952 103.776 424.276 103.904C424.571 104.021 425.157 104.104 425.367 103.778Z" fill="#DFFFEC"/>
<path d="M437.02 107.246C436.882 107.665 437.003 108 437.159 108.157C437.323 108.323 437.156 108.28 437.407 108.078C437.728 107.825 437.768 107.361 437.596 107.097C437.952 107.37 438.252 107.364 438.519 107.11C438.708 106.93 438.847 107.08 438.646 106.814C438.287 106.341 438.001 106.258 437.694 106.362C438.03 106.106 438.105 105.838 438.106 105.643C438.107 105.43 438.221 105.56 437.903 105.55C437.481 105.537 437.232 105.889 437.181 106.188C437.148 105.714 437.126 105.473 436.755 105.362C436.551 105.3 436.676 105.262 436.522 105.539C436.336 105.872 436.607 106.303 436.828 106.478C436.331 106.286 435.803 106.822 435.682 107.11C435.566 107.388 435.606 107.244 435.93 107.372C436.224 107.489 436.811 107.573 437.02 107.246Z" fill="#DFFFEC"/>
<path d="M442.245 118.832C442.107 119.251 442.228 119.586 442.384 119.743C442.548 119.908 442.378 119.866 442.632 119.663C442.953 119.41 442.993 118.947 442.821 118.682C443.177 118.956 443.477 118.95 443.744 118.695C443.933 118.515 444.072 118.666 443.871 118.4C443.512 117.927 443.226 117.843 442.919 117.947C443.256 117.691 443.33 117.423 443.331 117.229C443.332 117.016 443.446 117.145 443.128 117.135C442.706 117.123 442.457 117.474 442.406 117.773C442.373 117.3 442.351 117.059 441.98 116.948C441.776 116.886 441.901 116.847 441.747 117.125C441.561 117.457 441.832 117.888 442.053 118.063C441.556 117.871 441.029 118.408 440.907 118.696C440.791 118.974 440.831 118.83 441.155 118.958C441.449 119.075 442.036 119.158 442.245 118.832Z" fill="#DFFFEC"/>
<path d="M436.312 120.733C436.174 121.152 436.295 121.486 436.451 121.644C436.614 121.806 436.445 121.764 436.699 121.564C437.02 121.311 437.061 120.848 436.888 120.583C437.244 120.857 437.544 120.851 437.811 120.596C438 120.416 438.139 120.567 437.938 120.301C437.579 119.828 437.293 119.744 436.986 119.848C437.323 119.592 437.397 119.324 437.398 119.13C437.399 118.917 437.513 119.046 437.195 119.036C436.773 119.023 436.524 119.375 436.473 119.674C436.44 119.201 436.419 118.96 436.047 118.849C435.843 118.787 435.969 118.748 435.814 119.026C435.628 119.358 435.899 119.789 436.12 119.964C435.623 119.772 435.096 120.308 434.974 120.597C434.858 120.875 434.898 120.731 435.222 120.859C435.516 120.975 436.103 121.059 436.312 120.733Z" fill="#DFFFEC"/>
<path d="M250.137 123C250.137 130.162 254.973 130.444 262.526 130.444C265.637 133.5 267.855 132.636 269.352 132.719C270.623 132.79 272.521 133.321 273.701 133.857C275.176 134.528 277.548 134.085 279.136 134.085C284.094 134.085 285.762 128.128 286.165 124.098C286.34 122.342 285.859 120.664 286.746 119.067C287.463 117.777 289.506 116.921 290.741 116.235C294.524 114.134 294.883 107.684 293.471 103.948C291.637 99.0918 288.581 93.5674 291.879 88.8039C295.438 83.6628 295.229 75.2245 293.244 69.4882C290.315 61.0262 284.516 59.1876 276.279 58.996C272.399 58.9058 272.619 53.2888 268.442 53.08C263.805 52.8481 260.686 52.8563 257.975 56.9229C256.658 58.8987 255.386 60.6921 255.244 63.0918C255.193 63.9648 251.652 63.5468 250.896 63.5468C245.481 63.5468 243.867 71.7299 243.867 75.7329C243.867 78.7143 245.688 81.3051 245.688 84.2278C245.688 86.4702 244.501 86.7663 243.766 88.6775C242.629 91.6335 242.755 93.9985 242.755 97.4207C242.755 101.992 242.308 102.189 244.637 106C246.238 108.62 243.934 114.574 246.637 116C247.137 117 250.137 120.749 250.137 123Z" fill="#116F36"/>
<path d="M260.119 81.6928C261.297 82.6769 262.757 83.0348 263.46 82.7374C264.204 82.4212 264.262 81.304 263.468 80.5137C262.771 79.8209 261.461 79.4239 260.389 79.6411C261.723 78.8509 262.431 77.5386 262.258 76.7079C262.073 75.8226 260.844 75.3003 259.79 75.7776C258.909 76.1778 258.201 77.2522 258.14 78.3698C257.754 76.9556 256.877 75.7775 256.249 75.5248C255.56 75.2471 254.949 75.9934 255.109 77.0798C255.251 78.0561 256.014 79.2489 256.914 79.7973C255.349 79.2898 253.612 79.4447 253.04 79.9219C252.466 80.3996 252.813 81.3598 253.863 81.6844C254.861 81.9923 256.547 81.8048 257.399 81.3153C256.139 82.6666 256.113 84.4142 256.881 85.1774C257.623 85.9164 259.261 85.8865 260.099 85.0078C260.851 84.2177 260.907 82.7878 260.119 81.6928Z" fill="#DFFFEC"/>
<path d="M270.769 87.919C270.493 88.7634 270.611 89.6215 270.924 89.936C271.251 90.2669 271.864 90.0586 272.122 89.4612C272.345 88.9382 272.276 88.1508 271.93 87.6224C272.639 88.1693 273.498 88.2672 273.906 87.9937C274.341 87.7038 274.359 86.934 273.876 86.4708C273.471 86.0863 272.743 85.9368 272.129 86.1451C272.808 85.6324 273.25 84.9092 273.252 84.5177C273.254 84.0885 272.72 83.9212 272.171 84.2415C271.677 84.5313 271.201 85.1941 271.1 85.7952C271.037 84.8471 270.58 83.9479 270.2 83.7441C269.821 83.5403 269.38 83.9313 269.432 84.565C269.479 85.1681 269.942 86.0288 270.389 86.3818C269.391 85.9956 268.448 86.3586 268.202 86.9353C267.963 87.4922 268.331 88.3646 268.982 88.6231C269.57 88.854 270.348 88.5763 270.769 87.919Z" fill="#DFFFEC"/>
<path d="M274.635 71.0607C274.009 72.9801 274.279 74.9321 274.989 75.6448C275.739 76.395 277.135 75.9178 277.714 74.5659C278.219 73.3761 278.065 71.5875 277.276 70.3863C278.889 71.6251 280.842 71.8467 281.771 71.2293C282.76 70.5713 282.8 68.8183 281.702 67.7654C280.784 66.8847 279.127 66.5482 277.73 67.0224C279.273 65.8586 280.283 64.2143 280.286 63.3248C280.288 62.351 279.078 61.9698 277.828 62.6967C276.704 63.3508 275.616 64.8631 275.387 66.2292C275.243 64.073 274.203 62.0311 273.341 61.5675C272.479 61.1039 271.476 61.9927 271.591 63.4335C271.704 64.7996 272.758 66.7608 273.77 67.5611C271.505 66.6868 269.355 67.5133 268.797 68.8211C268.255 70.0889 269.09 72.0717 270.574 72.6607C271.907 73.1887 273.68 72.5587 274.635 71.0607Z" fill="#DFFFEC"/>
<path d="M251.961 69.212C252.053 69.8019 251.65 70.353 251.059 70.4451C250.468 70.5371 249.917 70.1347 249.825 69.5449C249.733 68.955 250.136 68.4039 250.727 68.3118C251.318 68.2198 251.869 68.6222 251.961 69.212Z" fill="#DFFFEC"/>
<path d="M264.739 73.6387C265.173 74.05 265.188 74.7331 264.776 75.1636C264.364 75.5972 263.68 75.613 263.249 75.2012C262.815 74.7898 262.799 74.1068 263.212 73.6762C263.624 73.2426 264.305 73.2273 264.739 73.6387Z" fill="#DFFFEC"/>
<path d="M280.168 97.5425C280.602 97.9538 280.618 98.637 280.205 99.0675C279.793 99.498 279.109 99.5169 278.678 99.1051C278.244 98.6937 278.229 98.0106 278.641 97.5801C279.053 97.1465 279.734 97.1312 280.168 97.5425Z" fill="#DFFFEC"/>
<path d="M281.27 73.9463C281.487 74.1535 281.493 74.4937 281.289 74.7103C281.081 74.9273 280.741 74.9365 280.524 74.7293C280.306 74.5221 280.3 74.1819 280.505 73.9653C280.712 73.7483 281.053 73.7421 281.27 73.9463Z" fill="#DFFFEC"/>
<path d="M267.985 63.5665C268.202 63.7737 268.208 64.114 268.004 64.3306C267.799 64.5471 267.459 64.5563 267.238 64.3496C267.021 64.1424 267.015 63.8021 267.22 63.5855C267.427 63.3685 267.768 63.3624 267.985 63.5665Z" fill="#DFFFEC"/>
<path d="M286.502 78.2901C286.719 78.4973 286.725 78.8376 286.52 79.0541C286.313 79.2711 285.972 79.2773 285.755 79.0731C285.538 78.8659 285.532 78.5257 285.736 78.3091C285.944 78.0921 286.285 78.0859 286.502 78.2901Z" fill="#DFFFEC"/>
<path d="M289.645 85.307C289.862 85.5142 289.868 85.8545 289.664 86.071C289.456 86.2881 289.115 86.2942 288.899 86.0901C288.681 85.8829 288.675 85.5426 288.88 85.326C289.087 85.109 289.428 85.1029 289.645 85.307Z" fill="#DFFFEC"/>
<path d="M281.169 89.2133C281.276 89.3156 281.28 89.487 281.178 89.5937C281.075 89.7005 280.904 89.7053 280.797 89.603C280.69 89.5007 280.685 89.3293 280.788 89.2225C280.89 89.1158 281.062 89.111 281.169 89.2133Z" fill="#DFFFEC"/>
<path d="M272.855 81.3021C272.961 81.4044 272.966 81.5758 272.864 81.6826C272.759 81.7929 272.589 81.7941 272.483 81.6918C272.376 81.5895 272.371 81.4181 272.473 81.3114C272.576 81.2046 272.748 81.1998 272.855 81.3021Z" fill="#DFFFEC"/>
<path d="M265.613 78.0039C265.72 78.1062 265.725 78.2776 265.622 78.3843C265.52 78.4941 265.348 78.4959 265.241 78.3936C265.135 78.2913 265.13 78.1199 265.232 78.0131C265.335 77.9064 265.506 77.9015 265.613 78.0039Z" fill="#DFFFEC"/>
<path d="M258.306 72.6312C258.413 72.7335 258.417 72.9049 258.315 73.0117C258.212 73.1184 258.041 73.1232 257.934 73.0209C257.827 72.9186 257.822 72.7472 257.925 72.6404C258.027 72.5337 258.199 72.5289 258.306 72.6312Z" fill="#DFFFEC"/>
<path d="M258.108 66.4544C258.215 66.5567 258.22 66.7281 258.118 66.8348C258.016 66.9447 257.843 66.9464 257.737 66.8441C257.63 66.7418 257.625 66.5704 257.727 66.4637C257.83 66.3569 258.002 66.3521 258.108 66.4544Z" fill="#DFFFEC"/>
<path d="M269.95 78.7776C269.812 79.1967 269.933 79.5316 270.089 79.6888C270.253 79.8542 270.083 79.8118 270.337 79.6095C270.658 79.356 270.699 78.8926 270.526 78.6284C270.882 78.9016 271.182 78.8956 271.449 78.6411C271.638 78.4615 271.777 78.6119 271.576 78.3459C271.217 77.8728 270.931 77.7889 270.624 77.8931C270.961 77.6372 271.035 77.369 271.036 77.1747C271.037 76.9616 271.151 77.091 270.833 77.0811C270.411 77.0686 270.162 77.4204 270.111 77.7194C270.078 77.2456 270.056 77.0049 269.685 76.8937C269.481 76.8316 269.607 76.7932 269.452 77.0708C269.266 77.4035 269.537 77.834 269.758 78.0092C269.261 77.8174 268.734 78.3535 268.612 78.6416C268.496 78.9196 268.536 78.7756 268.86 78.9036C269.154 79.0205 269.741 79.1044 269.95 78.7776Z" fill="#DFFFEC"/>
<path d="M281.604 82.2461C281.465 82.6653 281.586 83.0001 281.742 83.1573C281.906 83.3228 281.74 83.2799 281.99 83.0781C282.311 82.8246 282.352 82.3612 282.179 82.097C282.535 82.3702 282.835 82.3642 283.103 82.1096C283.291 81.93 283.431 82.0805 283.229 81.8144C282.87 81.3413 282.584 81.2575 282.278 81.3616C282.614 81.1058 282.688 80.8375 282.689 80.6433C282.691 80.4302 282.805 80.5595 282.487 80.5496C282.065 80.5371 281.815 80.889 281.765 81.188C281.732 80.7142 281.71 80.4734 281.338 80.3623C281.134 80.3001 281.26 80.2618 281.106 80.5394C280.919 80.8721 281.19 81.3026 281.412 81.4778C280.915 81.286 280.387 81.8221 280.266 82.1102C280.149 82.3882 280.19 82.2442 280.514 82.3721C280.808 82.4891 281.394 82.573 281.604 82.2461Z" fill="#DFFFEC"/>
<path d="M286.829 93.8315C286.69 94.2507 286.811 94.5855 286.968 94.7428C287.131 94.9082 286.962 94.8658 287.215 94.6635C287.536 94.41 287.577 93.9466 287.404 93.6824C287.76 93.9556 288.06 93.9496 288.328 93.695C288.516 93.5154 288.656 93.6659 288.454 93.3999C288.095 92.9267 287.81 92.8429 287.503 92.9471C287.839 92.6912 287.913 92.4229 287.914 92.2287C287.916 92.0156 288.03 92.145 287.712 92.135C287.29 92.1225 287.04 92.4744 286.99 92.7734C286.957 92.2996 286.935 92.0588 286.563 91.9477C286.359 91.8856 286.485 91.8472 286.331 92.1248C286.144 92.4575 286.415 92.888 286.637 93.0632C286.14 92.8714 285.612 93.4075 285.491 93.6956C285.374 93.9736 285.415 93.8296 285.739 93.9575C286.033 94.0745 286.619 94.1584 286.829 93.8315Z" fill="#DFFFEC"/>
<path d="M280.896 95.7325C280.757 96.1516 280.879 96.4865 281.035 96.6437C281.198 96.8061 281.028 96.7637 281.283 96.5644C281.604 96.3109 281.644 95.8476 281.471 95.5834C281.827 95.8566 282.127 95.8505 282.395 95.596C282.583 95.4164 282.723 95.5669 282.521 95.3008C282.162 94.8277 281.877 94.7439 281.57 94.848C281.906 94.5922 281.981 94.3239 281.982 94.1296C281.983 93.9166 282.097 94.0459 281.779 94.036C281.357 94.0235 281.108 94.3754 281.057 94.6744C281.024 94.2006 281.002 93.9598 280.631 93.8487C280.427 93.7865 280.552 93.7482 280.398 94.0258C280.212 94.3584 280.482 94.7889 280.704 94.9641C280.207 94.7723 279.679 95.3085 279.558 95.5966C279.442 95.8746 279.482 95.7306 279.806 95.8585C280.1 95.9755 280.687 96.0594 280.896 95.7325Z" fill="#DFFFEC"/>
<path d="M307.553 171C307.553 178.162 312.389 178.444 319.942 178.444C323.053 181.5 325.271 180.636 326.768 180.719C328.039 180.79 329.938 181.321 331.117 181.857C332.593 182.528 334.964 182.085 336.553 182.085C341.51 182.085 343.178 176.128 343.581 172.098C343.757 170.342 343.275 168.664 344.163 167.067C344.879 165.777 346.923 164.921 348.157 164.235C351.94 162.134 352.299 155.684 350.888 151.948C349.053 147.092 345.997 141.567 349.295 136.804C352.854 131.663 352.646 123.224 350.66 117.488C347.731 109.026 341.932 107.188 333.696 106.996C329.816 106.906 330.036 101.289 325.858 101.08C321.222 100.848 318.102 100.856 315.391 104.923C314.074 106.899 312.802 108.692 312.661 111.092C312.609 111.965 309.068 111.547 308.312 111.547C302.897 111.547 301.284 119.73 301.284 123.733C301.284 126.714 303.104 129.305 303.104 132.228C303.104 134.47 301.918 134.766 301.183 136.677C300.046 139.633 300.171 141.999 300.171 145.421C300.171 149.992 299.725 150.189 302.053 154C303.654 156.62 301.351 162.574 304.053 164C304.554 165 307.553 168.749 307.553 171Z" fill="#116F36"/>
<path d="M317.535 129.693C318.714 130.677 320.174 131.035 320.877 130.737C321.621 130.421 321.679 129.304 320.885 128.514C320.187 127.821 318.878 127.424 317.805 127.641C319.14 126.851 319.847 125.539 319.674 124.708C319.489 123.823 318.26 123.3 317.206 123.778C316.325 124.178 315.618 125.252 315.557 126.37C315.17 124.956 314.294 123.777 313.665 123.525C312.976 123.247 312.365 123.993 312.525 125.08C312.668 126.056 313.43 127.249 314.331 127.797C312.766 127.29 311.028 127.445 310.457 127.922C309.882 128.4 310.229 129.36 311.28 129.684C312.278 129.992 313.963 129.805 314.815 129.315C313.555 130.667 313.53 132.414 314.297 133.177C315.04 133.916 316.678 133.887 317.516 133.008C318.267 132.218 318.323 130.788 317.535 129.693Z" fill="#DFFFEC"/>
<path d="M328.186 135.919C327.91 136.763 328.028 137.622 328.34 137.936C328.667 138.267 329.281 138.059 329.539 137.461C329.761 136.938 329.692 136.151 329.346 135.622C330.055 136.169 330.914 136.267 331.323 135.994C331.757 135.704 331.775 134.934 331.292 134.471C330.888 134.086 330.159 133.937 329.546 134.145C330.224 133.632 330.667 132.909 330.668 132.518C330.67 132.088 330.137 131.921 329.588 132.242C329.094 132.531 328.617 133.194 328.516 133.795C328.453 132.847 327.996 131.948 327.617 131.744C327.237 131.54 326.796 131.931 326.848 132.565C326.895 133.168 327.358 134.029 327.805 134.382C326.808 133.996 325.864 134.359 325.619 134.935C325.379 135.492 325.747 136.365 326.399 136.623C326.987 136.854 327.765 136.576 328.186 135.919Z" fill="#DFFFEC"/>
<path d="M332.052 119.061C331.426 120.98 331.695 122.932 332.405 123.645C333.155 124.395 334.551 123.918 335.131 122.566C335.635 121.376 335.482 119.588 334.693 118.386C336.306 119.625 338.259 119.847 339.188 119.229C340.176 118.571 340.217 116.818 339.118 115.765C338.201 114.885 336.543 114.548 335.147 115.022C336.69 113.859 337.7 112.214 337.702 111.325C337.704 110.351 336.494 109.97 335.244 110.697C334.12 111.351 333.033 112.863 332.804 114.229C332.659 112.073 331.62 110.031 330.758 109.568C329.895 109.104 328.893 109.993 329.008 111.434C329.12 112.8 330.175 114.761 331.187 115.561C328.922 114.687 326.772 115.513 326.214 116.821C325.671 118.089 326.507 120.072 327.99 120.661C329.323 121.189 331.097 120.559 332.052 119.061Z" fill="#DFFFEC"/>
<path d="M309.378 117.212C309.469 117.802 309.066 118.353 308.476 118.445C307.885 118.537 307.333 118.135 307.241 117.545C307.149 116.955 307.553 116.404 308.143 116.312C308.734 116.22 309.286 116.622 309.378 117.212Z" fill="#DFFFEC"/>
<path d="M322.155 121.639C322.589 122.05 322.605 122.733 322.192 123.164C321.78 123.597 321.096 123.613 320.665 123.201C320.231 122.79 320.216 122.107 320.628 121.676C321.04 121.243 321.721 121.227 322.155 121.639Z" fill="#DFFFEC"/>
<path d="M337.585 145.543C338.019 145.954 338.034 146.637 337.622 147.067C337.209 147.498 336.526 147.517 336.095 147.105C335.661 146.694 335.645 146.011 336.058 145.58C336.47 145.146 337.151 145.131 337.585 145.543Z" fill="#DFFFEC"/>
<path d="M338.686 121.946C338.903 122.153 338.909 122.494 338.705 122.71C338.497 122.927 338.157 122.937 337.94 122.729C337.723 122.522 337.717 122.182 337.921 121.965C338.129 121.748 338.469 121.742 338.686 121.946Z" fill="#DFFFEC"/>
<path d="M325.401 111.567C325.618 111.774 325.624 112.114 325.42 112.331C325.215 112.547 324.875 112.556 324.655 112.35C324.438 112.142 324.432 111.802 324.636 111.586C324.844 111.369 325.184 111.362 325.401 111.567Z" fill="#DFFFEC"/>
<path d="M343.918 126.29C344.135 126.497 344.141 126.838 343.937 127.054C343.729 127.271 343.388 127.277 343.172 127.073C342.954 126.866 342.948 126.526 343.153 126.309C343.36 126.092 343.701 126.086 343.918 126.29Z" fill="#DFFFEC"/>
<path d="M347.061 133.307C347.279 133.514 347.285 133.854 347.08 134.071C346.872 134.288 346.532 134.294 346.315 134.09C346.098 133.883 346.092 133.543 346.296 133.326C346.504 133.109 346.845 133.103 347.061 133.307Z" fill="#DFFFEC"/>
<path d="M338.585 137.213C338.692 137.316 338.697 137.487 338.594 137.594C338.492 137.7 338.32 137.705 338.213 137.603C338.106 137.501 338.102 137.329 338.204 137.223C338.307 137.116 338.478 137.111 338.585 137.213Z" fill="#DFFFEC"/>
<path d="M330.271 129.302C330.378 129.404 330.382 129.576 330.28 129.683C330.175 129.793 330.006 129.794 329.899 129.692C329.792 129.59 329.787 129.418 329.89 129.311C329.992 129.205 330.164 129.2 330.271 129.302Z" fill="#DFFFEC"/>
<path d="M323.03 126.004C323.136 126.106 323.141 126.278 323.039 126.384C322.937 126.494 322.765 126.496 322.658 126.394C322.551 126.291 322.546 126.12 322.649 126.013C322.751 125.906 322.923 125.902 323.03 126.004Z" fill="#DFFFEC"/>
<path d="M315.722 120.631C315.829 120.733 315.834 120.905 315.731 121.012C315.629 121.118 315.457 121.123 315.35 121.021C315.243 120.919 315.239 120.747 315.341 120.64C315.444 120.534 315.615 120.529 315.722 120.631Z" fill="#DFFFEC"/>
<path d="M315.525 114.454C315.632 114.557 315.636 114.728 315.534 114.835C315.432 114.945 315.26 114.946 315.153 114.844C315.046 114.742 315.041 114.57 315.144 114.464C315.246 114.357 315.418 114.352 315.525 114.454Z" fill="#DFFFEC"/>
<path d="M327.367 126.778C327.228 127.197 327.349 127.532 327.505 127.689C327.669 127.854 327.499 127.812 327.753 127.609C328.074 127.356 328.115 126.893 327.942 126.628C328.298 126.902 328.598 126.896 328.866 126.641C329.054 126.461 329.193 126.612 328.992 126.346C328.633 125.873 328.347 125.789 328.041 125.893C328.377 125.637 328.451 125.369 328.452 125.175C328.454 124.962 328.568 125.091 328.25 125.081C327.828 125.069 327.578 125.42 327.528 125.719C327.495 125.246 327.473 125.005 327.101 124.894C326.897 124.832 327.023 124.793 326.869 125.071C326.682 125.404 326.953 125.834 327.175 126.009C326.678 125.817 326.15 126.354 326.029 126.642C325.912 126.92 325.952 126.776 326.276 126.904C326.571 127.021 327.157 127.104 327.367 126.778Z" fill="#DFFFEC"/>
<path d="M339.02 130.246C338.882 130.665 339.003 131 339.159 131.157C339.323 131.323 339.156 131.28 339.407 131.078C339.728 130.825 339.768 130.361 339.596 130.097C339.952 130.37 340.252 130.364 340.519 130.11C340.708 129.93 340.847 130.08 340.646 129.814C340.287 129.341 340.001 129.258 339.694 129.362C340.03 129.106 340.105 128.838 340.106 128.643C340.107 128.43 340.221 128.56 339.903 128.55C339.481 128.537 339.232 128.889 339.181 129.188C339.148 128.714 339.126 128.473 338.755 128.362C338.551 128.3 338.676 128.262 338.522 128.539C338.336 128.872 338.607 129.303 338.828 129.478C338.331 129.286 337.803 129.822 337.682 130.11C337.566 130.388 337.606 130.244 337.93 130.372C338.224 130.489 338.811 130.573 339.02 130.246Z" fill="#DFFFEC"/>
<path d="M344.245 141.832C344.107 142.251 344.228 142.586 344.384 142.743C344.548 142.908 344.378 142.866 344.632 142.663C344.953 142.41 344.993 141.947 344.821 141.682C345.177 141.956 345.477 141.95 345.744 141.695C345.933 141.515 346.072 141.666 345.871 141.4C345.512 140.927 345.226 140.843 344.919 140.947C345.256 140.691 345.33 140.423 345.331 140.229C345.332 140.016 345.446 140.145 345.128 140.135C344.706 140.123 344.457 140.474 344.406 140.773C344.373 140.3 344.351 140.059 343.98 139.948C343.776 139.886 343.901 139.847 343.747 140.125C343.561 140.457 343.832 140.888 344.053 141.063C343.556 140.871 343.029 141.408 342.907 141.696C342.791 141.974 342.831 141.83 343.155 141.958C343.449 142.075 344.036 142.158 344.245 141.832Z" fill="#DFFFEC"/>
<path d="M338.312 143.733C338.174 144.152 338.295 144.486 338.451 144.644C338.614 144.806 338.445 144.764 338.699 144.564C339.02 144.311 339.061 143.848 338.888 143.583C339.244 143.857 339.544 143.851 339.811 143.596C340 143.416 340.139 143.567 339.938 143.301C339.579 142.828 339.293 142.744 338.986 142.848C339.323 142.592 339.397 142.324 339.398 142.13C339.399 141.917 339.513 142.046 339.195 142.036C338.773 142.023 338.524 142.375 338.473 142.674C338.44 142.201 338.419 141.96 338.047 141.849C337.843 141.787 337.969 141.748 337.814 142.026C337.628 142.358 337.899 142.789 338.12 142.964C337.623 142.772 337.096 143.308 336.974 143.597C336.858 143.875 336.898 143.731 337.222 143.859C337.516 143.975 338.103 144.059 338.312 143.733Z" fill="#DFFFEC"/>
<path d="M135.137 156C135.137 163.162 139.973 163.444 147.526 163.444C150.637 166.5 152.855 165.636 154.352 165.719C155.623 165.79 157.521 166.321 158.701 166.857C160.176 167.528 162.548 167.085 164.136 167.085C169.094 167.085 170.762 161.128 171.165 157.098C171.34 155.342 170.859 153.664 171.746 152.067C172.463 150.777 174.506 149.921 175.741 149.235C179.524 147.134 179.883 140.684 178.471 136.948C176.637 132.092 173.581 126.567 176.879 121.804C180.438 116.663 180.229 108.224 178.244 102.488C175.315 94.0262 169.516 92.1876 161.279 91.996C157.399 91.9058 157.619 86.2888 153.442 86.08C148.805 85.8481 145.686 85.8563 142.975 89.9229C141.658 91.8987 140.386 93.6921 140.244 96.0918C140.193 96.9648 136.652 96.5468 135.896 96.5468C130.481 96.5468 128.867 104.73 128.867 108.733C128.867 111.714 130.688 114.305 130.688 117.228C130.688 119.47 129.501 119.766 128.766 121.677C127.629 124.633 127.755 126.999 127.755 130.421C127.755 134.992 127.308 135.189 129.637 139C131.238 141.62 128.934 147.574 131.637 149C132.137 150 135.137 153.749 135.137 156Z" fill="#116F36"/>
<path d="M145.119 114.693C146.297 115.677 147.757 116.035 148.46 115.737C149.204 115.421 149.262 114.304 148.468 113.514C147.771 112.821 146.461 112.424 145.389 112.641C146.723 111.851 147.431 110.539 147.258 109.708C147.073 108.823 145.844 108.3 144.79 108.778C143.909 109.178 143.201 110.252 143.14 111.37C142.754 109.956 141.877 108.777 141.249 108.525C140.56 108.247 139.949 108.993 140.109 110.08C140.251 111.056 141.014 112.249 141.914 112.797C140.349 112.29 138.612 112.445 138.04 112.922C137.466 113.4 137.813 114.36 138.863 114.684C139.861 114.992 141.547 114.805 142.399 114.315C141.139 115.667 141.113 117.414 141.881 118.177C142.623 118.916 144.261 118.887 145.099 118.008C145.851 117.218 145.907 115.788 145.119 114.693Z" fill="#DFFFEC"/>
<path d="M155.769 120.919C155.493 121.763 155.611 122.622 155.924 122.936C156.251 123.267 156.864 123.059 157.122 122.461C157.345 121.938 157.276 121.151 156.93 120.622C157.639 121.169 158.498 121.267 158.906 120.994C159.341 120.704 159.359 119.934 158.876 119.471C158.471 119.086 157.743 118.937 157.129 119.145C157.808 118.632 158.25 117.909 158.252 117.518C158.254 117.088 157.72 116.921 157.171 117.242C156.677 117.531 156.201 118.194 156.1 118.795C156.037 117.847 155.58 116.948 155.2 116.744C154.821 116.54 154.38 116.931 154.432 117.565C154.479 118.168 154.942 119.029 155.389 119.382C154.391 118.996 153.448 119.359 153.202 119.935C152.963 120.492 153.331 121.365 153.982 121.623C154.57 121.854 155.348 121.576 155.769 120.919Z" fill="#DFFFEC"/>
<path d="M159.635 104.061C159.009 105.98 159.279 107.932 159.989 108.645C160.739 109.395 162.135 108.918 162.714 107.566C163.219 106.376 163.065 104.588 162.276 103.386C163.889 104.625 165.842 104.847 166.771 104.229C167.76 103.571 167.8 101.818 166.702 100.765C165.784 99.8847 164.127 99.5482 162.73 100.022C164.273 98.8586 165.283 97.2143 165.286 96.3248C165.288 95.351 164.078 94.9698 162.828 95.6967C161.704 96.3508 160.616 97.8631 160.387 99.2292C160.243 97.073 159.203 95.0311 158.341 94.5675C157.479 94.1039 156.476 94.9927 156.591 96.4335C156.704 97.7996 157.758 99.7608 158.77 100.561C156.505 99.6868 154.355 100.513 153.797 101.821C153.255 103.089 154.09 105.072 155.574 105.661C156.907 106.189 158.68 105.559 159.635 104.061Z" fill="#DFFFEC"/>
<path d="M136.961 102.212C137.053 102.802 136.65 103.353 136.059 103.445C135.468 103.537 134.917 103.135 134.825 102.545C134.733 101.955 135.136 101.404 135.727 101.312C136.318 101.22 136.869 101.622 136.961 102.212Z" fill="#DFFFEC"/>
<path d="M149.739 106.639C150.173 107.05 150.188 107.733 149.776 108.164C149.364 108.597 148.68 108.613 148.249 108.201C147.815 107.79 147.799 107.107 148.212 106.676C148.624 106.243 149.305 106.227 149.739 106.639Z" fill="#DFFFEC"/>
<path d="M165.168 130.543C165.602 130.954 165.618 131.637 165.205 132.067C164.793 132.498 164.109 132.517 163.678 132.105C163.244 131.694 163.229 131.011 163.641 130.58C164.053 130.146 164.734 130.131 165.168 130.543Z" fill="#DFFFEC"/>
<path d="M166.27 106.946C166.487 107.153 166.493 107.494 166.289 107.71C166.081 107.927 165.741 107.937 165.524 107.729C165.306 107.522 165.3 107.182 165.505 106.965C165.712 106.748 166.053 106.742 166.27 106.946Z" fill="#DFFFEC"/>
<path d="M152.985 96.5665C153.202 96.7737 153.208 97.114 153.004 97.3306C152.799 97.5471 152.459 97.5563 152.238 97.3496C152.021 97.1424 152.015 96.8021 152.22 96.5855C152.427 96.3685 152.768 96.3624 152.985 96.5665Z" fill="#DFFFEC"/>
<path d="M171.502 111.29C171.719 111.497 171.725 111.838 171.52 112.054C171.313 112.271 170.972 112.277 170.755 112.073C170.538 111.866 170.532 111.526 170.736 111.309C170.944 111.092 171.285 111.086 171.502 111.29Z" fill="#DFFFEC"/>
<path d="M174.645 118.307C174.862 118.514 174.868 118.854 174.664 119.071C174.456 119.288 174.115 119.294 173.899 119.09C173.681 118.883 173.675 118.543 173.88 118.326C174.087 118.109 174.428 118.103 174.645 118.307Z" fill="#DFFFEC"/>
<path d="M166.169 122.213C166.276 122.316 166.28 122.487 166.178 122.594C166.075 122.7 165.904 122.705 165.797 122.603C165.69 122.501 165.685 122.329 165.788 122.223C165.89 122.116 166.062 122.111 166.169 122.213Z" fill="#DFFFEC"/>
<path d="M157.855 114.302C157.961 114.404 157.966 114.576 157.864 114.683C157.759 114.793 157.589 114.794 157.483 114.692C157.376 114.59 157.371 114.418 157.473 114.311C157.576 114.205 157.748 114.2 157.855 114.302Z" fill="#DFFFEC"/>
<path d="M150.613 111.004C150.72 111.106 150.725 111.278 150.622 111.384C150.52 111.494 150.348 111.496 150.241 111.394C150.135 111.291 150.13 111.12 150.232 111.013C150.335 110.906 150.506 110.902 150.613 111.004Z" fill="#DFFFEC"/>
<path d="M143.306 105.631C143.413 105.733 143.417 105.905 143.315 106.012C143.212 106.118 143.041 106.123 142.934 106.021C142.827 105.919 142.822 105.747 142.925 105.64C143.027 105.534 143.199 105.529 143.306 105.631Z" fill="#DFFFEC"/>
<path d="M143.108 99.4544C143.215 99.5567 143.22 99.7281 143.118 99.8348C143.016 99.9447 142.843 99.9464 142.737 99.8441C142.63 99.7418 142.625 99.5704 142.727 99.4637C142.83 99.3569 143.002 99.3521 143.108 99.4544Z" fill="#DFFFEC"/>
<path d="M154.95 111.778C154.812 112.197 154.933 112.532 155.089 112.689C155.253 112.854 155.083 112.812 155.337 112.609C155.658 112.356 155.699 111.893 155.526 111.628C155.882 111.902 156.182 111.896 156.449 111.641C156.638 111.461 156.777 111.612 156.576 111.346C156.217 110.873 155.931 110.789 155.624 110.893C155.961 110.637 156.035 110.369 156.036 110.175C156.037 109.962 156.151 110.091 155.833 110.081C155.411 110.069 155.162 110.42 155.111 110.719C155.078 110.246 155.056 110.005 154.685 109.894C154.481 109.832 154.607 109.793 154.452 110.071C154.266 110.404 154.537 110.834 154.758 111.009C154.261 110.817 153.734 111.354 153.612 111.642C153.496 111.92 153.536 111.776 153.86 111.904C154.154 112.021 154.741 112.104 154.95 111.778Z" fill="#DFFFEC"/>
<path d="M166.604 115.246C166.465 115.665 166.586 116 166.742 116.157C166.906 116.323 166.74 116.28 166.99 116.078C167.311 115.825 167.352 115.361 167.179 115.097C167.535 115.37 167.835 115.364 168.103 115.11C168.291 114.93 168.431 115.08 168.229 114.814C167.87 114.341 167.584 114.258 167.278 114.362C167.614 114.106 167.688 113.838 167.689 113.643C167.691 113.43 167.805 113.56 167.487 113.55C167.065 113.537 166.815 113.889 166.765 114.188C166.732 113.714 166.71 113.473 166.338 113.362C166.134 113.3 166.26 113.262 166.106 113.539C165.919 113.872 166.19 114.303 166.412 114.478C165.915 114.286 165.387 114.822 165.266 115.11C165.149 115.388 165.19 115.244 165.514 115.372C165.808 115.489 166.394 115.573 166.604 115.246Z" fill="#DFFFEC"/>
<path d="M171.829 126.832C171.69 127.251 171.811 127.586 171.968 127.743C172.131 127.908 171.962 127.866 172.215 127.663C172.536 127.41 172.577 126.947 172.404 126.682C172.76 126.956 173.06 126.95 173.328 126.695C173.516 126.515 173.656 126.666 173.454 126.4C173.095 125.927 172.81 125.843 172.503 125.947C172.839 125.691 172.913 125.423 172.914 125.229C172.916 125.016 173.03 125.145 172.712 125.135C172.29 125.123 172.04 125.474 171.99 125.773C171.957 125.3 171.935 125.059 171.563 124.948C171.359 124.886 171.485 124.847 171.331 125.125C171.144 125.457 171.415 125.888 171.637 126.063C171.14 125.871 170.612 126.408 170.491 126.696C170.374 126.974 170.415 126.83 170.739 126.958C171.033 127.075 171.619 127.158 171.829 126.832Z" fill="#DFFFEC"/>
<path d="M165.896 128.733C165.757 129.152 165.879 129.486 166.035 129.644C166.198 129.806 166.028 129.764 166.283 129.564C166.604 129.311 166.644 128.848 166.471 128.583C166.827 128.857 167.127 128.851 167.395 128.596C167.583 128.416 167.723 128.567 167.521 128.301C167.162 127.828 166.877 127.744 166.57 127.848C166.906 127.592 166.981 127.324 166.982 127.13C166.983 126.917 167.097 127.046 166.779 127.036C166.357 127.023 166.108 127.375 166.057 127.674C166.024 127.201 166.002 126.96 165.631 126.849C165.427 126.787 165.552 126.748 165.398 127.026C165.212 127.358 165.482 127.789 165.704 127.964C165.207 127.772 164.679 128.308 164.558 128.597C164.442 128.875 164.482 128.731 164.806 128.859C165.1 128.975 165.687 129.059 165.896 128.733Z" fill="#DFFFEC"/>
<path d="M192.553 204C192.553 211.162 197.389 211.444 204.942 211.444C208.053 214.5 210.271 213.636 211.768 213.719C213.039 213.79 214.938 214.321 216.117 214.857C217.593 215.528 219.964 215.085 221.553 215.085C226.51 215.085 228.178 209.128 228.581 205.098C228.757 203.342 228.275 201.664 229.163 200.067C229.879 198.777 231.923 197.921 233.157 197.235C236.94 195.134 237.299 188.684 235.888 184.948C234.053 180.092 230.997 174.567 234.295 169.804C237.854 164.663 237.646 156.224 235.66 150.488C232.731 142.026 226.932 140.188 218.696 139.996C214.816 139.906 215.036 134.289 210.858 134.08C206.222 133.848 203.102 133.856 200.391 137.923C199.074 139.899 197.802 141.692 197.661 144.092C197.609 144.965 194.068 144.547 193.312 144.547C187.897 144.547 186.284 152.73 186.284 156.733C186.284 159.714 188.104 162.305 188.104 165.228C188.104 167.47 186.918 167.766 186.183 169.677C185.046 172.633 185.171 174.999 185.171 178.421C185.171 182.992 184.725 183.189 187.053 187C188.654 189.62 186.351 195.574 189.053 197C189.554 198 192.553 201.749 192.553 204Z" fill="#116F36"/>
<path d="M202.535 162.693C203.714 163.677 205.174 164.035 205.877 163.737C206.621 163.421 206.679 162.304 205.885 161.514C205.187 160.821 203.878 160.424 202.805 160.641C204.14 159.851 204.847 158.539 204.674 157.708C204.489 156.823 203.26 156.3 202.206 156.778C201.325 157.178 200.618 158.252 200.557 159.37C200.17 157.956 199.294 156.777 198.665 156.525C197.976 156.247 197.365 156.993 197.525 158.08C197.668 159.056 198.43 160.249 199.331 160.797C197.766 160.29 196.028 160.445 195.457 160.922C194.882 161.4 195.229 162.36 196.28 162.684C197.278 162.992 198.963 162.805 199.815 162.315C198.555 163.667 198.53 165.414 199.297 166.177C200.04 166.916 201.678 166.887 202.516 166.008C203.267 165.218 203.323 163.788 202.535 162.693Z" fill="#DFFFEC"/>
<path d="M213.186 168.919C212.91 169.763 213.028 170.622 213.34 170.936C213.667 171.267 214.281 171.059 214.539 170.461C214.761 169.938 214.692 169.151 214.346 168.622C215.055 169.169 215.914 169.267 216.323 168.994C216.757 168.704 216.775 167.934 216.292 167.471C215.888 167.086 215.159 166.937 214.546 167.145C215.224 166.632 215.667 165.909 215.668 165.518C215.67 165.088 215.137 164.921 214.588 165.242C214.094 165.531 213.617 166.194 213.516 166.795C213.453 165.847 212.996 164.948 212.617 164.744C212.237 164.54 211.796 164.931 211.848 165.565C211.895 166.168 212.358 167.029 212.805 167.382C211.808 166.996 210.864 167.359 210.619 167.935C210.379 168.492 210.747 169.365 211.399 169.623C211.987 169.854 212.765 169.576 213.186 168.919Z" fill="#DFFFEC"/>
<path d="M217.052 152.061C216.426 153.98 216.695 155.932 217.405 156.645C218.155 157.395 219.551 156.918 220.131 155.566C220.635 154.376 220.482 152.588 219.693 151.386C221.306 152.625 223.259 152.847 224.188 152.229C225.176 151.571 225.217 149.818 224.118 148.765C223.201 147.885 221.543 147.548 220.147 148.022C221.69 146.859 222.7 145.214 222.702 144.325C222.704 143.351 221.494 142.97 220.244 143.697C219.12 144.351 218.033 145.863 217.804 147.229C217.659 145.073 216.62 143.031 215.758 142.568C214.895 142.104 213.893 142.993 214.008 144.434C214.12 145.8 215.175 147.761 216.187 148.561C213.922 147.687 211.772 148.513 211.214 149.821C210.671 151.089 211.507 153.072 212.99 153.661C214.323 154.189 216.097 153.559 217.052 152.061Z" fill="#DFFFEC"/>
<path d="M194.378 150.212C194.469 150.802 194.066 151.353 193.476 151.445C192.885 151.537 192.333 151.135 192.241 150.545C192.149 149.955 192.553 149.404 193.143 149.312C193.734 149.22 194.286 149.622 194.378 150.212Z" fill="#DFFFEC"/>
<path d="M207.155 154.639C207.589 155.05 207.605 155.733 207.192 156.164C206.78 156.597 206.096 156.613 205.665 156.201C205.231 155.79 205.216 155.107 205.628 154.676C206.04 154.243 206.721 154.227 207.155 154.639Z" fill="#DFFFEC"/>
<path d="M222.585 178.543C223.019 178.954 223.034 179.637 222.622 180.067C222.209 180.498 221.526 180.517 221.095 180.105C220.661 179.694 220.645 179.011 221.058 178.58C221.47 178.146 222.151 178.131 222.585 178.543Z" fill="#DFFFEC"/>
<path d="M223.686 154.946C223.903 155.153 223.909 155.494 223.705 155.71C223.497 155.927 223.157 155.937 222.94 155.729C222.723 155.522 222.717 155.182 222.921 154.965C223.129 154.748 223.469 154.742 223.686 154.946Z" fill="#DFFFEC"/>
<path d="M210.401 144.567C210.618 144.774 210.624 145.114 210.42 145.331C210.215 145.547 209.875 145.556 209.655 145.35C209.438 145.142 209.432 144.802 209.636 144.586C209.844 144.369 210.184 144.362 210.401 144.567Z" fill="#DFFFEC"/>
<path d="M228.918 159.29C229.135 159.497 229.141 159.838 228.937 160.054C228.729 160.271 228.388 160.277 228.172 160.073C227.954 159.866 227.948 159.526 228.153 159.309C228.36 159.092 228.701 159.086 228.918 159.29Z" fill="#DFFFEC"/>
<path d="M232.061 166.307C232.279 166.514 232.285 166.854 232.08 167.071C231.872 167.288 231.532 167.294 231.315 167.09C231.098 166.883 231.092 166.543 231.296 166.326C231.504 166.109 231.845 166.103 232.061 166.307Z" fill="#DFFFEC"/>
<path d="M223.585 170.213C223.692 170.316 223.697 170.487 223.594 170.594C223.492 170.7 223.32 170.705 223.213 170.603C223.106 170.501 223.102 170.329 223.204 170.223C223.307 170.116 223.478 170.111 223.585 170.213Z" fill="#DFFFEC"/>
<path d="M215.271 162.302C215.378 162.404 215.382 162.576 215.28 162.683C215.175 162.793 215.006 162.794 214.899 162.692C214.792 162.59 214.787 162.418 214.89 162.311C214.992 162.205 215.164 162.2 215.271 162.302Z" fill="#DFFFEC"/>
<path d="M208.03 159.004C208.136 159.106 208.141 159.278 208.039 159.384C207.937 159.494 207.765 159.496 207.658 159.394C207.551 159.291 207.546 159.12 207.649 159.013C207.751 158.906 207.923 158.902 208.03 159.004Z" fill="#DFFFEC"/>
<path d="M200.722 153.631C200.829 153.733 200.834 153.905 200.731 154.012C200.629 154.118 200.457 154.123 200.35 154.021C200.243 153.919 200.239 153.747 200.341 153.64C200.444 153.534 200.615 153.529 200.722 153.631Z" fill="#DFFFEC"/>
<path d="M200.525 147.454C200.632 147.557 200.636 147.728 200.534 147.835C200.432 147.945 200.26 147.946 200.153 147.844C200.046 147.742 200.041 147.57 200.144 147.464C200.246 147.357 200.418 147.352 200.525 147.454Z" fill="#DFFFEC"/>
<path d="M212.367 159.778C212.228 160.197 212.349 160.532 212.505 160.689C212.669 160.854 212.499 160.812 212.753 160.609C213.074 160.356 213.115 159.893 212.942 159.628C213.298 159.902 213.598 159.896 213.866 159.641C214.054 159.461 214.193 159.612 213.992 159.346C213.633 158.873 213.347 158.789 213.041 158.893C213.377 158.637 213.451 158.369 213.452 158.175C213.454 157.962 213.568 158.091 213.25 158.081C212.828 158.069 212.578 158.42 212.528 158.719C212.495 158.246 212.473 158.005 212.101 157.894C211.897 157.832 212.023 157.793 211.869 158.071C211.682 158.404 211.953 158.834 212.175 159.009C211.678 158.817 211.15 159.354 211.029 159.642C210.912 159.92 210.952 159.776 211.276 159.904C211.571 160.021 212.157 160.104 212.367 159.778Z" fill="#DFFFEC"/>
<path d="M224.02 163.246C223.882 163.665 224.003 164 224.159 164.157C224.323 164.323 224.156 164.28 224.407 164.078C224.728 163.825 224.768 163.361 224.596 163.097C224.952 163.37 225.252 163.364 225.519 163.11C225.708 162.93 225.847 163.08 225.646 162.814C225.287 162.341 225.001 162.258 224.694 162.362C225.03 162.106 225.105 161.838 225.106 161.643C225.107 161.43 225.221 161.56 224.903 161.55C224.481 161.537 224.232 161.889 224.181 162.188C224.148 161.714 224.126 161.473 223.755 161.362C223.551 161.3 223.676 161.262 223.522 161.539C223.336 161.872 223.607 162.303 223.828 162.478C223.331 162.286 222.803 162.822 222.682 163.11C222.566 163.388 222.606 163.244 222.93 163.372C223.224 163.489 223.811 163.573 224.02 163.246Z" fill="#DFFFEC"/>
<path d="M229.245 174.832C229.107 175.251 229.228 175.586 229.384 175.743C229.548 175.908 229.378 175.866 229.632 175.663C229.953 175.41 229.993 174.947 229.821 174.682C230.177 174.956 230.477 174.95 230.744 174.695C230.933 174.515 231.072 174.666 230.871 174.4C230.512 173.927 230.226 173.843 229.919 173.947C230.256 173.691 230.33 173.423 230.331 173.229C230.332 173.016 230.446 173.145 230.128 173.135C229.706 173.123 229.457 173.474 229.406 173.773C229.373 173.3 229.351 173.059 228.98 172.948C228.776 172.886 228.901 172.847 228.747 173.125C228.561 173.457 228.832 173.888 229.053 174.063C228.556 173.871 228.029 174.408 227.907 174.696C227.791 174.974 227.831 174.83 228.155 174.958C228.449 175.075 229.036 175.158 229.245 174.832Z" fill="#DFFFEC"/>
<path d="M223.312 176.733C223.174 177.152 223.295 177.486 223.451 177.644C223.614 177.806 223.445 177.764 223.699 177.564C224.02 177.311 224.061 176.848 223.888 176.583C224.244 176.857 224.544 176.851 224.811 176.596C225 176.416 225.139 176.567 224.938 176.301C224.579 175.828 224.293 175.744 223.986 175.848C224.323 175.592 224.397 175.324 224.398 175.13C224.399 174.917 224.513 175.046 224.195 175.036C223.773 175.023 223.524 175.375 223.473 175.674C223.44 175.201 223.419 174.96 223.047 174.849C222.843 174.787 222.969 174.748 222.814 175.026C222.628 175.358 222.899 175.789 223.12 175.964C222.623 175.772 222.096 176.308 221.974 176.597C221.858 176.875 221.898 176.731 222.222 176.859C222.516 176.975 223.103 177.059 223.312 176.733Z" fill="#DFFFEC"/>
<defs>
<filter id="filter0_d" x="114.955" y="173.236" width="715.894" height="310.334" filterUnits="userSpaceOnUse" color-interpolation-filters="sRGB">
<feFlood flood-opacity="0" result="BackgroundImageFix"/>
<feColorMatrix in="SourceAlpha" type="matrix" values="0 0 0 0 0 0 0 0 0 0 0 0 0 0 0 0 0 0 127 0"/>
<feOffset dx="-6" dy="8"/>
<feGaussianBlur stdDeviation="17.5"/>
<feColorMatrix type="matrix" values="0 0 0 0 0 0 0 0 0 0 0 0 0 0 0 0 0 0 0.25 0"/>
<feBlend mode="normal" in2="BackgroundImageFix" result="effect1_dropShadow"/>
<feBlend mode="normal" in="SourceGraphic" in2="effect1_dropShadow" result="shape"/>
</filter>
<filter id="filter1_d" x="0.960938" y="13.5203" width="623.588" height="275.987" filterUnits="userSpaceOnUse" color-interpolation-filters="sRGB">
<feFlood flood-opacity="0" result="BackgroundImageFix"/>
<feColorMatrix in="SourceAlpha" type="matrix" values="0 0 0 0 0 0 0 0 0 0 0 0 0 0 0 0 0 0 127 0"/>
<feOffset dx="-6" dy="8"/>
<feGaussianBlur stdDeviation="17.5"/>
<feColorMatrix type="matrix" values="0 0 0 0 0 0 0 0 0 0 0 0 0 0 0 0 0 0 0.25 0"/>
<feBlend mode="normal" in2="BackgroundImageFix" result="effect1_dropShadow"/>
<feBlend mode="normal" in="SourceGraphic" in2="effect1_dropShadow" result="shape"/>
</filter>
</defs>
</svg>
