<svg width="15" height="14" viewBox="0 0 15 14" fill="none" xmlns="http://www.w3.org/2000/svg">
<path d="M7.98562 4.66567C6.69849 4.66567 5.6481 5.71463 5.6481 7C5.6481 8.28537 6.69849 9.33433 7.98562 9.33433C9.27275 9.33433 10.3231 8.28537 10.3231 7C10.3231 5.71463 9.27275 4.66567 7.98562 4.66567ZM14.9964 7C14.9964 6.03335 15.0052 5.07545 14.9509 4.11055C14.8965 2.98979 14.6405 1.99512 13.8198 1.17556C12.9974 0.35426 12.0031 0.100338 10.8808 0.0460516C9.91281 -0.00823506 8.9536 0.000520879 7.98737 0.000520879C7.0194 0.000520879 6.06019 -0.00823506 5.09396 0.0460516C3.97167 0.100338 2.97564 0.356011 2.15496 1.17556C1.33253 1.99687 1.07826 2.98979 1.0239 4.11055C0.969537 5.0772 0.978305 6.0351 0.978305 7C0.978305 7.9649 0.969537 8.92455 1.0239 9.88945C1.07826 11.0102 1.33428 12.0049 2.15496 12.8244C2.97739 13.6457 3.97167 13.8997 5.09396 13.9539C6.06194 14.0082 7.02115 13.9995 7.98737 13.9995C8.95535 13.9995 9.91456 14.0082 10.8808 13.9539C12.0031 13.8997 12.9991 13.644 13.8198 12.8244C14.6422 12.0031 14.8965 11.0102 14.9509 9.88945C15.007 8.92455 14.9964 7.96665 14.9964 7ZM7.98562 10.5917C5.9953 10.5917 4.38902 8.98759 4.38902 7C4.38902 5.01241 5.9953 3.40832 7.98562 3.40832C9.97594 3.40832 11.5822 5.01241 11.5822 7C11.5822 8.98759 9.97594 10.5917 7.98562 10.5917ZM11.7295 4.10004C11.2648 4.10004 10.8896 3.72529 10.8896 3.26122C10.8896 2.79716 11.2648 2.42241 11.7295 2.42241C12.1942 2.42241 12.5695 2.79716 12.5695 3.26122C12.5696 3.37142 12.548 3.48056 12.5058 3.58239C12.4637 3.68422 12.4018 3.77675 12.3238 3.85467C12.2457 3.93258 12.1531 3.99437 12.0511 4.03647C11.9492 4.07858 11.8399 4.10018 11.7295 4.10004Z" fill="#005245"/>
</svg>
