<svg width="154" height="177" viewBox="0 0 154 177" fill="none" xmlns="http://www.w3.org/2000/svg">
<g clip-path="url(#clip0)">
<path d="M106.699 168.341L107.436 161.285L105.626 155.571L98.1039 155.45L90.8588 153.449L87.7222 153.643L74.7332 146.449L70.7476 146.671L68.3417 139.659L65.1097 135.912L67.3145 128.446L62.3908 123.79L58.5468 116.902L46.9012 114.162L41.9739 112.567L38.854 111.087L34.8412 113.774L34.2705 118.547L35.491 124.367L35.2551 126.115L30.8071 120.323L19.2537 123.908L13.7525 133.059L12.5361 137.178L18.4931 141.175L23.1315 137.786L26.5074 133.466L32.732 127.888L35.0948 127.607L31.7435 131.235L26.0773 138.238L25.9998 140.873L33.5054 145.328L41.3419 151.001L47.9168 149.584L53.2493 147.661L57.2738 147.729L57.1636 150.495L57.5146 153.537L62.65 154.635L66.2562 154.301L71.4925 158.365L76.1903 156.674L83.9648 161.628L94.5847 167.367L106.699 168.341Z" fill="#524747"/>
<path d="M54.9623 35.9592C54.8898 35.8707 53.9728 34.765 53.023 34.9937C52.5513 35.1071 52.1724 35.528 51.8029 36.4649C51.0244 38.4395 51.2518 40.2493 51.4434 42.1137C51.6892 44.5033 51.8819 46.3838 51.891 48.1311C51.9033 50.803 51.4774 52.7199 51.29 53.7086C50.2655 59.1097 50.903 65.3726 50.8616 76.8624C50.8352 84.3108 50.8178 89.1823 50.2108 95.8968C49.7001 101.556 50.8137 107.557 48.8555 112.892C48.8555 112.892 47.8052 115.753 48.6512 118.456C48.7516 118.778 48.9846 119.486 49.6552 119.929C49.8452 120.054 50.2851 120.302 50.8589 120.284C52.0281 120.249 52.6832 119.14 52.7313 119.057C52.8198 116.892 52.9529 113.594 53.1069 109.57C53.2011 107.139 53.3659 102.838 53.5803 96.8918C53.9506 86.628 54.138 81.4949 54.2312 77.8574C54.4052 71.0921 54.3376 70.8866 54.5521 63.0418C54.6745 58.5368 54.7319 57.3064 54.8539 52.2743C54.9643 47.7164 55.0318 43.9786 55.0015 39.3692C54.9929 37.9477 54.976 36.7684 54.9623 35.9592Z" fill="#84774E"/>
<path d="M95.9885 145.964C95.5648 147.218 94.5391 147.904 94.3751 148.012C93.4695 148.599 93.0863 148.292 91.4896 148.746C90.8473 148.93 89.2528 149.45 87.7479 150.669C86.7074 151.512 86.9179 151.709 86.1375 152.212C84.5597 153.23 82.7294 153.045 81.8074 152.953C79.697 152.74 80.3581 152.821 78.038 152.589C77.526 152.539 76.4688 151.694 76.1703 151.288C76.0325 151.099 75.8451 150.685 76.3602 149.181C76.8878 147.641 77.1505 146.872 77.7716 146.353C79.1146 145.234 80.4034 146.297 82.0001 145.222C82.5842 144.828 82.6773 144.506 83.7501 142.711C85.1927 140.299 85.914 139.093 86.5133 138.481C87.5044 137.471 89.3847 136.524 93.3097 136.955C94.0565 138.664 94.6494 140.165 95.1042 141.379C96.1429 144.144 96.3094 145.011 95.9885 145.964Z" fill="#43200C"/>
<path d="M70.4465 105.468C70.9851 105.904 71.3455 106.782 72.0636 108.541C72.7272 110.164 73.246 111.482 73.078 113.167C72.9913 114.035 72.7494 114.728 72.5577 115.176C70.9539 116.049 69.3501 116.921 67.7464 117.793C67.2499 117.623 66.5212 117.457 65.7046 117.623C64.7024 117.828 64.0592 118.435 63.8139 118.651C62.9664 119.395 61.4119 120.255 58.3055 120.701C56.4482 120.153 54.591 119.604 52.7337 119.056C52.5951 117.874 52.7076 116.919 52.835 116.273C53.0491 115.194 53.1844 114.502 53.7465 114.162C54.3444 113.802 54.8143 114.209 56.1036 113.994C56.1036 113.994 56.8117 113.875 57.6182 113.504C59.0821 112.831 59.6478 111.524 60.8549 109.628C62.1591 107.578 62.8112 106.553 63.5941 105.967C65.5178 104.526 68.683 104.048 70.4465 105.468Z" fill="#43200C"/>
<path d="M102.189 79.5211C102.782 79.7061 106.446 80.8532 109.741 79.142C110.272 78.8667 112.941 77.4011 113.432 74.8226C113.623 73.823 113.416 73.012 113.36 72.7726C112.088 67.3641 113.521 42.5177 111.812 39.0822C111.563 38.5805 111.221 38.1342 111.221 38.1342C110.934 37.7572 110.124 36.697 108.782 36.2553C107.814 35.936 107.349 36.1934 107.156 35.8719C106.856 35.3726 107.855 34.5469 108.592 33.302C109.104 32.4369 109.259 30.3275 109.547 26.1455C109.638 24.8266 109.705 23.5851 108.902 22.7678C108.665 22.5262 108.465 22.4355 108.091 22.2383C105.395 20.8085 105.008 19.7528 103.242 19.3557C102.565 19.203 102.096 19.2402 101.333 19.2756C98.3337 19.414 92.8125 19.4355 87.4015 19.9927C87.0124 20.0337 86.4957 20.0923 86.0994 20.4786C85.5135 21.0456 85.8208 21.7028 85.2336 23.4102C85.003 24.0842 84.756 24.5599 84.636 24.7791C84.243 25.5018 83.8575 25.9583 83.7715 26.0691C82.4488 27.7942 84.889 32.0968 84.889 32.0968C89.4818 40.1988 89.4534 75.5332 102.189 79.5211Z" fill="#FFCD05"/>
<path d="M89.6048 30.4383C88.9732 29.4288 87.3834 26.8851 84.5666 26.4046C83.5199 26.2257 82.4652 26.5221 80.3558 27.1149C78.0679 27.7576 75.4347 28.1188 74.8531 29.3463C74.8163 29.4243 75.1519 34.8047 77.4377 33.6146C79.6558 32.4599 77.813 34.4024 80.5718 36.5098C82.617 38.0729 84.5293 39.1902 86.7412 41.365C86.9067 41.5264 87.6819 42.2902 88.214 42.0723C88.611 41.9113 88.5662 41.3277 88.8454 40.3957C89.2743 38.9632 89.82 38.8599 90.3998 37.4444C90.5367 37.1079 90.9593 36.011 90.9812 34.707C91.0147 32.7355 90.1209 31.2637 89.6048 30.4383Z" fill="#8D782E"/>
<path d="M94.1187 138.145C90.4977 139.505 86.1762 140.872 85.5192 139.768C85.3373 139.462 85.5035 139.073 85.6356 138.685C86.1627 137.148 85.9596 136.231 85.6539 132.093C84.9878 123.086 85.629 123.06 84.7887 119.556C84.4953 118.331 84.0152 116.661 83.5805 114.022C83.2591 112.076 83.1477 110.729 83.0964 109.82C83.0007 108.146 83.1143 108.088 83.0456 106.556C82.9134 103.622 82.4845 103.517 82.3218 100.759C82.1841 98.4116 82.4608 97.9091 82.0129 96.3045C81.4608 94.3238 80.6446 93.6723 80.4067 93.4955C79.6174 92.9131 78.8458 92.8924 77.6724 92.7887C72.6562 92.3435 71.1718 91.321 70.0792 92.3739C69.6544 92.7833 69.5462 93.2566 69.3685 94.0922C68.5524 97.9187 70.8175 100.749 70.9504 104.202C70.9581 104.424 71.0252 106.362 71.025 106.356C70.6685 106.42 70.3119 106.485 69.9541 106.547C67.4375 106.988 64.956 107.37 62.5086 107.697C61.6842 104.286 60.9094 101.529 60.3521 99.6397C59.9883 98.4054 59.2731 95.8476 57.8435 90.7362C57.0033 87.733 56.5331 85.9698 57.0242 83.7387C57.2049 82.9197 57.6567 80.9888 59.2268 80.0966C59.9839 79.6649 60.7062 79.6453 61.1966 79.6224C63.3776 79.5224 65.5066 78.89 67.6773 78.6508C72.371 78.1364 72.3462 77.7323 78.4476 76.9763C80.9554 76.665 82.2073 76.5097 82.8104 76.5062C82.8104 76.5062 90.4798 76.4422 100.624 85.7789C100.973 86.101 101.497 86.6386 101.814 87.4685C102.139 88.3203 102.09 89.0755 102.056 89.5096C101.956 90.8259 101.388 91.7002 100.841 92.6696C100.111 93.9639 99.5439 95.3437 98.8704 96.6684C97.4708 99.4227 96.8805 101.816 96.4102 103.73C95.8085 106.175 95.6432 107.904 95.3315 111.199C95.0406 114.263 94.8549 116.215 95.0299 118.898C95.216 121.777 95.5771 121.777 95.5437 123.835C95.4961 126.73 94.7649 127.876 94.271 130.685C93.971 132.362 93.7165 134.888 94.1187 138.145Z" fill="#2C3D4F"/>
<path d="M76.3775 29.8596C76.0824 30.3309 75.6029 31.8274 75.7577 32.8007C75.887 33.6125 76.4585 34.3911 76.3975 34.6376C76.1623 35.5944 75.7102 36.9786 75.6589 37.1055C75.3147 37.9433 75.1576 37.8002 74.8136 38.865C74.6048 39.5119 76.1985 39.2286 76.6817 39.691C76.9772 39.9736 76.6817 39.691 76.7825 40.82C76.8955 42.075 77.0232 43.6008 77.1917 43.846C77.5632 44.3859 79.1755 44.4535 79.7701 44.1179C80.9714 43.4386 80.9205 43.8518 80.9946 43.9684C81.8063 45.2501 77.8429 49.6215 78.2222 50.1283C79.0181 51.1961 88.4591 47.8266 88.346 44.5604C88.3095 43.5076 87.266 42.4357 87.7033 40.7077C87.8218 40.2394 88.0293 39.7974 88.3134 39.1965C89.0437 37.6458 89.5848 37.2037 89.4301 36.5244C89.337 36.118 89.4514 35.3229 88.8559 34.6991C88.1523 33.9604 87.7424 34.0919 87.5505 34.9155C87.1697 36.5457 86.9267 37.5693 86.2583 36.691C85.5969 35.8227 82.9714 36.9736 80.5905 34.6423C78.0643 32.1615 76.6209 29.4696 76.3775 29.8596Z" fill="#FDD6BC"/>
<path d="M60.0049 52.0093C59.6251 51.2301 59.0969 51.0603 58.7804 49.9663C58.5084 49.0294 58.6522 48.3219 58.1331 47.9476C57.7897 47.7001 57.3894 47.7655 57.084 47.7838C54.6403 47.9246 53.0301 45.2427 51.802 45.8589C51.6884 45.9161 51.5534 46.0124 51.1879 46.7018C50.3719 48.2351 49.263 50.3194 49.8236 52.8058C49.997 53.5754 50.1659 54.32 50.787 54.9909C51.7478 56.0285 52.7085 55.7162 55.3954 56.7169C57.3639 57.4502 57.5318 57.8708 58.1807 57.6854C59.8112 57.2236 60.9494 53.9441 60.0049 52.0093Z" fill="#935357"/>
<path d="M95.4056 44.2019C92.2821 42.4802 87.9841 43.747 85.3598 44.5193C84.4669 44.7826 82.4332 45.3997 80.2217 46.8663C79.4237 47.3964 79.489 47.4492 77.8509 48.6785C75.4924 50.449 74.3108 51.3356 72.9211 51.9574C71.0271 52.8033 69.6741 53.4082 68.1765 52.9719C66.3448 52.437 66.0691 50.8576 64.4396 50.9013C63.5144 50.9262 63.1211 51.4494 61.6723 51.4361C60.6801 51.4272 60.6009 51.1808 60.083 51.2568C58.1289 51.5442 56.1929 55.5137 57.2882 57.7732C57.6708 58.5631 58.2189 58.7191 58.5306 59.7821C58.9017 61.0522 58.3047 61.4561 58.6489 62.3294C59.2171 63.7741 61.6035 64.5558 63.4049 64.2174C64.2761 64.0543 64.2888 63.764 65.3453 63.5352C66.5937 63.2645 67.5057 63.4647 68.7806 63.6794C73.0175 64.3977 73.4112 63.9534 75.4148 64.7681C76.5777 65.2418 77.3484 65.5661 77.9325 66.382C78.5575 67.2533 78.4067 67.8976 78.5976 70.3459C78.9376 74.729 79.6611 75.8347 80.1857 76.4179C80.7283 77.0202 81.2911 77.3265 81.6902 77.5391C88.9847 81.3984 94.8384 81.8619 99.1422 86.1702C100.337 87.3657 101.439 88.8853 102.099 88.5888C102.504 88.4083 102.593 87.6116 102.411 84.9133C102.25 82.5112 102.168 81.3108 101.836 79.3339C101.291 76.0923 101.668 74.6622 101.683 70.6897C101.706 64.1997 100.729 59.0601 100.291 56.7538C98.9015 49.4143 98.2047 45.7449 95.4056 44.2019Z" fill="#005245"/>
</g>
<defs>
<clipPath id="clip0">
<rect width="115.852" height="149.908" fill="white" transform="matrix(-0.959057 -0.283214 -0.283214 0.959057 153.565 32.811)"/>
</clipPath>
</defs>
</svg>
