<svg xmlns="http://www.w3.org/2000/svg" viewBox="0 0 1559.5 2207.13"><defs><style>.cls-1{fill:#656565;}.cls-2{fill:#514747;}.cls-3{fill:#625656;}.cls-4{fill:#127262;}</style></defs><g id="Layer_2" data-name="Layer 2"><g id="Layer_1-2" data-name="Layer 1"><polygon class="cls-1" points="189.03 463.46 138.54 290.19 159.43 228.63 0.04 0 0.04 0.03 94.04 348.19 189.03 463.46"/><polygon class="cls-1" points="979.54 852.19 1061.04 1178.69 1073.53 1190.31 1175.17 868.13 904.05 465.69 904.04 465.71 979.54 663.69 979.54 852.19"/><path class="cls-1" d="M0,1328.76v-1.07A3.47,3.47,0,0,0,0,1328.76Z"/><polygon class="cls-1" points="691.54 769.19 586.04 911.19 732.04 1309.19 883.12 1400.05 924.54 1311.69 823.04 1311.69 873.04 989.19 751.54 1032.19 823.04 820.69 901.31 477.63 859.05 662.19 597.55 236.69 597.54 236.75 599.54 594.19 691.54 769.19"/><polygon class="cls-1" points="1265.04 974.19 1375.04 1085.69 1330.54 1224.19 1515.99 1496.19 1515.99 1592.19 1471.04 1772.69 1462.38 1987.04 1554.89 2196.7 1537.55 1104.19 1265.55 581.69 1265.54 581.73 1281.54 770.69 1265.04 974.19"/><polygon class="cls-1" points="316.04 340.69 316.04 569.19 387.04 583.69 428.9 814.91 503.04 677.19 549.95 458.51 223.55 39.69 223.54 39.71 268.54 253.69 316.04 340.69"/><polygon class="cls-2" points="0.04 0 0.04 1327.69 0.04 0.03 0.04 0"/><path class="cls-2" d="M410.54,1202.24l67,154.45L270.24,1580.6A3043,3043,0,0,0,925.15,1996l43.39-108.76Z"/><path class="cls-2" d="M265.36,1576.55l121.18-190.86L297.4,1063.37l-1.36-1.68.59-1.1-9.09-32.9-41-203.5L298.06,943,208,528.69l-19-65.23L94,348.19,0,0V1327.69A3106.77,3106.77,0,0,0,265.36,1576.55Z"/><polygon class="cls-2" points="904.04 465.69 901.31 477.63 904.04 465.71 904.04 465.69"/><polygon class="cls-2" points="751.54 1032.19 873.04 989.19 823.04 1311.69 924.54 1311.69 883.12 1400.05 1319.04 1662.19 1462.38 1987.04 1471.04 1772.69 1515.99 1592.19 1021.04 1356.69 1073.53 1190.31 1061.04 1178.69 979.54 852.19 979.54 663.69 904.04 465.71 901.31 477.63 823.04 820.69 751.54 1032.19"/><polygon class="cls-2" points="223.54 39.71 223.54 39.69 159.43 228.63 165.05 236.69 223.54 39.71"/><polygon class="cls-2" points="189.03 463.46 340.04 646.69 291.54 845.69 366.58 930.66 428.9 814.91 387.04 583.69 316.04 569.19 316.04 340.69 268.54 253.69 223.54 39.71 165.05 236.69 159.43 228.63 138.54 290.19 189.03 463.46"/><polygon class="cls-2" points="366.58 930.66 291.54 845.69 340.04 646.69 189.03 463.46 208.04 528.69 298.06 942.96 325.68 1006.63 366.58 930.66"/><polygon class="cls-2" points="597.54 236.75 597.54 236.69 549.95 458.51 555.55 465.69 597.54 236.75"/><path class="cls-2" d="M1559.5,2207.13h0l-4.61-10.44.15,9.54Z"/><path class="cls-2" d="M428.9,814.91l11.64,64.28L382,948.1l378.56,428.59L622,1425.19l612,593q-1,50.49-4.81,99.86,47.38,16,93.09,29.67L967,1485.69l-144,42.5,60.08-128.14L732,1309.19l-146-398,105.5-142-92-175-2-357.44-42,228.94-5.6-7.18L503,677.19Z"/><path class="cls-2" d="M1454.43,2183.73q52,12.73,100.61,22.5l-.15-9.54L1462.38,1987Z"/><polygon class="cls-2" points="296.04 1061.69 297.4 1063.37 296.63 1060.59 296.04 1061.69"/><path class="cls-2" d="M1234,2018.19l-612-593,138.5-48.5L382,948.1l-54.08,63.64,82.64,190.5,558,685L925.15,1996a2954.08,2954.08,0,0,0,304.08,122.1Q1233,2068.67,1234,2018.19Z"/><path class="cls-2" d="M1462.38,1987,1319,1662.19,883.12,1400.05,823,1528.19l144-42.5,355.28,662q68.21,20.45,132.11,36Z"/><polygon class="cls-2" points="440.54 879.19 428.9 814.91 366.58 930.66 381.98 948.1 440.54 879.19"/><polygon class="cls-2" points="327.9 1011.74 381.98 948.1 366.58 930.66 325.68 1006.63 327.9 1011.74"/><polygon class="cls-2" points="1265.54 581.73 1265.54 581.69 1175.17 868.13 1191.05 891.69 1265.54 581.73"/><polygon class="cls-2" points="1160.54 1271.19 1172.04 1425.69 1515.99 1592.19 1515.99 1496.19 1330.54 1224.19 1375.04 1085.69 1265.04 974.19 1281.54 770.69 1265.54 581.73 1191.05 891.69 1175.17 868.13 1073.53 1190.31 1160.54 1271.19"/><polygon class="cls-2" points="1160.54 1271.19 1073.53 1190.31 1021.04 1356.69 1515.99 1592.19 1172.04 1425.69 1160.54 1271.19"/><path class="cls-3" d="M410.54,1202.24,297.4,1063.37l89.14,322.32L265.36,1576.55c1.62,1.36,3.25,2.7,4.88,4l207.3-223.91Z"/><polygon class="cls-3" points="298.06 942.96 246.54 824.19 287.54 1027.69 296.63 1060.59 315.86 1024.88 298.06 942.96"/><polygon class="cls-3" points="325.68 1006.63 298.06 942.96 315.86 1024.88 325.68 1006.63"/><polygon class="cls-3" points="327.9 1011.74 316.04 1025.69 315.86 1024.88 296.63 1060.59 297.4 1063.37 410.54 1202.24 327.9 1011.74"/><polygon class="cls-3" points="315.86 1024.88 316.04 1025.69 327.9 1011.74 325.68 1006.63 315.86 1024.88"/><path class="cls-4" d="M1454.43,2183.73q-63.78-15.63-132.11-36"/><path class="cls-4" d="M270.24,1580.6c-1.63-1.35-3.26-2.69-4.88-4"/></g></g></svg>