<svg width="340" height="207" viewBox="0 0 340 207" fill="none" xmlns="http://www.w3.org/2000/svg">
<path d="M339.394 128.446C339.394 171.828 263.418 206.996 169.697 206.996C75.9759 206.996 0 171.828 0 128.446C0 85.0643 75.9759 49.8964 169.697 49.8964C263.418 49.8964 339.394 85.0643 339.394 128.446Z" fill="url(#paint0_radial)"/>
<path d="M172.937 18.0123C176.317 18.8677 172.182 22.292 173.182 23.3509C173.887 24.0971 175.712 23.4069 175.875 23.3509C176.237 23.224 176.512 23.0559 176.668 22.9497C176.385 22.7138 175.996 15.3372 175.757 14.7207C175.45 13.9273 175.559 13.1899 175.639 12.6207C175.898 10.7124 176.072 9.43822 176.034 8.33511C176.01 7.69213 175.881 6.09057 174.963 4.49491C174.645 3.94041 173.966 2.78717 172.666 2.08224C171.439 1.41566 170.33 1.51594 168.982 1.63687C167.893 1.73421 167.094 1.80499 166.209 2.39489C165.209 3.06147 164.699 3.99055 164.348 4.62763C164.204 4.88719 163.605 6.01388 163.357 7.66264C163.236 8.47079 163.095 9.42642 163.357 10.5649C163.519 11.2639 163.735 11.612 163.873 12.6177C163.985 13.4377 163.929 13.8536 163.835 14.181C163.679 14.7266 163.392 15.0923 163.283 15.231C163.024 15.5554 162.755 22.7344 162.57 22.8553C163.189 23.0913 163.976 23.3243 164.906 23.4364C165.605 23.5219 165.153 18.0477 165.684 18.0094C166.074 17.7941 166.371 17.5669 166.578 17.39C166.855 17.154 167.029 17.0007 167.185 16.7411C167.421 16.3518 167.483 15.9359 167.495 15.6409C168.525 15.7058 169.61 15.7294 170.743 15.6999C171.055 15.6911 171.548 15.3932 171.79 15.6557C172.102 15.9919 171.645 16.7293 171.984 17.3605C172.226 17.8206 172.527 17.9061 172.937 18.0123Z" fill="#F3E6CE"/>
<path d="M117.086 14.3459C118.182 14.3459 119.071 13.4572 119.071 12.3609C119.071 11.2646 118.182 10.3759 117.086 10.3759C115.99 10.3759 115.101 11.2646 115.101 12.3609C115.101 13.4572 115.99 14.3459 117.086 14.3459Z" fill="#39161F"/>
<path d="M122.48 15.1895C123.577 15.1895 124.465 14.3008 124.465 13.2045C124.465 12.1082 123.577 11.2195 122.48 11.2195C121.384 11.2195 120.495 12.1082 120.495 13.2045C120.495 14.3008 121.384 15.1895 122.48 15.1895Z" fill="#39161F"/>
<path d="M124.288 13.1399C125.385 13.1399 126.273 12.2512 126.273 11.1549C126.273 10.0586 125.385 9.16992 124.288 9.16992C123.192 9.16992 122.303 10.0586 122.303 11.1549C122.303 12.2512 123.192 13.1399 124.288 13.1399Z" fill="#39161F"/>
<path d="M124.955 10.6181C126.051 10.6181 126.94 9.72941 126.94 8.63313C126.94 7.53684 126.051 6.64813 124.955 6.64813C123.859 6.64813 122.97 7.53684 122.97 8.63313C122.97 9.72941 123.859 10.6181 124.955 10.6181Z" fill="#39161F"/>
<path d="M123.893 7.76894C124.99 7.76894 125.878 6.88022 125.878 5.78394C125.878 4.68766 124.99 3.79895 123.893 3.79895C122.797 3.79895 121.908 4.68766 121.908 5.78394C121.908 6.88022 122.797 7.76894 123.893 7.76894Z" fill="#39161F"/>
<path d="M121.908 6.27944C123.004 6.27944 123.893 5.39072 123.893 4.29444C123.893 3.19816 123.004 2.30945 121.908 2.30945C120.812 2.30945 119.923 3.19816 119.923 4.29444C119.923 5.39072 120.812 6.27944 121.908 6.27944Z" fill="#39161F"/>
<path d="M115.478 12.382C116.575 12.382 117.463 11.4933 117.463 10.397C117.463 9.3007 116.575 8.41199 115.478 8.41199C114.382 8.41199 113.493 9.3007 113.493 10.397C113.493 11.4933 114.382 12.382 115.478 12.382Z" fill="#39161F"/>
<path d="M116.626 9.49403C117.722 9.49403 118.611 8.60532 118.611 7.50904C118.611 6.41276 117.722 5.52405 116.626 5.52405C115.529 5.52405 114.641 6.41276 114.641 7.50904C114.641 8.60532 115.529 9.49403 116.626 9.49403Z" fill="#39161F"/>
<path d="M116.862 6.64809C117.958 6.64809 118.847 5.75937 118.847 4.66309C118.847 3.56681 117.958 2.6781 116.862 2.6781C115.765 2.6781 114.877 3.56681 114.877 4.66309C114.877 5.75937 115.765 6.64809 116.862 6.64809Z" fill="#39161F"/>
<path d="M119.416 5.55958C120.512 5.55958 121.401 4.67087 121.401 3.57459C121.401 2.47831 120.512 1.5896 119.416 1.5896C118.319 1.5896 117.431 2.47831 117.431 3.57459C117.431 4.67087 118.319 5.55958 119.416 5.55958Z" fill="#39161F"/>
<path d="M115.148 9.45299C115.816 9.45299 116.357 8.91158 116.357 8.24371C116.357 7.57584 115.816 7.03442 115.148 7.03442C114.48 7.03442 113.939 7.57584 113.939 8.24371C113.939 8.91158 114.48 9.45299 115.148 9.45299Z" fill="#39161F"/>
<path d="M123.607 4.51246C124.125 4.51246 124.545 4.09253 124.545 3.57453C124.545 3.05652 124.125 2.6366 123.607 2.6366C123.089 2.6366 122.669 3.05652 122.669 3.57453C122.669 4.09253 123.089 4.51246 123.607 4.51246Z" fill="#39161F"/>
<path d="M117.567 3.79584C118.085 3.79584 118.505 3.37592 118.505 2.85791C118.505 2.33991 118.085 1.91998 117.567 1.91998C117.049 1.91998 116.629 2.33991 116.629 2.85791C116.629 3.37592 117.049 3.79584 117.567 3.79584Z" fill="#39161F"/>
<path d="M115.974 6.72471C116.85 6.72471 117.561 6.01427 117.561 5.1379C117.561 4.26153 116.85 3.55109 115.974 3.55109C115.098 3.55109 114.387 4.26153 114.387 5.1379C114.387 6.01427 115.098 6.72471 115.974 6.72471Z" fill="#39161F"/>
<path d="M125.689 7.78059C126.207 7.78059 126.627 7.36066 126.627 6.84266C126.627 6.32465 126.207 5.90472 125.689 5.90472C125.171 5.90472 124.751 6.32465 124.751 6.84266C124.751 7.36066 125.171 7.78059 125.689 7.78059Z" fill="#39161F"/>
<path d="M121.159 3.24702C121.677 3.24702 122.097 2.82709 122.097 2.30909C122.097 1.79108 121.677 1.37115 121.159 1.37115C120.641 1.37115 120.221 1.79108 120.221 2.30909C120.221 2.82709 120.641 3.24702 121.159 3.24702Z" fill="#39161F"/>
<path d="M117.909 15.1896C118.427 15.1896 118.847 14.7697 118.847 14.2517C118.847 13.7336 118.427 13.3137 117.909 13.3137C117.391 13.3137 116.971 13.7336 116.971 14.2517C116.971 14.7697 117.391 15.1896 117.909 15.1896Z" fill="#39161F"/>
<path d="M165.434 17.378C166.012 18.1301 166.363 19.6491 168.531 20.1741C169.294 20.3599 170.852 20.6372 172.164 20.0001C172.503 19.8349 173.087 19.3689 173.872 18.4192C174.108 18.136 174.309 17.9089 174.435 17.7644C175.361 17.8647 176.703 18.139 178.119 18.9235C178.721 19.2568 179.225 19.6196 179.635 19.9647C180.709 27.5891 181.104 33.3848 180.968 35.6971C180.859 37.5229 180.37 39.03 180.37 39.03C179.986 40.2069 179.497 41.0976 179.169 41.6285C179.258 44.112 179.52 48.1351 180.37 52.4944C181.078 56.1281 181.874 58.3461 182.771 60.2279C182.959 60.6231 183.124 60.9475 183.237 61.1599C178.907 61.2838 175.418 61.4755 173.037 61.6259C167.985 61.9474 164.401 62.3102 159.372 61.4932C158.614 61.3693 157.992 61.2484 157.573 61.1599C158.367 58.6883 159.122 55.9718 159.774 53.0282C160.591 49.3325 161.116 45.8846 161.44 42.7611C160.747 41.7082 159.85 40.1125 159.24 38.0272C158.617 35.8948 158.626 34.2519 158.641 30.9603C158.667 25.082 159.608 21.6488 159.841 20.8289C160.086 19.9676 160.328 19.2598 160.508 18.7613C162.148 18.3012 163.791 17.8381 165.434 17.378Z" fill="#005245"/>
<path d="M138.806 19.1271C139.384 19.8793 139.735 21.3982 141.903 21.9232C142.667 22.109 144.224 22.3863 145.536 21.7492C145.876 21.584 146.46 21.118 147.244 20.1683C147.48 19.8851 147.681 19.658 147.807 19.5135C148.734 19.6138 150.076 19.8881 151.491 20.6727C152.093 21.0059 152.597 21.3687 153.007 21.7138C154.081 29.3382 154.476 35.1339 154.341 37.4463C154.231 39.272 153.742 40.7792 153.742 40.7792C153.358 41.956 152.869 42.8468 152.541 43.3777C152.63 45.8611 152.892 49.8842 153.742 54.2435C154.45 57.8772 155.246 60.0952 156.143 61.977C156.331 62.3722 156.497 62.6967 156.609 62.909C152.279 63.0329 148.79 63.2246 146.409 63.3751C141.357 63.6965 137.773 64.0593 132.744 63.2423C131.986 63.1185 131.364 62.9975 130.945 62.909C131.739 60.4374 132.494 57.7209 133.146 54.7774C133.963 51.0817 134.488 47.6337 134.812 44.5103C134.119 43.4573 133.222 41.8616 132.612 39.7764C131.989 37.6439 131.998 36.001 132.013 32.7094C132.04 26.8311 132.98 23.398 133.213 22.578C133.458 21.7168 133.7 21.0089 133.88 20.5104C135.52 20.0503 137.163 19.5873 138.806 19.1271Z" fill="#FFCD05"/>
<path d="M192.165 19.4312C192.743 20.1833 193.094 21.7023 195.262 22.2273C196.026 22.4131 197.583 22.6904 198.895 22.0533C199.235 21.8881 199.819 21.4221 200.603 20.4724C200.839 20.1892 201.04 19.9621 201.166 19.8176C202.093 19.9179 203.435 20.1922 204.85 20.9767C205.452 21.31 205.956 21.6728 206.366 22.0179C207.44 29.6423 207.835 35.438 207.7 37.7504C207.59 39.5761 207.101 41.0833 207.101 41.0833C206.717 42.2601 206.228 43.1508 205.9 43.6818C205.989 46.1652 206.251 50.1883 207.101 54.5476C207.809 58.1813 208.605 60.3993 209.502 62.2811C209.69 62.6763 209.856 63.0008 209.968 63.2131C205.638 63.337 202.149 63.5287 199.768 63.6791C194.716 64.0006 191.132 64.3634 186.103 63.5464C185.345 63.4225 184.723 63.3016 184.304 63.2131C185.098 60.7415 185.853 58.025 186.505 55.0814C187.322 51.3858 187.847 47.9378 188.171 44.8143C187.478 43.7614 186.581 42.1657 185.971 40.0804C185.348 37.948 185.357 36.3051 185.372 33.0135C185.399 27.1352 186.339 23.702 186.572 22.8821C186.817 22.0208 187.059 21.313 187.239 20.8145C188.879 20.3544 190.522 19.8913 192.165 19.4312Z" fill="#FFCD05"/>
<path d="M214.091 15.768C214.64 16.5083 214.973 18.0037 217.026 18.5199C217.751 18.7027 219.226 18.977 220.471 18.3488C220.792 18.1866 221.344 17.7265 222.09 16.7915C222.314 16.5113 222.503 16.2901 222.624 16.1485C223.5 16.2488 224.774 16.5172 226.116 17.2899C226.688 17.6173 227.163 17.9772 227.552 18.3134C228.57 25.8198 228.944 31.53 228.815 33.807C228.711 35.6061 228.245 37.0897 228.245 37.0897C227.88 38.2489 227.417 39.1249 227.107 39.6499C227.193 42.095 227.44 46.0561 228.245 50.3505C228.918 53.9283 229.67 56.1138 230.52 57.9661C230.699 58.3554 230.856 58.674 230.962 58.8863C226.859 59.0072 223.553 59.196 221.297 59.3464C216.507 59.662 213.112 60.0219 208.345 59.2137C207.626 59.0928 207.036 58.9718 206.641 58.8863C207.393 56.453 208.107 53.7778 208.726 50.8785C209.502 47.2389 209.997 43.844 210.307 40.7677C209.649 39.7325 208.8 38.1604 208.222 36.1076C207.632 34.0075 207.638 32.3883 207.652 29.1498C207.679 23.3629 208.57 19.9798 208.791 19.1717C209.024 18.3252 209.251 17.6262 209.422 17.1366C210.979 16.6764 212.534 16.2222 214.091 15.768Z" fill="#005245"/>
<path d="M116.213 15.458C116.77 16.1954 117.106 17.6849 119.195 18.1981C119.932 18.378 121.43 18.6523 122.696 18.027C123.023 17.8648 123.583 17.4076 124.338 16.4785C124.566 16.1983 124.757 15.9771 124.881 15.8385C125.772 15.9388 127.067 16.2072 128.429 16.974C129.01 17.3014 129.494 17.6583 129.889 17.9946C130.922 25.4685 131.305 31.1551 131.172 33.4203C131.069 35.2106 130.594 36.6883 130.594 36.6883C130.223 37.8415 129.754 38.7146 129.438 39.2366C129.524 41.6729 129.774 45.6163 130.594 49.8931C131.276 53.456 132.042 55.6327 132.904 57.4762C133.087 57.8655 133.246 58.1811 133.352 58.3905C129.184 58.5114 125.825 58.7002 123.533 58.8477C118.67 59.1632 115.219 59.5201 110.376 58.7179C109.647 58.597 109.045 58.476 108.641 58.3905C109.405 55.969 110.131 53.3056 110.759 50.4151C111.547 46.7932 112.051 43.4101 112.364 40.3486C111.697 39.3163 110.833 37.753 110.246 35.7061C109.647 33.6149 109.653 32.0045 109.668 28.7778C109.694 23.0145 110.6 19.6463 110.824 18.841C111.06 17.9975 111.293 17.3014 111.467 16.8148C113.048 16.3635 114.629 15.9122 116.213 15.458Z" fill="#005245"/>
<path d="M165.572 51.7658C165.546 52.5917 165.516 53.4175 165.49 54.2404C165.236 54.5884 164.826 55.0692 164.21 55.491C163.292 56.1222 162.726 56.0602 162.54 56.4378C162.186 57.1574 163.561 58.8091 165.127 59.8591C168.392 62.0535 174.034 62.6759 176.282 59.7766C176.689 59.2545 177.161 58.3874 177.255 56.9952C176.5 56.659 175.913 56.3139 175.503 56.0484C174.344 55.3022 174.155 54.9158 174.084 54.7418C173.919 54.3318 173.981 54.0162 174.028 53.4617C174.081 52.8335 174.114 51.931 174.002 50.7925C171.194 51.1169 168.383 51.4414 165.572 51.7658Z" fill="#EDAC98"/>
<path d="M139.661 57.6144C139.641 58.1925 139.623 58.7677 139.602 59.3458C139.425 59.5876 139.139 59.9268 138.709 60.2217C138.066 60.6612 137.08 60.7467 136.954 61.0092C136.706 61.5107 138.257 62.54 139.352 63.2774C141.634 64.8111 145.581 65.2476 147.153 63.2184C147.436 62.8527 148.439 62.2775 148.507 61.3042C147.979 61.0682 146.896 60.7969 146.61 60.6111C145.799 60.089 145.666 59.8206 145.619 59.6967C145.504 59.4106 145.548 59.1894 145.581 58.803C145.619 58.3636 145.64 57.7324 145.56 56.936C143.593 57.1602 141.626 57.3873 139.661 57.6144Z" fill="#5B2F22"/>
<path d="M95.7671 47.7395C95.7523 48.1966 95.7376 48.6567 95.7199 49.1139C95.5783 49.3056 95.3512 49.574 95.0091 49.81C94.4988 50.161 94.1832 50.1256 94.0829 50.335C93.8883 50.7332 94.6492 51.6505 95.5193 52.2374C97.3333 53.4555 100.469 53.8006 101.716 52.1902C101.94 51.8982 103.278 51.4289 103.331 50.6561C102.912 50.4703 101.51 50.2642 101.283 50.1197C100.64 49.7068 100.533 49.4914 100.495 49.3941C100.404 49.167 100.439 48.99 100.466 48.6833C100.495 48.3353 100.513 47.8338 100.451 47.1997C98.8876 47.3796 97.3274 47.5595 95.7671 47.7395Z" fill="#EDAC98"/>
<path d="M108.609 30.8508C108.594 31.308 108.58 31.7681 108.562 32.2252C108.42 32.417 108.193 32.6854 107.851 32.9213C107.341 33.2723 107.025 33.2369 106.925 33.4463C106.73 33.8445 107.491 34.7618 108.361 35.3487C110.175 36.5669 113.311 36.9119 114.558 35.3015C114.782 35.0095 115.045 34.5288 115.098 33.756C114.679 33.5702 114.352 33.3755 114.125 33.231C113.482 32.8181 113.375 32.6028 113.337 32.5054C113.246 32.2783 113.281 32.1014 113.308 31.7946C113.337 31.4466 113.355 30.9452 113.293 30.311C111.73 30.491 110.169 30.6709 108.609 30.8508Z" fill="#EDAC98"/>
<path d="M118.106 13.1394C118.092 13.5965 118.077 14.0566 118.059 14.5138C117.918 14.7055 117.691 14.9739 117.348 15.2099C116.838 15.5609 116.523 15.5255 116.422 15.7349C116.228 16.1331 116.989 17.0504 117.859 17.6373C119.673 18.8554 122.808 19.2005 124.056 17.5901C124.28 17.2981 124.542 16.8173 124.595 16.0446C124.176 15.8588 123.849 15.6641 123.622 15.5196C122.979 15.1067 122.873 14.8913 122.834 14.794C122.743 14.5669 122.778 14.3899 122.805 14.0832C122.834 13.7352 122.852 13.2337 122.79 12.5996C121.23 12.7795 119.67 12.9594 118.106 13.1394Z" fill="#A6574B"/>
<path d="M153.061 34.1926C153.046 34.6498 153.031 35.1099 153.013 35.567C152.872 35.7588 152.645 36.0272 152.303 36.2631C151.792 36.6141 150.896 36.75 150.796 36.9594C150.601 37.3576 151.664 38.585 152.534 39.172C154.348 40.3901 157.762 40.2537 159.01 38.6433C159.234 38.3513 159.496 37.8706 159.549 37.0978C159.131 36.912 158.803 36.7173 158.576 36.5728C157.933 36.1599 157.827 35.9446 157.789 35.8472C157.697 35.6201 157.733 35.4432 157.759 35.1364C157.789 34.7884 157.806 34.287 157.744 33.6528C156.184 33.8298 154.624 34.0097 153.061 34.1926Z" fill="#BF705E"/>
<path d="M167.483 15.1184C167.469 15.5755 167.454 16.0356 167.436 16.4928C167.295 16.6845 167.068 16.9529 166.725 17.1889C166.215 17.5399 165.9 17.5045 165.799 17.7139C165.605 18.1121 166.257 19.3041 167.127 19.891C168.941 21.1092 172.185 21.1795 173.432 19.5691C173.657 19.2771 173.919 18.7964 173.972 18.0236C173.553 17.8378 173.226 17.6431 172.999 17.4986C172.356 17.0857 172.25 16.8703 172.211 16.773C172.12 16.5459 172.155 16.3689 172.182 16.0622C172.211 15.7142 172.229 15.2127 172.167 14.5786C170.607 14.7556 169.044 14.9355 167.483 15.1184Z" fill="#5B2F22"/>
<path d="M216.079 13.5437C216.064 14.0008 216.049 14.4609 216.032 14.9181C215.89 15.1098 215.663 15.3782 215.321 15.6142C214.811 15.9652 214.495 15.9298 214.395 16.1392C214.2 16.5374 214.961 17.4547 215.831 18.0416C217.645 19.2597 220.78 19.6048 222.028 17.9944C222.252 17.7024 222.515 17.2216 222.568 16.4489C222.149 16.2631 221.821 16.0684 221.594 15.9239C220.951 15.511 220.845 15.2956 220.807 15.1983C220.715 14.9712 220.751 14.7942 220.777 14.4875C220.807 14.1395 220.825 13.638 220.763 13.0039C219.199 13.1809 217.639 13.3608 216.079 13.5437Z" fill="#492116"/>
<path d="M205.213 33.3698C205.198 33.827 205.184 34.2871 205.166 34.7443C205.024 34.936 204.797 35.2044 204.455 35.4404C203.945 35.7913 203.629 35.756 203.529 35.9654C203.334 36.3635 204.095 37.2808 204.965 37.8678C206.779 39.0859 209.915 39.431 211.162 37.8206C211.386 37.5286 211.649 37.0478 211.702 36.2751C211.283 36.0892 210.956 35.8946 210.729 35.7501C210.086 35.3371 209.979 35.1218 209.941 35.0245C209.85 34.7974 209.885 34.6204 209.912 34.3137C209.941 33.9656 209.959 33.4642 209.897 32.8301C208.334 33.007 206.773 33.1899 205.213 33.3698Z" fill="#BF705E"/>
<path d="M218.332 53.2996C218.318 53.7567 218.303 54.2168 218.285 54.674C218.143 54.8657 217.916 55.1341 217.574 55.3701C217.064 55.7211 215.849 55.898 215.746 56.1045C215.551 56.5027 217.082 57.827 217.952 58.411C219.766 59.6291 223.388 59.7854 224.635 58.1721C224.859 57.8801 225.771 57.3521 225.824 56.5764C225.405 56.3906 224.075 55.8214 223.848 55.6739C223.205 55.261 223.099 55.0456 223.06 54.9483C222.969 54.7212 223.004 54.5442 223.031 54.2375C223.06 53.8895 223.078 53.388 223.016 52.7539C221.453 52.9397 219.893 53.1196 218.332 53.2996Z" fill="#EDAC98"/>
<path d="M135.039 113.245C136.246 119.217 136.824 124.007 137.128 127.373C137.272 128.974 137.47 131.593 137.865 136.831C138.074 139.607 138.242 141.902 138.357 143.465C138.113 145.226 137.865 146.987 137.62 148.747C137.65 148.818 138.301 150.272 139.832 150.467C140.953 150.608 141.767 149.977 141.92 149.853C142.189 150.125 142.717 150.585 143.516 150.836C144.932 151.284 146.132 150.744 146.466 150.591C146.97 150.355 148.008 149.871 148.309 148.871C148.395 148.588 148.436 148.211 147.816 146.29C147.536 145.423 147.274 144.71 147.079 144.202C147.94 133.472 148.799 122.745 149.66 112.015C144.784 112.425 139.912 112.835 135.039 113.245Z" fill="#6D4638"/>
<path d="M213.41 101.054C214.616 107.027 215.194 111.817 215.498 115.182C215.642 116.784 215.84 119.403 216.235 124.641C216.445 127.416 216.613 129.711 216.728 131.274C216.483 133.035 216.235 134.796 215.99 136.557C216.02 136.628 216.672 138.082 218.203 138.276C219.323 138.418 220.137 137.787 220.291 137.663C220.559 137.934 221.087 138.394 221.886 138.645C223.302 139.093 224.503 138.554 224.836 138.4C225.34 138.164 226.378 137.681 226.679 136.681C226.765 136.398 226.806 136.02 226.187 134.1C225.907 133.233 225.644 132.519 225.449 132.012C226.311 121.282 227.169 110.554 228.03 99.8242C223.158 100.234 218.282 100.644 213.41 101.054Z" fill="#FBD4C5"/>
<path d="M91.7646 93.89C92.8206 99.1106 93.3249 103.296 93.5904 106.236C93.7172 107.637 93.8883 109.926 94.2334 114.504C94.4162 116.931 94.5637 118.934 94.664 120.302C94.4487 121.842 94.2334 123.379 94.021 124.918C94.0475 124.98 94.6168 126.252 95.9529 126.423C96.9321 126.546 97.6429 125.995 97.7786 125.886C98.0116 126.122 98.4747 126.523 99.1737 126.744C100.412 127.136 101.46 126.664 101.752 126.529C102.191 126.322 103.099 125.898 103.362 125.025C103.436 124.777 103.471 124.446 102.931 122.771C102.687 122.013 102.459 121.391 102.288 120.945C103.04 111.569 103.793 102.193 104.542 92.8164C100.283 93.1733 96.0237 93.5331 91.7646 93.89Z" fill="#FBD4C5"/>
<path d="M115.847 50.6271C115.826 51.2553 115.806 51.8865 115.782 52.5147C115.59 52.7802 115.275 53.1489 114.806 53.4703C114.104 53.9511 113.673 53.9069 113.532 54.193C113.263 54.7416 114.31 56.001 115.505 56.8032C117.997 58.4756 122.297 58.9505 124.014 56.7384C124.324 56.3402 124.684 55.6795 124.757 54.6177C124.182 54.3611 123.734 54.0986 123.421 53.8951C122.536 53.3258 122.392 53.0309 122.339 52.8981C122.212 52.5855 122.259 52.3436 122.297 51.9219C122.339 51.4441 122.362 50.7539 122.277 49.8838C120.133 50.1315 117.991 50.3793 115.847 50.6271Z" fill="#EDAC98"/>
<path d="M186.269 97.1578C187.112 104.098 187.785 109.97 188.283 114.439C189.442 124.833 189.758 128.517 189.979 131.51C190.333 136.3 190.516 140.261 190.616 142.96C190.256 143.128 189.1 143.73 188.495 145.081C188.351 145.402 187.616 147.042 188.495 148.366C189.427 149.776 191.407 149.658 191.675 149.638C193.504 149.502 194.754 148.063 195.598 147.092C196.096 146.52 196.438 145.986 196.657 145.609C197.149 146.39 198.013 147.555 199.414 148.579C200.668 149.493 202.175 150.593 203.868 150.169C204.862 149.921 205.974 149.133 206.307 147.942C206.599 146.892 206.157 145.972 205.883 145.396C205.231 144.04 204.148 143.341 203.656 143.063C204.688 133.059 205.461 125.092 205.989 119.527C206.319 116.04 206.635 112.604 207.154 107.758C207.844 101.308 208.499 96.0252 208.956 92.4917C201.992 92.5625 195.031 92.6333 188.068 92.7041C187.472 94.1876 186.87 95.6742 186.269 97.1578Z" fill="#302726"/>
<path d="M230.823 82.4665C231.552 88.4658 232.133 93.5418 232.563 97.4056C233.566 106.39 233.838 109.575 234.029 112.162C234.336 116.303 234.492 119.727 234.578 122.06C234.265 122.208 233.268 122.727 232.743 123.895C232.619 124.172 231.985 125.591 232.743 126.735C233.549 127.953 235.259 127.853 235.492 127.835C237.073 127.717 238.153 126.476 238.884 125.635C239.315 125.139 239.613 124.679 239.801 124.352C240.226 125.027 240.975 126.036 242.185 126.918C243.267 127.708 244.571 128.658 246.034 128.292C246.892 128.077 247.856 127.396 248.142 126.366C248.396 125.458 248.013 124.662 247.777 124.166C247.213 122.995 246.278 122.388 245.851 122.149C246.744 113.501 247.411 106.611 247.868 101.8C248.154 98.786 248.429 95.8158 248.877 91.6276C249.473 86.0501 250.039 81.4844 250.434 78.4287C244.414 78.4906 238.397 78.5496 232.378 78.6116C231.861 79.9005 231.342 81.1835 230.823 82.4665Z" fill="#302726"/>
<path d="M109.152 85.6348C109.995 92.5749 110.668 98.4473 111.166 102.916C112.325 113.31 112.641 116.994 112.862 119.987C113.216 124.777 113.399 128.738 113.499 131.437C113.139 131.605 111.983 132.207 111.379 133.558C111.234 133.879 110.5 135.519 111.379 136.844C112.311 138.253 114.29 138.135 114.558 138.115C116.387 137.979 117.637 136.54 118.481 135.569C118.979 134.997 119.321 134.463 119.54 134.086C120.032 134.867 120.897 136.032 122.298 137.056C123.551 137.97 125.058 139.07 126.751 138.646C127.745 138.398 128.857 137.61 129.19 136.419C129.482 135.369 129.04 134.449 128.766 133.873C128.114 132.517 127.031 131.818 126.539 131.54C127.571 121.536 128.344 113.569 128.872 108.004C129.202 104.517 129.518 101.081 130.037 96.2352C130.727 89.7847 131.382 84.5022 131.839 80.9688C124.875 81.0395 117.915 81.1103 110.951 81.1811C110.352 82.6676 109.75 84.1512 109.152 85.6348Z" fill="#302726"/>
<path d="M156.21 96.5209C157.207 104.723 158.001 111.663 158.591 116.946C159.959 129.231 160.334 133.581 160.596 137.12C161.015 142.78 161.23 147.461 161.348 150.652C160.924 150.853 159.558 151.561 158.841 153.16C158.67 153.54 157.803 155.478 158.841 157.044C159.944 158.71 162.28 158.572 162.602 158.548C164.761 158.389 166.242 156.687 167.239 155.54C167.828 154.861 168.232 154.233 168.492 153.785C169.073 154.711 170.097 156.085 171.751 157.295C173.232 158.374 175.013 159.675 177.013 159.174C178.187 158.879 179.502 157.949 179.895 156.543C180.24 155.301 179.718 154.213 179.393 153.534C178.623 151.933 177.343 151.104 176.762 150.776C177.983 138.952 178.898 129.537 179.52 122.96C179.909 118.84 180.284 114.781 180.898 109.05C181.715 101.426 182.487 95.1848 183.027 91.0054C174.798 91.088 166.569 91.1735 158.343 91.2561C157.629 93.011 156.921 94.7659 156.21 96.5209Z" fill="#302726"/>
<path d="M193.902 56.5522C193.878 57.2306 193.858 57.909 193.834 58.5844C193.624 58.8705 193.288 59.2657 192.784 59.6138C192.029 60.1299 191.566 60.0827 191.412 60.3895C191.123 60.9794 192.25 62.3361 193.536 63.2003C196.217 65.0025 200.848 65.5127 202.697 63.1325C203.03 62.7019 203.42 61.991 203.496 60.8496C202.877 60.5723 202.393 60.2892 202.057 60.0739C201.107 59.4604 200.951 59.1448 200.892 59.0003C200.756 58.664 200.806 58.4045 200.848 57.9503C200.892 57.4341 200.918 56.6938 200.824 55.7559C198.518 56.0213 196.208 56.2868 193.902 56.5522Z" fill="#5B2F22"/>
<path d="M128.312 34.3374C128.288 35.0158 128.267 35.6941 128.244 36.3696C128.034 36.6557 127.698 37.0509 127.194 37.3989C126.439 37.9151 125.976 37.8679 125.822 38.1746C125.533 38.7645 126.66 40.1213 127.946 40.9855C130.627 42.7876 135.258 43.2979 137.107 40.9176C137.44 40.487 137.829 39.7762 137.906 38.6348C137.287 38.3575 136.803 38.0744 136.467 37.859C135.517 37.2456 135.361 36.93 135.302 36.7854C135.166 36.4492 135.216 36.1896 135.258 35.7354C135.302 35.2193 135.328 34.4789 135.234 33.541C132.925 33.8035 130.618 34.069 128.312 34.3374Z" fill="#E9C3BB"/>
<path d="M237.734 47.0406C237.716 47.598 237.695 48.1525 237.678 48.71C237.507 48.943 237.229 49.2704 236.814 49.5535C236.194 49.9782 235.814 49.9369 235.687 50.1906C235.448 50.6743 236.377 51.7892 237.43 52.4971C239.633 53.9777 243.435 54.3965 244.951 52.441C245.226 52.0871 245.544 51.5031 245.609 50.5652C245.099 50.3381 244.703 50.1051 244.426 49.9281C243.645 49.4267 243.518 49.1642 243.471 49.0462C243.358 48.7689 243.4 48.5566 243.432 48.182C243.468 47.7602 243.491 47.1497 243.415 46.3799C241.521 46.604 239.627 46.8223 237.734 47.0406Z" fill="#D3AF8A"/>
<path d="M114.316 33.4968C117.696 34.2548 113.561 37.2928 114.561 38.2307C115.266 38.8943 117.092 38.2809 117.254 38.2307C117.617 38.1186 117.891 37.9682 118.047 37.8738C117.764 37.6644 117.375 31.1195 117.136 30.5768C116.829 29.8719 116.938 29.2201 117.018 28.7157C117.278 27.0227 117.452 25.8931 117.413 24.9139C117.39 24.3446 117.26 22.923 116.343 21.5072C116.024 21.0147 115.346 19.9941 114.045 19.3689C112.818 18.779 111.709 18.8675 110.361 18.9736C109.273 19.0592 108.473 19.1241 107.589 19.6461C106.589 20.239 106.078 21.0619 105.728 21.6252C105.583 21.8553 104.984 22.8551 104.736 24.3181C104.616 25.0348 104.474 25.8813 104.736 26.893C104.899 27.5153 105.114 27.822 105.253 28.7157C105.365 29.4413 105.309 29.8129 105.214 30.102C105.058 30.5857 104.772 30.9101 104.663 31.034C104.403 31.3231 104.135 37.691 103.949 37.7971C104.568 38.0066 105.356 38.213 106.285 38.3133C106.984 38.387 106.533 33.5322 107.064 33.4998C107.453 33.308 107.751 33.1075 107.957 32.9512C108.235 32.7418 108.409 32.6061 108.565 32.376C108.801 32.0309 108.863 31.6622 108.875 31.3997C109.904 31.4587 110.989 31.4794 112.122 31.4528C112.435 31.444 112.927 31.1815 113.169 31.4145C113.482 31.7124 113.024 32.3672 113.364 32.9276C113.606 33.3287 113.906 33.4054 114.316 33.4968Z" fill="#AC6034"/>
<path d="M187.035 36.6582C190.852 37.5135 186.183 40.9467 187.31 42.0055C188.106 42.7547 190.165 42.0616 190.351 42.0055C190.761 41.8787 191.07 41.7106 191.244 41.6044C190.926 41.3684 190.483 33.98 190.215 33.3636C189.867 32.5672 189.994 31.8328 190.082 31.2606C190.377 29.3494 190.575 28.0723 190.531 26.9662C190.504 26.3232 190.357 24.7158 189.324 23.1201C188.964 22.5656 188.198 21.4094 186.732 20.7045C185.345 20.0379 184.095 20.1382 182.573 20.2562C181.343 20.3535 180.443 20.4243 179.443 21.0171C178.314 21.6867 177.736 22.6157 177.341 23.2528C177.178 23.5153 176.5 24.642 176.223 26.2937C176.087 27.1019 175.928 28.0605 176.223 29.2019C176.406 29.9039 176.65 30.2519 176.804 31.2577C176.928 32.0776 176.866 32.4965 176.759 32.8238C176.583 33.3695 176.261 33.7352 176.137 33.8768C175.845 34.2012 175.541 41.392 175.329 41.513C176.028 41.7489 176.919 41.9819 177.969 42.094C178.759 42.1796 178.246 36.6965 178.848 36.6582C179.287 36.4428 179.623 36.2157 179.856 36.0388C180.169 35.8028 180.367 35.6494 180.541 35.3899C180.806 35.0006 180.877 34.5847 180.892 34.2868C182.054 34.3517 183.278 34.3753 184.558 34.3458C184.912 34.3369 185.466 34.039 185.741 34.3015C186.092 34.6378 185.578 35.3751 185.959 36.0093C186.233 36.4664 186.572 36.5549 187.035 36.6582Z" fill="#562B07"/>
<path d="M180.237 33.5822C180.216 34.2223 180.193 34.8623 180.172 35.5023C179.974 35.7707 179.656 36.1453 179.178 36.4727C178.464 36.9623 178.025 36.9151 177.883 37.2071C177.609 37.7646 178.677 39.0447 179.889 39.8617C182.423 41.5635 186.797 42.0472 188.543 39.7968C188.858 39.3897 189.224 38.7202 189.298 37.6378C188.711 37.3753 188.257 37.1098 187.938 36.9033C187.038 36.3252 186.891 36.0244 186.838 35.8887C186.711 35.5702 186.758 35.3254 186.794 34.8947C186.835 34.4081 186.861 33.7061 186.773 32.8242C184.596 33.0808 182.417 33.3315 180.237 33.5822Z" fill="#EDAC98"/>
<path d="M226.346 31.4971C226.328 32.0546 226.308 32.6091 226.29 33.1665C226.119 33.3995 225.842 33.7269 225.426 34.0101C224.806 34.4348 224.426 34.3935 224.299 34.6471C224.06 35.1309 224.989 36.2458 226.042 36.9536C228.245 38.4343 232.047 38.8531 233.563 36.8976C233.838 36.5437 234.156 35.9597 234.221 35.0217C233.711 34.7946 233.316 34.5616 233.038 34.3846C232.257 33.8832 232.13 33.6207 232.083 33.5027C231.971 33.2255 232.012 33.0131 232.044 32.6386C232.08 32.2168 232.103 31.6062 232.027 30.8364C230.133 31.0606 228.24 31.2788 226.346 31.4971Z" fill="#EDAC98"/>
<path d="M140.897 17.133C140.882 17.5902 140.867 18.0503 140.85 18.5075C140.708 18.6992 140.481 18.9676 140.139 19.2035C139.629 19.5545 139.313 19.5191 139.213 19.7285C139.018 20.1267 139.779 21.044 140.649 21.631C142.463 22.8491 145.598 23.1942 146.846 21.5838C147.07 21.2918 147.333 20.811 147.386 20.0382C146.967 19.8524 146.64 19.6578 146.412 19.5132C145.77 19.1003 145.663 18.885 145.625 18.7877C145.534 18.5606 145.569 18.3836 145.595 18.0768C145.625 17.7288 145.643 17.2274 145.581 16.5933C144.02 16.7702 142.46 16.9531 140.897 17.133Z" fill="#EDAC98"/>
<path d="M194.194 17.133C194.179 17.5902 194.164 18.0503 194.147 18.5075C194.005 18.6992 193.778 18.9676 193.436 19.2035C192.926 19.5545 192.61 19.5191 192.51 19.7285C192.315 20.1267 193.076 21.044 193.946 21.631C195.76 22.8491 198.895 23.1942 200.143 21.5838C200.367 21.2918 200.63 20.811 200.683 20.0382C200.264 19.8524 199.936 19.6578 199.709 19.5132C199.066 19.1003 198.96 18.885 198.922 18.7877C198.83 18.5606 198.866 18.3836 198.892 18.0768C198.922 17.7288 198.94 17.2274 198.878 16.5933C197.314 16.7702 195.754 16.9531 194.194 17.133Z" fill="#EDAC98"/>
<path d="M232.561 34.6972C236.377 35.5526 231.708 38.9858 232.835 40.0446C233.631 40.7938 235.69 40.1007 235.876 40.0446C236.286 39.9178 236.595 39.7497 236.769 39.6435C236.451 39.4075 236.009 32.0191 235.74 31.4027C235.392 30.6063 235.519 29.8719 235.607 29.2997C235.902 27.3884 236.1 26.1113 236.056 25.0053C236.029 24.3623 235.882 22.7548 234.849 21.1592C234.49 20.6047 233.723 19.4485 232.257 18.7435C230.871 18.077 229.62 18.1772 228.098 18.2952C226.868 18.3926 225.969 18.4633 224.969 19.0562C223.839 19.7257 223.261 20.6548 222.866 21.2919C222.703 21.5544 222.025 22.6811 221.748 24.3328C221.612 25.1409 221.453 26.0995 221.748 27.241C221.931 27.9429 222.175 28.291 222.329 29.2967C222.453 30.1167 222.391 30.5355 222.285 30.8629C222.108 31.4086 221.786 31.7743 221.662 31.9159C221.37 32.2403 221.066 39.4311 220.854 39.5521C221.553 39.788 222.444 40.021 223.494 40.1331C224.284 40.2186 223.771 34.7356 224.373 34.6972C224.812 34.4819 225.149 34.2548 225.382 34.0778C225.694 33.8419 225.892 33.6885 226.066 33.429C226.331 33.0396 226.402 32.6237 226.417 32.3259C227.579 32.3907 228.803 32.4143 230.083 32.3848C230.437 32.376 230.991 32.0781 231.266 32.3406C231.617 32.6768 231.104 33.4142 231.484 34.0483C231.755 34.5055 232.098 34.591 232.561 34.6972Z" fill="#150F0A"/>
<path d="M106.786 32.984C107.35 33.7155 107.692 35.1961 109.804 35.7093C110.55 35.8892 112.066 36.1606 113.346 35.5382C113.676 35.379 114.245 34.9248 115.009 33.9986C115.239 33.7214 115.434 33.5002 115.561 33.3615C116.463 33.4618 117.773 33.7273 119.15 34.4912C119.737 34.8156 120.227 35.1696 120.628 35.5058C121.675 42.9326 122.062 48.5808 121.926 50.8342C121.82 52.6157 115.785 52.5183 115.785 52.5183C115.41 53.6657 113.476 54.1995 113.16 54.7216C113.248 57.1402 120.516 62.9536 121.342 67.2008C122.032 70.7431 122.808 72.9021 123.681 74.7337C123.864 75.1201 124.026 75.4328 124.135 75.6422C119.917 75.7631 116.519 75.9489 114.198 76.0964C109.276 76.409 105.783 76.763 100.884 75.9666C100.147 75.8457 99.5394 75.7277 99.1294 75.6422C99.9022 73.2354 100.637 70.5897 101.274 67.717C102.07 64.1186 102.58 60.7592 102.899 57.7153C102.223 56.6918 104.421 52.4151 103.117 50.7487C102.908 50.4832 100.294 51.2235 100.309 48.0175C100.336 42.2925 101.114 37.1457 101.341 36.3464C101.58 35.5088 101.816 34.8186 101.99 34.3319C103.586 33.8836 105.188 33.4323 106.786 32.984Z" fill="white"/>
<path d="M203.255 35.6472C203.824 36.3875 204.169 37.8829 206.301 38.399C207.053 38.5819 208.587 38.8532 209.879 38.2279C210.212 38.0657 210.787 37.6056 211.56 36.6736C211.79 36.3934 211.988 36.1722 212.115 36.0306C213.026 36.1309 214.347 36.3993 215.743 37.172C216.335 37.4994 216.831 37.8593 217.235 38.1955C218.291 45.6989 218.772 51.648 218.636 53.925C218.53 55.7242 215.746 56.1135 215.746 56.1135C215.368 57.2726 217.093 58.9951 216.775 59.5201C216.863 61.9653 217.12 65.9234 217.955 70.2149C218.651 73.7926 219.435 75.9752 220.317 77.8245C220.503 78.2139 220.665 78.5324 220.777 78.7418C216.515 78.8627 213.082 79.0515 210.74 79.2019C205.767 79.5175 202.24 79.8774 197.291 79.0722C196.544 78.9512 195.931 78.8303 195.518 78.7448C196.297 76.3144 202.853 63.7556 203.496 60.8563C202.455 60.3224 199.942 59.8652 201.016 57.1104C201.467 55.9542 197.76 58.0307 197.161 55.9778C196.547 53.8808 196.556 52.2615 196.571 49.023C196.598 43.2391 197.524 39.859 197.751 39.0508C197.993 38.2043 198.229 37.5083 198.406 37.0157C200.022 36.5556 201.638 36.1014 203.255 35.6472Z" fill="white"/>
<path d="M172.028 40.0006C173.114 39.1806 173.71 39.0479 175.134 38.0834C175.633 37.7442 177.709 36.6352 178.125 36.2931C178.505 36.647 179.29 37.7944 180.045 38.3076C181.369 39.2131 182.567 39.6053 183.885 39.6348C185.393 39.6673 185.929 39.3369 186.469 38.9801C187.372 38.3813 187.911 37.0717 188.268 36.5939C189.271 37.3844 190.811 38.4079 191.501 38.8296C193.371 39.974 194.25 40.1923 194.966 41.2217C195.497 41.9826 195.604 42.7111 195.748 43.7582C196.288 47.7193 196.556 49.6984 196.577 50.247C196.739 54.6447 193.772 53.2997 193.837 58.5881C193.837 58.5881 193.81 59.6735 190.457 60.986C189.498 61.3606 196.046 70.734 194.772 72.256C194.409 72.6895 193.745 73.4623 192.772 73.477C192.692 73.477 191.799 73.477 191.309 72.8429C191.206 72.7072 190.914 72.2766 191.212 70.501C191.318 69.8757 191.51 68.9938 191.896 67.9645C186.139 67.9143 180.381 67.8672 174.621 67.817C174.636 68.6075 174.707 69.2446 174.769 69.6722C174.945 70.9081 175.181 71.4478 175.061 72.4034C174.984 73.0081 174.925 73.4947 174.574 73.7218C173.893 74.1584 172.524 73.3532 171.742 72.5008C170.964 71.6513 170.678 70.6603 170.424 68.9378C170.029 66.2331 177.261 60.6675 177.261 58.8801C176.715 55.9246 173.869 55.8923 173.854 54.1698C173.801 48.4773 171.211 43.947 172.028 40.0006Z" fill="white"/>
<path d="M150.825 36.4757C151.394 37.216 151.739 38.7114 153.872 39.2276C154.624 39.4104 156.157 39.6818 157.449 39.0565C157.783 38.8943 158.358 38.4342 159.131 37.5021C159.361 37.2219 159.558 37.0007 159.685 36.8591C160.596 36.9594 161.918 37.2278 163.313 38.0006C163.906 38.328 164.401 38.6878 164.805 39.024C165.861 46.5275 166.342 52.4766 166.206 54.7536C166.1 56.5527 163.316 56.9421 163.316 56.9421C162.938 58.1012 164.664 59.8237 164.345 60.3487C164.434 62.7938 164.69 66.752 165.525 71.0435C166.221 74.6212 167.006 76.8038 167.888 78.6531C168.073 79.0425 168.236 79.361 168.348 79.5704C164.086 79.6913 160.652 79.8801 158.311 80.0305C153.338 80.3461 149.81 80.7059 144.861 79.9007C144.115 79.7798 143.501 79.6589 143.088 79.5734C143.867 77.143 150.424 64.5842 151.067 61.6848C150.026 61.151 144.743 61.3397 145.312 58.4375C145.628 56.83 143.316 56.5763 142.717 54.5235C142.103 52.4264 144.124 53.0901 144.138 49.8516C144.165 44.0676 145.091 40.6876 145.318 39.8794C145.56 39.0329 145.796 38.3368 145.973 37.8443C147.592 37.3841 149.209 36.9299 150.825 36.4757Z" fill="white"/>
<path d="M120.074 40.6053C121.159 39.7854 121.755 39.6526 123.179 38.6882C123.678 38.349 125.754 37.24 126.17 36.8978C126.551 37.2518 127.335 38.3991 128.09 38.9123C129.415 39.8178 130.612 40.2101 131.931 40.2396C133.438 40.272 133.975 39.9417 134.514 39.5848C135.417 38.9861 135.957 37.6765 136.313 37.1987C137.316 37.9891 138.856 39.0126 139.546 39.4344C141.416 40.5788 142.295 40.797 143.012 41.8264C143.543 42.5874 143.649 43.3159 143.793 44.3629C144.333 48.3241 144.601 50.3032 144.622 50.8518C144.784 55.2494 139.543 54.0579 139.608 59.3463C139.608 59.3463 139.042 60.4228 135.691 61.7353C134.733 62.1099 144.091 71.3359 142.817 72.8578C142.454 73.2914 141.791 74.0641 140.817 74.0789C140.738 74.0789 139.844 74.0789 139.354 73.4447C139.251 73.309 138.959 72.8784 139.257 71.1028C139.363 70.4776 139.555 69.5957 139.941 68.5663C134.184 68.5162 128.427 68.469 122.666 68.4188C122.681 69.2093 122.752 69.8464 122.814 70.274C122.991 71.5099 123.227 72.0496 123.106 73.0053C123.029 73.6099 122.97 74.0966 122.619 74.3237C121.938 74.7602 120.569 73.955 119.788 73.1026C119.009 72.2531 118.723 71.2621 118.469 69.5396C118.074 66.835 125.781 58.7239 125.781 56.9336C125.784 53.9251 121.781 54.341 121.767 52.6156C121.711 46.929 119.257 44.5517 120.074 40.6053Z" fill="white"/>
<path d="M216.731 38.5966C217.816 37.7767 219.462 36.7414 220.884 35.774C221.382 35.4348 223.458 34.3258 223.874 33.9836C224.255 34.3376 225.039 35.4849 225.794 35.9981C227.119 36.9036 228.316 37.2959 229.635 37.3254C231.142 37.3578 231.679 37.0275 232.218 36.6706C233.121 36.0719 233.661 34.7623 234.018 34.2845C235.02 35.0749 236.56 36.0984 237.25 36.5202C239.12 37.6646 239.999 37.8828 240.716 38.9122C241.247 39.6732 241.353 40.4017 241.497 41.4488C242.037 45.4099 238.002 46.0971 238.026 46.6457C238.147 49.4477 237.392 49.4035 233.953 51.418C233.953 51.418 239.56 57.3611 236.209 58.6737C235.25 59.0482 241.798 68.4217 240.524 69.9436C240.161 70.3772 239.498 71.1499 238.524 71.1647C238.445 71.1647 237.551 71.1647 237.061 70.5305C236.958 70.3949 236.666 69.9642 236.964 68.1886C237.07 67.5634 237.262 66.6815 237.648 65.6521C231.891 65.602 226.134 65.5548 220.373 65.5046C220.388 66.2951 220.459 66.9322 220.521 67.3598C220.698 68.5957 220.934 69.1354 220.813 70.0911C220.736 70.6957 220.677 71.1824 220.326 71.4095C219.645 71.846 218.276 71.0408 217.495 70.1884C216.716 69.3389 216.43 68.3479 216.176 66.6254C215.781 63.9208 226.945 57.2402 225.331 56.4645C222.639 55.1667 223.087 55.1962 223.072 53.4708C223.016 47.7872 215.914 42.543 216.731 38.5966Z" fill="white"/>
<path d="M229.372 53.114C230.457 52.2941 231.053 52.1614 232.478 51.1969C232.976 50.8577 235.053 49.7487 235.469 49.4066C235.849 49.7605 236.634 50.9078 237.389 51.421C238.713 52.3265 239.91 52.7188 241.229 52.7483C242.736 52.7807 243.273 52.4504 243.813 52.0935C244.715 51.4948 245.255 50.1852 245.612 49.7074C246.615 50.4979 248.154 51.5213 248.844 51.9431C250.714 53.0875 251.593 53.3058 252.31 54.3351C252.841 55.0961 252.947 55.8246 253.092 56.8717C253.631 60.8328 253.9 62.8119 253.92 63.3605C254.083 67.7582 253.906 68.174 253.971 73.4624C253.971 73.4624 254 75.9105 253.628 80.9275C253.552 81.954 253.39 83.8446 252.115 85.3694C251.753 85.803 251.089 86.5758 250.116 86.5905C250.036 86.5905 249.142 86.5905 248.653 85.9564C248.549 85.8207 248.257 85.3901 248.555 83.6145C248.662 82.9892 248.853 82.1073 249.24 81.078C243.482 81.0278 237.725 80.9806 231.965 80.9305C231.979 81.7209 232.05 82.358 232.112 82.7857C232.289 84.0215 232.525 84.5613 232.404 85.5169C232.327 86.1216 232.268 86.6082 231.917 86.8353C231.236 87.2718 229.868 86.4666 229.086 85.6142C228.307 84.7648 228.021 83.7738 227.768 82.0513C227.372 79.3466 227.422 77.3026 227.425 75.5123C227.428 72.5038 227.296 71.6751 227.278 69.9496C227.225 64.2601 228.555 57.0604 229.372 53.114Z" fill="#005245"/>
<path d="M107.061 57.3522C108.341 56.8832 109.824 56.1901 111.349 55.1548C111.883 54.7921 113.053 54.6573 113.499 54.2916C113.867 54.7657 113.836 54.969 114.647 55.5235C116.065 56.4939 117.062 57.1723 118.463 57.3552C120.752 57.653 122.593 56.432 123.171 56.0485C124.138 55.4056 124.494 55.115 124.877 54.6076C126.142 55.2398 127.191 55.6504 127.931 56.1016C129.934 57.3286 130.878 57.5616 131.644 58.6647C132.214 59.4817 132.329 60.2633 132.482 61.3841C133.06 65.6284 133.349 67.7491 133.37 68.339C133.541 73.0522 133.355 73.4976 133.423 79.1665C133.423 79.1665 133.455 81.7886 133.057 87.1684C132.975 88.2685 132.801 90.2948 131.435 91.9288C131.046 92.3948 130.335 93.2207 129.291 93.2354C129.205 93.2354 128.247 93.2354 127.722 92.5541C127.61 92.4096 127.297 91.9465 127.618 90.0441C127.731 89.3716 127.94 88.4278 128.35 87.3247C122.18 87.2716 116.006 87.2215 109.836 87.1684C109.851 88.0149 109.928 88.6992 109.992 89.1563C110.181 90.4806 110.435 91.0587 110.305 92.0851C110.225 92.734 110.161 93.2561 109.783 93.4979C109.052 93.9669 107.589 93.1027 106.751 92.1913C105.916 91.2829 105.61 90.2181 105.338 88.3747C104.913 85.4754 104.969 83.2839 104.972 81.3668C104.978 78.143 104.831 77.2523 104.816 75.403C104.757 69.3005 106.185 61.5817 107.061 57.3522Z" fill="#FFCD05"/>
<path d="M215.769 55.2907C216.424 56.1402 216.822 57.8626 219.276 58.4555C220.14 58.6649 221.904 58.9805 223.391 58.2579C223.774 58.0721 224.435 57.5441 225.323 56.4675C225.588 56.1461 225.815 55.8895 225.963 55.7272C227.01 55.8423 228.532 56.152 230.133 57.0397C230.814 57.4173 231.384 57.8302 231.85 58.2166C233.065 66.8467 233.513 73.4093 233.36 76.0284C233.239 78.096 232.681 79.8008 232.681 79.8008C232.245 81.134 231.69 82.1397 231.322 82.7444C231.422 85.5552 231.72 90.1092 232.681 95.0466C233.484 99.1611 234.383 101.671 235.398 103.801C235.61 104.249 235.799 104.615 235.926 104.857C231.024 104.998 227.075 105.213 224.379 105.384C218.657 105.747 214.601 106.16 208.906 105.234C208.047 105.095 207.343 104.954 206.868 104.857C207.764 102.06 208.62 98.9842 209.357 95.6483C210.283 91.466 210.876 87.5609 211.245 84.0244C210.46 82.8329 209.443 81.0278 208.755 78.6653C208.05 76.2526 208.059 74.3885 208.077 70.6663C208.106 64.0123 209.171 60.1219 209.437 59.1929C209.714 58.2195 209.988 57.4173 210.192 56.8539C212.05 56.3348 213.911 55.8128 215.769 55.2907Z" fill="#FFCD05"/>
<path d="M137.142 60.2484C137.859 61.1774 138.293 63.0562 140.971 63.7051C141.915 63.9352 143.841 64.2773 145.463 63.4898C145.882 63.2863 146.601 62.7112 147.572 61.5373C147.864 61.1863 148.108 60.9061 148.271 60.7291C149.415 60.8559 151.076 61.1922 152.825 62.1626C153.571 62.5755 154.19 63.0238 154.698 63.4485C156.025 72.8721 156.514 80.0363 156.346 82.8944C156.214 85.1537 155.606 87.0148 155.606 87.0148C155.131 88.4689 154.526 89.569 154.122 90.2297C154.234 93.3001 154.556 98.27 155.606 103.662C156.482 108.154 157.464 110.894 158.573 113.221C158.806 113.71 159.01 114.109 159.151 114.374C153.801 114.527 149.489 114.763 146.545 114.952C140.298 115.35 135.871 115.799 129.654 114.787C128.716 114.634 127.946 114.483 127.43 114.374C128.409 111.321 129.341 107.962 130.149 104.322C131.161 99.7565 131.807 95.4945 132.208 91.6337C131.35 90.333 130.241 88.3598 129.488 85.7819C128.719 83.148 128.727 81.1129 128.748 77.0485C128.781 69.784 129.943 65.5368 130.232 64.5221C130.535 63.4574 130.833 62.5843 131.055 61.9679C133.081 61.3898 135.11 60.8176 137.142 60.2484Z" fill="#005245"/>
<path d="M93.9014 49.9718C94.5149 50.7682 94.7833 52.0462 97.081 52.6007C97.8921 52.7953 99.5408 53.0903 100.933 52.4148C101.293 52.2408 101.909 51.7453 102.741 50.7395C102.992 50.4387 103.351 50.4413 103.489 50.2879C104.468 50.3941 105.744 50.4446 107.245 51.2734C107.885 51.6273 108.416 52.0108 108.849 52.3765C109.988 60.4551 110.407 66.5959 110.262 69.0469C110.147 70.9817 109.625 72.5774 109.625 72.5804C109.218 73.828 108.699 74.7718 108.354 75.3352C108.448 77.9661 108.725 82.2281 109.625 86.8499C110.374 90.7019 111.218 93.0497 112.167 95.0435C112.368 95.4623 112.542 95.8045 112.663 96.0316C108.077 96.1643 104.378 96.3649 101.856 96.5271C96.4999 96.8663 92.7039 97.2527 87.3742 96.3855C86.572 96.2557 85.9113 96.126 85.4659 96.0316C86.3065 93.4125 87.1058 90.5367 87.796 87.4132C88.6632 83.4993 89.2177 79.8449 89.5628 76.5356C88.8283 75.4207 87.8757 73.7306 87.2327 71.5215C86.572 69.2622 86.5808 67.5191 86.5956 64.0328C86.6251 57.8035 87.6191 54.1639 87.8668 53.2967C88.1264 52.3853 88.383 51.6332 88.5747 51.1082C90.3178 50.6186 92.1612 50.4614 93.9014 49.9718Z" fill="#005245"/>
<path d="M184.9 63.3277C186.171 62.5373 186.431 62.378 188.283 61.3811C188.882 61.0596 190.28 60.2485 190.958 59.8591C191.386 60.2573 192.035 60.8207 192.884 61.4017C194.38 62.4222 195.427 63.136 196.904 63.3277C199.314 63.6404 201.252 62.3544 201.859 61.9503C202.877 61.2749 203.549 60.5051 203.951 59.9683C205.083 60.862 206.092 61.5285 206.868 62.0063C208.976 63.2982 209.97 63.543 210.776 64.7051C211.374 65.5634 211.495 66.3863 211.658 67.569C212.265 72.0375 212.572 74.2702 212.593 74.8926C212.775 79.8536 212.575 80.3226 212.649 86.2893C212.649 86.2893 212.681 89.05 212.262 94.713C212.177 95.8692 211.991 98.0046 210.554 99.7242C210.144 100.214 209.395 101.084 208.298 101.102C208.207 101.102 207.198 101.102 206.646 100.385C206.528 100.234 206.198 99.7448 206.537 97.7421C206.655 97.0343 206.873 96.0403 207.307 94.8782C200.809 94.8221 194.312 94.7691 187.817 94.713C187.832 95.6067 187.914 96.3234 187.982 96.8042C188.18 98.1993 188.448 98.8069 188.312 99.8864C188.227 100.571 188.159 101.119 187.761 101.373C186.991 101.865 185.449 100.957 184.567 99.9955C183.688 99.0369 183.363 97.9191 183.08 95.9754C182.635 92.9227 182.691 90.6162 182.694 88.5988C182.7 85.2039 182.546 84.2689 182.529 82.3223C182.478 75.9072 183.98 67.7814 184.9 63.3277Z" fill="#005245"/>
<path d="M163.176 56.7149C163.654 57.1602 163.65 57.2944 164.354 57.9481C166.02 59.0866 167.188 59.8829 168.837 60.0983C171.527 60.4492 173.689 59.0129 174.364 58.5616C175.5 57.8095 176.249 56.9482 176.697 56.3495C177.96 57.3464 179.087 58.0897 179.954 58.6235C182.307 60.0658 183.413 60.3401 184.316 61.6349C184.983 62.5935 185.118 63.5108 185.298 64.8292C185.977 69.8138 186.316 72.3061 186.342 72.9992C186.546 78.5354 186.325 79.0574 186.404 85.7144C186.404 85.7144 186.443 88.7966 185.974 95.1144C185.879 96.4062 185.673 98.7864 184.068 100.704C183.611 101.249 182.776 102.223 181.549 102.24C181.449 102.243 180.322 102.24 179.706 101.441C179.576 101.273 179.207 100.727 179.582 98.4915C179.715 97.704 179.96 96.595 180.443 95.2972C173.193 95.2353 165.947 95.1733 158.697 95.1144C158.715 96.1113 158.806 96.9106 158.88 97.4474C159.101 99.0018 159.399 99.6831 159.248 100.886C159.154 101.65 159.077 102.261 158.635 102.544C157.777 103.093 156.057 102.081 155.072 101.007C154.093 99.9397 153.73 98.6921 153.414 96.5242C152.916 93.1205 152.981 90.5456 152.984 88.2922C152.99 83.9919 152.768 84.6378 152.801 81.2902C152.86 75.0078 153.668 69.9672 154.293 66.1624C154.706 63.6435 154.742 61.4167 155.441 60.0983C155.733 59.5467 157.532 58.5999 158.591 57.9923C159.788 57.311 161.912 57.189 163.176 56.7149Z" fill="#FFCD05"/>
<path d="M162.938 41.5548C163.039 42.6579 163.171 43.5604 163.275 44.1798C163.142 44.1238 162.378 43.8141 161.862 44.1798C161.375 44.5249 161.416 45.2446 161.458 45.9967C161.502 46.7753 161.564 47.9079 162.466 48.6217C163 49.0435 163.599 49.1379 163.947 49.1615C164.006 49.5183 164.118 50.0139 164.351 50.5742C164.445 50.8014 164.891 51.8307 166.035 52.9309C166.988 53.8452 167.988 54.8067 169.468 54.8834C170.53 54.9395 171.327 54.5118 171.893 54.2109C173.674 53.2583 174.429 51.6685 174.654 51.1818C174.981 50.4651 175.126 49.8162 175.193 49.365C175.485 49.4417 176.04 49.539 176.606 49.2971C177.644 48.8577 177.892 47.6336 178.019 47.0083C178.131 46.4597 178.376 45.2593 177.751 44.8552C177.308 44.5691 176.665 44.8346 176.47 44.9231C176.689 44.1827 177.022 42.6815 176.606 40.8823C176.473 40.3101 176.161 39.0271 175.193 37.921C173.152 35.5909 169.799 35.8564 169.336 35.9006C168.932 36.0806 168.528 36.2605 168.123 36.4404C167.876 36.2693 167.448 36.0304 166.911 36.0363C166.546 36.0422 166.112 36.1602 165.159 36.9801C163.897 38.0655 163.077 38.7705 162.87 39.9414C162.82 40.2334 162.859 40.6758 162.938 41.5548Z" fill="#FBD4C5"/>
<path d="M191.71 48.2295C191.793 49.1497 191.905 49.9048 191.991 50.421C191.878 50.3738 191.244 50.1142 190.811 50.421C190.404 50.7071 190.439 51.3087 190.474 51.937C190.51 52.5888 190.563 53.5327 191.318 54.1285C191.763 54.4794 192.262 54.5591 192.554 54.5768C192.604 54.8747 192.695 55.2876 192.89 55.7566C192.97 55.9453 193.338 56.8066 194.294 57.7209C195.087 58.4848 195.925 59.2871 197.158 59.349C198.043 59.3933 198.709 59.0393 199.178 58.7886C200.665 57.9952 201.296 56.6679 201.482 56.2609C201.756 55.6622 201.874 55.1224 201.93 54.7449C202.175 54.8098 202.638 54.8894 203.11 54.6888C203.974 54.3202 204.184 53.3026 204.29 52.7805C204.384 52.3234 204.588 51.3205 204.066 50.9843C203.697 50.7454 203.16 50.9666 202.998 51.0403C203.181 50.4239 203.458 49.1704 203.11 47.6721C202.998 47.1942 202.738 46.1236 201.93 45.2004C200.228 43.2567 197.429 43.4779 197.043 43.5162C196.707 43.6667 196.37 43.8171 196.031 43.9646C195.825 43.82 195.468 43.6224 195.02 43.6283C194.716 43.6313 194.353 43.7315 193.56 44.4158C192.507 45.3213 191.822 45.9112 191.651 46.8875C191.61 47.1264 191.642 47.498 191.71 48.2295Z" fill="#6D4638"/>
<path d="M178.14 27.607C178.034 27.5627 177.423 27.315 177.01 27.607C176.621 27.8813 176.653 28.4564 176.689 29.0581C176.724 29.6804 176.774 30.5859 177.497 31.1552C177.921 31.4914 178.399 31.5681 178.679 31.5858C178.727 31.8689 178.815 32.2671 179.001 32.7154C179.078 32.8954 179.432 33.7212 180.346 34.5972C181.107 35.3287 181.906 36.0955 183.089 36.1575C183.935 36.2017 184.572 35.8596 185.024 35.6207C186.448 34.8597 187.05 33.5885 187.23 33.1992C187.492 32.627 187.605 32.1079 187.661 31.748C187.894 31.81 188.339 31.8866 188.79 31.6949C189.619 31.3439 189.817 30.3677 189.92 29.8663C190.008 29.4268 190.206 28.4682 189.705 28.1438C189.351 27.9137 188.837 28.1261 188.684 28.1969C188.858 27.607 188.784 27.427 188.451 25.9936C188.345 25.5364 186.755 23.87 185.979 22.9851C184.351 21.124 183.369 21.8319 183 21.8673C182.679 22.0118 182.354 22.1534 182.033 22.2979C181.835 22.1593 181.493 21.9705 181.066 21.9764C180.774 21.9794 180.756 23.0412 179.995 23.696C178.986 24.5631 178.331 25.1265 178.166 26.0614" fill="#FBD4C5"/>
<path d="M126.486 26.2442C126.565 27.1261 126.671 27.8487 126.754 28.3412C126.648 28.297 126.037 28.0492 125.624 28.3412C125.235 28.6155 125.268 29.1907 125.303 29.7924C125.338 30.4147 125.388 31.3202 126.111 31.8894C126.536 32.2257 127.014 32.3024 127.294 32.3201C127.341 32.6032 127.429 33.0014 127.615 33.4497C127.692 33.6296 128.046 34.4555 128.96 35.3315C129.721 36.0629 130.521 36.8298 131.703 36.8917C132.55 36.936 133.187 36.5938 133.638 36.3549C135.063 35.594 135.664 34.3228 135.844 33.9334C136.107 33.3612 136.219 32.8421 136.275 32.4823C136.508 32.5442 136.953 32.6209 137.405 32.4292C138.233 32.0782 138.431 31.1019 138.534 30.6005C138.623 30.1611 138.82 29.2025 138.319 28.878C137.965 28.648 137.452 28.8603 137.298 28.9311C137.472 28.3412 137.738 27.1408 137.405 25.7044C137.298 25.2472 137.048 24.2238 136.275 23.3389C134.647 21.4778 131.966 21.6902 131.597 21.7256C131.276 21.8701 130.951 22.0117 130.63 22.1562C130.432 22.0176 130.09 21.8288 129.662 21.8347C129.37 21.8377 129.025 21.932 128.264 22.5868C127.255 23.454 126.601 24.0173 126.436 24.9523C126.388 25.1883 126.421 25.5422 126.486 26.2442Z" fill="#FDE3DC"/>
<path d="M235.15 37.821C235.23 38.7029 235.336 39.4255 235.418 39.9181C235.312 39.8738 234.702 39.6261 234.289 39.9181C233.899 40.1924 233.932 40.7675 233.967 41.3692C234.003 41.9916 234.053 42.897 234.775 43.4663C235.2 43.8025 235.678 43.8792 235.958 43.8969C236.005 44.1801 236.094 44.5782 236.28 45.0266C236.356 45.2065 236.71 46.0323 237.625 46.9083C238.386 47.6398 239.185 48.4067 240.368 48.4686C241.214 48.5128 241.851 48.1707 242.302 47.9318C243.727 47.1708 244.329 45.8996 244.509 45.5103C244.771 44.9381 244.883 44.419 244.939 44.0591C245.172 44.1211 245.618 44.1978 246.069 44.006C246.898 43.6551 247.095 42.6788 247.199 42.1774C247.287 41.7379 247.485 40.7793 246.983 40.4549C246.629 40.2248 246.116 40.4372 245.963 40.508C246.137 39.9181 246.402 38.7176 246.069 37.2813C245.963 36.8241 245.712 35.8006 244.939 34.9158C243.311 33.0547 240.63 33.267 240.261 33.3024C239.94 33.4469 239.615 33.5885 239.294 33.733C239.096 33.5944 238.754 33.4056 238.327 33.4115C238.035 33.4145 237.689 33.5089 236.929 34.1637C235.92 35.0308 235.265 35.5942 235.1 36.5291C235.056 36.7651 235.088 37.122 235.15 37.821Z" fill="#F7E1C6"/>
<path d="M143.773 58.3551C144.43 58.4495 146.067 59.2694 146.377 59.0511C147.005 58.6058 147.651 58.3344 148.274 58.9568C149.356 60.0392 149.86 59.5467 150.825 58.5792C151.158 58.2459 151.595 58.4495 151.839 57.4938C151.108 56.0928 151.839 56.1518 151.536 55.4557C151.143 54.5532 150.421 54.9632 150.521 54.3173C150.854 52.1494 151.078 50.7012 151.028 49.4477C150.999 48.7162 150.831 46.8964 149.66 45.0854C149.253 44.4542 148.383 43.1476 146.716 42.3454C145.144 41.5903 143.725 41.7024 141.997 41.8381C140.602 41.9472 139.578 42.0298 138.446 42.6993C137.166 43.4573 136.511 44.5132 136.063 45.2358C135.88 45.5337 135.11 46.8109 134.794 48.6867C134.641 49.604 134.458 50.6894 134.794 51.9842C135.001 52.7806 135.278 53.1729 135.455 54.3173C135.597 55.2493 134.617 55.1932 134.497 55.5649C134.293 56.1843 134.839 57.1281 134.697 57.2844C134.367 57.6531 133.886 57.2136 133.78 58.0188C133.582 59.5437 135.405 57.5882 135.706 58.7473C136.201 60.6645 137.714 58.9332 138.304 59.3048C139.192 59.8711 141.413 58.942 143.773 58.3551Z" fill="#372813"/>
<path d="M137.39 49.0081C137.47 49.8812 137.576 50.5949 137.655 51.0846C137.549 51.0403 136.948 50.7955 136.538 51.0846C136.154 51.3559 136.184 51.9252 136.219 52.5209C136.254 53.1374 136.305 54.0311 137.018 54.5974C137.44 54.9307 137.912 55.0044 138.189 55.0221C138.236 55.3023 138.325 55.6975 138.508 56.1399C138.582 56.3199 138.933 57.1339 139.838 58.0011C140.59 58.7237 141.384 59.4846 142.552 59.5436C143.389 59.5879 144.02 59.2487 144.466 59.0127C145.873 58.2606 146.471 57.0041 146.648 56.6178C146.908 56.0515 147.02 55.5382 147.073 55.1814C147.303 55.2433 147.743 55.317 148.191 55.1283C149.011 54.7802 149.208 53.8128 149.309 53.3202C149.397 52.8867 149.592 51.9369 149.096 51.6184C148.745 51.3913 148.238 51.6007 148.085 51.6715C148.259 51.0875 148.035 51.4267 147.707 50.005C147.601 49.5508 146.527 49.0966 144.761 47.4715C142.959 45.8139 142.811 44.5072 142.445 44.5426C142.127 44.6842 141.808 44.8258 141.487 44.9674C141.292 44.8317 140.953 44.6429 140.528 44.6488C140.239 44.6518 139.897 44.7461 139.145 45.395C138.148 46.2533 137.499 46.8108 137.337 47.7369C137.296 47.964 137.328 48.315 137.39 49.0081Z" fill="#6D4638"/>
<path d="M209.092 33.7536C209.64 33.8332 210.979 34.3818 211.295 34.4172C213.209 34.6325 213.752 34.5499 214.182 34.4172C214.572 34.2963 214.867 34.137 215.032 34.0338C214.728 33.8096 214.309 33.4291 214.056 32.8451C213.725 32.0901 213.846 31.3911 213.929 30.8484C214.209 29.0344 214.395 27.8193 214.353 26.7692C214.33 26.1587 214.188 24.6338 213.206 23.1149C212.864 22.5869 212.135 21.4926 210.743 20.8202C209.428 20.186 208.239 20.2804 206.794 20.3954C205.626 20.4869 204.771 20.5547 203.821 21.1181C202.747 21.7522 202.199 22.637 201.824 23.2417C201.671 23.4894 201.025 24.5601 200.762 26.1292C200.633 26.899 200.482 27.8075 200.762 28.8899C200.936 29.5565 201.169 29.8868 201.314 30.8425C201.432 31.6211 201.373 32.0193 201.273 32.329C201.104 32.8481 200.798 33.1961 200.68 33.3289C200.402 33.6385 200.113 33.8303 199.913 33.9453C200.576 34.1695 201.423 34.3907 202.42 34.4968C203.166 34.5853 208.519 33.7919 209.092 33.7536Z" fill="#5D2324"/>
<path d="M203.154 28.1407C203.066 28.1023 202.561 27.8988 202.219 28.1407C201.898 28.3678 201.924 28.8456 201.951 29.3441C201.98 29.8602 202.022 30.6094 202.62 31.0813C202.974 31.3615 203.37 31.4234 203.6 31.4382C203.638 31.6741 203.712 32.0045 203.868 32.3732C203.93 32.5236 204.225 33.2049 204.983 33.9334C205.614 34.5381 206.275 35.1752 207.254 35.2253C207.956 35.2607 208.484 34.9805 208.859 34.7799C210.038 34.1517 210.537 33.0958 210.684 32.7743C210.903 32.2994 210.997 31.8717 211.041 31.5709C211.233 31.621 211.602 31.6859 211.976 31.5267C212.663 31.2347 212.829 30.4265 212.911 30.0106C212.985 29.6478 213.147 28.8544 212.734 28.586C212.439 28.3973 212.015 28.5713 211.888 28.6303C211.95 27.949 211.97 27.1172 211.879 26.1763C211.784 25.203 211.593 24.3654 211.392 23.6929C211.348 24.4627 211.304 25.2295 211.259 25.9994C208.696 26.0377 206.133 26.0731 203.567 26.1114C203.609 24.7547 203.609 24.0734 203.567 24.0734C203.508 24.0675 203.37 25.4242 203.154 28.1407Z" fill="#DB9682"/>
<path d="M224.644 8.10476C224.662 6.46486 223.936 5.31752 223.615 4.82495C223.29 4.32944 222.641 3.36202 221.403 2.76622C220.22 2.19698 219.155 2.28251 217.854 2.38574C216.804 2.46833 216.038 2.53027 215.185 3.03463C214.224 3.60387 213.731 4.39728 213.392 4.94293C213.253 5.16709 212.675 6.12862 212.439 7.53552C212.324 8.22569 212.186 9.04269 212.439 10.016C212.557 10.4732 212.976 12.293 214.173 12.8298C216.356 13.8061 219.887 9.96883 220.739 10.777C221.119 11.1398 220.665 12.1485 221.314 12.6116C221.591 12.8092 221.907 12.7915 221.978 12.7885C222.706 12.7472 223.193 11.9568 223.591 11.2843C224.051 10.5056 224.626 9.53821 224.644 8.10476Z" fill="#29101F"/>
<path d="M214.392 7.77486C214.451 8.42964 214.53 8.96644 214.592 9.33513C214.513 9.30268 214.061 9.11687 213.752 9.33513C213.463 9.53864 213.486 9.96926 213.513 10.4146C213.539 10.8777 213.578 11.5502 214.111 11.9749C214.427 12.2256 214.784 12.2816 214.99 12.2934C215.026 12.5058 215.091 12.8008 215.229 13.134C215.285 13.2697 215.551 13.8803 216.229 14.535C216.796 15.0777 217.391 15.6499 218.27 15.6942C218.901 15.7266 219.373 15.473 219.71 15.2931C220.768 14.7268 221.217 13.7829 221.349 13.4939C221.544 13.0692 221.63 12.6828 221.668 12.4144C221.842 12.4586 222.172 12.5176 222.509 12.3731C223.125 12.1106 223.273 11.385 223.349 11.0134C223.417 10.686 223.562 9.97516 223.19 9.73331C222.927 9.56224 222.544 9.72151 222.429 9.7746C222.559 9.33513 222.391 9.58878 222.143 8.52108C222.063 8.18189 221.255 7.83975 219.928 6.61572C218.574 5.36809 218.462 4.38887 218.188 4.41247C217.949 4.51865 217.707 4.62483 217.468 4.73101C217.321 4.62778 217.067 4.4862 216.748 4.4921C216.53 4.49505 216.273 4.56584 215.707 5.0525C214.958 5.69843 214.471 6.11726 214.347 6.81333C214.321 6.9903 214.342 7.2528 214.392 7.77486Z" fill="#5B2F22"/>
<path d="M165.419 7.64489C165.484 8.36161 165.569 8.94856 165.637 9.34969C165.552 9.31429 165.056 9.11078 164.72 9.34969C164.404 9.57384 164.431 10.0399 164.457 10.5295C164.487 11.0368 164.528 11.7712 165.112 12.2343C165.457 12.5086 165.846 12.5705 166.074 12.5853C166.112 12.8153 166.186 13.1398 166.336 13.5025C166.398 13.65 166.687 14.3195 167.427 15.0333C168.047 15.6262 168.696 16.2514 169.657 16.3016C170.344 16.337 170.864 16.0597 171.232 15.8651C172.388 15.2486 172.881 14.2134 173.025 13.8978C173.238 13.4317 173.332 13.0129 173.376 12.718C173.565 12.7681 173.928 12.8301 174.294 12.6737C174.966 12.3876 175.128 11.5942 175.211 11.1872C175.285 10.8303 175.444 10.0517 175.037 9.78916C174.748 9.60334 174.332 9.77441 174.205 9.8334C174.347 9.35263 174.164 9.63283 173.893 8.46484C173.807 8.09321 172.925 7.71863 171.471 6.38252C169.99 5.01986 169.87 3.94626 169.569 3.97575C169.306 4.09373 169.044 4.20876 168.781 4.32674C168.619 4.21466 168.342 4.06129 167.994 4.06424C167.755 4.06719 167.475 4.14387 166.858 4.67478C166.038 5.3797 165.507 5.83687 165.372 6.59783C165.342 6.7866 165.366 7.07564 165.419 7.64489Z" fill="#6D4638"/>
<path d="M99.849 48.0024C100.424 48.085 101.825 48.6602 102.155 48.6985C104.161 48.9227 104.727 48.8371 105.179 48.6985C105.586 48.5717 105.892 48.4036 106.069 48.2974C105.751 48.0614 105.314 47.6632 105.046 47.0527C104.701 46.2622 104.825 45.5278 104.913 44.9615C105.205 43.0621 105.403 41.7908 105.359 40.6936C105.332 40.0536 105.185 38.4579 104.158 36.8682C103.801 36.3166 103.037 35.1693 101.58 34.4673C100.203 33.8037 98.9582 33.904 97.4452 34.0219C96.2211 34.1193 95.3274 34.1901 94.3335 34.777C93.2097 35.4406 92.6375 36.3668 92.2423 37.0009C92.0801 37.2605 91.4076 38.3813 91.1303 40.0241C90.9947 40.8293 90.8354 41.7791 91.1303 42.9146C91.3103 43.6107 91.5551 43.9558 91.7084 44.9586C91.8323 45.7756 91.7704 46.1885 91.6642 46.5159C91.4872 47.0586 91.1687 47.4243 91.0448 47.56C90.7558 47.8845 90.452 48.085 90.2426 48.203C90.9386 48.439 91.8235 48.669 92.8646 48.7811C93.6462 48.8696 99.2502 48.0408 99.849 48.0024Z" fill="#CBB07B"/>
<path d="M93.4015 40.3074C93.4723 41.0713 93.5637 41.6966 93.6345 42.1272C93.5431 42.0889 93.0151 41.8736 92.6553 42.1272C92.319 42.3661 92.3456 42.8646 92.3751 43.3866C92.4046 43.9264 92.4488 44.711 93.0741 45.2065C93.4428 45.4985 93.8587 45.5633 94.1005 45.5781C94.1418 45.8259 94.2185 46.168 94.3807 46.5573C94.4456 46.7136 94.7553 47.4274 95.5457 48.1884C96.2064 48.8225 96.8996 49.4891 97.923 49.5422C98.6574 49.5805 99.2119 49.2856 99.6013 49.0762C100.834 48.4184 101.359 47.3153 101.513 46.9761C101.74 46.4806 101.84 46.0323 101.884 45.7167C102.088 45.7698 102.471 45.8376 102.863 45.6695C103.58 45.3657 103.754 44.5163 103.843 44.0827C103.919 43.7022 104.09 42.8705 103.657 42.5903C103.35 42.3927 102.905 42.5755 102.772 42.6375C102.922 42.1243 102.728 42.4222 102.439 41.1775C102.347 40.7793 101.406 40.3811 99.8549 38.9565C98.277 37.5025 98.1472 36.3581 97.8257 36.3905C97.5455 36.5144 97.2653 36.6383 96.9851 36.7621C96.814 36.6442 96.5161 36.479 96.1445 36.4819C95.8908 36.4849 95.59 36.5675 94.9323 37.1338C94.0563 37.8859 93.49 38.3755 93.3454 39.1866C93.3189 39.3931 93.3454 39.6998 93.4015 40.3074Z" fill="#FBD4C5"/>
<path d="M106.766 24.4246C106.828 25.1059 106.91 25.6633 106.972 26.0438C106.89 26.0084 106.421 25.8167 106.099 26.0438C105.798 26.2562 105.825 26.7015 105.848 27.1646C105.875 27.6454 105.913 28.3444 106.471 28.7839C106.801 29.0434 107.17 29.1024 107.385 29.1172C107.421 29.3354 107.491 29.6451 107.636 29.9902C107.695 30.1288 107.969 30.7659 108.674 31.4443C109.261 32.0076 109.88 32.6005 110.792 32.6477C111.447 32.6801 111.939 32.4176 112.287 32.2318C113.387 31.6449 113.853 30.6627 113.989 30.3618C114.193 29.9194 114.278 29.5212 114.322 29.241C114.502 29.2882 114.844 29.3472 115.195 29.1997C115.835 28.9284 115.989 28.1733 116.068 27.7869C116.136 27.4478 116.29 26.7074 115.903 26.4567C115.629 26.2798 115.234 26.4449 115.113 26.498C115.248 26.0409 115.074 26.3063 114.818 25.1973C114.735 24.8434 113.898 24.4894 112.517 23.2182C111.11 21.9234 110.995 20.9029 110.709 20.9324C110.458 21.0445 110.211 21.1536 109.96 21.2657C109.807 21.1595 109.544 21.012 109.211 21.015C108.984 21.0179 108.718 21.0917 108.131 21.596C107.353 22.2655 106.845 22.7021 106.719 23.4247C106.692 23.6076 106.716 23.8819 106.766 24.4246Z" fill="#FBD4C5"/>
<path d="M116.381 7.19063C116.44 7.85131 116.522 8.39401 116.581 8.76565C116.502 8.7332 116.045 8.54739 115.732 8.76565C115.44 8.97211 115.464 9.40568 115.49 9.85695C115.517 10.3259 115.555 11.0043 116.095 11.432C116.413 11.6856 116.773 11.7417 116.983 11.7564C117.018 11.9688 117.086 12.2696 117.224 12.6059C117.28 12.7415 117.549 13.3609 118.233 14.0187C118.805 14.5673 119.404 15.1454 120.292 15.1896C120.929 15.222 121.407 14.9654 121.746 14.7855C122.814 14.2163 123.268 13.2606 123.401 12.9686C123.598 12.538 123.684 12.1516 123.725 11.8773C123.899 11.9245 124.232 11.9806 124.574 11.836C125.197 11.5706 125.347 10.8391 125.424 10.4616C125.492 10.1313 125.639 9.41158 125.262 9.16973C124.996 8.99866 124.61 9.15793 124.495 9.21102C124.628 8.76565 124.456 9.0252 124.206 7.94569C124.126 7.60061 123.312 7.25847 121.97 6.02264C120.604 4.76322 120.489 3.77219 120.212 3.79874C119.97 3.90787 119.728 4.01405 119.487 4.12318C119.339 4.01995 119.083 3.87542 118.761 3.88132C118.543 3.88427 118.283 3.95506 117.711 4.44762C116.953 5.09946 116.463 5.52123 116.337 6.2232C116.31 6.39722 116.334 6.66562 116.381 7.19063Z" fill="#BF705E"/>
<path d="M161.166 22.5633C160.844 22.0531 160.071 20.8703 158.588 20.1624C157.199 19.5018 155.913 19.602 154.453 19.7171C153.229 19.8144 152.335 19.8852 151.341 20.4721C150.217 21.1358 149.645 22.0619 149.25 22.696C149.088 22.9556 148.415 24.0764 148.138 25.7192C148.002 26.5245 147.843 27.4742 148.138 28.6097C148.318 29.3058 148.563 29.6509 148.716 30.6537C148.84 31.4707 148.778 29.1141 148.672 29.4415C148.495 29.9842 148.462 30.3499 148.338 30.4856C148.049 30.81 147.746 31.0106 147.536 31.1286C148.309 31.3616 149.188 31.571 150.158 31.7067C152.751 32.0695 154.975 31.7775 156.562 31.4147C156.753 31.4353 160.063 31.7214 161.735 29.409C163.693 26.7044 161.49 23.0765 161.166 22.5633Z" fill="#49443B"/>
<path d="M157.146 30.9279C157.721 31.0105 159.122 31.5856 159.452 31.6239C161.458 31.8481 162.024 31.7626 162.475 31.6239C162.882 31.4971 163.189 31.329 163.366 31.2228C163.048 30.9869 162.611 30.5887 162.343 29.9781C161.998 29.1877 162.121 28.4533 162.21 27.887" fill="#49443B"/>
<path d="M150.412 26.0026C150.483 26.7665 150.574 27.3918 150.645 27.8224C150.553 27.7841 150.025 27.5688 149.666 27.8224C149.329 28.0613 149.356 28.5598 149.385 29.0818C149.415 29.6216 149.459 30.4061 150.084 30.9017C150.453 31.1937 150.869 31.2585 151.111 31.2733C151.152 31.521 151.229 31.8632 151.391 32.2525C151.456 32.4088 151.766 33.1226 152.556 33.8836C153.217 34.5177 153.91 35.1843 154.933 35.2374C155.668 35.2757 156.222 34.9808 156.612 34.7714C157.845 34.1136 158.37 33.0105 158.523 32.6713C158.75 32.1758 158.85 31.7275 158.895 31.4119C159.098 31.465 159.481 31.5328 159.874 31.3647C160.59 31.0609 160.764 30.2115 160.853 29.7779C160.93 29.3974 161.101 28.5657 160.667 28.2855C160.36 28.0879 159.915 28.2707 159.782 28.3327C159.933 27.8195 159.738 28.1174 159.449 26.8727C159.358 26.4745 158.417 26.0763 156.865 24.6517C155.287 23.1976 155.158 22.0533 154.836 22.0857C154.556 22.2096 154.276 22.3335 153.995 22.4573C153.824 22.3394 153.526 22.1742 153.155 22.1771C152.901 22.1801 152.6 22.2627 151.943 22.829C151.067 23.5811 150.5 24.0707 150.356 24.8818C150.329 25.0853 150.356 25.395 150.412 26.0026Z" fill="#DB9682"/>
<path d="M113.706 44.177C113.785 45.05 113.892 45.7638 113.971 46.2534C113.865 46.2092 113.263 45.9644 112.853 46.2534C112.47 46.5248 112.5 47.094 112.535 47.6898C112.57 48.3063 112.62 49.1999 113.334 49.7662C113.756 50.0995 114.228 50.1733 114.505 50.191C114.552 50.4712 114.641 50.8664 114.824 51.3088C114.897 51.4887 115.248 52.3028 116.154 53.1699C116.906 53.8925 117.699 54.6535 118.867 54.7125C119.705 54.7567 120.336 54.4176 120.782 54.1816C122.189 53.4295 122.787 52.173 122.964 51.7866C123.224 51.2203 123.336 50.7071 123.389 50.3502C123.619 50.4122 124.058 50.4859 124.507 50.2971C125.327 49.9491 125.524 48.9817 125.625 48.4891C125.713 48.0555 125.908 47.1058 125.412 46.7873C125.061 46.5602 124.554 46.7696 124.401 46.8404C124.575 46.2564 124.837 45.0677 124.507 43.649C124.401 43.1948 124.156 42.1832 123.389 41.3072C121.776 39.4637 119.124 39.6761 118.761 39.7115C118.443 39.8531 118.124 39.9947 117.803 40.1362C117.608 40.0006 117.269 39.8118 116.844 39.8177C116.555 39.8206 116.213 39.915 115.461 40.5639C114.464 41.4222 113.815 41.9796 113.653 42.9058C113.611 43.1329 113.641 43.4839 113.706 44.177Z" fill="#FBD4C5"/>
<path d="M224.087 25.7783C223.981 25.734 223.379 25.4892 222.969 25.7783C222.585 26.0496 222.615 26.6189 222.65 27.2147C222.686 27.8311 222.736 28.7248 223.45 29.2911C223.871 29.6244 224.343 29.6981 224.621 29.7158C224.668 29.996 224.756 30.3912 224.939 30.8337C225.013 31.0136 225.364 31.8276 226.269 32.6948C227.021 33.4174 227.815 34.1784 228.983 34.2374C229.821 34.2816 230.452 33.9424 230.897 33.7064C232.304 32.9543 232.903 31.6979 233.08 31.3115C233.339 30.7452 233.451 30.232 233.504 29.8751C233.734 29.937 234.174 30.0108 234.622 29.822C235.442 29.474 235.64 28.5065 235.74 28.014C235.829 27.5804 236.023 26.6307 235.528 26.3121C235.177 26.085 234.669 26.2944 234.516 26.3652C234.513 25.796 234.466 25.1146 234.316 24.3566C234.1 23.2742 233.746 22.3952 233.428 21.7463C233.012 22.5338 232.596 23.3184 232.177 24.1059C230.466 24.3242 228.709 24.51 226.901 24.6604C226.417 24.7017 225.936 24.7371 225.455 24.7725C225.559 24.0705 225.659 23.3656 225.762 22.6636C225.205 23.7018 224.647 24.7401 224.087 25.7783Z" fill="#FBD4C5"/>
<path d="M190.926 8.58874C191.005 9.46178 191.112 10.1756 191.191 10.6652C191.085 10.6209 190.483 10.3761 190.073 10.6652C189.69 10.9365 189.719 11.5058 189.755 12.1016C189.79 12.718 189.84 13.6117 190.554 14.178C190.976 14.5113 191.448 14.585 191.725 14.6027C191.772 14.8829 191.861 15.2781 192.044 15.7206C192.117 15.9005 192.468 16.7145 193.374 17.5817C194.126 18.3043 194.919 19.0653 196.087 19.1242C196.925 19.1685 197.556 18.8293 198.001 18.5933C199.408 17.8412 200.007 16.5848 200.184 16.1984C200.444 15.6321 200.556 15.1189 200.609 14.762C200.839 14.8239 201.278 14.8977 201.727 14.7089C202.547 14.3609 202.744 13.3934 202.845 12.9009C202.933 12.4673 203.128 11.5176 202.632 11.199C202.281 10.9719 201.774 11.1813 201.62 11.2521C201.795 10.6681 202.057 9.47948 201.727 8.06079C201.62 7.60657 201.376 6.5949 200.609 5.71891C198.995 3.87549 196.344 4.08785 195.981 4.12324C195.663 4.26482 195.344 4.40639 195.023 4.54797C194.828 4.41229 194.489 4.22353 194.064 4.22943C193.775 4.23238 193.433 4.32676 192.681 4.97564C191.684 5.83394 191.035 6.39139 190.873 7.31752C190.831 7.54168 190.861 7.89267 190.926 8.58874Z" fill="#FBD4C5"/>
<path d="M137.865 8.58874C137.944 9.46178 138.051 10.1756 138.13 10.6652C138.024 10.6209 137.422 10.3761 137.012 10.6652C136.629 10.9365 136.658 11.5058 136.694 12.1016C136.729 12.718 136.779 13.6117 137.493 14.178C137.915 14.5113 138.387 14.585 138.664 14.6027C138.711 14.8829 138.8 15.2781 138.983 15.7206C139.056 15.9005 139.407 16.7145 140.313 17.5817C141.065 18.3043 141.858 19.0653 143.026 19.1242C143.864 19.1685 144.495 18.8293 144.941 18.5933C146.347 17.8412 146.946 16.5848 147.123 16.1984C147.383 15.6321 147.495 15.1189 147.548 14.762C147.778 14.8239 148.217 14.8977 148.666 14.7089C149.486 14.3609 149.683 13.3934 149.784 12.9009C149.872 12.4673 150.067 11.5176 149.571 11.199C149.22 10.9719 148.713 11.1813 148.56 11.2521C148.734 10.6681 148.996 9.47948 148.666 8.06079C148.56 7.60657 148.315 6.5949 147.548 5.71891C145.935 3.87549 143.283 4.08785 142.92 4.12324C142.602 4.26482 142.283 4.40639 141.962 4.54797C141.767 4.41229 141.428 4.22353 141.003 4.22943C140.714 4.23238 140.372 4.32676 139.62 4.97564C138.623 5.83394 137.974 6.39139 137.812 7.31752C137.77 7.54168 137.803 7.89267 137.865 8.58874Z" fill="#FBD4C5"/>
<path d="M218.205 3.73403C219.237 3.73403 220.072 2.89814 220.072 1.86701C220.072 0.835891 219.237 0 218.205 0C217.174 0 216.338 0.835891 216.338 1.86701C216.338 2.89814 217.174 3.73403 218.205 3.73403Z" fill="#29101F"/>
<path d="M218.471 9.07038C218.602 9.07038 218.708 8.96453 218.708 8.83396C218.708 8.70338 218.602 8.59753 218.471 8.59753C218.341 8.59753 218.235 8.70338 218.235 8.83396C218.235 8.96453 218.341 9.07038 218.471 9.07038Z" fill="#AC2729"/>
<path d="M167.776 68.1798C168.145 68.1798 168.44 67.879 168.44 67.5103C168.44 67.1416 168.142 66.8467 167.776 66.8467C167.408 66.8467 167.113 67.1446 167.113 67.5103C167.113 67.876 167.411 68.1798 167.776 68.1798Z" fill="#015345"/>
<path d="M178.477 70.5601C178.477 70.5483 178.471 70.4893 178.468 70.4569C178.454 70.2799 178.4 69.811 178.4 69.7726C178.392 69.6458 178.3 69.7136 178.285 69.7195C178.218 69.7667 178.15 69.8051 178.041 69.8788C178.026 69.8876 177.967 69.9231 177.955 69.926C177.855 69.9525 177.784 69.8758 177.814 69.7815C177.816 69.7697 177.843 69.693 177.864 69.6133C177.946 69.3302 178.15 68.6784 178.173 68.5958C178.206 68.4808 178.141 68.4808 178.088 68.4808C178.088 68.4808 177.38 68.4808 177.294 68.4808C177.256 68.4808 177.247 68.5044 177.238 68.5221C177.235 68.528 177.212 68.5692 177.203 68.5928C177.191 68.6223 177.171 68.6607 177.153 68.6872C177.126 68.7256 177.106 68.7108 177.091 68.6872C177.032 68.6105 176.705 68.3687 176.306 68.3687C175.504 68.3687 175.118 69.0382 175.047 69.516C175.044 69.5278 175.038 69.5691 175.035 69.5721C175.029 69.5986 175.026 69.6016 175.012 69.6075C175.006 69.6104 174.985 69.6222 174.964 69.6369C174.87 69.6871 174.619 69.8287 174.507 69.8935C174.389 69.9525 174.321 69.8582 174.363 69.7343C174.363 69.7254 175.127 67.2833 175.168 67.1653C175.194 67.0827 175.159 67.0709 175.13 67.0739C175.121 67.0739 174.301 67.0768 174.248 67.0768C174.168 67.0768 174.156 67.0916 174.141 67.1152C174.138 67.1181 174.133 67.1328 174.13 67.1446C174.088 67.2892 173.761 68.3834 173.667 68.6518C173.649 68.7079 173.628 68.7492 173.549 68.7904C173.416 68.8612 173.159 68.8465 173.038 68.8435C172.979 68.8435 172.891 68.8376 172.826 68.8258C172.732 68.8081 172.658 68.7669 172.584 68.7226C172.292 68.5427 172.062 68.3687 171.649 68.3746C170.98 68.3746 170.505 68.8229 170.402 69.4423C170.399 69.46 170.39 69.519 170.384 69.5691C170.375 69.6193 170.372 69.6281 170.337 69.6517C170.307 69.6664 170.204 69.7284 170.033 69.8257C169.986 69.8523 169.844 69.9289 169.694 69.982C169.658 69.9938 169.57 70.0204 169.531 70.0204C169.29 70.0204 169.198 69.8198 169.198 69.6753C169.198 69.4128 169.431 69.342 169.526 69.342C169.573 69.342 169.632 69.3538 169.685 69.3921C169.691 69.3951 169.717 69.4098 169.726 69.4157C169.759 69.4275 169.776 69.4187 169.788 69.4069C169.794 69.401 169.806 69.3803 169.818 69.3685C169.903 69.2653 170.298 68.8111 170.337 68.7668C170.378 68.6902 170.337 68.6607 170.319 68.64C170.192 68.5132 169.924 68.3687 169.579 68.3687C168.614 68.3923 168.316 69.1326 168.275 69.4659C168.272 69.4777 168.269 69.5131 168.269 69.516C168.263 69.5485 168.245 69.5603 168.234 69.5691C168.225 69.575 168.186 69.5957 168.163 69.6075C168.116 69.637 167.85 69.7962 167.815 69.8198C167.803 69.8257 167.768 69.8493 167.765 69.8493C167.623 69.9054 167.588 69.7903 167.6 69.7372C167.6 69.7343 167.912 68.7226 167.912 68.7226C167.912 68.7226 167.965 68.5574 167.971 68.5397C167.986 68.4808 167.971 68.4808 167.921 68.4808H167.732C167.535 68.4808 167.163 68.4808 167.083 68.4808C166.962 68.4808 166.971 68.4719 166.948 68.5309C166.936 68.5633 166.771 69.0972 166.726 69.2181C166.718 69.2447 166.697 69.3037 166.691 69.3155C166.667 69.3862 166.647 69.3921 166.576 69.4364L166.367 69.5721C165.744 69.985 165.691 69.9289 165.455 69.457C165.446 69.4423 165.42 69.3951 165.417 69.3862C165.393 69.3509 165.393 69.3273 165.452 69.2978C165.617 69.1945 166.266 68.8494 166.266 67.9322C166.266 67.0355 165.494 66.4722 164.293 66.4722C162.571 66.4722 161.181 68.059 161.258 69.5898C161.358 71.3978 162.739 71.3152 163.532 70.2976C163.627 70.1826 163.818 69.8287 163.818 69.8287C163.868 69.7225 163.892 69.6841 163.933 69.5839C163.933 69.5839 164.016 69.3774 164.025 69.342C164.075 69.1857 164.119 69.1827 164.193 69.3243C164.267 69.4924 164.647 70.2681 164.833 70.5365C164.998 70.7902 165.343 70.9701 165.606 70.9701C165.942 70.9701 166.201 70.7902 166.346 70.684C166.346 70.684 166.555 70.5483 166.576 70.5483C166.585 70.5306 166.662 70.5159 166.691 70.566C166.732 70.5985 166.942 70.9701 167.47 70.9701C167.659 70.9701 167.818 70.9082 167.924 70.8551C167.977 70.8256 168.089 70.7636 168.139 70.7342C168.24 70.6811 168.393 70.6014 168.455 70.5631C168.526 70.5218 168.529 70.5218 168.588 70.5749C168.614 70.5985 168.995 70.9642 169.505 70.9642C169.936 70.9642 170.59 70.5719 170.637 70.5454C170.679 70.5218 170.694 70.5129 170.729 70.5395C170.735 70.5424 170.77 70.5837 170.776 70.5926C170.832 70.6693 171.16 70.9672 171.652 70.9672C171.974 70.9672 172.271 70.861 172.504 70.6781C172.746 70.4805 172.92 70.2209 172.976 69.9024C172.982 69.8641 172.994 69.7815 172.994 69.7372C172.991 69.6959 172.988 69.6782 173.074 69.6753H173.26C173.292 69.6753 173.345 69.6753 173.333 69.7372C173.324 69.7874 173.289 69.864 173.274 69.9643C173.26 70.0705 173.271 70.1649 173.274 70.1767C173.33 70.4687 173.537 70.8816 174.121 70.9554C174.159 70.9613 174.227 70.9642 174.277 70.9583C174.41 70.9495 174.554 70.9023 174.678 70.8374C174.814 70.7636 175.233 70.5424 175.253 70.5336C175.298 70.507 175.321 70.5041 175.354 70.5336C175.36 70.5395 175.365 70.5454 175.377 70.5572C175.534 70.7046 175.672 70.7961 175.808 70.861C175.941 70.9288 176.121 70.9613 176.309 70.9613C176.728 70.9524 176.94 70.7695 176.979 70.743C177.014 70.7194 177.032 70.7017 177.073 70.743C177.097 70.7666 177.271 70.9613 177.628 70.9613C177.899 70.9613 178.25 70.7371 178.4 70.6516C178.433 70.6368 178.471 70.6132 178.474 70.6103C178.483 70.6132 178.48 70.6014 178.477 70.5601ZM165.128 68.0501C165.11 68.643 164.311 68.9261 164.219 68.9556C164.146 68.9792 164.169 68.9527 164.178 68.9143C164.187 68.873 164.225 68.7315 164.258 68.6046C164.29 68.4808 164.258 68.4808 164.184 68.4808H163.267C163.193 68.4808 163.184 68.4955 163.152 68.5869C163.054 68.876 162.936 69.3332 162.851 69.519C162.789 69.6547 162.759 69.6871 162.715 69.7284C162.506 69.9378 162.317 69.8316 162.317 69.5101C162.317 68.6223 163.146 67.4897 164.334 67.4956C164.889 67.5192 165.154 67.8378 165.128 68.0501ZM171.676 70.0115C171.493 70.0115 171.339 69.8641 171.339 69.6753C171.339 69.4924 171.493 69.339 171.676 69.339C171.862 69.339 172.012 69.4924 172.012 69.6753C172.015 69.8611 171.862 70.0115 171.676 70.0115ZM176.309 70.0174C176.123 70.0174 175.97 69.8641 175.97 69.6782C175.97 69.4924 176.123 69.339 176.309 69.339C176.495 69.339 176.648 69.4924 176.648 69.6782C176.646 69.8641 176.498 70.0174 176.309 70.0174Z" fill="#015345"/>
<path d="M228.004 46.522C228.027 44.5871 227.169 43.2333 226.788 42.6522C226.405 42.0653 225.638 40.9239 224.178 40.2219C222.783 39.5524 221.527 39.6497 219.993 39.7706C218.754 39.8679 217.849 39.9387 216.843 40.5345C215.707 41.207 215.126 42.1449 214.728 42.785C214.566 43.0475 213.882 44.183 213.604 45.8465C213.469 46.6606 213.306 47.6251 213.604 48.7724C213.743 49.3122 214.238 51.4594 215.651 52.0906C218.229 53.2438 222.394 48.7134 223.4 49.669C223.848 50.0967 223.314 51.2883 224.078 51.834C224.405 52.067 224.777 52.0463 224.86 52.0434C225.721 51.9962 226.673 51.3502 227.145 50.5568C227.685 49.6454 227.986 48.212 228.004 46.522Z" fill="#F68A4A"/>
<path d="M216.158 54.444C217.365 54.444 218.344 53.4655 218.344 52.2585C218.344 51.0514 217.365 50.0729 216.158 50.0729C214.951 50.0729 213.973 51.0514 213.973 52.2585C213.973 53.4655 214.951 54.444 216.158 54.444Z" fill="#F68A4A"/>
<path d="M215.604 45.224C215.678 46.0469 215.778 46.7193 215.855 47.1824C215.754 47.1411 215.185 46.9081 214.799 47.1824C214.436 47.439 214.466 47.9758 214.498 48.5392C214.53 49.1202 214.578 49.9667 215.25 50.4976C215.648 50.8132 216.094 50.884 216.356 50.8987C216.4 51.1642 216.483 51.5358 216.657 51.9546C216.728 52.1228 217.058 52.8926 217.913 53.7125C218.624 54.3939 219.371 55.1106 220.474 55.1696C221.264 55.2109 221.86 54.8923 222.282 54.6682C223.612 53.9573 224.175 52.7717 224.34 52.4089C224.585 51.875 224.691 51.3913 224.741 51.0521C224.96 51.1082 225.373 51.1819 225.797 51.002C226.57 50.6746 226.756 49.7602 226.853 49.2942C226.936 48.8843 227.119 47.9906 226.653 47.6868C226.322 47.4715 225.842 47.672 225.7 47.7369C225.862 47.1854 225.653 47.5039 225.343 46.1648C225.243 45.7372 224.231 45.3095 222.562 43.7728C220.863 42.2067 220.721 40.9767 220.376 41.0092C220.075 41.1419 219.775 41.2776 219.474 41.4103C219.288 41.2805 218.969 41.1036 218.571 41.1095C218.297 41.1124 217.975 41.2009 217.265 41.8114C216.324 42.6225 215.71 43.1475 215.557 44.0206C215.516 44.2359 215.545 44.5692 215.604 45.224Z" fill="#FBD4C5"/>
<path d="M177.187 45.4158C177.423 44.6165 177.783 42.9972 177.332 41.0564C177.187 40.4371 176.851 39.0538 175.807 37.8592C173.606 35.3433 169.984 35.6324 169.486 35.6796C169.049 35.8742 168.613 36.066 168.179 36.2606C167.911 36.0748 167.451 35.8182 166.873 35.8241C166.478 35.83 166.012 35.9568 164.985 36.8417C163.622 38.0156 162.738 38.7736 162.516 40.0389C162.46 40.3545 162.502 40.8352 162.59 41.782C162.699 42.9736 162.844 43.9469 162.953 44.6165C162.953 44.7344 162.956 44.8554 162.956 44.9733C162.926 45.0795 162.923 45.168 162.923 45.227C162.923 45.3007 162.929 45.4305 163.003 45.5691C163.003 45.5691 163.056 45.6694 163.148 45.752C163.419 45.9997 163.935 45.9054 163.968 45.8995C163.909 45.1651 163.867 44.3805 163.855 43.5546C163.844 42.7701 163.858 42.0239 163.894 41.3219C164.327 41.1951 164.844 40.9975 165.383 40.6907C166.593 39.9976 167.33 39.0862 167.728 38.4963C168.05 38.3842 168.374 38.2722 168.696 38.1601C169.471 38.9977 170.215 39.4578 170.742 39.7233C172.261 40.4813 173.491 40.3604 174.128 41.3986C174.297 41.6699 174.202 41.664 174.538 42.366C174.99 43.3039 175.261 43.5369 175.506 44.115C175.668 44.5014 175.836 45.0854 175.804 45.9024C175.898 45.9762 176.078 46.0912 176.326 46.1266C176.721 46.1266 176.957 46.0764 177.034 45.9791C177.078 45.7933 177.131 45.6045 177.187 45.4158Z" fill="#372813"/>
<path d="M203.803 49.1735C203.85 47.9937 204.541 47.6604 203.836 46.047C203.225 44.6431 202.031 44.941 201.455 43.6609C200.565 41.6789 199.639 41.9591 197.6 41.8883C196.639 41.44 196.188 42.1272 195.804 42.2983C195.568 42.1331 195.161 41.906 194.648 41.9119C194.3 41.9148 193.751 42.7023 192.979 42.8115C191.404 43.0297 192.197 44.5399 191.191 45.0649C190.849 45.2418 190.784 46.342 190.861 47.1767C190.958 48.2296 191.085 49.0909 191.182 49.6808C191.182 49.787 191.185 49.8902 191.185 49.9964C191.159 50.0878 191.156 50.1674 191.156 50.2205C191.156 50.2854 191.162 50.4004 191.227 50.5243C191.227 50.5243 191.274 50.6128 191.353 50.6865C191.592 50.9048 192.05 50.8222 192.076 50.8193C192.023 50.1704 191.988 49.4773 191.979 48.7487C191.97 48.0556 191.982 47.3979 192.011 46.7756C192.395 46.6635 192.849 46.4895 193.327 46.2152C194.394 45.6046 195.046 44.7965 195.397 44.2744C195.683 44.1771 195.966 44.0768 196.253 43.9795C196.937 44.7198 197.595 45.1268 198.061 45.3598C199.403 46.0293 200.491 45.9232 201.054 46.8404C201.202 47.0823 201.119 47.0735 201.417 47.6958C201.815 48.5246 202.057 48.731 202.272 49.2413C202.417 49.5834 202.564 50.0996 202.535 50.8193C202.617 50.8842 202.777 50.9874 202.995 51.0169C203.343 51.0169 203.535 50.9549 203.62 50.8842C204.284 50.3444 203.756 49.3386 203.803 49.1735Z" fill="#372813"/>
<path d="M137.759 28.9872C137.95 28.3413 138.239 27.0317 137.877 25.4626C137.762 24.9641 137.487 23.8433 136.644 22.8788C134.865 20.8467 131.936 21.0797 131.535 21.118C131.184 21.2743 130.83 21.4307 130.479 21.587C130.264 21.4366 129.889 21.2301 129.423 21.236C129.105 21.2389 128.727 21.3451 127.896 22.0589C126.792 23.0057 126.079 23.6221 125.899 24.6426C125.854 24.8992 125.887 25.2856 125.958 26.0525C126.046 27.014 126.161 27.8015 126.253 28.3413C126.253 28.4386 126.256 28.533 126.256 28.6303C126.232 28.7159 126.229 28.7866 126.229 28.8368C126.229 28.8958 126.235 29.002 126.294 29.114C126.294 29.114 126.338 29.1966 126.412 29.2615C126.63 29.4621 127.049 29.3854 127.073 29.3824C127.025 28.7866 126.993 28.1555 126.981 27.4889C126.972 26.8547 126.984 26.253 127.011 25.6838C127.362 25.5806 127.778 25.4213 128.214 25.1735C129.19 24.6131 129.786 23.8758 130.108 23.398C130.367 23.3065 130.63 23.218 130.889 23.1266C131.515 23.805 132.116 24.1766 132.544 24.389C133.774 25.0025 134.765 24.9022 135.281 25.7428C135.417 25.964 135.34 25.9581 135.611 26.5244C135.974 27.2824 136.195 27.4712 136.393 27.9372C136.526 28.2498 136.661 28.7218 136.635 29.3824C136.711 29.4414 136.856 29.5358 137.057 29.5624C137.375 29.5624 137.567 29.5211 137.629 29.4414C137.673 29.291 137.714 29.1376 137.759 28.9872Z" fill="#F68A4A"/>
<path d="M123.828 46.9023C123.867 46.92 123.914 46.9406 123.967 46.9554C124.008 46.9672 124.044 46.9731 124.076 46.979C124.386 46.979 124.572 46.9406 124.631 46.861C124.672 46.7135 124.716 46.5661 124.757 46.4186C124.943 45.7903 125.226 44.5162 124.872 42.9913C124.76 42.5046 124.495 41.4163 123.672 40.4784C121.941 38.5022 119.094 38.7264 118.702 38.7647C118.36 38.9181 118.018 39.0685 117.673 39.2219C117.463 39.0744 117.101 38.8739 116.643 38.8798C116.334 38.8827 115.965 38.9859 115.16 39.6791C114.089 40.6022 113.393 41.198 113.219 42.192C113.175 42.4398 113.207 42.8173 113.275 43.5635C113.361 44.4985 113.473 45.2653 113.561 45.7903C113.561 45.8847 113.564 45.9791 113.564 46.0705C113.541 46.1531 113.538 46.2239 113.538 46.2711C113.538 46.3272 113.541 46.4304 113.6 46.5395C113.6 46.5395 113.641 46.6191 113.715 46.684C113.927 46.8787 114.334 46.805 114.358 46.802C114.31 46.2239 114.278 45.6075 114.269 44.9586C114.26 44.3422 114.272 43.7552 114.299 43.2037C114.853 42.6256 115.408 42.0475 115.962 41.4723C116.723 42.2716 117.629 43.1181 118.702 43.9499C119.201 44.3363 119.69 44.6843 120.165 44.9999C120.077 44.7374 119.991 44.4749 119.903 44.2124C120.168 44.6253 120.584 45.168 121.215 45.6753C122.227 46.4805 123.25 46.7814 123.828 46.9023Z" fill="#3D7B7F"/>
<path d="M201.048 11.0308C201.087 11.0485 201.134 11.0692 201.187 11.0839C201.228 11.0957 201.264 11.1016 201.296 11.1075C201.606 11.1075 201.792 11.0692 201.851 10.9896C201.892 10.8421 201.936 10.6946 201.977 10.5471C202.163 9.91889 202.446 8.64472 202.092 7.11985C201.98 6.63319 201.715 5.54483 200.892 4.6069C199.161 2.63076 196.314 2.85492 195.922 2.89326C195.58 3.04663 195.238 3.19705 194.893 3.35043C194.683 3.20295 194.321 3.00239 193.863 3.00829C193.554 3.01124 193.185 3.11447 192.38 3.80759C191.309 4.73078 190.613 5.32657 190.439 6.32054C190.395 6.5683 190.427 6.94583 190.495 7.69205C190.581 8.62703 190.693 9.39389 190.781 9.9189C190.781 10.0133 190.784 10.1077 190.784 10.1991C190.761 10.2817 190.758 10.3525 190.758 10.3997C190.758 10.4557 190.761 10.5589 190.82 10.6681C190.82 10.6681 190.861 10.7477 190.935 10.8126C191.147 11.0072 191.554 10.9335 191.578 10.9306C191.53 10.3525 191.498 9.73603 191.489 9.08714C191.48 8.47071 191.492 7.88376 191.519 7.33221C192.073 6.75411 192.628 6.17602 193.182 5.60087C193.943 6.40018 194.849 7.24668 195.922 8.07843C196.421 8.46481 196.91 8.81284 197.385 9.12844C197.297 8.86594 197.211 8.60343 197.123 8.34093C197.388 8.75386 197.804 9.29656 198.435 9.80387C199.447 10.6091 200.47 10.9099 201.048 11.0308Z" fill="#CBB07B"/>
<path d="M245.335 40.3366C245.373 40.3543 245.42 40.375 245.473 40.3897C245.515 40.4015 245.55 40.4074 245.582 40.4133C245.892 40.4133 246.078 40.375 246.137 40.2953C246.178 40.1479 246.222 40.0004 246.264 39.8529C246.449 39.2247 246.733 37.9505 246.379 36.4256C246.267 35.939 246.001 34.8506 245.178 33.9127C243.447 31.9365 240.601 32.1607 240.208 32.199C239.866 32.3524 239.524 32.5028 239.179 32.6562C238.97 32.5087 238.607 32.3082 238.15 32.3141C237.84 32.317 237.471 32.4203 236.666 33.1134C235.595 34.0366 234.899 34.6324 234.725 35.6263C234.681 35.8741 234.714 36.2516 234.781 36.9978C234.867 37.9328 234.979 38.6997 235.067 39.2247C235.067 39.3191 235.07 39.4134 235.07 39.5049C235.047 39.5875 235.044 39.6582 235.044 39.7054C235.044 39.7615 235.047 39.8647 235.106 39.9738C235.106 39.9738 235.147 40.0535 235.221 40.1184C235.433 40.313 235.84 40.2393 235.864 40.2363C235.817 39.6582 235.784 39.0418 235.775 38.3929C235.767 37.7765 235.778 37.1895 235.805 36.638C236.359 36.0599 236.914 35.4818 237.468 34.9067C238.229 35.706 239.135 36.5525 240.208 37.3842C240.707 37.7706 241.196 38.1186 241.671 38.4342C241.583 38.1717 241.497 37.9092 241.409 37.6467C241.674 38.0596 242.09 38.6023 242.721 39.1096C243.733 39.9148 244.756 40.2157 245.335 40.3366Z" fill="#241E10"/>
<path d="M148.695 10.6121C148.875 10.0045 149.146 8.77453 148.804 7.2998C148.695 6.83083 148.439 5.77787 147.645 4.86943C145.973 2.95818 143.221 3.17644 142.843 3.21478C142.513 3.36225 142.18 3.50973 141.849 3.6572C141.646 3.51563 141.295 3.32096 140.856 3.32686C140.555 3.32981 140.201 3.42714 139.419 4.09962C138.384 4.99036 137.711 5.56846 137.543 6.52998C137.502 6.77184 137.531 7.13462 137.599 7.8543C137.682 8.75978 137.791 9.5001 137.877 10.0074C137.877 10.0988 137.879 10.1873 137.879 10.2788C137.856 10.3584 137.853 10.4262 137.856 10.4734C137.856 10.5295 137.859 10.6268 137.918 10.733C137.918 10.733 137.959 10.8097 138.027 10.8716C138.233 11.0574 138.626 10.9896 138.649 10.9837C138.605 10.4262 138.573 9.83044 138.564 9.2022C138.555 8.60641 138.567 8.04011 138.593 7.50626C138.924 7.40893 139.313 7.26145 139.723 7.02549C140.64 6.50049 141.201 5.80736 141.504 5.35609C141.749 5.27056 141.994 5.18503 142.239 5.10244C142.829 5.73953 143.392 6.09051 143.793 6.29108C144.949 6.86917 145.881 6.77479 146.365 7.5623C146.492 7.76876 146.421 7.76286 146.675 8.29672C147.017 9.01049 147.223 9.18451 147.409 9.62693C147.533 9.92187 147.66 10.3643 147.636 10.9837C147.707 11.0397 147.846 11.1282 148.032 11.1548C148.332 11.1548 148.509 11.1164 148.568 11.0427C148.613 10.8981 148.654 10.7566 148.695 10.6121Z" fill="#C4C4C4"/>
<defs>
<radialGradient id="paint0_radial" cx="0" cy="0" r="1" gradientUnits="userSpaceOnUse" gradientTransform="translate(169.697 128.446) rotate(90) scale(78.5497 222.563)">
<stop offset="0.244792" stop-color="#005245"/>
<stop offset="0.729167" stop-color="#127262" stop-opacity="0"/>
</radialGradient>
</defs>
</svg>
