<svg id="Layer_1" data-name="Layer 1" xmlns="http://www.w3.org/2000/svg" viewBox="0 0 210.86 210.86"><defs><style>.cls-1{fill:#fff;}</style></defs><path class="cls-1" d="M1149.48,484.31l-6.83,4.88s2.16-3.28,3.66-5.95c4.37-10.45,8.8-20.87,13.21-31.3a28,28,0,0,0,1.75-5.46c1.41-7-.43-10-7.35-11.55a4.15,4.15,0,0,1-3.39-3.14c-2-6-5.81-8.33-11.86-7-2.71.61-3.92-.18-5-2.61-1.74-4.09-4.56-5.3-8.91-4.23-.89.21-1.75.51-2.62.8-3.17,1-4.31.31-4.08-3,.71-10.21,1.53-20.41,2.3-30.62.42-5.64.91-11.28,1.2-16.93a4.17,4.17,0,0,0-3.79-4.49,4.71,4.71,0,0,0-4.83,3.84c-1.53,8.86-3.36,17.68-4.46,26.59-1.64,13.27-4.87,25.93-11.29,37.77a78.69,78.69,0,0,0-6.55,17.24,28.37,28.37,0,0,0,.45,17.43c2.41,6.65,4.61,13.38,6.87,20.08a14.45,14.45,0,0,1,.82,3.13c.57,5.71.39,8.23,6.09,8.09l-12,.52c1.76.15,1.37-3.89,1.34-5.65a17.12,17.12,0,0,0-.87-5.63c-1.93-5.41-3.53-10.95-5.68-16.28-3.87-9.6-3.13-19,.29-28.51,2.68-7.47,6.13-14.59,9.42-21.78a49.14,49.14,0,0,0,4.33-13c2.12-13.74,4.47-27.44,6.86-41.14.85-4.91,5.45-7.82,10.69-7.12,4,.54,7.3,4.9,7,9.33-.14,2.66-.45,5.31-.67,8-.9,11.28-1.77,22.57-2.69,33.85-.17,2.16.43,3.07,2.83,2.63a9.82,9.82,0,0,1,10.44,4.34c1.32,1.94,2.8,2.42,5,2.42,5.71,0,10.24,2.3,12.62,7.72a6,6,0,0,0,4,3.61c6.09,2,9,6.6,8.37,12.84A30.22,30.22,0,0,1,1164,453q-5.52,13-11,26c-.3.74-1.56,4.4-1.45,4.34C1152.19,483.1,1149.48,484.31,1149.48,484.31Zm-68.56-185.64c1.28,3.43,2.19,7,3.37,10.46,1.4,4.1,1.3,8.13-1,11.78-3,4.78-2.12,8.88.94,13.32,4.36,6.3,8.67,12.63,13.27,18.76,4.86,6.47,3.49,10.94-4.16,13.66-1.26.45-2.49,1-3.78,1.31-2.06.55-2.65,1.39-1.11,3.22a57.49,57.49,0,0,1,3.34,4.68c2.64,3.88,2,6.36-2.21,8.39-3.49,1.7-3.49,1.7-.7,4.49,3.64,3.64,2.72,8.7-2,10.83a32.72,32.72,0,0,1-3.47,1.41c-1.8.57-2.17,1.71-1.85,3.47a75.61,75.61,0,0,1,1.11,7.91c.61,7.58-2.58,12-9.92,13.9a28.45,28.45,0,0,1-7.17.94c-10.31,0-20.09-2.64-29.73-6-7-2.45-10.27-1.16-13.42,5.61-2.9,6.27-4,13-5.13,19.76-.43,2.48-.91,6.57-.91,6.57l-3.6-7.63c.43-1.75.76-4.5.88-5,1.33-6.63,2.85-13.19,6.48-19a11.92,11.92,0,0,1,8.82-5.89,16.26,16.26,0,0,1,7.83,1.16,96.71,96.71,0,0,0,22,5.44c4.72.53,9.48.86,14.11-.71,3.9-1.32,5.13-3.11,5.19-7.23a46.45,46.45,0,0,0-1.75-12.07c-.49-2,.11-3.23,2-4,2.16-.88,4.34-1.71,6.45-2.69s2.19-2.09.64-3.63c-1.36-1.35-2.84-2.57-4.21-3.91-2.29-2.23-2.06-3.61.83-5.12,1.63-.84,3.28-1.65,5-2.38,1.36-.59,1.49-1.34.65-2.49-1.43-1.95-2.88-3.89-4.16-5.93-2.08-3.3-1.08-6.18,2.53-7.57,2.41-.92,4.88-1.7,7.28-2.64s2.93-2.41,1.51-4.69c-.44-.7-1-1.35-1.47-2-4.41-5.85-8.48-11.95-12.68-17.95-4.3-6.16-5.41-12.16-1.22-18.75a8.27,8.27,0,0,0,.65-7.23c-1.14-3.56-2.2-7.16-3.36-10.72s-2-5.93-2-5.93l4.56-1.17S1080.11,296.48,1080.92,298.67Z" transform="translate(-996.1 -288.78)"/><path class="cls-1" d="M1101.53,499.63A105.43,105.43,0,1,1,1207,394.2,105.55,105.55,0,0,1,1101.53,499.63Zm0-206.6A101.18,101.18,0,1,0,1202.71,394.2,101.29,101.29,0,0,0,1101.53,293Z" transform="translate(-996.1 -288.78)"/></svg>