<svg id="Layer_1" data-name="Layer 1" xmlns="http://www.w3.org/2000/svg" viewBox="0 0 849.8 850.4"><defs><style>.cls-1{fill:#005245;}.cls-2{fill:#fc0;}</style></defs><polygon class="cls-1" points="849.7 383.5 424.9 425.2 849.7 467 849.7 383.5"/><polygon class="cls-1" points="0.1 383.5 0.1 467 424.9 425.2 0.1 383.5"/><polygon class="cls-2" points="833.4 301.5 424.9 425.2 849.7 383.4 833.4 301.5"/><polygon class="cls-2" points="0.1 467.1 16.4 549 424.9 425.2 0.1 467.1"/><polygon class="cls-2" points="849.8 465.7 424.9 425.2 833.8 547.7 849.8 465.7"/><polygon class="cls-2" points="16 302.8 0 384.7 424.9 425.2 16 302.8"/><polygon class="cls-1" points="801.7 224.7 424.9 425.2 833.5 302 801.7 224.7"/><polygon class="cls-1" points="16.3 548.5 48.1 625.7 424.9 425.2 16.3 548.5"/><polygon class="cls-2" points="755.7 155.5 424.9 425.2 801.9 225.1 755.7 155.5"/><polygon class="cls-2" points="47.9 625.4 94.1 694.9 424.9 425.2 47.9 625.4"/><polygon class="cls-1" points="696.9 96.3 424.9 425.2 755.7 155.6 696.9 96.3"/><polygon class="cls-1" points="94 694.9 152.9 754.1 424.9 425.2 94 694.9"/><polygon class="cls-2" points="627.7 49.7 424.9 425.2 696.9 96.3 627.7 49.7"/><polygon class="cls-2" points="152.8 754.1 222.1 800.8 424.9 425.2 152.8 754.1"/><polygon class="cls-1" points="540.2 13 424.8 425.2 638 54 540.2 13"/><polygon class="cls-1" points="211.6 796.4 309.3 837.4 424.8 425.2 211.6 796.4"/><polygon class="cls-2" points="461.9 0 424.9 425.2 544 15.3 461.9 0"/><polygon class="cls-2" points="305.8 835.1 387.9 850.4 424.9 425.2 305.8 835.1"/><polygon class="cls-1" points="378.3 1 424.9 425.2 461.8 0 378.3 1"/><polygon class="cls-1" points="388 850.4 471.5 849.5 424.9 425.2 388 850.4"/><polygon class="cls-2" points="297 18 424.9 425.2 378.8 0.9 297 18"/><polygon class="cls-2" points="471 849.5 552.8 832.4 424.9 425.2 471 849.5"/><polygon class="cls-1" points="220.5 50.5 424.9 425.2 297.4 17.9 220.5 50.5"/><polygon class="cls-1" points="552.4 832.5 629.3 799.9 424.9 425.2 552.4 832.5"/><polygon class="cls-2" points="151.5 97.4 424.9 425.2 220.6 50.5 151.5 97.4"/><polygon class="cls-2" points="629.2 800 698.2 753 424.9 425.2 629.2 800"/><polygon class="cls-1" points="93 156.9 424.9 425.2 151.6 97.4 93 156.9"/><polygon class="cls-1" points="698.2 753 756.8 693.6 424.9 425.2 698.2 753"/><polygon class="cls-2" points="47.1 226.6 424.9 425.2 93 156.9 47.1 226.6"/><polygon class="cls-2" points="756.8 693.6 802.7 623.8 424.9 425.2 756.8 693.6"/><polygon class="cls-1" points="15.6 304 424.9 425.2 47.1 226.7 15.6 304"/><polygon class="cls-1" points="802.7 623.8 834.1 546.4 424.9 425.2 802.7 623.8"/></svg>