<svg xmlns="http://www.w3.org/2000/svg" viewBox="0 0 283.46 74.84"><defs><style>.cls-1{fill:#006858;}</style></defs><g id="Layer_2" data-name="Layer 2"><g id="Layer_1-2" data-name="Layer 1"><path class="cls-1" d="M107.38,28.38a11,11,0,1,1,11-11,10.94,10.94,0,0,1-11,11M247.61,58.75a5.58,5.58,0,1,1,5.57-5.57,5.57,5.57,0,0,1-5.57,5.57m-76.14-.08A5.53,5.53,0,1,1,177,53.15a5.53,5.53,0,0,1-5.53,5.52M48.9,40.83c-1.2.39-.84,0-.71-.69s.76-3,1.32-5.14,0-2-1.21-2H33.2c-1.21,0-1.33.21-1.91,1.67s-3.6,12.45-4.91,15.39a10.62,10.62,0,0,1-3.06,4.28c-2.66,2-5.69.89-5.69-4.44,0-14.61,13.6-33.24,33.16-33.1,9.11.37,12.3,4.62,12.86,7.54,2.07,10.72-13.23,16-14.75,16.49M283.35,66.54c-.11-.76-1.19-10.45-1.41-12.33s-1.58-1-1.89-.87-2.7,1.88-4.78,3.12c-1.59.94-3.87.14-2.89-2.93.38-1.18,5.34-17,5.83-18.68.51-1.85-.49-1.85-1.37-1.85h-13c-.88,0-1.24.82-1.4,1.16-.32.65-.59,1.39-1.07,2.21-.33.54-.72.33-1.05,0a19.23,19.23,0,0,0-12.88-5.26c-13.54,0-19.89,11.61-20.79,19.5-.12.76-.29.81-.58,1-1,.55-6.67,3.72-8.17,4.54-1.88,1-3.07-.56-2.42-2.61,0-.17,12.78-40.81,13.23-42.24s-.38-1.51-1-1.51H213.13c-1,0-1.23.36-1.5,1.11-.15.43-7.94,25.83-7.94,25.83s-1.91,1.65-10.19,1.65c-9,0-11.93-7.24-23.17-7.24-18.44,0-20.24,20.26-20.24,20.26s-6.51,3.64-8.9,4.88c-2,1-3.24,1.89-5.11,1.92a5.57,5.57,0,0,1-.92-11.06,4.79,4.79,0,0,1,3.66.92c1.13.73,1.47.06,1.69-.19.72-.9,8.1-9.45,8.76-10.25a1.4,1.4,0,0,0-.33-2.07,17.79,17.79,0,0,0-12.18-4.48c-16.51.38-21.12,13.56-21.49,18.72a1.82,1.82,0,0,1-1,1.36c-.78.54-5.66,3.51-6.85,4.14-2.93,1.53-3.34-1-3.08-1.74,0,0,4.75-15.64,5.65-18.37s.71-2.12-1.54-2.2H95.8c-2.25,0-2-.22-2.44,1.32,0,.21-3,9.88-3.7,11.55a5.33,5.33,0,0,1-2.22,2.94c-.39.29-3.35,2.19-3.35,2.19-10.65,7-11.23,5.79-15.45-2.75-.52-.84-.6-1.25.36-1.71C71.72,44.76,82.37,39.1,82.37,24c0-14.77-12.68-24-32.43-24C22.15,0-.83,24.13,0,51.29,1,81.08,24.93,79.48,36.69,63.76c9.09-12.14,8.69-18.42,10.1-18.42.62,0,1.65,2.4,3.22,5.42,2.82,5.42,6.74,13.31,8.69,16.18a15.82,15.82,0,0,0,12.68,7.12c6,0,10-3.14,15.63-6.8.61-.39,1.41-.85,2.23.18a14.86,14.86,0,0,0,12.82,6.66c6.49,0,14.57-5.72,16.19-6.68,1.11-.69,1.17-.69,2.18.22.41.37,6.7,6.44,15.09,6.44,7.06,0,17.8-5.82,18.58-6.27.53-.33,1.29-.79,2.05,0,1.46,1.51,5.43,6.27,14.72,6.27,16.34,0,21.69-13.66,22.06-20.19,0-.82.09-1,1.34-1h3.07c.55,0,1.44,0,1.23,1-.3,1.38-1.64,5.44-.83,9.25,1,4.88,5.58,11.32,15.18,10.94,6.13-.25,16.56-6.73,17.19-7a1.55,1.55,0,0,1,2,.35c2.72,2.47,7.72,6.58,14.13,6.74a20.75,20.75,0,0,0,12.15-3.61c.58-.39.94-.54,1.54,0a12.33,12.33,0,0,0,9.09,3.6c5.34,0,12.78-5.1,13.75-5.7s.64-1,.53-1.84"/></g></g></svg>