<svg id="Layer_1" data-name="Layer 1" xmlns="http://www.w3.org/2000/svg" xmlns:xlink="http://www.w3.org/1999/xlink" viewBox="0 0 1440 1496"><defs><style>.cls-1{fill:none;}.cls-2{fill:#117262;}.cls-3{fill:#005245;}.cls-4{fill:#015144;}.cls-5,.cls-6,.cls-7{fill:#ffcd05;}.cls-6{fill-opacity:0.27;}.cls-7{fill-opacity:0.68;}.cls-8{fill:#fff;}.cls-9{clip-path:url(#clip-path);}.cls-10{fill:#0c3932;}.cls-11{clip-path:url(#clip-path-2);}.cls-12{clip-path:url(#clip-path-3);}.cls-13{clip-path:url(#clip-path-4);}</style><clipPath id="clip-path" transform="translate(-1699.98 1104.74)"><rect class="cls-1" x="2042.31" y="-618.96" width="166.8" height="166.8" transform="translate(81.46 255.95) rotate(-7.02)"/></clipPath><clipPath id="clip-path-2" transform="translate(-1699.98 1104.74)"><rect class="cls-1" x="1835.3" y="-715.95" width="166.8" height="166.8" transform="translate(91.76 229.91) rotate(-7.02)"/></clipPath><clipPath id="clip-path-3" transform="translate(-1699.98 1104.74)"><rect class="cls-1" x="2074.43" y="-844.93" width="194.8" height="194.8" transform="translate(2760.31 1472.69) rotate(-85.85)"/></clipPath><clipPath id="clip-path-4" transform="translate(-1699.98 1104.74)"><rect class="cls-1" x="2829.35" y="-985.9" width="201.49" height="201.49" transform="translate(118.43 324.59) rotate(-6.47)"/></clipPath></defs><path class="cls-2" d="M3140-857.74c-329.8-32.4-894,0-1440-247v677.5H3140Z" transform="translate(-1699.98 1104.74)"/><path class="cls-3" d="M2000.68-941.24l1-4.6-.6-4.8-.9,3.9v3.3l.3,1.9-1.7-3.8-1.7-.3-.3,2.7,1-1.2.3.6,2.4,2.7Z" transform="translate(-1699.98 1104.74)"/><path class="cls-3" d="M2070.68-963.24l-1-4.6.6-4.8.9,3.9v3.3l-.3,1.9,1.7-3.8,1.7-.3.3,2.7-1-1.2-.3.6-2.3,2.8Z" transform="translate(-1699.98 1104.74)"/><path class="cls-3" d="M2116.68-904.24l-1-4.6.6-4.8.9,3.9v3.3l-.3,1.9,1.7-3.8,1.7-.3.3,2.7-1-1.2-.3.6-2.3,2.8Z" transform="translate(-1699.98 1104.74)"/><path class="cls-4" d="M1963.38-936.64l-.6,4.1s6.7-.5,9.8-.5,12.1.3,12.1.3l-3.8-.6-1.4-.3h-2.3l-1.2-1.8-1.7,1.4-.4-2-1.3,2.1-1.8-1.7-2.4,1.4-1-2.2-2.4,3Z" transform="translate(-1699.98 1104.74)"/><path class="cls-4" d="M2064.78-974a36.26,36.26,0,0,1,.9,5.4,40.39,40.39,0,0,0-8.6-.7,62.65,62.65,0,0,0-9.2.7,10.37,10.37,0,0,0,1.6-2.1l1.2-.3,2.1.7.9-1.6,1.5,1.3.3-1.9,1.2,1.9,1.5-1.6,2.1,1.3.9-2.8,2.1,3.2Z" transform="translate(-1699.98 1104.74)"/><path class="cls-5" d="M1715.58-1043.54c-.7.6-1,2.4-.6,4.1a3.26,3.26,0,0,0-3.6-1.7,2.93,2.93,0,0,0-1.8,3.4c.4,1.2,2.3,2.1,4.4,1.4a6.47,6.47,0,0,0-2.2,3.6c-.2,1.3.7,2.2,1.5,1.8s1.8-2.2,2.1-4.1a4.59,4.59,0,0,0,2,3.3c1.1.7,2.2.4,2.3-.4a6.08,6.08,0,0,0-2.1-3.5,3.53,3.53,0,0,0,3.6-.5c1-.9,1.1-2.5.2-3.1s-2.6-.5-4.1.5a4.33,4.33,0,0,0,.6-3.8C1717.48-1043.64,1716.28-1044.14,1715.58-1043.54Zm20.9-4.1a2.78,2.78,0,0,0-2.5.5,2,2,0,0,0,.2-2.4,1.73,1.73,0,0,0-2.3-.3,2.25,2.25,0,0,0,.1,2.9,3.84,3.84,0,0,0-2.6-.5c-.8.2-1.1.8-.7,1.2a3.42,3.42,0,0,0,2.8.3,3.17,3.17,0,0,0-1.5,1.9c-.2.8.2,1.4.7,1.2a3.12,3.12,0,0,0,1.6-2,2.46,2.46,0,0,0,1,2,1.37,1.37,0,0,0,1.9-.5c.2-.6-.3-1.6-1.2-2.3a3,3,0,0,0,2.3-.4C1737-1046.64,1737-1047.44,1736.48-1047.64Zm3.4-11.6c.4-.6.2-1.9-.4-3.1a2.32,2.32,0,0,0,2.9.4,2.2,2.2,0,0,0,.6-2.8,2.53,2.53,0,0,0-3.4-.1,5.21,5.21,0,0,0,.8-3c-.1-1-.9-1.4-1.4-1a4.09,4.09,0,0,0-.6,3.4,4.08,4.08,0,0,0-2.1-2c-.9-.3-1.7.1-1.5.8a3.66,3.66,0,0,0,2.2,2,2.84,2.84,0,0,0-2.5,1.1,1.53,1.53,0,0,0,.5,2.3c.7.3,1.9-.2,2.8-1.2a3.39,3.39,0,0,0,.3,2.8C1738.48-1058.74,1739.48-1058.64,1739.88-1059.24Zm28.1,16.6c.1-.9-.8-2.4-2.3-3.5a3.19,3.19,0,0,0,3.8-1.2,2.88,2.88,0,0,0-.9-3.7c-1.1-.6-3.1,0-4.2,1.9a6.38,6.38,0,0,0-.8-4.2c-.7-1.1-1.9-1.2-2.3-.3s.1,2.9,1.2,4.5a5.08,5.08,0,0,0-3.7-1.1c-1.3.2-1.9,1.1-1.4,1.8a6,6,0,0,0,3.9,1.2,3.75,3.75,0,0,0-2.4,2.8,2,2,0,0,0,1.9,2.5c1-.1,2.3-1.3,2.7-3.1a4.07,4.07,0,0,0,2.1,3.2A1.58,1.58,0,0,0,1768-1042.64Zm10.7,6a2.91,2.91,0,0,0-2.4.5,1.83,1.83,0,0,0,.2-2.3,1.59,1.59,0,0,0-2.2-.3,2,2,0,0,0,.1,2.7,4,4,0,0,0-2.4-.5c-.7.2-1,.8-.7,1.2a3.17,3.17,0,0,0,2.7.3,2.83,2.83,0,0,0-1.4,1.8c-.2.7.2,1.3.7,1.1a3.54,3.54,0,0,0,1.5-1.8,2.15,2.15,0,0,0,1,1.9c.7.4,1.6.1,1.7-.5a2.06,2.06,0,0,0-1.1-2.1,2.85,2.85,0,0,0,2.2-.4C1779.18-1035.64,1779.18-1036.34,1778.68-1036.64Zm-14.9,9.6c-1.1-.6-3.4-.2-5.4,1.2a4.12,4.12,0,0,0,.4-5.2,3.76,3.76,0,0,0-5-.7c-1.3,1.1-1.5,3.8.3,6.1a8.72,8.72,0,0,0-5.5-1.1c-1.7.4-2.4,1.8-1.5,2.6s3.5,1.3,6,.7a6.69,6.69,0,0,0-3.2,4c-.4,1.7.5,2.9,1.6,2.6s2.5-2,3.3-4.2a4.88,4.88,0,0,0,2.2,4.3c1.6.9,3.6.2,4-1.1s-.5-3.4-2.5-4.8a6,6,0,0,0,4.9-.9C1764.88-1024.74,1764.88-1026.44,1763.78-1027Zm35.6,10.4c-.9.2-2.1,1.5-2.7,3.2a3.13,3.13,0,0,0-2.2-3.3,2.9,2.9,0,0,0-3.3,1.9c-.3,1.3.9,3,3,3.5a6.89,6.89,0,0,0-3.8,1.9c-.8,1-.6,2.2.3,2.3s2.7-.9,3.9-2.4a5.26,5.26,0,0,0,0,3.9c.5,1.2,1.6,1.5,2.1.8s.6-2.4,0-4.1a3.59,3.59,0,0,0,3.3,1.5,2.12,2.12,0,0,0,1.9-2.5,4,4,0,0,0-3.8-1.7,4.25,4.25,0,0,0,2.5-2.9C1801.08-1015.74,1800.28-1016.74,1799.38-1016.64ZM1700-1065a1.09,1.09,0,0,0,1.2.4c1-.3,2.5-2,3.3-4.1a4.83,4.83,0,0,0,2.2,4.2c1.5.9,3.5.2,3.9-1.1s-.5-3.3-2.4-4.7a5.75,5.75,0,0,0,4.8-.9c1.3-1.1,1.4-2.8.3-3.4s-3.3-.2-5.2,1.1a4.11,4.11,0,0,0,.4-5.1,3.74,3.74,0,0,0-4.9-.7c-1.3,1.1-1.5,3.7.3,5.9a8.47,8.47,0,0,0-3.7-1.1v3.6a9,9,0,0,0,2.8-.2,6.78,6.78,0,0,0-2.8,3Zm16,9.7a1.34,1.34,0,0,1-1.1,1.5,1.34,1.34,0,0,1-1.5-1.1,1.34,1.34,0,0,1,1.1-1.5A1.34,1.34,0,0,1,1716-1055.34Zm20.5,24.6a1.34,1.34,0,0,1-1.1,1.5,1.34,1.34,0,0,1-1.5-1.1,1.34,1.34,0,0,1,1.1-1.5A1.34,1.34,0,0,1,1736.48-1030.74Zm13.2-21.9a1.34,1.34,0,0,1-1.1,1.5,1.34,1.34,0,0,1-1.5-1.1,1.34,1.34,0,0,1,1.1-1.5A1.34,1.34,0,0,1,1749.68-1052.64Zm10.1,14.1a1.41,1.41,0,0,1-1.8.5,1.41,1.41,0,0,1-.5-1.8,1.37,1.37,0,0,1,1.8-.5A1.41,1.41,0,0,1,1759.78-1038.54Zm32.6,9.4a1.41,1.41,0,0,1-1.8.5,1.41,1.41,0,0,1-.5-1.8,1.41,1.41,0,0,1,1.8-.5A1.44,1.44,0,0,1,1792.38-1029.14Zm-27.5,9.6a.65.65,0,0,1-.9.2.65.65,0,0,1-.2-.9.65.65,0,0,1,.9-.2A.65.65,0,0,1,1764.88-1019.54Zm-16.4-11.6a.65.65,0,0,1-.9.2.65.65,0,0,1-.2-.9.65.65,0,0,1,.9-.2A.65.65,0,0,1,1748.48-1031.14Zm-21.7-23a.65.65,0,0,1-.9.2.65.65,0,0,1-.2-.9.65.65,0,0,1,.9-.2A.65.65,0,0,1,1726.78-1054.14Zm-12.9-11.2a.65.65,0,0,1-.9.2.65.65,0,0,1-.2-.9.65.65,0,0,1,.9-.2A.65.65,0,0,1,1713.88-1065.34Zm-10.1,17.4a.65.65,0,0,1-.9.2.65.65,0,0,1-.2-.9.65.65,0,0,1,.9-.2A.65.65,0,0,1,1703.78-1047.94Zm8.8,19.2a.65.65,0,0,1-.9.2.65.65,0,0,1-.2-.9.65.65,0,0,1,.9-.2A.9.9,0,0,1,1712.58-1028.74Zm4.8,7a.65.65,0,0,1-.9.2.65.65,0,0,1-.2-.9.65.65,0,0,1,.9-.2A.65.65,0,0,1,1717.38-1021.74Zm20.6,5.6a.65.65,0,0,1-.9.2.65.65,0,0,1-.2-.9.65.65,0,0,1,.9-.2A.65.65,0,0,1,1738-1016.14Zm33.7,1.1a.65.65,0,0,1-.9.2.65.65,0,0,1-.2-.9.65.65,0,0,1,.9-.2A1,1,0,0,1,1771.68-1015Zm9.1,1.1a.65.65,0,0,1-.9.2.65.65,0,0,1-.2-.9.65.65,0,0,1,.9-.2A1,1,0,0,1,1780.78-1013.94Zm1.1-10.9a.25.25,0,0,1-.4.1.25.25,0,0,1-.1-.4c.1-.1.3-.2.4-.1S1782-1024.94,1781.88-1024.84Zm-11.9-6.7a.25.25,0,0,1-.4.1.25.25,0,0,1-.1-.4.25.25,0,0,1,.4-.1C1770-1031.94,1770.08-1031.74,1770-1031.54Zm-6.3-7.2a.25.25,0,0,1-.4.1.25.25,0,0,1-.1-.4.25.25,0,0,1,.4-.1A.25.25,0,0,1,1763.68-1038.74Zm-8.6-6.5a.25.25,0,0,1-.4.1.25.25,0,0,1-.1-.4.25.25,0,0,1,.4-.1C1755.08-1045.54,1755.18-1045.34,1755.08-1045.24Zm-7.1,1.9a.25.25,0,0,1-.4.1.25.25,0,0,1-.1-.4.25.25,0,0,1,.4-.1A.6.6,0,0,1,1748-1043.34Zm-9.2-10.3a.25.25,0,0,1-.4.1.25.25,0,0,1-.1-.4.25.25,0,0,1,.4-.1A.25.25,0,0,1,1738.78-1053.64Zm-6.2-5.6a.25.25,0,0,1-.4.1.25.25,0,0,1-.1-.4.25.25,0,0,1,.4-.1C1732.58-1059.64,1732.58-1059.44,1732.58-1059.24Zm12.4,11.3a1.4,1.4,0,0,0-1.2.2c.4-.3,0-.9-.2-1.2s-.1-.4-.4-.2-.9,1-.4,1.4a1.22,1.22,0,0,0-1.3,0c-.3.3-.3.1-.2.3.3.3.6.3,1.2.2a.89.89,0,0,0-.6,1c.1.3-.1.3.2.2a1.08,1.08,0,0,0,.8-.7c0,.4.2.6.9.8.4.1.2,0,.3-.2a.71.71,0,0,0-.3-1,1.15,1.15,0,0,0,1.2-.5C1745.08-1048,1745.28-1047.84,1745-1047.94Zm-37.2,7a1.2,1.2,0,0,0-1.1.2c.3-.4,0-1-.2-1.3s-.1-.4-.4-.2a1.18,1.18,0,0,0-.3,1.5c-.3-.2-.9-.4-1.2,0s-.3.1-.1.3c.3.4.5.3,1.1.2a1,1,0,0,0-.5,1c.1.4-.1.3.2.2a1.16,1.16,0,0,0,.7-.7c0,.4.2.7.8.9.4.1.2,0,.3-.2.2-.4.1-.7-.3-1.1a1,1,0,0,0,1.1-.6C1707.88-1040.94,1708-1040.84,1707.78-1040.94Zm14.4-22.8a1.2,1.2,0,0,0-1.1.2c.3-.4,0-1-.2-1.3s-.1-.4-.4-.2a1.18,1.18,0,0,0-.3,1.5c-.3-.2-.9-.4-1.2,0s-.3.1-.1.3c.3.4.5.3,1.1.2a1,1,0,0,0-.5,1c.1.4-.1.3.2.2a1.16,1.16,0,0,0,.7-.7c0,.4.2.7.8.9.4.1.2,0,.3-.2.2-.4.1-.7-.3-1.1a1,1,0,0,0,1.1-.6C1722.38-1063.74,1722.48-1063.64,1722.18-1063.74Zm20.7,29a1.2,1.2,0,0,0-1.1.2c.3-.4,0-1-.2-1.3s-.1-.4-.4-.2a1.18,1.18,0,0,0-.3,1.5c-.3-.2-.9-.4-1.2,0s-.3.1-.1.3c.3.4.5.3,1.1.2a1,1,0,0,0-.5,1c.1.4-.1.3.2.2a1.16,1.16,0,0,0,.7-.7c0,.4.2.7.8.9.4.1.2,0,.3-.2a.71.71,0,0,0-.3-1,1,1,0,0,0,1.1-.6C1743-1034.84,1743.08-1034.64,1742.88-1034.74Zm23.8.7a1.2,1.2,0,0,0-1.1.2c.3-.4,0-1-.2-1.3s-.1-.4-.4-.2a1.18,1.18,0,0,0-.3,1.5c-.3-.2-.9-.4-1.2,0s-.3.1-.1.3c.3.4.5.3,1.1.2a1,1,0,0,0-.5,1c.1.4-.1.3.2.2a1.16,1.16,0,0,0,.7-.7c0,.4.2.7.8.9.4.1.2,0,.3-.2a.71.71,0,0,0-.3-1,1,1,0,0,0,1.1-.6C1766.88-1034.14,1767-1033.94,1766.68-1034Zm8,12.1a1.2,1.2,0,0,0-1.1.2c.3-.4,0-1-.2-1.3s-.1-.4-.4-.2a1.18,1.18,0,0,0-.3,1.5c-.3-.2-.9-.4-1.2,0s-.3.1-.1.3c.3.4.5.3,1.1.2a1,1,0,0,0-.5,1c.1.4-.1.3.2.2a1.16,1.16,0,0,0,.7-.7c0,.4.2.7.8.9.4.1.2,0,.3-.2.2-.4.1-.7-.3-1.1a1,1,0,0,0,1.1-.6C1774.88-1021.94,1775-1021.84,1774.68-1021.94Zm15,2a1.2,1.2,0,0,0-1.1.2c.3-.4,0-1-.2-1.3s-.1-.4-.4-.2a1.18,1.18,0,0,0-.3,1.5c-.3-.2-.9-.4-1.2,0s-.3.1-.1.3c.3.4.5.3,1.1.2a1,1,0,0,0-.5,1c.1.4-.1.3.2.2a1.16,1.16,0,0,0,.7-.7c0,.4.2.7.8.9.4.1.2,0,.3-.2.2-.4.1-.7-.3-1.1a1,1,0,0,0,1.1-.6C1789.88-1020,1790-1019.84,1789.68-1019.94Zm.2-7.4a1.2,1.2,0,0,0-1.1.2c.3-.4,0-1-.2-1.3s-.1-.4-.4-.2a1.18,1.18,0,0,0-.3,1.5c-.3-.2-.9-.4-1.2,0s-.3.1-.1.3c.3.4.5.3,1.1.2a1,1,0,0,0-.5,1c.1.4-.1.3.2.2a1.16,1.16,0,0,0,.7-.7c0,.4.2.7.8.9.4.1.2,0,.3-.2a.71.71,0,0,0-.3-1,1,1,0,0,0,1.1-.6C1790-1027.44,1790.08-1027.24,1789.88-1027.34Zm-44.9,4.1a1.2,1.2,0,0,0-1.1.2c.3-.4,0-1-.2-1.3s-.1-.4-.4-.2a1.18,1.18,0,0,0-.3,1.5c-.3-.2-.9-.4-1.2,0s-.3.1-.1.3c.3.4.5.3,1.1.2a1,1,0,0,0-.5,1c.1.4-.1.3.2.2a1.16,1.16,0,0,0,.7-.7c0,.4.2.7.8.9.4.1.2,0,.3-.2.2-.4.1-.7-.3-1.1a1,1,0,0,0,1.1-.6C1745.08-1023.34,1745.18-1023.14,1745-1023.24Zm-16.5-16.2a1.2,1.2,0,0,0-1.1.2c.3-.4,0-1-.2-1.3s-.1-.4-.4-.2a1.18,1.18,0,0,0-.3,1.5c-.3-.2-.9-.4-1.2,0s-.3.1-.1.3c.3.4.5.3,1.1.2a1,1,0,0,0-.5,1c.1.4-.1.3.2.2a1.16,1.16,0,0,0,.7-.7c0,.4.2.7.8.9.4.1.2,0,.3-.2.2-.4.1-.7-.3-1.1a1,1,0,0,0,1.1-.6C1728.58-1039.44,1728.68-1039.24,1728.48-1039.44Zm-3.4-4.1a1.2,1.2,0,0,0-1.1.2c.3-.4,0-1-.2-1.3s-.1-.4-.4-.2a1.18,1.18,0,0,0-.3,1.5c-.3-.2-.9-.4-1.2,0s-.3.1-.1.3c.3.4.5.3,1.1.2a1,1,0,0,0-.5,1c.1.4-.1.3.2.2a1.16,1.16,0,0,0,.7-.7c0,.4.2.7.8.9.4.1.2,0,.3-.2.2-.4.1-.7-.3-1.1a1,1,0,0,0,1.1-.6C1725.18-1043.54,1725.28-1043.34,1725.08-1043.54Zm.5-6.2a1.2,1.2,0,0,0-1.1.2c.3-.4,0-1-.2-1.3s-.1-.4-.4-.2a1.18,1.18,0,0,0-.3,1.5c-.3-.2-.9-.4-1.2,0s-.3.1-.1.3c.3.4.5.3,1.1.2a1,1,0,0,0-.5,1c.1.4-.1.3.2.2a1.16,1.16,0,0,0,.7-.7c0,.4.2.7.8.9.4.1.2,0,.3-.2.2-.4.1-.7-.3-1.1a1,1,0,0,0,1.1-.6C1725.78-1049.84,1725.88-1049.64,1725.58-1049.74Z" transform="translate(-1699.98 1104.74)"/><path class="cls-5" d="M1754.48-950.44c-.7.6-1,2.4-.6,4.1a3.26,3.26,0,0,0-3.6-1.7,2.93,2.93,0,0,0-1.8,3.4c.4,1.2,2.3,2.1,4.4,1.4a6.47,6.47,0,0,0-2.2,3.6c-.2,1.3.7,2.2,1.5,1.8s1.8-2.2,2.1-4.1a4.59,4.59,0,0,0,2,3.3c1.1.7,2.2.4,2.3-.4a6.08,6.08,0,0,0-2.1-3.5,3.53,3.53,0,0,0,3.6-.5c1-.9,1.1-2.5.2-3.1s-2.6-.5-4.1.5a4.33,4.33,0,0,0,.6-3.8A1.54,1.54,0,0,0,1754.48-950.44Zm21-4.2a2.78,2.78,0,0,0-2.5.5,2,2,0,0,0,.2-2.4,1.73,1.73,0,0,0-2.3-.3,2.25,2.25,0,0,0,.1,2.9,3.84,3.84,0,0,0-2.6-.5c-.8.2-1.1.8-.7,1.2a3.42,3.42,0,0,0,2.8.3,3.17,3.17,0,0,0-1.5,1.9c-.2.8.2,1.4.7,1.2a3.12,3.12,0,0,0,1.6-2,2.46,2.46,0,0,0,1,2,1.37,1.37,0,0,0,1.9-.5c.2-.6-.3-1.6-1.2-2.3a3,3,0,0,0,2.3-.4C1775.88-953.54,1776-954.34,1775.48-954.64Zm3.3-11.5c.4-.6.2-1.9-.4-3.1a2.32,2.32,0,0,0,2.9.4,2.2,2.2,0,0,0,.6-2.8,2.53,2.53,0,0,0-3.4-.1,5.21,5.21,0,0,0,.8-3c-.1-1-.9-1.4-1.4-1a4.09,4.09,0,0,0-.6,3.4,4.08,4.08,0,0,0-2.1-2c-.9-.3-1.7.1-1.5.8a3.66,3.66,0,0,0,2.2,2,2.84,2.84,0,0,0-2.5,1.1,1.53,1.53,0,0,0,.5,2.3c.7.3,1.9-.2,2.8-1.2a3.39,3.39,0,0,0,.3,2.8C1777.48-965.64,1778.48-965.54,1778.78-966.14Zm28.1,16.6c.1-.9-.8-2.4-2.3-3.5a3.19,3.19,0,0,0,3.8-1.2,2.88,2.88,0,0,0-.9-3.7c-1.1-.6-3.1,0-4.2,1.9a6.38,6.38,0,0,0-.8-4.2c-.7-1.1-1.9-1.2-2.3-.3s.1,2.9,1.2,4.5a5.08,5.08,0,0,0-3.7-1.1c-1.3.2-1.9,1.1-1.4,1.8a6,6,0,0,0,3.9,1.2,3.75,3.75,0,0,0-2.4,2.8,2,2,0,0,0,1.9,2.5c1-.1,2.3-1.3,2.7-3.1a4.07,4.07,0,0,0,2.1,3.2C1805.48-948.14,1806.78-948.64,1806.88-949.54Zm10.8,6a2.91,2.91,0,0,0-2.4.5,1.83,1.83,0,0,0,.2-2.3,1.59,1.59,0,0,0-2.2-.3,2,2,0,0,0,.1,2.7,4,4,0,0,0-2.4-.5c-.7.2-1,.8-.7,1.2a3.17,3.17,0,0,0,2.7.3,2.83,2.83,0,0,0-1.4,1.8c-.2.7.2,1.3.7,1.1a3.54,3.54,0,0,0,1.5-1.8,2.15,2.15,0,0,0,1,1.9,1.26,1.26,0,0,0,1.8-.5,2.06,2.06,0,0,0-1.1-2.1,2.85,2.85,0,0,0,2.2-.4C1818.08-942.54,1818.18-943.24,1817.68-943.54Zm-14.9,9.6c-1.1-.6-3.4-.2-5.4,1.2a4.12,4.12,0,0,0,.4-5.2,3.76,3.76,0,0,0-5-.7c-1.3,1.1-1.5,3.8.3,6.1a8.72,8.72,0,0,0-5.5-1.1c-1.7.4-2.4,1.8-1.5,2.6s3.5,1.3,6,.7a6.69,6.69,0,0,0-3.2,4c-.4,1.7.5,2.9,1.6,2.6s2.5-2,3.3-4.2a4.88,4.88,0,0,0,2.2,4.3c1.6.9,3.6.2,4-1.1s-.5-3.4-2.5-4.8a6,6,0,0,0,4.9-.9C1803.78-931.64,1803.88-933.34,1802.78-933.94Zm35.5,10.4c-.9.2-2.1,1.5-2.7,3.2a3.13,3.13,0,0,0-2.2-3.3,2.9,2.9,0,0,0-3.3,1.9c-.3,1.3.9,3,3,3.5a6.89,6.89,0,0,0-3.8,1.9c-.8,1-.6,2.2.3,2.3s2.7-.9,3.9-2.4a5.26,5.26,0,0,0,0,3.9c.5,1.2,1.6,1.5,2.1.8s.6-2.4,0-4.1a3.59,3.59,0,0,0,3.3,1.5,2.12,2.12,0,0,0,1.9-2.5,4,4,0,0,0-3.8-1.7,4.25,4.25,0,0,0,2.5-2.9C1840.08-922.64,1839.28-923.74,1838.28-923.54Zm-101.8-31.9a4.58,4.58,0,0,0-4.1.9,3.19,3.19,0,0,0,.3-3.9,2.94,2.94,0,0,0-3.8-.5c-1,.8-1.1,2.9.2,4.6a6.06,6.06,0,0,0-4.2-.8c-1.3.3-1.8,1.4-1.2,2s2.7,1,4.6.6a5,5,0,0,0-2.4,3c-.3,1.3.3,2.2,1.2,2s1.9-1.5,2.5-3.2a4,4,0,0,0,1.7,3.3,2.05,2.05,0,0,0,3-.8c.3-1-.4-2.6-1.9-3.7a4.37,4.37,0,0,0,3.7-.7C1737.28-953.64,1737.38-955,1736.48-955.44Zm15.6-26.1c-1-.6-3.3-.2-5.2,1.1a4.11,4.11,0,0,0,.4-5.1,3.74,3.74,0,0,0-4.9-.7c-1.3,1.1-1.5,3.7.3,5.9a7.52,7.52,0,0,0-5.3-1c-1.6.4-2.3,1.8-1.5,2.6s3.4,1.3,5.9.7a6.34,6.34,0,0,0-3.1,3.9c-.4,1.6.4,2.9,1.5,2.5s2.5-2,3.3-4.1a4.83,4.83,0,0,0,2.2,4.2c1.5.9,3.5.2,3.9-1.1s-.5-3.3-2.4-4.7a5.75,5.75,0,0,0,4.8-.9C1753.08-979.24,1753.18-980.94,1752.08-981.54Zm2.8,19.3a1.34,1.34,0,0,1-1.1,1.5,1.34,1.34,0,0,1-1.5-1.1,1.34,1.34,0,0,1,1.1-1.5A1.29,1.29,0,0,1,1754.88-962.24Zm20.5,24.6a1.34,1.34,0,0,1-1.1,1.5,1.34,1.34,0,0,1-1.5-1.1,1.34,1.34,0,0,1,1.1-1.5A1.29,1.29,0,0,1,1775.38-937.64Zm13.2-21.9a1.34,1.34,0,0,1-1.1,1.5,1.34,1.34,0,0,1-1.5-1.1,1.34,1.34,0,0,1,1.1-1.5A1.34,1.34,0,0,1,1788.58-959.54Zm10.1,14.1a1.37,1.37,0,0,1-1.8.5,1.41,1.41,0,0,1-.5-1.8,1.37,1.37,0,0,1,1.8-.5A1.31,1.31,0,0,1,1798.68-945.44Zm32.6,9.4a1.41,1.41,0,0,1-1.8.5,1.41,1.41,0,0,1-.5-1.8,1.41,1.41,0,0,1,1.8-.5A1.41,1.41,0,0,1,1831.28-936Zm-27.4,9.6a.65.65,0,0,1-.9.2.65.65,0,0,1-.2-.9.65.65,0,0,1,.9-.2A1,1,0,0,1,1803.88-926.44Zm-16.5-11.6a.65.65,0,0,1-.9.2.65.65,0,0,1-.2-.9.65.65,0,0,1,.9-.2A.65.65,0,0,1,1787.38-938Zm-21.7-23a.65.65,0,0,1-.9.2.65.65,0,0,1-.2-.9.65.65,0,0,1,.9-.2A.65.65,0,0,1,1765.68-961Zm-12.8-11.2a.65.65,0,0,1-.9.2.65.65,0,0,1-.2-.9.65.65,0,0,1,.9-.2A.76.76,0,0,1,1752.88-972.24Zm-10.1,17.4a.65.65,0,0,1-.9.2.65.65,0,0,1-.2-.9.65.65,0,0,1,.9-.2A.65.65,0,0,1,1742.78-954.84Zm8.7,19.1a.65.65,0,0,1-.9.2.65.65,0,0,1-.2-.9.65.65,0,0,1,.9-.2A.65.65,0,0,1,1751.48-935.74Zm4.9,7.1a.65.65,0,0,1-.9.2.65.65,0,0,1-.2-.9.65.65,0,0,1,.9-.2A1,1,0,0,1,1756.38-928.64ZM1777-923a.65.65,0,0,1-.9.2.65.65,0,0,1-.2-.9.65.65,0,0,1,.9-.2A1,1,0,0,1,1777-923Zm33.6,1.1a.65.65,0,0,1-.9.2.65.65,0,0,1-.2-.9.65.65,0,0,1,.9-.2A.63.63,0,0,1,1810.58-921.94Zm9.1,1.1a.65.65,0,0,1-.9.2.65.65,0,0,1-.2-.9.65.65,0,0,1,.9-.2A.65.65,0,0,1,1819.68-920.84Zm1.1-10.9a.25.25,0,0,1-.4.1.25.25,0,0,1-.1-.4.25.25,0,0,1,.4-.1C1820.78-932,1820.88-931.84,1820.78-931.74Zm-11.9-6.7a.25.25,0,0,1-.4.1.25.25,0,0,1-.1-.4.25.25,0,0,1,.4-.1C1809-938.84,1809-938.64,1808.88-938.44Zm-6.2-7.2a.25.25,0,0,1-.4.1.25.25,0,0,1-.1-.4.25.25,0,0,1,.4-.1C1802.68-945.94,1802.78-945.74,1802.68-945.64Zm-8.7-6.5a.25.25,0,0,1-.4.1.25.25,0,0,1-.1-.4.25.25,0,0,1,.4-.1A.25.25,0,0,1,1794-952.14Zm-7.1,1.9a.25.25,0,0,1-.4.1.25.25,0,0,1-.1-.4.25.25,0,0,1,.4-.1C1786.88-950.54,1787-950.34,1786.88-950.24Zm-9.1-10.3a.25.25,0,0,1-.4.1.25.25,0,0,1-.1-.4.25.25,0,0,1,.4-.1C1777.78-960.84,1777.88-960.74,1777.78-960.54Zm-6.3-5.6a.25.25,0,0,1-.4.1.25.25,0,0,1-.1-.4.25.25,0,0,1,.4-.1C1771.48-966.54,1771.58-966.34,1771.48-966.14Zm12.4,11.3a1.4,1.4,0,0,0-1.2.2c.4-.3,0-.9-.2-1.2s-.1-.4-.4-.2-.9,1-.4,1.4a1.22,1.22,0,0,0-1.3,0c-.3.3-.3.1-.2.3.3.3.6.3,1.2.2a.89.89,0,0,0-.6,1c.1.3-.1.3.2.2a1.08,1.08,0,0,0,.8-.7c0,.4.2.6.9.8.4.1.2,0,.3-.2a.71.71,0,0,0-.3-1,1.15,1.15,0,0,0,1.2-.5C1784.08-954.94,1784.18-954.74,1783.88-954.84Zm-37.2,7a1.2,1.2,0,0,0-1.1.2c.3-.4,0-1-.2-1.3s-.1-.4-.4-.2a1.18,1.18,0,0,0-.3,1.5c-.3-.2-.9-.4-1.2,0s-.3.1-.1.3c.3.4.5.3,1.1.2a1,1,0,0,0-.5,1c.1.4-.1.3.2.2a1.16,1.16,0,0,0,.7-.7c0,.4.2.7.8.9.4.1.2,0,.3-.2a.71.71,0,0,0-.3-1,1,1,0,0,0,1.1-.6C1746.88-947.94,1747-947.74,1746.68-947.84Zm14.5-22.8a1.2,1.2,0,0,0-1.1.2c.3-.4,0-1-.2-1.3s-.1-.4-.4-.2a1.18,1.18,0,0,0-.3,1.5c-.3-.2-.9-.4-1.2,0s-.3.1-.1.3c.3.4.5.3,1.1.2a1,1,0,0,0-.5,1c.1.4-.1.3.2.2a1.16,1.16,0,0,0,.7-.7c0,.4.2.7.8.9.4.1.2,0,.3-.2.2-.4.1-.7-.3-1.1a1,1,0,0,0,1.1-.6C1761.28-970.64,1761.38-970.54,1761.18-970.64Zm20.6,29a1.2,1.2,0,0,0-1.1.2c.3-.4,0-1-.2-1.3s-.1-.4-.4-.2a1.18,1.18,0,0,0-.3,1.5c-.3-.2-.9-.4-1.2,0s-.3.1-.1.3c.3.4.5.3,1.1.2a1,1,0,0,0-.5,1c.1.4-.1.3.2.2a1.16,1.16,0,0,0,.7-.7c0,.4.2.7.8.9.4.1.2,0,.3-.2.2-.4.1-.7-.3-1.1a1,1,0,0,0,1.1-.6C1781.88-941.74,1782.08-941.54,1781.78-941.64Zm23.9.7a1.2,1.2,0,0,0-1.1.2c.3-.4,0-1-.2-1.3s-.1-.4-.4-.2a1.18,1.18,0,0,0-.3,1.5c-.3-.2-.9-.4-1.2,0s-.3.1-.1.3c.3.4.5.3,1.1.2a1,1,0,0,0-.5,1c.1.4-.1.3.2.2a1.16,1.16,0,0,0,.7-.7c0,.4.2.7.8.9.4.1.2,0,.3-.2a.71.71,0,0,0-.3-1,1,1,0,0,0,1.1-.6C1805.78-941,1805.88-940.84,1805.68-940.94Zm8,12.1a1.2,1.2,0,0,0-1.1.2c.3-.4,0-1-.2-1.3s-.1-.4-.4-.2a1.18,1.18,0,0,0-.3,1.5c-.3-.2-.9-.4-1.2,0s-.3.1-.1.3c.3.4.5.3,1.1.2a1,1,0,0,0-.5,1c.1.4-.1.3.2.2a1.16,1.16,0,0,0,.7-.7c0,.4.2.7.8.9.4.1.2,0,.3-.2.2-.4.1-.7-.3-1.1a1,1,0,0,0,1.1-.6C1813.78-928.94,1813.88-928.74,1813.68-928.84Zm15,2a1.2,1.2,0,0,0-1.1.2c.3-.4,0-1-.2-1.3s-.1-.4-.4-.2a1.18,1.18,0,0,0-.3,1.5c-.3-.2-.9-.4-1.2,0s-.3.1-.1.3c.3.4.5.3,1.1.2a1,1,0,0,0-.5,1c.1.4-.1.3.2.2a1.16,1.16,0,0,0,.7-.7c0,.4.2.7.8.9.4.1.2,0,.3-.2.2-.4.1-.7-.3-1.1a1,1,0,0,0,1.1-.6C1828.78-926.94,1828.88-926.74,1828.68-926.84Zm.1-7.5a1.2,1.2,0,0,0-1.1.2c.3-.4,0-1-.2-1.3s-.1-.4-.4-.2a1.18,1.18,0,0,0-.3,1.5c-.3-.2-.9-.4-1.2,0s-.3.1-.1.3c.3.4.5.3,1.1.2a1,1,0,0,0-.5,1c.1.4-.1.3.2.2a1.16,1.16,0,0,0,.7-.7c0,.4.2.7.8.9.4.1.2,0,.3-.2.2-.4.1-.7-.3-1.1a1,1,0,0,0,1.1-.6C1829-934.34,1829.08-934.14,1828.78-934.34Zm-44.9,4.2a1.2,1.2,0,0,0-1.1.2c.3-.4,0-1-.2-1.3s-.1-.4-.4-.2a1.18,1.18,0,0,0-.3,1.5c-.3-.2-.9-.4-1.2,0s-.3.1-.1.3c.3.4.5.3,1.1.2a1,1,0,0,0-.5,1c.1.4-.1.3.2.2a1.16,1.16,0,0,0,.7-.7c0,.4.2.7.8.9.4.1.2,0,.3-.2.2-.4.1-.7-.3-1.1a1,1,0,0,0,1.1-.6C1784.08-930.24,1784.18-930,1783.88-930.14Zm-16.5-16.2a1.2,1.2,0,0,0-1.1.2c.3-.4,0-1-.2-1.3s-.1-.4-.4-.2a1.18,1.18,0,0,0-.3,1.5c-.3-.2-.9-.4-1.2,0s-.3.1-.1.3c.3.4.5.3,1.1.2a1,1,0,0,0-.5,1c.1.4-.1.3.2.2a1.16,1.16,0,0,0,.7-.7c0,.4.2.7.8.9.4.1.2,0,.3-.2.2-.4.1-.7-.3-1.1a1,1,0,0,0,1.1-.6C1767.58-946.34,1767.68-946.24,1767.38-946.34Zm-3.4-4.1a1.2,1.2,0,0,0-1.1.2c.3-.4,0-1-.2-1.3s-.1-.4-.4-.2a1.18,1.18,0,0,0-.3,1.5c-.3-.2-.9-.4-1.2,0s-.3.1-.1.3c.3.4.5.3,1.1.2a1,1,0,0,0-.5,1c.1.4-.1.3.2.2a1.16,1.16,0,0,0,.7-.7c0,.4.2.7.8.9.4.1.2,0,.3-.2a.71.71,0,0,0-.3-1,1,1,0,0,0,1.1-.6C1764.08-950.44,1764.18-950.24,1764-950.44Zm.6-6.2a1.2,1.2,0,0,0-1.1.2c.3-.4,0-1-.2-1.3s-.1-.4-.4-.2a1.18,1.18,0,0,0-.3,1.5c-.3-.2-.9-.4-1.2,0s-.3.1-.1.3c.3.4.5.3,1.1.2a1,1,0,0,0-.5,1c.1.4-.1.3.2.2a1.16,1.16,0,0,0,.7-.7c0,.4.2.7.8.9.4.1.2,0,.3-.2a.71.71,0,0,0-.3-1,1,1,0,0,0,1.1-.6C1764.68-956.74,1764.78-956.54,1764.58-956.64Z" transform="translate(-1699.98 1104.74)"/><path class="cls-5" d="M1714.38-984.44c-.5-1.8-.1-3.5.6-4.1s2-.1,2.4,1.1a4.38,4.38,0,0,1-.6,3.8c1.5-1,3.3-1.1,4.1-.5s.8,2.2-.2,3.1a3.81,3.81,0,0,1-3.6.5c1.3,1.1,2.2,2.7,2.1,3.5s-1.2,1.2-2.3.4a4.8,4.8,0,0,1-2-3.3c-.2,1.9-1.3,3.7-2.1,4.1s-1.7-.5-1.5-1.8a6.15,6.15,0,0,1,2.2-3.6c-2.1.7-4-.2-4.4-1.4a2.93,2.93,0,0,1,1.8-3.4C1712-986.54,1713.58-985.84,1714.38-984.44Z" transform="translate(-1699.98 1104.74)"/><path class="cls-5" d="M1714.28-998.94a1.29,1.29,0,0,0,1.1-1.5,1.29,1.29,0,0,0-1.5-1.1,1.29,1.29,0,0,0-1.1,1.5A1.34,1.34,0,0,0,1714.28-998.94Z" transform="translate(-1699.98 1104.74)"/><path class="cls-5" d="M1712.38-1010.14a.65.65,0,0,0,.9-.2.65.65,0,0,0-.2-.9.65.65,0,0,0-.9.2A.65.65,0,0,0,1712.38-1010.14Z" transform="translate(-1699.98 1104.74)"/><path class="cls-5" d="M1702.38-992.74a.65.65,0,0,0,.9-.2.65.65,0,0,0-.2-.9.65.65,0,0,0-.9.2A.53.53,0,0,0,1702.38-992.74Z" transform="translate(-1699.98 1104.74)"/><path class="cls-5" d="M1711.08-973.64a.65.65,0,0,0,.9-.2.65.65,0,0,0-.2-.9.65.65,0,0,0-.9.2A.63.63,0,0,0,1711.08-973.64Z" transform="translate(-1699.98 1104.74)"/><path class="cls-5" d="M1715.88-966.64a.65.65,0,0,0,.9-.2.65.65,0,0,0-.2-.9.65.65,0,0,0-.9.2C1715.48-967.14,1715.58-966.74,1715.88-966.64Z" transform="translate(-1699.98 1104.74)"/><path class="cls-5" d="M1706.08-985.84a1.2,1.2,0,0,1,1.1-.2c.2.1.1,0,0,.3a1,1,0,0,1-1.1.6.83.83,0,0,1,.3,1.1c-.1.3.1.4-.3.2-.7-.2-.9-.5-.8-.9a1.16,1.16,0,0,1-.7.7c-.2.1-.1.2-.2-.2a.78.78,0,0,1,.5-1c-.6.1-.8.2-1.1-.2-.1-.2-.1-.1.1-.3a1.05,1.05,0,0,1,1.2,0,1.18,1.18,0,0,1,.3-1.5c.3-.2.1-.1.4.2A.93.93,0,0,1,1706.08-985.84Z" transform="translate(-1699.98 1104.74)"/><path class="cls-5" d="M1720.48-1008.64a1.2,1.2,0,0,1,1.1-.2c.2.1.1,0,0,.3a1,1,0,0,1-1.1.6.83.83,0,0,1,.3,1.1c-.1.3.1.4-.3.2-.7-.2-.9-.5-.8-.9a1.16,1.16,0,0,1-.7.7c-.2.1-.1.2-.2-.2a.78.78,0,0,1,.5-1c-.6.1-.8.2-1.1-.2-.1-.2-.1-.1.1-.3a1.05,1.05,0,0,1,1.2,0,1.18,1.18,0,0,1,.3-1.5c.3-.2.1-.1.4.2A.93.93,0,0,1,1720.48-1008.64Z" transform="translate(-1699.98 1104.74)"/><path class="cls-5" d="M1723.38-988.44a1.2,1.2,0,0,1,1.1-.2c.2.1.1,0,0,.3a1,1,0,0,1-1.1.6.83.83,0,0,1,.3,1.1c-.1.3.1.4-.3.2-.7-.2-.9-.5-.8-.9a1.16,1.16,0,0,1-.7.7c-.2.1-.1.2-.2-.2a.78.78,0,0,1,.5-1c-.6.1-.8.2-1.1-.2-.1-.2-.1-.1.1-.3a1.05,1.05,0,0,1,1.2,0,1.18,1.18,0,0,1,.3-1.5c.3-.2.1-.1.4.2S1723.68-988.74,1723.38-988.44Z" transform="translate(-1699.98 1104.74)"/><path class="cls-6" d="M1711.58-928.94c.8.4,1.6,1.9,1.6,3.7a3.15,3.15,0,0,1,2.9-2.5,3,3,0,0,1,2.6,2.7c-.1,1.2-1.6,2.5-3.7,2.4a6.27,6.27,0,0,1,3,2.8c.5,1.2-.1,2.2-.9,2s-2.3-1.5-3-3.3a5.09,5.09,0,0,1-1,3.6c-.8,1-1.9,1-2.2.2s.1-2.4,1.1-3.8a3.47,3.47,0,0,1-3.5.5c-1.2-.6-1.7-2-1-2.8s2.3-1.1,3.9-.6a4.1,4.1,0,0,1-1.5-3.3C1709.78-928.54,1710.78-929.34,1711.58-928.94Zm15.3-9.3c.6-.6,2.3-.8,4-.2a3,3,0,0,1-1.3-3.6,2.79,2.79,0,0,1,3.4-1.5c1.1.5,1.8,2.4,1,4.4a5.44,5.44,0,0,1,3.6-1.8c1.3-.1,2,.8,1.6,1.6s-2.2,1.6-4.1,1.7a4.55,4.55,0,0,1,3,2.2c.6,1.1.3,2.1-.6,2.1s-2.2-.9-3.2-2.3a3.62,3.62,0,0,1-.7,3.5c-.9.9-2.5.9-3,0s-.3-2.5.8-3.9a3.88,3.88,0,0,1-3.6.3C1726.58-936.44,1726.18-937.64,1726.88-938.24Zm-21.2-20.1c.8-.8,3-1,5.1-.3a3.91,3.91,0,0,1-1.7-4.6,3.64,3.64,0,0,1,4.3-1.9c1.4.6,2.3,3.1,1.3,5.6a7.93,7.93,0,0,1,4.6-2.4c1.6-.1,2.6,1,2,2s-2.8,2.1-5.2,2.2a6.25,6.25,0,0,1,3.9,2.8c.8,1.4.3,2.8-.7,2.7s-2.8-1.2-4.1-2.9a4.52,4.52,0,0,1-.9,4.4,2.63,2.63,0,0,1-3.9,0c-.7-1-.4-3.2,1-5a5.26,5.26,0,0,1-4.7.4C1705.28-955.94,1704.78-957.54,1705.68-958.34Zm2.4,18.6a1.24,1.24,0,0,0,1.4,1.1,1.32,1.32,0,0,0,1.1-1.4,1.24,1.24,0,0,0-1.4-1.1A1.24,1.24,0,0,0,1708.08-939.74Zm-.7-9.8a.75.75,0,0,0,.9,0,.75.75,0,0,0,0-.9.75.75,0,0,0-.9,0A.56.56,0,0,0,1707.38-949.54Zm13.9,13.5a.75.75,0,0,0,.9,0,.75.75,0,0,0,0-.9.75.75,0,0,0-.9,0A.56.56,0,0,0,1721.28-936Zm-3.1,20a.75.75,0,0,0,.9,0,.75.75,0,0,0,0-.9.75.75,0,0,0-.9,0A.75.75,0,0,0,1718.18-916Zm-2.7,7.7a.75.75,0,0,0,.9,0,.75.75,0,0,0,0-.9.75.75,0,0,0-.9,0A.75.75,0,0,0,1715.48-908.34Zm4-20.2a.87.87,0,0,1,1-.1c-.4-.2-.3-.9-.1-1.3s0-.4.3-.3.9.8.7,1.3a.8.8,0,0,1,1.1-.3c.3.2.3,0,.2.3s-.4.4-1,.5a1,1,0,0,1,.7.8c0,.4.1.2-.1.2a1,1,0,0,1-.8-.5c.1.4,0,.7-.5,1.1-.3.2-.1.1-.3-.2a.78.78,0,0,1,0-1.1.94.94,0,0,1-1.1-.2C1719.28-928.54,1719.28-928.44,1719.48-928.54Zm-19.4-17.3a.87.87,0,0,1,1-.1c-.4-.2-.3-.9-.1-1.3s0-.4.3-.3.9.8.7,1.3c.2-.2.7-.6,1.1-.3s.3,0,.2.3-.4.4-1,.5a1,1,0,0,1,.7.8c0,.4.1.2-.1.2a1,1,0,0,1-.8-.5c.1.4,0,.7-.5,1.1-.3.2-.1.1-.3-.2a.78.78,0,0,1,0-1.1.94.94,0,0,1-1.1-.2C1700-945.84,1700-945.74,1700.08-945.84Zm.6,24.1a.87.87,0,0,1,1-.1c-.4-.2-.3-.9-.1-1.3s0-.4.3-.3.9.8.7,1.3a.8.8,0,0,1,1.1-.3c.3.2.3,0,.2.3s-.4.4-.9.4a1,1,0,0,1,.7.8c0,.4.1.2-.1.2a1,1,0,0,1-.8-.5c.1.4,0,.7-.5,1.1-.3.2-.1.1-.3-.2a.78.78,0,0,1,0-1.1.94.94,0,0,1-1.1-.2C1700.58-921.74,1700.48-921.54,1700.68-921.74Zm2.1-4.7a.87.87,0,0,1,1-.1c-.4-.2-.3-.9-.1-1.3s0-.4.3-.3.9.8.7,1.3c.2-.2.7-.6,1.1-.3s.3,0,.2.3-.4.4-1,.5a1,1,0,0,1,.7.8c0,.4.1.2-.1.2a1,1,0,0,1-.8-.5c.1.4,0,.7-.5,1.1-.3.2-.1.1-.3-.2a.78.78,0,0,1,0-1.1.94.94,0,0,1-1.1-.2C1702.68-926.44,1702.58-926.24,1702.78-926.44Zm-2.2-5.6a.87.87,0,0,1,1-.1c-.4-.2-.3-.9-.1-1.3s0-.4.3-.3.9.8.7,1.3a.8.8,0,0,1,1.1-.3c.3.2.3,0,.2.3s-.4.4-1,.5a1,1,0,0,1,.7.8c0,.4.1.2-.1.2a1,1,0,0,1-.8-.5c.1.4,0,.7-.5,1.1-.3.2-.1.1-.3-.2a.78.78,0,0,1,0-1.1.94.94,0,0,1-1.1-.2C1700.48-932,1700.38-931.94,1700.58-932Z" transform="translate(-1699.98 1104.74)"/><path class="cls-7" d="M1823.88-973.44c-.7.6-1,2.4-.6,4.1a3.26,3.26,0,0,0-3.6-1.7,2.93,2.93,0,0,0-1.8,3.4c.4,1.2,2.3,2.1,4.4,1.4a6.47,6.47,0,0,0-2.2,3.6c-.2,1.3.7,2.2,1.5,1.8s1.8-2.2,2.1-4.1a4.59,4.59,0,0,0,2,3.3c1.1.7,2.2.4,2.3-.4a6.08,6.08,0,0,0-2.1-3.5,3.53,3.53,0,0,0,3.6-.5c1-.9,1.1-2.5.2-3.1s-2.6-.5-4.1.5a4.33,4.33,0,0,0,.6-3.8C1825.78-973.54,1824.58-974,1823.88-973.44Zm20.9-4.2a2.78,2.78,0,0,0-2.5.5,2,2,0,0,0,.2-2.4,1.73,1.73,0,0,0-2.3-.3,2.25,2.25,0,0,0,.1,2.9,3.84,3.84,0,0,0-2.6-.5c-.8.2-1.1.8-.7,1.2a3.42,3.42,0,0,0,2.8.3,3.17,3.17,0,0,0-1.5,1.9c-.2.8.2,1.4.7,1.2a3.12,3.12,0,0,0,1.6-2,2.33,2.33,0,0,0,1,2,1.37,1.37,0,0,0,1.9-.5c.2-.6-.3-1.6-1.2-2.3a3,3,0,0,0,2.3-.4C1845.28-976.54,1845.38-977.34,1844.78-977.64Zm3.4-11.5c.4-.6.2-1.9-.4-3.1a2.32,2.32,0,0,0,2.9.4,2.2,2.2,0,0,0,.6-2.8,2.53,2.53,0,0,0-3.4-.1,5.21,5.21,0,0,0,.8-3c-.1-1-.9-1.4-1.4-1a4.09,4.09,0,0,0-.6,3.4,3.74,3.74,0,0,0-2.1-2c-.9-.3-1.7.1-1.5.8a3.66,3.66,0,0,0,2.2,2,2.84,2.84,0,0,0-2.5,1.1,1.51,1.51,0,0,0,.5,2.3c.7.3,1.9-.2,2.8-1.2a3.39,3.39,0,0,0,.3,2.8C1846.88-988.64,1847.88-988.54,1848.18-989.14Zm28.1,16.6c.1-.9-.8-2.4-2.3-3.5a3.19,3.19,0,0,0,3.8-1.2,2.88,2.88,0,0,0-.9-3.7c-1.1-.6-3.1,0-4.2,1.9a6.38,6.38,0,0,0-.8-4.2c-.7-1.1-1.9-1.2-2.3-.3s.1,2.9,1.2,4.5a5.08,5.08,0,0,0-3.7-1.1c-1.3.2-1.9,1.1-1.4,1.8a6,6,0,0,0,3.9,1.2,3.75,3.75,0,0,0-2.4,2.8,2,2,0,0,0,1.9,2.5c1-.1,2.3-1.3,2.7-3.1a4.07,4.07,0,0,0,2.1,3.2C1874.88-971.14,1876.18-971.64,1876.28-972.54Zm10.8,6a2.91,2.91,0,0,0-2.4.5,1.83,1.83,0,0,0,.2-2.3,1.59,1.59,0,0,0-2.2-.3,2,2,0,0,0,.1,2.7,4,4,0,0,0-2.4-.5c-.7.2-1,.8-.7,1.2a3.17,3.17,0,0,0,2.7.3,2.83,2.83,0,0,0-1.4,1.8c-.2.7.2,1.3.7,1.1a3.54,3.54,0,0,0,1.5-1.8,2.15,2.15,0,0,0,1,1.9,1.26,1.26,0,0,0,1.8-.5,2.06,2.06,0,0,0-1.1-2.1,2.85,2.85,0,0,0,2.2-.4C1887.48-965.54,1887.58-966.24,1887.08-966.54Zm-15,9.6c-1.1-.6-3.4-.2-5.4,1.2a4.12,4.12,0,0,0,.4-5.2,3.76,3.76,0,0,0-5-.7c-1.3,1.1-1.5,3.8.3,6.1a8.72,8.72,0,0,0-5.5-1.1c-1.7.4-2.4,1.8-1.5,2.6s3.5,1.3,6,.7a6.69,6.69,0,0,0-3.2,4c-.4,1.7.4,2.9,1.6,2.6,1-.3,2.5-2,3.3-4.2a4.88,4.88,0,0,0,2.2,4.3c1.6.9,3.6.2,4-1.1s-.5-3.4-2.5-4.8a6,6,0,0,0,4.9-.9C1873.18-954.64,1873.28-956.34,1872.08-956.94Zm35.6,10.4c-.9.2-2.1,1.5-2.7,3.2a3.13,3.13,0,0,0-2.2-3.3,2.9,2.9,0,0,0-3.3,1.9c-.3,1.3.9,3,3,3.5a6.89,6.89,0,0,0-3.8,1.9c-.8,1-.6,2.2.3,2.3s2.7-.9,3.9-2.4a5.26,5.26,0,0,0,0,3.9c.5,1.2,1.6,1.5,2.2.8s.6-2.4,0-4.1a3.59,3.59,0,0,0,3.3,1.5,2.12,2.12,0,0,0,1.9-2.5,4,4,0,0,0-3.8-1.7,4.25,4.25,0,0,0,2.5-2.9C1909.48-945.64,1908.68-946.74,1907.68-946.54Zm-101.8-31.9a4.58,4.58,0,0,0-4.1.9,3.19,3.19,0,0,0,.3-3.9,2.94,2.94,0,0,0-3.8-.5c-1,.8-1.1,2.9.2,4.6a6.06,6.06,0,0,0-4.2-.8c-1.3.3-1.8,1.4-1.2,2s2.7,1,4.6.6a5,5,0,0,0-2.4,3c-.3,1.3.3,2.2,1.2,2s1.9-1.5,2.5-3.2a4,4,0,0,0,1.7,3.3,2.05,2.05,0,0,0,3-.8c.3-1-.4-2.6-1.9-3.7a4.37,4.37,0,0,0,3.7-.7C1806.68-976.64,1806.78-978,1805.88-978.44Zm15.6-26.1c-1-.6-3.3-.2-5.2,1.1a4.11,4.11,0,0,0,.4-5.1,3.74,3.74,0,0,0-4.9-.7c-1.3,1.1-1.5,3.7.3,5.9a7.52,7.52,0,0,0-5.3-1c-1.6.4-2.3,1.8-1.5,2.6s3.4,1.3,5.9.7a6.34,6.34,0,0,0-3.1,3.9c-.4,1.6.4,2.9,1.5,2.5s2.5-2,3.3-4.1a4.83,4.83,0,0,0,2.2,4.2c1.5.9,3.5.2,3.9-1.1s-.5-3.3-2.4-4.7a5.75,5.75,0,0,0,4.8-.9C1822.48-1002.24,1822.58-1003.94,1821.48-1004.54Zm2.8,19.3a1.34,1.34,0,0,1-1.1,1.5,1.34,1.34,0,0,1-1.5-1.1,1.34,1.34,0,0,1,1.1-1.5A1.29,1.29,0,0,1,1824.28-985.24Zm20.5,24.6a1.34,1.34,0,0,1-1.1,1.5,1.34,1.34,0,0,1-1.5-1.1,1.34,1.34,0,0,1,1.1-1.5A1.34,1.34,0,0,1,1844.78-960.64Zm13.2-21.9a1.34,1.34,0,0,1-1.1,1.5,1.34,1.34,0,0,1-1.5-1.1,1.34,1.34,0,0,1,1.1-1.5A1.34,1.34,0,0,1,1858-982.54Zm10.1,14.1a1.37,1.37,0,0,1-1.8.5,1.41,1.41,0,0,1-.5-1.8,1.37,1.37,0,0,1,1.8-.5A1.41,1.41,0,0,1,1868.08-968.44Zm32.6,9.4a1.37,1.37,0,0,1-1.8.5,1.41,1.41,0,0,1-.5-1.8,1.37,1.37,0,0,1,1.8-.5A1.44,1.44,0,0,1,1900.68-959Zm-27.5,9.6a.65.65,0,0,1-.9.2.65.65,0,0,1-.2-.9.65.65,0,0,1,.9-.2A.65.65,0,0,1,1873.18-949.44Zm-16.4-11.6a.65.65,0,0,1-.9.2.65.65,0,0,1-.2-.9.65.65,0,0,1,.9-.2A.65.65,0,0,1,1856.78-961Zm-21.7-23a.65.65,0,0,1-.9.2.65.65,0,0,1-.2-.9.65.65,0,0,1,.9-.2A.65.65,0,0,1,1835.08-984Zm-12.8-11.2a.65.65,0,0,1-.9.2.65.65,0,0,1-.2-.9.65.65,0,0,1,.9-.2A1,1,0,0,1,1822.28-995.24Zm-10.1,17.4a.65.65,0,0,1-.9.2.65.65,0,0,1-.2-.9.65.65,0,0,1,.9-.2A.65.65,0,0,1,1812.18-977.84Zm8.7,19.2a.65.65,0,0,1-.9.2.65.65,0,0,1-.2-.9.65.65,0,0,1,.9-.2A.63.63,0,0,1,1820.88-958.64Zm4.9,7a.65.65,0,0,1-.9.2.65.65,0,0,1-.2-.9.65.65,0,0,1,.9-.2A1,1,0,0,1,1825.78-951.64Zm20.5,5.6a.65.65,0,0,1-.9.2.65.65,0,0,1-.2-.9.65.65,0,0,1,.9-.2A.65.65,0,0,1,1846.28-946Zm33.7,1.1a.65.65,0,0,1-.9.2.65.65,0,0,1-.2-.9.65.65,0,0,1,.9-.2A.65.65,0,0,1,1880-944.94Zm9.1,1.1a.65.65,0,0,1-.9.2.65.65,0,0,1-.2-.9.65.65,0,0,1,.9-.2A.65.65,0,0,1,1889.08-943.84Zm1.1-10.9a.25.25,0,0,1-.4.1.25.25,0,0,1-.1-.4.25.25,0,0,1,.4-.1C1890.18-955,1890.28-954.84,1890.18-954.74Zm-11.9-6.7a.25.25,0,0,1-.4.1.25.25,0,0,1-.1-.4.25.25,0,0,1,.4-.1C1878.28-961.84,1878.38-961.64,1878.28-961.44Zm-6.2-7.2a.25.25,0,0,1-.4.1.25.25,0,0,1-.1-.4.25.25,0,0,1,.4-.1A.6.6,0,0,1,1872.08-968.64Zm-8.7-6.5a.25.25,0,0,1-.4.1.25.25,0,0,1-.1-.4.25.25,0,0,1,.4-.1C1863.38-975.44,1863.48-975.24,1863.38-975.14Zm-7.1,1.9a.25.25,0,0,1-.4.1.25.25,0,0,1-.1-.4.25.25,0,0,1,.4-.1C1856.28-973.54,1856.38-973.34,1856.28-973.24Zm-9.1-10.3a.25.25,0,0,1-.4.1.25.25,0,0,1-.1-.4.25.25,0,0,1,.4-.1C1847.18-983.84,1847.28-983.64,1847.18-983.54Zm-6.3-5.6a.25.25,0,0,1-.4.1.25.25,0,0,1-.1-.4.25.25,0,0,1,.4-.1C1840.88-989.54,1841-989.34,1840.88-989.14Zm12.4,11.3a1.4,1.4,0,0,0-1.2.2c.4-.3,0-.9-.2-1.2s-.1-.4-.4-.2-.9,1-.4,1.4a1.22,1.22,0,0,0-1.3,0c-.3.3-.3.1-.2.3.3.3.6.3,1.2.2a.89.89,0,0,0-.6,1c.1.3-.1.3.2.2a1.08,1.08,0,0,0,.8-.7c0,.4.2.6.9.8.4.1.2,0,.3-.2a.71.71,0,0,0-.3-1,1.15,1.15,0,0,0,1.2-.5C1853.48-977.94,1853.58-977.74,1853.28-977.84Zm-37.2,7a1.2,1.2,0,0,0-1.1.2c.3-.4,0-1-.2-1.3s-.1-.4-.4-.2a1.18,1.18,0,0,0-.3,1.5c-.3-.2-.9-.4-1.2,0s-.3.1-.1.3c.3.4.5.3,1.1.2a1,1,0,0,0-.5,1c.1.4-.1.3.2.2a1.16,1.16,0,0,0,.7-.7c0,.4.2.7.8.9.4.1.2,0,.3-.2.2-.4.1-.7-.3-1.1a1,1,0,0,0,1.1-.6C1816.18-970.84,1816.38-970.74,1816.08-970.84Zm14.5-22.8a1.2,1.2,0,0,0-1.1.2c.3-.4,0-1-.2-1.3s-.1-.4-.4-.2a1.18,1.18,0,0,0-.3,1.5c-.3-.2-.9-.4-1.2,0s-.3.1-.1.3c.3.4.5.3,1.1.2a1,1,0,0,0-.5,1c.1.4-.1.3.2.2a1.16,1.16,0,0,0,.7-.7c0,.4.2.7.8.9.4.1.2,0,.3-.2.2-.4.1-.7-.3-1.1a1,1,0,0,0,1.1-.6C1830.68-993.64,1830.78-993.54,1830.58-993.64Zm20.6,29a1.2,1.2,0,0,0-1.1.2c.3-.4,0-1-.2-1.3s-.1-.4-.4-.2a1.18,1.18,0,0,0-.3,1.5c-.3-.2-.9-.4-1.2,0s-.3.1-.1.3c.3.4.5.3,1.1.2a1,1,0,0,0-.5,1c.1.4-.1.3.2.2a1.16,1.16,0,0,0,.7-.7c0,.4.2.7.8.9.4.1.2,0,.3-.2.2-.4.1-.7-.3-1.1a1,1,0,0,0,1.1-.6C1851.28-964.74,1851.38-964.54,1851.18-964.64Zm23.9.7a1.2,1.2,0,0,0-1.1.2c.3-.4,0-1-.2-1.3s-.1-.4-.4-.2a1.18,1.18,0,0,0-.3,1.5c-.3-.2-.9-.4-1.2,0s-.3.1-.1.3c.3.4.5.3,1.1.2a1,1,0,0,0-.5,1c.1.4-.1.3.2.2a1.16,1.16,0,0,0,.7-.7c0,.4.2.7.8.9.4.1.2,0,.3-.2.2-.4.1-.7-.3-1.1a1,1,0,0,0,1.1-.6C1875.18-964,1875.28-963.84,1875.08-963.94Zm7.9,12.1a1.2,1.2,0,0,0-1.1.2c.3-.4,0-1-.2-1.3s-.1-.4-.4-.2a1.18,1.18,0,0,0-.3,1.5c-.3-.2-.9-.4-1.2,0s-.3.1-.1.3c.3.4.5.3,1.1.2a1,1,0,0,0-.5,1c.1.4-.1.3.2.2a1.16,1.16,0,0,0,.7-.7c0,.4.2.7.8.9.4.1.2,0,.3-.2.2-.4.1-.7-.3-1.1a1,1,0,0,0,1.1-.6C1883.18-951.84,1883.28-951.74,1883-951.84Zm15.1,2a1.2,1.2,0,0,0-1.1.2c.3-.4,0-1-.2-1.3s-.1-.4-.4-.2a1.18,1.18,0,0,0-.3,1.5c-.3-.2-.9-.4-1.2,0s-.3.1-.1.3c.3.4.5.3,1.1.2a1,1,0,0,0-.5,1c.1.4-.1.3.2.2a1.16,1.16,0,0,0,.7-.7c0,.4.2.7.8.9.4.1.2,0,.3-.2.2-.4.1-.7-.3-1.1a1,1,0,0,0,1.1-.6C1898.18-949.94,1898.28-949.74,1898.08-949.84Zm.1-7.4a1.2,1.2,0,0,0-1.1.2c.3-.4,0-1-.2-1.3s-.1-.4-.4-.2a1.18,1.18,0,0,0-.3,1.5c-.3-.2-.9-.4-1.2,0s-.3.1-.1.3c.3.4.5.3,1.1.2a1,1,0,0,0-.5,1c.1.4-.1.3.2.2a1.16,1.16,0,0,0,.7-.7c0,.4.2.7.8.9.4.1.2,0,.3-.2.2-.4.1-.7-.3-1.1a1,1,0,0,0,1.1-.6C1898.28-957.34,1898.38-957.14,1898.18-957.24Zm-44.9,4.1a1.2,1.2,0,0,0-1.1.2c.3-.4,0-1-.2-1.3s-.1-.4-.4-.2a1.18,1.18,0,0,0-.3,1.5c-.3-.2-.9-.4-1.2,0s-.3.1-.1.3c.3.4.5.3,1.1.2a1,1,0,0,0-.5,1c.1.4-.1.3.2.2a1.16,1.16,0,0,0,.7-.7c0,.4.2.7.8.9.4.1.2,0,.3-.2a.71.71,0,0,0-.3-1,1,1,0,0,0,1.1-.6C1853.48-953.24,1853.58-953,1853.28-953.14Zm-16.5-16.2a1.2,1.2,0,0,0-1.1.2c.3-.4,0-1-.2-1.3s-.1-.4-.4-.2a1.18,1.18,0,0,0-.3,1.5c-.3-.2-.9-.4-1.2,0s-.3.1-.1.3c.3.4.5.3,1.1.2a1,1,0,0,0-.5,1c.1.4-.1.3.2.2a1.16,1.16,0,0,0,.7-.7c0,.4.2.7.8.9.4.1.2,0,.3-.2.2-.4.1-.7-.3-1.1a1,1,0,0,0,1.1-.6C1836.88-969.34,1837.08-969.14,1836.78-969.34Zm-3.4-4.1a1.2,1.2,0,0,0-1.1.2c.3-.4,0-1-.2-1.3s-.1-.4-.4-.2a1.18,1.18,0,0,0-.3,1.5c-.3-.2-.9-.4-1.2,0s-.3.1-.1.3c.3.4.5.3,1.1.2a1,1,0,0,0-.5,1c.1.4-.1.3.2.2a1.16,1.16,0,0,0,.7-.7c0,.4.2.7.8.9.4.1.2,0,.3-.2a.71.71,0,0,0-.3-1,1,1,0,0,0,1.1-.6C1833.48-973.44,1833.58-973.24,1833.38-973.44Zm.6-6.2a1.2,1.2,0,0,0-1.1.2c.3-.4,0-1-.2-1.3s-.1-.4-.4-.2a1.18,1.18,0,0,0-.3,1.5c-.3-.2-.9-.4-1.2,0s-.3.1-.1.3c.3.4.5.3,1.1.2a1,1,0,0,0-.5,1c.1.4-.1.3.2.2a1.16,1.16,0,0,0,.7-.7c0,.4.2.7.8.9.4.1.2,0,.3-.2a.71.71,0,0,0-.3-1,1,1,0,0,0,1.1-.6C1834.08-979.74,1834.18-979.54,1834-979.64Z" transform="translate(-1699.98 1104.74)"/><path d="M2053.58-940.74c-.1,0-.8-.2-.8,1.9-.1,4.3-.2,11.1-.1,11.6.2,1,.5.9,1.2.9s1.4-.3,1.3-2.3c0-4,.1-10.7,0-11.2S2054.88-941,2053.58-940.74Z" transform="translate(-1699.98 1104.74)"/><path d="M2067.38-933.64c-.1,0-.8-.2-.9,1.9-.1,4.3-.2,11.1-.1,11.6.2,1,.6.9,1.3.9.9,0,1.5-.3,1.5-2.3,0-4,.1-10.7,0-11.2S2068.78-933.94,2067.38-933.64Z" transform="translate(-1699.98 1104.74)"/><path d="M2074.38-935.64c-.1,0-.8-.2-.8,1.9-.1,4.3-.2,11.1-.1,11.6.2,1,.5.9,1.2.9s1.4-.3,1.3-2.3c0-4,.1-10.7,0-11.2S2075.68-935.94,2074.38-935.64Z" transform="translate(-1699.98 1104.74)"/><path d="M2059.48-941.84c-.1,0-.8-.2-.8,1.9-.1,4.3-.2,11.1-.1,11.6.2,1,.5.9,1.2.9s1.4-.3,1.3-2.3c0-4,.1-10.7,0-11.2S2060.78-942.14,2059.48-941.84Z" transform="translate(-1699.98 1104.74)"/><path d="M2110.38-927.64c-.1,0-.8-.2-.8,1.9-.1,4.2-.2,10.9-.1,11.4.2,1,.5.9,1.2.9.9,0,1.4-.3,1.3-2.2,0-3.9.1-10.5,0-11S2111.68-927.94,2110.38-927.64Z" transform="translate(-1699.98 1104.74)"/><path d="M2104.68-932c-.1,0-.8-.2-.8,1.9-.1,4.3-.2,11.1-.1,11.6.2,1,.5.9,1.2.9s1.4-.3,1.3-2.3c0-4,.1-10.7,0-11.2S2106-932.34,2104.68-932Z" transform="translate(-1699.98 1104.74)"/><path d="M2127.18-931.34c-.1,0-.8-.2-.8,1.9-.1,4.3-.2,11.1-.1,11.6.2,1,.5.9,1.2.9s1.4-.3,1.3-2.3c0-4,.1-10.7,0-11.2S2128.48-931.64,2127.18-931.34Z" transform="translate(-1699.98 1104.74)"/><path d="M2121.08-934c-.1,0-.8-.2-.8,1.9-.1,4.2-.2,10.9-.1,11.4.2,1,.5.9,1.2.9s1.4-.3,1.3-2.2c0-3.9.1-10.5,0-11S2122.28-934.34,2121.08-934Z" transform="translate(-1699.98 1104.74)"/><path class="cls-8" d="M2053.88-950.64a9.81,9.81,0,0,0-3.1,5.4c-.2.7-1.7,6.2,1.6,10.5,1.6,2,4.2,2.9,9.5,4.7,5.8,2,8.7,2.9,12.1,1.9a10.77,10.77,0,0,0,5.8-3.9,10.48,10.48,0,0,0,1.7-8.3,11.87,11.87,0,0,0-2.6-5.4c-1-1.1-2.8-2.8-8.8-4.4C2062.68-952.14,2057.48-953.54,2053.88-950.64Z" transform="translate(-1699.98 1104.74)"/><path class="cls-8" d="M2101.08-937.54a8.62,8.62,0,0,0-.2,6.1c.2.7,1.5,6.2,6.4,8.6,2.4,1.1,5.1.7,10.7,0,6.1-.8,9.2-1.3,11.7-3.6a10.78,10.78,0,0,0,3.4-6c.7-4.2-1.9-7.4-2.4-8.1a11.29,11.29,0,0,0-4.9-3.6c-1.4-.6-3.8-1.2-9.9,0C2108.28-942.74,2102.88-941.74,2101.08-937.54Z" transform="translate(-1699.98 1104.74)"/><path d="M2077.18-941.54a5.21,5.21,0,0,0-3.1,2.3c-1.8,3.1,1.3,6.8,1.6,7.3.8,1,2.1,2.6,4.3,2.7a5.41,5.41,0,0,0,5.1-3c1.5-3.1-1.2-6.2-1.5-6.6S2080.48-942.34,2077.18-941.54Z" transform="translate(-1699.98 1104.74)"/><path d="M2104.78-939.94a4.38,4.38,0,0,1,2.9,2.3c1.7,3.1-1.2,6.8-1.5,7.3-.7,1-1.9,2.6-3.9,2.7a5,5,0,0,1-4.7-3c-1.4-3.1,1.1-6.2,1.4-6.6S2101.78-940.74,2104.78-939.94Z" transform="translate(-1699.98 1104.74)"/><path d="M2079.38-940.84a1.46,1.46,0,0,0-.5.8.87.87,0,0,0,.7,1,5.23,5.23,0,0,0,2.1-.1,7.66,7.66,0,0,0,2.6-.6,4.79,4.79,0,0,0,1.1-.8.76.76,0,0,0,.1-1,1,1,0,0,0-.7-.4,4.17,4.17,0,0,0-1.9.1A9.22,9.22,0,0,0,2079.38-940.84Z" transform="translate(-1699.98 1104.74)"/><path class="cls-8" d="M2126.28-943.14a2.82,2.82,0,0,0,0,1.3,2.61,2.61,0,0,0,1.5,1.7,4.23,4.23,0,0,0,2.2-.1,3.87,3.87,0,0,0,2.4-.9,1.93,1.93,0,0,0,.6-1.3,2,2,0,0,0-.6-1.6,2.89,2.89,0,0,0-1.1-.7,3.72,3.72,0,0,0-2.1.1C2127.78-944.34,2126.68-944,2126.28-943.14Z" transform="translate(-1699.98 1104.74)"/><path d="M2071.08-940.54a2.26,2.26,0,0,0-.7.6,1.56,1.56,0,0,0,.6,1.2,3.52,3.52,0,0,0,1.6.5,7.94,7.94,0,0,0,2.5.2,1.91,1.91,0,0,0,1.2-.5.87.87,0,0,0,.4-1,.81.81,0,0,0-.5-.6,5.76,5.76,0,0,0-1.8-.5C2072.88-940.84,2071.78-940.94,2071.08-940.54Z" transform="translate(-1699.98 1104.74)"/><path d="M2105.38-939.44a1.46,1.46,0,0,0-.5.8.88.88,0,0,0,.6,1,4.75,4.75,0,0,0,2-.1,7,7,0,0,0,2.5-.6,3.14,3.14,0,0,0,1-.8.92.92,0,0,0,.1-1,1,1,0,0,0-.7-.4c-.2-.1-.6-.1-1.9.1S2106-940,2105.38-939.44Z" transform="translate(-1699.98 1104.74)"/><path d="M2096.88-939.24a2.26,2.26,0,0,0-.7.6,1.56,1.56,0,0,0,.6,1.2,3.52,3.52,0,0,0,1.6.5,7.94,7.94,0,0,0,2.5.2,2.77,2.77,0,0,0,1.2-.5.87.87,0,0,0,.4-1,.81.81,0,0,0-.5-.6,5.76,5.76,0,0,0-1.8-.5A8.38,8.38,0,0,0,2096.88-939.24Z" transform="translate(-1699.98 1104.74)"/><path class="cls-8" d="M2048.48-949.24a2.82,2.82,0,0,0,0,1.3,2.7,2.7,0,0,0,1.5,1.8,4.23,4.23,0,0,0,2.2-.1c1.3-.3,1.9-.4,2.4-.9a1.93,1.93,0,0,0,.6-1.3,2.29,2.29,0,0,0-.6-1.7,2.89,2.89,0,0,0-1.1-.7,3.72,3.72,0,0,0-2.1.1C2049.88-950.44,2048.78-950.14,2048.48-949.24Z" transform="translate(-1699.98 1104.74)"/><path d="M2040.58-981c.1,0,.6-.1.7,1.6.1,3.6.2,9.3.1,9.7-.1.8-.5.8-1,.8-.7,0-1.1-.2-1.1-1.9v-9.4C2039.28-980.64,2039.48-981.34,2040.58-981Z" transform="translate(-1699.98 1104.74)"/><path d="M2029-975.14c.1,0,.7-.1.7,1.6.1,3.6.2,9.3.1,9.7-.2.8-.5.8-1.1.8-.8,0-1.2-.2-1.2-1.9,0-3.4-.1-9,0-9.4S2027.88-975.34,2029-975.14Z" transform="translate(-1699.98 1104.74)"/><path d="M2023.08-976.84c.1,0,.6-.1.7,1.6.1,3.6.2,9.3.1,9.7-.1.8-.5.8-1,.8-.7,0-1.1-.2-1.1-1.9V-976C2021.88-976.44,2022.08-977,2023.08-976.84Z" transform="translate(-1699.98 1104.74)"/><path d="M2035.58-982c.1,0,.6-.1.7,1.6.1,3.6.2,9.3.1,9.7-.1.8-.5.8-1,.8-.7,0-1.1-.2-1.1-1.9v-9.4C2034.38-981.64,2034.58-982.24,2035.58-982Z" transform="translate(-1699.98 1104.74)"/><path d="M1991.38-972.74c.1,0,.6-.1.7,1.6.1,3.5.2,9.1.1,9.5-.1.8-.5.7-1,.8-.7,0-1.1-.2-1.1-1.9v-9.2C1990.08-972.34,1990.28-972.94,1991.38-972.74Z" transform="translate(-1699.98 1104.74)"/><path d="M1995.88-974c.1,0,.6-.1.7,1.6.1,3.6.2,9.3.1,9.7-.1.8-.5.8-1,.8-.7,0-1.1-.2-1.1-1.9v-9.4C1994.68-973.64,1994.88-974.34,1995.88-974Z" transform="translate(-1699.98 1104.74)"/><path d="M1978.88-973.14c.1,0,.6-.1.7,1.6.1,3.6.2,9.3.1,9.7-.1.8-.5.8-1,.8-.7,0-1.1-.2-1.1-1.9v-9.4C1977.68-972.74,1977.88-973.44,1978.88-973.14Z" transform="translate(-1699.98 1104.74)"/><path d="M1984.08-975.44c.1,0,.6-.1.7,1.6.1,3.5.2,9.1.1,9.5-.1.8-.5.7-1,.8-.7,0-1.1-.2-1.1-1.9v-9.2C1982.78-975.14,1983-975.74,1984.08-975.44Z" transform="translate(-1699.98 1104.74)"/><path class="cls-8" d="M2040.38-989.34a8.85,8.85,0,0,1,2.6,4.5c.2.6,1.4,5.2-1.4,8.8-1.3,1.7-3.5,2.5-7.9,4-4.8,1.6-7.3,2.4-10.2,1.6a9.07,9.07,0,0,1-4.9-3.2,8.58,8.58,0,0,1-1.4-7,9.88,9.88,0,0,1,2.2-4.6c.8-.9,2.4-2.3,7.4-3.7C2033-990.64,2037.38-991.74,2040.38-989.34Z" transform="translate(-1699.98 1104.74)"/><path class="cls-8" d="M2001.08-976.94a8.34,8.34,0,0,1-.4,5.1c-.2.6-1.8,5.1-6.2,6.5-2.1.7-4.3.1-8.9-1-5-1.3-7.5-1.9-9.4-4.2a8.76,8.76,0,0,1-2.2-5.3,9.06,9.06,0,0,1,2.8-6.5,10.3,10.3,0,0,1,4.5-2.6c1.2-.3,3.3-.6,8.2.9C1995.68-981.94,2000-980.54,2001.08-976.94Z" transform="translate(-1699.98 1104.74)"/><path d="M2020.88-981.74a4.21,4.21,0,0,1,2.6,1.9c1.5,2.6-1.1,5.7-1.4,6.1-.7.8-1.8,2.2-3.6,2.3a4.62,4.62,0,0,1-4.3-2.5c-1.3-2.6,1-5.2,1.3-5.6S2018.08-982.44,2020.88-981.74Z" transform="translate(-1699.98 1104.74)"/><path d="M1999-972.64a4,4,0,0,0-2.4,1.9c-1.4,2.6,1,5.7,1.2,6.1.6.8,1.6,2.2,3.3,2.3a4.28,4.28,0,0,0,4-2.5c1.2-2.6-.9-5.2-1.2-5.6S2001.58-973.34,1999-972.64Z" transform="translate(-1699.98 1104.74)"/><path d="M2019-981.14c.3.3.4.5.4.7a.79.79,0,0,1-.5.9,6.18,6.18,0,0,1-1.8-.1,5,5,0,0,1-2.1-.5,3.63,3.63,0,0,1-.9-.7c-.4-.5-.1-.8-.1-.8s.2-.3.6-.4a4.94,4.94,0,0,1,1.6.1A5.84,5.84,0,0,1,2019-981.14Z" transform="translate(-1699.98 1104.74)"/><path class="cls-8" d="M1979.68-983c.2.4,0,.8,0,1.1a2,2,0,0,1-1.2,1.4c-.4.2-.9.1-1.9-.1s-1.6-.3-2-.8a1.59,1.59,0,0,1-.5-1.1,1.85,1.85,0,0,1,.5-1.4,2.64,2.64,0,0,1,.9-.6,2.51,2.51,0,0,1,1.7.1C1978.48-984,1979.38-983.84,1979.68-983Z" transform="translate(-1699.98 1104.74)"/><path d="M2026-980.94a1.65,1.65,0,0,1,.6.5,1.26,1.26,0,0,1-.5,1,2.12,2.12,0,0,1-1.3.4,5.19,5.19,0,0,1-2.1.1,1.62,1.62,0,0,1-1-.4c-.5-.3-.4-.7-.3-.8s.1-.3.4-.5a3.4,3.4,0,0,1,1.5-.4A5.88,5.88,0,0,1,2026-980.94Z" transform="translate(-1699.98 1104.74)"/><path d="M1998.48-972.24a1.72,1.72,0,0,1,.4.7.79.79,0,0,1-.5.9,5.49,5.49,0,0,1-1.7-.1,5.39,5.39,0,0,1-2.1-.5,3.63,3.63,0,0,1-.9-.7.76.76,0,0,1-.1-.8c0-.1.2-.3.6-.4a4.93,4.93,0,0,1,1.6.1C1997.08-972.84,1998-972.74,1998.48-972.24Z" transform="translate(-1699.98 1104.74)"/><path d="M2005.68-972a1.65,1.65,0,0,1,.6.5,1.26,1.26,0,0,1-.5,1,2.12,2.12,0,0,1-1.3.4,5.19,5.19,0,0,1-2.1.1,1.62,1.62,0,0,1-1-.4c-.5-.3-.4-.7-.3-.8s.1-.3.4-.5a3.4,3.4,0,0,1,1.5-.4A5.7,5.7,0,0,1,2005.68-972Z" transform="translate(-1699.98 1104.74)"/><path d="M1949.88-953.14c.1,0,.6-.2.7,1.5.2,3.5.5,9.1.4,9.5-.1.8-.4.8-1,.8s-1.2-.2-1.2-1.8c-.1-3.3-.3-8.8-.3-9.2S1948.78-953.34,1949.88-953.14Z" transform="translate(-1699.98 1104.74)"/><path d="M1954.48-956.94c.1,0,.6-.2.7,1.6.2,3.6.5,9.3.4,9.7-.1.8-.4.8-1,.8s-1.2-.2-1.2-1.9c-.1-3.4-.3-9-.3-9.4C1953.28-956.44,1953.48-957.14,1954.48-956.94Z" transform="translate(-1699.98 1104.74)"/><path d="M1935.68-955.74c.1,0,.6-.2.7,1.6.2,3.6.5,9.3.4,9.7-.1.8-.4.8-1,.8s-1.2-.2-1.2-1.9c-.1-3.4-.3-9-.3-9.4C1934.48-955.34,1934.68-955.94,1935.68-955.74Z" transform="translate(-1699.98 1104.74)"/><path d="M1940.78-958.24c.1,0,.6-.2.7,1.5.2,3.5.5,9.1.4,9.5-.1.8-.4.8-1,.8s-1.2-.2-1.2-1.8c-.1-3.3-.3-8.8-.3-9.2S1939.68-958.44,1940.78-958.24Z" transform="translate(-1699.98 1104.74)"/><path class="cls-8" d="M1957.38-961.64a8.46,8.46,0,0,1,.4,5.1c-.1.6-1,5.3-5.1,7.4-1.9,1-4.3.8-8.9.3-5.1-.5-7.7-.8-9.9-2.7a9.25,9.25,0,0,1-3-4.9,8.7,8.7,0,0,1,1.8-6.8,9.54,9.54,0,0,1,4-3.2c1.2-.5,3.2-1.1,8.3-.3C1951.28-965.84,1955.78-965.14,1957.38-961.64Z" transform="translate(-1699.98 1104.74)"/><path d="M1954.18-963.54a3.92,3.92,0,0,0-2.4,2c-1.3,2.6,1.2,5.7,1.4,6,.7.8,1.7,2.1,3.4,2.2a4.14,4.14,0,0,0,3.9-2.6c1.1-2.6-1.1-5.2-1.4-5.5S1956.78-964.34,1954.18-963.54Z" transform="translate(-1699.98 1104.74)"/><path class="cls-8" d="M1936.08-965.64a1.39,1.39,0,0,1,0,1.1,2,2,0,0,1-1.2,1.4c-.4.2-.9.1-1.9-.1s-1.6-.3-2-.7a2.14,2.14,0,0,1-.6-1,1.85,1.85,0,0,1,.5-1.4,2.64,2.64,0,0,1,.9-.6,2.47,2.47,0,0,1,1.7.1C1934.88-966.64,1935.78-966.44,1936.08-965.64Z" transform="translate(-1699.98 1104.74)"/><path d="M1953.78-963.14a.87.87,0,0,1,.4.6.79.79,0,0,1-.5.9,4.52,4.52,0,0,1-1.7,0,8.68,8.68,0,0,1-2.1-.4,6.78,6.78,0,0,1-.9-.6.6.6,0,0,1-.1-.8c0-.1.2-.3.6-.4.2-.1.5-.1,1.6,0A7.45,7.45,0,0,1,1953.78-963.14Z" transform="translate(-1699.98 1104.74)"/><path d="M1960.88-963.14a1.65,1.65,0,0,1,.6.5,1.26,1.26,0,0,1-.5,1,2.78,2.78,0,0,1-1.3.5,5.61,5.61,0,0,1-2.1.2,1.62,1.62,0,0,1-1-.4.74.74,0,0,1-.4-.8c0-.1.1-.3.4-.5a3.4,3.4,0,0,1,1.5-.4C1959.38-963.24,1960.28-963.44,1960.88-963.14Z" transform="translate(-1699.98 1104.74)"/><path class="cls-8" d="M2044.88-988.24c.2.4,0,.8,0,1.1a2.27,2.27,0,0,1-1.2,1.5c-.4.2-.9.1-1.9-.1s-1.6-.3-2-.8a1.59,1.59,0,0,1-.5-1.1,1.68,1.68,0,0,1,.5-1.4,2.64,2.64,0,0,1,.9-.6,2.51,2.51,0,0,1,1.7.1C2043.68-989.24,2044.58-988.94,2044.88-988.24Z" transform="translate(-1699.98 1104.74)"/><path d="M2014.48-924.54c-.1,0-.5-.1-.5,1.2-.1,2.7-.1,7.1-.1,7.4.1.6.4.6.8.6.6,0,.9-.2.9-1.4v-7.2C2015.48-924.24,2015.38-924.74,2014.48-924.54Z" transform="translate(-1699.98 1104.74)"/><path d="M2011-925.64c-.1,0-.5-.1-.5,1.2-.1,2.8-.1,7.2-.1,7.5.1.6.4.6.8.6.6,0,.9-.2.9-1.5v-7.3C2012.08-925.44,2011.78-925.84,2011-925.64Z" transform="translate(-1699.98 1104.74)"/><path d="M2024.18-924.94c-.1,0-.5-.1-.5,1.2-.1,2.8-.1,7.2-.1,7.5.1.6.4.6.8.6.6,0,.9-.2.9-1.5v-7.3A.82.82,0,0,0,2024.18-924.94Z" transform="translate(-1699.98 1104.74)"/><path d="M2020.18-926.74c-.1,0-.5-.1-.5,1.2-.1,2.7-.1,7.1-.1,7.4.1.6.4.6.8.6.6,0,.9-.2.9-1.4v-7.2A.8.8,0,0,0,2020.18-926.74Z" transform="translate(-1699.98 1104.74)"/><path class="cls-8" d="M2006.88-927.84a6.46,6.46,0,0,0,.3,4,8.5,8.5,0,0,0,4.8,5.1c1.6.5,3.4.1,6.9-.8,3.9-1,5.8-1.5,7.3-3.2a6.54,6.54,0,0,0,1.7-4.1,7.06,7.06,0,0,0-2.2-5.1,7.86,7.86,0,0,0-3.5-2c-.9-.3-2.6-.5-6.4.7C2011.18-931.74,2007.78-930.64,2006.88-927.84Z" transform="translate(-1699.98 1104.74)"/><path d="M2008.58-924.54a3.27,3.27,0,0,1,1.9,1.5c1.1,2-.8,4.4-1,4.7a4,4,0,0,1-2.6,1.8,3.26,3.26,0,0,1-3.1-2c-.9-2,.7-4,.9-4.3S2006.58-925,2008.58-924.54Z" transform="translate(-1699.98 1104.74)"/><path class="cls-8" d="M2023.58-932.64a2.13,2.13,0,0,0,0,.8,1.82,1.82,0,0,0,1,1.1,2.7,2.7,0,0,0,1.5-.1c.8-.2,1.2-.2,1.6-.6a1.2,1.2,0,0,0,.4-.8,1.26,1.26,0,0,0-.4-1.1,1.4,1.4,0,0,0-.7-.4c-.2-.1-.5-.1-1.4.1S2023.78-933.24,2023.58-932.64Z" transform="translate(-1699.98 1104.74)"/><path d="M2009-924.24a.91.91,0,0,0-.3.5.59.59,0,0,0,.4.7c.2.1.6,0,1.3-.1a4.58,4.58,0,0,0,1.6-.4c.1-.1.5-.2.7-.5a.63.63,0,0,0,.1-.7c0-.1-.2-.2-.4-.3a2.79,2.79,0,0,0-1.2.1A8,8,0,0,0,2009-924.24Z" transform="translate(-1699.98 1104.74)"/><path d="M2003.38-924c-.3.1-.4.3-.4.4a1,1,0,0,0,.4.8,2.26,2.26,0,0,0,1,.3,4.76,4.76,0,0,0,1.6.1,2,2,0,0,0,.8-.3c.4-.3.3-.6.3-.6s-.1-.2-.3-.4-.4-.2-1.2-.3A5.28,5.28,0,0,0,2003.38-924Z" transform="translate(-1699.98 1104.74)"/><path class="cls-3" d="M3140-966.34c-92.8,124-825.1,240.4-955.6,238.9s-456.8,51.7-484.4,70.7v1048H3140v-762.1" transform="translate(-1699.98 1104.74)"/><g class="cls-9"><path class="cls-10" d="M2189.78-491.24l-6.1-10.5-42.1,5.9,33.6-20.5-58.4-100.5-16.5,54.2,19.8,5.9-22.4,2.8-9.5,31.3,23,9-26.8,3.3-10.2,33.5,54.4-6.7,3.6,29.6,8.8-1.1-3.6-29.6Z" transform="translate(-1699.98 1104.74)"/></g><g class="cls-11"><path class="cls-10" d="M1982.78-588.24l-6.1-10.5-42.1,5.9,33.6-20.5-58.4-100.5-16.5,54.2,19.8,5.9-22.4,2.8-9.5,31.3,23,9-26.8,3.3-10.2,33.5,54.4-6.7,3.6,29.6,8.8-1.1-3.6-29.6Z" transform="translate(-1699.98 1104.74)"/></g><g class="cls-12"><path class="cls-10" d="M2235.38-682.24l-4.7-13.4-49.6-2.8,43.2-15.9-44.2-128.4-31.1,58.4,21.3,11.3-26.3-1.9-18,33.7,24.3,15.5-31.4-2.3-19.3,36.1,63.8,4.6-2.5,34.7,10.3.7,2.5-34.7Z" transform="translate(-1699.98 1104.74)"/></g><path class="cls-10" d="M2301.38-751.64l-15,94.5c44.4,4.6,120.2-6.1,151.9-30.9l-45.7-74.8-14.5,42.8-32.8-44.8-.4,33.7-25.8-66.9-3.7,97.2Z" transform="translate(-1699.98 1104.74)"/><path class="cls-10" d="M3140-640.64l-22.4-31.5-.4,34.7-25.8-68.9-3.7,100.2-13.9-52.4-15,97.4c22.3,2.4,52.6.8,81.2-4.7v-74.8Z" transform="translate(-1699.98 1104.74)"/><path class="cls-5" d="M3140-845.34a7.94,7.94,0,0,1-.6-2.2,5.79,5.79,0,0,1-2.3,3.7c-1.2.8-2.5.5-2.5-.5s.9-2.6,2.4-3.9a4.22,4.22,0,0,1-4.1-.5,2.36,2.36,0,0,1-.3-3.5c.9-.7,2.9-.6,4.6.6a5,5,0,0,1-.7-4.2c.5-1.4,1.9-2,2.7-1.2a2.63,2.63,0,0,1,.7,1.5v2.7c0,.1-.1.3-.1.4,0-.1.1-.1.1-.2v7.3Zm-24.1-16.5a3.16,3.16,0,0,1,2.8.6,2.13,2.13,0,0,1-.2-2.7,2,2,0,0,1,2.6-.4,2.42,2.42,0,0,1-.1,3.2,4.61,4.61,0,0,1,2.8-.6c.9.2,1.2.9.8,1.4a4.21,4.21,0,0,1-3.2.4,3.52,3.52,0,0,1,1.7,2.1c.2.9-.2,1.5-.8,1.4a4.68,4.68,0,0,1-1.8-2.2,2.61,2.61,0,0,1-1.2,2.2,1.45,1.45,0,0,1-2.1-.6,2.64,2.64,0,0,1,1.3-2.5,3,3,0,0,1-2.6-.5A1.12,1.12,0,0,1,3115.88-861.84Zm-3.8-12.9a3.71,3.71,0,0,1,.5-3.4,2.63,2.63,0,0,1-3.2.5,2.42,2.42,0,0,1-.7-3.1c.6-.9,2.3-1.1,3.8-.1a5.16,5.16,0,0,1-.9-3.4c.2-1.1,1-1.6,1.6-1.1s1,2.1.7,3.7a4,4,0,0,1,2.4-2.2c1-.3,1.9.2,1.7.9s-1.2,1.7-2.5,2.3a3.21,3.21,0,0,1,2.8,1.2,1.72,1.72,0,0,1-.5,2.5,3.1,3.1,0,0,1-3.1-1.4,3.39,3.39,0,0,1-.4,3.1C3113.58-874.14,3112.48-874,3112.08-874.74Zm-31.4,18.5c-.1-1,.9-2.7,2.6-3.9a3.44,3.44,0,0,1-4.2-1.3,3.34,3.34,0,0,1,1-4.2c1.3-.7,3.5,0,4.7,2.1a7.15,7.15,0,0,1,.9-4.7c.8-1.2,2.2-1.3,2.6-.4s-.1,3.2-1.3,5a6,6,0,0,1,4.2-1.3c1.4.2,2.2,1.3,1.5,2.1a6.06,6.06,0,0,1-4.4,1.3,4.2,4.2,0,0,1,2.7,3.1c.2,1.5-.9,2.9-2.1,2.8s-2.5-1.5-3-3.5a4.83,4.83,0,0,1-2.3,3.6C3082.18-854.64,3080.78-855.14,3080.68-856.24Zm-12,6.8a2.78,2.78,0,0,1,2.6.6,2.13,2.13,0,0,1-.2-2.6,1.87,1.87,0,0,1,2.5-.3,2.39,2.39,0,0,1-.1,3,4.13,4.13,0,0,1,2.7-.5c.8.2,1.2.9.8,1.3a4.25,4.25,0,0,1-3,.4,3.54,3.54,0,0,1,1.6,2c.2.8-.2,1.4-.8,1.3a3.71,3.71,0,0,1-1.6-2.1,2.36,2.36,0,0,1-1.1,2.1c-.8.4-1.8.1-1.9-.5a2.67,2.67,0,0,1,1.2-2.4,2.89,2.89,0,0,1-2.4-.5C3068.18-848.34,3068.08-849.14,3068.68-849.44Zm16.6,10.7c1.2-.6,3.8-.2,6,1.3-1.5-1.8-1.7-4.3-.5-5.8a4.23,4.23,0,0,1,5.6-.8c1.5,1.2,1.7,4.3-.3,6.8a9.15,9.15,0,0,1,6.1-1.2c1.9.4,2.6,2,1.7,2.9s-3.9,1.5-6.7.8a7.31,7.31,0,0,1,3.6,4.5c.4,1.9-.5,3.3-1.8,2.9-1.1-.3-2.8-2.3-3.7-4.7a5.42,5.42,0,0,1-2.5,4.8c-1.8,1-4,.3-4.4-1.2s.6-3.8,2.8-5.4a6.57,6.57,0,0,1-5.5-1C3084.18-836.14,3084.08-838.14,3085.28-838.74Zm-39.7,11.7c1,.2,2.4,1.6,3,3.6a3.5,3.5,0,0,1,2.4-3.7,3.21,3.21,0,0,1,3.7,2.2c.3,1.4-1,3.4-3.4,3.9a7.19,7.19,0,0,1,4.2,2.2c.9,1.1.6,2.5-.4,2.6s-3-1-4.4-2.7a5.6,5.6,0,0,1,0,4.4c-.6,1.3-1.8,1.7-2.4.9s-.6-2.7,0-4.6a4.1,4.1,0,0,1-3.7,1.7,2.36,2.36,0,0,1-2.1-2.8c.4-1.1,2.2-2,4.2-1.9a5,5,0,0,1-2.8-3.2C3043.68-826,3044.48-827.24,3045.58-827Zm70.3-15.8a1.38,1.38,0,0,0,1.2,1.6,1.38,1.38,0,0,0,1.6-1.2,1.38,1.38,0,0,0-1.2-1.6A1.44,1.44,0,0,0,3115.88-842.84Zm-14.7-24.5a1.38,1.38,0,0,0,1.2,1.6,1.38,1.38,0,0,0,1.6-1.2,1.38,1.38,0,0,0-1.2-1.6A1.38,1.38,0,0,0,3101.18-867.34Zm-11.3,15.7a1.46,1.46,0,0,0,2,.5,1.46,1.46,0,0,0,.5-2,1.46,1.46,0,0,0-2-.5A1.46,1.46,0,0,0,3089.88-851.64Zm-36.5,10.5a1.46,1.46,0,0,0,2,.5,1.46,1.46,0,0,0,.5-2,1.46,1.46,0,0,0-2-.5A1.71,1.71,0,0,0,3053.38-841.14Zm30.7,10.8a.78.78,0,0,0,1,.3.78.78,0,0,0,.3-1,.78.78,0,0,0-1-.3A.78.78,0,0,0,3084.08-830.34Zm18.4-13a.78.78,0,0,0,1,.3.78.78,0,0,0,.3-1,.78.78,0,0,0-1-.3A.71.71,0,0,0,3102.48-843.34Zm24.2-25.7a.78.78,0,0,0,1,.3.78.78,0,0,0,.3-1,.78.78,0,0,0-1-.3A.73.73,0,0,0,3126.68-869Zm10.5,36.2a.78.78,0,0,0,1,.3.78.78,0,0,0,.3-1,.78.78,0,0,0-1-.3A.71.71,0,0,0,3137.18-832.84Zm-23,6.3a.78.78,0,0,0,1,.3.78.78,0,0,0,.3-1,.78.78,0,0,0-1-.3A.69.69,0,0,0,3114.18-826.54Zm-37.6,1.2a.78.78,0,0,0,1,.3.78.78,0,0,0,.3-1,.78.78,0,0,0-1-.3A.69.69,0,0,0,3076.58-825.34Zm-10.2,1.3a.78.78,0,0,0,1,.3.69.69,0,0,0,.3-1,.78.78,0,0,0-1-.3A.69.69,0,0,0,3066.38-824Zm-1.2-12.2c.1.2.3.2.5.1s.2-.3.1-.5-.3-.2-.5-.1S3065.08-836.44,3065.18-836.24Zm13.3-7.6c.1.2.3.2.5.1s.2-.3.1-.5-.3-.2-.5-.1A.35.35,0,0,0,3078.48-843.84Zm6.9-7.9c.1.2.3.2.5.1s.2-.3.1-.5-.3-.2-.5-.1A.44.44,0,0,0,3085.38-851.74Zm9.7-7.3c.1.2.3.2.5.1s.2-.3.1-.5-.3-.2-.5-.1A.44.44,0,0,0,3095.08-859Zm8,2.1c.1.2.3.2.5.1s.2-.3.1-.5-.3-.2-.5-.1S3103-857.14,3103.08-856.94Zm10.2-11.5c.1.2.3.2.5.1s.2-.3.1-.5-.3-.2-.5-.1S3113.18-868.64,3113.28-868.44Zm7-6.3c.1.2.3.2.5.1s.2-.3.1-.5-.3-.2-.5-.1S3120.18-874.94,3120.28-874.74Zm-13.9,12.6a1.89,1.89,0,0,1,1.4.2c-.4-.4,0-1,.3-1.3s.1-.4.5-.2.9,1.1.5,1.6a1.59,1.59,0,0,1,1.5,0c.3.3.3.1.2.3-.3.4-.7.3-1.4.2a1.08,1.08,0,0,1,.7,1.1c-.1.4.1.3-.2.2a1.63,1.63,0,0,1-.9-.8c0,.4-.2.7-1,.9-.5.1-.2,0-.4-.3s-.2-.8.4-1.1a1.34,1.34,0,0,1-1.4-.6C3106.18-862.14,3106.08-861.94,3106.38-862.14Zm25.4-17.6a1.13,1.13,0,0,1,1.2.2c-.3-.4,0-1.1.2-1.4s.1-.5.4-.2.8,1.1.4,1.7c.3-.2,1-.4,1.3,0s.3.1.1.4-.6.4-1.2.2a.93.93,0,0,1,.5,1.2c-.1.4.1.3-.2.2a1.51,1.51,0,0,1-.8-.8c0,.4-.2.8-1,1-.4.2-.2,0-.3-.3s-.1-.8.4-1.2a1.07,1.07,0,0,1-1.2-.6C3131.68-879.84,3131.58-879.64,3131.78-879.74Zm-23,32.4a1.13,1.13,0,0,1,1.2.2c-.3-.4,0-1.1.3-1.4s.1-.5.4-.2.8,1.1.4,1.7c.3-.2,1-.4,1.3,0s.3.1.1.4-.6.4-1.2.2a.93.93,0,0,1,.5,1.2c-.1.4.1.3-.2.2a1.51,1.51,0,0,1-.8-.8c0,.4-.2.8-.9,1-.4.2-.2,0-.3-.3s-.1-.8.4-1.2a1.07,1.07,0,0,1-1.2-.6C3108.58-847.44,3108.48-847.24,3108.78-847.34Zm-26.7.8a1.13,1.13,0,0,1,1.2.2c-.3-.4,0-1.1.3-1.4s.1-.5.4-.2.8,1.1.4,1.7c.3-.2,1-.4,1.3,0s.3.1.1.4-.6.4-1.2.2a.93.93,0,0,1,.5,1.2c-.1.4.1.3-.2.2a1.51,1.51,0,0,1-.8-.8c0,.4-.2.8-1,1-.4.2-.2,0-.3-.3s-.1-.8.4-1.2a1.07,1.07,0,0,1-1.2-.6C3081.88-846.64,3081.78-846.44,3082.08-846.54Zm-8.9,13.5a1.13,1.13,0,0,1,1.2.2c-.3-.4,0-1.1.2-1.4s.1-.5.4-.2.8,1.1.4,1.7c.3-.2,1-.4,1.3,0s.3.1.1.4-.6.4-1.2.2a.93.93,0,0,1,.5,1.2c-.1.4.1.3-.2.2a1.51,1.51,0,0,1-.8-.8c0,.4-.2.8-.9,1-.4.2-.2,0-.3-.3s-.1-.8.4-1.2a1.07,1.07,0,0,1-1.2-.6C3073-833,3072.88-832.84,3073.18-833Zm-16.8,2.2a1.13,1.13,0,0,1,1.2.2c-.3-.4,0-1.1.3-1.4s.1-.5.4-.2.8,1.1.4,1.7c.3-.2,1-.4,1.3,0s.3.1.1.4-.6.4-1.2.2a.93.93,0,0,1,.5,1.2c-.1.4.1.3-.2.2a1.51,1.51,0,0,1-.8-.8c0,.4-.2.8-.9,1-.4.2-.2,0-.3-.3s-.1-.8.4-1.2a1.07,1.07,0,0,1-1.2-.6C3056.18-830.84,3056.08-830.64,3056.38-830.84Zm-.2-8.3a1.13,1.13,0,0,1,1.2.2c-.3-.4,0-1.1.3-1.4s.1-.5.4-.2.8,1.1.4,1.7c.3-.2,1-.4,1.3,0s.3.1.1.4-.6.4-1.2.2a.93.93,0,0,1,.5,1.2c-.1.4.1.3-.2.2a1.51,1.51,0,0,1-.8-.8c0,.4-.2.8-.9,1-.4.2-.2,0-.3-.3s-.1-.8.4-1.2a1.07,1.07,0,0,1-1.2-.6C3056.08-839.14,3056-838.94,3056.18-839.14Zm50.2,4.6a1.13,1.13,0,0,1,1.2.2c-.3-.4,0-1.1.3-1.4s.1-.5.4-.2.8,1.1.4,1.7c.3-.2,1-.4,1.3,0s.3.1.1.4-.6.4-1.2.2a.93.93,0,0,1,.5,1.2c-.1.4.1.3-.2.2a1.51,1.51,0,0,1-.8-.8c0,.4-.2.8-.9,1-.4.2-.2,0-.3-.3s-.1-.8.4-1.2a1.07,1.07,0,0,1-1.2-.6C3106.18-834.54,3106.08-834.34,3106.38-834.54Zm18.4-18a1.13,1.13,0,0,1,1.2.2c-.3-.4,0-1.1.3-1.4s.1-.5.4-.2.8,1.1.4,1.7c.3-.2,1-.4,1.3,0s.3.1.1.4-.6.4-1.2.2a.93.93,0,0,1,.5,1.2c-.1.4.1.3-.2.2a1.51,1.51,0,0,1-.8-.8c0,.4-.2.8-.9,1-.4.2-.2,0-.3-.3s-.1-.8.4-1.2a1.07,1.07,0,0,1-1.2-.6C3124.68-852.64,3124.58-852.44,3124.78-852.54Zm3.9-4.6a1.13,1.13,0,0,1,1.2.2c-.3-.4,0-1.1.3-1.4s.1-.5.4-.2.8,1.1.4,1.7c.3-.2,1-.4,1.3,0s.3.1.1.4-.6.4-1.2.2a.93.93,0,0,1,.5,1.2c-.1.4.1.3-.2.2a1.51,1.51,0,0,1-.8-.8c0,.4-.2.8-.9,1-.4.2-.2,0-.3-.3s-.1-.8.4-1.2a1.07,1.07,0,0,1-1.2-.6C3128.48-857.14,3128.38-856.94,3128.68-857.14Zm-.7-7a1.13,1.13,0,0,1,1.2.2c-.3-.4,0-1.1.3-1.4s.1-.5.4-.2.8,1.1.4,1.7c.3-.2,1-.4,1.3,0s.3.1.1.4-.6.4-1.2.2a.93.93,0,0,1,.5,1.2c-.1.4.1.3-.2.2a1.51,1.51,0,0,1-.8-.8c0,.4-.2.8-.9,1-.4.2-.2,0-.3-.3s-.1-.8.4-1.2a1.07,1.07,0,0,1-1.2-.6C3127.88-864.24,3127.68-864,3128-864.14Z" transform="translate(-1699.98 1104.74)"/><path class="cls-5" d="M3095.78-753c.8.7,1.1,2.6.6,4.6a3.6,3.6,0,0,1,4-1.9,3.27,3.27,0,0,1,2,3.8c-.5,1.4-2.6,2.3-5,1.6a7.17,7.17,0,0,1,2.4,4.1c.2,1.5-.8,2.4-1.7,2s-2.1-2.4-2.3-4.6a5.79,5.79,0,0,1-2.3,3.7c-1.2.8-2.5.5-2.5-.5a6.54,6.54,0,0,1,2.4-3.9,4.22,4.22,0,0,1-4.1-.5,2.36,2.36,0,0,1-.3-3.5c.9-.7,2.9-.6,4.6.6a5,5,0,0,1-.7-4.2C3093.58-753.24,3095-753.84,3095.78-753Zm-23.5-4.7a3.16,3.16,0,0,1,2.8.6,2.13,2.13,0,0,1-.2-2.7,2,2,0,0,1,2.6-.4,2.42,2.42,0,0,1-.1,3.2,4.61,4.61,0,0,1,2.8-.6c.9.2,1.2.9.8,1.4a4.21,4.21,0,0,1-3.2.4,3.52,3.52,0,0,1,1.7,2.1c.2.9-.2,1.5-.8,1.4a4.09,4.09,0,0,1-1.7-2.2,2.61,2.61,0,0,1-1.2,2.2,1.45,1.45,0,0,1-2.1-.6,2.64,2.64,0,0,1,1.3-2.5,3,3,0,0,1-2.6-.5C3071.78-756.54,3071.78-757.44,3072.28-757.74Zm-3.7-12.9a3.71,3.71,0,0,1,.5-3.4,2.63,2.63,0,0,1-3.2.5,2.42,2.42,0,0,1-.7-3.1c.6-.9,2.3-1.1,3.8-.1a5.16,5.16,0,0,1-.9-3.4c.2-1.1,1-1.6,1.6-1.1a4.81,4.81,0,0,1,.7,3.7,4,4,0,0,1,2.4-2.2c1-.3,1.8.2,1.7.9s-1.1,1.7-2.5,2.3a3.21,3.21,0,0,1,2.8,1.2,1.72,1.72,0,0,1-.5,2.5,3.1,3.1,0,0,1-3.1-1.4,3.39,3.39,0,0,1-.4,3.1C3070.08-770.14,3069-769.94,3068.58-770.64Zm-31.4,18.5c-.1-1,.9-2.7,2.6-3.9a3.44,3.44,0,0,1-4.2-1.3,3.34,3.34,0,0,1,1-4.2c1.3-.7,3.5,0,4.7,2.1a7.15,7.15,0,0,1,.9-4.7c.8-1.2,2.2-1.3,2.6-.4s-.1,3.2-1.3,5a5.87,5.87,0,0,1,4.2-1.3c1.4.2,2.2,1.3,1.6,2.1a6.06,6.06,0,0,1-4.4,1.3,4.2,4.2,0,0,1,2.7,3.1c.2,1.5-.9,2.9-2.1,2.8s-2.5-1.5-3-3.5a4.57,4.57,0,0,1-2.3,3.6C3038.68-750.64,3037.28-751.14,3037.18-752.14Zm-12,6.7a2.78,2.78,0,0,1,2.6.6,2.13,2.13,0,0,1-.2-2.6,1.87,1.87,0,0,1,2.5-.3c.7.5.8,1.9-.1,3a4.13,4.13,0,0,1,2.7-.5c.8.2,1.2.9.8,1.3a4.25,4.25,0,0,1-3,.4,3.54,3.54,0,0,1,1.6,2c.2.8-.2,1.4-.8,1.3a3.71,3.71,0,0,1-1.6-2.1,2.36,2.36,0,0,1-1.1,2.1,1.47,1.47,0,0,1-2-.5,2.67,2.67,0,0,1,1.2-2.4,2.89,2.89,0,0,1-2.4-.5C3024.58-744.24,3024.58-745.14,3025.18-745.44Zm16.6,10.7c1.2-.6,3.8-.2,6,1.3-1.5-1.8-1.7-4.3-.5-5.8a4.23,4.23,0,0,1,5.6-.8c1.4,1.2,1.7,4.3-.3,6.8a9.15,9.15,0,0,1,6.1-1.2c1.9.4,2.6,2,1.7,3s-3.9,1.5-6.7.8a7.31,7.31,0,0,1,3.6,4.5c.4,1.9-.5,3.3-1.8,2.9-1.1-.3-2.8-2.3-3.7-4.7a5.31,5.31,0,0,1-2.5,4.8c-1.8,1-4,.3-4.5-1.2s.6-3.8,2.8-5.4a6.57,6.57,0,0,1-5.5-1C3040.68-732.14,3040.58-734,3041.78-734.74Zm-39.7,11.7c1,.2,2.4,1.6,3,3.6a3.5,3.5,0,0,1,2.4-3.7,3.21,3.21,0,0,1,3.7,2.2c.3,1.4-1,3.3-3.4,3.9a7.19,7.19,0,0,1,4.2,2.2c.9,1.1.6,2.5-.4,2.6s-3-1-4.4-2.7a5.6,5.6,0,0,1,0,4.4c-.6,1.3-1.8,1.7-2.4.9s-.6-2.7,0-4.6a4.21,4.21,0,0,1-3.7,1.7,2.36,2.36,0,0,1-2.1-2.8c.4-1.1,2.2-2,4.2-1.9a4.7,4.7,0,0,1-2.8-3.2C3000.08-722,3001-723.24,3002.08-723Zm113.7-35.7c.9-.5,2.9-.2,4.6,1a3.52,3.52,0,0,1-.4-4.4,3.16,3.16,0,0,1,4.2-.6c1.1.9,1.3,3.3-.2,5.2a6.76,6.76,0,0,1,4.6-.9c1.4.3,2,1.5,1.3,2.2s-3,1.1-5.1.6a5.38,5.38,0,0,1,2.7,3.4c.3,1.4-.4,2.5-1.3,2.2a5.75,5.75,0,0,1-2.8-3.6,4,4,0,0,1-1.9,3.6,2.37,2.37,0,0,1-3.4-.9c-.3-1.1.5-2.9,2.1-4.1a5.09,5.09,0,0,1-4.2-.8C3114.88-756.74,3114.88-758.24,3115.78-758.74Zm-17.3-29.2c1.2-.6,3.7-.2,5.8,1.3a4.58,4.58,0,0,1-.5-5.6c1.3-1.6,4.1-1.9,5.4-.8s1.6,4.2-.3,6.6a9.31,9.31,0,0,1,5.9-1.2c1.8.4,2.6,2,1.7,2.9s-3.8,1.4-6.6.8a7.31,7.31,0,0,1,3.5,4.4c.4,1.8-.5,3.2-1.7,2.8s-2.8-2.2-3.6-4.6a5.52,5.52,0,0,1-2.4,4.7c-1.7,1-3.9.3-4.3-1.2s.6-3.7,2.7-5.3a6.35,6.35,0,0,1-5.4-1C3097.28-785.34,3097.18-787.24,3098.48-787.94Zm-3.2,21.6a1.38,1.38,0,0,0,1.2,1.6,1.38,1.38,0,0,0,1.6-1.2,1.38,1.38,0,0,0-1.2-1.6A1.32,1.32,0,0,0,3095.28-766.34Zm-22.9,27.6a1.38,1.38,0,0,0,1.2,1.6,1.38,1.38,0,0,0,1.6-1.2,1.38,1.38,0,0,0-1.2-1.6A1.32,1.32,0,0,0,3072.38-738.74Zm-14.7-24.5a1.38,1.38,0,0,0,1.2,1.6,1.38,1.38,0,0,0,1.6-1.2,1.38,1.38,0,0,0-1.2-1.6A1.32,1.32,0,0,0,3057.68-763.24Zm-11.3,15.7a1.46,1.46,0,0,0,2,.5,1.46,1.46,0,0,0,.5-2,1.46,1.46,0,0,0-2-.5A1.46,1.46,0,0,0,3046.38-747.54Zm-36.5,10.5a1.46,1.46,0,0,0,2,.5,1.46,1.46,0,0,0,.5-2,1.46,1.46,0,0,0-2-.5A1.55,1.55,0,0,0,3009.88-737Zm30.7,10.7a.78.78,0,0,0,1,.3.78.78,0,0,0,.3-1,.78.78,0,0,0-1-.3A.71.71,0,0,0,3040.58-726.34Zm18.3-13a.78.78,0,0,0,1,.3.78.78,0,0,0,.3-1,.78.78,0,0,0-1-.3A1,1,0,0,0,3058.88-739.34Zm24.3-25.6a.78.78,0,0,0,1,.3.78.78,0,0,0,.3-1,.78.78,0,0,0-1-.3A.69.69,0,0,0,3083.18-764.94Zm14.4-12.6a.78.78,0,0,0,1,.3.78.78,0,0,0,.3-1,.78.78,0,0,0-1-.3A.71.71,0,0,0,3097.58-777.54Zm11.2,19.5a.78.78,0,0,0,1,.3.78.78,0,0,0,.3-1,.78.78,0,0,0-1-.3A1,1,0,0,0,3108.78-758Zm-9.7,21.4a.78.78,0,0,0,1,.3.69.69,0,0,0,.3-1,.78.78,0,0,0-1-.3A.69.69,0,0,0,3099.08-736.64Zm-5.4,7.8a.78.78,0,0,0,1,.3.78.78,0,0,0,.3-1,.78.78,0,0,0-1-.3A.73.73,0,0,0,3093.68-728.84Zm-23,6.3a.78.78,0,0,0,1,.3.78.78,0,0,0,.3-1,.78.78,0,0,0-1-.3A.71.71,0,0,0,3070.68-722.54Zm-37.6,1.2a.78.78,0,0,0,1,.3.78.78,0,0,0,.3-1,.78.78,0,0,0-1-.3C3033-722.14,3032.78-721.64,3033.08-721.34Zm-10.2,1.3a.78.78,0,0,0,1,.3.78.78,0,0,0,.3-1,.78.78,0,0,0-1-.3A.71.71,0,0,0,3022.88-720Zm-1.2-12.2c.1.2.3.2.5.1s.2-.3.1-.5-.3-.2-.5-.1S3021.58-732.34,3021.68-732.24Zm13.2-7.5c.1.2.3.2.5.1s.2-.3.1-.5-.3-.2-.5-.1A.44.44,0,0,0,3034.88-739.74Zm7-8c.1.2.3.2.5.1s.2-.3.1-.5-.3-.2-.5-.1A.44.44,0,0,0,3041.88-747.74Zm9.7-7.3c.1.2.3.2.5.1s.2-.3.1-.5-.3-.2-.5-.1S3051.48-755.14,3051.58-755Zm8,2.2c.1.2.3.2.5.1s.2-.3.1-.5-.3-.2-.5-.1S3059.38-753,3059.58-752.84Zm10.1-11.6c.1.2.3.2.5.1s.2-.3.1-.5-.3-.2-.5-.1S3069.58-764.54,3069.68-764.44Zm7.1-6.3c.1.2.3.2.5.1s.2-.3.1-.5-.3-.2-.5-.1S3076.68-770.84,3076.78-770.74Zm-13.9,12.7a1.89,1.89,0,0,1,1.4.2c-.4-.4,0-1,.2-1.3s.1-.4.5-.2.9,1.1.5,1.6a1.59,1.59,0,0,1,1.5,0c.3.3.3.1.2.3-.3.4-.7.3-1.4.2a1.08,1.08,0,0,1,.7,1.1c-.1.4.1.3-.2.2a1.63,1.63,0,0,1-.9-.8c0,.4-.2.7-1.1.9-.5.1-.2,0-.4-.3s-.2-.8.4-1.1a1.34,1.34,0,0,1-1.4-.6C3062.68-758.14,3062.58-757.94,3062.88-758Zm41.6,7.8a1.13,1.13,0,0,1,1.2.2c-.3-.4,0-1.1.3-1.4s.1-.5.4-.2.8,1.1.4,1.7c.3-.2,1-.4,1.3,0s.3.1.1.4-.6.4-1.2.2a.93.93,0,0,1,.5,1.2c-.1.4.1.3-.2.2a1.51,1.51,0,0,1-.8-.8c0,.4-.2.8-.9,1-.4.2-.2,0-.3-.3s-.1-.8.4-1.2a1.07,1.07,0,0,1-1.2-.6C3104.28-750.34,3104.18-750.14,3104.48-750.24Zm-16.2-25.5a1.13,1.13,0,0,1,1.2.2c-.3-.4,0-1.1.3-1.4s.1-.5.4-.2.8,1.1.4,1.7c.3-.2,1-.4,1.3,0s.3.1.1.4-.6.4-1.2.2a.93.93,0,0,1,.5,1.2c-.1.4.1.3-.2.2a1.51,1.51,0,0,1-.8-.8c0,.4-.2.8-.9,1-.4.2-.2,0-.3-.3s-.1-.8.4-1.2a1.07,1.07,0,0,1-1.2-.6C3088.18-775.74,3088-775.54,3088.28-775.74Zm-23.1,32.4a1.13,1.13,0,0,1,1.2.2c-.3-.4,0-1.1.3-1.4s.1-.5.4-.2.8,1.1.4,1.7c.3-.2,1-.4,1.3,0s.3.1.1.4-.6.4-1.2.2a.93.93,0,0,1,.5,1.2c-.1.4.1.3-.2.2a1.51,1.51,0,0,1-.8-.8c0,.4-.2.8-.9,1-.4.2-.2,0-.3-.3s-.1-.8.4-1.2a1.07,1.07,0,0,1-1.2-.6C3065.08-743.34,3065-743.14,3065.18-743.34Zm-26.6.8a1.13,1.13,0,0,1,1.2.2c-.3-.4,0-1.1.2-1.4s.1-.5.4-.2.8,1.1.4,1.7c.3-.2,1-.4,1.3,0s.3.1.1.4-.6.4-1.2.2a.93.93,0,0,1,.5,1.2c-.1.4.1.3-.2.2a1.51,1.51,0,0,1-.8-.8c0,.4-.2.8-1,1-.4.2-.2,0-.3-.3s-.1-.8.4-1.2a1.07,1.07,0,0,1-1.2-.6C3038.38-742.64,3038.28-742.44,3038.58-742.54Zm-8.9,13.5a1.13,1.13,0,0,1,1.2.2c-.3-.4,0-1.1.3-1.4s.1-.5.4-.2.8,1.1.4,1.7c.3-.2,1-.4,1.3,0s.3.1.1.4-.6.4-1.2.2a.93.93,0,0,1,.5,1.2c-.1.4.1.3-.2.2a1.51,1.51,0,0,1-.8-.8c0,.4-.2.8-.9,1-.4.2-.2,0-.3-.3s-.1-.8.4-1.2a1.07,1.07,0,0,1-1.2-.6C3029.48-729,3029.38-728.84,3029.68-729Zm-16.8,2.3a1.13,1.13,0,0,1,1.2.2c-.3-.4,0-1.1.3-1.4s.1-.5.4-.2.8,1.1.4,1.7c.3-.2,1-.4,1.3,0s.3.1.1.4-.6.4-1.2.2a.93.93,0,0,1,.5,1.2c-.1.4.1.3-.2.2a1.51,1.51,0,0,1-.8-.8c0,.4-.2.8-.9,1-.4.2-.2,0-.3-.3s-.1-.8.4-1.2a1.07,1.07,0,0,1-1.2-.6C3012.68-726.84,3012.58-726.64,3012.88-726.74Zm-.2-8.3a1.13,1.13,0,0,1,1.2.2c-.3-.4,0-1.1.3-1.4s.1-.5.4-.2.8,1.1.4,1.7c.3-.2,1-.4,1.3,0s.3.1.1.4-.6.4-1.2.2a.93.93,0,0,1,.5,1.2c-.1.4.1.3-.2.2a1.51,1.51,0,0,1-.8-.8c0,.4-.2.8-.9,1-.4.2-.2,0-.3-.3s-.1-.8.4-1.2a1.07,1.07,0,0,1-1.2-.6C3012.58-735.14,3012.38-734.94,3012.68-735Zm50.2,4.6a1.13,1.13,0,0,1,1.2.2c-.3-.4,0-1.1.3-1.4s.1-.5.4-.2.8,1.1.4,1.7c.3-.2,1-.4,1.3,0s.3.1.1.4-.6.4-1.2.2a.93.93,0,0,1,.5,1.2c-.1.4.1.3-.2.2a1.51,1.51,0,0,1-.8-.8c0,.4-.2.8-.9,1-.4.2-.2,0-.3-.3s-.1-.8.4-1.2a1.07,1.07,0,0,1-1.2-.6C3062.68-730.54,3062.58-730.34,3062.88-730.44Zm18.4-18.1a1.13,1.13,0,0,1,1.2.2c-.3-.4,0-1.1.3-1.4s.1-.5.4-.2.8,1.1.4,1.7c.3-.2,1-.4,1.3,0s.3.1.1.4-.6.4-1.2.2a.93.93,0,0,1,.5,1.2c-.1.4.1.3-.2.2a1.51,1.51,0,0,1-.8-.8c0,.4-.2.8-.9,1-.4.2-.2,0-.3-.3s-.1-.8.4-1.2a1.07,1.07,0,0,1-1.2-.6C3081.18-748.54,3081.08-748.34,3081.28-748.54Zm3.8-4.5a1.13,1.13,0,0,1,1.2.2c-.3-.4,0-1.1.3-1.4s.1-.5.4-.2.8,1.1.4,1.7c.3-.2,1-.4,1.3,0s.3.1.1.4-.6.4-1.2.2a.93.93,0,0,1,.5,1.2c-.1.4.1.3-.2.2a1.51,1.51,0,0,1-.8-.8c0,.4-.2.8-.9,1-.4.2-.2,0-.3-.3s-.1-.8.4-1.2a1.07,1.07,0,0,1-1.2-.6C3085-753.14,3084.88-752.94,3085.08-753Zm-.6-7.1a1.13,1.13,0,0,1,1.2.2c-.3-.4,0-1.1.2-1.4s.1-.5.4-.2.8,1.1.4,1.7c.3-.2,1-.4,1.3,0s.3.1.1.4-.6.4-1.2.2a.93.93,0,0,1,.5,1.2c-.1.4.1.3-.2.2a1.51,1.51,0,0,1-.8-.8c0,.4-.2.8-.9,1-.4.2-.2,0-.3-.3s-.1-.8.4-1.2a1.07,1.07,0,0,1-1.2-.6C3084.28-760.14,3084.18-759.94,3084.48-760.14Z" transform="translate(-1699.98 1104.74)"/><path class="cls-5" d="M3138.78-771.14a.71.71,0,0,1-1-.3.71.71,0,0,1,.3-1,.71.71,0,0,1,1,.3A.71.71,0,0,1,3138.78-771.14Z" transform="translate(-1699.98 1104.74)"/><path class="cls-5" d="M3133.68-818.14a1.43,1.43,0,0,0-1.2-.2c-.3.1-.2-.1,0,.3a1.07,1.07,0,0,0,1.2.6.87.87,0,0,0-.4,1.2c.2.3-.1.4.3.3.7-.3,1-.6.9-1a1.25,1.25,0,0,0,.8.8c.3.1.1.2.2-.2a1.08,1.08,0,0,0-.5-1.2c.6.1.9.2,1.2-.2.2-.2.2-.1-.1-.4a1,1,0,0,0-1.3,0c.4-.6-.1-1.4-.4-1.7s-.1-.1-.4.2S3133.38-818.54,3133.68-818.14Z" transform="translate(-1699.98 1104.74)"/><path class="cls-5" d="M3130.58-795.54a1.43,1.43,0,0,0-1.2-.2c-.3.1-.2-.1,0,.3a1.07,1.07,0,0,0,1.2.6c-.5.4-.6.7-.4,1.2.2.3-.1.4.3.3.7-.3,1-.6.9-1a1.25,1.25,0,0,0,.8.8c.3.1.1.2.2-.2a1.08,1.08,0,0,0-.5-1.2c.6.1.9.2,1.2-.2.2-.2.2-.1-.1-.4a1,1,0,0,0-1.3,0c.4-.6-.1-1.4-.4-1.7s-.1-.1-.4.2S3130.18-795.94,3130.58-795.54Z" transform="translate(-1699.98 1104.74)"/><path class="cls-6" d="M3126.58-739.54c-.7-.7-2.6-.9-4.5-.3a3.57,3.57,0,0,0,1.5-4,3.24,3.24,0,0,0-3.8-1.7c-1.3.6-2,2.7-1.1,4.9a6.78,6.78,0,0,0-4.1-2.1c-1.4-.1-2.2.9-1.8,1.7s2.5,1.8,4.6,1.9a5.28,5.28,0,0,0-3.4,2.4c-.7,1.2-.3,2.4.6,2.4s2.5-1,3.6-2.5a4.1,4.1,0,0,0,.8,3.9,2.22,2.22,0,0,0,3.4,0c.6-.9.3-2.8-.9-4.4a5,5,0,0,0,4.1.4C3126.88-737.44,3127.38-738.84,3126.58-739.54Zm6.3,2.5a.67.67,0,0,1-1,0,.67.67,0,0,1,0-1,.67.67,0,0,1,1,0A.67.67,0,0,1,3132.88-737Zm3.4,22.3a.67.67,0,0,1-1,0,.67.67,0,0,1,0-1,.67.67,0,0,1,1,0A.67.67,0,0,1,3136.28-714.74Zm-1.4-14a1.38,1.38,0,0,0-1.2-.2c.4-.3.3-1,.1-1.4s0-.5-.3-.3a1.4,1.4,0,0,0-.8,1.5,1.09,1.09,0,0,0-1.2-.4c-.4.2-.3,0-.2.3.2.5.5.5,1.1.5a1,1,0,0,0-.8.9c0,.4-.1.3.1.3a1.19,1.19,0,0,0,.9-.5c-.1.4,0,.8.6,1.2.3.3.2.1.4-.2s.3-.7,0-1.2a.87.87,0,0,0,1.2-.3C3135.08-728.74,3135.08-728.54,3134.88-728.74Z" transform="translate(-1699.98 1104.74)"/><path class="cls-7" d="M3018.18-778.74c.8.7,1.1,2.6.6,4.6a3.6,3.6,0,0,1,4-1.9,3.27,3.27,0,0,1,2,3.8c-.5,1.4-2.6,2.3-4.9,1.6a7.17,7.17,0,0,1,2.4,4.1c.2,1.5-.8,2.4-1.7,2s-2.1-2.4-2.3-4.6a5.79,5.79,0,0,1-2.3,3.7c-1.2.8-2.5.5-2.5-.5s.9-2.6,2.4-3.9a4.22,4.22,0,0,1-4.1-.5,2.36,2.36,0,0,1-.3-3.5c.9-.7,2.9-.6,4.6.6a5,5,0,0,1-.7-4.2C3016-778.94,3017.38-779.54,3018.18-778.74Zm-23.4-4.7a3.2,3.2,0,0,1,2.8.6,2.13,2.13,0,0,1-.2-2.7,2,2,0,0,1,2.6-.4,2.42,2.42,0,0,1-.1,3.2,4.77,4.77,0,0,1,2.9-.6c.9.2,1.2.9.8,1.4a4.21,4.21,0,0,1-3.2.4,3.52,3.52,0,0,1,1.7,2.1c.2.9-.2,1.5-.8,1.4a4.68,4.68,0,0,1-1.8-2.2,2.79,2.79,0,0,1-1.1,2.2,1.45,1.45,0,0,1-2.1-.6,2.64,2.64,0,0,1,1.3-2.5,2.93,2.93,0,0,1-2.6-.5C2994.18-782.24,2994.18-783.14,2994.78-783.44Zm-3.8-12.9a3.71,3.71,0,0,1,.5-3.4,2.63,2.63,0,0,1-3.2.5,2.42,2.42,0,0,1-.7-3.1c.6-.9,2.3-1.1,3.8-.1a5.8,5.8,0,0,1-.9-3.4c.1-1.1,1-1.6,1.6-1.1s1,2.1.7,3.7a4,4,0,0,1,2.4-2.2c1-.3,1.9.2,1.7.9s-1.2,1.7-2.5,2.3a3.21,3.21,0,0,1,2.8,1.2,1.7,1.7,0,0,1-.5,2.5,3.1,3.1,0,0,1-3.1-1.4,3.39,3.39,0,0,1-.4,3.1C2992.48-795.84,2991.38-795.64,2991-796.34Zm-31.3,18.5c-.1-1,.9-2.7,2.6-3.9a3.44,3.44,0,0,1-4.2-1.3,3.34,3.34,0,0,1,1-4.2c1.3-.7,3.5,0,4.7,2.1a7.15,7.15,0,0,1,.9-4.7c.8-1.2,2.2-1.3,2.6-.4s-.1,3.2-1.3,5a5.87,5.87,0,0,1,4.2-1.3c1.5.2,2.2,1.3,1.6,2.1a6.06,6.06,0,0,1-4.4,1.3,4.2,4.2,0,0,1,2.7,3.1c.2,1.5-.9,2.9-2.1,2.8s-2.5-1.5-3-3.5a4.83,4.83,0,0,1-2.3,3.6C2961.18-776.34,2959.78-776.84,2959.68-777.84Zm-12.1,6.7a2.78,2.78,0,0,1,2.6.6,2.13,2.13,0,0,1-.2-2.6,1.87,1.87,0,0,1,2.5-.3,2.39,2.39,0,0,1-.1,3,4.13,4.13,0,0,1,2.7-.5c.8.2,1.2.9.8,1.3a4.25,4.25,0,0,1-3,.4,3.54,3.54,0,0,1,1.6,2c.2.8-.2,1.4-.8,1.3a3.71,3.71,0,0,1-1.6-2.1,2.36,2.36,0,0,1-1.1,2.1,1.47,1.47,0,0,1-2-.5,2.67,2.67,0,0,1,1.2-2.4,2.89,2.89,0,0,1-2.4-.5C2947.08-769.94,2947.08-770.84,2947.58-771.14Zm16.7,10.7c1.2-.6,3.8-.2,6,1.3a4.59,4.59,0,0,1-.5-5.8,4.23,4.23,0,0,1,5.6-.8c1.4,1.2,1.7,4.3-.3,6.8a9.15,9.15,0,0,1,6.1-1.2c1.9.4,2.6,2,1.7,3s-3.9,1.5-6.7.8a7.31,7.31,0,0,1,3.6,4.5c.5,1.9-.5,3.3-1.8,2.9-1.1-.3-2.8-2.3-3.7-4.7a5.31,5.31,0,0,1-2.5,4.8c-1.8,1-4,.3-4.4-1.2s.6-3.8,2.8-5.4a6.57,6.57,0,0,1-5.5-1C2963.08-757.84,2963-759.74,2964.28-760.44Zm-39.8,11.7c1,.2,2.4,1.6,3,3.6a3.5,3.5,0,0,1,2.4-3.7,3.21,3.21,0,0,1,3.7,2.2c.3,1.4-1,3.3-3.4,3.9a7.19,7.19,0,0,1,4.2,2.2c.9,1.1.6,2.5-.4,2.6s-3-1-4.4-2.7a5.6,5.6,0,0,1,0,4.4c-.6,1.3-1.8,1.7-2.4.9s-.6-2.7,0-4.6a4.21,4.21,0,0,1-3.7,1.7,2.36,2.36,0,0,1-2.1-2.8c.4-1.1,2.2-2,4.2-1.9a5,5,0,0,1-2.8-3.2C2922.58-747.74,2923.38-748.94,2924.48-748.74Zm113.8-35.7c.9-.5,2.9-.2,4.5,1a3.52,3.52,0,0,1-.4-4.4,3.16,3.16,0,0,1,4.2-.6c1.1.9,1.3,3.3-.2,5.2a6.93,6.93,0,0,1,4.7-.9c1.4.3,2,1.5,1.3,2.2s-3,1.1-5.1.6a5.38,5.38,0,0,1,2.7,3.4c.3,1.4-.4,2.5-1.3,2.2a5.75,5.75,0,0,1-2.8-3.6,4,4,0,0,1-1.9,3.6,2.37,2.37,0,0,1-3.4-.9c-.3-1.1.5-2.9,2.1-4.1a5.09,5.09,0,0,1-4.2-.8C3037.38-782.44,3037.28-783.94,3038.28-784.44Zm-17.4-29.2c1.1-.6,3.7-.2,5.8,1.3a4.58,4.58,0,0,1-.5-5.6c1.3-1.6,4.1-1.9,5.4-.8s1.6,4.2-.3,6.6a9.31,9.31,0,0,1,5.9-1.2c1.8.4,2.6,2,1.7,2.9s-3.8,1.4-6.6.8a7.31,7.31,0,0,1,3.5,4.4c.4,1.8-.5,3.2-1.7,2.8s-2.8-2.2-3.6-4.6a5.52,5.52,0,0,1-2.4,4.7c-1.7,1-3.9.3-4.3-1.2s.6-3.7,2.7-5.3a6.35,6.35,0,0,1-5.4-1C3019.78-811,3019.68-812.94,3020.88-813.64Zm-3.2,21.6a1.38,1.38,0,0,0,1.2,1.6,1.38,1.38,0,0,0,1.6-1.2,1.38,1.38,0,0,0-1.2-1.6A1.44,1.44,0,0,0,3017.68-792Zm-22.8,27.6a1.38,1.38,0,0,0,1.2,1.6,1.38,1.38,0,0,0,1.6-1.2,1.38,1.38,0,0,0-1.2-1.6A1.32,1.32,0,0,0,2994.88-764.44Zm-14.8-24.5a1.38,1.38,0,0,0,1.2,1.6,1.38,1.38,0,0,0,1.6-1.2,1.38,1.38,0,0,0-1.2-1.6A1.38,1.38,0,0,0,2980.08-788.94Zm-11.3,15.7a1.46,1.46,0,0,0,2,.5,1.46,1.46,0,0,0,.5-2,1.46,1.46,0,0,0-2-.5A1.55,1.55,0,0,0,2968.78-773.24Zm-36.4,10.5a1.46,1.46,0,0,0,2,.5,1.46,1.46,0,0,0,.5-2,1.46,1.46,0,0,0-2-.5A1.46,1.46,0,0,0,2932.38-762.74Zm30.7,10.7a.78.78,0,0,0,1,.3.78.78,0,0,0,.3-1,.78.78,0,0,0-1-.3A.71.71,0,0,0,2963.08-752Zm18.3-13a.78.78,0,0,0,1,.3.78.78,0,0,0,.3-1,.78.78,0,0,0-1-.3A.73.73,0,0,0,2981.38-765Zm24.2-25.6a.78.78,0,0,0,1,.3.78.78,0,0,0,.3-1,.78.78,0,0,0-1-.3A.78.78,0,0,0,3005.58-790.64Zm14.4-12.6a.78.78,0,0,0,1,.3.78.78,0,0,0,.3-1,.78.78,0,0,0-1-.3A.73.73,0,0,0,3020-803.24Zm11.3,19.5a.78.78,0,0,0,1,.3.78.78,0,0,0,.3-1,.78.78,0,0,0-1-.3A.71.71,0,0,0,3031.28-783.74Zm-9.7,21.4a.78.78,0,0,0,1,.3.78.78,0,0,0,.3-1,.78.78,0,0,0-1-.3A.69.69,0,0,0,3021.58-762.34Zm-5.5,7.8a.78.78,0,0,0,1,.3.69.69,0,0,0,.3-1,.78.78,0,0,0-1-.3C3016.08-755.24,3015.88-754.84,3016.08-754.54Zm-23,6.3a.78.78,0,0,0,1,.3.78.78,0,0,0,.3-1,.78.78,0,0,0-1-.3A.71.71,0,0,0,2993.08-748.24Zm-37.6,1.2a.78.78,0,0,0,1,.3.78.78,0,0,0,.3-1,.78.78,0,0,0-1-.3A.71.71,0,0,0,2955.48-747Zm-10.2,1.3a.78.78,0,0,0,1,.3.69.69,0,0,0,.3-1,.78.78,0,0,0-1-.3C2945.28-746.44,2945.08-746,2945.28-745.74Zm-1.2-12.1c.1.2.3.2.5.1s.2-.3.1-.5-.3-.2-.5-.1A.44.44,0,0,0,2944.08-757.84Zm13.3-7.6c.1.2.3.2.5.1s.2-.3.1-.5-.3-.2-.5-.1S2957.28-765.64,2957.38-765.44Zm7-8c.1.2.3.2.5.1s.2-.3.1-.5-.3-.2-.5-.1S2964.28-773.64,2964.38-773.44Zm9.6-7.3c.1.2.3.2.5.1s.2-.3.1-.5-.3-.2-.5-.1S2973.88-780.84,2974-780.74Zm8,2.2c.1.2.3.2.5.1s.2-.3.1-.5-.3-.2-.5-.1S2981.88-778.74,2982-778.54Zm10.2-11.6c.1.2.3.2.5.1s.2-.3.1-.5-.3-.2-.5-.1S2992.08-790.24,2992.18-790.14Zm7-6.2c.1.2.3.2.5.1s.2-.3.1-.5-.3-.2-.5-.1A.44.44,0,0,0,2999.18-796.34Zm-13.9,12.6a1.89,1.89,0,0,1,1.4.2c-.4-.4,0-1,.2-1.3s.1-.4.5-.2,1,1.1.5,1.6a1.59,1.59,0,0,1,1.5,0c.3.3.3.1.2.3-.3.4-.7.3-1.4.2a1.08,1.08,0,0,1,.7,1.1c-.1.4.1.3-.2.2a1.37,1.37,0,0,1-.9-.8c0,.4-.2.7-1,.9-.5.1-.2,0-.4-.3s-.1-.8.4-1.1a1.34,1.34,0,0,1-1.4-.6C2985.18-783.84,2985-783.64,2985.28-783.74Zm41.6,7.8a1.13,1.13,0,0,1,1.2.2c-.3-.4,0-1.1.2-1.4s.1-.5.4-.2.8,1.1.4,1.7c.3-.2,1-.4,1.3,0s.3.1.1.4-.6.4-1.2.2a.93.93,0,0,1,.5,1.2c-.1.4.1.3-.2.2a1.51,1.51,0,0,1-.8-.8c0,.4-.2.8-.9,1-.4.2-.2,0-.3-.3s-.1-.8.4-1.2a1.07,1.07,0,0,1-1.2-.6C3026.78-775.94,3026.58-775.74,3026.88-775.94Zm-16.1-25.5a1.13,1.13,0,0,1,1.2.2c-.3-.4,0-1.1.3-1.4s.1-.5.4-.2.8,1.1.4,1.7c.3-.2,1-.4,1.3,0s.3.1.1.4-.6.4-1.2.2a.93.93,0,0,1,.5,1.2c-.1.4.1.3-.2.2a1.51,1.51,0,0,1-.8-.8c0,.4-.2.8-.9,1-.4.2-.2,0-.3-.3s-.1-.8.4-1.2a1.07,1.07,0,0,1-1.2-.6C3010.58-801.44,3010.48-801.24,3010.78-801.44Zm-23.1,32.4a1.13,1.13,0,0,1,1.2.2c-.3-.4,0-1.1.3-1.4s.1-.5.4-.2.8,1.1.4,1.7c.3-.2,1-.4,1.3,0s.3.1.1.4-.6.4-1.2.2a.93.93,0,0,1,.5,1.2c-.1.4.1.3-.2.2a1.51,1.51,0,0,1-.8-.8c0,.4-.2.8-.9,1-.4.2-.2,0-.3-.3s-.1-.8.4-1.2a1.07,1.07,0,0,1-1.2-.6C2987.48-769,2987.38-768.84,2987.68-769Zm-26.7.8a1.13,1.13,0,0,1,1.2.2c-.3-.4,0-1.1.2-1.4s.1-.5.4-.2.8,1.1.4,1.7c.3-.2,1-.4,1.3,0s.3.1.1.4-.6.4-1.2.2a.93.93,0,0,1,.5,1.2c-.1.4.1.3-.2.2a1.51,1.51,0,0,1-.8-.8c0,.4-.2.8-.9,1-.4.2-.2,0-.3-.3s-.1-.8.4-1.2a1.07,1.07,0,0,1-1.2-.6C2960.78-768.34,2960.68-768.14,2961-768.24Zm-8.9,13.5a1.13,1.13,0,0,1,1.2.2c-.3-.4,0-1.1.2-1.4s.1-.5.4-.2.8,1.1.4,1.7c.3-.2,1-.4,1.3,0s.3.1.1.4-.6.4-1.2.2a.93.93,0,0,1,.5,1.2c-.1.4.1.3-.2.2a1.51,1.51,0,0,1-.8-.8c0,.4-.2.8-.9,1-.4.2-.2,0-.3-.3s-.1-.8.4-1.2a1.07,1.07,0,0,1-1.2-.6C2951.88-754.74,2951.78-754.54,2952.08-754.74Zm-16.8,2.3a1.13,1.13,0,0,1,1.2.2c-.3-.4,0-1.1.3-1.4s.1-.5.4-.2.8,1.1.4,1.7c.3-.2,1-.4,1.3,0s.3.1.1.4-.6.4-1.2.2a.93.93,0,0,1,.5,1.2c-.1.4.1.3-.2.2a1.51,1.51,0,0,1-.8-.8c0,.4-.2.8-.9,1-.4.2-.2,0-.3-.3s-.1-.8.4-1.2a1.07,1.07,0,0,1-1.2-.6C2935.18-752.54,2935-752.34,2935.28-752.44Zm-.1-8.3a1.13,1.13,0,0,1,1.2.2c-.3-.4,0-1.1.3-1.4s.1-.5.4-.2.8,1.1.4,1.7c.3-.2,1-.4,1.3,0s.3.1.1.4-.6.4-1.2.2a.93.93,0,0,1,.5,1.2c-.1.4.1.3-.2.2a1.51,1.51,0,0,1-.8-.8c0,.4-.2.8-.9,1-.4.2-.2,0-.3-.3s-.1-.8.4-1.2a1.07,1.07,0,0,1-1.2-.6C2935-760.84,2934.88-760.64,2935.18-760.74Zm50.1,4.6a1.13,1.13,0,0,1,1.2.2c-.3-.4,0-1.1.3-1.4s.1-.5.4-.2.8,1.1.4,1.7c.3-.2,1-.4,1.3,0s.3.1.1.4-.6.4-1.2.2a.93.93,0,0,1,.5,1.2c-.1.4.1.3-.2.2a1.51,1.51,0,0,1-.8-.8c0,.4-.2.8-.9,1-.4.2-.2,0-.3-.3s-.1-.8.4-1.2a1.07,1.07,0,0,1-1.2-.6C2985.18-756.24,2985-756,2985.28-756.14Zm18.5-18.1a1.13,1.13,0,0,1,1.2.2c-.3-.4,0-1.1.3-1.4s.1-.5.4-.2.8,1.1.4,1.7c.3-.2,1-.4,1.3,0s.3.1.1.4-.6.4-1.2.2a.93.93,0,0,1,.5,1.2c-.1.4.1.3-.2.2a1.51,1.51,0,0,1-.8-.8c0,.4-.2.8-.9,1-.4.2-.2,0-.3-.3s-.1-.8.4-1.2a1.07,1.07,0,0,1-1.2-.6C3003.58-774.24,3003.48-774,3003.78-774.24Zm3.8-4.5a1.13,1.13,0,0,1,1.2.2c-.3-.4,0-1.1.3-1.4s.1-.5.4-.2.8,1.1.4,1.7c.3-.2,1-.4,1.3,0s.3.1.1.4-.6.4-1.2.2a.93.93,0,0,1,.5,1.2c-.1.4.1.3-.2.2a1.51,1.51,0,0,1-.8-.8c0,.4-.2.8-.9,1-.4.2-.2,0-.3-.3s-.1-.8.4-1.2a1.07,1.07,0,0,1-1.2-.6C3007.38-778.84,3007.28-778.64,3007.58-778.74Zm-.7-7.1a1.13,1.13,0,0,1,1.2.2c-.3-.4,0-1.1.3-1.4s.1-.5.4-.2.8,1.1.4,1.7c.3-.2,1-.4,1.3,0s.3.1.1.4-.6.4-1.2.2a.93.93,0,0,1,.5,1.2c-.1.4.1.3-.2.2a1.51,1.51,0,0,1-.8-.8c0,.4-.2.8-.9,1-.4.2-.2,0-.3-.3s-.1-.8.4-1.2a1.07,1.07,0,0,1-1.2-.6C3006.78-785.84,3006.68-785.64,3006.88-785.84Z" transform="translate(-1699.98 1104.74)"/><g class="cls-13"><path class="cls-10" d="M3007.08-830.74l-7.3-12.8-50.9,6.6,40.9-24.4-69.4-122.1-20.6,65.3,23.8,7.4-27.1,3.1-11.8,37.7,27.7,11.1-32.4,3.7-12.7,40.3,65.8-7.5,4.1,35.8,10.6-1.2-4.1-35.8Z" transform="translate(-1699.98 1104.74)"/></g></svg>