<svg id="Layer_1" data-name="Layer 1" xmlns="http://www.w3.org/2000/svg" xmlns:xlink="http://www.w3.org/1999/xlink" viewBox="0 0 1440.14 1352.63"><defs><style>.cls-1{fill:#656565;}.cls-2{fill:#514747;}.cls-3{fill:#8c8c8c;}.cls-4{fill:#ca323d;}.cls-5{fill:#fff;}.cls-18,.cls-6{fill:none;stroke-miterlimit:10;}.cls-6{stroke:#f1f2f2;}.cls-7{fill:#2f3f44;}.cls-8{fill:#57666c;}.cls-9{fill:#aec3ce;}.cls-10{fill:#f7fcfe;}.cls-11{fill:#015345;}.cls-12{fill:#675c5c;}.cls-13{fill:#9d9d9d;}.cls-14{fill:url(#linear-gradient);}.cls-15{fill:url(#linear-gradient-2);}.cls-16{fill:url(#linear-gradient-3);}.cls-17{fill:#fffeed;}.cls-18{stroke:#000;}.cls-19{fill:#cd4e4e;}.cls-20{fill:#3a2817;}.cls-21{fill:#64512c;}.cls-22{fill:#e8e8e8;}</style><linearGradient id="linear-gradient" x1="3798.1" y1="1973.62" x2="3822.06" y2="1887.39" gradientTransform="matrix(1, 0, 0, -1, 0, 2880)" gradientUnits="userSpaceOnUse"><stop offset="0" stop-color="#543400"/><stop offset="0.13" stop-color="#523201"/><stop offset="0.22" stop-color="#4d2e04"/><stop offset="0.31" stop-color="#442608"/><stop offset="0.38" stop-color="#381b0c"/><stop offset="0.42" stop-color="#31120e"/></linearGradient><linearGradient id="linear-gradient-2" x1="3844.37" y1="1895.51" x2="3841.41" y2="1926.24" gradientTransform="matrix(1, 0, 0, -1, 0, 2880)" gradientUnits="userSpaceOnUse"><stop offset="0" stop-color="#fffcd9"/><stop offset="0.5" stop-color="#fef9d6"/><stop offset="0.68" stop-color="#f7f2ce"/><stop offset="0.82" stop-color="#eee8c1"/><stop offset="0.92" stop-color="#e0dab0"/><stop offset="1" stop-color="#d1cb9e"/></linearGradient><linearGradient id="linear-gradient-3" x1="3792.33" y1="1892.07" x2="3788.43" y2="1932.52" xlink:href="#linear-gradient-2"/></defs><path class="cls-1" d="M2692.05,315.72V1607.47H3828L3799,956.27,3591,614l-57,203-219.45-279-34.4,128.71-199.95-278.7-32.12,150L2794.26,259l-44.73,129Z" transform="translate(-2691.91 -259.04)"/><path class="cls-2" d="M2846.26,787.2l37.08-130.34L2715.46,456.44l-23.41-140.69V1604.47c64.23,0,680.26,35,874.86-49.3L3099,1166.77l105.9-31.77Z" transform="translate(-2691.91 -259.04)"/><path class="cls-2" d="M3510.71,1065.9l-76.08-60.59-62.32-213.85V668l-57.73-129.69-61.93,232.52L3198,909.36l92.9-28.17-38.23,211.23h77.61l-77.61,141.81,110.1-27.84,312,397.7,73.4-209.72L3794,1276.15,3519.5,1167.09Z" transform="translate(-2691.91 -259.04)"/><path class="cls-2" d="M2729.27,423.36l65-164.07,34.41,140.16,36.32,57V606.1l54.29,9.5,40.9,193.55-95.19,96-82.58-325.53Z" transform="translate(-2691.91 -259.04)"/><path class="cls-2" d="M3008,676.84l72.26-288.52,1.53,234.16L3152.1,737.1l-80.66,93,111.63,260.69L3631.9,1322l139.93,282.47-463.28-1.8,55.35-133.3L2849.7,928.68Z" transform="translate(-2691.91 -259.04)"/><path class="cls-2" d="M3404,1121.9,3591,614.29l12.24,123.79-12.62,133.29,84.11,73-34,90.71,185,161.13-53.9,135.58Z" transform="translate(-2691.91 -259.04)"/><path class="cls-3" d="M3084.05,306.13a4.85,4.85,0,0,0,.34-1,1.35,1.35,0,0,0-.34-.28,3,3,0,0,0-1-1.84,2.65,2.65,0,0,0-2.28-.63,2.48,2.48,0,0,0-1.36.92,3,3,0,0,0-.58,2.18c0,.12,0,.25,0,.37a5.25,5.25,0,0,0,.95.61,4.54,4.54,0,0,0,3.07.27A4.26,4.26,0,0,0,3084.05,306.13Z" transform="translate(-2691.91 -259.04)"/><path class="cls-4" d="M3136.48,305a21.2,21.2,0,0,1-8,3.61,25,25,0,0,1-9.3,0,25.61,25.61,0,0,1-2.62-.43c-4.73-1.07-4.8-1.71-10.13-3.27a37.21,37.21,0,0,0-9.33-1.86,20.27,20.27,0,0,0-6.06.41c-2,.45-4.88,1.22-6.28,2.28-.07.05-.06-.24-.23-.48a1.59,1.59,0,0,0-.46-.42.67.67,0,0,0,0-.17c0,.46.07.92.1,1.38a4.4,4.4,0,0,1-1.11.54,4.84,4.84,0,0,1-2.75,0,3.74,3.74,0,0,1-1.44-.82c0,.6,0,1.19.07,1.79l.24,35.89c0,1.81,0,3.62,0,5.43a4.3,4.3,0,0,0,1.9.47,7.22,7.22,0,0,0,2.64-.68l.53-.23v-.24c.4-.24,1-.56,1.65-.9a23.42,23.42,0,0,1,5-1.75,26,26,0,0,1,6.09-.67,27.62,27.62,0,0,1,6.34.88,91,91,0,0,1,10.1,3.06,21.77,21.77,0,0,0,4.23,1.2,28.23,28.23,0,0,0,8.93.62,23.33,23.33,0,0,0,8-2.43,22.5,22.5,0,0,0,2.5-1.55Q3136.83,325.79,3136.48,305Z" transform="translate(-2691.91 -259.04)"/><path class="cls-3" d="M3084.31,348.16a5.27,5.27,0,0,1-3.5,1,4.83,4.83,0,0,1-1.61-.41q0,24.81.08,49.63,1.29,7,2.57,14.07l2.37-13.84Z" transform="translate(-2691.91 -259.04)"/><path class="cls-5" d="M3093,320.58a38.27,38.27,0,0,1,4.59-.05,33.7,33.7,0,0,1,5.44.75c.24-3.08.49-6.17.73-9.25,1.23.17,2.21.33,2.84.43a35.62,35.62,0,0,0,5.56.71c.62,0,1.12,0,1.43,0-.1,3.24-.2,6.47-.31,9.71a20.6,20.6,0,0,0,2.59.38,21,21,0,0,0,6.57-.52c-.06,3.52-.11,7-.17,10.57-1.12,0-2.32,0-3.6,0a39.62,39.62,0,0,1-6.19-.82q-.36,4.69-.73,9.39c-1.29-.28-2.4-.48-3.25-.63a36.32,36.32,0,0,0-5.43-.63c-.56,0-1,0-1.35,0,0,0,.53-9.72.53-9.72s-2.55-.23-3.45-.29a22.9,22.9,0,0,0-6.09.44C3092.93,327.54,3092.85,324.07,3093,320.58Z" transform="translate(-2691.91 -259.04)"/><path class="cls-6" d="M2692.05,557c248.69,71.84,452.71,124.85,729.47,188.67,256.17,59.1,465.54,99.59,703,141.83" transform="translate(-2691.91 -259.04)"/><path class="cls-6" d="M2692.05,571.47c232.66,66.51,417.8,113.76,671.69,174.25,275.84,65.72,510,114.52,766.81,162.75" transform="translate(-2691.91 -259.04)"/><path class="cls-7" d="M2814,596.49l-17.25-4.42-1.66,6.45,17.26,4.42Z" transform="translate(-2691.91 -259.04)"/><path class="cls-7" d="M2845.62,605.29l-17.25-4.42-1.65,6.45,17.25,4.42Z" transform="translate(-2691.91 -259.04)"/><path class="cls-7" d="M2932.74,626.2l-17.25-4.42-1.65,6.44,17.25,4.42Z" transform="translate(-2691.91 -259.04)"/><path class="cls-7" d="M2964.23,633.79,2947,629.37l-1.65,6.44,17.25,4.42Z" transform="translate(-2691.91 -259.04)"/><path class="cls-7" d="M3051.14,653.73l-17.26-4.43-1.65,6.45,17.25,4.42Z" transform="translate(-2691.91 -259.04)"/><path class="cls-7" d="M3083,660.75l-17.25-4.42-1.65,6.44,17.25,4.42Z" transform="translate(-2691.91 -259.04)"/><path class="cls-8" d="M2800.36,594.41a5.13,5.13,0,0,0-2.35-3.87,4.83,4.83,0,0,0-5.27.47c-2.58,2.13-2.08,7.33.65,9a4.64,4.64,0,0,0,4.15.09A5.48,5.48,0,0,0,2800.36,594.41Z" transform="translate(-2691.91 -259.04)"/><path class="cls-8" d="M2818.6,599.08a5.12,5.12,0,0,0-2.35-3.86,4.79,4.79,0,0,0-5.27.47c-2.58,2.13-2.08,7.32.65,8.94a4.55,4.55,0,0,0,4.14.09A5.46,5.46,0,0,0,2818.6,599.08Z" transform="translate(-2691.91 -259.04)"/><path class="cls-8" d="M2831,603.15a5.17,5.17,0,0,0-2.36-3.87,4.81,4.81,0,0,0-5.27.48c-2.58,2.13-2.08,7.32.66,8.94a4.58,4.58,0,0,0,4.14.09A5.49,5.49,0,0,0,2831,603.15Z" transform="translate(-2691.91 -259.04)"/><path class="cls-8" d="M2849,607.37a5.17,5.17,0,0,0-2.36-3.87,4.83,4.83,0,0,0-5.27.47c-2.58,2.14-2.08,7.33.65,8.95a4.6,4.6,0,0,0,4.15.09A5.49,5.49,0,0,0,2849,607.37Z" transform="translate(-2691.91 -259.04)"/><path class="cls-8" d="M2918.47,623.75a5.14,5.14,0,0,0-2.36-3.86,4.79,4.79,0,0,0-5.27.47c-2.58,2.13-2.08,7.33.66,8.94a4.55,4.55,0,0,0,4.14.09A5.49,5.49,0,0,0,2918.47,623.75Z" transform="translate(-2691.91 -259.04)"/><path class="cls-8" d="M2937.14,628.7a5.15,5.15,0,0,0-2.36-3.87,4.83,4.83,0,0,0-5.27.47c-2.58,2.13-2.08,7.33.66,9a4.61,4.61,0,0,0,4.14.09A5.49,5.49,0,0,0,2937.14,628.7Z" transform="translate(-2691.91 -259.04)"/><path class="cls-8" d="M2949.94,631.34a5.12,5.12,0,0,0-2.35-3.86,4.79,4.79,0,0,0-5.27.47c-2.58,2.13-2.08,7.32.65,8.94a4.57,4.57,0,0,0,4.15.09A5.44,5.44,0,0,0,2949.94,631.34Z" transform="translate(-2691.91 -259.04)"/><path class="cls-8" d="M2968.22,635.71a5.14,5.14,0,0,0-2.36-3.86,4.79,4.79,0,0,0-5.27.47c-2.58,2.13-2.08,7.32.66,8.94a4.55,4.55,0,0,0,4.14.09A5.5,5.5,0,0,0,2968.22,635.71Z" transform="translate(-2691.91 -259.04)"/><path class="cls-8" d="M3036.86,652a5.17,5.17,0,0,0-2.36-3.87,4.81,4.81,0,0,0-5.27.48c-2.57,2.13-2.08,7.32.66,8.94a4.58,4.58,0,0,0,4.14.09A5.48,5.48,0,0,0,3036.86,652Z" transform="translate(-2691.91 -259.04)"/><path class="cls-8" d="M3054.64,656.2a5.17,5.17,0,0,0-2.36-3.87,4.83,4.83,0,0,0-5.27.47c-2.58,2.14-2.08,7.33.65,9a4.6,4.6,0,0,0,4.15.09A5.48,5.48,0,0,0,3054.64,656.2Z" transform="translate(-2691.91 -259.04)"/><path class="cls-8" d="M3069.31,659.08a5.18,5.18,0,0,0-2.36-3.87,4.83,4.83,0,0,0-5.27.47c-2.58,2.13-2.08,7.33.65,9a4.64,4.64,0,0,0,4.15.09A5.49,5.49,0,0,0,3069.31,659.08Z" transform="translate(-2691.91 -259.04)"/><path class="cls-8" d="M3087.27,662.94a5.14,5.14,0,0,0-2.36-3.86,4.79,4.79,0,0,0-5.27.47c-2.58,2.13-2.08,7.32.65,8.94a4.57,4.57,0,0,0,4.15.09A5.45,5.45,0,0,0,3087.27,662.94Z" transform="translate(-2691.91 -259.04)"/><path class="cls-9" d="M2804.64,601.47c.36,3.15.7,6.31,1.05,9.47l3.36-.78c-.36-2.78-.7-5.57-1.06-8.35a17.32,17.32,0,0,0,4.3.33,4.11,4.11,0,0,0,2.74-1.32c.24-.31.79-1,.48-1.7a1.67,1.67,0,0,0-1.35-.87,1.37,1.37,0,0,0-1.32.41,3.51,3.51,0,0,1-.48.82,1.47,1.47,0,0,1-1.07.28c-2.51,0-2.88-.06-2.88-.06a41.27,41.27,0,0,1-4.64-1.09c-2.65-.71-4.89-1.44-6.62-2.06a7.88,7.88,0,0,0-.08-1c-.08-.65-.13-1-.32-1.17a1.71,1.71,0,0,0-2,0,1.63,1.63,0,0,0-.48,1.2,4.36,4.36,0,0,0,.16,1.22,5.88,5.88,0,0,0,.37,1.19,8.57,8.57,0,0,0,1.55.77A68.46,68.46,0,0,0,2804.64,601.47Z" transform="translate(-2691.91 -259.04)"/><path class="cls-9" d="M2835.15,609.94l1,9.48,3.35-.79c-.35-2.77-.7-5.56-1.05-8.34a17.3,17.3,0,0,0,4.3.33,4.13,4.13,0,0,0,2.74-1.32c.24-.31.78-1,.48-1.71a1.7,1.7,0,0,0-1.36-.86,1.36,1.36,0,0,0-1.31.41,3.51,3.51,0,0,1-.48.82,1.5,1.5,0,0,1-1.08.28c-2.5,0-2.88-.06-2.88-.06a41.82,41.82,0,0,1-4.63-1.09c-2.65-.71-4.89-1.44-6.62-2.06a8,8,0,0,0-.08-1.06c-.08-.64-.14-1-.32-1.16a1.71,1.71,0,0,0-2,0,1.63,1.63,0,0,0-.48,1.19,4,4,0,0,0,.16,1.23,6.08,6.08,0,0,0,.37,1.19,8.57,8.57,0,0,0,1.55.77A66.13,66.13,0,0,0,2835.15,609.94Z" transform="translate(-2691.91 -259.04)"/><path class="cls-9" d="M2922.34,630.88c.36,3.16.7,6.31,1.06,9.47l3.35-.78c-.36-2.78-.7-5.57-1.06-8.35a17.34,17.34,0,0,0,4.3.33,4.11,4.11,0,0,0,2.74-1.32c.24-.3.79-1,.48-1.7a1.7,1.7,0,0,0-1.35-.87,1.37,1.37,0,0,0-1.32.41,2.91,2.91,0,0,1-.48.82,1.43,1.43,0,0,1-1.07.29c-2.5,0-2.88-.07-2.88-.07a41.29,41.29,0,0,1-4.63-1.09c-2.66-.7-4.9-1.44-6.63-2.06a8,8,0,0,0-.08-1.05c-.08-.65-.13-1-.32-1.16a1.69,1.69,0,0,0-2,0,1.56,1.56,0,0,0-.48,1.2,3.63,3.63,0,0,0,.16,1.23,5.23,5.23,0,0,0,.37,1.18,8.24,8.24,0,0,0,1.55.77A67.77,67.77,0,0,0,2922.34,630.88Z" transform="translate(-2691.91 -259.04)"/><path class="cls-9" d="M2951.62,637.77l1.05,9.48,3.35-.79c-.35-2.78-.69-5.56-1.05-8.34a52.13,52.13,0,0,0,7.14.59,4.13,4.13,0,0,0,2.75-1.32c.23-.31.78-1,.48-1.7a1.69,1.69,0,0,0-1.36-.87,1.35,1.35,0,0,0-1.31.41,3.92,3.92,0,0,1-.48.82c-.29.28-2,.37-3.63.28a15.92,15.92,0,0,1-3.18-.32,41.27,41.27,0,0,1-4.64-1.09c-2.65-.71-3.33-1.76-5.07-2.38a8,8,0,0,0-.08-1.06c-.08-.64-.13-1-.32-1.16a1.71,1.71,0,0,0-2,0,1.63,1.63,0,0,0-.48,1.19,4.41,4.41,0,0,0,.16,1.23,6.08,6.08,0,0,0,.37,1.19,8.57,8.57,0,0,0,1.55.77C2947.7,635.84,2948.94,637.07,2951.62,637.77Z" transform="translate(-2691.91 -259.04)"/><path class="cls-9" d="M3040.84,658.79c.36,3.16.7,6.32,1.06,9.47l3.35-.78c-.36-2.78-.7-5.56-1.05-8.34a17.76,17.76,0,0,0,4.29.33,4.12,4.12,0,0,0,2.74-1.33c.24-.3.79-1,.48-1.7a1.7,1.7,0,0,0-1.35-.87,1.35,1.35,0,0,0-1.31.42,3.5,3.5,0,0,1-.48.81,1.47,1.47,0,0,1-1.08.29c-2.5,0-2.88-.07-2.88-.07a38.25,38.25,0,0,1-4.63-1.08c-2.66-.71-4.9-1.44-6.63-2.07a8,8,0,0,0-.08-1c-.08-.65-.13-1-.32-1.16a1.68,1.68,0,0,0-2,0,1.55,1.55,0,0,0-.48,1.19,3.63,3.63,0,0,0,.16,1.23,5.48,5.48,0,0,0,.37,1.19,8.61,8.61,0,0,0,1.55.76A67.77,67.77,0,0,0,3040.84,658.79Z" transform="translate(-2691.91 -259.04)"/><path class="cls-9" d="M3070.85,665.69c.35,3.16.69,6.31,1.05,9.47l3.35-.78L3074.2,666a52.13,52.13,0,0,0,7.14.59,4.07,4.07,0,0,0,2.74-1.32c.24-.3.79-1,.48-1.7a1.7,1.7,0,0,0-1.35-.87,1.37,1.37,0,0,0-1.32.41,3.32,3.32,0,0,1-.48.82c-.28.29-2,.37-3.63.29a16.18,16.18,0,0,1-3.18-.33,41.29,41.29,0,0,1-4.63-1.09c-2.65-.7-3.33-1.76-5.08-2.38a7.68,7.68,0,0,0-.07-1.05c-.09-.65-.14-1-.32-1.16a1.71,1.71,0,0,0-2,0,1.56,1.56,0,0,0-.48,1.2,4,4,0,0,0,.16,1.23,5.23,5.23,0,0,0,.37,1.18,8.57,8.57,0,0,0,1.55.77C3066.93,663.75,3068.17,665,3070.85,665.69Z" transform="translate(-2691.91 -259.04)"/><path class="cls-9" d="M2820.15,678.24q.67,6.64,1.34,13.29l4.27-1.09q-.68-5.85-1.34-11.71l12.31,2.2a4.93,4.93,0,0,0,3.49-1.86,2.62,2.62,0,0,0,.6-2.39,2.14,2.14,0,0,0-1.72-1.22,2,2,0,0,0-1.83.61c-.31.42-.12.76-.45,1.12a1.74,1.74,0,0,1-1.38.4,50.28,50.28,0,0,1-10.5-1.82c-3.31-1-2.57-.56-5.9-1.53s-6.22-2-8.43-2.89a13.78,13.78,0,0,0-.1-1.48c-.11-.91-.17-1.36-.4-1.62a2,2,0,0,0-2.6,0,2.34,2.34,0,0,0-.6,1.67,6.26,6.26,0,0,0,.2,1.73c.09.45.24,1.09.45,1.83.65.31,1.31.61,2,.91A84.93,84.93,0,0,0,2820.15,678.24Z" transform="translate(-2691.91 -259.04)"/><path class="cls-9" d="M2936.88,706.47q.66,6.64,1.34,13.28l4.27-1.09q-.67-5.85-1.34-11.7l12.31,2.19a4.91,4.91,0,0,0,3.48-1.86,2.58,2.58,0,0,0,.61-2.38,2.15,2.15,0,0,0-1.73-1.22,2,2,0,0,0-1.82.6c-.32.43-.13.76-.46,1.12a1.72,1.72,0,0,1-1.37.41,50.72,50.72,0,0,1-10.51-1.83c-3.31-1-2.57-.55-5.89-1.52s-6.23-2-8.43-2.9c0-.35,0-.86-.1-1.47-.11-.91-.17-1.37-.41-1.63a2,2,0,0,0-2.59-.05,2.33,2.33,0,0,0-.61,1.68,6.21,6.21,0,0,0,.2,1.72c.1.46.24,1.09.46,1.83.65.31,1.3.62,2,.92A86,86,0,0,0,2936.88,706.47Z" transform="translate(-2691.91 -259.04)"/><path class="cls-9" d="M3057,733.29q.68,6.65,1.34,13.28l4.27-1.09q-.66-5.85-1.34-11.7l12.31,2.19a4.93,4.93,0,0,0,3.49-1.86,2.63,2.63,0,0,0,.61-2.38,2.15,2.15,0,0,0-1.73-1.22,2,2,0,0,0-1.83.6c-.31.43-.12.76-.45,1.12a1.72,1.72,0,0,1-1.37.41,50.72,50.72,0,0,1-10.51-1.83c-3.31-1-2.57-.55-5.9-1.52s-6.22-2-8.43-2.9a13.62,13.62,0,0,0-.1-1.47c-.11-.91-.17-1.37-.4-1.63a2,2,0,0,0-2.6,0,2.36,2.36,0,0,0-.6,1.68,6.21,6.21,0,0,0,.2,1.72c.09.46.24,1.09.46,1.83.64.31,1.3.62,2,.92A86.55,86.55,0,0,0,3057,733.29Z" transform="translate(-2691.91 -259.04)"/><path class="cls-10" d="M2806.76,664.2c-.08,1.29-.16,2.59-.25,3.89L2811,668a3.91,3.91,0,0,0,1.15-1,4.64,4.64,0,0,0,1-2.68,123.84,123.84,0,0,0-.07-20.21c-.54-5-.24-3.4-1-10.45-.18-1.79-.92-9-2.23-18.82-.43-3.2-.81-5.88-1.09-7.78l-3.57-.82c.14,1.16.33,2.88.58,5,1.09,9.3,1.5,11.57,2,16.32.57,5,.82,8.93,1.33,16.84a72.42,72.42,0,0,1-.06,14c-.24,2.1-.53,3.84-.77,5C2807.78,663.69,2807.28,663.94,2806.76,664.2Z" transform="translate(-2691.91 -259.04)"/><path class="cls-10" d="M2837.16,671.6c-.08,1.3-.17,2.59-.25,3.89l4.46-.07a4,4,0,0,0,1.15-1,4.72,4.72,0,0,0,1-2.68,123.68,123.68,0,0,0-.07-20.2c-.55-5.06-.24-3.41-1-10.46-.19-1.79-.93-9-2.23-18.81-.43-3.21-.81-5.89-1.09-7.78l-3.57-.83c.14,1.16.33,2.88.57,5,1.1,9.29,1.5,11.57,2,16.32.58,5,.83,8.92,1.34,16.83a72.43,72.43,0,0,1-.07,14c-.23,2.1-.53,3.84-.76,5C2838.19,671.09,2837.68,671.34,2837.16,671.6Z" transform="translate(-2691.91 -259.04)"/><path class="cls-10" d="M2924.29,693.15c-.09,1.29-.17,2.59-.25,3.89l4.46-.07a4,4,0,0,0,1.14-1,4.64,4.64,0,0,0,1-2.68,124.59,124.59,0,0,0-.06-20.21c-.55-5-.25-3.4-1-10.46-.19-1.78-.93-9-2.24-18.81-.42-3.2-.8-5.88-1.08-7.78l-3.57-.82c.13,1.16.33,2.88.57,5,1.1,9.3,1.5,11.57,2,16.32.57,5,.82,8.93,1.34,16.84a72.43,72.43,0,0,1-.07,14c-.24,2.1-.53,3.84-.77,5C2925.31,692.64,2924.8,692.89,2924.29,693.15Z" transform="translate(-2691.91 -259.04)"/><path class="cls-10" d="M2953.67,700.83c-.09,1.29-.17,2.59-.26,3.89l4.47-.07a4,4,0,0,0,1.14-1,4.64,4.64,0,0,0,1-2.68,123.78,123.78,0,0,0-.07-20.21c-.54-5-.24-3.4-1-10.46-.18-1.78-.92-9-2.23-18.81-.43-3.21-.8-5.88-1.08-7.78l-3.57-.82c.13,1.16.33,2.88.57,5,1.09,9.3,1.5,11.57,2,16.32.57,5,.82,8.93,1.34,16.83a72.53,72.53,0,0,1-.07,14c-.24,2.1-.53,3.84-.77,5Z" transform="translate(-2691.91 -259.04)"/><path class="cls-10" d="M3042.81,720.55c-.09,1.3-.17,2.6-.26,3.89l4.47-.06a4.2,4.2,0,0,0,1.14-1,4.69,4.69,0,0,0,1-2.68,123.78,123.78,0,0,0-.07-20.21c-.54-5-.24-3.4-1-10.46-.18-1.78-.92-9-2.23-18.81-.43-3.21-.81-5.88-1.08-7.78l-3.57-.82c.13,1.16.33,2.88.57,5,1.09,9.3,1.5,11.57,2,16.32.57,5,.82,8.93,1.34,16.83a72.43,72.43,0,0,1-.07,14c-.24,2.11-.53,3.84-.77,5C3043.83,720,3043.31,720.3,3042.81,720.55Z" transform="translate(-2691.91 -259.04)"/><path class="cls-10" d="M3072.74,726.73c-.08,1.29-.17,2.59-.25,3.89l4.46-.07a4,4,0,0,0,1.15-1,4.8,4.8,0,0,0,1-2.68,123.78,123.78,0,0,0-.07-20.21c-.55-5.05-.25-3.4-1-10.46-.19-1.78-.93-9-2.23-18.81-.43-3.2-.81-5.88-1.09-7.78l-3.57-.82c.14,1.16.33,2.88.57,5,1.1,9.3,1.5,11.57,2,16.32.57,5,.83,8.93,1.34,16.84a72.43,72.43,0,0,1-.07,14c-.23,2.1-.53,3.84-.76,5Z" transform="translate(-2691.91 -259.04)"/><path class="cls-10" d="M2803.53,692.18a16.25,16.25,0,0,0-.15-2.91l34.94-1.85v1.48h4.32c.09.7.17,1.4.25,2.1l4.81,1.61c.59,2.61,1.38,6.24,2.23,10.61a244.78,244.78,0,0,1,3.83,24.46,158.7,158.7,0,0,1,.24,26.06q-12,.27-24.82,1c-7.49.43-14.78,1-21.86,1.61l-5.68-1q-1.18-6.3-2.35-12.6a198.67,198.67,0,0,1-1.12-26.92c.14-3.2.53-9.43,1.12-16.06.19-2.16.37-4,.49-5.18l3.58-.75A13.27,13.27,0,0,0,2803.53,692.18Z" transform="translate(-2691.91 -259.04)"/><path class="cls-7" d="M2803.15,693.9l-3.37.69c-.12,1.23-.35,3.73-.54,5.89-.59,6.63-1,12.86-1.11,16.06a169.55,169.55,0,0,0,.53,18.94l6.73-.46Z" transform="translate(-2691.91 -259.04)"/><path class="cls-7" d="M2805.42,692.58l2.09,42.2,28-1.54-1.59-42Z" transform="translate(-2691.91 -259.04)"/><path class="cls-7" d="M2853.76,727.69a241.92,241.92,0,0,0-3.83-24.46c-.85-4.37-1.64-8-2.23-10.61l-4.16-1.39h-8.06l1.69,41.86h10.66l6.38.9C2854.1,731.69,2853.94,729.59,2853.76,727.69Z" transform="translate(-2691.91 -259.04)"/><path class="cls-8" d="M2806.64,717.1c4.83-10.43,10.83-19.15,17.7-25.57l-18.92.9Z" transform="translate(-2691.91 -259.04)"/><path class="cls-8" d="M2803.14,693.74l-3.36.7c-.13,1.23-.36,3.72-.55,5.89-.59,6.63-1,12.86-1.11,16.06a169.29,169.29,0,0,0,.53,18.93l1.43-.09a133.68,133.68,0,0,1,4.58-13.55Z" transform="translate(-2691.91 -259.04)"/><path class="cls-10" d="M2920.6,719.43a16.14,16.14,0,0,0-.15-2.9l34.94-1.85v1.48h4.32c.09.7.17,1.4.25,2.1l4.81,1.6c.59,2.61,1.38,6.25,2.23,10.62a244.78,244.78,0,0,1,3.83,24.46,158.7,158.7,0,0,1,.24,26.06q-12,.25-24.82,1c-7.49.43-14.78,1-21.86,1.61l-5.68-1q-1.18-6.3-2.35-12.59a198.75,198.75,0,0,1-1.12-26.92c.14-3.2.53-9.43,1.12-16.06.19-2.16.37-4,.49-5.19l3.58-.74A11.93,11.93,0,0,0,2920.6,719.43Z" transform="translate(-2691.91 -259.04)"/><path class="cls-7" d="M2920.23,721.14l-3.37.7c-.13,1.23-.35,3.72-.55,5.89-.59,6.63-1,12.86-1.11,16.06a171.72,171.72,0,0,0,.53,18.93l6.74-.45Z" transform="translate(-2691.91 -259.04)"/><path class="cls-7" d="M2922.5,719.84l2.09,42.18,28-1.53-1.6-42Z" transform="translate(-2691.91 -259.04)"/><path class="cls-7" d="M2970.84,754.94a244.87,244.87,0,0,0-3.84-24.45c-.85-4.37-1.63-8-2.22-10.62l-4.17-1.39h-8.05l1.69,41.87h10.66l6.38.89C2971.17,758.94,2971,756.84,2970.84,754.94Z" transform="translate(-2691.91 -259.04)"/><path class="cls-8" d="M2923.72,744.35c4.83-10.43,10.82-19.15,17.7-25.57l-18.93.9Z" transform="translate(-2691.91 -259.04)"/><path class="cls-8" d="M2920.21,721l-3.37.7c-.12,1.23-.35,3.72-.54,5.89-.59,6.63-1,12.86-1.11,16.06a169.29,169.29,0,0,0,.53,18.93l1.43-.09a133.68,133.68,0,0,1,4.58-13.55Z" transform="translate(-2691.91 -259.04)"/><path class="cls-10" d="M3038.06,747.81a16.06,16.06,0,0,0-.16-2.9l34.95-1.86v1.49h4.32c.08.7.17,1.39.24,2.09l4.82,1.61c.59,2.61,1.37,6.25,2.22,10.62a245,245,0,0,1,3.83,24.45,158.57,158.57,0,0,1,.25,26.06q-12,.27-24.83,1c-7.48.43-14.77,1-21.85,1.61l-5.69-1c-.78-4.2-1.56-8.39-2.35-12.6a198.93,198.93,0,0,1-1.11-26.92c.14-3.2.52-9.43,1.11-16.05.2-2.17.37-4,.5-5.19l3.58-.74A13.64,13.64,0,0,0,3038.06,747.81Z" transform="translate(-2691.91 -259.04)"/><path class="cls-7" d="M3037.68,749.52l-3.37.7c-.13,1.23-.35,3.72-.55,5.89-.59,6.62-1,12.85-1.11,16a171.83,171.83,0,0,0,.53,18.94l6.74-.45Z" transform="translate(-2691.91 -259.04)"/><path class="cls-7" d="M3040,748.21,3042,790.4l28-1.53-1.6-42Z" transform="translate(-2691.91 -259.04)"/><path class="cls-7" d="M3088.29,783.31a242.15,242.15,0,0,0-3.83-24.45c-.85-4.37-1.63-8-2.22-10.62l-4.17-1.39H3070l1.69,41.87h10.67l6.38.89C3088.63,787.32,3088.47,785.22,3088.29,783.31Z" transform="translate(-2691.91 -259.04)"/><path class="cls-8" d="M3041.16,772.73c4.84-10.43,10.83-19.16,17.7-25.57l-18.92.9Z" transform="translate(-2691.91 -259.04)"/><path class="cls-8" d="M3037.67,749.37l-3.37.7c-.12,1.23-.35,3.72-.55,5.88-.59,6.63-1,12.86-1.11,16.06a171.83,171.83,0,0,0,.53,18.94l1.43-.09a134.49,134.49,0,0,1,4.59-13.55Z" transform="translate(-2691.91 -259.04)"/><path class="cls-11" d="M2958.47,772.6a1.25,1.25,0,0,0,0-.15c0-.26-.17-1-.17-1s-.17-.08-.2-.07-.21.14-.38.26a.7.7,0,0,1-.14.08c-.16,0-.28-.06-.24-.2s0-.14.07-.26c.11-.43.37-1.42.41-1.54s-.06-.17-.15-.16l-1.31.09c-.06,0-.07,0-.09.06s0,.08-.05.11a.55.55,0,0,1-.08.15c0,.06-.07,0-.1,0a2,2,0,0,0-1.32-.4,2,2,0,0,0-2,1.84s0,.08,0,.08a.07.07,0,0,1,0,0l-.08.05-.72.43c-.19.1-.31,0-.26-.22,0,0,1-3.73,1.09-3.91s0-.14-.07-.13l-1.44.09c-.13,0-.16,0-.18.07a.05.05,0,0,0,0,0c-.05.22-.49,1.88-.62,2.29a.31.31,0,0,1-.18.22,2.23,2.23,0,0,1-.83.14H2949a1.26,1.26,0,0,1-.4-.14,2.83,2.83,0,0,0-1.57-.42,2,2,0,0,0-2,1.72s0,.12,0,.19,0,.1-.06.13-.21.13-.48.29a5.75,5.75,0,0,1-.54.26,1.29,1.29,0,0,1-.26.08.51.51,0,0,1-.58-.48.52.52,0,0,1,.5-.53.42.42,0,0,1,.26.06l.07,0a.11.11,0,0,0,.1,0l0-.06.8-1a.13.13,0,0,0,0-.19,1.89,1.89,0,0,0-1.25-.33,2,2,0,0,0-2,1.77s0,.07,0,.08a.12.12,0,0,1-.05.08.49.49,0,0,0-.11.07l-.56.35-.08,0c-.23.1-.3-.06-.28-.15l.42-1.54.09-.28c0-.09,0-.09-.1-.08l-.31,0-1.07.06c-.19,0-.18,0-.22.1s-.23.85-.3,1,0,.13-.05.15-.07.12-.18.19l-.32.23c-1,.68-1.08.6-1.51-.07,0,0-.06-.1-.07-.1s0-.09.05-.14a2.24,2.24,0,0,0,1.21-2.11c-.08-1.33-1.4-2.1-3.37-2-2.83.17-5,2.67-4.71,5,.34,2.68,2.59,2.41,3.8.82a6.32,6.32,0,0,0,.42-.72c.07-.17.11-.23.17-.37a2.7,2.7,0,0,0,.12-.37c.07-.24.15-.25.28,0A19.35,19.35,0,0,0,2936,774a1.7,1.7,0,0,0,1.32.56,2.21,2.21,0,0,0,1.18-.49,3,3,0,0,1,.37-.23.13.13,0,0,1,.19,0,1.58,1.58,0,0,0,1.31.52,1.8,1.8,0,0,0,.74-.22l.34-.2.51-.29c.11-.07.11-.07.22,0a2.49,2.49,0,0,0,1.54.49,5.41,5.41,0,0,0,1.82-.74c.07,0,.1,0,.16,0l.08.08a2.1,2.1,0,0,0,1.47.46,2.55,2.55,0,0,0,1.38-.52,1.91,1.91,0,0,0,.7-1.2,1.94,1.94,0,0,0,0-.24c0-.06,0-.1.13-.1l.3,0s.14,0,.13.08-.06.2-.08.35a1.12,1.12,0,0,0,0,.32,1.46,1.46,0,0,0,1.46,1.08h.25a1.85,1.85,0,0,0,.65-.22l.92-.52c.07,0,.11-.05.17,0l0,0a3.26,3.26,0,0,0,.73.41,2,2,0,0,0,.84.1,2,2,0,0,0,1.08-.39s.08-.07.16,0a1.3,1.3,0,0,0,.93.27,3.31,3.31,0,0,0,1.24-.54l.12-.07A.25.25,0,0,0,2958.47,772.6Zm-22.17-2.37c0,.88-1.26,1.39-1.41,1.44s-.08,0-.06-.06.06-.28.1-.47,0-.19-.14-.18l-1.5.09c-.12,0-.14,0-.18.17-.13.44-.29,1.14-.41,1.41a.93.93,0,0,1-.2.33c-.33.33-.65.2-.68-.28a3.31,3.31,0,0,1,3.13-3.2C2935.86,769.46,2936.32,769.91,2936.3,770.23Zm10.94,2.25a.52.52,0,0,1-.58-.46.55.55,0,0,1,1.1-.07A.52.52,0,0,1,2947.24,772.48Zm7.62-.46a.54.54,0,0,1-.59-.47.56.56,0,1,1,.59.47Z" transform="translate(-2691.91 -259.04)"/><path class="cls-12" d="M3652.38,998.3,2899.05,1604h1233V641L4024,689.13,3893,933Z" transform="translate(-2691.91 -259.04)"/><path class="cls-13" d="M4044.51,927.16,4132.05,641v963.5l-295-237.74,178.85-190.87L3939.47,1106l192.58-203.43Z" transform="translate(-2691.91 -259.04)"/><path class="cls-14" d="M3866.62,900.54c.14-.94.42-1.62,0-2.16a1.68,1.68,0,0,0-1-.5,11.72,11.72,0,0,0-3.13-.38,22.87,22.87,0,0,0-3.55.39l-1.57-2.63a2.67,2.67,0,0,0-1.18-.34,3.43,3.43,0,0,0-.94.13,4.66,4.66,0,0,1-2.12-.29c-1.11-.25-1.6.08-2.89.18-1.78.15-2.7-.33-4.19-.59a13.67,13.67,0,0,0-6.36.47,2.23,2.23,0,0,0-.88.36,2.53,2.53,0,0,0-.9,1.46c-.32,1.15-1.71,2.9-4.48,6.39-1.19,1.5-2.25,2.65-4.38,4.93s-2.61,2.65-3.75,4a37.38,37.38,0,0,0-3.61,5c-.32.08-.76.19-1.28.35a33.72,33.72,0,0,0-4.57,1.72c-2.44,1.18-2.39,1.87-4.48,3a15.63,15.63,0,0,1-5.74,1.74c-3,.44-3.65-.16-9.14-.57-5.14-.39-7.71-.58-10.34.27-.6.19-2.07.71-4.37,1.37l-3.1.85c-4.19,1.14-4.4,1.19-4.86,1.42a8.88,8.88,0,0,0-3.66,3.09,24.11,24.11,0,0,0-1.26,2.9c-.66,1.52-.87,1.88-1.54,3.34s-1.17,2.69-2.22,5.27c-1.32,3.23-2,4.84-2.09,5.21-1.15,3.71-.51,4.35-1.65,7.4a19,19,0,0,1-2.67,4.85c-1.91,2.48-2.82,2.26-5.37,5.07a25.26,25.26,0,0,0-3.49,4.89,17.93,17.93,0,0,0-2.17,6.64,16.71,16.71,0,0,0,.19,4.85,2.83,2.83,0,0,1,1.12-1.15,3.3,3.3,0,0,1,2.21-.22c3.2.57,7.51-2.42,7.79-2.62a14.07,14.07,0,0,0,3.89-4.38,11.47,11.47,0,0,0,2.15-5.54c.08-1.11-.06-2.13,0-2.14a24.45,24.45,0,0,1,.64,3.36c.57,3.18.65,2.87.8,4.06a20,20,0,0,1-.79,8.23c-.26.83-.53,1.49-.72,1.94.3,1,.61,1.94.91,2.92q1.71,5.45,3.37,10.87l10.76-.62a6.25,6.25,0,0,0-1.29-2.06,6.8,6.8,0,0,0-4.38-2,19.14,19.14,0,0,1-1-4c-.71-4.91.67-8.94,2.38-13.94a22.88,22.88,0,0,1,1.21-3,24.91,24.91,0,0,1,3.34-5,51.9,51.9,0,0,0,7.3-13.82c.28-.71.49-1.29.61-1.65a14.2,14.2,0,0,1,2.82.31c3.37.72,5.37,2.43,7.11,3.65a32.28,32.28,0,0,0,13,5,31.2,31.2,0,0,0,7.46.47,72.33,72.33,0,0,1,6.59,20.39,6.73,6.73,0,0,1,1.61.67c3.12,1.84,3.72,5.73,3.84,6.64l2.35,1,7.64-.68a6,6,0,0,0-.62-2.08,6.89,6.89,0,0,0-2.37-2.5,13.74,13.74,0,0,1-4-4.73c-.31-2.58-.56-5.35-.68-8.3a105.83,105.83,0,0,1,.15-11.4,13.31,13.31,0,0,0,3.17-.33,12.24,12.24,0,0,0,6.47-3.58,28.55,28.55,0,0,0,2.51-4.08,39.33,39.33,0,0,0,2.1-4,15.74,15.74,0,0,0,1.14-7.78,20,20,0,0,0-.67-2.83c-1.2-4.7-2.27-8.89-.47-12,1-1.77,2.68-2.72,5.27-4.19.37-.22,1.9-.94,4.95-2.38,2.8-1.32,3.84-1.8,4.88-3a8.54,8.54,0,0,0,1.71-3,1.84,1.84,0,0,1,.42-.58,2.29,2.29,0,0,1,1-.47c1.06-.37,1.51-2.08,1.59-3a7.81,7.81,0,0,0-.2-1.81A19.74,19.74,0,0,1,3866.62,900.54Z" transform="translate(-2691.91 -259.04)"/><path class="cls-15" d="M3842.86,953.62c-.14,3.89-.13,8.15.13,12.71.24,4.32.68,8.33,1.21,12a1.86,1.86,0,0,0,.36,1.37c.25.28.67.51,2.33.53,2.21,0,2.68-.39,3.39.06a3.41,3.41,0,0,1,1.14,1.65,6.39,6.39,0,0,1,.53,1.81l-9.74.94a11.36,11.36,0,0,1-1.16-1.23,16.41,16.41,0,0,1-2.09-3.81,12.09,12.09,0,0,0-2.83-3.67c.06-1.85,0-3.82-.08-5.9a69.34,69.34,0,0,0-2-12.92Z" transform="translate(-2691.91 -259.04)"/><path class="cls-16" d="M3798.84,953.35a54.62,54.62,0,0,1-10.56,19.49c.28.65,3.26,7.55,4.91,9.59a2.89,2.89,0,0,0,1.09.91c1.14.51,2.07-.11,3,0s2.07,1.27,3.37,3.54l-7.92,1c-1.77-1.61-3.57-3.22-5.42-4.83s-3.86-3.35-5.77-5c.07-1,.2-2.64.47-4.58.35-2.6.62-3.48.47-4.88a9.46,9.46,0,0,0-1.88-4.52c1.16-9.52,4.87-13.5,7.18-16.43.37-.47,1.33.1,2.22.72Z" transform="translate(-2691.91 -259.04)"/><path class="cls-17" d="M3766.55,972.07c-.15-1.2-.23-.89-.8-4.07a24.48,24.48,0,0,0-.64-3.35c-.08,0,.06,1,0,2.14a10,10,0,0,1-1.36,4.24,9.67,9.67,0,0,0-.28-2.5,10.36,10.36,0,0,1-2.16,2.68,10.63,10.63,0,0,1-3.67,2.12,5.7,5.7,0,0,0,2.47-4.08,20.12,20.12,0,0,1-4.58,3.71,21.1,21.1,0,0,1-3.54,1.67,29.76,29.76,0,0,1-.12-4,50.38,50.38,0,0,1,.53-5.15c.31-.38.65-.78,1-1.19a20.16,20.16,0,0,1,1.54-1.54,8.2,8.2,0,0,0,1.13,1.3,8,8,0,0,0,4.56,2.13,7.85,7.85,0,0,0,3.31-.36,44.94,44.94,0,0,1-.27-6.13c0-1.54.22-3,.57-6s.79-6,2.25-8.58c.66-1.18.92-1.19,1-1.16.29.08.14,1,.19,2.33.11,2.84,1,3.28.82,5.63-.09,1.15-.3,1-.38,2.25a14.09,14.09,0,0,0,.53,4,15.6,15.6,0,0,0,1.44,4.69c.62,1,1.19,2,2.13,2.15.49.08,1.46,0,3.66-2.63a40.68,40.68,0,0,0,3.24-4.91c2.49-3.72,4-4,6-7.63a21.81,21.81,0,0,0,1.49-3.2,35,35,0,0,1,6.5.22c3.42.43,12,1.52,19.43,6.52,1,.68,2.66,1.87,3.44,1.33.44-.3.52-1.08-.33-5.45-.74-3.84-1.12-4.82-1.19-6.91-.05-1.22-.18-4.65,1-5.06.54-.18,1.09.32,2.84,1.79,2.61,2.18,3.91,3.27,4.22,3.41,3.12,1.36,7.75-.76,10.07-3.8a9.67,9.67,0,0,0,1.18-2,20.32,20.32,0,0,1-3.78-4.36c-.53-.83-2.68-4.33-3.54-11.42-.65-5.35,0-8.36-.48-9.78.75-.82,1.4-1.44,3.05-3.21l.4-.43a2,2,0,0,0,.59,1c.84.75,1.93.23,3.3.8a5.32,5.32,0,0,1,2.11,2c1.66,2.24,1.79,3.55,2.92,5.72.78,1.49,2.78,5.32,5,5.16,1.11-.07,1.91-1.15,2.61-2.09,1.09-1.45.83-2.19,2.14-4.68a14.81,14.81,0,0,1,1.55-2.48c1.23-1.55,2.07-1.85,3.34-3a11.45,11.45,0,0,0,3.37-4.85,10.75,10.75,0,0,0-.11-6.22,14.85,14.85,0,0,0-1.5-3.77,3.08,3.08,0,0,0,.51,0,3.06,3.06,0,0,1,.94-.14l.4.05c.28.77.55,1.54.82,2.3a5.9,5.9,0,0,0,.8,0l.32,0,.41.68a24.17,24.17,0,0,1,3.55-.39c.07,0,.48,0,1.1,0-.45.08-.64.21-.7.37s.28.65,1,1.48,1.18,1.37,1.83,1.51a2.18,2.18,0,0,0,.83,0,26,26,0,0,0,.44,4.52,7.57,7.57,0,0,1,.21,1.81c-.08,1-.53,2.67-1.59,3a2.29,2.29,0,0,0-1,.47,1.84,1.84,0,0,0-.42.58,8.63,8.63,0,0,1-1.71,3c-1,1.16-2.08,1.64-4.89,3-3,1.44-4.57,2.16-4.94,2.37-2.59,1.48-4.25,2.43-5.27,4.2-1.8,3.13-.73,7.31.47,12a20.28,20.28,0,0,1,.67,2.82,15.76,15.76,0,0,1-1.14,7.79,40.45,40.45,0,0,1-2.1,4,28.55,28.55,0,0,1-2.51,4.08,12.31,12.31,0,0,1-6.47,3.58,13.75,13.75,0,0,1-3.17.32,105.91,105.91,0,0,0-.15,11.4c.13,2.95.37,5.73.68,8.31a13.84,13.84,0,0,0,4,4.73,6.89,6.89,0,0,1,2.37,2.5,6,6,0,0,1,.62,2.08l-7.64.68-2.35-1c-.12-.92-.72-4.8-3.84-6.64a6.72,6.72,0,0,0-1.61-.68,71.88,71.88,0,0,0-3.14-12.23,70.9,70.9,0,0,0-3.45-8.15,31.73,31.73,0,0,1-7.46-.47,32.22,32.22,0,0,1-13-5c-1.75-1.22-3.74-2.94-7.11-3.65a14.42,14.42,0,0,0-2.82-.32c-.12.36-.33.95-.61,1.66a52.05,52.05,0,0,1-7.3,13.82,24.79,24.79,0,0,0-3.34,5,23,23,0,0,0-1.21,3c-1.71,5-3.09,9-2.38,13.94a19.3,19.3,0,0,0,1,4,6.83,6.83,0,0,1,4.38,2,6.54,6.54,0,0,1,1.29,2.06l-10.76.63q-1.65-5.41-3.37-10.88c-.3-1-.61-1.94-.91-2.91.19-.45.46-1.12.72-1.94A20,20,0,0,0,3766.55,972.07Z" transform="translate(-2691.91 -259.04)"/><path class="cls-18" d="M3866.48,900.93a17.85,17.85,0,0,1,0,3.59c0,.3-.07.6-.12.89-1.22,1.65-2.3,2.94-3.1,3.87a10.71,10.71,0,0,1-2,2,8.78,8.78,0,0,1-3.23,1.4,7.82,7.82,0,0,0-2.51.74c-1.39.88-2.53,2.13-2.31,2.45.11.16.59,0,.87-.07s.51-.42,1.12-1.11a8,8,0,0,1,1-1,9.8,9.8,0,0,1,1.27-.9" transform="translate(-2691.91 -259.04)"/><path d="M3853.25,915.81c.14.19.92,0,1.31-.38.6-.58.68-1,1.53-1.76.54-.49,1-.68,1-.76s-.68.06-1.2.27C3854.2,913.88,3853,915.51,3853.25,915.81Z" transform="translate(-2691.91 -259.04)"/><path class="cls-19" d="M3833.79,917.35a25.73,25.73,0,0,0,4.4,5.59,24.59,24.59,0,0,0,5.34,3.93,23.61,23.61,0,0,0,3.34,1.48l-1.14,1.78a17.47,17.47,0,0,1-2.53-1.17,21.33,21.33,0,0,1-5.65-4.34,13.66,13.66,0,0,1-2.87-4.46A11.66,11.66,0,0,1,3833.79,917.35Z" transform="translate(-2691.91 -259.04)"/><path class="cls-20" d="M3855.88,922.21a6.37,6.37,0,0,1,3.41.27,5.74,5.74,0,0,1,3.2,2.64,6.23,6.23,0,0,1,0,5,9.07,9.07,0,0,1-3.8,4.75,10.42,10.42,0,0,1-3.31,1.3c-1.94.48-4.83,1.2-7.51-.28a6.76,6.76,0,0,1-3.05-3.3,5.3,5.3,0,0,1-.33-3.47,6.61,6.61,0,0,1,1.29-2.29c.24-.27.47-.5.6-.62l.34-.3a8.68,8.68,0,0,1,1.14-.79,20.63,20.63,0,0,1,2.76-1.34A49.79,49.79,0,0,1,3855.88,922.21Z" transform="translate(-2691.91 -259.04)"/><path class="cls-21" d="M3845.74,926.84c1.64-.39,3.37,1.51,3.58,1.74,1.65,1.86,2.51,5.36.76,6.87a3,3,0,0,1-1.7.67,4.2,4.2,0,0,1-.52-.26,6.76,6.76,0,0,1-3.05-3.3,5.31,5.31,0,0,1-.33-3.47A6.32,6.32,0,0,1,3845.74,926.84Z" transform="translate(-2691.91 -259.04)"/><path class="cls-22" d="M3857.11,923.18a15,15,0,0,0-3,.74,16.58,16.58,0,0,0-3.23,1.68,14.6,14.6,0,0,1,1.1,1.59,14.16,14.16,0,0,1,1.19,2.52,13.11,13.11,0,0,1,.75,5.13,9.34,9.34,0,0,0,4.21-1.31,9,9,0,0,0,2.26-1.93,9.24,9.24,0,0,0-.71-4.35,11.33,11.33,0,0,0-1.36-2.61A10.17,10.17,0,0,0,3857.11,923.18Z" transform="translate(-2691.91 -259.04)"/><path class="cls-19" d="M3856.66,931.63l1.78-.82-1.88-4.92-1.88.55Z" transform="translate(-2691.91 -259.04)"/><path class="cls-19" d="M3859.26,928.68l-.6-1.75-4.9,1.61.82,2.1Z" transform="translate(-2691.91 -259.04)"/></svg>