<?xml version="1.0" encoding="utf-8"?>
<!-- Generator: Adobe Illustrator 25.2.0, SVG Export Plug-In . SVG Version: 6.00 Build 0)  -->
<svg version="1.1" id="Layer_1" xmlns="http://www.w3.org/2000/svg" xmlns:xlink="http://www.w3.org/1999/xlink" x="0px" y="0px"
	 viewBox="0 0 1440 1808" style="enable-background:new 0 0 1440 1808;" xml:space="preserve">
<style type="text/css">
	.st0{fill:#127262;}
	.st1{clip-path:url(#SVGID_2_);}
	.st2{fill:#0C3932;}
	.st3{fill:#FFCD05;fill-opacity:0.6;}
	.st4{clip-path:url(#SVGID_4_);}
	.st5{fill:#1F1919;}
	.st6{fill:#005245;}
	.st7{clip-path:url(#SVGID_6_);}
	.st8{fill:#FFCD05;}
	.st9{fill:#FFCD05;fill-opacity:0.51;}
	.st10{fill:#2D2323;}
	.st11{fill:#FFCD05;fill-opacity:0.24;}
	.st12{fill:#BDBEC0;}
	.st13{fill:#E2DCD6;}
	.st14{fill:#CA323D;}
	.st15{fill:#54391E;}
	.st16{fill:none;stroke:#F9F9F9;stroke-width:0.5;stroke-miterlimit:10;}
	.st17{fill:#A1784D;}
	.st18{fill:#916C48;}
	.st19{fill:#E7B380;}
	.st20{fill:#CD9A64;}
	.st21{fill:#DBA774;}
	.st22{fill:#F0BD87;}
	.st23{fill:#006858;}
</style>
<g>
	<g>
		<path class="st0" d="M1440,594.1C1282.8,628,633.5,659.9,0,132.9c0,264.4,1,1406.7,1,1674h1439V594.1z"/>
	</g>
	<g>
		<g>
			<defs>
				
					<rect id="SVGID_1_" x="995.4" y="467.4" transform="matrix(0.9961 -8.832025e-02 8.832025e-02 0.9961 -47.7484 101.0581)" width="245.4" height="245.4"/>
			</defs>
			<clipPath id="SVGID_2_">
				<use xlink:href="#SVGID_1_"  style="overflow:visible;"/>
			</clipPath>
			<g class="st1">
				<path class="st2" d="M1210.2,658.4l-8.5-15.8l-62.2,6.6l50.5-28.5L1109.1,470l-27,78.9l28.8,9.7l-33.1,2.9l-15.6,45.5l33.4,14.3
					l-39.5,3.5l-16.7,48.7l80.3-7.1l3.9,43.7l13-1.2l-3.9-43.7L1210.2,658.4z"/>
			</g>
		</g>
	</g>
	<path class="st2" d="M0,230.1c42.4,4.7,83.6,3.4,111.4-7.8l-31-126.4l-38.7,55.3l-26.2-78L0,121.3V230.1z"/>
	<path class="st3" d="M27.2,304.4c-1.1,0.1-2.7,1.5-3.5,3.6c0.3-1.9-0.8-3.7-2.2-4.2c-1.6-0.6-3.7,0.5-4.2,1.9
		c-0.5,1.5,0.7,3.7,3.2,4.5c-1.4,0-3.7,0.8-4.7,1.9c-1.1,1.1-0.9,2.6,0.1,2.8c1,0.2,3.3-0.7,5-2.4c-0.8,1.3-0.9,3.3-0.5,4.6
		c0.5,1.5,1.8,2,2.5,1.2c0.6-0.7,0.9-2.8,0.5-4.9c0.8,1.4,2.4,2.3,3.8,2.2c1.6-0.1,2.9-1.6,2.5-2.8c-0.3-1.2-2.1-2.4-4.3-2.5
		c1.5-0.4,2.9-1.8,3.3-3.2C29.2,305.7,28.4,304.3,27.2,304.4z M20.6,282c0-1.3-1.6-3.4-4-4.5c2.3,0.5,4.5-0.6,5.2-2.3
		c0.8-1.9-0.3-4.5-2-5.2s-4.5,0.6-5.7,3.5c0.2-1.7-0.7-4.5-1.9-5.8c-1.2-1.4-3-1.3-3.3-0.1c-0.4,1.2,0.6,4.1,2.5,6.2
		c-1.5-1-3.9-1.4-5.5-1c-1.8,0.5-2.6,2-1.7,2.9c0.8,0.8,3.3,1.4,5.8,1c-1.7,0.9-2.9,2.7-2.9,4.4c0,2,1.7,3.6,3.2,3.2
		c1.4-0.3,3-2.3,3.3-5c0.4,1.8,1.9,3.6,3.5,4.2C18.9,284.2,20.6,283.3,20.6,282z M84.1,279.2c-0.8-1.6-3.9-3.1-7.5-3.2
		c3-0.8,5.1-3.4,5-5.9c-0.2-2.8-3-5.3-5.5-5.1c-2.5,0.2-5.1,3.3-4.9,7.6c-0.8-2.2-3.5-5-5.7-6c-2.4-1-4.4,0.2-4.1,1.9
		c0.3,1.7,3.1,4.6,6.7,6.1c-2.4-0.4-5.6,0.6-7.3,2.1c-1.9,1.7-2,3.9-0.3,4.5c1.5,0.5,4.8-0.3,7.6-2.2c-1.6,2.1-1.9,5-1,7.1
		c1.2,2.4,4.1,3.4,5.8,2.1c1.6-1.2,2.3-4.6,1.1-8c1.6,2,4.5,3.3,6.8,3.1C83.3,283,84.9,280.9,84.1,279.2z M108.2,277.7
		c-1,0.1-2.5,1.4-3.3,3.3c0.2-1.8-0.7-3.5-2.1-3.9c-1.5-0.5-3.5,0.5-3.9,1.8c-0.4,1.4,0.7,3.5,3,4.3c-1.3,0-3.4,0.8-4.4,1.8
		s-0.9,2.4,0.1,2.6s3.1-0.7,4.7-2.3c-0.7,1.2-0.9,3.1-0.4,4.4c0.5,1.4,1.7,1.9,2.3,1.1c0.6-0.7,0.9-2.6,0.5-4.6
		c0.8,1.3,2.3,2.1,3.6,2.1c1.6-0.1,2.7-1.5,2.3-2.7c-0.3-1.1-2-2.2-4.1-2.3c1.4-0.4,2.7-1.7,3.1-3
		C110,278.9,109.3,277.6,108.2,277.7z M93.8,309.2c-2.3,0.2-5.8,3.3-7.5,7.6c0.6-4.1-1.6-7.9-4.8-9c-3.5-1.2-8,1.1-8.9,4.1
		c-1,3.2,1.6,7.9,6.9,9.7c-3-0.1-7.8,1.8-10.1,4c-2.4,2.4-1.9,5.5,0.3,5.9c2.2,0.5,7.2-1.6,10.7-5.2c-1.7,2.8-2,7.1-1,9.9
		c1.1,3.2,3.8,4.3,5.3,2.6c1.3-1.6,2-6,1-10.4c1.8,2.9,5.2,4.8,8.2,4.7c3.5-0.2,6.1-3.4,5.3-6c-0.7-2.5-4.5-5-9.2-5.3
		c3.2-0.9,6.2-3.9,7.1-6.8C98.1,311.9,96.3,309,93.8,309.2z M163.3,288.5c-1.3,1.2-1.9,4.7-0.9,8.1c-1.6-2.7-4.7-3.9-7.1-3.1
		c-2.7,0.9-4.3,4.4-3.4,6.7c0.9,2.4,4.6,4,8.7,2.6c-1.8,1.4-3.8,4.8-4.1,7.2c-0.3,2.5,1.4,4.2,3,3.4c1.6-0.8,3.5-4.3,3.9-8.1
		c0.3,2.4,2.1,5.2,4.1,6.4c2.2,1.4,4.3,0.8,4.4-1c0.1-1.6-1.6-4.6-4.3-6.7c2.4,0.9,5.4,0.4,7.1-1.1c2-1.8,2.1-4.9,0.4-6.1
		c-1.6-1.2-5.1-0.9-8,1.2c1.5-2.1,1.9-5.2,1-7.4C167.1,288.1,164.6,287.2,163.3,288.5z M45.2,332.3c0.9,1.1,0.8,2.6-0.3,3.5
		s-2.6,0.8-3.5-0.3c-0.9-1.1-0.8-2.6,0.3-3.5C42.7,331.1,44.2,331.3,45.2,332.3z M43.6,282.4c0.9,1.1,0.8,2.6-0.3,3.5
		s-2.6,0.8-3.5-0.3c-0.9-1.1-0.8-2.6,0.3-3.5C41.1,281.2,42.6,281.3,43.6,282.4z M75,294.7c0.1,1.4-1,2.6-2.4,2.7s-2.6-1-2.7-2.4
		s1-2.6,2.4-2.7C73.7,292.2,74.9,293.3,75,294.7z M138.4,275.4c0.1,1.4-1,2.6-2.4,2.7s-2.6-1-2.7-2.4c-0.1-1.4,1-2.6,2.4-2.7
		C137.1,273,138.3,274,138.4,275.4z M103.6,320.3c0,0.7-0.5,1.3-1.2,1.3s-1.3-0.5-1.3-1.2s0.5-1.3,1.2-1.3
		C103,319.1,103.6,319.6,103.6,320.3z M64.4,318.8c0,0.7-0.5,1.3-1.2,1.3s-1.3-0.5-1.3-1.2s0.5-1.3,1.2-1.3
		C63.8,317.5,64.4,318.1,64.4,318.8z M4.5,304.2c0,0.7-0.5,1.3-1.2,1.3S2,305,2,304.3s0.5-1.3,1.2-1.3S4.5,303.5,4.5,304.2z
		 M8,360.8c0,0.7-0.5,1.3-1.2,1.3s-1.3-0.5-1.3-1.2s0.5-1.3,1.2-1.3C7.4,359.6,8,360.1,8,360.8z M23.4,367.2c0,0.7-0.5,1.3-1.2,1.3
		s-1.3-0.5-1.3-1.2s0.5-1.3,1.2-1.3C22.8,365.9,23.4,366.5,23.4,367.2z M63.1,354.5c0,0.7-0.5,1.3-1.2,1.3s-1.3-0.5-1.3-1.2
		s0.5-1.3,1.2-1.3C62.5,353.2,63.1,353.8,63.1,354.5z M119.4,320.5c0,0.7-0.5,1.3-1.2,1.3s-1.3-0.5-1.3-1.2s0.5-1.3,1.2-1.3
		C118.8,319.3,119.4,319.8,119.4,320.5z M135.6,312.7c0,0.7-0.5,1.3-1.2,1.3s-1.3-0.5-1.3-1.2s0.5-1.3,1.2-1.3
		S135.6,312,135.6,312.7z M125.9,293.7c0,0.3-0.2,0.6-0.6,0.7c-0.3,0-0.6-0.2-0.7-0.6c0-0.3,0.2-0.6,0.6-0.7
		C125.5,293.1,125.8,293.4,125.9,293.7z M99.2,295.3c0,0.3-0.2,0.6-0.6,0.7c-0.3,0-0.6-0.2-0.7-0.6c0-0.3,0.2-0.6,0.6-0.7
		C98.9,294.6,99.2,294.9,99.2,295.3z M81.4,290.2c0,0.3-0.2,0.6-0.6,0.7c-0.3,0-0.6-0.2-0.7-0.6c0-0.3,0.2-0.6,0.6-0.7
		C81,289.6,81.3,289.9,81.4,290.2z M60.3,288.8c0,0.3-0.2,0.6-0.6,0.7c-0.3,0-0.6-0.2-0.7-0.6c0-0.3,0.2-0.6,0.6-0.7
		S60.3,288.4,60.3,288.8z M50.6,299.4c0,0.3-0.2,0.6-0.6,0.7c-0.3,0-0.6-0.2-0.7-0.6c0-0.3,0.2-0.6,0.6-0.7
		C50.3,298.8,50.6,299.1,50.6,299.4z M24.8,292.2c0,0.3-0.2,0.6-0.6,0.7c-0.3,0-0.6-0.2-0.7-0.6c0-0.3,0.2-0.6,0.6-0.7
		C24.4,291.6,24.7,291.9,24.8,292.2z M8.5,289.7c0,0.3-0.2,0.6-0.6,0.7c-0.3,0-0.6-0.2-0.7-0.6c0-0.3,0.2-0.6,0.6-0.7
		C8.2,289.1,8.5,289.4,8.5,289.7z M40.8,295c-0.5,0.1-1.3,0.6-1.9,1.6c0.2-0.9-0.9-1.5-1.6-1.7c-0.8-0.2-0.6-0.5-0.9,0.2
		c-0.3,0.7-0.4,2.5,0.8,2.8c-0.7,0.1-1.9,0.5-2.2,1.4c-0.2,0.8-0.4,0.5,0.1,0.7c0.8,0.3,1.3-0.2,2.2-1.1c-0.4,0.7-0.6,1.7,0.1,2.2
		c0.6,0.4,0.1,0.5,0.5,0.1c0.3-0.4,0.7-1,0.6-2c0.3,0.6,1,0.8,2.4,0.4c0.8-0.3,0.3-0.1,0.3-0.8c0-0.9-0.5-1.3-1.6-1.2
		c0.8-0.3,1.5-1.3,1.4-2.2C41,294.7,41.4,294.9,40.8,295z M51.4,318.9c-0.5,0-1.2,0.5-1.6,1.4c0.1-0.9-1-1.6-1.7-1.9
		c-0.8-0.3-0.6-0.6-0.8,0.1s-0.1,2.4,1.1,2.8c-0.7,0-1.8,0.3-2,1.2c-0.1,0.7-0.3,0.5,0.1,0.7c0.8,0.4,1.2,0,2-0.8
		c-0.4,0.6-0.4,1.6,0.3,2.2c0.6,0.5,0.2,0.5,0.5,0.1c0.3-0.3,0.6-0.9,0.4-1.9c0.4,0.6,1,0.9,2.4,0.6c0.8-0.2,0.3-0.1,0.2-0.7
		c-0.1-0.9-0.6-1.3-1.7-1.4c0.7-0.2,1.3-1.1,1.1-2C51.5,318.6,51.9,318.8,51.4,318.9z M91.2,294.6c-0.5,0-1.2,0.5-1.6,1.4
		c0.1-0.9-1-1.6-1.7-1.9c-0.8-0.3-0.6-0.6-0.8,0.1c-0.2,0.7-0.1,2.4,1.1,2.8c-0.7,0-1.8,0.3-2,1.2c-0.1,0.7-0.3,0.5,0.1,0.7
		c0.8,0.4,1.2,0,2-0.8c-0.4,0.6-0.4,1.6,0.3,2.2c0.6,0.5,0.2,0.5,0.5,0.1c0.3-0.3,0.6-0.9,0.4-1.9c0.4,0.6,1,0.9,2.4,0.6
		c0.8-0.2,0.3-0.1,0.2-0.7c-0.1-0.9-0.6-1.3-1.7-1.4c0.7-0.2,1.3-1.1,1.1-2C91.4,294.4,91.8,294.6,91.2,294.6z M117.2,306
		c-0.5,0-1.2,0.5-1.6,1.4c0.1-0.9-1-1.6-1.7-1.9c-0.8-0.3-0.6-0.6-0.8,0.1c-0.2,0.7-0.1,2.4,1.1,2.8c-0.7,0-1.8,0.3-2,1.2
		c-0.1,0.7-0.3,0.5,0.1,0.7c0.8,0.4,1.2,0,2-0.8c-0.4,0.6-0.4,1.6,0.3,2.2c0.6,0.5,0.2,0.5,0.5,0.1c0.3-0.3,0.6-0.9,0.4-1.9
		c0.4,0.6,1,0.9,2.4,0.6c0.8-0.2,0.3-0.1,0.2-0.7c-0.1-0.9-0.6-1.3-1.7-1.4c0.7-0.2,1.3-1.1,1.1-2C117.3,305.8,117.7,306,117.2,306z
		 M143.9,293.3c-0.5,0-1.2,0.5-1.6,1.4c0.1-0.9-1-1.6-1.7-1.9c-0.8-0.3-0.6-0.6-0.8,0.1s-0.1,2.4,1.1,2.8c-0.7,0-1.8,0.3-2,1.2
		c-0.1,0.7-0.3,0.5,0.1,0.7c0.8,0.4,1.2,0,2-0.8c-0.4,0.6-0.4,1.6,0.3,2.2c0.6,0.5,0.2,0.5,0.5,0.1c0.3-0.3,0.6-0.9,0.4-1.9
		c0.4,0.6,1,0.9,2.4,0.6c0.8-0.2,0.3-0.1,0.2-0.7c-0.1-0.9-0.6-1.3-1.7-1.4c0.7-0.2,1.3-1.1,1.1-2
		C144.1,293.1,144.4,293.2,143.9,293.3z M136.2,281c-0.5,0-1.2,0.5-1.6,1.4c0.1-0.9-1-1.6-1.7-1.9c-0.8-0.3-0.6-0.6-0.8,0.1
		s-0.1,2.4,1.1,2.8c-0.7,0-1.8,0.3-2,1.2c-0.1,0.7-0.3,0.5,0.1,0.7c0.8,0.4,1.2,0,2-0.8c-0.4,0.6-0.4,1.6,0.3,2.2
		c0.6,0.5,0.2,0.5,0.5,0.1c0.3-0.3,0.6-0.9,0.4-1.9c0.4,0.6,1,0.9,2.4,0.6c0.8-0.2,0.3-0.1,0.2-0.7c-0.1-0.9-0.6-1.3-1.7-1.4
		c0.7-0.2,1.3-1.1,1.1-2C136.4,280.8,136.8,280.9,136.2,281z M67,335.4c-0.5,0-1.2,0.5-1.6,1.4c0.1-0.9-1-1.6-1.7-1.9
		c-0.8-0.3-0.6-0.6-0.8,0.1s-0.1,2.4,1.1,2.8c-0.7,0-1.8,0.3-2,1.2c-0.1,0.7-0.3,0.5,0.1,0.7c0.8,0.4,1.2,0,2-0.8
		c-0.4,0.6-0.4,1.6,0.3,2.2c0.6,0.5,0.2,0.5,0.5,0.1c0.3-0.3,0.6-0.9,0.4-1.9c0.4,0.6,1,0.9,2.4,0.6c0.8-0.2,0.3-0.1,0.2-0.7
		c-0.1-0.9-0.6-1.3-1.7-1.4c0.7-0.2,1.3-1.1,1.1-2C67.2,335.2,67.6,335.4,67,335.4z M22.8,326.5c-0.5,0-1.2,0.5-1.6,1.4
		c0.1-0.9-1-1.6-1.7-1.9c-0.8-0.3-0.6-0.6-0.8,0.1c-0.2,0.7-0.1,2.4,1.1,2.8c-0.7,0-1.8,0.3-2,1.2c-0.1,0.7-0.3,0.5,0.1,0.7
		c0.8,0.4,1.2,0,2-0.8c-0.4,0.6-0.4,1.6,0.3,2.2c0.6,0.5,0.2,0.5,0.5,0.1c0.3-0.3,0.6-0.9,0.4-1.9c0.4,0.6,1,0.9,2.4,0.6
		c0.8-0.2,0.3-0.1,0.2-0.7c-0.1-0.9-0.6-1.3-1.7-1.4c0.7-0.2,1.3-1.1,1.1-2C23,326.3,23.4,326.5,22.8,326.5z M12.9,323.5
		c-0.5,0-1.2,0.5-1.6,1.4c0.1-0.9-1-1.6-1.7-1.9c-0.8-0.3-0.6-0.6-0.8,0.1s-0.1,2.4,1.1,2.8c-0.7,0-1.8,0.3-2,1.2
		c-0.1,0.7-0.3,0.5,0.1,0.7c0.8,0.4,1.2,0,2-0.8c-0.4,0.6-0.4,1.6,0.3,2.2c0.6,0.5,0.2,0.5,0.5,0.1c0.3-0.3,0.6-0.9,0.4-1.9
		c0.4,0.6,1,0.9,2.4,0.6c0.8-0.2,0.3-0.1,0.2-0.7c-0.1-0.9-0.6-1.3-1.7-1.4c0.7-0.2,1.3-1.1,1.1-2C13.1,323.2,13.4,323.4,12.9,323.5
		z M7.2,312.6c-0.5,0-1.2,0.5-1.6,1.4c0.1-0.9-1-1.6-1.7-1.9c-0.8-0.3-0.6-0.6-0.8,0.1c-0.2,0.7-0.1,2.4,1.1,2.8
		c-0.7,0-1.8,0.3-2,1.2c-0.1,0.7-0.3,0.5,0.1,0.7c0.8,0.4,1.2,0,2-0.8c-0.4,0.6-0.4,1.6,0.3,2.2c0.6,0.5,0.2,0.5,0.5,0.1
		c0.3-0.3,0.6-0.9,0.4-1.9c0.4,0.6,1,0.9,2.4,0.6c0.8-0.2,0.3-0.1,0.2-0.7c-0.1-0.9-0.6-1.3-1.7-1.4c0.7-0.2,1.3-1.1,1.1-2
		C7.4,312.3,7.7,312.5,7.2,312.6z"/>
	<path class="st2" d="M629.7,645l-51.4,133.5c61.4,20.4,172.3,28.2,225.1,1.7l-40.9-123.5l-34.2,58.1L696,639.2l-11.2,49.1
		l-15.3-105.7l-36.2,140.9L629.7,645z"/>
	<g>
		<g>
			<defs>
				
					<rect id="SVGID_3_" x="122.8" y="96.3" transform="matrix(0.1679 -0.9858 0.9858 0.1679 -10.1671 407.8858)" width="227.4" height="227.4"/>
			</defs>
			<clipPath id="SVGID_4_">
				<use xlink:href="#SVGID_3_"  style="overflow:visible;"/>
			</clipPath>
			<g class="st4">
				<path class="st2" d="M303,292.9l-3.9-16.1l-57.3-8.8l52-13.6l-36.9-154.2L214,164.6l23.5,15.5l-30.4-5.2L182.5,212l26.5,20.7
					l-36.2-6.2l-26.4,39.7l73.6,12.5l-6.8,40.1l11.9,2l6.8-40.1L303,292.9z"/>
			</g>
		</g>
	</g>
	<path class="st5" d="M1187,819.2l19.5,52.8l115.5-3.5l-28-25l-27.2-24.5c-8-7.2-14-16.4-17.4-26.7c-6.2-18.8-3-39.3,8.5-55.4
		l5.2-7.3c13.6-19,29.9-35.9,48.4-50.1c24.6-18.9,51.7-34.4,80.5-45.9l48-19.2v-14.1l-82,26.1l-24.7,10.5
		c-51.7,22-97.1,56.6-132,100.7l-1.7,2.2C1181.8,762.3,1177.1,792.4,1187,819.2z"/>
	<g>
		<path class="st6" d="M1440,1808V858c-307.5,8-558,30.7-755,14.2C471.6,854.3,159.8,586,0,656v1152H1440z"/>
	</g>
	<g>
		<g>
			<defs>
				
					<rect id="SVGID_5_" x="35.8" y="729" transform="matrix(0.9961 -8.832025e-02 8.832025e-02 0.9961 -79.0736 22.2103)" width="351.3" height="351.3"/>
			</defs>
			<clipPath id="SVGID_6_">
				<use xlink:href="#SVGID_5_"  style="overflow:visible;"/>
			</clipPath>
			<g class="st7">
				<path class="st2" d="M343.4,1002.6L331.2,980l-89.1,9.4l72.3-40.8L198.7,732.8l-38.6,113l41.2,13.9l-47.4,4.2L131.6,929
					l47.8,20.5l-56.6,5l-23.9,69.8l114.9-10.2l5.5,62.5l18.6-1.7l-5.5-62.5L343.4,1002.6z"/>
			</g>
		</g>
	</g>
	<path class="st2" d="M1075,1185.1l-100.7,210.3c97.1,41.1,276.3,67.9,365.5,31.7l-50.6-205.8l-63,90l-42.7-127l-24.6,78.3
		l-11.3-173.6l-77,224.2L1075,1185.1z"/>
	<path class="st8" d="M1440,951.6c-0.5-1.4-1.6-2.4-2.9-2.5c-2-0.1-4.8,1.9-6.2,5.3c0.2-2.5-1.2-5.5-3-6.8c-2.1-1.6-4.7-1.1-5.2,0.7
		c-0.5,1.7,0.8,5,3.5,7.4c-2.8-1.5-6.1-0.9-7.7,1.1c-1.8,2.2-1.3,6,0.7,7.5s6.1,0.9,8.8-2.4c-0.9,2.1-0.8,6.1,0.3,8.3
		c1.1,2.3,3.4,2.8,4.3,1.3s0.7-5.6-1-9c1.6,1.9,4.6,3.3,6.9,3.3c0.5,0,1-0.1,1.4-0.2v-4.7c-1.4-0.8-3.4-1.5-5.4-1.8
		c2.5-0.5,4.6-2.3,5.4-4.4L1440,951.6L1440,951.6z M1440,887.2c-0.1,0.2-0.2,0.5-0.4,0.7c0.2-1.7-0.7-4.5-1.9-5.8
		c-1.2-1.4-3-1.3-3.4-0.1s0.6,4.1,2.5,6.2c-1.5-1-3.9-1.4-5.6-1c-1.8,0.5-2.6,2-1.7,2.9c0.8,0.8,3.3,1.4,5.8,1
		c-1.7,0.9-2.9,2.7-2.9,4.4c0,2,1.7,3.6,3.2,3.2c1.4-0.3,3-2.3,3.3-5c0.2,0.7,0.5,1.4,0.9,2L1440,887.2z M1387.8,959.2
		c-1.8,0.2-4.4,2.5-5.8,5.8c0.4-3.1-1.2-6-3.7-6.8c-2.7-0.9-6.1,0.8-6.8,3.2c-0.8,2.4,1.2,6,5.3,7.4c-2.3-0.1-6,1.4-7.7,3.1
		c-1.8,1.8-1.5,4.2,0.2,4.5c1.7,0.4,5.5-1.2,8.2-4c-1.3,2.1-1.5,5.4-0.8,7.6c0.9,2.4,2.9,3.3,4.1,2c1-1.2,1.5-4.6,0.8-8
		c1.3,2.2,4,3.7,6.2,3.6c2.7-0.2,4.7-2.6,4.1-4.6c-0.6-1.9-3.5-3.9-7.1-4c2.5-0.7,4.7-3,5.4-5.2C1391,961.3,1389.7,959,1387.8,959.2
		z M1385.6,899.7c-2.3,0.2-5.6,3.2-7.4,7.4c0.6-4-1.6-7.7-4.7-8.8c-3.4-1.2-7.8,1.1-8.8,4.1c-1,3.1,1.5,7.7,6.8,9.5
		c-2.9-0.1-7.7,1.8-9.9,4c-2.3,2.3-1.9,5.4,0.3,5.8c2.2,0.5,7-1.6,10.4-5.1c-1.6,2.7-2,6.9-1,9.7c1.1,3.1,3.8,4.2,5.2,2.5
		c1.3-1.5,2-5.9,1-10.2c1.7,2.9,5.1,4.7,8,4.6c3.5-0.2,6-3.3,5.2-5.9c-0.7-2.4-4.4-4.9-9-5.2c3.1-0.9,6-3.8,6.9-6.6
		C1389.7,902.4,1388,899.5,1385.6,899.7z M1410.8,928.4c0.9,1.1,0.8,2.7-0.3,3.6c-1.1,0.9-2.6,0.8-3.6-0.3c-0.9-1.1-0.8-2.7,0.3-3.6
		C1408.3,927.2,1409.9,927.3,1410.8,928.4z M1430,918.9c0,0.7-0.5,1.3-1.2,1.3s-1.3-0.5-1.3-1.2s0.5-1.3,1.2-1.3
		C1429.3,917.6,1429.9,918.2,1430,918.9z M1396.8,914.1c0,0.7-0.5,1.3-1.2,1.3s-1.3-0.5-1.3-1.2s0.5-1.3,1.2-1.3
		C1396.2,912.9,1396.8,913.4,1396.8,914.1z M1398.8,953.6c0,0.7-0.5,1.3-1.2,1.3s-1.3-0.5-1.3-1.2s0.5-1.3,1.2-1.3
		C1398.2,952.4,1398.8,952.9,1398.8,953.6z M1433.5,975.7c0,0.7-0.5,1.3-1.2,1.3s-1.3-0.5-1.3-1.2s0.5-1.3,1.2-1.3
		C1432.9,974.5,1433.5,975,1433.5,975.7z M1434,904.3c0,0.3-0.2,0.6-0.6,0.7c-0.3,0-0.6-0.2-0.7-0.6c0-0.3,0.2-0.6,0.6-0.7
		C1433.7,903.7,1434,903.9,1434,904.3z M1412.7,960.8c-0.5,0-1.2,0.5-1.6,1.4c0.1-0.9-1.1-1.6-1.8-1.9c-0.8-0.3-0.6-0.6-0.8,0.1
		c-0.2,0.7-0.1,2.5,1.1,2.9c-0.7,0-1.8,0.3-2,1.2c-0.1,0.7-0.3,0.5,0.2,0.7c0.8,0.4,1.2,0,2-0.8c-0.4,0.6-0.4,1.6,0.3,2.2
		c0.6,0.5,0.2,0.5,0.5,0.1c0.3-0.3,0.6-0.9,0.4-1.9c0.4,0.6,1,0.9,2.4,0.6c0.8-0.2,0.3-0.1,0.2-0.7c-0.1-0.9-0.6-1.3-1.7-1.4
		c0.7-0.2,1.3-1.1,1.2-2C1412.8,960.6,1413.2,960.8,1412.7,960.8z M1412.2,907.9c-0.5,0-1.2,0.5-1.6,1.4c0.1-0.9-1.1-1.6-1.8-1.9
		c-0.8-0.3-0.6-0.6-0.8,0.1c-0.2,0.7-0.1,2.5,1.1,2.9c-0.7,0-1.8,0.3-2,1.2c-0.1,0.7-0.3,0.5,0.2,0.7c0.8,0.4,1.2,0,2-0.8
		c-0.4,0.6-0.4,1.6,0.3,2.2c0.6,0.5,0.2,0.5,0.5,0.1c0.3-0.3,0.6-0.9,0.3-1.9c0.4,0.7,1,0.9,2.4,0.6c0.8-0.2,0.3-0.1,0.2-0.7
		c-0.1-0.9-0.6-1.3-1.7-1.4c0.7-0.2,1.3-1.1,1.2-2C1412.4,907.7,1412.7,907.9,1412.2,907.9z M1438.4,938.2c-0.5,0-1.2,0.5-1.6,1.4
		c0.1-0.9-1.1-1.6-1.8-1.9c-0.8-0.3-0.6-0.6-0.8,0.1c-0.2,0.7-0.1,2.5,1.1,2.9c-0.7,0-1.8,0.3-2,1.2c-0.1,0.7-0.3,0.5,0.2,0.7
		c0.8,0.4,1.2,0,2-0.8c-0.4,0.6-0.4,1.6,0.3,2.2c0.6,0.5,0.2,0.5,0.5,0.1c0.3-0.3,0.6-0.9,0.4-1.9c0.4,0.6,1,0.9,2.4,0.6
		c0.8-0.2,0.3-0.1,0.2-0.7c-0.1-0.9-0.6-1.3-1.7-1.4c0.7-0.2,1.3-1.1,1.2-2C1438.6,938,1439,938.2,1438.4,938.2z M1432.7,927.3
		c-0.5,0-1.2,0.5-1.6,1.4c0.1-0.9-1-1.6-1.8-1.9c-0.8-0.3-0.6-0.6-0.8,0.1c-0.2,0.7-0.1,2.5,1.1,2.9c-0.7,0-1.8,0.3-2,1.2
		c-0.1,0.7-0.3,0.5,0.2,0.7c0.8,0.4,1.2,0,2-0.8c-0.4,0.6-0.4,1.6,0.3,2.2c0.6,0.5,0.2,0.5,0.5,0.1c0.3-0.3,0.6-0.9,0.4-1.9
		c0.4,0.6,1,0.9,2.4,0.6c0.8-0.2,0.3-0.1,0.2-0.7c-0.1-0.9-0.6-1.3-1.7-1.4c0.7-0.2,1.3-1.1,1.2-2
		C1432.9,927,1433.2,927.2,1432.7,927.3z"/>
	<path class="st9" d="M1433.5,1015.3c0.2-1.8-1.7-4.8-4.7-6.7c3,1,6.2-0.2,7.4-2.4c1.4-2.5,0.3-6.2-1.9-7.3
		c-2.2-1.2-6.1,0.1-8.3,3.9c0.5-2.2-0.3-6.1-1.7-8.1c-1.5-2.1-3.8-2.2-4.5-0.6c-0.7,1.6,0.2,5.6,2.4,8.7c-1.9-1.6-5-2.5-7.3-2.1
		c-2.5,0.4-3.8,2.3-2.7,3.6c1,1.2,4.2,2.3,7.7,2.2c-2.4,0.9-4.3,3.2-4.6,5.5c-0.3,2.7,1.7,5.1,3.8,4.8c2-0.2,4.4-2.7,5.2-6.2
		c0.3,2.5,2.1,5.2,4.1,6.2C1430.9,1018.1,1433.3,1017.2,1433.5,1015.3z M1408.8,1049.2c1.1-0.3,2.4-2,2.9-4.1
		c0.1,1.9,1.4,3.5,2.9,3.8c1.7,0.3,3.6-1.1,3.8-2.6c0.2-1.5-1.3-3.5-4-3.9c1.4-0.2,3.5-1.4,4.3-2.7c0.9-1.3,0.5-2.7-0.6-2.7
		s-3.2,1.3-4.5,3.2c0.5-1.4,0.4-3.4-0.3-4.7c-0.8-1.4-2.1-1.7-2.7-0.8c-0.5,0.8-0.5,2.9,0.3,4.9c-1.1-1.2-2.8-1.8-4.1-1.5
		c-1.6,0.4-2.6,2-2,3.2c0.5,1.1,2.5,2,4.7,1.7c-1.4,0.7-2.5,2.3-2.7,3.7C1406.6,1048.2,1407.7,1049.5,1408.8,1049.2z M1419.2,1070.3
		c0.2,1.3,2.2,3.1,4.7,3.8c-2.3-0.1-4.3,1.4-4.8,3.2c-0.5,2,1,4.4,2.8,4.8s4.3-1.3,5.1-4.4c0.1,1.7,1.4,4.3,2.8,5.4
		c1.5,1.2,3.2,0.8,3.3-0.5c0.2-1.3-1.3-3.9-3.5-5.7c1.7,0.8,4.1,0.7,5.6,0c1.7-0.8,2.2-2.4,1.2-3.1s-3.5-0.8-5.9,0
		c1.6-1.2,2.4-3.2,2.2-4.8c-0.3-2-2.2-3.2-3.7-2.7c-1.4,0.5-2.6,2.8-2.4,5.5c-0.7-1.8-2.5-3.3-4.2-3.6
		C1420.5,1067.8,1418.9,1068.9,1419.2,1070.3z M1356.7,1083.7c1.1,1.4,4.4,2.5,8,1.9c-2.9,1.3-4.5,4.2-3.9,6.7
		c0.6,2.8,3.9,4.8,6.3,4.2c2.4-0.6,4.5-4.2,3.6-8.4c1.1,2,4.3,4.4,6.7,5c2.5,0.6,4.3-0.9,3.8-2.6c-0.6-1.6-3.9-4-7.6-4.9
		c2.5,0,5.4-1.5,6.9-3.3c1.6-2,1.3-4.2-0.4-4.5c-1.6-0.2-4.7,1.1-7.2,3.5c1.2-2.3,1.1-5.3-0.2-7.2c-1.6-2.2-4.6-2.6-6.1-1.1
		c-1.3,1.5-1.5,4.9,0.2,8.1c-1.9-1.7-5-2.5-7.2-1.9C1356.8,1079.9,1355.6,1082.2,1356.7,1083.7z M1333.1,1089.3
		c1-0.3,2.3-1.9,2.7-3.9c0.1,1.8,1.3,3.3,2.8,3.5c1.6,0.3,3.4-1.1,3.6-2.5s-1.3-3.3-3.7-3.7c1.3-0.2,3.3-1.4,4.1-2.5
		c0.9-1.2,0.4-2.5-0.6-2.6c-1,0-3,1.2-4.3,3.1c0.5-1.3,0.4-3.2-0.3-4.4c-0.7-1.3-2-1.6-2.5-0.7c-0.5,0.8-0.4,2.8,0.3,4.6
		c-1-1.2-2.6-1.7-3.9-1.4c-1.5,0.4-2.4,1.9-1.9,3c0.5,1,2.3,1.9,4.4,1.6c-1.3,0.7-2.4,2.2-2.6,3.5
		C1331.1,1088.4,1332.1,1089.6,1333.1,1089.3z M1342,1055.7c2.3-0.6,5.2-4.2,6.2-8.8c0.1,4.2,2.9,7.5,6.2,8.1
		c3.7,0.6,7.7-2.4,8.2-5.6c0.4-3.3-2.9-7.5-8.5-8.5c3-0.4,7.5-3.1,9.3-5.7c1.9-2.8,1-5.8-1.3-5.8c-2.3-0.1-6.8,2.8-9.7,6.9
		c1.2-3,0.8-7.4-0.7-10c-1.6-3-4.5-3.6-5.7-1.7c-1.1,1.8-1,6.3,0.7,10.5c-2.2-2.6-6-3.9-8.9-3.2c-3.5,0.8-5.5,4.4-4.3,6.9
		c1.1,2.4,5.3,4.2,10,3.7c-3,1.5-5.5,4.9-5.9,7.9C1337.4,1053.7,1339.6,1056.3,1342,1055.7z M1276.7,1087.9c1.1-1.4,1.1-4.9-0.4-8.2
		c2,2.4,5.3,3.1,7.5,1.9c2.5-1.4,3.5-5.1,2.2-7.2c-1.3-2.2-5.3-3.1-9.1-1.1c1.6-1.7,3-5.4,2.9-7.8c-0.1-2.6-2.1-3.9-3.5-2.9
		s-2.8,4.9-2.5,8.7c-0.7-2.4-3-4.8-5.1-5.7c-2.4-1-4.4,0-4.2,1.7c0.2,1.6,2.4,4.2,5.4,5.9c-2.6-0.5-5.4,0.5-6.8,2.2
		c-1.7,2.1-1.2,5.2,0.7,6.1c1.8,0.9,5.2,0,7.7-2.5c-1.1,2.3-1,5.5,0.2,7.5C1273,1088.8,1275.6,1089.4,1276.7,1087.9z M1386.3,1024.6
		c-1.1-0.9-1.2-2.5-0.3-3.6c0.9-1.1,2.5-1.2,3.6-0.3s1.2,2.5,0.3,3.5C1389,1025.3,1387.4,1025.5,1386.3,1024.6z M1396.3,1073.8
		c-1.1-0.9-1.2-2.5-0.3-3.6c0.9-1.1,2.5-1.2,3.6-0.3c1.1,0.9,1.2,2.5,0.3,3.6C1399,1074.5,1397.4,1074.6,1396.3,1073.8z
		 M1363.1,1066.9c-0.3-1.4,0.5-2.7,1.9-3s2.7,0.5,3,1.9s-0.5,2.7-1.9,3C1364.8,1069.1,1363.4,1068.3,1363.1,1066.9z M1303.5,1096.6
		c-0.3-1.4,0.5-2.7,1.9-3s2.7,0.5,3,1.9s-0.5,2.7-1.9,3C1305.2,1098.8,1303.8,1098,1303.5,1096.6z M1330.4,1046.3
		c-0.1-0.7,0.3-1.4,1-1.5c0.7-0.2,1.4,0.3,1.5,0.9c0.1,0.7-0.3,1.4-1,1.5C1331.3,1047.4,1330.6,1047,1330.4,1046.3z M1369.6,1041.2
		c-0.2-0.7,0.3-1.4,0.9-1.5c0.7-0.2,1.4,0.3,1.5,1c0.2,0.7-0.3,1.4-1,1.5C1370.4,1042.3,1369.7,1041.9,1369.6,1041.2z
		 M1431.3,1045.6c-0.2-0.7,0.3-1.4,1-1.5c0.7-0.2,1.4,0.3,1.5,0.9c0.1,0.7-0.3,1.4-1,1.5C1432.2,1046.7,1431.5,1046.2,1431.3,1045.6
		z M1418.3,990.1c-0.1-0.7,0.3-1.4,1-1.5c0.7-0.2,1.4,0.3,1.5,1s-0.3,1.4-1,1.5C1419.2,991.2,1418.5,990.8,1418.3,990.1z
		 M1402,986.4c-0.2-0.7,0.3-1.4,0.9-1.5c0.7-0.2,1.4,0.3,1.5,1c0.2,0.7-0.3,1.4-0.9,1.5C1402.8,987.5,1402.1,987.1,1402,986.4z
		 M1364.8,1005.7c-0.2-0.7,0.3-1.4,0.9-1.5c0.7-0.2,1.4,0.3,1.5,0.9c0.2,0.7-0.3,1.4-1,1.5C1365.6,1006.8,1365,1006.3,1364.8,1005.7
		z M1314.7,1048.8c-0.2-0.7,0.3-1.4,0.9-1.5c0.7-0.2,1.4,0.3,1.5,0.9c0.2,0.7-0.3,1.4-0.9,1.5
		C1315.6,1049.9,1314.9,1049.5,1314.7,1048.8z M1300,1059.2c-0.2-0.7,0.3-1.4,0.9-1.5c0.7-0.2,1.4,0.3,1.5,0.9
		c0.2,0.7-0.3,1.4-0.9,1.5C1300.9,1060.3,1300.2,1059.9,1300,1059.2z M1312.9,1076.4c-0.1-0.3,0.1-0.7,0.5-0.8
		c0.3-0.1,0.7,0.1,0.8,0.5s-0.1,0.7-0.5,0.8C1313.3,1076.9,1313,1076.7,1312.9,1076.4z M1339.1,1070.4c-0.1-0.3,0.1-0.7,0.5-0.8
		c0.3-0.1,0.7,0.1,0.8,0.5c0.1,0.3-0.1,0.7-0.5,0.8C1339.5,1070.9,1339.1,1070.7,1339.1,1070.4z M1357.6,1072.4
		c-0.1-0.3,0.1-0.7,0.5-0.8c0.3-0.1,0.7,0.1,0.8,0.5c0.1,0.3-0.1,0.7-0.5,0.8C1358,1072.9,1357.6,1072.7,1357.6,1072.4z
		 M1378.7,1070.3c-0.1-0.3,0.1-0.7,0.5-0.8c0.3-0.1,0.7,0.1,0.8,0.5c0.1,0.3-0.1,0.7-0.5,0.8
		C1379.1,1070.8,1378.8,1070.6,1378.7,1070.3z M1386.4,1058.1c-0.1-0.3,0.1-0.7,0.5-0.8c0.3-0.1,0.7,0.1,0.8,0.5
		c0.1,0.3-0.1,0.7-0.5,0.8C1386.9,1058.6,1386.5,1058.4,1386.4,1058.1z M1413.3,1060.8c-0.1-0.3,0.1-0.7,0.5-0.8
		c0.3-0.1,0.7,0.1,0.8,0.5c0.1,0.3-0.1,0.7-0.5,0.8C1413.7,1061.4,1413.4,1061.2,1413.3,1060.8z M1429.8,1060.6
		c-0.1-0.3,0.1-0.7,0.5-0.8c0.3-0.1,0.7,0.1,0.8,0.5c0.1,0.3-0.1,0.7-0.5,0.8C1430.2,1061.2,1429.9,1060.9,1429.8,1060.6z
		 M1396.9,1060.8c0.5-0.2,1.2-0.8,1.6-1.9c-0.1,1,1.2,1.4,1.9,1.4c0.8,0.1,0.7,0.4,0.8-0.3c0.2-0.8-0.1-2.5-1.3-2.6
		c0.7-0.2,1.8-0.9,1.9-1.8c0.1-0.8,0.3-0.6-0.2-0.6c-0.9-0.1-1.3,0.4-2,1.4c0.3-0.7,0.4-1.8-0.5-2.2c-0.6-0.3-0.2-0.5-0.5,0
		c-0.3,0.4-0.5,1.1-0.2,2c-0.4-0.5-1.1-0.7-2.5,0c-0.8,0.4-0.3,0.2-0.2,0.8c0.1,0.9,0.7,1.2,1.8,0.9c-0.7,0.4-1.3,1.5-1,2.4
		C1396.8,1061.1,1396.4,1061,1396.9,1060.8z M1382.4,1038.9c0.5-0.1,1.2-0.7,1.4-1.7c0,0.9,1.3,1.4,2,1.6c0.8,0.1,0.7,0.5,0.8-0.2
		c0.1-0.7-0.3-2.4-1.5-2.6c0.7-0.1,1.7-0.6,1.7-1.5c0-0.7,0.2-0.5-0.2-0.6c-0.9-0.2-1.2,0.2-1.8,1.1c0.3-0.7,0.2-1.7-0.7-2.1
		c-0.7-0.4-0.3-0.5-0.5-0.1s-0.4,1,0,1.9c-0.5-0.6-1.2-0.8-2.4-0.2c-0.7,0.3-0.3,0.2-0.1,0.7c0.2,0.8,0.8,1.2,1.9,1.1
		c-0.7,0.3-1.1,1.3-0.8,2.2C1382.3,1039.2,1381.9,1039.1,1382.4,1038.9z M1347,1069.7c0.5-0.1,1.2-0.7,1.4-1.7c0,0.9,1.3,1.4,2,1.6
		c0.8,0.1,0.7,0.5,0.8-0.2c0.1-0.7-0.3-2.4-1.6-2.6c0.7-0.1,1.7-0.6,1.7-1.5c0-0.8,0.2-0.5-0.3-0.6c-0.9-0.2-1.2,0.2-1.8,1.2
		c0.2-0.7,0.2-1.7-0.7-2.2c-0.7-0.4-0.3-0.5-0.5-0.1s-0.4,1,0,1.9c-0.5-0.6-1.2-0.7-2.4-0.2c-0.7,0.3-0.3,0.2-0.1,0.8
		c0.2,0.8,0.8,1.2,1.9,1.1c-0.7,0.3-1.1,1.3-0.8,2.2C1346.9,1069.9,1346.5,1069.8,1347,1069.7z M1319.4,1062.8
		c0.5-0.1,1.1-0.7,1.4-1.7c0,0.9,1.3,1.4,2,1.6c0.8,0.1,0.7,0.5,0.8-0.2c0.1-0.7-0.3-2.4-1.6-2.6c0.7-0.1,1.7-0.6,1.7-1.5
		c0-0.7,0.2-0.5-0.2-0.6c-0.9-0.2-1.2,0.2-1.8,1.2c0.3-0.7,0.2-1.7-0.7-2.1c-0.7-0.4-0.3-0.5-0.5-0.1s-0.4,1,0,1.9
		c-0.5-0.6-1.2-0.8-2.4-0.2c-0.7,0.3-0.3,0.2-0.1,0.7c0.2,0.8,0.8,1.2,1.9,1.1c-0.7,0.3-1.1,1.3-0.8,2.2
		C1319.3,1063,1318.9,1062.9,1319.4,1062.8z M1295.1,1079.8c0.5-0.1,1.1-0.7,1.4-1.7c0,0.9,1.3,1.4,2,1.5c0.8,0.1,0.7,0.5,0.8-0.2
		c0.1-0.7-0.3-2.4-1.5-2.6c0.7-0.1,1.7-0.6,1.7-1.5c0-0.7,0.2-0.5-0.3-0.6c-0.9-0.2-1.2,0.2-1.8,1.2c0.2-0.7,0.2-1.7-0.7-2.1
		c-0.7-0.4-0.3-0.5-0.5-0.1s-0.4,1,0,1.9c-0.5-0.6-1.2-0.8-2.5-0.2c-0.7,0.3-0.3,0.2-0.1,0.7c0.2,0.8,0.8,1.2,1.9,1.1
		c-0.7,0.3-1.1,1.3-0.8,2.2C1295,1080.1,1294.6,1080,1295.1,1079.8z M1304.8,1090.7c0.5-0.1,1.1-0.7,1.4-1.7c0,0.9,1.3,1.4,2,1.6
		c0.8,0.1,0.7,0.5,0.8-0.2c0.1-0.7-0.3-2.4-1.5-2.6c0.6-0.1,1.7-0.6,1.7-1.5c0-0.7,0.2-0.5-0.2-0.6c-0.9-0.2-1.2,0.2-1.8,1.2
		c0.3-0.7,0.2-1.7-0.7-2.1c-0.7-0.4-0.3-0.5-0.5-0.1s-0.4,1,0,1.9c-0.5-0.6-1.2-0.8-2.4-0.2c-0.7,0.3-0.3,0.2-0.1,0.7
		c0.2,0.8,0.8,1.2,1.9,1.1c-0.7,0.3-1.1,1.3-0.8,2.2C1304.6,1091,1304.2,1090.9,1304.8,1090.7z M1364.1,1025.2
		c0.5-0.1,1.2-0.7,1.4-1.7c0,0.9,1.3,1.4,2,1.6c0.8,0.1,0.7,0.5,0.8-0.2c0.1-0.7-0.3-2.4-1.5-2.6c0.7-0.1,1.7-0.6,1.7-1.5
		c0-0.7,0.2-0.5-0.3-0.6c-0.9-0.2-1.2,0.2-1.8,1.1c0.3-0.7,0.2-1.7-0.7-2.1c-0.7-0.4-0.3-0.5-0.5-0.1s-0.4,1,0,1.9
		c-0.5-0.6-1.2-0.8-2.4-0.2c-0.7,0.3-0.3,0.2-0.1,0.7c0.2,0.8,0.8,1.2,1.9,1.1c-0.7,0.3-1.1,1.3-0.8,2.2
		C1364,1025.4,1363.6,1025.3,1364.1,1025.2z M1409.4,1026.6c0.5-0.1,1.1-0.7,1.4-1.7c0,0.9,1.3,1.4,2,1.5c0.8,0.1,0.7,0.5,0.8-0.2
		c0.1-0.7-0.3-2.4-1.6-2.6c0.7-0.1,1.7-0.6,1.7-1.5c0-0.7,0.2-0.5-0.3-0.6c-0.9-0.2-1.2,0.2-1.8,1.2c0.3-0.7,0.2-1.7-0.7-2.2
		c-0.7-0.4-0.3-0.5-0.5,0c-0.2,0.4-0.4,1,0,1.9c-0.5-0.6-1.2-0.8-2.4-0.2c-0.7,0.3-0.3,0.2-0.1,0.8c0.2,0.8,0.8,1.2,1.9,1.1
		c-0.7,0.3-1.1,1.3-0.8,2.2C1409.3,1026.8,1408.9,1026.7,1409.4,1026.6z M1419.8,1027.9c0.5-0.1,1.2-0.7,1.4-1.7
		c0,0.9,1.3,1.4,2,1.6c0.8,0.1,0.7,0.5,0.8-0.2c0.1-0.7-0.3-2.4-1.6-2.6c0.7-0.1,1.7-0.6,1.7-1.5c0-0.7,0.2-0.5-0.3-0.6
		c-0.9-0.2-1.2,0.2-1.8,1.2c0.2-0.7,0.2-1.7-0.7-2.1c-0.7-0.4-0.3-0.5-0.5-0.1s-0.4,1,0,1.9c-0.5-0.6-1.2-0.8-2.4-0.2
		c-0.7,0.3-0.3,0.2-0.1,0.8c0.2,0.8,0.8,1.2,1.9,1.1c-0.7,0.3-1.1,1.3-0.8,2.2C1419.6,1028.2,1419.2,1028.1,1419.8,1027.9z
		 M1427.2,1037.8c0.5-0.1,1.2-0.7,1.4-1.7c0,0.9,1.3,1.4,2,1.6c0.8,0.1,0.7,0.5,0.8-0.2c0.1-0.7-0.3-2.4-1.5-2.6
		c0.7-0.1,1.7-0.6,1.7-1.5c0-0.8,0.2-0.5-0.2-0.6c-0.9-0.2-1.2,0.2-1.8,1.2c0.3-0.7,0.2-1.7-0.7-2.2c-0.7-0.4-0.3-0.5-0.5,0
		c-0.2,0.4-0.4,1,0,1.9c-0.5-0.6-1.2-0.7-2.4-0.2c-0.7,0.3-0.3,0.2-0.1,0.8c0.2,0.8,0.8,1.2,1.9,1.1c-0.7,0.3-1.1,1.3-0.8,2.2
		C1427.1,1038,1426.7,1037.9,1427.2,1037.8z"/>
	<path class="st6" d="M288.5,1808L1440,858c-80.7,2.1-157.6,5.2-230.5,8.4C1004.6,875.2,35,1533,0,1533c0,68,0-1797.4,0,275H288.5z"
		/>
	<path class="st2" d="M1362.7,1574.7L1419,1757c-89.6,22-247.9,22.7-319.5-17.1l73.3-161l41.3,80.4l55.2-98l9.9,66.4l34.8-139.5
		l33.9,190.8L1362.7,1574.7z"/>
	<path class="st10" d="M1431.5,856.5l-144,2c-39.2,10.6-76.9,26.1-112.2,46.2L0,1572.4V1808h230.6l1057.2-864.9
		c40.6-33.2,85.5-60.8,133.5-82.1L1431.5,856.5z"/>
	<path class="st11" d="M166,387.7c-1.3,1.2-1.9,4.6-1,8.1c-1.6-2.7-4.7-4-7.1-3.1c-2.7,0.9-4.3,4.4-3.4,6.7c0.9,2.4,4.6,4,8.7,2.6
		c-1.8,1.3-3.9,4.7-4.2,7.2s1.4,4.2,3,3.4c1.6-0.8,3.5-4.3,4-8.1c0.3,2.4,2.1,5.2,4.1,6.4c2.2,1.4,4.3,0.8,4.4-0.9
		c0.1-1.6-1.6-4.6-4.2-6.7c2.4,0.9,5.4,0.5,7.1-1c2-1.8,2.1-4.9,0.4-6.1c-1.6-1.2-5.1-0.9-8,1.2c1.5-2.1,1.9-5.2,1.1-7.4
		C169.8,387.3,167.4,386.4,166,387.7z M206.8,378.9c-1-0.5-3.1-0.1-4.9,1.1c1.2-1.5,1.3-3.5,0.3-4.7c-1.1-1.3-3.4-1.6-4.6-0.6
		c-1.2,1-1.3,3.5,0.3,5.6c-1.2-0.8-3.5-1.2-5-0.9c-1.5,0.4-2.1,1.7-1.4,2.4c0.8,0.7,3.2,1.1,5.5,0.6c-1.3,0.7-2.6,2.3-2.9,3.7
		c-0.3,1.5,0.5,2.7,1.5,2.3c0.9-0.3,2.3-1.9,3-3.9c0,1.6,0.9,3.2,2.1,3.9c1.4,0.8,3.3,0.2,3.6-1.1c0.3-1.2-0.5-3.1-2.3-4.4
		c1.5,0.4,3.4,0,4.5-0.9C207.8,381,207.8,379.4,206.8,378.9z M213.1,356.3c0.7-1.1,0.4-3.7-1-5.9c1.7,1.6,4.1,1.9,5.7,0.8
		c1.7-1.2,2.2-4,1.1-5.4c-1.1-1.5-4.1-1.9-6.7-0.1c1-1.3,1.8-4.2,1.5-5.9c-0.3-1.9-1.8-2.7-2.8-1.8s-1.6,3.8-1.2,6.6
		c-0.7-1.7-2.6-3.3-4.2-3.7c-1.8-0.5-3.2,0.3-2.9,1.6c0.3,1.1,2.1,2.9,4.4,3.9c-1.9-0.2-3.9,0.8-4.8,2.2c-1.1,1.7-0.5,3.9,1,4.4
		c1.4,0.5,3.8-0.4,5.4-2.5c-0.6,1.8-0.3,4.1,0.7,5.5C210.4,357.3,212.3,357.5,213.1,356.3z M268.3,387.7c0.2-1.8-1.7-4.8-4.7-6.7
		c3,1,6.1-0.2,7.3-2.4c1.4-2.5,0.3-6.1-1.9-7.3c-2.2-1.2-6.1,0.1-8.2,3.9c0.5-2.2-0.3-6.1-1.7-8.1c-1.5-2.1-3.8-2.2-4.5-0.6
		s0.2,5.6,2.4,8.7c-1.9-1.6-5-2.5-7.3-2.1c-2.5,0.4-3.8,2.3-2.7,3.6c1,1.2,4.2,2.3,7.6,2.2c-2.4,0.9-4.3,3.2-4.6,5.5
		c-0.3,2.7,1.7,5,3.8,4.8c2-0.2,4.4-2.7,5.2-6.2c0.3,2.5,2.1,5.2,4.1,6.2C265.7,390.5,268.2,389.6,268.3,387.7z M289.6,399.2
		c-0.9-0.5-2.9-0.1-4.6,1.1c1.2-1.4,1.2-3.3,0.3-4.5c-1-1.3-3.2-1.5-4.3-0.5c-1.1,1-1.2,3.3,0.3,5.2c-1.1-0.7-3.3-1.2-4.7-0.8
		c-1.4,0.3-2,1.6-1.3,2.3c0.7,0.7,3,1.1,5.2,0.6c-1.3,0.6-2.4,2.2-2.7,3.5c-0.3,1.4,0.4,2.5,1.4,2.2c0.9-0.3,2.2-1.8,2.8-3.6
		c0,1.5,0.8,3,2,3.6c1.4,0.7,3.1,0.2,3.4-1c0.3-1.1-0.5-2.9-2.2-4.1c1.4,0.4,3.2,0,4.2-0.9C290.5,401.2,290.5,399.7,289.6,399.2z
		 M260.7,418.3c-2.1-1.1-6.6-0.3-10.4,2.4c2.7-3.2,2.8-7.5,0.7-10.1c-2.4-2.9-7.3-3.3-9.8-1.2c-2.5,2.2-2.8,7.5,0.7,11.9
		c-2.5-1.7-7.6-2.6-10.7-1.9c-3.3,0.8-4.5,3.6-2.9,5.2s6.9,2.5,11.8,1.3c-2.9,1.5-5.5,4.9-6.1,7.9c-0.7,3.3,1,5.7,3.1,5
		c2-0.6,4.9-4,6.4-8.3c-0.1,3.4,1.8,6.9,4.4,8.3c3.1,1.7,7,0.4,7.7-2.3c0.7-2.5-1.1-6.7-5-9.4c3.2,0.9,7.3,0,9.6-2
		C262.8,422.8,262.9,419.4,260.7,418.3z M330.5,437.6c-1.7,0.3-4.1,2.9-5.1,6.4c0.1-3.1-1.9-5.8-4.4-6.4c-2.8-0.6-6,1.5-6.4,3.9
		c-0.5,2.5,1.8,5.8,6,6.8c-2.3,0.2-5.8,2-7.3,3.9c-1.6,2-1,4.3,0.7,4.5s5.3-1.8,7.6-4.8c-1,2.2-0.9,5.5,0.1,7.6
		c1.1,2.3,3.3,3,4.2,1.5c0.9-1.3,1-4.7-0.1-8c1.6,2.1,4.3,3.2,6.5,2.9c2.7-0.5,4.3-3.1,3.6-5c-0.7-1.8-3.8-3.4-7.4-3.2
		c2.4-1,4.4-3.4,4.8-5.7C333.9,439.3,332.3,437.3,330.5,437.6z M130.7,378.3c-1.6-0.8-5-0.2-7.9,1.9c2-2.4,2.1-5.7,0.5-7.7
		c-1.8-2.2-5.6-2.5-7.4-0.9c-1.9,1.6-2.2,5.7,0.5,9.1c-1.9-1.3-5.8-2-8.1-1.5c-2.5,0.6-3.5,2.7-2.2,4c1.2,1.2,5.3,1.9,9,1
		c-2.2,1.1-4.2,3.8-4.7,6c-0.6,2.5,0.7,4.3,2.4,3.8c1.5-0.5,3.7-3.1,4.9-6.3c-0.1,2.6,1.4,5.2,3.4,6.3c2.4,1.3,5.3,0.3,5.9-1.7
		c0.5-1.9-0.9-5.1-3.8-7.1c2.4,0.7,5.6,0,7.3-1.5C132.3,381.8,132.4,379.2,130.7,378.3z M160.4,327c-2-1-6.4-0.3-10.2,2.4
		c2.6-3.1,2.7-7.4,0.7-9.9c-2.3-2.8-7.2-3.2-9.5-1.2c-2.4,2.1-2.8,7.3,0.7,11.6c-2.4-1.6-7.4-2.6-10.4-1.9c-3.2,0.7-4.4,3.5-2.8,5.1
		c1.6,1.5,6.7,2.4,11.5,1.2c-2.8,1.4-5.3,4.8-6,7.7c-0.7,3.2,0.9,5.5,3,4.9c1.9-0.6,4.8-3.9,6.2-8.1c-0.1,3.3,1.8,6.7,4.3,8.1
		c3,1.6,6.8,0.4,7.5-2.2c0.7-2.4-1.1-6.5-4.9-9.1c3.1,0.9,7.1,0,9.3-1.9C162.4,331.4,162.5,328.1,160.4,327z M166.5,364.5
		c0.2,1.4-0.7,2.7-2.1,2.9c-1.4,0.2-2.7-0.7-2.9-2.1s0.7-2.7,2.1-2.9C165,362.2,166.3,363.1,166.5,364.5z M207.2,412
		c0.2,1.4-0.7,2.7-2.1,2.9c-1.4,0.2-2.7-0.7-2.9-2.1s0.7-2.7,2.1-2.9S206.9,410.6,207.2,412z M232.3,368.9c0.2,1.4-0.7,2.7-2.1,2.9
		c-1.4,0.2-2.7-0.7-2.9-2.1s0.7-2.7,2.1-2.9C230.8,366.6,232.1,367.5,232.3,368.9z M252.4,396c-0.7,1.2-2.2,1.7-3.4,1
		s-1.7-2.2-1-3.4c0.7-1.2,2.2-1.7,3.4-1C252.7,393.2,253.1,394.7,252.4,396z M316.4,413.4c-0.7,1.2-2.2,1.7-3.4,1
		c-1.2-0.7-1.7-2.2-1-3.4c0.7-1.2,2.2-1.7,3.4-1C316.6,410.6,317.1,412.1,316.4,413.4z M263.1,432.9c-0.3,0.6-1.1,0.8-1.7,0.5
		s-0.8-1.1-0.5-1.7s1.1-0.8,1.7-0.5S263.4,432.3,263.1,432.9z M230.7,410.7c-0.3,0.6-1.1,0.8-1.7,0.5c-0.6-0.3-0.8-1.1-0.5-1.7
		s1.1-0.8,1.7-0.5C230.8,409.4,231,410.1,230.7,410.7z M187.6,366.6c-0.3,0.6-1.1,0.8-1.7,0.5c-0.6-0.3-0.8-1.1-0.5-1.7
		s1.1-0.8,1.7-0.5C187.8,365.2,188,366,187.6,366.6z M162.2,345.1c-0.3,0.6-1.1,0.8-1.7,0.5c-0.6-0.3-0.8-1.1-0.5-1.7
		s1.1-0.8,1.7-0.5C162.3,343.7,162.5,344.5,162.2,345.1z M143,379.4c-0.3,0.6-1.1,0.8-1.7,0.5c-0.6-0.3-0.8-1.1-0.5-1.7
		s1.1-0.8,1.7-0.5C143.1,378,143.3,378.8,143,379.4z M160.5,416.4c-0.3,0.6-1.1,0.8-1.7,0.5c-0.6-0.3-0.8-1.1-0.5-1.7
		s1.1-0.8,1.7-0.5C160.7,415.1,160.9,415.8,160.5,416.4z M170.3,430c-0.3,0.6-1.1,0.8-1.7,0.5c-0.6-0.3-0.8-1.1-0.5-1.7
		s1.1-0.8,1.7-0.5C170.4,428.6,170.6,429.4,170.3,430z M210.6,440.3c-0.3,0.6-1.1,0.8-1.7,0.5c-0.6-0.3-0.8-1.1-0.5-1.7
		s1.1-0.8,1.7-0.5C210.7,438.9,211,439.7,210.6,440.3z M276.4,441.4c-0.3,0.6-1.1,0.8-1.7,0.5s-0.8-1.1-0.5-1.7s1.1-0.8,1.7-0.5
		C276.5,440.1,276.7,440.8,276.4,441.4z M294.2,443.5c-0.3,0.6-1.1,0.8-1.7,0.5s-0.8-1.1-0.5-1.7s1.1-0.8,1.7-0.5
		C294.3,442.1,294.5,442.9,294.2,443.5z M296,422.2c-0.2,0.3-0.5,0.4-0.9,0.2c-0.3-0.2-0.4-0.5-0.2-0.9c0.2-0.3,0.5-0.4,0.9-0.2
		C296.1,421.5,296.2,421.9,296,422.2z M272.6,409.3c-0.2,0.3-0.5,0.4-0.9,0.2c-0.3-0.2-0.4-0.5-0.2-0.9c0.2-0.3,0.5-0.4,0.9-0.2
		C272.7,408.6,272.8,409,272.6,409.3z M260.2,395.6c-0.2,0.3-0.5,0.4-0.9,0.2c-0.3-0.2-0.4-0.5-0.2-0.9c0.2-0.3,0.5-0.4,0.9-0.2
		C260.2,394.9,260.4,395.3,260.2,395.6z M243.1,383.2c-0.2,0.3-0.5,0.4-0.9,0.2c-0.3-0.2-0.4-0.5-0.2-0.9c0.2-0.3,0.5-0.4,0.9-0.2
		C243.2,382.5,243.3,382.9,243.1,383.2z M229.3,387.1c-0.2,0.3-0.5,0.4-0.9,0.2c-0.3-0.2-0.4-0.5-0.2-0.9c0.2-0.3,0.5-0.4,0.9-0.2
		C229.3,386.4,229.4,386.8,229.3,387.1z M211.2,367.2c-0.2,0.3-0.5,0.4-0.9,0.2c-0.3-0.2-0.4-0.5-0.2-0.9c0.2-0.3,0.5-0.4,0.9-0.2
		C211.2,366.5,211.3,366.9,211.2,367.2z M198.7,356.5c-0.2,0.3-0.5,0.4-0.9,0.2c-0.3-0.2-0.4-0.5-0.2-0.9c0.2-0.3,0.5-0.4,0.9-0.2
		C198.8,355.8,198.9,356.1,198.7,356.5z M223.3,378.1c-0.5-0.2-1.5-0.2-2.4,0.4c0.7-0.7,0-1.8-0.5-2.3c-0.6-0.6-0.2-0.8-0.8-0.3
		s-1.6,1.9-0.8,2.8c-0.6-0.3-1.9-0.6-2.6,0.1c-0.6,0.5-0.6,0.2-0.3,0.6c0.6,0.7,1.2,0.5,2.4,0.3c-0.7,0.3-1.4,1.1-1.1,1.9
		c0.3,0.6-0.2,0.5,0.4,0.3c0.5-0.1,1.1-0.5,1.5-1.4c0,0.7,0.4,1.2,1.9,1.6c0.8,0.2,0.3,0,0.7-0.5c0.5-0.7,0.3-1.4-0.7-1.9
		c0.8,0.2,2-0.3,2.4-1.1C223.6,378,223.9,378.3,223.3,378.1z M150.8,392.9c-0.5-0.2-1.3-0.3-2.1,0.3c0.6-0.7,0-1.9-0.5-2.5
		s-0.2-0.8-0.8-0.4c-0.6,0.5-1.4,2-0.6,3c-0.5-0.4-1.7-0.7-2.3,0c-0.5,0.5-0.5,0.2-0.2,0.6c0.5,0.7,1.1,0.6,2.1,0.4
		c-0.6,0.3-1.2,1.1-0.9,2c0.2,0.7-0.1,0.5,0.4,0.4c0.4-0.1,1-0.5,1.3-1.4c0,0.8,0.4,1.3,1.7,1.8c0.7,0.3,0.3,0.1,0.6-0.5
		c0.4-0.8,0.2-1.4-0.7-2c0.7,0.2,1.7-0.2,2-1.1C151.1,392.8,151.3,393.1,150.8,392.9z M178.4,348c-0.5-0.2-1.3-0.3-2.1,0.3
		c0.6-0.7,0-1.9-0.5-2.5s-0.2-0.8-0.8-0.4c-0.6,0.5-1.4,2-0.6,3c-0.5-0.4-1.7-0.7-2.3,0c-0.5,0.5-0.5,0.2-0.2,0.6
		c0.5,0.7,1.1,0.6,2.1,0.4c-0.6,0.3-1.2,1.1-0.9,2c0.2,0.7-0.1,0.5,0.4,0.4c0.4-0.1,1-0.5,1.3-1.4c0,0.8,0.4,1.3,1.7,1.8
		c0.7,0.3,0.3,0.1,0.6-0.5c0.4-0.8,0.2-1.4-0.7-2c0.7,0.2,1.7-0.2,2-1.1C178.7,347.9,178.9,348.2,178.4,348z M219.6,403.9
		c-0.5-0.2-1.3-0.3-2.1,0.3c0.6-0.7,0-1.9-0.5-2.5s-0.2-0.8-0.8-0.4c-0.6,0.5-1.4,2-0.6,3c-0.5-0.4-1.7-0.7-2.3,0
		c-0.5,0.5-0.5,0.2-0.2,0.6c0.5,0.7,1.1,0.6,2.1,0.4c-0.6,0.3-1.2,1.1-0.9,2c0.2,0.7-0.1,0.5,0.3,0.4c0.4-0.1,1-0.5,1.3-1.4
		c0,0.8,0.4,1.3,1.7,1.8c0.7,0.3,0.3,0.1,0.6-0.5c0.4-0.8,0.2-1.4-0.7-2c0.7,0.2,1.7-0.2,2-1.1C219.8,403.8,220.1,404.2,219.6,403.9
		z M266.2,404.6c-0.5-0.2-1.3-0.3-2.1,0.3c0.6-0.7,0-1.9-0.5-2.5s-0.2-0.8-0.8-0.4c-0.6,0.5-1.4,2-0.6,3c-0.5-0.4-1.7-0.7-2.3,0
		c-0.5,0.5-0.5,0.2-0.2,0.6c0.5,0.7,1.1,0.6,2.1,0.4c-0.6,0.3-1.2,1.1-0.9,2c0.2,0.7-0.1,0.5,0.4,0.4c0.4-0.1,1-0.5,1.3-1.4
		c0,0.8,0.4,1.3,1.7,1.8c0.7,0.3,0.3,0.1,0.6-0.5c0.4-0.8,0.2-1.4-0.7-2c0.7,0.2,1.7-0.2,2-1.1C266.5,404.5,266.7,404.8,266.2,404.6
		z M282.1,428c-0.5-0.2-1.3-0.3-2.1,0.3c0.6-0.7,0-1.9-0.5-2.5s-0.2-0.8-0.8-0.4c-0.6,0.5-1.4,2-0.6,3c-0.5-0.4-1.7-0.7-2.3,0
		c-0.5,0.5-0.5,0.2-0.2,0.6c0.5,0.7,1.1,0.6,2.1,0.4c-0.6,0.3-1.2,1.1-0.9,2c0.2,0.7-0.1,0.5,0.4,0.4c0.4-0.1,1-0.5,1.3-1.4
		c0,0.8,0.4,1.3,1.7,1.8c0.7,0.3,0.3,0.1,0.6-0.5c0.4-0.8,0.2-1.4-0.7-2c0.7,0.2,1.7-0.2,2-1.1C282.4,427.9,282.6,428.2,282.1,428z
		 M311.5,431.4c-0.5-0.2-1.3-0.3-2.1,0.3c0.6-0.7,0-1.9-0.5-2.5s-0.2-0.8-0.8-0.4c-0.6,0.5-1.4,2-0.6,3c-0.5-0.4-1.7-0.7-2.3,0
		c-0.5,0.5-0.5,0.2-0.2,0.6c0.5,0.7,1.1,0.6,2.1,0.4c-0.6,0.3-1.2,1.1-0.9,2.1c0.2,0.7-0.1,0.5,0.4,0.4c0.4-0.1,1-0.5,1.3-1.4
		c0,0.8,0.4,1.3,1.7,1.8c0.7,0.3,0.3,0.1,0.6-0.5c0.4-0.8,0.2-1.4-0.7-2c0.7,0.2,1.7-0.2,2-1.1C311.8,431.3,312,431.6,311.5,431.4z
		 M311.6,416.9c-0.5-0.2-1.3-0.3-2.1,0.3c0.6-0.7,0-1.9-0.5-2.5s-0.2-0.8-0.8-0.4c-0.6,0.5-1.4,2-0.6,3c-0.5-0.4-1.7-0.7-2.3,0
		c-0.5,0.5-0.5,0.2-0.2,0.6c0.5,0.7,1.1,0.6,2.1,0.4c-0.6,0.3-1.2,1.1-0.9,2c0.2,0.7-0.1,0.5,0.4,0.4c0.4-0.1,1-0.5,1.3-1.4
		c0,0.8,0.4,1.3,1.7,1.8c0.7,0.3,0.3,0.1,0.6-0.5c0.4-0.8,0.2-1.4-0.7-2c0.7,0.2,1.7-0.2,2-1.1C311.8,416.8,312.1,417.2,311.6,416.9
		z M224,426.3c-0.5-0.2-1.3-0.3-2.1,0.3c0.6-0.7,0-1.9-0.5-2.5s-0.2-0.8-0.8-0.4c-0.6,0.5-1.4,2-0.6,3c-0.5-0.4-1.7-0.7-2.3,0
		c-0.5,0.5-0.5,0.2-0.2,0.6c0.5,0.7,1.1,0.6,2.1,0.4c-0.6,0.3-1.2,1.1-0.9,2c0.2,0.7-0.1,0.5,0.4,0.4c0.4-0.1,1-0.5,1.3-1.4
		c0,0.8,0.4,1.3,1.7,1.8c0.7,0.3,0.3,0.1,0.6-0.5c0.4-0.8,0.2-1.4-0.7-2c0.7,0.2,1.7-0.2,2-1.1C224.3,426.2,224.5,426.5,224,426.3z
		 M191.3,395.2c-0.5-0.2-1.3-0.3-2.1,0.3c0.6-0.7,0-1.9-0.5-2.5s-0.2-0.8-0.8-0.4c-0.6,0.5-1.4,2-0.6,3c-0.5-0.4-1.7-0.7-2.3,0
		c-0.5,0.5-0.5,0.2-0.2,0.6c0.5,0.7,1.1,0.6,2.1,0.4c-0.6,0.3-1.2,1.1-0.9,2c0.2,0.7-0.1,0.5,0.3,0.4c0.4-0.1,1-0.5,1.3-1.4
		c0,0.8,0.4,1.3,1.7,1.8c0.7,0.3,0.3,0.1,0.6-0.5c0.4-0.8,0.2-1.4-0.7-2c0.7,0.2,1.7-0.2,2-1.1C191.6,395.1,191.8,395.5,191.3,395.2
		z M184.5,387.4c-0.5-0.2-1.3-0.3-2.1,0.3c0.6-0.7,0-1.9-0.5-2.5s-0.2-0.8-0.8-0.4c-0.6,0.5-1.4,2-0.6,3c-0.5-0.4-1.7-0.7-2.3,0
		c-0.5,0.5-0.5,0.2-0.2,0.6c0.5,0.7,1.1,0.6,2.1,0.4c-0.6,0.3-1.2,1.1-0.9,2c0.2,0.7-0.1,0.5,0.4,0.4c0.4-0.1,1-0.5,1.3-1.4
		c0,0.8,0.4,1.3,1.7,1.8c0.7,0.3,0.3,0.1,0.6-0.5c0.4-0.8,0.2-1.4-0.7-2c0.7,0.2,1.7-0.2,2-1.1C184.8,387.3,185,387.6,184.5,387.4z
		 M185.5,375.1c-0.5-0.2-1.3-0.3-2.1,0.3c0.6-0.7,0-1.9-0.5-2.5s-0.2-0.8-0.8-0.4c-0.6,0.5-1.4,2-0.6,3c-0.5-0.4-1.7-0.7-2.3,0
		c-0.5,0.5-0.5,0.2-0.2,0.6c0.5,0.7,1.1,0.6,2.1,0.4c-0.6,0.3-1.2,1.1-0.9,2.1c0.2,0.7-0.1,0.5,0.3,0.4c0.4-0.1,1-0.5,1.3-1.4
		c0,0.8,0.4,1.3,1.7,1.8c0.7,0.3,0.3,0.1,0.6-0.5c0.4-0.8,0.2-1.4-0.7-2c0.7,0.2,1.7-0.2,2-1.1C185.8,375,186,375.4,185.5,375.1z"/>
</g>
<g>
	<path class="st12" d="M271.8,1358.2c0.2-11.4-0.1-96.1,0.1-107.5c-0.2,0.2-0.5,0.3-0.9,0.5c-0.7,0.2-1.3,0.2-1.4,0.2
		c-0.4,0-0.8-0.2-1.1-0.3c-0.1,11.2,0.2,95.7,0,107C269.6,1358,270.7,1358.1,271.8,1358.2z"/>
	<path class="st13" d="M234.1,1248.2c18.2-31.8,31.8-55.1,33.4-57.3c0.3-0.4,1-1.5,2.2-1.7c1-0.1,2.1,0.3,2.8,1.1
		c11.3,19.6,22.4,38.7,33.8,58.3c0,0.1,0.8,1.5,0,3c-0.8,1.4-2.4,1.5-2.5,1.5c-22.7,0-45.3,0-68-0.1c-0.2-0.1-1.4-0.5-1.9-1.8
		C233.2,1249.7,234,1248.3,234.1,1248.2z"/>
	<path class="st14" d="M235.6,1247.5c17.5-30.4,30.4-52.7,31.9-54.9c0.3-0.4,1-1.4,2.1-1.6c1-0.1,2,0.3,2.6,1.1
		c10.9,18.7,21.5,37.1,32.3,55.8c0,0.1,0.8,1.5,0,2.8c-0.8,1.3-2.3,1.4-2.4,1.4c-21.7,0-43.4,0-65.1-0.1c-0.2-0.1-1.3-0.5-1.8-1.7
		C234.8,1249,235.6,1247.7,235.6,1247.5z"/>
	<path class="st13" d="M270.1,1201.4l-25.7,44h51L270.1,1201.4z"/>
	<path class="st10" d="M260.3,1226.4c-1.3,1.3-2.7,2.7-4,4c0,0.2,0.1,0.4,0.2,0.6c0.3,0.6,1,0.7,1.1,0.7c1.4,0,2.9,0,4.3,0.1
		c0.2,0.3,0.5,0.7,0.9,1.2c1.3,1.6,1.6,1.8,2.1,2.5c0.9,1.3,1.1,2.5,1.2,2.8c0.3,1.5,0.1,2.7-0.1,3.5c-0.1,0.6-0.2,1.1-0.3,1.4
		c0.5,0,0.9,0,1.4,0c0.1-1.3,0.3-2.6,0.5-4c0.1-0.4,0.1-0.8,0.2-1.1c0.2,0.1,0.5,0.3,0.7,0.6c0.9,1,0.8,2.5,0.7,3.5
		c0,0.5-0.1,0.9-0.2,1.2c0.5,0,1.1,0,1.6,0c0-1.7-0.2-2.7-0.3-3.4c0-0.2-0.1-0.8-0.2-1.6c0-0.5-0.1-0.9-0.1-1.2
		c0.4,0,0.9-0.1,1.4-0.1c1.2-0.2,2.3-0.4,3.2-0.7c0.1,0,0.3,0.1,0.5,0.3c0.3,0.3,0.4,0.7,0.5,1c0.3,1.4,0.4,2.1,0.4,2.1
		c0,0.4-0.1,1.3-0.5,2.4c-0.2,0.5-0.5,0.9-0.7,1.2c0.5,0,1.1,0.1,1.6,0.1c0.7-1.4,1.4-3,1.9-4.7c0.1-0.4,0.2-0.7,0.3-1
		c0.1,0,0.3,0,0.4,0c0.4,0.4,0.8,1,1.1,1.8c0.2,0.4,0.5,1.3,0.4,2.5c-0.1,0.5-0.2,1-0.3,1.3c0.5,0,1,0,1.5,0c0-4,0-8,0-12
		c0-0.6,0-1.2,0-1.9c-0.1-0.1-0.3-0.2-0.4-0.3c0-0.1,0.2-0.2,0.5-0.3c0.3-0.1,0.6,0.1,0.8,0.3c0,0.3,0,0.7,0,1
		c0,1.9,0.1,3.8,0.2,5.6c0.1,0.2,0.2,0.4,0.2,0.7c0.1,0.6,0,1,0.1,1.1c0.1,0,0.3-0.5,0.5-0.8c0.3-0.6,0.2-0.8,0.2-0.9
		c-0.1-0.3-0.3-0.4-0.3-0.4c-0.1,0-0.1-0.1-0.2-0.1c0-2.1,0-4.2-0.1-6.4c-0.1-0.2-0.2-0.3-0.4-0.5c-0.5-0.5-1.1-0.6-1.3-0.6
		c-5.1,0-10.2,0.1-15.2,0.1c-0.1-0.1-0.3-0.2-0.5-0.3c-0.6-0.2-1,0-1.6,0c-0.3,0-0.7-0.1-1.2-0.4c0.1-0.2,0.2-0.5,0.2-1
		c0-0.4-0.1-0.6-0.2-0.8c-0.1,0-0.2,0.1-0.3,0.2c-0.3,0.2-0.4,0.5-0.5,0.7c-0.4-0.4-0.7-0.8-1.1-1.1c-1.1,0-2.2,0-3.3,0.1
		c0.7,0.3,1.4,0.5,2.1,0.8C260.1,1226.1,260.2,1226.2,260.3,1226.4z"/>
</g>
<g>
	<path class="st8" d="M316.5,435.4l7.2,20.8l7.3-20.8H316.5z"/>
	<path class="st8" d="M341.9,435.2l8.1,20.5l6.4-21.1L341.9,435.2z"/>
	<path class="st8" d="M367.8,433.7l9.3,19.9l5.1-21.4L367.8,433.7z"/>
	<path class="st8" d="M389.4,431.3l10.4,19.4l3.9-21.7L389.4,431.3z"/>
	<path class="st8" d="M412.3,427.4l11.5,18.7l2.6-21.9L412.3,427.4z"/>
	<path class="st8" d="M437.7,421.4l12.6,18l1.4-22L437.7,421.4z"/>
	<path class="st8" d="M460.5,414.7l13.7,17.2l0-22L460.5,414.7z"/>
	<path class="st8" d="M483.9,406.2l15.3,15.8l-2.1-21.9L483.9,406.2z"/>
	<path class="st8" d="M289.8,434.1l6.3,21.1l8.2-20.5L289.8,434.1z"/>
	<path class="st8" d="M265,432.4l5.5,21.3l8.9-20.1L265,432.4z"/>
	<path class="st8" d="M239,430.2l5,21.4l9.4-19.9L239,430.2z"/>
	<path class="st8" d="M210.2,425.7l3.8,21.7l10.5-19.4L210.2,425.7z"/>
	<path class="st8" d="M184.4,421.3l3.3,21.7l10.9-19.1L184.4,421.3z"/>
	<path class="st15" d="M178.3,579.6h-3.1V419.4c1,0,2.1,0,3.1,0C178.3,472.8,178.3,526.2,178.3,579.6z"/>
	<path class="st15" d="M518.2,390.1h-3.1v159.6h3.1V390.1z"/>
	<path class="st16" d="M178.3,419.9c42.6,9,79.1,12.6,106.6,14c36.4,1.9,75.4,3.7,124.7-6c42.8-8.4,70-19.4,85.2-26.7
		c8.6-4.2,15.5-8,20.3-10.8"/>
	<path class="st17" d="M543.2,609.3l16.3-13.5v-32l-16.8,6.3L543.2,609.3z"/>
	<path class="st18" d="M559.1,594.8l16.3,8.2l0.7-36l-16.5-4.8l-1.4,1L559.1,594.8z"/>
	<path class="st17" d="M524.2,562.3l-0.2-6.4l8.4,3.2v3.6L524.2,562.3z"/>
	<path class="st19" d="M538.7,562.3l-14.5-6.4l16.7-3.7"/>
	<path class="st19" d="M509.2,566.4l28.6-8.4l13.3,8.9l-8.4,3.1L509.2,566.4z"/>
	<path class="st19" d="M578.9,558l23.3,4.2l-26.1,4.8l-16.5-4.8l14.1-3.5L578.9,558z"/>
	<path class="st17" d="M531.6,560.8l5.1,6.9l-1-40.6l-5,0.3L531.6,560.8z"/>
	<path class="st20" d="M535.6,527.1l1,40.6l37.4-2l0.8-38.6H535.6z"/>
	<path class="st20" d="M509.2,566.4l1.8,35.8l32.2,7l-0.5-39.2L509.2,566.4z"/>
	<path class="st20" d="M576.1,567l-0.7,36l25.2-7.8l1.6-33L576.1,567z"/>
	<path class="st21" d="M522.9,567.9l0.3,12.5l3.9,0.7l-0.3-12.7L522.9,567.9z"/>
	<path class="st21" d="M587.8,577.4l0.1-12.5l3.9-0.8l-0.1,12.7L587.8,577.4z"/>
	<path class="st22" d="M522.9,567.9l10.9-4.1l1.1,1.5l-8,3L522.9,567.9z"/>
	<path class="st22" d="M591.8,564.1l-16.5-5.6l-1.1,0.1l0,1.2l13.7,5.1L591.8,564.1z"/>
	<path class="st21" d="M556.8,527.1h-4.1V539h4.1V527.1z"/>
	<g id="Layer_2_1_">
		<g id="Layer_1-2">
			<path class="st23" d="M550.9,547.1c-0.7,0-1.2-0.5-1.2-1.2c0-0.7,0.5-1.2,1.2-1.2c0.7,0,1.2,0.5,1.2,1.2
				C552.1,546.6,551.5,547.1,550.9,547.1C550.9,547.1,550.9,547.1,550.9,547.1 M566.2,550.4c-0.3,0-0.6-0.3-0.6-0.6s0.3-0.6,0.6-0.6
				s0.6,0.3,0.6,0.6c0,0,0,0,0,0C566.8,550.2,566.5,550.4,566.2,550.4L566.2,550.4 M557.9,550.4c-0.3,0-0.6-0.3-0.6-0.6
				s0.3-0.6,0.6-0.6s0.6,0.3,0.6,0.6c0,0,0,0,0,0C558.5,550.2,558.2,550.4,557.9,550.4 M544.5,548.5
				C544.3,548.5,544.4,548.5,544.5,548.5c-0.1-0.2,0-0.4,0.1-0.6c0.1-0.2,0-0.2-0.1-0.2h-1.7c-0.1,0-0.1,0-0.2,0.2s-0.4,1.4-0.5,1.7
				c-0.1,0.2-0.2,0.3-0.3,0.5c-0.3,0.2-0.6,0.1-0.6-0.5c0-1.6,1.5-3.6,3.6-3.6c1,0,1.3,0.5,1.4,0.8
				C546.3,547.8,544.6,548.4,544.5,548.5 M570.1,551.3c0-0.1-0.1-1.1-0.2-1.3c0-0.2-0.2-0.1-0.2-0.1c0,0-0.3,0.2-0.5,0.3
				c-0.2,0.1-0.4,0-0.3-0.3c0-0.1,0.6-1.9,0.6-2c0.1-0.2-0.1-0.2-0.1-0.2H568c-0.1,0-0.1,0.1-0.2,0.1c0,0.1-0.1,0.2-0.1,0.2
				c0,0.1-0.1,0-0.1,0c-0.4-0.4-0.9-0.6-1.4-0.6c-1.5,0-2.2,1.3-2.3,2.1c0,0.1,0,0.1-0.1,0.1c-0.1,0.1-0.7,0.4-0.9,0.5
				c-0.2,0.1-0.3-0.1-0.3-0.3c0,0,1.4-4.5,1.4-4.6c0-0.2,0-0.2-0.1-0.2h-1.6c-0.1,0-0.1,0-0.2,0.1c0,0-0.9,2.8-0.9,2.8
				s-0.2,0.2-1.1,0.2c-1,0-1.3-0.8-2.5-0.8c-2,0-2.2,2.2-2.2,2.2s-0.7,0.4-1,0.5c-0.2,0.1-0.4,0.2-0.6,0.2c-0.3,0-0.6-0.3-0.6-0.6
				c0-0.3,0.2-0.5,0.5-0.6c0.1,0,0.3,0,0.4,0.1c0.1,0.1,0.2,0,0.2,0c0.1-0.1,0.9-1,1-1.1c0.1-0.1,0-0.2,0-0.2c0,0,0,0,0,0
				c-0.4-0.3-0.8-0.5-1.3-0.5c-1.8,0-2.3,1.5-2.4,2c0,0.1-0.1,0.1-0.1,0.1c-0.1,0.1-0.6,0.4-0.7,0.5c-0.3,0.2-0.4-0.1-0.3-0.2
				c0,0,0.5-1.7,0.6-2c0.1-0.3,0.1-0.2-0.2-0.2h-1.4c-0.2,0-0.2,0-0.3,0.1c0,0-0.3,1.1-0.4,1.3c0,0.1-0.1,0.2-0.2,0.3
				c0,0-0.4,0.2-0.4,0.2c-1.2,0.8-1.2,0.6-1.7-0.3c-0.1-0.1-0.1-0.1,0-0.2c0.3-0.2,1.5-0.8,1.5-2.5c0-1.6-1.4-2.6-3.5-2.6
				c-3,0-5.6,2.6-5.5,5.6c0.1,3.3,2.7,3.1,4,1.4c1-1.3,1-2,1.1-2c0.1,0,0.2,0.3,0.4,0.6c0.3,0.6,0.7,1.5,1,1.8
				c0.3,0.5,0.8,0.8,1.4,0.8c0.7,0,1.1-0.3,1.7-0.7c0.1,0,0.2-0.1,0.2,0c0.3,0.5,0.8,0.7,1.4,0.7c0.7,0,1.6-0.6,1.8-0.7
				c0.1-0.1,0.1-0.1,0.2,0c0,0,0.7,0.7,1.7,0.7c0.8,0,1.9-0.6,2-0.7c0.1,0,0.1-0.1,0.2,0c0.2,0.2,0.6,0.7,1.6,0.7
				c1.8,0,2.4-1.5,2.4-2.2c0-0.1,0-0.1,0.1-0.1h0.3c0.1,0,0.2,0,0.1,0.1c0,0.2-0.2,0.6-0.1,1c0.1,0.5,0.6,1.2,1.7,1.2
				c0.7,0,1.8-0.7,1.9-0.8c0.1,0,0.2,0,0.2,0c0.3,0.3,0.8,0.7,1.5,0.7c0.5,0,0.9-0.1,1.3-0.4c0.1,0,0.1-0.1,0.2,0
				c0.3,0.3,0.6,0.4,1,0.4c0.6,0,1.4-0.6,1.5-0.6C570.2,551.4,570.1,551.4,570.1,551.3"/>
		</g>
	</g>
</g>
</svg>
