<?xml version="1.0" encoding="utf-8"?>
<!-- Generator: Adobe Illustrator 25.0.1, SVG Export Plug-In . SVG Version: 6.00 Build 0)  -->
<svg version="1.1" id="Layer_1" xmlns="http://www.w3.org/2000/svg" xmlns:xlink="http://www.w3.org/1999/xlink" x="0px" y="0px"
	 viewBox="0 0 1440 2544" style="enable-background:new 0 0 1440 2544;" xml:space="preserve">
<style type="text/css">
	.st0{fill:#117262;}
	.st1{fill:#005245;}
	.st2{fill:#015144;}
	.st3{fill:#FFCD05;}
	.st4{fill:#FFCD05;fill-opacity:0.27;}
	.st5{fill:#FFCD05;fill-opacity:0.68;}
	.st6{fill:#FFFFFF;}
	.st7{clip-path:url(#SVGID_2_);}
	.st8{fill:#0C3932;}
	.st9{clip-path:url(#SVGID_4_);}
	.st10{clip-path:url(#SVGID_6_);}
	.st11{clip-path:url(#SVGID_8_);}
</style>
<g>
	<path class="st0" d="M1440,603c-329.8-32.4-894,0-1440-247v677.5h1440V603z"/>
</g>
<path class="st1" d="M300.7,519.5l1-4.6l-0.6-4.8l-0.9,3.9v3.3l0.3,1.9l-1.7-3.8l-1.7-0.3l-0.3,2.7l1-1.2l0.3,0.6l2.4,2.7
	L300.7,519.5z"/>
<path class="st1" d="M370.7,497.5l-1-4.6l0.6-4.8l0.9,3.9v3.3l-0.3,1.9l1.7-3.8l1.7-0.3l0.3,2.7l-1-1.2l-0.3,0.6L371,498
	L370.7,497.5z"/>
<path class="st1" d="M416.7,556.5l-1-4.6l0.6-4.8l0.9,3.9v3.3l-0.3,1.9l1.7-3.8l1.7-0.3l0.3,2.7l-1-1.2l-0.3,0.6L417,557
	L416.7,556.5z"/>
<path class="st2" d="M263.4,524.1l-0.6,4.1c0,0,6.7-0.5,9.8-0.5c3.1,0,12.1,0.3,12.1,0.3l-3.8-0.6l-1.4-0.3h-2.3l-1.2-1.8l-1.7,1.4
	l-0.4-2l-1.3,2.1l-1.8-1.7l-2.4,1.4l-1-2.2l-2.4,3L263.4,524.1z"/>
<path class="st2" d="M364.8,486.7c0,0,0.9,3.8,0.9,5.4c-0.7-0.3-4.6-0.7-8.6-0.7c-4,0-8.2,0.5-9.2,0.7c1-1,1.6-2.1,1.6-2.1l1.2-0.3
	l2.1,0.7l0.9-1.6l1.5,1.3l0.3-1.9l1.2,1.9l1.5-1.6l2.1,1.3l0.9-2.8l2.1,3.2L364.8,486.7z"/>
<path class="st3" d="M15.6,417.2c-0.7,0.6-1,2.4-0.6,4.1c-0.8-1.4-2.4-2.1-3.6-1.7c-1.4,0.5-2.2,2.2-1.8,3.4
	c0.4,1.2,2.3,2.1,4.4,1.4c-1,0.7-2,2.4-2.2,3.6c-0.2,1.3,0.7,2.2,1.5,1.8c0.8-0.4,1.8-2.2,2.1-4.1c0.1,1.3,1,2.7,2,3.3
	c1.1,0.7,2.2,0.4,2.3-0.4c0-0.8-0.8-2.3-2.1-3.5c1.2,0.5,2.8,0.3,3.6-0.5c1-0.9,1.1-2.5,0.2-3.1c-0.8-0.6-2.6-0.5-4.1,0.5
	c0.8-1,1-2.7,0.6-3.8C17.5,417.1,16.3,416.6,15.6,417.2z M36.5,413.1c-0.5-0.3-1.6-0.1-2.5,0.5c0.6-0.8,0.7-1.8,0.2-2.4
	c-0.6-0.7-1.7-0.8-2.3-0.3c-0.6,0.5-0.7,1.8,0.1,2.9c-0.6-0.4-1.8-0.7-2.6-0.5c-0.8,0.2-1.1,0.8-0.7,1.2c0.4,0.4,1.6,0.6,2.8,0.3
	c-0.7,0.3-1.3,1.2-1.5,1.9c-0.2,0.8,0.2,1.4,0.7,1.2c0.5-0.1,1.2-0.9,1.6-2c0,0.8,0.4,1.6,1,2c0.7,0.4,1.7,0.1,1.9-0.5
	c0.2-0.6-0.3-1.6-1.2-2.3c0.8,0.2,1.7,0,2.3-0.4C37,414.1,37,413.3,36.5,413.1z M39.9,401.5c0.4-0.6,0.2-1.9-0.4-3.1
	c0.8,0.8,2.1,1,2.9,0.4c0.9-0.6,1.1-2,0.6-2.8c-0.6-0.8-2.1-1-3.4-0.1c0.5-0.7,0.9-2.1,0.8-3c-0.1-1-0.9-1.4-1.4-1
	c-0.5,0.4-0.9,1.9-0.6,3.4c-0.4-0.9-1.3-1.7-2.1-2c-0.9-0.3-1.7,0.1-1.5,0.8c0.1,0.6,1,1.5,2.2,2c-1-0.1-2,0.4-2.5,1.1
	c-0.6,0.8-0.3,2,0.5,2.3c0.7,0.3,1.9-0.2,2.8-1.2c-0.3,0.9-0.2,2.1,0.3,2.8C38.5,402,39.5,402.1,39.9,401.5z M68,418.1
	c0.1-0.9-0.8-2.4-2.3-3.5c1.5,0.5,3.1,0,3.8-1.2c0.7-1.3,0.2-3.1-0.9-3.7c-1.1-0.6-3.1,0-4.2,1.9c0.3-1.1-0.1-3.1-0.8-4.2
	c-0.7-1.1-1.9-1.2-2.3-0.3c-0.3,0.8,0.1,2.9,1.2,4.5c-0.9-0.8-2.6-1.3-3.7-1.1c-1.3,0.2-1.9,1.1-1.4,1.8c0.5,0.6,2.2,1.2,3.9,1.2
	c-1.3,0.5-2.2,1.6-2.4,2.8c-0.2,1.4,0.8,2.6,1.9,2.5c1-0.1,2.3-1.3,2.7-3.1c0.1,1.3,1,2.7,2.1,3.2C66.6,419.5,67.8,419,68,418.1z
	 M78.7,424.1c-0.5-0.2-1.5-0.1-2.4,0.5c0.6-0.7,0.7-1.7,0.2-2.3c-0.5-0.7-1.6-0.8-2.2-0.3c-0.6,0.5-0.7,1.7,0.1,2.7
	c-0.6-0.4-1.7-0.6-2.4-0.5c-0.7,0.2-1,0.8-0.7,1.2c0.4,0.4,1.5,0.6,2.7,0.3c-0.7,0.3-1.2,1.1-1.4,1.8c-0.2,0.7,0.2,1.3,0.7,1.1
	c0.4-0.1,1.1-0.9,1.5-1.8c0,0.8,0.4,1.6,1,1.9c0.7,0.4,1.6,0.1,1.7-0.5c0.2-0.6-0.2-1.5-1.1-2.1c0.7,0.2,1.6,0,2.2-0.4
	C79.2,425.1,79.2,424.4,78.7,424.1z M63.8,433.7c-1.1-0.6-3.4-0.2-5.4,1.2c1.4-1.6,1.5-3.8,0.4-5.2c-1.2-1.5-3.7-1.8-5-0.7
	c-1.3,1.1-1.5,3.8,0.3,6.1c-1.3-0.9-3.9-1.4-5.5-1.1c-1.7,0.4-2.4,1.8-1.5,2.6c0.8,0.8,3.5,1.3,6,0.7c-1.5,0.7-2.8,2.5-3.2,4
	c-0.4,1.7,0.5,2.9,1.6,2.6c1-0.3,2.5-2,3.3-4.2c-0.1,1.8,0.9,3.5,2.2,4.3c1.6,0.9,3.6,0.2,4-1.1c0.4-1.3-0.5-3.4-2.5-4.8
	c1.6,0.5,3.7,0,4.9-0.9C64.9,436,64.9,434.3,63.8,433.7z M99.4,444.1c-0.9,0.2-2.1,1.5-2.7,3.2c0.1-1.6-0.9-3-2.2-3.3
	c-1.4-0.3-3.1,0.7-3.3,1.9c-0.3,1.3,0.9,3,3,3.5c-1.2,0.1-3,1-3.8,1.9c-0.8,1-0.6,2.2,0.3,2.3c0.9,0.1,2.7-0.9,3.9-2.4
	c-0.5,1.1-0.5,2.8,0,3.9c0.5,1.2,1.6,1.5,2.1,0.8c0.5-0.7,0.6-2.4,0-4.1c0.8,1.1,2.2,1.7,3.3,1.5c1.4-0.2,2.2-1.5,1.9-2.5
	c-0.4-0.9-1.9-1.8-3.8-1.7c1.2-0.5,2.3-1.7,2.5-2.9C101.1,445,100.3,444,99.4,444.1z M0,395.7c0.3,0.4,0.7,0.5,1.2,0.4
	c1-0.3,2.5-2,3.3-4.1c-0.1,1.7,0.9,3.4,2.2,4.2c1.5,0.9,3.5,0.2,3.9-1.1c0.4-1.2-0.5-3.3-2.4-4.7c1.6,0.5,3.6,0,4.8-0.9
	c1.3-1.1,1.4-2.8,0.3-3.4c-1-0.6-3.3-0.2-5.2,1.1c1.3-1.6,1.5-3.7,0.4-5.1c-1.2-1.5-3.6-1.7-4.9-0.7c-1.3,1.1-1.5,3.7,0.3,5.9
	c-0.9-0.6-2.4-1-3.7-1.1l0,3.6c0.9,0.1,1.8,0,2.8-0.2c-1.2,0.6-2.2,1.8-2.8,3L0,395.7z M16,405.4c0.1,0.7-0.4,1.4-1.1,1.5
	c-0.7,0.1-1.4-0.4-1.5-1.1c-0.1-0.7,0.4-1.4,1.1-1.5C15.2,404.2,15.9,404.7,16,405.4z M36.5,430c0.1,0.7-0.4,1.4-1.1,1.5
	c-0.7,0.1-1.4-0.4-1.5-1.1c-0.1-0.7,0.4-1.4,1.1-1.5C35.7,428.8,36.4,429.3,36.5,430z M49.7,408.1c0.1,0.7-0.4,1.4-1.1,1.5
	c-0.7,0.1-1.4-0.4-1.5-1.1c-0.1-0.7,0.4-1.4,1.1-1.5C48.9,406.9,49.6,407.4,49.7,408.1z M59.8,422.2c-0.4,0.6-1.1,0.8-1.8,0.5
	c-0.6-0.4-0.8-1.1-0.5-1.8c0.3-0.6,1.1-0.8,1.8-0.5C59.9,420.8,60.1,421.5,59.8,422.2z M92.4,431.6c-0.4,0.6-1.1,0.8-1.8,0.5
	c-0.6-0.4-0.8-1.1-0.5-1.8c0.4-0.6,1.1-0.8,1.8-0.5C92.5,430.2,92.7,431,92.4,431.6z M64.9,441.2c-0.2,0.3-0.6,0.4-0.9,0.2
	c-0.3-0.2-0.4-0.6-0.2-0.9c0.2-0.3,0.6-0.4,0.9-0.2C65,440.5,65.1,440.9,64.9,441.2z M48.5,429.6c-0.2,0.3-0.6,0.4-0.9,0.2
	c-0.3-0.2-0.4-0.6-0.2-0.9c0.2-0.3,0.6-0.4,0.9-0.2C48.6,428.9,48.7,429.3,48.5,429.6z M26.8,406.6c-0.2,0.3-0.6,0.4-0.9,0.2
	c-0.3-0.2-0.4-0.6-0.2-0.9c0.2-0.3,0.6-0.4,0.9-0.2C26.9,405.9,27,406.3,26.8,406.6z M13.9,395.4c-0.2,0.3-0.6,0.4-0.9,0.2
	c-0.3-0.2-0.4-0.6-0.2-0.9c0.2-0.3,0.6-0.4,0.9-0.2C14,394.7,14.1,395.1,13.9,395.4z M3.8,412.8c-0.2,0.3-0.6,0.4-0.9,0.2
	c-0.3-0.2-0.4-0.6-0.2-0.9c0.2-0.3,0.6-0.4,0.9-0.2C3.9,412.1,4,412.5,3.8,412.8z M12.6,432c-0.2,0.3-0.6,0.4-0.9,0.2
	c-0.3-0.2-0.4-0.6-0.2-0.9c0.2-0.3,0.6-0.4,0.9-0.2C12.6,431.3,12.7,431.6,12.6,432z M17.4,439c-0.2,0.3-0.6,0.4-0.9,0.2
	c-0.3-0.2-0.4-0.6-0.2-0.9c0.2-0.3,0.6-0.4,0.9-0.2C17.5,438.3,17.6,438.7,17.4,439z M38,444.6c-0.2,0.3-0.6,0.4-0.9,0.2
	c-0.3-0.2-0.4-0.6-0.2-0.9c0.2-0.3,0.6-0.4,0.9-0.2C38.1,443.9,38.2,444.3,38,444.6z M71.7,445.7c-0.2,0.3-0.6,0.4-0.9,0.2
	c-0.3-0.2-0.4-0.6-0.2-0.9c0.2-0.3,0.6-0.4,0.9-0.2C71.7,445,71.8,445.4,71.7,445.7z M80.8,446.8c-0.2,0.3-0.6,0.4-0.9,0.2
	c-0.3-0.2-0.4-0.6-0.2-0.9c0.2-0.3,0.6-0.4,0.9-0.2C80.8,446.1,80.9,446.5,80.8,446.8z M81.9,435.9c-0.1,0.2-0.3,0.2-0.4,0.1
	c-0.2-0.1-0.2-0.3-0.1-0.4s0.3-0.2,0.4-0.1C81.9,435.6,82,435.8,81.9,435.9z M70,429.2c-0.1,0.2-0.3,0.2-0.4,0.1
	c-0.2-0.1-0.2-0.3-0.1-0.4c0.1-0.2,0.3-0.2,0.4-0.1C70,428.8,70.1,429,70,429.2z M63.7,422c-0.1,0.2-0.3,0.2-0.4,0.1
	c-0.2-0.1-0.2-0.3-0.1-0.4c0.1-0.2,0.3-0.2,0.4-0.1C63.8,421.7,63.8,421.9,63.7,422z M55.1,415.5c-0.1,0.2-0.3,0.2-0.4,0.1
	c-0.2-0.1-0.2-0.3-0.1-0.4c0.1-0.2,0.3-0.2,0.4-0.1C55.1,415.2,55.2,415.4,55.1,415.5z M48,417.4c-0.1,0.2-0.3,0.2-0.4,0.1
	c-0.2-0.1-0.2-0.3-0.1-0.4c0.1-0.2,0.3-0.2,0.4-0.1C48,417.1,48,417.3,48,417.4z M38.8,407.1c-0.1,0.2-0.3,0.2-0.4,0.1
	c-0.2-0.1-0.2-0.3-0.1-0.4c0.1-0.2,0.3-0.2,0.4-0.1C38.9,406.8,38.9,407,38.8,407.1z M32.6,401.5c-0.1,0.2-0.3,0.2-0.4,0.1
	c-0.2-0.1-0.2-0.3-0.1-0.4c0.1-0.2,0.3-0.2,0.4-0.1C32.6,401.1,32.6,401.3,32.6,401.5z M45,412.8c-0.3-0.1-0.7-0.1-1.2,0.2
	c0.4-0.3,0-0.9-0.2-1.2c-0.3-0.3-0.1-0.4-0.4-0.2c-0.3,0.2-0.9,1-0.4,1.4c-0.3-0.2-1-0.3-1.3,0c-0.3,0.3-0.3,0.1-0.2,0.3
	c0.3,0.3,0.6,0.3,1.2,0.2c-0.4,0.2-0.7,0.5-0.6,1c0.1,0.3-0.1,0.3,0.2,0.2c0.3-0.1,0.6-0.2,0.8-0.7c0,0.4,0.2,0.6,0.9,0.8
	c0.4,0.1,0.2,0,0.3-0.2c0.2-0.4,0.1-0.7-0.3-1c0.4,0.1,1-0.1,1.2-0.5C45.1,412.7,45.3,412.9,45,412.8z M7.8,419.8
	c-0.2-0.1-0.7-0.1-1.1,0.2c0.3-0.4,0-1-0.2-1.3c-0.3-0.3-0.1-0.4-0.4-0.2c-0.3,0.2-0.7,1-0.3,1.5c-0.3-0.2-0.9-0.4-1.2,0
	c-0.3,0.3-0.3,0.1-0.1,0.3c0.3,0.4,0.5,0.3,1.1,0.2c-0.3,0.2-0.6,0.6-0.5,1c0.1,0.4-0.1,0.3,0.2,0.2c0.2-0.1,0.5-0.2,0.7-0.7
	c0,0.4,0.2,0.7,0.8,0.9c0.4,0.1,0.2,0,0.3-0.2c0.2-0.4,0.1-0.7-0.3-1.1c0.4,0.1,0.9-0.1,1.1-0.6C7.9,419.8,8,419.9,7.8,419.8z
	 M22.2,397c-0.2-0.1-0.7-0.1-1.1,0.2c0.3-0.4,0-1-0.2-1.3c-0.3-0.3-0.1-0.4-0.4-0.2c-0.3,0.2-0.7,1-0.3,1.5c-0.3-0.2-0.9-0.4-1.2,0
	c-0.3,0.3-0.3,0.1-0.1,0.3c0.3,0.4,0.5,0.3,1.1,0.2c-0.3,0.2-0.6,0.6-0.5,1c0.1,0.4-0.1,0.3,0.2,0.2c0.2-0.1,0.5-0.2,0.7-0.7
	c0,0.4,0.2,0.7,0.8,0.9c0.4,0.1,0.2,0,0.3-0.2c0.2-0.4,0.1-0.7-0.3-1.1c0.4,0.1,0.9-0.1,1.1-0.6C22.4,397,22.5,397.1,22.2,397z
	 M42.9,426c-0.2-0.1-0.7-0.1-1.1,0.2c0.3-0.4,0-1-0.2-1.3c-0.3-0.3-0.1-0.4-0.4-0.2c-0.3,0.2-0.7,1-0.3,1.5c-0.3-0.2-0.9-0.4-1.2,0
	c-0.3,0.3-0.3,0.1-0.1,0.3c0.3,0.4,0.5,0.3,1.1,0.2c-0.3,0.2-0.6,0.6-0.5,1c0.1,0.4-0.1,0.3,0.2,0.2c0.2-0.1,0.5-0.2,0.7-0.7
	c0,0.4,0.2,0.7,0.8,0.9c0.4,0.1,0.2,0,0.3-0.2c0.2-0.4,0.1-0.7-0.3-1c0.4,0.1,0.9-0.1,1.1-0.6C43,425.9,43.1,426.1,42.9,426z
	 M66.7,426.7c-0.2-0.1-0.7-0.1-1.1,0.2c0.3-0.4,0-1-0.2-1.3c-0.3-0.3-0.1-0.4-0.4-0.2c-0.3,0.2-0.7,1-0.3,1.5
	c-0.3-0.2-0.9-0.4-1.2,0c-0.3,0.3-0.3,0.1-0.1,0.3c0.3,0.4,0.5,0.3,1.1,0.2c-0.3,0.2-0.6,0.6-0.5,1c0.1,0.4-0.1,0.3,0.2,0.2
	c0.2-0.1,0.5-0.2,0.7-0.7c0,0.4,0.2,0.7,0.8,0.9c0.4,0.1,0.2,0,0.3-0.2c0.2-0.4,0.1-0.7-0.3-1c0.4,0.1,0.9-0.1,1.1-0.6
	C66.9,426.6,67,426.8,66.7,426.7z M74.7,438.8c-0.2-0.1-0.7-0.1-1.1,0.2c0.3-0.4,0-1-0.2-1.3c-0.3-0.3-0.1-0.4-0.4-0.2
	c-0.3,0.2-0.7,1-0.3,1.5c-0.3-0.2-0.9-0.4-1.2,0c-0.3,0.3-0.3,0.1-0.1,0.3c0.3,0.4,0.5,0.3,1.1,0.2c-0.3,0.2-0.6,0.6-0.5,1
	c0.1,0.4-0.1,0.3,0.2,0.2c0.2-0.1,0.5-0.2,0.7-0.7c0,0.4,0.2,0.7,0.8,0.9c0.4,0.1,0.2,0,0.3-0.2c0.2-0.4,0.1-0.7-0.3-1.1
	c0.4,0.1,0.9-0.1,1.1-0.6C74.9,438.8,75,438.9,74.7,438.8z M89.7,440.8c-0.2-0.1-0.7-0.1-1.1,0.2c0.3-0.4,0-1-0.2-1.3
	c-0.3-0.3-0.1-0.4-0.4-0.2c-0.3,0.2-0.7,1-0.3,1.5c-0.3-0.2-0.9-0.4-1.2,0c-0.3,0.3-0.3,0.1-0.1,0.3c0.3,0.4,0.5,0.3,1.1,0.2
	c-0.3,0.2-0.6,0.6-0.5,1c0.1,0.4-0.1,0.3,0.2,0.2c0.2-0.1,0.5-0.2,0.7-0.7c0,0.4,0.2,0.7,0.8,0.9c0.4,0.1,0.2,0,0.3-0.2
	c0.2-0.4,0.1-0.7-0.3-1.1c0.4,0.1,0.9-0.1,1.1-0.6C89.9,440.7,90,440.9,89.7,440.8z M89.9,433.4c-0.2-0.1-0.7-0.1-1.1,0.2
	c0.3-0.4,0-1-0.2-1.3c-0.3-0.3-0.1-0.4-0.4-0.2c-0.3,0.2-0.7,1-0.3,1.5c-0.3-0.2-0.9-0.4-1.2,0c-0.3,0.3-0.3,0.1-0.1,0.3
	c0.3,0.4,0.5,0.3,1.1,0.2c-0.3,0.2-0.6,0.6-0.5,1c0.1,0.4-0.1,0.3,0.2,0.2c0.2-0.1,0.5-0.2,0.7-0.7c0,0.4,0.2,0.7,0.8,0.9
	c0.4,0.1,0.2,0,0.3-0.2c0.2-0.4,0.1-0.7-0.3-1c0.4,0.1,0.9-0.1,1.1-0.6C90,433.3,90.1,433.5,89.9,433.4z M45,437.5
	c-0.2-0.1-0.7-0.1-1.1,0.2c0.3-0.4,0-1-0.2-1.3c-0.3-0.3-0.1-0.4-0.4-0.2c-0.3,0.2-0.7,1-0.3,1.5c-0.3-0.2-0.9-0.4-1.2,0
	c-0.3,0.3-0.3,0.1-0.1,0.3c0.3,0.4,0.5,0.3,1.1,0.2c-0.3,0.2-0.6,0.6-0.5,1c0.1,0.4-0.1,0.3,0.2,0.2c0.2-0.1,0.5-0.2,0.7-0.7
	c0,0.4,0.2,0.7,0.8,0.9c0.4,0.1,0.2,0,0.3-0.2c0.2-0.4,0.1-0.7-0.3-1.1c0.4,0.1,0.9-0.1,1.1-0.6C45.1,437.4,45.2,437.6,45,437.5z
	 M28.5,421.3c-0.2-0.1-0.7-0.1-1.1,0.2c0.3-0.4,0-1-0.2-1.3c-0.3-0.3-0.1-0.4-0.4-0.2c-0.3,0.2-0.7,1-0.3,1.5
	c-0.3-0.2-0.9-0.4-1.2,0c-0.3,0.3-0.3,0.1-0.1,0.3c0.3,0.4,0.5,0.3,1.1,0.2c-0.3,0.2-0.6,0.6-0.5,1c0.1,0.4-0.1,0.3,0.2,0.2
	c0.2-0.1,0.5-0.2,0.7-0.7c0,0.4,0.2,0.7,0.8,0.9c0.4,0.1,0.2,0,0.3-0.2c0.2-0.4,0.1-0.7-0.3-1.1c0.4,0.1,0.9-0.1,1.1-0.6
	C28.6,421.3,28.7,421.5,28.5,421.3z M25.1,417.2c-0.2-0.1-0.7-0.1-1.1,0.2c0.3-0.4,0-1-0.2-1.3c-0.3-0.3-0.1-0.4-0.4-0.2
	c-0.3,0.2-0.7,1-0.3,1.5c-0.3-0.2-0.9-0.4-1.2,0c-0.3,0.3-0.3,0.1-0.1,0.3c0.3,0.4,0.5,0.3,1.1,0.2c-0.3,0.2-0.6,0.6-0.5,1
	c0.1,0.4-0.1,0.3,0.2,0.2c0.2-0.1,0.5-0.2,0.7-0.7c0,0.4,0.2,0.7,0.8,0.9c0.4,0.1,0.2,0,0.3-0.2c0.2-0.4,0.1-0.7-0.3-1.1
	c0.4,0.1,0.9-0.1,1.1-0.6C25.2,417.2,25.3,417.4,25.1,417.2z M25.6,411c-0.2-0.1-0.7-0.1-1.1,0.2c0.3-0.4,0-1-0.2-1.3
	c-0.3-0.3-0.1-0.4-0.4-0.2c-0.3,0.2-0.7,1-0.3,1.5c-0.3-0.2-0.9-0.4-1.2,0c-0.3,0.3-0.3,0.1-0.1,0.3c0.3,0.4,0.5,0.3,1.1,0.2
	c-0.3,0.2-0.6,0.6-0.5,1c0.1,0.4-0.1,0.3,0.2,0.2c0.2-0.1,0.5-0.2,0.7-0.7c0,0.4,0.2,0.7,0.8,0.9c0.4,0.1,0.2,0,0.3-0.2
	c0.2-0.4,0.1-0.7-0.3-1.1c0.4,0.1,0.9-0.1,1.1-0.6C25.8,410.9,25.9,411.1,25.6,411z"/>
<path class="st3" d="M54.5,510.3c-0.7,0.6-1,2.4-0.6,4.1c-0.8-1.4-2.4-2.1-3.6-1.7c-1.4,0.5-2.2,2.2-1.8,3.4
	c0.4,1.2,2.3,2.1,4.4,1.4c-1,0.7-2,2.4-2.2,3.6c-0.2,1.3,0.7,2.2,1.5,1.8c0.8-0.4,1.8-2.2,2.1-4.1c0.1,1.3,1,2.7,2,3.3
	c1.1,0.7,2.2,0.4,2.3-0.4c0-0.8-0.8-2.3-2.1-3.5c1.2,0.5,2.8,0.3,3.6-0.5c1-0.9,1.1-2.5,0.2-3.1c-0.8-0.6-2.6-0.5-4.1,0.5
	c0.8-1,1-2.7,0.6-3.8C56.5,510.2,55.2,509.7,54.5,510.3z M75.5,506.1c-0.5-0.3-1.6-0.1-2.5,0.5c0.6-0.7,0.7-1.8,0.2-2.4
	c-0.6-0.7-1.7-0.8-2.3-0.3c-0.6,0.5-0.7,1.8,0.1,2.9c-0.6-0.4-1.8-0.7-2.6-0.5c-0.8,0.2-1.1,0.8-0.7,1.2c0.4,0.4,1.6,0.6,2.8,0.3
	c-0.7,0.3-1.3,1.2-1.5,1.9c-0.2,0.8,0.2,1.4,0.7,1.2c0.5-0.1,1.2-0.9,1.6-2c0,0.8,0.4,1.6,1,2c0.7,0.4,1.7,0.1,1.9-0.5
	c0.2-0.6-0.3-1.6-1.2-2.3c0.8,0.2,1.7,0,2.3-0.4C75.9,507.2,76,506.4,75.5,506.1z M78.8,494.6c0.4-0.6,0.2-1.9-0.4-3.1
	c0.8,0.8,2.1,1,2.9,0.4c0.9-0.6,1.1-2,0.6-2.8c-0.6-0.8-2.1-1-3.4-0.1c0.5-0.7,0.9-2.1,0.8-3c-0.1-1-0.9-1.4-1.4-1
	c-0.5,0.4-0.9,1.9-0.6,3.4c-0.4-0.9-1.3-1.7-2.1-2c-0.9-0.3-1.7,0.1-1.5,0.8c0.1,0.6,1,1.5,2.2,2c-1-0.1-2,0.4-2.5,1.1
	c-0.6,0.8-0.3,2,0.5,2.3c0.7,0.3,1.9-0.2,2.8-1.2c-0.3,0.9-0.2,2.1,0.3,2.8C77.5,495.1,78.5,495.2,78.8,494.6z M106.9,511.2
	c0.1-0.9-0.8-2.4-2.3-3.5c1.5,0.5,3.1,0,3.8-1.2c0.7-1.3,0.2-3.1-0.9-3.7c-1.1-0.6-3.1,0-4.2,1.9c0.3-1.1-0.1-3.1-0.8-4.2
	c-0.7-1.1-1.9-1.2-2.3-0.3c-0.3,0.8,0.1,2.9,1.2,4.5c-0.9-0.8-2.6-1.3-3.7-1.1c-1.3,0.2-1.9,1.1-1.4,1.8c0.5,0.6,2.2,1.2,3.9,1.2
	c-1.3,0.5-2.2,1.6-2.4,2.8c-0.2,1.4,0.8,2.6,1.9,2.5c1-0.1,2.3-1.3,2.7-3.1c0.1,1.3,1,2.7,2.1,3.2
	C105.5,512.6,106.8,512.1,106.9,511.2z M117.7,517.2c-0.5-0.2-1.5-0.1-2.4,0.5c0.6-0.7,0.7-1.7,0.2-2.3c-0.5-0.7-1.6-0.8-2.2-0.3
	c-0.6,0.5-0.7,1.7,0.1,2.7c-0.6-0.4-1.7-0.6-2.4-0.5c-0.7,0.2-1,0.8-0.7,1.2c0.4,0.4,1.5,0.6,2.7,0.3c-0.7,0.3-1.2,1.1-1.4,1.8
	c-0.2,0.7,0.2,1.3,0.7,1.1c0.4-0.1,1.1-0.9,1.5-1.8c0,0.8,0.4,1.6,1,1.9c0.7,0.4,1.6,0.1,1.8-0.5c0.2-0.6-0.2-1.5-1.1-2.1
	c0.7,0.2,1.6,0,2.2-0.4C118.1,518.2,118.2,517.5,117.7,517.2z M102.8,526.8c-1.1-0.6-3.4-0.2-5.4,1.2c1.4-1.6,1.5-3.8,0.4-5.2
	c-1.2-1.5-3.7-1.8-5-0.7c-1.3,1.1-1.5,3.8,0.3,6.1c-1.3-0.9-3.9-1.4-5.5-1.1c-1.7,0.4-2.4,1.8-1.5,2.6c0.8,0.8,3.5,1.3,6,0.7
	c-1.5,0.7-2.8,2.5-3.2,4c-0.4,1.7,0.5,2.9,1.6,2.6c1-0.3,2.5-2,3.3-4.2c-0.1,1.8,0.9,3.5,2.2,4.3c1.6,0.9,3.6,0.2,4-1.1
	c0.4-1.3-0.5-3.4-2.5-4.8c1.6,0.5,3.7,0,4.9-0.9C103.8,529.1,103.9,527.4,102.8,526.8z M138.3,537.2c-0.9,0.2-2.1,1.5-2.7,3.2
	c0.1-1.6-0.9-3-2.2-3.3c-1.4-0.3-3.1,0.7-3.3,1.9c-0.3,1.3,0.9,3,3,3.5c-1.2,0.1-3,1-3.8,1.9c-0.8,1-0.6,2.2,0.3,2.3
	c0.9,0.1,2.7-0.9,3.9-2.4c-0.5,1.1-0.5,2.8,0,3.9c0.5,1.2,1.6,1.5,2.1,0.8c0.5-0.7,0.6-2.4,0-4.1c0.8,1.1,2.2,1.7,3.3,1.5
	c1.4-0.2,2.2-1.5,1.9-2.5c-0.4-0.9-1.9-1.8-3.8-1.7c1.2-0.5,2.3-1.7,2.5-2.9C140.1,538.1,139.3,537,138.3,537.2z M36.5,505.3
	c-0.8-0.4-2.6-0.2-4.1,0.9c1-1.2,1.1-2.9,0.3-3.9c-0.9-1.1-2.8-1.3-3.8-0.5c-1,0.8-1.1,2.9,0.2,4.6c-1-0.7-2.9-1.1-4.2-0.8
	c-1.3,0.3-1.8,1.4-1.2,2c0.6,0.6,2.7,1,4.6,0.6c-1.1,0.6-2.2,1.9-2.4,3c-0.3,1.3,0.3,2.2,1.2,2c0.8-0.2,1.9-1.5,2.5-3.2
	c0,1.3,0.7,2.7,1.7,3.3c1.2,0.7,2.7,0.2,3-0.8c0.3-1-0.4-2.6-1.9-3.7c1.2,0.4,2.8,0,3.7-0.7C37.3,507.1,37.4,505.7,36.5,505.3z
	 M52.1,479.2c-1-0.6-3.3-0.2-5.2,1.1c1.3-1.6,1.5-3.7,0.4-5.1c-1.2-1.5-3.6-1.7-4.9-0.7c-1.3,1.1-1.5,3.7,0.3,5.9
	c-1.2-0.9-3.8-1.4-5.3-1c-1.6,0.4-2.3,1.8-1.5,2.6c0.8,0.8,3.4,1.3,5.9,0.7c-1.4,0.7-2.8,2.4-3.1,3.9c-0.4,1.6,0.4,2.9,1.5,2.5
	c1-0.3,2.5-2,3.3-4.1c-0.1,1.7,0.9,3.4,2.2,4.2c1.5,0.9,3.5,0.2,3.9-1.1c0.4-1.2-0.5-3.3-2.4-4.7c1.6,0.5,3.6,0,4.8-0.9
	C53.1,481.5,53.2,479.8,52.1,479.2z M54.9,498.5c0.1,0.7-0.4,1.4-1.1,1.5c-0.7,0.1-1.4-0.4-1.5-1.1c-0.1-0.7,0.4-1.4,1.1-1.5
	C54.2,497.3,54.8,497.8,54.9,498.5z M75.4,523.1c0.1,0.7-0.4,1.4-1.1,1.5c-0.7,0.1-1.4-0.4-1.5-1.1c-0.1-0.7,0.4-1.4,1.1-1.5
	C74.7,521.9,75.3,522.4,75.4,523.1z M88.6,501.2c0.1,0.7-0.4,1.4-1.1,1.5c-0.7,0.1-1.4-0.4-1.5-1.1c-0.1-0.7,0.4-1.4,1.1-1.5
	S88.5,500.5,88.6,501.2z M98.7,515.3c-0.3,0.6-1.1,0.8-1.8,0.5c-0.6-0.4-0.8-1.1-0.5-1.8c0.3-0.6,1.1-0.8,1.8-0.5
	C98.8,513.9,99.1,514.6,98.7,515.3z M131.3,524.7c-0.4,0.6-1.1,0.8-1.8,0.5c-0.6-0.4-0.8-1.1-0.5-1.8c0.4-0.6,1.1-0.8,1.8-0.5
	C131.4,523.3,131.6,524,131.3,524.7z M103.9,534.3c-0.2,0.3-0.6,0.4-0.9,0.2c-0.3-0.2-0.4-0.6-0.2-0.9c0.2-0.3,0.6-0.4,0.9-0.2
	C103.9,533.6,104,534,103.9,534.3z M87.4,522.7c-0.2,0.3-0.6,0.4-0.9,0.2c-0.3-0.2-0.4-0.6-0.2-0.9c0.2-0.3,0.6-0.4,0.9-0.2
	C87.5,522,87.6,522.4,87.4,522.7z M65.7,499.7c-0.2,0.3-0.6,0.4-0.9,0.2c-0.3-0.2-0.4-0.6-0.2-0.9c0.2-0.3,0.6-0.4,0.9-0.2
	C65.8,499,65.9,499.4,65.7,499.7z M52.9,488.5c-0.2,0.3-0.6,0.4-0.9,0.2c-0.3-0.2-0.4-0.6-0.2-0.9c0.2-0.3,0.6-0.4,0.9-0.2
	C52.9,487.8,53.1,488.2,52.9,488.5z M42.8,505.9c-0.2,0.3-0.6,0.4-0.9,0.2c-0.3-0.2-0.4-0.6-0.2-0.9c0.2-0.3,0.6-0.4,0.9-0.2
	C42.9,505.2,43,505.6,42.8,505.9z M51.5,525c-0.2,0.3-0.6,0.4-0.9,0.2c-0.3-0.2-0.4-0.6-0.2-0.9c0.2-0.3,0.6-0.4,0.9-0.2
	C51.6,524.3,51.7,524.7,51.5,525z M56.4,532.1c-0.2,0.3-0.6,0.4-0.9,0.2c-0.3-0.2-0.4-0.6-0.2-0.9c0.2-0.3,0.6-0.4,0.9-0.2
	C56.4,531.4,56.5,531.8,56.4,532.1z M77,537.7c-0.2,0.3-0.6,0.4-0.9,0.2c-0.3-0.2-0.4-0.6-0.2-0.9c0.2-0.3,0.6-0.4,0.9-0.2
	C77,537,77.1,537.4,77,537.7z M110.6,538.8c-0.2,0.3-0.6,0.4-0.9,0.2c-0.3-0.2-0.4-0.6-0.2-0.9c0.2-0.3,0.6-0.4,0.9-0.2
	C110.7,538.1,110.8,538.4,110.6,538.8z M119.7,539.9c-0.2,0.3-0.6,0.4-0.9,0.2c-0.3-0.2-0.4-0.6-0.2-0.9c0.2-0.3,0.6-0.4,0.9-0.2
	C119.8,539.2,119.9,539.6,119.7,539.9z M120.8,529c-0.1,0.2-0.3,0.2-0.4,0.1c-0.2-0.1-0.2-0.3-0.1-0.4c0.1-0.2,0.3-0.2,0.4-0.1
	C120.8,528.7,120.9,528.9,120.8,529z M108.9,522.3c-0.1,0.2-0.3,0.2-0.4,0.1c-0.2-0.1-0.2-0.3-0.1-0.4c0.1-0.2,0.3-0.2,0.4-0.1
	C109,521.9,109,522.1,108.9,522.3z M102.7,515.1c-0.1,0.2-0.3,0.2-0.4,0.1c-0.2-0.1-0.2-0.3-0.1-0.4c0.1-0.2,0.3-0.2,0.4-0.1
	C102.7,514.8,102.8,515,102.7,515.1z M94,508.6c-0.1,0.2-0.3,0.2-0.4,0.1c-0.2-0.1-0.2-0.3-0.1-0.4c0.1-0.2,0.3-0.2,0.4-0.1
	C94.1,508.3,94.1,508.5,94,508.6z M86.9,510.5c-0.1,0.2-0.3,0.2-0.4,0.1c-0.2-0.1-0.2-0.3-0.1-0.4c0.1-0.2,0.3-0.2,0.4-0.1
	C86.9,510.2,87,510.4,86.9,510.5z M77.8,500.2c-0.1,0.2-0.3,0.2-0.4,0.1c-0.2-0.1-0.2-0.3-0.1-0.4c0.1-0.2,0.3-0.2,0.4-0.1
	C77.8,499.9,77.9,500,77.8,500.2z M71.5,494.6c-0.1,0.2-0.3,0.2-0.4,0.1c-0.2-0.1-0.2-0.3-0.1-0.4c0.1-0.2,0.3-0.2,0.4-0.1
	C71.5,494.2,71.6,494.4,71.5,494.6z M83.9,505.9c-0.3-0.1-0.7-0.1-1.2,0.2c0.4-0.3,0-0.9-0.2-1.2c-0.3-0.3-0.1-0.4-0.4-0.2
	c-0.3,0.2-0.9,1-0.4,1.4c-0.3-0.2-1-0.3-1.3,0c-0.3,0.3-0.3,0.1-0.2,0.3c0.3,0.3,0.6,0.3,1.2,0.2c-0.4,0.2-0.7,0.5-0.6,1
	c0.1,0.3-0.1,0.3,0.2,0.2c0.3-0.1,0.6-0.2,0.8-0.7c0,0.4,0.2,0.6,0.9,0.8c0.4,0.1,0.2,0,0.3-0.2c0.2-0.4,0.1-0.7-0.3-1
	c0.4,0.1,1-0.1,1.2-0.5C84.1,505.8,84.2,506,83.9,505.9z M46.7,512.9c-0.2-0.1-0.7-0.1-1.1,0.2c0.3-0.4,0-1-0.2-1.3
	c-0.3-0.3-0.1-0.4-0.4-0.2c-0.3,0.2-0.7,1-0.3,1.5c-0.3-0.2-0.9-0.4-1.2,0c-0.3,0.3-0.3,0.1-0.1,0.3c0.3,0.4,0.5,0.3,1.1,0.2
	c-0.3,0.2-0.6,0.6-0.5,1c0.1,0.4-0.1,0.3,0.2,0.2c0.2-0.1,0.5-0.2,0.7-0.7c0,0.4,0.2,0.7,0.8,0.9c0.4,0.1,0.2,0,0.3-0.2
	c0.2-0.4,0.1-0.7-0.3-1c0.4,0.1,0.9-0.1,1.1-0.6C46.9,512.8,47,513,46.7,512.9z M61.2,490.1c-0.2-0.1-0.7-0.1-1.1,0.2
	c0.3-0.4,0-1-0.2-1.3c-0.3-0.3-0.1-0.4-0.4-0.2c-0.3,0.2-0.7,1-0.3,1.5c-0.3-0.2-0.9-0.4-1.2,0c-0.3,0.3-0.3,0.1-0.1,0.3
	c0.3,0.4,0.5,0.3,1.1,0.2c-0.3,0.2-0.6,0.6-0.5,1c0.1,0.4-0.1,0.3,0.2,0.2c0.2-0.1,0.5-0.2,0.7-0.7c0,0.4,0.2,0.7,0.8,0.9
	c0.4,0.1,0.2,0,0.3-0.2c0.2-0.4,0.1-0.7-0.3-1.1c0.4,0.1,0.9-0.1,1.1-0.6C61.3,490.1,61.4,490.2,61.2,490.1z M81.8,519.1
	c-0.2-0.1-0.7-0.1-1.1,0.2c0.3-0.4,0-1-0.2-1.3c-0.3-0.3-0.1-0.4-0.4-0.2c-0.3,0.2-0.7,1-0.3,1.5c-0.3-0.2-0.9-0.4-1.2,0
	c-0.3,0.3-0.3,0.1-0.1,0.3c0.3,0.4,0.5,0.3,1.1,0.2c-0.3,0.2-0.6,0.6-0.5,1c0.1,0.4-0.1,0.3,0.2,0.2c0.2-0.1,0.5-0.2,0.7-0.7
	c0,0.4,0.2,0.7,0.8,0.9c0.4,0.1,0.2,0,0.3-0.2c0.2-0.4,0.1-0.7-0.3-1.1c0.4,0.1,0.9-0.1,1.1-0.6C81.9,519,82.1,519.2,81.8,519.1z
	 M105.7,519.8c-0.2-0.1-0.7-0.1-1.1,0.2c0.3-0.4,0-1-0.2-1.3c-0.3-0.3-0.1-0.4-0.4-0.2c-0.3,0.2-0.7,1-0.3,1.5
	c-0.3-0.2-0.9-0.4-1.2,0c-0.3,0.3-0.3,0.1-0.1,0.3c0.3,0.4,0.5,0.3,1.1,0.2c-0.3,0.2-0.6,0.6-0.5,1c0.1,0.4-0.1,0.3,0.2,0.2
	c0.2-0.1,0.5-0.2,0.7-0.7c0,0.4,0.2,0.7,0.8,0.9c0.4,0.1,0.2,0,0.3-0.2c0.2-0.4,0.1-0.7-0.3-1c0.4,0.1,0.9-0.1,1.1-0.6
	C105.8,519.7,105.9,519.9,105.7,519.8z M113.7,531.9c-0.2-0.1-0.7-0.1-1.1,0.2c0.3-0.4,0-1-0.2-1.3c-0.3-0.3-0.1-0.4-0.4-0.2
	c-0.3,0.2-0.7,1-0.3,1.5c-0.3-0.2-0.9-0.4-1.2,0c-0.3,0.3-0.3,0.1-0.1,0.3c0.3,0.4,0.5,0.3,1.1,0.2c-0.3,0.2-0.6,0.6-0.5,1
	c0.1,0.4-0.1,0.3,0.2,0.2c0.2-0.1,0.5-0.2,0.7-0.7c0,0.4,0.2,0.7,0.8,0.9c0.4,0.1,0.2,0,0.3-0.2c0.2-0.4,0.1-0.7-0.3-1.1
	c0.4,0.1,0.9-0.1,1.1-0.6C113.8,531.8,113.9,532,113.7,531.9z M128.7,533.9c-0.2-0.1-0.7-0.1-1.1,0.2c0.3-0.4,0-1-0.2-1.3
	c-0.3-0.3-0.1-0.4-0.4-0.2c-0.3,0.2-0.7,1-0.3,1.5c-0.3-0.2-0.9-0.4-1.2,0c-0.3,0.3-0.3,0.1-0.1,0.3c0.3,0.4,0.5,0.3,1.1,0.2
	c-0.3,0.2-0.6,0.6-0.5,1c0.1,0.4-0.1,0.3,0.2,0.2c0.2-0.1,0.5-0.2,0.7-0.7c0,0.4,0.2,0.7,0.8,0.9c0.4,0.1,0.2,0,0.3-0.2
	c0.2-0.4,0.1-0.7-0.3-1.1c0.4,0.1,0.9-0.1,1.1-0.6C128.8,533.8,128.9,534,128.7,533.9z M128.8,526.4c-0.2-0.1-0.7-0.1-1.1,0.2
	c0.3-0.4,0-1-0.2-1.3c-0.3-0.3-0.1-0.4-0.4-0.2c-0.3,0.2-0.7,1-0.3,1.5c-0.3-0.2-0.9-0.4-1.2,0c-0.3,0.3-0.3,0.1-0.1,0.3
	c0.3,0.4,0.5,0.3,1.1,0.2c-0.3,0.2-0.6,0.6-0.5,1c0.1,0.4-0.1,0.3,0.2,0.2c0.2-0.1,0.5-0.2,0.7-0.7c0,0.4,0.2,0.7,0.8,0.9
	c0.4,0.1,0.2,0,0.3-0.2c0.2-0.4,0.1-0.7-0.3-1.1c0.4,0.1,0.9-0.1,1.1-0.6C129,526.4,129.1,526.6,128.8,526.4z M83.9,530.6
	c-0.2-0.1-0.7-0.1-1.1,0.2c0.3-0.4,0-1-0.2-1.3c-0.3-0.3-0.1-0.4-0.4-0.2c-0.3,0.2-0.7,1-0.3,1.5c-0.3-0.2-0.9-0.4-1.2,0
	c-0.3,0.3-0.3,0.1-0.1,0.3c0.3,0.4,0.5,0.3,1.1,0.2c-0.3,0.2-0.6,0.6-0.5,1c0.1,0.4-0.1,0.3,0.2,0.2c0.2-0.1,0.5-0.2,0.7-0.7
	c0,0.4,0.2,0.7,0.8,0.9c0.4,0.1,0.2,0,0.3-0.2c0.2-0.4,0.1-0.7-0.3-1.1c0.4,0.1,0.9-0.1,1.1-0.6C84.1,530.5,84.2,530.7,83.9,530.6z
	 M67.4,514.4c-0.2-0.1-0.7-0.1-1.1,0.2c0.3-0.4,0-1-0.2-1.3c-0.3-0.3-0.1-0.4-0.4-0.2c-0.3,0.2-0.7,1-0.3,1.5
	c-0.3-0.2-0.9-0.4-1.2,0c-0.3,0.3-0.3,0.1-0.1,0.3c0.3,0.4,0.5,0.3,1.1,0.2c-0.3,0.2-0.6,0.6-0.5,1c0.1,0.4-0.1,0.3,0.2,0.2
	c0.2-0.1,0.5-0.2,0.7-0.7c0,0.4,0.2,0.7,0.8,0.9c0.4,0.1,0.2,0,0.3-0.2c0.2-0.4,0.1-0.7-0.3-1.1c0.4,0.1,0.9-0.1,1.1-0.6
	C67.6,514.4,67.7,514.5,67.4,514.4z M64,510.3c-0.2-0.1-0.7-0.1-1.1,0.2c0.3-0.4,0-1-0.2-1.3c-0.3-0.3-0.1-0.4-0.4-0.2
	c-0.3,0.2-0.7,1-0.3,1.5c-0.3-0.2-0.9-0.4-1.2,0c-0.3,0.3-0.3,0.1-0.1,0.3c0.3,0.4,0.5,0.3,1.1,0.2c-0.3,0.2-0.6,0.6-0.5,1
	c0.1,0.4-0.1,0.3,0.2,0.2c0.2-0.1,0.5-0.2,0.7-0.7c0,0.4,0.2,0.7,0.8,0.9c0.4,0.1,0.2,0,0.3-0.2c0.2-0.4,0.1-0.7-0.3-1
	c0.4,0.1,0.9-0.1,1.1-0.6C64.1,510.3,64.2,510.5,64,510.3z M64.6,504.1c-0.2-0.1-0.7-0.1-1.1,0.2c0.3-0.4,0-1-0.2-1.3
	c-0.3-0.3-0.1-0.4-0.4-0.2c-0.3,0.2-0.7,1-0.3,1.5c-0.3-0.2-0.9-0.4-1.2,0c-0.3,0.3-0.3,0.1-0.1,0.3c0.3,0.4,0.5,0.3,1.1,0.2
	c-0.3,0.2-0.6,0.6-0.5,1c0.1,0.4-0.1,0.3,0.2,0.2c0.2-0.1,0.5-0.2,0.7-0.7c0,0.4,0.2,0.7,0.8,0.9c0.4,0.1,0.2,0,0.3-0.2
	c0.2-0.4,0.1-0.7-0.3-1c0.4,0.1,0.9-0.1,1.1-0.6C64.7,504,64.8,504.2,64.6,504.1z"/>
<path class="st3" d="M14.4,476.3c-0.5-1.8-0.1-3.5,0.6-4.1c0.7-0.6,2-0.1,2.4,1.1c0.4,1.1,0.2,2.7-0.6,3.8c1.5-1,3.3-1.1,4.1-0.5
	c0.9,0.6,0.8,2.2-0.2,3.1c-0.9,0.7-2.4,1-3.6,0.5c1.3,1.1,2.2,2.7,2.1,3.5c0,0.9-1.2,1.2-2.3,0.4c-1-0.6-1.9-2.1-2-3.3
	c-0.2,1.9-1.3,3.7-2.1,4.1c-0.8,0.4-1.7-0.5-1.5-1.8c0.2-1.2,1.2-3,2.2-3.6c-2.1,0.7-4-0.2-4.4-1.4c-0.4-1.2,0.4-2.9,1.8-3.4
	C12,474.2,13.6,474.9,14.4,476.3z"/>
<path class="st3" d="M14.3,461.8c0.7-0.1,1.2-0.7,1.1-1.5c-0.1-0.7-0.7-1.2-1.5-1.1c-0.7,0.1-1.2,0.7-1.1,1.5
	C12.9,461.4,13.6,461.9,14.3,461.8z"/>
<path class="st3" d="M12.4,450.6c0.3,0.2,0.7,0.1,0.9-0.2c0.2-0.3,0.1-0.7-0.2-0.9c-0.3-0.2-0.7-0.1-0.9,0.2
	C12,450,12.1,450.4,12.4,450.6z"/>
<path class="st3" d="M2.4,468c0.3,0.2,0.7,0.1,0.9-0.2c0.2-0.3,0.1-0.7-0.2-0.9c-0.3-0.2-0.7-0.1-0.9,0.2C1.9,467.4,2,467.8,2.4,468
	z"/>
<path class="st3" d="M11.1,487.1c0.3,0.2,0.7,0.1,0.9-0.2c0.2-0.3,0.1-0.7-0.2-0.9c-0.3-0.2-0.7-0.1-0.9,0.2
	C10.7,486.6,10.8,486.9,11.1,487.1z"/>
<path class="st3" d="M15.9,494.1c0.3,0.2,0.7,0.1,0.9-0.2c0.2-0.3,0.1-0.7-0.2-0.9c-0.3-0.2-0.7-0.1-0.9,0.2
	C15.5,493.6,15.6,494,15.9,494.1z"/>
<path class="st3" d="M6.1,474.9c0.4-0.3,0.9-0.3,1.1-0.2c0.2,0.1,0.1,0,0,0.3c-0.2,0.5-0.7,0.7-1.1,0.6c0.4,0.3,0.5,0.7,0.3,1.1
	c-0.1,0.3,0.1,0.4-0.3,0.2c-0.7-0.2-0.9-0.5-0.8-0.9c-0.2,0.5-0.5,0.6-0.7,0.7c-0.2,0.1-0.1,0.2-0.2-0.2c-0.2-0.5,0.2-0.9,0.5-1
	c-0.6,0.1-0.8,0.2-1.1-0.2c-0.1-0.2-0.1-0.1,0.1-0.3c0.3-0.3,0.9-0.2,1.2,0c-0.4-0.5,0-1.3,0.3-1.5c0.3-0.2,0.1-0.1,0.4,0.2
	C6.1,473.9,6.4,474.5,6.1,474.9z"/>
<path class="st3" d="M20.5,452.1c0.4-0.3,0.9-0.3,1.1-0.2c0.2,0.1,0.1,0,0,0.3c-0.2,0.5-0.7,0.7-1.1,0.6c0.4,0.3,0.5,0.7,0.3,1.1
	c-0.1,0.3,0.1,0.4-0.3,0.2c-0.7-0.2-0.9-0.5-0.8-0.9c-0.2,0.5-0.5,0.6-0.7,0.7c-0.2,0.1-0.1,0.2-0.2-0.2c-0.2-0.5,0.2-0.9,0.5-1
	c-0.6,0.1-0.8,0.2-1.1-0.2c-0.1-0.2-0.1-0.1,0.1-0.3c0.3-0.3,0.9-0.2,1.2,0c-0.4-0.5,0-1.3,0.3-1.5c0.3-0.2,0.1-0.1,0.4,0.2
	C20.5,451.1,20.8,451.7,20.5,452.1z"/>
<path class="st3" d="M23.4,472.3c0.4-0.3,0.9-0.3,1.1-0.2c0.2,0.1,0.1,0,0,0.3c-0.2,0.5-0.7,0.7-1.1,0.6c0.4,0.3,0.5,0.7,0.3,1.1
	c-0.1,0.3,0.1,0.4-0.3,0.2c-0.7-0.2-0.9-0.5-0.8-0.9c-0.2,0.5-0.5,0.6-0.7,0.7c-0.2,0.1-0.1,0.2-0.2-0.2c-0.2-0.5,0.2-0.9,0.5-1
	c-0.6,0.1-0.8,0.2-1.1-0.2c-0.1-0.2-0.1-0.1,0.1-0.3c0.3-0.3,0.9-0.2,1.2,0c-0.4-0.5,0-1.3,0.3-1.5c0.3-0.2,0.1-0.1,0.4,0.2
	C23.4,471.3,23.7,472,23.4,472.3z"/>
<path class="st4" d="M11.6,531.8c0.8,0.4,1.6,1.9,1.6,3.7c0.4-1.5,1.6-2.5,2.9-2.5c1.4,0.1,2.6,1.5,2.6,2.7
	c-0.1,1.2-1.6,2.5-3.7,2.4c1.1,0.4,2.5,1.7,3,2.8c0.5,1.2-0.1,2.2-0.9,2c-0.8-0.1-2.3-1.5-3-3.3c0.2,1.2-0.3,2.7-1,3.6
	c-0.8,1-1.9,1-2.2,0.2c-0.3-0.7,0.1-2.4,1.1-3.8c-1,0.8-2.5,1-3.5,0.5c-1.2-0.6-1.7-2-1-2.8c0.6-0.8,2.3-1.1,3.9-0.6
	c-1-0.8-1.6-2.2-1.5-3.3C9.8,532.2,10.8,531.4,11.6,531.8z M26.9,522.5c0.6-0.6,2.3-0.8,4-0.2c-1.3-0.9-1.8-2.4-1.3-3.6
	c0.5-1.3,2.3-2,3.4-1.5c1.1,0.5,1.8,2.4,1,4.4c0.7-0.9,2.4-1.8,3.6-1.8c1.3-0.1,2,0.8,1.6,1.6c-0.4,0.7-2.2,1.6-4.1,1.7
	c1.2,0.2,2.5,1.2,3,2.2c0.6,1.1,0.3,2.1-0.6,2.1c-0.8,0-2.2-0.9-3.2-2.3c0.4,1.2,0.1,2.7-0.7,3.5c-0.9,0.9-2.5,0.9-3,0
	c-0.5-0.8-0.3-2.5,0.8-3.9c-1.1,0.7-2.6,0.8-3.6,0.3C26.6,524.3,26.2,523.1,26.9,522.5z M5.7,502.4c0.8-0.8,3-1,5.1-0.3
	c-1.7-1.1-2.3-3.1-1.7-4.6c0.7-1.6,2.9-2.5,4.3-1.9c1.4,0.6,2.3,3.1,1.3,5.6c0.9-1.1,3.1-2.3,4.6-2.4c1.6-0.1,2.6,1,2,2
	c-0.5,1-2.8,2.1-5.2,2.2c1.5,0.3,3.2,1.5,3.9,2.8c0.8,1.4,0.3,2.8-0.7,2.7c-1,0-2.8-1.2-4.1-2.9c0.5,1.6,0.1,3.4-0.9,4.4
	c-1.2,1.2-3.1,1.1-3.9,0c-0.7-1-0.4-3.2,1-5c-1.4,0.9-3.4,1-4.7,0.4C5.3,504.8,4.8,503.2,5.7,502.4z M8.1,521
	c0.1,0.7,0.7,1.2,1.4,1.1c0.7-0.1,1.1-0.7,1.1-1.4c-0.1-0.7-0.7-1.2-1.4-1.1C8.5,519.7,8,520.3,8.1,521z M7.4,511.2
	c0.2,0.2,0.6,0.2,0.9,0c0.2-0.2,0.2-0.6,0-0.9c-0.2-0.2-0.6-0.2-0.9,0C7.1,510.6,7.1,511,7.4,511.2z M21.3,524.7
	c0.2,0.2,0.6,0.2,0.9,0c0.2-0.2,0.2-0.6,0-0.9c-0.2-0.2-0.6-0.2-0.9,0S21,524.5,21.3,524.7z M18.2,544.7c0.2,0.2,0.6,0.2,0.9,0
	c0.2-0.2,0.2-0.6,0-0.9c-0.2-0.2-0.6-0.2-0.9,0C18,544,18,544.4,18.2,544.7z M15.5,552.4c0.2,0.2,0.6,0.2,0.9,0
	c0.2-0.2,0.2-0.6,0-0.9c-0.2-0.2-0.6-0.2-0.9,0C15.3,551.8,15.3,552.2,15.5,552.4z M19.5,532.2c0.2-0.2,0.6-0.3,1-0.1
	c-0.4-0.2-0.3-0.9-0.1-1.3c0.2-0.4,0-0.4,0.3-0.3c0.3,0.1,0.9,0.8,0.7,1.3c0.2-0.3,0.7-0.6,1.1-0.3c0.3,0.2,0.3,0,0.2,0.3
	c-0.1,0.4-0.4,0.4-1,0.5c0.3,0.1,0.7,0.4,0.7,0.8c0,0.4,0.1,0.2-0.1,0.2c-0.2,0-0.5-0.1-0.8-0.5c0.1,0.4,0,0.7-0.5,1.1
	c-0.3,0.2-0.1,0.1-0.3-0.2c-0.3-0.3-0.3-0.7,0-1.1c-0.3,0.2-0.8,0.1-1.1-0.2C19.3,532.2,19.3,532.3,19.5,532.2z M0.1,514.9
	c0.2-0.2,0.6-0.3,1-0.1c-0.4-0.2-0.3-0.9-0.1-1.3c0.2-0.4,0-0.4,0.3-0.3c0.3,0.1,0.9,0.8,0.7,1.3c0.2-0.2,0.7-0.6,1.1-0.3
	c0.3,0.2,0.3,0,0.2,0.3c-0.1,0.4-0.4,0.4-1,0.5c0.3,0.1,0.7,0.4,0.7,0.8c0,0.4,0.1,0.2-0.1,0.2c-0.2,0-0.5-0.1-0.8-0.5
	c0.1,0.4,0,0.7-0.5,1.1c-0.3,0.2-0.1,0.1-0.3-0.2c-0.3-0.3-0.3-0.7,0-1.1c-0.3,0.2-0.8,0.1-1.1-0.2C0,514.9,0,515,0.1,514.9z
	 M0.7,539c0.2-0.2,0.6-0.3,1-0.1c-0.4-0.2-0.3-0.9-0.1-1.3c0.2-0.4,0-0.4,0.3-0.3c0.3,0.1,0.9,0.8,0.7,1.3c0.2-0.3,0.7-0.6,1.1-0.3
	c0.3,0.2,0.3,0,0.2,0.3C3.8,539,3.5,539,3,539c0.3,0.1,0.7,0.4,0.7,0.8c0,0.4,0.1,0.2-0.1,0.2c-0.2,0-0.5-0.1-0.8-0.5
	c0.1,0.4,0,0.7-0.5,1.1c-0.3,0.2-0.1,0.1-0.3-0.2c-0.3-0.3-0.3-0.7,0-1.1c-0.3,0.2-0.8,0.1-1.1-0.2C0.6,539,0.5,539.2,0.7,539z
	 M2.8,534.3c0.2-0.2,0.6-0.3,1-0.1c-0.4-0.2-0.3-0.9-0.1-1.3c0.2-0.4,0-0.4,0.3-0.3c0.3,0.1,0.9,0.8,0.7,1.3
	c0.2-0.2,0.7-0.6,1.1-0.3c0.3,0.2,0.3,0,0.2,0.3c-0.1,0.4-0.4,0.4-1,0.5c0.3,0.1,0.7,0.4,0.7,0.8c0,0.4,0.1,0.2-0.1,0.2
	c-0.2,0-0.5-0.1-0.8-0.5c0.1,0.4,0,0.7-0.5,1.1c-0.3,0.2-0.1,0.1-0.3-0.2c-0.3-0.3-0.3-0.7,0-1.1c-0.3,0.2-0.8,0.1-1.1-0.2
	C2.7,534.3,2.6,534.5,2.8,534.3z M0.6,528.7c0.2-0.2,0.6-0.3,1-0.1c-0.4-0.2-0.3-0.9-0.1-1.3c0.2-0.4,0-0.4,0.3-0.3
	c0.3,0.1,0.9,0.8,0.7,1.3c0.2-0.3,0.7-0.6,1.1-0.3c0.3,0.2,0.3,0,0.2,0.3c-0.1,0.4-0.4,0.4-1,0.5c0.3,0.1,0.7,0.4,0.7,0.8
	c0,0.4,0.1,0.2-0.1,0.2c-0.2,0-0.5-0.1-0.8-0.5c0.1,0.4,0,0.7-0.5,1.1c-0.3,0.2-0.1,0.1-0.3-0.2c-0.3-0.3-0.3-0.7,0-1.1
	c-0.3,0.2-0.8,0.1-1.1-0.2C0.5,528.7,0.4,528.8,0.6,528.7z"/>
<path class="st5" d="M123.9,487.3c-0.7,0.6-1,2.4-0.6,4.1c-0.8-1.4-2.4-2.1-3.6-1.7c-1.4,0.5-2.2,2.2-1.8,3.4
	c0.4,1.2,2.3,2.1,4.4,1.4c-1,0.7-2,2.4-2.2,3.6c-0.2,1.3,0.7,2.2,1.5,1.8c0.8-0.4,1.8-2.2,2.1-4.1c0.1,1.3,1,2.7,2,3.3
	c1.1,0.7,2.2,0.4,2.3-0.4c0-0.8-0.8-2.3-2.1-3.5c1.2,0.5,2.8,0.3,3.6-0.5c1-0.9,1.1-2.5,0.2-3.1c-0.8-0.6-2.6-0.5-4.1,0.5
	c0.8-1,1-2.7,0.6-3.8C125.8,487.2,124.6,486.7,123.9,487.3z M144.8,483.1c-0.5-0.3-1.6-0.1-2.5,0.5c0.6-0.7,0.7-1.8,0.2-2.4
	c-0.6-0.7-1.7-0.8-2.3-0.3c-0.6,0.5-0.7,1.8,0.1,2.9c-0.6-0.4-1.8-0.7-2.6-0.5c-0.8,0.2-1.1,0.8-0.7,1.2c0.4,0.4,1.6,0.6,2.8,0.3
	c-0.7,0.3-1.3,1.2-1.5,1.9c-0.2,0.8,0.2,1.4,0.7,1.2c0.5-0.1,1.2-0.9,1.6-2c0,0.8,0.4,1.7,1,2c0.7,0.4,1.7,0.1,1.9-0.5
	c0.2-0.6-0.3-1.6-1.2-2.3c0.8,0.2,1.7,0,2.3-0.4C145.3,484.2,145.4,483.4,144.8,483.1z M148.2,471.6c0.4-0.6,0.2-1.9-0.4-3.1
	c0.8,0.8,2.1,1,2.9,0.4c0.9-0.6,1.1-2,0.6-2.8c-0.6-0.8-2.1-1-3.4-0.1c0.5-0.7,0.9-2.1,0.8-3c-0.1-1-0.9-1.4-1.4-1
	c-0.5,0.4-0.9,1.9-0.6,3.4c-0.3-0.9-1.3-1.7-2.1-2c-0.9-0.3-1.7,0.1-1.5,0.8c0.1,0.6,1,1.5,2.2,2c-1-0.1-2,0.4-2.5,1.1
	c-0.6,0.9-0.3,2,0.5,2.3c0.7,0.3,1.9-0.2,2.8-1.2c-0.3,0.9-0.2,2.1,0.3,2.8C146.9,472.1,147.9,472.2,148.2,471.6z M176.3,488.2
	c0.1-0.9-0.8-2.4-2.3-3.5c1.5,0.5,3.1,0,3.8-1.2c0.7-1.3,0.2-3.1-0.9-3.7c-1.1-0.6-3.1,0-4.2,1.9c0.3-1.1-0.1-3.1-0.8-4.2
	c-0.7-1.1-1.9-1.2-2.3-0.3c-0.3,0.8,0.1,2.9,1.2,4.5c-0.9-0.8-2.6-1.3-3.7-1.1c-1.3,0.2-1.9,1.1-1.4,1.8c0.5,0.6,2.2,1.2,3.9,1.2
	c-1.3,0.5-2.2,1.6-2.4,2.8c-0.2,1.4,0.8,2.6,1.9,2.5c1-0.1,2.3-1.3,2.7-3.1c0.1,1.3,1,2.7,2.1,3.2
	C174.9,489.6,176.2,489.1,176.3,488.2z M187.1,494.2c-0.5-0.2-1.5-0.1-2.4,0.5c0.6-0.7,0.7-1.7,0.2-2.3c-0.5-0.7-1.6-0.8-2.2-0.3
	c-0.6,0.5-0.7,1.7,0.1,2.7c-0.6-0.4-1.7-0.6-2.4-0.5c-0.7,0.2-1,0.8-0.7,1.2c0.4,0.4,1.5,0.6,2.7,0.3c-0.7,0.3-1.2,1.1-1.4,1.8
	c-0.2,0.7,0.2,1.3,0.7,1.1c0.4-0.1,1.1-0.9,1.5-1.8c0,0.8,0.4,1.6,1,1.9c0.7,0.4,1.6,0.1,1.8-0.5c0.2-0.6-0.2-1.5-1.1-2.1
	c0.7,0.2,1.6,0,2.2-0.4C187.5,495.2,187.6,494.5,187.1,494.2z M172.1,503.8c-1.1-0.6-3.4-0.2-5.4,1.2c1.4-1.6,1.5-3.8,0.4-5.2
	c-1.2-1.5-3.7-1.8-5-0.7c-1.3,1.1-1.5,3.8,0.3,6.1c-1.3-0.9-3.9-1.4-5.5-1.1c-1.7,0.4-2.4,1.8-1.5,2.6c0.8,0.8,3.5,1.3,6,0.7
	c-1.5,0.7-2.8,2.5-3.2,4c-0.4,1.7,0.4,2.9,1.6,2.6c1-0.3,2.5-2,3.3-4.2c-0.1,1.8,0.9,3.5,2.2,4.3c1.6,0.9,3.6,0.2,4-1.1
	c0.4-1.3-0.5-3.4-2.5-4.8c1.6,0.5,3.7,0,4.9-0.9C173.2,506.1,173.3,504.4,172.1,503.8z M207.7,514.2c-0.9,0.2-2.1,1.5-2.7,3.2
	c0.1-1.6-0.9-3-2.2-3.3c-1.4-0.3-3.1,0.7-3.3,1.9c-0.3,1.3,0.9,3,3,3.5c-1.2,0.1-3,1-3.8,1.9c-0.8,1-0.6,2.2,0.3,2.3
	c0.9,0.1,2.7-0.9,3.9-2.4c-0.5,1.1-0.5,2.8,0,3.9c0.5,1.2,1.6,1.5,2.2,0.8c0.5-0.7,0.6-2.4,0-4.1c0.8,1.1,2.2,1.7,3.3,1.5
	c1.4-0.2,2.2-1.5,1.9-2.5c-0.4-0.9-1.9-1.8-3.8-1.7c1.2-0.5,2.3-1.7,2.5-2.9C209.5,515.1,208.7,514,207.7,514.2z M105.9,482.3
	c-0.8-0.4-2.6-0.2-4.1,0.9c1-1.2,1.1-2.9,0.3-3.9c-0.9-1.1-2.8-1.3-3.8-0.5c-1,0.8-1.1,2.9,0.2,4.6c-1-0.7-2.9-1.1-4.2-0.8
	c-1.3,0.3-1.8,1.4-1.2,2c0.6,0.6,2.7,1,4.6,0.6c-1.1,0.6-2.2,1.9-2.4,3c-0.3,1.3,0.3,2.2,1.2,2c0.8-0.2,1.9-1.5,2.5-3.2
	c0,1.3,0.7,2.7,1.7,3.3c1.2,0.7,2.7,0.2,3-0.8c0.3-1-0.4-2.6-1.9-3.7c1.2,0.4,2.8,0,3.7-0.7C106.7,484.1,106.8,482.7,105.9,482.3z
	 M121.5,456.2c-1-0.6-3.3-0.2-5.2,1.1c1.3-1.6,1.5-3.7,0.4-5.1c-1.2-1.5-3.6-1.7-4.9-0.7c-1.3,1.1-1.5,3.7,0.3,5.9
	c-1.2-0.9-3.8-1.4-5.3-1c-1.6,0.4-2.3,1.8-1.5,2.6c0.8,0.8,3.4,1.3,5.9,0.7c-1.4,0.7-2.8,2.4-3.1,3.9c-0.4,1.6,0.4,2.9,1.5,2.5
	c1-0.3,2.5-2,3.3-4.1c-0.1,1.7,0.9,3.4,2.2,4.2c1.5,0.9,3.5,0.2,3.9-1.1c0.4-1.2-0.5-3.3-2.4-4.7c1.6,0.5,3.6,0,4.8-0.9
	C122.5,458.5,122.6,456.8,121.5,456.2z M124.3,475.5c0.1,0.7-0.4,1.4-1.1,1.5c-0.7,0.1-1.4-0.4-1.5-1.1s0.4-1.4,1.1-1.5
	C123.6,474.3,124.2,474.8,124.3,475.5z M144.8,500.1c0.1,0.7-0.4,1.4-1.1,1.5c-0.7,0.1-1.4-0.4-1.5-1.1c-0.1-0.7,0.4-1.4,1.1-1.5
	C144,498.9,144.7,499.4,144.8,500.1z M158,478.2c0.1,0.7-0.4,1.4-1.1,1.5c-0.7,0.1-1.4-0.4-1.5-1.1c-0.1-0.7,0.4-1.4,1.1-1.5
	C157.2,477,157.9,477.5,158,478.2z M168.1,492.3c-0.3,0.6-1.1,0.8-1.8,0.5c-0.6-0.4-0.8-1.1-0.5-1.8c0.3-0.6,1.1-0.8,1.8-0.5
	C168.2,490.9,168.4,491.6,168.1,492.3z M200.7,501.7c-0.3,0.6-1.1,0.8-1.8,0.5c-0.6-0.4-0.8-1.1-0.5-1.8c0.3-0.6,1.1-0.8,1.8-0.5
	C200.8,500.3,201,501.1,200.7,501.7z M173.2,511.3c-0.2,0.3-0.6,0.4-0.9,0.2c-0.3-0.2-0.4-0.6-0.2-0.9c0.2-0.3,0.6-0.4,0.9-0.2
	S173.4,511,173.2,511.3z M156.8,499.7c-0.2,0.3-0.6,0.4-0.9,0.2c-0.3-0.2-0.4-0.6-0.2-0.9c0.2-0.3,0.6-0.4,0.9-0.2
	C156.9,499,157,499.4,156.8,499.7z M135.1,476.7c-0.2,0.3-0.6,0.4-0.9,0.2c-0.3-0.2-0.4-0.6-0.2-0.9c0.2-0.3,0.6-0.4,0.9-0.2
	C135.2,476,135.3,476.4,135.1,476.7z M122.3,465.5c-0.2,0.3-0.6,0.4-0.9,0.2c-0.3-0.2-0.4-0.6-0.2-0.9c0.2-0.3,0.6-0.4,0.9-0.2
	C122.3,464.8,122.4,465.2,122.3,465.5z M112.2,482.9c-0.2,0.3-0.6,0.4-0.9,0.2c-0.3-0.2-0.4-0.6-0.2-0.9c0.2-0.3,0.6-0.4,0.9-0.2
	C112.3,482.2,112.4,482.6,112.2,482.9z M120.9,502.1c-0.2,0.3-0.6,0.4-0.9,0.2c-0.3-0.2-0.4-0.6-0.2-0.9c0.2-0.3,0.6-0.4,0.9-0.2
	C121,501.4,121.1,501.7,120.9,502.1z M125.8,509.1c-0.2,0.3-0.6,0.4-0.9,0.2c-0.3-0.2-0.4-0.6-0.2-0.9c0.2-0.3,0.6-0.4,0.9-0.2
	C125.8,508.4,125.9,508.8,125.8,509.1z M146.3,514.7c-0.2,0.3-0.6,0.4-0.9,0.2c-0.3-0.2-0.4-0.6-0.2-0.9c0.2-0.3,0.6-0.4,0.9-0.2
	S146.5,514.4,146.3,514.7z M180,515.8c-0.2,0.3-0.6,0.4-0.9,0.2c-0.3-0.2-0.4-0.6-0.2-0.9c0.2-0.3,0.6-0.4,0.9-0.2
	C180.1,515.1,180.2,515.5,180,515.8z M189.1,516.9c-0.2,0.3-0.6,0.4-0.9,0.2c-0.3-0.2-0.4-0.6-0.2-0.9c0.2-0.3,0.6-0.4,0.9-0.2
	C189.2,516.2,189.3,516.6,189.1,516.9z M190.2,506c-0.1,0.2-0.3,0.2-0.4,0.1c-0.2-0.1-0.2-0.3-0.1-0.4c0.1-0.2,0.3-0.2,0.4-0.1
	C190.2,505.7,190.3,505.9,190.2,506z M178.3,499.3c-0.1,0.2-0.3,0.2-0.4,0.1c-0.2-0.1-0.2-0.3-0.1-0.4c0.1-0.2,0.3-0.2,0.4-0.1
	C178.3,498.9,178.4,499.1,178.3,499.3z M172.1,492.1c-0.1,0.2-0.3,0.2-0.4,0.1c-0.2-0.1-0.2-0.3-0.1-0.4c0.1-0.2,0.3-0.2,0.4-0.1
	C172.1,491.8,172.1,492,172.1,492.1z M163.4,485.6c-0.1,0.2-0.3,0.2-0.4,0.1c-0.2-0.1-0.2-0.3-0.1-0.4c0.1-0.2,0.3-0.2,0.4-0.1
	C163.4,485.3,163.5,485.5,163.4,485.6z M156.3,487.5c-0.1,0.2-0.3,0.2-0.4,0.1c-0.2-0.1-0.2-0.3-0.1-0.4c0.1-0.2,0.3-0.2,0.4-0.1
	C156.3,487.2,156.4,487.4,156.3,487.5z M147.2,477.2c-0.1,0.2-0.3,0.2-0.4,0.1c-0.2-0.1-0.2-0.3-0.1-0.4c0.1-0.2,0.3-0.2,0.4-0.1
	C147.2,476.9,147.3,477.1,147.2,477.2z M140.9,471.6c-0.1,0.2-0.3,0.2-0.4,0.1c-0.2-0.1-0.2-0.3-0.1-0.4c0.1-0.2,0.3-0.2,0.4-0.1
	C140.9,471.2,141,471.4,140.9,471.6z M153.3,482.9c-0.3-0.1-0.7-0.1-1.2,0.2c0.4-0.3,0-0.9-0.2-1.2c-0.3-0.3-0.1-0.4-0.4-0.2
	c-0.3,0.2-0.9,1-0.4,1.4c-0.3-0.2-1-0.3-1.3,0c-0.3,0.3-0.3,0.1-0.2,0.3c0.3,0.3,0.6,0.3,1.2,0.2c-0.4,0.2-0.7,0.5-0.6,1
	c0.1,0.3-0.1,0.3,0.2,0.2c0.3-0.1,0.6-0.2,0.8-0.7c0,0.4,0.2,0.6,0.9,0.8c0.4,0.1,0.2,0,0.3-0.2c0.2-0.4,0.1-0.7-0.3-1
	c0.4,0.1,1-0.1,1.2-0.5C153.5,482.8,153.6,483,153.3,482.9z M116.1,489.9c-0.2-0.1-0.7-0.1-1.1,0.2c0.3-0.4,0-1-0.2-1.3
	c-0.3-0.3-0.1-0.4-0.4-0.2c-0.3,0.2-0.7,1-0.3,1.5c-0.3-0.2-0.9-0.4-1.2,0c-0.3,0.3-0.3,0.1-0.1,0.3c0.3,0.4,0.5,0.3,1.1,0.2
	c-0.3,0.2-0.6,0.6-0.5,1c0.1,0.4-0.1,0.3,0.2,0.2c0.2-0.1,0.5-0.2,0.7-0.7c0,0.4,0.2,0.7,0.8,0.9c0.4,0.1,0.2,0,0.3-0.2
	c0.2-0.4,0.1-0.7-0.3-1.1c0.4,0.1,0.9-0.1,1.1-0.6C116.2,489.9,116.4,490,116.1,489.9z M130.6,467.1c-0.2-0.1-0.7-0.1-1.1,0.2
	c0.3-0.4,0-1-0.2-1.3c-0.3-0.3-0.1-0.4-0.4-0.2c-0.3,0.2-0.7,1-0.3,1.5c-0.3-0.2-0.9-0.4-1.2,0c-0.3,0.3-0.3,0.1-0.1,0.3
	c0.3,0.4,0.5,0.3,1.1,0.2c-0.3,0.2-0.6,0.6-0.5,1c0.1,0.4-0.1,0.3,0.2,0.2c0.2-0.1,0.5-0.2,0.7-0.7c0,0.4,0.2,0.7,0.8,0.9
	c0.4,0.1,0.2,0,0.3-0.2c0.2-0.4,0.1-0.7-0.3-1.1c0.4,0.1,0.9-0.1,1.1-0.6C130.7,467.1,130.8,467.2,130.6,467.1z M151.2,496.1
	c-0.2-0.1-0.7-0.1-1.1,0.2c0.3-0.4,0-1-0.2-1.3c-0.3-0.3-0.1-0.4-0.4-0.2c-0.3,0.2-0.7,1-0.3,1.5c-0.3-0.2-0.9-0.4-1.2,0
	c-0.3,0.3-0.3,0.1-0.1,0.3c0.3,0.4,0.5,0.3,1.1,0.2c-0.3,0.2-0.6,0.6-0.5,1c0.1,0.4-0.1,0.3,0.2,0.2c0.2-0.1,0.5-0.2,0.7-0.7
	c0,0.4,0.2,0.7,0.8,0.9c0.4,0.1,0.2,0,0.3-0.2c0.2-0.4,0.1-0.7-0.3-1.1c0.4,0.1,0.9-0.1,1.1-0.6C151.3,496,151.4,496.2,151.2,496.1z
	 M175.1,496.8c-0.2-0.1-0.7-0.1-1.1,0.2c0.3-0.4,0-1-0.2-1.3c-0.3-0.3-0.1-0.4-0.4-0.2c-0.3,0.2-0.7,1-0.3,1.5
	c-0.3-0.2-0.9-0.4-1.2,0c-0.3,0.3-0.3,0.1-0.1,0.3c0.3,0.4,0.5,0.3,1.1,0.2c-0.3,0.2-0.6,0.6-0.5,1c0.1,0.4-0.1,0.3,0.2,0.2
	c0.2-0.1,0.5-0.2,0.7-0.7c0,0.4,0.2,0.7,0.8,0.9c0.4,0.1,0.2,0,0.3-0.2c0.2-0.4,0.1-0.7-0.3-1.1c0.4,0.1,0.9-0.1,1.1-0.6
	C175.2,496.7,175.3,496.9,175.1,496.8z M183,508.9c-0.2-0.1-0.7-0.1-1.1,0.2c0.3-0.4,0-1-0.2-1.3c-0.3-0.3-0.1-0.4-0.4-0.2
	c-0.3,0.2-0.7,1-0.3,1.5c-0.3-0.2-0.9-0.4-1.2,0c-0.3,0.3-0.3,0.1-0.1,0.3c0.3,0.4,0.5,0.3,1.1,0.2c-0.3,0.2-0.6,0.6-0.5,1
	c0.1,0.4-0.1,0.3,0.2,0.2c0.2-0.1,0.5-0.2,0.7-0.7c0,0.4,0.2,0.7,0.8,0.9c0.4,0.1,0.2,0,0.3-0.2c0.2-0.4,0.1-0.7-0.3-1.1
	c0.4,0.1,0.9-0.1,1.1-0.6C183.2,508.9,183.3,509,183,508.9z M198.1,510.9c-0.2-0.1-0.7-0.1-1.1,0.2c0.3-0.4,0-1-0.2-1.3
	c-0.3-0.3-0.1-0.4-0.4-0.2c-0.3,0.2-0.7,1-0.3,1.5c-0.3-0.2-0.9-0.4-1.2,0c-0.3,0.3-0.3,0.1-0.1,0.3c0.3,0.4,0.5,0.3,1.1,0.2
	c-0.3,0.2-0.6,0.6-0.5,1c0.1,0.4-0.1,0.3,0.2,0.2c0.2-0.1,0.5-0.2,0.7-0.7c0,0.4,0.2,0.7,0.8,0.9c0.4,0.1,0.2,0,0.3-0.2
	c0.2-0.4,0.1-0.7-0.3-1.1c0.4,0.1,0.9-0.1,1.1-0.6C198.2,510.8,198.3,511,198.1,510.9z M198.2,503.5c-0.2-0.1-0.7-0.1-1.1,0.2
	c0.3-0.4,0-1-0.2-1.3c-0.3-0.3-0.1-0.4-0.4-0.2c-0.3,0.2-0.7,1-0.3,1.5c-0.3-0.2-0.9-0.4-1.2,0c-0.3,0.3-0.3,0.1-0.1,0.3
	c0.3,0.4,0.5,0.3,1.1,0.2c-0.3,0.2-0.6,0.6-0.5,1c0.1,0.4-0.1,0.3,0.2,0.2c0.2-0.1,0.5-0.2,0.7-0.7c0,0.4,0.2,0.7,0.8,0.9
	c0.4,0.1,0.2,0,0.3-0.2c0.2-0.4,0.1-0.7-0.3-1.1c0.4,0.1,0.9-0.1,1.1-0.6C198.3,503.4,198.4,503.6,198.2,503.5z M153.3,507.6
	c-0.2-0.1-0.7-0.1-1.1,0.2c0.3-0.4,0-1-0.2-1.3c-0.3-0.3-0.1-0.4-0.4-0.2c-0.3,0.2-0.7,1-0.3,1.5c-0.3-0.2-0.9-0.4-1.2,0
	c-0.3,0.3-0.3,0.1-0.1,0.3c0.3,0.4,0.5,0.3,1.1,0.2c-0.3,0.2-0.6,0.6-0.5,1c0.1,0.4-0.1,0.3,0.2,0.2c0.2-0.1,0.5-0.2,0.7-0.7
	c0,0.4,0.2,0.7,0.8,0.9c0.4,0.1,0.2,0,0.3-0.2c0.2-0.4,0.1-0.7-0.3-1c0.4,0.1,0.9-0.1,1.1-0.6C153.5,507.5,153.6,507.7,153.3,507.6z
	 M136.8,491.4c-0.2-0.1-0.7-0.1-1.1,0.2c0.3-0.4,0-1-0.2-1.3c-0.3-0.3-0.1-0.4-0.4-0.2c-0.3,0.2-0.7,1-0.3,1.5
	c-0.3-0.2-0.9-0.4-1.2,0c-0.3,0.3-0.3,0.1-0.1,0.3c0.3,0.4,0.5,0.3,1.1,0.2c-0.3,0.2-0.6,0.6-0.5,1c0.1,0.4-0.1,0.3,0.2,0.2
	c0.2-0.1,0.5-0.2,0.7-0.7c0,0.4,0.2,0.7,0.8,0.9c0.4,0.1,0.2,0,0.3-0.2c0.2-0.4,0.1-0.7-0.3-1.1c0.4,0.1,0.9-0.1,1.1-0.6
	C136.9,491.4,137.1,491.6,136.8,491.4z M133.4,487.3c-0.2-0.1-0.7-0.1-1.1,0.2c0.3-0.4,0-1-0.2-1.3c-0.3-0.3-0.1-0.4-0.4-0.2
	c-0.3,0.2-0.7,1-0.3,1.5c-0.3-0.2-0.9-0.4-1.2,0c-0.3,0.3-0.3,0.1-0.1,0.3c0.3,0.4,0.5,0.3,1.1,0.2c-0.3,0.2-0.6,0.6-0.5,1
	c0.1,0.4-0.1,0.3,0.2,0.2c0.2-0.1,0.5-0.2,0.7-0.7c0,0.4,0.2,0.7,0.8,0.9c0.4,0.1,0.2,0,0.3-0.2c0.2-0.4,0.1-0.7-0.3-1
	c0.4,0.1,0.9-0.1,1.1-0.6C133.5,487.3,133.6,487.5,133.4,487.3z M134,481.1c-0.2-0.1-0.7-0.1-1.1,0.2c0.3-0.4,0-1-0.2-1.3
	c-0.3-0.3-0.1-0.4-0.4-0.2c-0.3,0.2-0.7,1-0.3,1.5c-0.3-0.2-0.9-0.4-1.2,0c-0.3,0.3-0.3,0.1-0.1,0.3c0.3,0.4,0.5,0.3,1.1,0.2
	c-0.3,0.2-0.6,0.6-0.5,1c0.1,0.4-0.1,0.3,0.2,0.2c0.2-0.1,0.5-0.2,0.7-0.7c0,0.4,0.2,0.7,0.8,0.9c0.4,0.1,0.2,0,0.3-0.2
	c0.2-0.4,0.1-0.7-0.3-1c0.4,0.1,0.9-0.1,1.1-0.6C134.1,481,134.2,481.2,134,481.1z"/>
<g>
	<path d="M353.6,520c-0.1,0-0.8-0.2-0.8,1.9c-0.1,4.3-0.2,11.1-0.1,11.6c0.2,1,0.5,0.9,1.2,0.9c0.8,0,1.4-0.3,1.3-2.3
		c0-4,0.1-10.7,0-11.2C355.1,520.5,354.9,519.7,353.6,520z"/>
	<path d="M367.4,527.1c-0.1,0-0.8-0.2-0.9,1.9c-0.1,4.3-0.2,11.1-0.1,11.6c0.2,1,0.6,0.9,1.3,0.9c0.9,0,1.5-0.3,1.5-2.3
		c0-4,0.1-10.7,0-11.2C369.1,527.6,368.8,526.8,367.4,527.1z"/>
	<path d="M374.4,525.1c-0.1,0-0.8-0.2-0.8,1.9c-0.1,4.3-0.2,11.1-0.1,11.6c0.2,1,0.5,0.9,1.2,0.9c0.8,0,1.4-0.3,1.3-2.3
		c0-4,0.1-10.7,0-11.2C376,525.5,375.7,524.8,374.4,525.1z"/>
	<path d="M359.5,518.9c-0.1,0-0.8-0.2-0.8,1.9c-0.1,4.3-0.2,11.1-0.1,11.6c0.2,1,0.5,0.9,1.2,0.9c0.8,0,1.4-0.3,1.3-2.3
		c0-4,0.1-10.7,0-11.2C361,519.3,360.8,518.6,359.5,518.9z"/>
	<path d="M410.4,533.1c-0.1,0-0.8-0.2-0.8,1.9c-0.1,4.2-0.2,10.9-0.1,11.4c0.2,1,0.5,0.9,1.2,0.9c0.9,0,1.4-0.3,1.3-2.2
		c0-3.9,0.1-10.5,0-11C411.9,533.6,411.7,532.8,410.4,533.1z"/>
	<path d="M404.7,528.7c-0.1,0-0.8-0.2-0.8,1.9c-0.1,4.3-0.2,11.1-0.1,11.6c0.2,1,0.5,0.9,1.2,0.9c0.8,0.1,1.4-0.3,1.3-2.3
		c0-4,0.1-10.7,0-11.2C406.2,529.2,406,528.4,404.7,528.7z"/>
	<path d="M427.2,529.4c-0.1,0-0.8-0.2-0.8,1.9c-0.1,4.3-0.2,11.1-0.1,11.6c0.2,1,0.5,0.9,1.2,0.9c0.8,0,1.4-0.3,1.3-2.3
		c0-4,0.1-10.7,0-11.2C428.7,529.9,428.5,529.1,427.2,529.4z"/>
	<path d="M421.1,526.7c-0.1,0-0.8-0.2-0.8,1.9c-0.1,4.2-0.2,10.9-0.1,11.4c0.2,1,0.5,0.9,1.2,0.9c0.8,0,1.4-0.3,1.3-2.2
		c0-3.9,0.1-10.5,0-11C422.6,527.1,422.3,526.4,421.1,526.7z"/>
	<path class="st6" d="M353.9,510.1c-2,1.6-2.7,3.9-3.1,5.4c-0.2,0.7-1.7,6.2,1.6,10.5c1.6,2,4.2,2.9,9.5,4.7c5.8,2,8.7,2.9,12.1,1.9
		c0.9-0.3,3.8-1.1,5.8-3.9c2.6-3.5,1.9-7.5,1.7-8.3c-0.2-0.9-0.7-3.2-2.6-5.4c-1-1.1-2.8-2.8-8.8-4.4
		C362.7,508.6,357.5,507.2,353.9,510.1z"/>
	<path class="st6" d="M401.1,523.2c-1.1,2.3-0.6,4.6-0.2,6.1c0.2,0.7,1.5,6.2,6.4,8.6c2.4,1.1,5.1,0.7,10.7,0
		c6.1-0.8,9.2-1.3,11.7-3.6c0.7-0.6,2.8-2.7,3.4-6c0.7-4.2-1.9-7.4-2.4-8.1c-0.5-0.7-2.1-2.5-4.9-3.6c-1.4-0.6-3.8-1.2-9.9,0
		C408.3,518,402.9,519,401.1,523.2z"/>
	<path d="M377.2,519.2c-0.2,0.1-2.1,0.5-3.1,2.3c-1.8,3.1,1.3,6.8,1.6,7.3c0.8,1,2.1,2.6,4.3,2.7c2.2,0.1,4.3-1.2,5.1-3
		c1.5-3.1-1.2-6.2-1.5-6.6C383.2,521.4,380.5,518.4,377.2,519.2z"/>
	<path d="M404.8,520.8c0.2,0,2,0.5,2.9,2.3c1.7,3.1-1.2,6.8-1.5,7.3c-0.7,1-1.9,2.6-3.9,2.7c-2,0.1-3.9-1.2-4.7-3
		c-1.4-3.1,1.1-6.2,1.4-6.6C399.3,523,401.8,520,404.8,520.8z"/>
	<path d="M379.4,519.9c-0.4,0.3-0.4,0.6-0.5,0.8c0,0.1-0.1,0.8,0.7,1c0.4,0.1,1,0.1,2.1-0.1c1.2-0.2,1.9-0.2,2.6-0.6
		c0.2-0.1,0.7-0.4,1.1-0.8c0.4-0.5,0.2-0.9,0.1-1c-0.1-0.1-0.2-0.3-0.7-0.4c-0.2-0.1-0.7-0.1-1.9,0.1
		C381.2,519.2,380.1,519.4,379.4,519.9z"/>
	<path class="st6" d="M426.3,517.6c-0.2,0.5,0,1,0,1.3c0,0.1,0.4,1.3,1.5,1.7c0.5,0.2,1.1,0.1,2.2-0.1c1.3-0.2,1.9-0.4,2.4-0.9
		c0.1-0.1,0.6-0.6,0.6-1.3c0.1-0.9-0.5-1.5-0.6-1.6c-0.1-0.1-0.5-0.5-1.1-0.7c-0.3-0.1-0.8-0.2-2.1,0.1
		C427.8,516.4,426.7,516.7,426.3,517.6z"/>
	<path d="M371.1,520.2c-0.4,0.2-0.6,0.5-0.7,0.6c0,0.1,0,0.7,0.6,1.2c0.3,0.2,0.5,0.3,1.6,0.5c1.2,0.2,1.8,0.3,2.5,0.2
		c0.2,0,0.8-0.1,1.2-0.5c0.6-0.4,0.4-0.9,0.4-1c0-0.1-0.1-0.4-0.5-0.6c-0.2-0.1-0.6-0.3-1.8-0.5
		C372.9,519.9,371.8,519.8,371.1,520.2z"/>
	<path d="M405.4,521.3c-0.4,0.3-0.4,0.6-0.5,0.8c0,0.1-0.1,0.8,0.6,1c0.4,0.1,0.9,0.1,2-0.1c1.2-0.2,1.8-0.2,2.5-0.6
		c0.2-0.1,0.7-0.4,1-0.8c0.4-0.5,0.1-0.9,0.1-1c-0.1-0.1-0.2-0.3-0.7-0.4c-0.2-0.1-0.6-0.1-1.9,0.1
		C407.1,520.6,406,520.7,405.4,521.3z"/>
	<path d="M396.9,521.5c-0.4,0.2-0.6,0.5-0.7,0.6c0,0.1,0,0.7,0.6,1.2c0.3,0.2,0.5,0.3,1.6,0.5c1.2,0.2,1.8,0.3,2.5,0.2
		c0.2,0,0.8-0.2,1.2-0.5c0.6-0.4,0.4-0.9,0.4-1c0-0.1-0.1-0.4-0.5-0.6c-0.2-0.1-0.6-0.3-1.8-0.5
		C398.7,521.3,397.6,521.2,396.9,521.5z"/>
	<path class="st6" d="M348.5,511.5c-0.2,0.5,0,1,0,1.3c0,0.2,0.4,1.3,1.5,1.8c0.5,0.2,1.1,0.1,2.2-0.1c1.3-0.3,1.9-0.4,2.4-0.9
		c0.1-0.1,0.6-0.6,0.6-1.3c0.1-0.9-0.5-1.6-0.6-1.7c-0.1-0.1-0.5-0.5-1.1-0.7c-0.3-0.1-0.8-0.2-2.1,0.1
		C349.9,510.3,348.8,510.6,348.5,511.5z"/>
</g>
<g>
	<path d="M340.6,479.7c0.1,0,0.6-0.1,0.7,1.6c0.1,3.6,0.2,9.3,0.1,9.7c-0.1,0.8-0.5,0.8-1,0.8c-0.7,0-1.1-0.2-1.1-1.9
		c0-3.4,0-9,0-9.4C339.3,480.1,339.5,479.4,340.6,479.7z"/>
	<path d="M329,485.6c0.1,0,0.7-0.1,0.7,1.6c0.1,3.6,0.2,9.3,0.1,9.7c-0.2,0.8-0.5,0.8-1.1,0.8c-0.8,0-1.2-0.2-1.2-1.9
		c0-3.4-0.1-9,0-9.4S327.9,485.4,329,485.6z"/>
	<path d="M323.1,483.9c0.1,0,0.6-0.1,0.7,1.6c0.1,3.6,0.2,9.3,0.1,9.7c-0.1,0.8-0.5,0.8-1,0.8c-0.7,0-1.1-0.2-1.1-1.9
		c0-3.4,0-9,0-9.4C321.9,484.3,322.1,483.7,323.1,483.9z"/>
	<path d="M335.6,478.7c0.1,0,0.6-0.1,0.7,1.6c0.1,3.6,0.2,9.3,0.1,9.7c-0.1,0.8-0.5,0.8-1,0.8c-0.7,0-1.1-0.2-1.1-1.9
		c0-3.4,0-9,0-9.4C334.4,479.1,334.6,478.5,335.6,478.7z"/>
	<path d="M291.4,488c0.1,0,0.6-0.1,0.7,1.6c0.1,3.5,0.2,9.1,0.1,9.5c-0.1,0.8-0.5,0.7-1,0.8c-0.7,0-1.1-0.2-1.1-1.9
		c0-3.3,0-8.8,0-9.2C290.1,488.4,290.3,487.8,291.4,488z"/>
	<path d="M295.9,486.7c0.1,0,0.6-0.1,0.7,1.6c0.1,3.6,0.2,9.3,0.1,9.7c-0.1,0.8-0.5,0.8-1,0.8c-0.7,0-1.1-0.2-1.1-1.9
		c0-3.4,0-9,0-9.4C294.7,487.1,294.9,486.4,295.9,486.7z"/>
	<path d="M278.9,487.6c0.1,0,0.6-0.1,0.7,1.6c0.1,3.6,0.2,9.3,0.1,9.7c-0.1,0.8-0.5,0.8-1,0.8c-0.7,0-1.1-0.2-1.1-1.9
		c0-3.4,0-9,0-9.4C277.7,488,277.9,487.3,278.9,487.6z"/>
	<path d="M284.1,485.3c0.1,0,0.6-0.1,0.7,1.6c0.1,3.5,0.2,9.1,0.1,9.5c-0.1,0.8-0.5,0.7-1,0.8c-0.7,0-1.1-0.2-1.1-1.9
		c0-3.3,0-8.8,0-9.2C282.8,485.6,283,485,284.1,485.3z"/>
	<path class="st6" d="M340.4,471.4c1.7,1.4,2.2,3.3,2.6,4.5c0.2,0.6,1.4,5.2-1.4,8.8c-1.3,1.7-3.5,2.5-7.9,4
		c-4.8,1.6-7.3,2.4-10.2,1.6c-0.7-0.2-3.2-0.9-4.9-3.2c-2.2-2.9-1.6-6.3-1.4-7c0.1-0.7,0.6-2.7,2.2-4.6c0.8-0.9,2.4-2.3,7.4-3.7
		C333,470.1,337.4,469,340.4,471.4z"/>
	<path class="st6" d="M301.1,483.8c0.6,2,0,3.9-0.4,5.1c-0.2,0.6-1.8,5.1-6.2,6.5c-2.1,0.7-4.3,0.1-8.9-1c-5-1.3-7.5-1.9-9.4-4.2
		c-0.5-0.6-2.1-2.5-2.2-5.3c-0.1-3.6,2.3-6,2.8-6.5c0.5-0.5,2-1.9,4.5-2.6c1.2-0.3,3.3-0.6,8.2,0.9
		C295.7,478.8,300,480.2,301.1,483.8z"/>
	<path d="M320.9,479c0.2,0,1.8,0.5,2.6,1.9c1.5,2.6-1.1,5.7-1.4,6.1c-0.7,0.8-1.8,2.2-3.6,2.3c-1.8,0.1-3.6-1-4.3-2.5
		c-1.3-2.6,1-5.2,1.3-5.6C315.8,480.8,318.1,478.3,320.9,479z"/>
	<path d="M299,488.1c-0.2,0-1.6,0.5-2.4,1.9c-1.4,2.6,1,5.7,1.2,6.1c0.6,0.8,1.6,2.2,3.3,2.3c1.7,0.1,3.3-1,4-2.5
		c1.2-2.6-0.9-5.2-1.2-5.6C303.7,489.9,301.6,487.4,299,488.1z"/>
	<path d="M319,479.6c0.3,0.3,0.4,0.5,0.4,0.7c0,0.1,0.1,0.7-0.5,0.9c-0.3,0.1-0.8,0-1.8-0.1c-1-0.1-1.6-0.2-2.1-0.5
		c-0.1-0.1-0.6-0.3-0.9-0.7c-0.4-0.5-0.1-0.8-0.1-0.8c0-0.1,0.2-0.3,0.6-0.4c0.2,0,0.6-0.1,1.6,0.1C317.5,479,318.4,479.1,319,479.6
		z"/>
	<path class="st6" d="M279.7,477.7c0.2,0.4,0,0.8,0,1.1c0,0.1-0.3,1.1-1.2,1.4c-0.4,0.2-0.9,0.1-1.9-0.1c-1.1-0.2-1.6-0.3-2-0.8
		c-0.1-0.1-0.5-0.5-0.5-1.1c-0.1-0.7,0.4-1.3,0.5-1.4c0.1-0.1,0.4-0.4,0.9-0.6c0.3-0.1,0.7-0.2,1.7,0.1
		C278.5,476.7,279.4,476.9,279.7,477.7z"/>
	<path d="M326,479.8c0.4,0.2,0.5,0.4,0.6,0.5c0,0.1,0,0.6-0.5,1c-0.3,0.2-0.4,0.3-1.3,0.4c-1,0.2-1.5,0.2-2.1,0.1
		c-0.2,0-0.7-0.1-1-0.4c-0.5-0.3-0.4-0.7-0.3-0.8c0-0.1,0.1-0.3,0.4-0.5c0.2-0.1,0.5-0.3,1.5-0.4C324.4,479.6,325.3,479.5,326,479.8
		z"/>
	<path d="M298.5,488.5c0.3,0.3,0.3,0.5,0.4,0.7c0,0.1,0.1,0.7-0.5,0.9c-0.3,0.1-0.8,0-1.7-0.1c-1-0.1-1.5-0.2-2.1-0.5
		c-0.1-0.1-0.6-0.3-0.9-0.7c-0.3-0.5-0.1-0.8-0.1-0.8c0-0.1,0.2-0.3,0.6-0.4c0.2,0,0.5-0.1,1.6,0.1C297.1,487.9,298,488,298.5,488.5
		z"/>
	<path d="M305.7,488.7c0.4,0.2,0.5,0.4,0.6,0.5c0,0.1,0,0.6-0.5,1c-0.3,0.2-0.4,0.3-1.3,0.4c-1,0.2-1.5,0.2-2.1,0.1
		c-0.2,0-0.7-0.1-1-0.4c-0.5-0.3-0.4-0.7-0.3-0.8c0-0.1,0.1-0.3,0.4-0.5c0.2-0.1,0.5-0.3,1.5-0.4
		C304.2,488.5,305.1,488.4,305.7,488.7z"/>
	<path d="M249.9,507.6c0.1,0,0.6-0.2,0.7,1.5c0.2,3.5,0.5,9.1,0.4,9.5c-0.1,0.8-0.4,0.8-1,0.8c-0.7,0.1-1.2-0.2-1.2-1.8
		c-0.1-3.3-0.3-8.8-0.3-9.2C248.6,508.1,248.8,507.4,249.9,507.6z"/>
	<path d="M254.5,503.8c0.1,0,0.6-0.2,0.7,1.6c0.2,3.6,0.5,9.3,0.4,9.7c-0.1,0.8-0.4,0.8-1,0.8c-0.7,0.1-1.2-0.2-1.2-1.9
		c-0.1-3.4-0.3-9-0.3-9.4C253.3,504.3,253.5,503.6,254.5,503.8z"/>
	<path d="M235.7,505c0.1,0,0.6-0.2,0.7,1.6c0.2,3.6,0.5,9.3,0.4,9.7c-0.1,0.8-0.4,0.8-1,0.8c-0.7,0.1-1.2-0.2-1.2-1.9
		c-0.1-3.4-0.3-9-0.3-9.4C234.5,505.4,234.7,504.8,235.7,505z"/>
	<path d="M240.8,502.5c0.1,0,0.6-0.2,0.7,1.5c0.2,3.5,0.5,9.1,0.4,9.5c-0.1,0.8-0.4,0.8-1,0.8c-0.7,0.1-1.2-0.2-1.2-1.8
		c-0.1-3.3-0.3-8.8-0.3-9.2C239.5,502.9,239.7,502.3,240.8,502.5z"/>
	<path class="st6" d="M257.4,499.1c0.9,1.9,0.6,3.9,0.4,5.1c-0.1,0.6-1,5.3-5.1,7.4c-1.9,1-4.3,0.8-8.9,0.3
		c-5.1-0.5-7.7-0.8-9.9-2.7c-0.6-0.5-2.4-2.2-3-4.9c-0.7-3.5,1.4-6.3,1.8-6.8c0.4-0.6,1.7-2.2,4-3.2c1.2-0.5,3.2-1.1,8.3-0.3
		C251.3,494.9,255.8,495.6,257.4,499.1z"/>
	<path d="M254.2,497.2c-0.2,0-1.6,0.5-2.4,2c-1.3,2.6,1.2,5.7,1.4,6c0.7,0.8,1.7,2.1,3.4,2.2c1.7,0.1,3.3-1.1,3.9-2.6
		c1.1-2.6-1.1-5.2-1.4-5.5C258.9,498.9,256.8,496.4,254.2,497.2z"/>
	<path class="st6" d="M236.1,495.1c0.2,0.4,0.1,0.8,0,1.1c0,0.1-0.3,1.1-1.2,1.4c-0.4,0.2-0.9,0.1-1.9-0.1c-1.1-0.2-1.6-0.3-2-0.7
		c-0.1-0.1-0.5-0.5-0.6-1c-0.1-0.7,0.4-1.3,0.5-1.4c0.1-0.1,0.4-0.4,0.9-0.6c0.2-0.1,0.7-0.2,1.7,0.1
		C234.9,494.1,235.8,494.3,236.1,495.1z"/>
	<path d="M253.8,497.6c0.3,0.2,0.4,0.5,0.4,0.6c0,0.1,0.1,0.7-0.5,0.9c-0.3,0.1-0.8,0.1-1.7,0c-1-0.1-1.5-0.2-2.1-0.4
		c-0.1-0.1-0.6-0.3-0.9-0.6c-0.4-0.4-0.1-0.8-0.1-0.8c0-0.1,0.2-0.3,0.6-0.4c0.2-0.1,0.5-0.1,1.6,0
		C252.3,497.1,253.2,497.2,253.8,497.6z"/>
	<path d="M260.9,497.6c0.4,0.2,0.5,0.4,0.6,0.5c0,0.1,0,0.6-0.5,1c-0.3,0.2-0.4,0.3-1.3,0.5c-1,0.2-1.5,0.3-2.1,0.2
		c-0.2,0-0.7-0.1-1-0.4c-0.5-0.3-0.4-0.7-0.4-0.8c0-0.1,0.1-0.3,0.4-0.5c0.2-0.1,0.5-0.3,1.5-0.4
		C259.4,497.5,260.3,497.3,260.9,497.6z"/>
	<path class="st6" d="M344.9,472.5c0.2,0.4,0,0.8,0,1.1c0,0.1-0.3,1.1-1.2,1.5c-0.4,0.2-0.9,0.1-1.9-0.1c-1.1-0.2-1.6-0.3-2-0.8
		c-0.1-0.1-0.5-0.5-0.5-1.1c-0.1-0.8,0.4-1.3,0.5-1.4c0.1-0.1,0.4-0.4,0.9-0.6c0.3-0.1,0.7-0.2,1.7,0.1
		C343.7,471.5,344.6,471.8,344.9,472.5z"/>
</g>
<g>
	<path d="M314.5,536.2c-0.1,0-0.5-0.1-0.5,1.2c-0.1,2.7-0.1,7.1-0.1,7.4c0.1,0.6,0.4,0.6,0.8,0.6c0.6,0,0.9-0.2,0.9-1.4
		c0-2.6,0-6.9,0-7.2C315.5,536.5,315.4,536,314.5,536.2z"/>
	<path d="M311,535.1c-0.1,0-0.5-0.1-0.5,1.2c-0.1,2.8-0.1,7.2-0.1,7.5c0.1,0.6,0.4,0.6,0.8,0.6c0.6,0,0.9-0.2,0.9-1.5
		c0-2.6,0-7,0-7.3S311.8,534.9,311,535.1z"/>
	<path d="M324.2,535.8c-0.1,0-0.5-0.1-0.5,1.2c-0.1,2.8-0.1,7.2-0.1,7.5c0.1,0.6,0.4,0.6,0.8,0.6c0.6,0,0.9-0.2,0.9-1.5
		c0-2.6,0-7,0-7.3C325.2,536.1,325,535.6,324.2,535.8z"/>
	<path d="M320.2,534c-0.1,0-0.5-0.1-0.5,1.2c-0.1,2.7-0.1,7.1-0.1,7.4c0.1,0.6,0.4,0.6,0.8,0.6c0.6,0,0.9-0.2,0.9-1.4
		c0-2.6,0-6.9,0-7.2C321.2,534.3,321,533.8,320.2,534z"/>
	<path class="st6" d="M306.9,532.9c-0.5,1.6,0,3,0.3,4c0.2,0.5,1.4,3.9,4.8,5.1c1.6,0.5,3.4,0.1,6.9-0.8c3.9-1,5.8-1.5,7.3-3.2
		c0.4-0.4,1.6-1.9,1.7-4.1c0.1-2.8-1.8-4.7-2.2-5.1c-0.4-0.4-1.6-1.5-3.5-2c-0.9-0.3-2.6-0.5-6.4,0.7
		C311.2,529,307.8,530.1,306.9,532.9z"/>
	<path d="M308.6,536.2c0.1,0,1.3,0.4,1.9,1.5c1.1,2-0.8,4.4-1,4.7c-0.5,0.6-1.3,1.7-2.6,1.8c-1.3,0.1-2.6-0.8-3.1-2
		c-0.9-2,0.7-4,0.9-4.3C305,537.6,306.6,535.7,308.6,536.2z"/>
	<path class="st6" d="M323.6,528.1c-0.1,0.3,0,0.6,0,0.8c0,0.1,0.3,0.8,1,1.1c0.3,0.1,0.7,0.1,1.5-0.1c0.8-0.2,1.2-0.2,1.6-0.6
		c0.1-0.1,0.4-0.4,0.4-0.8c0.1-0.6-0.3-1-0.4-1.1c-0.1-0.1-0.3-0.3-0.7-0.4c-0.2-0.1-0.5-0.1-1.4,0.1
		C324.6,527.3,323.8,527.5,323.6,528.1z"/>
	<path d="M309,536.5c-0.2,0.2-0.3,0.4-0.3,0.5c0,0.1-0.1,0.5,0.4,0.7c0.2,0.1,0.6,0,1.3-0.1c0.8-0.1,1.2-0.2,1.6-0.4
		c0.1-0.1,0.5-0.2,0.7-0.5c0.3-0.4,0.1-0.6,0.1-0.7c0-0.1-0.2-0.2-0.4-0.3c-0.1,0-0.4-0.1-1.2,0.1
		C310.1,536.1,309.4,536.2,309,536.5z"/>
	<path d="M303.4,536.7c-0.3,0.1-0.4,0.3-0.4,0.4c0,0.1,0,0.5,0.4,0.8c0.2,0.1,0.3,0.2,1,0.3c0.8,0.1,1.2,0.2,1.6,0.1
		c0.1,0,0.5-0.1,0.8-0.3c0.4-0.3,0.3-0.6,0.3-0.6c0-0.1-0.1-0.2-0.3-0.4c-0.1-0.1-0.4-0.2-1.2-0.3
		C304.6,536.6,303.9,536.5,303.4,536.7z"/>
</g>
<g>
	<path class="st1" d="M1440,494.4c-92.8,124-825.1,240.4-955.6,238.9C353.8,731.9,27.6,785,0,804l0,94.8c0,175.3,0,563.6,0,953.2
		h1440c0-157.8,0-470.7,0-762.1"/>
</g>
<g>
	<defs>
		
			<rect id="SVGID_1_" x="342.3" y="841.8" transform="matrix(0.9925 -0.1223 0.1223 0.9925 -109.93 58.9869)" width="166.8" height="166.8"/>
	</defs>
	<clipPath id="SVGID_2_">
		<use xlink:href="#SVGID_1_"  style="overflow:visible;"/>
	</clipPath>
	<g class="st7">
		<path class="st8" d="M489.8,969.5l-6.1-10.5l-42.1,5.9l33.6-20.5l-58.4-100.5l-16.5,54.2l19.8,5.9l-22.4,2.8l-9.5,31.3l23,9
			l-26.8,3.3l-10.2,33.5l54.4-6.7l3.6,29.6l8.8-1.1l-3.6-29.6L489.8,969.5z"/>
	</g>
</g>
<g>
	<defs>
		
			<rect id="SVGID_3_" x="135.3" y="744.8" transform="matrix(0.9925 -0.1223 0.1223 0.9925 -99.6232 32.9499)" width="166.8" height="166.8"/>
	</defs>
	<clipPath id="SVGID_4_">
		<use xlink:href="#SVGID_3_"  style="overflow:visible;"/>
	</clipPath>
	<g class="st9">
		<path class="st8" d="M282.8,872.5l-6.1-10.5l-42.1,5.9l33.6-20.5l-58.4-100.5l-16.5,54.2l19.8,5.9l-22.4,2.8l-9.5,31.3l23,9
			l-26.8,3.3l-10.2,33.5l54.4-6.7l3.6,29.6l8.8-1.1l-3.6-29.6L282.8,872.5z"/>
	</g>
</g>
<g>
	<defs>
		
			<rect id="SVGID_5_" x="374.5" y="615.8" transform="matrix(7.233042e-02 -0.9974 0.9974 7.233042e-02 -273.6226 1132.3083)" width="194.8" height="194.8"/>
	</defs>
	<clipPath id="SVGID_6_">
		<use xlink:href="#SVGID_5_"  style="overflow:visible;"/>
	</clipPath>
	<g class="st10">
		<path class="st8" d="M535.4,778.5l-4.7-13.4l-49.6-2.8l43.2-15.9L480.1,618L449,676.4l21.3,11.3l-26.3-1.9l-18,33.7l24.3,15.5
			l-31.4-2.3l-19.3,36.1l63.8,4.6l-2.5,34.7l10.3,0.7l2.5-34.7L535.4,778.5z"/>
	</g>
</g>
<path class="st8" d="M601.4,709.1l-15,94.5c44.4,4.6,120.2-6.1,151.9-30.9l-45.7-74.8l-14.5,42.8l-32.8-44.8l-0.4,33.7l-25.8-66.9
	l-3.7,97.2L601.4,709.1z"/>
<path class="st8" d="M1440,820.1l-22.4-31.5l-0.4,34.7l-25.8-68.9l-3.7,100.2l-13.9-52.4l-15,97.4c22.3,2.4,52.6,0.8,81.2-4.7V820.1
	z"/>
<path class="st3" d="M1440,615.4 M1440,608.1 M1440,615.4c-0.3-0.7-0.5-1.4-0.6-2.2c-0.2,1.4-1.2,3-2.3,3.7
	c-1.2,0.8-2.5,0.5-2.5-0.5c-0.1-0.9,0.9-2.6,2.4-3.9c-1.4,0.6-3.1,0.3-4.1-0.5c-1.2-1-1.2-2.8-0.3-3.5c0.9-0.7,2.9-0.6,4.6,0.6
	c-0.9-1.2-1.1-3-0.7-4.2c0.5-1.4,1.9-2,2.7-1.2c0.3,0.3,0.6,0.8,0.7,1.5v2.7c0,0.1-0.1,0.3-0.1,0.4c0-0.1,0.1-0.1,0.1-0.2V615.4z
	 M1415.9,598.9c0.6-0.3,1.8-0.1,2.8,0.6c-0.7-0.8-0.8-2-0.2-2.7c0.6-0.8,1.9-0.9,2.6-0.4c0.7,0.6,0.8,2-0.1,3.2
	c0.7-0.5,2-0.7,2.8-0.6c0.9,0.2,1.2,0.9,0.8,1.4c-0.4,0.4-1.8,0.7-3.2,0.4c0.8,0.4,1.5,1.3,1.7,2.1c0.2,0.9-0.2,1.5-0.8,1.4
	c-0.5-0.2-1.3-1.1-1.8-2.2c0,0.9-0.5,1.8-1.2,2.2c-0.8,0.5-1.9,0.1-2.1-0.6c-0.2-0.7,0.3-1.8,1.3-2.5c-0.9,0.3-1.9,0-2.6-0.5
	C1415.3,600.2,1415.3,599.2,1415.9,598.9z M1412.1,586c-0.4-0.6-0.3-2.1,0.5-3.4c-0.9,0.9-2.3,1.1-3.2,0.5c-1-0.7-1.3-2.3-0.7-3.1
	c0.6-0.9,2.3-1.1,3.8-0.1c-0.6-0.8-1.1-2.4-0.9-3.4c0.2-1.1,1-1.6,1.6-1.1c0.6,0.5,1,2.1,0.7,3.7c0.4-1,1.4-1.9,2.4-2.2
	c1-0.3,1.9,0.2,1.7,0.9c-0.1,0.7-1.2,1.7-2.5,2.3c1.1-0.1,2.2,0.4,2.8,1.2c0.6,0.9,0.3,2.2-0.5,2.5c-0.8,0.3-2.2-0.2-3.1-1.4
	c0.4,1,0.2,2.3-0.4,3.1C1413.6,586.6,1412.5,586.7,1412.1,586z M1380.7,604.5c-0.1-1,0.9-2.7,2.6-3.9c-1.7,0.6-3.5,0-4.2-1.3
	c-0.8-1.4-0.2-3.5,1-4.2c1.3-0.7,3.5,0,4.7,2.1c-0.3-1.3,0.1-3.5,0.9-4.7c0.8-1.2,2.2-1.3,2.6-0.4c0.4,0.9-0.1,3.2-1.3,5
	c1.1-0.9,2.9-1.5,4.2-1.3c1.4,0.2,2.2,1.3,1.5,2.1c-0.6,0.7-2.4,1.4-4.4,1.3c1.4,0.5,2.5,1.8,2.7,3.1c0.2,1.5-0.9,2.9-2.1,2.8
	c-1.1-0.1-2.5-1.5-3-3.5c-0.1,1.5-1.2,3-2.3,3.6C1382.2,606.1,1380.8,605.6,1380.7,604.5z M1368.7,611.3c0.5-0.3,1.7-0.1,2.6,0.6
	c-0.7-0.8-0.7-1.9-0.2-2.6c0.6-0.7,1.8-0.9,2.5-0.3c0.6,0.5,0.7,1.9-0.1,3c0.6-0.4,1.9-0.7,2.7-0.5c0.8,0.2,1.2,0.9,0.8,1.3
	c-0.4,0.4-1.7,0.6-3,0.4c0.7,0.4,1.4,1.2,1.6,2c0.2,0.8-0.2,1.4-0.8,1.3c-0.5-0.2-1.2-1-1.6-2.1c0,0.9-0.4,1.7-1.1,2.1
	c-0.8,0.4-1.8,0.1-1.9-0.5c-0.2-0.6,0.3-1.7,1.2-2.4c-0.8,0.2-1.8,0-2.4-0.5C1368.2,612.4,1368.1,611.6,1368.7,611.3z M1385.3,622
	c1.2-0.6,3.8-0.2,6,1.3c-1.5-1.8-1.7-4.3-0.5-5.8c1.3-1.7,4.2-2,5.6-0.8c1.5,1.2,1.7,4.3-0.3,6.8c1.4-1,4.3-1.6,6.1-1.2
	c1.9,0.4,2.6,2,1.7,2.9c-0.9,0.9-3.9,1.5-6.7,0.8c1.7,0.8,3.2,2.8,3.6,4.5c0.4,1.9-0.5,3.3-1.8,2.9c-1.1-0.3-2.8-2.3-3.7-4.7
	c0.1,2-1,3.9-2.5,4.8c-1.8,1-4,0.3-4.4-1.2c-0.4-1.4,0.6-3.8,2.8-5.4c-1.8,0.5-4.2,0.1-5.5-1C1384.2,624.6,1384.1,622.6,1385.3,622z
	 M1345.6,633.7c1,0.2,2.4,1.6,3,3.6c-0.1-1.8,1-3.4,2.4-3.7c1.6-0.4,3.4,0.8,3.7,2.2c0.3,1.4-1,3.4-3.4,3.9c1.3,0.1,3.3,1.1,4.2,2.2
	c0.9,1.1,0.6,2.5-0.4,2.6c-1,0.1-3-1-4.4-2.7c0.6,1.3,0.6,3.2,0,4.4c-0.6,1.3-1.8,1.7-2.4,0.9c-0.5-0.7-0.6-2.7,0-4.6
	c-0.9,1.2-2.4,1.9-3.7,1.7c-1.5-0.2-2.5-1.7-2.1-2.8c0.4-1.1,2.2-2,4.2-1.9c-1.3-0.5-2.5-1.9-2.8-3.2
	C1343.7,634.7,1344.5,633.5,1345.6,633.7z M1415.9,617.9c-0.1,0.8,0.4,1.5,1.2,1.6c0.8,0.1,1.5-0.4,1.6-1.2s-0.4-1.5-1.2-1.6
	C1416.8,616.6,1416,617.1,1415.9,617.9z M1401.2,593.4c-0.1,0.8,0.4,1.5,1.2,1.6c0.8,0.1,1.5-0.4,1.6-1.2c0.1-0.8-0.4-1.5-1.2-1.6
	C1402,592.1,1401.3,592.6,1401.2,593.4z M1389.9,609.1c0.4,0.7,1.3,0.9,2,0.5c0.7-0.4,0.9-1.3,0.5-2c-0.4-0.7-1.3-0.9-2-0.5
	C1389.7,607.5,1389.5,608.4,1389.9,609.1z M1353.4,619.6c0.4,0.7,1.3,0.9,2,0.5c0.7-0.4,0.9-1.3,0.5-2c-0.4-0.7-1.3-0.9-2-0.5
	C1353.3,618.1,1353.1,618.9,1353.4,619.6z M1384.1,630.4c0.2,0.3,0.6,0.5,1,0.3c0.3-0.2,0.5-0.6,0.3-1c-0.2-0.3-0.6-0.5-1-0.3
	C1384.1,629.6,1383.9,630,1384.1,630.4z M1402.5,617.4c0.2,0.3,0.6,0.5,1,0.3c0.3-0.2,0.5-0.6,0.3-1c-0.2-0.3-0.6-0.5-1-0.3
	C1402.4,616.6,1402.3,617.1,1402.5,617.4z M1426.7,591.7c0.2,0.3,0.6,0.5,1,0.3c0.3-0.2,0.5-0.6,0.3-1c-0.2-0.3-0.6-0.5-1-0.3
	C1426.6,591,1426.5,591.4,1426.7,591.7z M1441.1,579.2 M1437.2,627.9c0.2,0.3,0.6,0.5,1,0.3c0.3-0.2,0.5-0.6,0.3-1
	c-0.2-0.3-0.6-0.5-1-0.3C1437.1,627.1,1437,627.6,1437.2,627.9z M1414.2,634.2c0.2,0.3,0.6,0.5,1,0.3c0.3-0.2,0.5-0.6,0.3-1
	c-0.2-0.3-0.6-0.5-1-0.3C1414.1,633.4,1414,633.8,1414.2,634.2z M1376.6,635.4c0.2,0.3,0.6,0.5,1,0.3c0.3-0.2,0.5-0.6,0.3-1
	c-0.2-0.3-0.6-0.5-1-0.3C1376.5,634.6,1376.4,635,1376.6,635.4z M1366.4,636.7c0.2,0.3,0.6,0.5,1,0.3s0.5-0.6,0.3-1
	c-0.2-0.3-0.6-0.5-1-0.3C1366.3,635.9,1366.2,636.3,1366.4,636.7z M1365.2,624.5c0.1,0.2,0.3,0.2,0.5,0.1c0.2-0.1,0.2-0.3,0.1-0.5
	c-0.1-0.2-0.3-0.2-0.5-0.1C1365.1,624.1,1365.1,624.3,1365.2,624.5z M1378.5,616.9c0.1,0.2,0.3,0.2,0.5,0.1c0.2-0.1,0.2-0.3,0.1-0.5
	c-0.1-0.2-0.3-0.2-0.5-0.1C1378.4,616.5,1378.4,616.8,1378.5,616.9z M1385.4,609c0.1,0.2,0.3,0.2,0.5,0.1c0.2-0.1,0.2-0.3,0.1-0.5
	c-0.1-0.2-0.3-0.2-0.5-0.1C1385.4,608.6,1385.3,608.8,1385.4,609z M1395.1,601.7c0.1,0.2,0.3,0.2,0.5,0.1c0.2-0.1,0.2-0.3,0.1-0.5
	c-0.1-0.2-0.3-0.2-0.5-0.1C1395.1,601.3,1395,601.5,1395.1,601.7z M1403.1,603.8c0.1,0.2,0.3,0.2,0.5,0.1c0.2-0.1,0.2-0.3,0.1-0.5
	c-0.1-0.2-0.3-0.2-0.5-0.1C1403,603.4,1403,603.6,1403.1,603.8z M1413.3,592.3c0.1,0.2,0.3,0.2,0.5,0.1s0.2-0.3,0.1-0.5
	c-0.1-0.2-0.3-0.2-0.5-0.1C1413.2,591.9,1413.2,592.1,1413.3,592.3z M1420.3,586c0.1,0.2,0.3,0.2,0.5,0.1c0.2-0.1,0.2-0.3,0.1-0.5
	c-0.1-0.2-0.3-0.2-0.5-0.1C1420.2,585.6,1420.2,585.8,1420.3,586z M1406.4,598.6c0.3-0.1,0.8-0.1,1.4,0.2c-0.4-0.4,0-1,0.3-1.3
	c0.3-0.3,0.1-0.4,0.5-0.2c0.4,0.3,0.9,1.1,0.5,1.6c0.3-0.2,1.1-0.3,1.5,0c0.3,0.3,0.3,0.1,0.2,0.3c-0.3,0.4-0.7,0.3-1.4,0.2
	c0.4,0.2,0.8,0.6,0.7,1.1c-0.1,0.4,0.1,0.3-0.2,0.2c-0.3-0.1-0.6-0.3-0.9-0.8c0,0.4-0.2,0.7-1,0.9c-0.5,0.1-0.2,0-0.4-0.3
	c-0.3-0.4-0.2-0.8,0.4-1.1c-0.5,0.1-1.1-0.1-1.4-0.6C1406.2,598.6,1406.1,598.8,1406.4,598.6z M1431.8,581c0.3-0.1,0.7-0.2,1.2,0.2
	c-0.3-0.4,0-1.1,0.2-1.4c0.3-0.4,0.1-0.5,0.4-0.2c0.3,0.3,0.8,1.1,0.4,1.7c0.3-0.2,1-0.4,1.3,0c0.3,0.3,0.3,0.1,0.1,0.4
	c-0.3,0.4-0.6,0.4-1.2,0.2c0.4,0.2,0.7,0.6,0.5,1.2c-0.1,0.4,0.1,0.3-0.2,0.2c-0.2-0.1-0.6-0.3-0.8-0.8c0,0.4-0.2,0.8-1,1
	c-0.4,0.2-0.2,0-0.3-0.3c-0.2-0.4-0.1-0.8,0.4-1.2c-0.4,0.1-1-0.1-1.2-0.6C1431.7,580.9,1431.6,581.1,1431.8,581z M1408.8,613.4
	c0.3-0.1,0.7-0.2,1.2,0.2c-0.3-0.4,0-1.1,0.3-1.4c0.3-0.4,0.1-0.5,0.4-0.2c0.3,0.3,0.8,1.1,0.4,1.7c0.3-0.2,1-0.4,1.3,0
	c0.3,0.3,0.3,0.1,0.1,0.4c-0.3,0.4-0.6,0.4-1.2,0.2c0.4,0.2,0.7,0.6,0.5,1.2c-0.1,0.4,0.1,0.3-0.2,0.2c-0.2-0.1-0.6-0.3-0.8-0.8
	c0,0.4-0.2,0.8-0.9,1c-0.4,0.2-0.2,0-0.3-0.3c-0.2-0.4-0.1-0.8,0.4-1.2c-0.4,0.1-1-0.1-1.2-0.6
	C1408.6,613.3,1408.5,613.5,1408.8,613.4z M1382.1,614.2c0.3-0.1,0.7-0.2,1.2,0.2c-0.3-0.4,0-1.1,0.3-1.4c0.3-0.4,0.1-0.5,0.4-0.2
	c0.3,0.3,0.8,1.1,0.4,1.7c0.3-0.2,1-0.4,1.3,0c0.3,0.3,0.3,0.1,0.1,0.4c-0.3,0.4-0.6,0.4-1.2,0.2c0.4,0.2,0.7,0.6,0.5,1.2
	c-0.1,0.4,0.1,0.3-0.2,0.2c-0.2-0.1-0.6-0.3-0.8-0.8c0,0.4-0.2,0.8-1,1c-0.4,0.2-0.2,0-0.3-0.3c-0.2-0.4-0.1-0.8,0.4-1.2
	c-0.4,0.1-1-0.1-1.2-0.6C1381.9,614.1,1381.8,614.3,1382.1,614.2z M1373.2,627.7c0.3-0.1,0.7-0.2,1.2,0.2c-0.3-0.4,0-1.1,0.2-1.4
	c0.3-0.4,0.1-0.5,0.4-0.2c0.3,0.3,0.8,1.1,0.4,1.7c0.3-0.2,1-0.4,1.3,0c0.3,0.3,0.3,0.1,0.1,0.4c-0.3,0.4-0.6,0.4-1.2,0.2
	c0.4,0.2,0.7,0.6,0.5,1.2c-0.1,0.4,0.1,0.3-0.2,0.2c-0.2-0.1-0.6-0.3-0.8-0.8c0,0.4-0.2,0.8-0.9,1c-0.4,0.2-0.2,0-0.3-0.3
	c-0.2-0.4-0.1-0.8,0.4-1.2c-0.4,0.1-1-0.1-1.2-0.6C1373,627.7,1372.9,627.9,1373.2,627.7z M1356.4,629.9c0.3-0.1,0.7-0.2,1.2,0.2
	c-0.3-0.4,0-1.1,0.3-1.4c0.3-0.4,0.1-0.5,0.4-0.2c0.3,0.3,0.8,1.1,0.4,1.7c0.3-0.2,1-0.4,1.3,0c0.3,0.3,0.3,0.1,0.1,0.4
	c-0.3,0.4-0.6,0.4-1.2,0.2c0.4,0.2,0.7,0.6,0.5,1.2c-0.1,0.4,0.1,0.3-0.2,0.2c-0.2-0.1-0.6-0.3-0.8-0.8c0,0.4-0.2,0.8-0.9,1
	c-0.4,0.2-0.2,0-0.3-0.3c-0.2-0.4-0.1-0.8,0.4-1.2c-0.4,0.1-1-0.1-1.2-0.6C1356.2,629.9,1356.1,630.1,1356.4,629.9z M1356.2,621.6
	c0.3-0.1,0.7-0.2,1.2,0.2c-0.3-0.4,0-1.1,0.3-1.4c0.3-0.4,0.1-0.5,0.4-0.2c0.3,0.3,0.8,1.1,0.4,1.7c0.3-0.2,1-0.4,1.3,0
	c0.3,0.3,0.3,0.1,0.1,0.4c-0.3,0.4-0.6,0.4-1.2,0.2c0.4,0.2,0.7,0.6,0.5,1.2c-0.1,0.4,0.1,0.3-0.2,0.2c-0.2-0.1-0.6-0.3-0.8-0.8
	c0,0.4-0.2,0.8-0.9,1c-0.4,0.2-0.2,0-0.3-0.3c-0.2-0.4-0.1-0.8,0.4-1.2c-0.4,0.1-1-0.1-1.2-0.6
	C1356.1,621.6,1356,621.8,1356.2,621.6z M1406.4,626.2c0.3-0.1,0.7-0.2,1.2,0.2c-0.3-0.4,0-1.1,0.3-1.4c0.3-0.4,0.1-0.5,0.4-0.2
	c0.3,0.3,0.8,1.1,0.4,1.7c0.3-0.2,1-0.4,1.3,0c0.3,0.3,0.3,0.1,0.1,0.4c-0.3,0.4-0.6,0.4-1.2,0.2c0.4,0.2,0.7,0.6,0.5,1.2
	c-0.1,0.4,0.1,0.3-0.2,0.2c-0.2-0.1-0.6-0.3-0.8-0.8c0,0.4-0.2,0.8-0.9,1c-0.4,0.2-0.2,0-0.3-0.3c-0.2-0.4-0.1-0.8,0.4-1.2
	c-0.4,0.1-1-0.1-1.2-0.6C1406.2,626.2,1406.1,626.4,1406.4,626.2z M1424.8,608.2c0.3-0.1,0.7-0.2,1.2,0.2c-0.3-0.4,0-1.1,0.3-1.4
	c0.3-0.4,0.1-0.5,0.4-0.2c0.3,0.3,0.8,1.1,0.4,1.7c0.3-0.2,1-0.4,1.3,0c0.3,0.3,0.3,0.1,0.1,0.4c-0.3,0.4-0.6,0.4-1.2,0.2
	c0.4,0.2,0.7,0.6,0.5,1.2c-0.1,0.4,0.1,0.3-0.2,0.2c-0.2-0.1-0.6-0.3-0.8-0.8c0,0.4-0.2,0.8-0.9,1c-0.4,0.2-0.2,0-0.3-0.3
	c-0.2-0.4-0.1-0.8,0.4-1.2c-0.4,0.1-1-0.1-1.2-0.6C1424.7,608.1,1424.6,608.3,1424.8,608.2z M1428.7,603.6c0.3-0.1,0.7-0.2,1.2,0.2
	c-0.3-0.4,0-1.1,0.3-1.4c0.3-0.4,0.1-0.5,0.4-0.2c0.3,0.3,0.8,1.1,0.4,1.7c0.3-0.2,1-0.4,1.3,0c0.3,0.3,0.3,0.1,0.1,0.4
	c-0.3,0.4-0.6,0.4-1.2,0.2c0.4,0.2,0.7,0.6,0.5,1.2c-0.1,0.4,0.1,0.3-0.2,0.2c-0.2-0.1-0.6-0.3-0.8-0.8c0,0.4-0.2,0.8-0.9,1
	c-0.4,0.2-0.2,0-0.3-0.3c-0.2-0.4-0.1-0.8,0.4-1.2c-0.4,0.1-1-0.1-1.2-0.6C1428.5,603.6,1428.4,603.8,1428.7,603.6z M1428,596.6
	c0.3-0.1,0.7-0.2,1.2,0.2c-0.3-0.4,0-1.1,0.3-1.4c0.3-0.4,0.1-0.5,0.4-0.2c0.3,0.3,0.8,1.1,0.4,1.7c0.3-0.2,1-0.4,1.3,0
	c0.3,0.3,0.3,0.1,0.1,0.4c-0.3,0.4-0.6,0.4-1.2,0.2c0.4,0.2,0.7,0.6,0.5,1.2c-0.1,0.4,0.1,0.3-0.2,0.2c-0.2-0.1-0.6-0.3-0.8-0.8
	c0,0.4-0.2,0.8-0.9,1c-0.4,0.2-0.2,0-0.3-0.3c-0.2-0.4-0.1-0.8,0.4-1.2c-0.4,0.1-1-0.1-1.2-0.6
	C1427.9,596.5,1427.7,596.7,1428,596.6z"/>
<path class="st3" d="M1395.8,707.7c0.8,0.7,1.1,2.6,0.6,4.6c0.9-1.6,2.6-2.3,4-1.9c1.5,0.5,2.5,2.5,2,3.8c-0.5,1.4-2.6,2.3-5,1.6
	c1.1,0.8,2.2,2.7,2.4,4.1c0.2,1.5-0.8,2.4-1.7,2s-2.1-2.4-2.3-4.6c-0.2,1.4-1.2,3-2.3,3.7c-1.2,0.8-2.5,0.5-2.5-0.5
	c0-0.9,0.9-2.6,2.4-3.9c-1.4,0.6-3.1,0.3-4.1-0.5c-1.2-1-1.2-2.8-0.3-3.5c0.9-0.7,2.9-0.6,4.6,0.6c-0.9-1.2-1.1-3-0.7-4.2
	C1393.6,707.5,1395,706.9,1395.8,707.7z M1372.3,703c0.6-0.3,1.8-0.1,2.8,0.6c-0.7-0.8-0.8-2-0.2-2.7c0.6-0.8,1.9-0.9,2.6-0.4
	c0.7,0.6,0.8,2-0.1,3.2c0.7-0.5,2-0.7,2.8-0.6c0.9,0.2,1.2,0.9,0.8,1.4c-0.4,0.4-1.8,0.7-3.2,0.4c0.8,0.4,1.5,1.3,1.7,2.1
	c0.2,0.9-0.2,1.5-0.8,1.4c-0.5-0.2-1.3-1.1-1.7-2.2c0,0.9-0.5,1.8-1.2,2.2c-0.8,0.5-1.9,0.1-2.1-0.6c-0.2-0.7,0.3-1.8,1.3-2.5
	c-0.9,0.3-1.9,0-2.6-0.5C1371.8,704.2,1371.8,703.3,1372.3,703z M1368.6,690.1c-0.4-0.6-0.3-2.1,0.5-3.4c-0.9,0.9-2.3,1.1-3.2,0.5
	c-1-0.7-1.3-2.3-0.7-3.1c0.6-0.9,2.3-1.1,3.8-0.1c-0.6-0.8-1.1-2.4-0.9-3.4c0.2-1.1,1-1.6,1.6-1.1c0.5,0.5,1,2.1,0.7,3.7
	c0.4-1,1.4-1.9,2.4-2.2c1-0.3,1.8,0.2,1.7,0.9c-0.1,0.7-1.1,1.7-2.5,2.3c1.1-0.1,2.2,0.4,2.8,1.2c0.6,0.9,0.3,2.2-0.5,2.5
	c-0.8,0.3-2.2-0.2-3.1-1.4c0.4,1,0.2,2.3-0.4,3.1C1370.1,690.6,1369,690.8,1368.6,690.1z M1337.2,708.6c-0.1-1,0.9-2.7,2.6-3.9
	c-1.7,0.6-3.5,0-4.2-1.3c-0.8-1.4-0.2-3.5,1-4.2c1.3-0.7,3.5,0,4.7,2.1c-0.3-1.3,0.1-3.5,0.9-4.7c0.8-1.2,2.2-1.3,2.6-0.4
	c0.4,0.9-0.1,3.2-1.3,5c1-0.9,2.9-1.5,4.2-1.3c1.4,0.2,2.2,1.3,1.6,2.1c-0.6,0.7-2.4,1.4-4.4,1.3c1.4,0.5,2.5,1.8,2.7,3.1
	c0.2,1.5-0.9,2.9-2.1,2.8c-1.1-0.1-2.5-1.5-3-3.5c-0.1,1.5-1.1,3-2.3,3.6C1338.7,710.1,1337.3,709.6,1337.2,708.6z M1325.2,715.3
	c0.5-0.3,1.7-0.1,2.6,0.6c-0.7-0.8-0.7-1.9-0.2-2.6c0.6-0.7,1.8-0.9,2.5-0.3c0.7,0.5,0.8,1.9-0.1,3c0.6-0.4,1.9-0.7,2.7-0.5
	c0.8,0.2,1.2,0.9,0.8,1.3c-0.4,0.4-1.7,0.6-3,0.4c0.7,0.4,1.4,1.2,1.6,2c0.2,0.8-0.2,1.4-0.8,1.3c-0.5-0.2-1.2-1-1.6-2.1
	c0,0.9-0.4,1.7-1.1,2.1c-0.8,0.4-1.8,0.1-2-0.5c-0.2-0.6,0.3-1.7,1.2-2.4c-0.8,0.2-1.8,0-2.4-0.5
	C1324.6,716.5,1324.6,715.6,1325.2,715.3z M1341.8,726c1.2-0.6,3.8-0.2,6,1.3c-1.5-1.8-1.7-4.3-0.5-5.8c1.3-1.7,4.2-2,5.6-0.8
	c1.4,1.2,1.7,4.3-0.3,6.8c1.4-1,4.3-1.6,6.1-1.2c1.9,0.4,2.6,2,1.7,3c-0.9,0.9-3.9,1.5-6.7,0.8c1.7,0.8,3.2,2.8,3.6,4.5
	c0.4,1.9-0.5,3.3-1.8,2.9c-1.1-0.3-2.8-2.3-3.7-4.7c0.1,2-1,4-2.5,4.8c-1.8,1-4,0.3-4.5-1.2c-0.4-1.4,0.6-3.8,2.8-5.4
	c-1.8,0.5-4.2,0.1-5.5-1C1340.7,728.6,1340.6,726.7,1341.8,726z M1302.1,737.7c1,0.2,2.4,1.6,3,3.6c-0.1-1.8,1-3.4,2.4-3.7
	c1.6-0.4,3.4,0.8,3.7,2.2c0.3,1.4-1,3.3-3.4,3.9c1.3,0.1,3.3,1.1,4.2,2.2c0.9,1.1,0.6,2.5-0.4,2.6c-1,0.1-3-1-4.4-2.7
	c0.6,1.3,0.6,3.2,0,4.4c-0.6,1.3-1.8,1.7-2.4,0.9c-0.5-0.7-0.6-2.7,0-4.6c-0.9,1.2-2.5,1.9-3.7,1.7c-1.5-0.2-2.5-1.7-2.1-2.8
	c0.4-1.1,2.2-2,4.2-1.9c-1.4-0.5-2.5-1.9-2.8-3.2C1300.1,738.7,1301,737.5,1302.1,737.7z M1415.8,702c0.9-0.5,2.9-0.2,4.6,1
	c-1.2-1.4-1.3-3.3-0.4-4.4c1-1.3,3.2-1.5,4.2-0.6c1.1,0.9,1.3,3.3-0.2,5.2c1.1-0.8,3.3-1.2,4.6-0.9c1.4,0.3,2,1.5,1.3,2.2
	s-3,1.1-5.1,0.6c1.3,0.6,2.4,2.1,2.7,3.4c0.3,1.4-0.4,2.5-1.3,2.2c-0.9-0.3-2.2-1.7-2.8-3.6c0.1,1.5-0.8,3-1.9,3.6
	c-1.3,0.8-3,0.2-3.4-0.9c-0.3-1.1,0.5-2.9,2.1-4.1c-1.4,0.4-3.2,0-4.2-0.8C1414.9,704,1414.9,702.5,1415.8,702z M1398.5,672.8
	c1.2-0.6,3.7-0.2,5.8,1.3c-1.5-1.7-1.6-4.2-0.5-5.6c1.3-1.6,4.1-1.9,5.4-0.8c1.4,1.2,1.6,4.2-0.3,6.6c1.4-1,4.2-1.5,5.9-1.2
	c1.8,0.4,2.6,2,1.7,2.9c-0.9,0.9-3.8,1.4-6.6,0.8c1.6,0.8,3.1,2.7,3.5,4.4c0.4,1.8-0.5,3.2-1.7,2.8c-1.1-0.3-2.8-2.2-3.6-4.6
	c0.1,1.9-1,3.8-2.4,4.7c-1.7,1-3.9,0.3-4.3-1.2c-0.4-1.4,0.6-3.7,2.7-5.3c-1.8,0.5-4.1,0.1-5.4-1
	C1397.3,675.4,1397.2,673.5,1398.5,672.8z M1395.3,694.4c-0.1,0.8,0.4,1.5,1.2,1.6c0.8,0.1,1.5-0.4,1.6-1.2s-0.4-1.5-1.2-1.6
	C1396.1,693,1395.4,693.6,1395.3,694.4z M1372.4,722c-0.1,0.8,0.4,1.5,1.2,1.6c0.8,0.1,1.5-0.4,1.6-1.2s-0.4-1.5-1.2-1.6
	C1373.2,720.6,1372.5,721.2,1372.4,722z M1357.7,697.5c-0.1,0.8,0.4,1.5,1.2,1.6c0.8,0.1,1.5-0.4,1.6-1.2s-0.4-1.5-1.2-1.6
	C1358.5,696.1,1357.8,696.7,1357.7,697.5z M1346.4,713.2c0.4,0.7,1.3,0.9,2,0.5c0.7-0.4,0.9-1.3,0.5-2c-0.4-0.7-1.3-0.9-2-0.5
	C1346.2,711.6,1346,712.5,1346.4,713.2z M1309.9,723.7c0.4,0.7,1.3,0.9,2,0.5c0.7-0.4,0.9-1.3,0.5-2c-0.4-0.7-1.3-0.9-2-0.5
	C1309.8,722.1,1309.5,723,1309.9,723.7z M1340.6,734.4c0.2,0.3,0.6,0.5,1,0.3c0.3-0.2,0.5-0.6,0.3-1c-0.2-0.3-0.6-0.5-1-0.3
	C1340.5,733.6,1340.4,734.1,1340.6,734.4z M1358.9,721.4c0.2,0.3,0.6,0.5,1,0.3c0.3-0.2,0.5-0.6,0.3-1c-0.2-0.3-0.6-0.5-1-0.3
	C1358.9,720.6,1358.8,721.1,1358.9,721.4z M1383.2,695.8c0.2,0.3,0.6,0.5,1,0.3c0.3-0.2,0.5-0.6,0.3-1c-0.2-0.3-0.6-0.5-1-0.3
	C1383.1,695,1383,695.4,1383.2,695.8z M1397.6,683.2c0.2,0.3,0.6,0.5,1,0.3c0.3-0.2,0.5-0.6,0.3-1c-0.2-0.3-0.6-0.5-1-0.3
	C1397.5,682.4,1397.4,682.9,1397.6,683.2z M1408.8,702.7c0.2,0.3,0.6,0.5,1,0.3c0.3-0.2,0.5-0.6,0.3-1c-0.2-0.3-0.6-0.5-1-0.3
	C1408.8,701.9,1408.7,702.4,1408.8,702.7z M1399.1,724.1c0.2,0.3,0.6,0.5,1,0.3s0.5-0.6,0.3-1c-0.2-0.3-0.6-0.5-1-0.3
	S1398.9,723.7,1399.1,724.1z M1393.7,731.9c0.2,0.3,0.6,0.5,1,0.3c0.3-0.2,0.5-0.6,0.3-1c-0.2-0.3-0.6-0.5-1-0.3
	C1393.6,731.2,1393.5,731.6,1393.7,731.9z M1370.7,738.2c0.2,0.3,0.6,0.5,1,0.3c0.3-0.2,0.5-0.6,0.3-1c-0.2-0.3-0.6-0.5-1-0.3
	C1370.6,737.4,1370.5,737.9,1370.7,738.2z M1333.1,739.4c0.2,0.3,0.6,0.5,1,0.3c0.3-0.2,0.5-0.6,0.3-1c-0.2-0.3-0.6-0.5-1-0.3
	C1333,738.6,1332.8,739.1,1333.1,739.4z M1322.9,740.7c0.2,0.3,0.6,0.5,1,0.3c0.3-0.2,0.5-0.6,0.3-1c-0.2-0.3-0.6-0.5-1-0.3
	S1322.7,740.4,1322.9,740.7z M1321.7,728.5c0.1,0.2,0.3,0.2,0.5,0.1c0.2-0.1,0.2-0.3,0.1-0.5c-0.1-0.2-0.3-0.2-0.5-0.1
	C1321.6,728.2,1321.6,728.4,1321.7,728.5z M1334.9,721c0.1,0.2,0.3,0.2,0.5,0.1c0.2-0.1,0.2-0.3,0.1-0.5c-0.1-0.2-0.3-0.2-0.5-0.1
	C1334.9,720.6,1334.8,720.8,1334.9,721z M1341.9,713c0.1,0.2,0.3,0.2,0.5,0.1c0.2-0.1,0.2-0.3,0.1-0.5c-0.1-0.2-0.3-0.2-0.5-0.1
	C1341.9,712.6,1341.8,712.8,1341.9,713z M1351.6,705.7c0.1,0.2,0.3,0.2,0.5,0.1c0.2-0.1,0.2-0.3,0.1-0.5c-0.1-0.2-0.3-0.2-0.5-0.1
	C1351.6,705.3,1351.5,705.6,1351.6,705.7z M1359.6,707.9c0.1,0.2,0.3,0.2,0.5,0.1c0.2-0.1,0.2-0.3,0.1-0.5c-0.1-0.2-0.3-0.2-0.5-0.1
	C1359.5,707.5,1359.4,707.7,1359.6,707.9z M1369.7,696.3c0.1,0.2,0.3,0.2,0.5,0.1c0.2-0.1,0.2-0.3,0.1-0.5c-0.1-0.2-0.3-0.2-0.5-0.1
	C1369.7,695.9,1369.6,696.2,1369.7,696.3z M1376.8,690c0.1,0.2,0.3,0.2,0.5,0.1c0.2-0.1,0.2-0.3,0.1-0.5c-0.1-0.2-0.3-0.2-0.5-0.1
	C1376.7,689.7,1376.7,689.9,1376.8,690z M1362.9,702.7c0.3-0.1,0.8-0.1,1.4,0.2c-0.4-0.4,0-1,0.2-1.3c0.3-0.3,0.1-0.4,0.5-0.2
	c0.4,0.3,0.9,1.1,0.5,1.6c0.3-0.2,1.1-0.3,1.5,0c0.3,0.3,0.3,0.1,0.2,0.3c-0.3,0.4-0.7,0.3-1.4,0.2c0.4,0.2,0.8,0.6,0.7,1.1
	c-0.1,0.4,0.1,0.3-0.2,0.2c-0.3-0.1-0.6-0.3-0.9-0.8c0,0.4-0.2,0.7-1.1,0.9c-0.5,0.1-0.2,0-0.4-0.3c-0.3-0.4-0.2-0.8,0.4-1.1
	c-0.5,0.1-1.1-0.1-1.4-0.6C1362.7,702.6,1362.6,702.8,1362.9,702.7z M1404.5,710.5c0.3-0.1,0.7-0.2,1.2,0.2c-0.3-0.4,0-1.1,0.3-1.4
	c0.3-0.4,0.1-0.5,0.4-0.2c0.3,0.3,0.8,1.1,0.4,1.7c0.3-0.2,1-0.4,1.3,0c0.3,0.3,0.3,0.1,0.1,0.4c-0.3,0.4-0.6,0.4-1.2,0.2
	c0.4,0.2,0.7,0.6,0.5,1.2c-0.1,0.4,0.1,0.3-0.2,0.2c-0.2-0.1-0.6-0.3-0.8-0.8c0,0.4-0.2,0.8-0.9,1c-0.4,0.2-0.2,0-0.3-0.3
	c-0.2-0.4-0.1-0.8,0.4-1.2c-0.4,0.1-1-0.1-1.2-0.6C1404.3,710.4,1404.2,710.6,1404.5,710.5z M1388.3,685c0.3-0.1,0.7-0.2,1.2,0.2
	c-0.3-0.4,0-1.1,0.3-1.4c0.3-0.4,0.1-0.5,0.4-0.2c0.3,0.3,0.8,1.1,0.4,1.7c0.3-0.2,1-0.4,1.3,0c0.3,0.3,0.3,0.1,0.1,0.4
	c-0.3,0.4-0.6,0.4-1.2,0.2c0.4,0.2,0.7,0.6,0.5,1.2c-0.1,0.4,0.1,0.3-0.2,0.2c-0.2-0.1-0.6-0.3-0.8-0.8c0,0.4-0.2,0.8-0.9,1
	c-0.4,0.2-0.2,0-0.3-0.3c-0.2-0.4-0.1-0.8,0.4-1.2c-0.4,0.1-1-0.1-1.2-0.6C1388.2,685,1388,685.2,1388.3,685z M1365.2,717.4
	c0.3-0.1,0.7-0.2,1.2,0.2c-0.3-0.4,0-1.1,0.3-1.4c0.3-0.4,0.1-0.5,0.4-0.2c0.3,0.3,0.8,1.1,0.4,1.7c0.3-0.2,1-0.4,1.3,0
	c0.3,0.3,0.3,0.1,0.1,0.4c-0.3,0.4-0.6,0.4-1.2,0.2c0.4,0.2,0.7,0.6,0.5,1.2c-0.1,0.4,0.1,0.3-0.2,0.2c-0.2-0.1-0.6-0.3-0.8-0.8
	c0,0.4-0.2,0.8-0.9,1c-0.4,0.2-0.2,0-0.3-0.3c-0.2-0.4-0.1-0.8,0.4-1.2c-0.4,0.1-1-0.1-1.2-0.6
	C1365.1,717.4,1365,717.6,1365.2,717.4z M1338.6,718.2c0.3-0.1,0.7-0.2,1.2,0.2c-0.3-0.4,0-1.1,0.2-1.4c0.3-0.4,0.1-0.5,0.4-0.2
	c0.3,0.3,0.8,1.1,0.4,1.7c0.3-0.2,1-0.4,1.3,0c0.3,0.3,0.3,0.1,0.1,0.4c-0.3,0.4-0.6,0.4-1.2,0.2c0.4,0.2,0.7,0.6,0.5,1.2
	c-0.1,0.4,0.1,0.3-0.2,0.2c-0.2-0.1-0.6-0.3-0.8-0.8c0,0.4-0.2,0.8-1,1c-0.4,0.2-0.2,0-0.3-0.3c-0.2-0.4-0.1-0.8,0.4-1.2
	c-0.4,0.1-1-0.1-1.2-0.6C1338.4,718.1,1338.3,718.3,1338.6,718.2z M1329.7,731.7c0.3-0.1,0.7-0.2,1.2,0.2c-0.3-0.4,0-1.1,0.3-1.4
	c0.3-0.4,0.1-0.5,0.4-0.2c0.3,0.3,0.8,1.1,0.4,1.7c0.3-0.2,1-0.4,1.3,0c0.3,0.3,0.3,0.1,0.1,0.4c-0.3,0.4-0.6,0.4-1.2,0.2
	c0.4,0.2,0.7,0.6,0.5,1.2c-0.1,0.4,0.1,0.3-0.2,0.2c-0.2-0.1-0.6-0.3-0.8-0.8c0,0.4-0.2,0.8-0.9,1c-0.4,0.2-0.2,0-0.3-0.3
	c-0.2-0.4-0.1-0.8,0.4-1.2c-0.4,0.1-1-0.1-1.2-0.6C1329.5,731.7,1329.4,731.9,1329.7,731.7z M1312.9,734c0.3-0.1,0.7-0.2,1.2,0.2
	c-0.3-0.4,0-1.1,0.3-1.4c0.3-0.4,0.1-0.5,0.4-0.2c0.3,0.3,0.8,1.1,0.4,1.7c0.3-0.2,1-0.4,1.3,0c0.3,0.3,0.3,0.1,0.1,0.4
	c-0.3,0.4-0.6,0.4-1.2,0.2c0.4,0.2,0.7,0.6,0.5,1.2c-0.1,0.4,0.1,0.3-0.2,0.2c-0.2-0.1-0.6-0.3-0.8-0.8c0,0.4-0.2,0.8-0.9,1
	c-0.4,0.2-0.2,0-0.3-0.3c-0.2-0.4-0.1-0.8,0.4-1.2c-0.4,0.1-1-0.1-1.2-0.6C1312.7,733.9,1312.6,734.1,1312.9,734z M1312.7,725.7
	c0.3-0.1,0.7-0.2,1.2,0.2c-0.3-0.4,0-1.1,0.3-1.4c0.3-0.4,0.1-0.5,0.4-0.2c0.3,0.3,0.8,1.1,0.4,1.7c0.3-0.2,1-0.4,1.3,0
	c0.3,0.3,0.3,0.1,0.1,0.4c-0.3,0.4-0.6,0.4-1.2,0.2c0.4,0.2,0.7,0.6,0.5,1.2c-0.1,0.4,0.1,0.3-0.2,0.2c-0.2-0.1-0.6-0.3-0.8-0.8
	c0,0.4-0.2,0.8-0.9,1c-0.4,0.2-0.2,0-0.3-0.3c-0.2-0.4-0.1-0.8,0.4-1.2c-0.4,0.1-1-0.1-1.2-0.6
	C1312.6,725.6,1312.4,725.8,1312.7,725.7z M1362.9,730.3c0.3-0.1,0.7-0.2,1.2,0.2c-0.3-0.4,0-1.1,0.3-1.4c0.3-0.4,0.1-0.5,0.4-0.2
	c0.3,0.3,0.8,1.1,0.4,1.7c0.3-0.2,1-0.4,1.3,0c0.3,0.3,0.3,0.1,0.1,0.4c-0.3,0.4-0.6,0.4-1.2,0.2c0.4,0.2,0.7,0.6,0.5,1.2
	c-0.1,0.4,0.1,0.3-0.2,0.2c-0.2-0.1-0.6-0.3-0.8-0.8c0,0.4-0.2,0.8-0.9,1c-0.4,0.2-0.2,0-0.3-0.3c-0.2-0.4-0.1-0.8,0.4-1.2
	c-0.4,0.1-1-0.1-1.2-0.6C1362.7,730.2,1362.6,730.4,1362.9,730.3z M1381.3,712.2c0.3-0.1,0.7-0.2,1.2,0.2c-0.3-0.4,0-1.1,0.3-1.4
	c0.3-0.4,0.1-0.5,0.4-0.2c0.3,0.3,0.8,1.1,0.4,1.7c0.3-0.2,1-0.4,1.3,0c0.3,0.3,0.3,0.1,0.1,0.4c-0.3,0.4-0.6,0.4-1.2,0.2
	c0.4,0.2,0.7,0.6,0.5,1.2c-0.1,0.4,0.1,0.3-0.2,0.2c-0.2-0.1-0.6-0.3-0.8-0.8c0,0.4-0.2,0.8-0.9,1c-0.4,0.2-0.2,0-0.3-0.3
	c-0.2-0.4-0.1-0.8,0.4-1.2c-0.4,0.1-1-0.1-1.2-0.6C1381.2,712.2,1381.1,712.4,1381.3,712.2z M1385.1,707.7c0.3-0.1,0.7-0.2,1.2,0.2
	c-0.3-0.4,0-1.1,0.3-1.4c0.3-0.4,0.1-0.5,0.4-0.2c0.3,0.3,0.8,1.1,0.4,1.7c0.3-0.2,1-0.4,1.3,0c0.3,0.3,0.3,0.1,0.1,0.4
	c-0.3,0.4-0.6,0.4-1.2,0.2c0.4,0.2,0.7,0.6,0.5,1.2c-0.1,0.4,0.1,0.3-0.2,0.2c-0.2-0.1-0.6-0.3-0.8-0.8c0,0.4-0.2,0.8-0.9,1
	c-0.4,0.2-0.2,0-0.3-0.3c-0.2-0.4-0.1-0.8,0.4-1.2c-0.4,0.1-1-0.1-1.2-0.6C1385,707.6,1384.9,707.8,1385.1,707.7z M1384.5,700.6
	c0.3-0.1,0.7-0.2,1.2,0.2c-0.3-0.4,0-1.1,0.2-1.4c0.3-0.4,0.1-0.5,0.4-0.2c0.3,0.3,0.8,1.1,0.4,1.7c0.3-0.2,1-0.4,1.3,0
	c0.3,0.3,0.3,0.1,0.1,0.4c-0.3,0.4-0.6,0.4-1.2,0.2c0.4,0.2,0.7,0.6,0.5,1.2c-0.1,0.4,0.1,0.3-0.2,0.2c-0.2-0.1-0.6-0.3-0.8-0.8
	c0,0.4-0.2,0.8-0.9,1c-0.4,0.2-0.2,0-0.3-0.3c-0.2-0.4-0.1-0.8,0.4-1.2c-0.4,0.1-1-0.1-1.2-0.6
	C1384.3,700.6,1384.2,700.8,1384.5,700.6z"/>
<path class="st3" d="M1438.8,689.6c-0.3,0.2-0.8,0.1-1-0.3c-0.2-0.3-0.1-0.8,0.3-1c0.3-0.2,0.8-0.1,1,0.3
	C1439.3,688.9,1439.2,689.4,1438.8,689.6z"/>
<path class="st3" d="M1433.7,642.6c-0.5-0.3-1-0.3-1.2-0.2c-0.3,0.1-0.2-0.1,0,0.3c0.2,0.5,0.8,0.7,1.2,0.6
	c-0.5,0.3-0.6,0.7-0.4,1.2c0.2,0.3-0.1,0.4,0.3,0.3c0.7-0.3,1-0.6,0.9-1c0.2,0.5,0.5,0.7,0.8,0.8c0.3,0.1,0.1,0.2,0.2-0.2
	c0.2-0.5-0.2-1-0.5-1.2c0.6,0.1,0.9,0.2,1.2-0.2c0.2-0.2,0.2-0.1-0.1-0.4c-0.4-0.4-1-0.2-1.3,0c0.4-0.6-0.1-1.4-0.4-1.7
	c-0.3-0.3-0.1-0.1-0.4,0.2C1433.7,641.5,1433.4,642.2,1433.7,642.6z"/>
<path class="st3" d="M1430.6,665.2c-0.5-0.3-1-0.3-1.2-0.2c-0.3,0.1-0.2-0.1,0,0.3c0.2,0.5,0.8,0.7,1.2,0.6
	c-0.5,0.4-0.6,0.7-0.4,1.2c0.2,0.3-0.1,0.4,0.3,0.3c0.7-0.3,1-0.6,0.9-1c0.2,0.5,0.5,0.7,0.8,0.8c0.3,0.1,0.1,0.2,0.2-0.2
	c0.2-0.5-0.2-1-0.5-1.2c0.6,0.1,0.9,0.2,1.2-0.2c0.2-0.2,0.2-0.1-0.1-0.4c-0.4-0.4-1-0.2-1.3,0c0.4-0.6-0.1-1.4-0.4-1.7
	c-0.3-0.3-0.1-0.1-0.4,0.2C1430.6,664.1,1430.2,664.8,1430.6,665.2z"/>
<path class="st4" d="M1426.6,721.2c-0.7-0.7-2.6-0.9-4.5-0.3c1.4-1,2-2.7,1.5-4c-0.6-1.4-2.5-2.2-3.8-1.7c-1.3,0.6-2,2.7-1.1,4.9
	c-0.8-1-2.7-2-4.1-2.1c-1.4-0.1-2.2,0.9-1.8,1.7c0.5,0.8,2.5,1.8,4.6,1.9c-1.3,0.2-2.8,1.3-3.4,2.4c-0.7,1.2-0.3,2.4,0.6,2.4
	c0.9,0,2.5-1,3.6-2.5c-0.4,1.4-0.1,3,0.8,3.9c1,1.1,2.8,1,3.4,0c0.6-0.9,0.3-2.8-0.9-4.4c1.2,0.7,2.9,0.9,4.1,0.4
	C1426.9,723.3,1427.4,721.9,1426.6,721.2z M1432.9,723.7c-0.3,0.3-0.7,0.3-1,0c-0.3-0.3-0.3-0.7,0-1c0.3-0.3,0.7-0.3,1,0
	C1433.2,723,1433.2,723.4,1432.9,723.7z M1436.3,746c-0.3,0.3-0.7,0.3-1,0s-0.3-0.7,0-1c0.3-0.3,0.7-0.3,1,0
	C1436.6,745.3,1436.6,745.7,1436.3,746z M1434.9,732c-0.2-0.2-0.6-0.3-1.2-0.2c0.4-0.3,0.3-1,0.1-1.4c-0.2-0.4,0-0.5-0.3-0.3
	c-0.4,0.2-1,0.8-0.8,1.5c-0.2-0.3-0.8-0.6-1.2-0.4c-0.4,0.2-0.3,0-0.2,0.3c0.2,0.5,0.5,0.5,1.1,0.5c-0.4,0.1-0.8,0.4-0.8,0.9
	c0,0.4-0.1,0.3,0.1,0.3c0.2,0,0.6-0.1,0.9-0.5c-0.1,0.4,0,0.8,0.6,1.2c0.3,0.3,0.2,0.1,0.4-0.2c0.3-0.3,0.3-0.7,0-1.2
	c0.3,0.2,0.9,0.2,1.2-0.3C1435.1,732,1435.1,732.2,1434.9,732z"/>
<path class="st5" d="M1318.2,682c0.8,0.7,1.1,2.6,0.6,4.6c0.9-1.6,2.6-2.3,4-1.9c1.5,0.5,2.5,2.5,2,3.8c-0.5,1.4-2.6,2.3-4.9,1.6
	c1.1,0.8,2.2,2.7,2.4,4.1c0.2,1.5-0.8,2.4-1.7,2c-0.9-0.4-2.1-2.4-2.3-4.6c-0.2,1.4-1.2,3-2.3,3.7c-1.2,0.8-2.5,0.5-2.5-0.5
	c-0.1-0.9,0.9-2.6,2.4-3.9c-1.4,0.6-3.1,0.3-4.1-0.5c-1.2-1-1.2-2.8-0.3-3.5c0.9-0.7,2.9-0.6,4.6,0.6c-0.9-1.2-1.1-3-0.7-4.2
	C1316,681.8,1317.4,681.2,1318.2,682z M1294.8,677.3c0.5-0.3,1.8-0.1,2.8,0.6c-0.7-0.8-0.8-2-0.2-2.7c0.6-0.8,2-0.9,2.6-0.4
	c0.7,0.6,0.8,2-0.1,3.2c0.7-0.5,2-0.7,2.9-0.6c0.9,0.2,1.2,0.9,0.8,1.4c-0.4,0.4-1.8,0.7-3.2,0.4c0.8,0.4,1.5,1.3,1.7,2.1
	c0.2,0.9-0.2,1.5-0.8,1.4c-0.5-0.2-1.3-1.1-1.8-2.2c0,0.9-0.5,1.8-1.1,2.2c-0.8,0.5-1.9,0.1-2.1-0.6c-0.2-0.7,0.3-1.8,1.3-2.5
	c-0.9,0.3-2,0-2.6-0.5C1294.2,678.5,1294.2,677.6,1294.8,677.3z M1291,664.4c-0.4-0.6-0.3-2.1,0.5-3.4c-0.9,0.9-2.3,1.1-3.2,0.5
	c-1-0.7-1.3-2.3-0.7-3.1c0.6-0.9,2.3-1.1,3.8-0.1c-0.6-0.8-1-2.4-0.9-3.4c0.1-1.1,1-1.6,1.6-1.1c0.6,0.5,1,2.1,0.7,3.7
	c0.4-1,1.4-1.9,2.4-2.2c1-0.3,1.9,0.2,1.7,0.9c-0.1,0.7-1.2,1.7-2.5,2.3c1.1-0.1,2.2,0.4,2.8,1.2c0.6,1,0.3,2.2-0.5,2.5
	c-0.8,0.3-2.2-0.2-3.1-1.4c0.4,1,0.2,2.3-0.4,3.1C1292.5,664.9,1291.4,665.1,1291,664.4z M1259.7,682.9c-0.1-1,0.9-2.7,2.6-3.9
	c-1.7,0.6-3.5,0-4.2-1.3c-0.8-1.4-0.2-3.5,1-4.2c1.3-0.7,3.5,0,4.7,2.1c-0.3-1.3,0.1-3.5,0.9-4.7c0.8-1.2,2.2-1.3,2.6-0.4
	c0.4,0.9-0.1,3.2-1.3,5c1-0.9,2.9-1.5,4.2-1.3c1.5,0.2,2.2,1.3,1.6,2.1c-0.6,0.7-2.4,1.4-4.4,1.3c1.4,0.5,2.5,1.8,2.7,3.1
	c0.2,1.5-0.9,2.9-2.1,2.8c-1.1-0.1-2.5-1.5-3-3.5c-0.1,1.5-1.2,3-2.3,3.6C1261.2,684.4,1259.8,683.9,1259.7,682.9z M1247.6,689.6
	c0.5-0.3,1.7-0.1,2.6,0.6c-0.7-0.8-0.7-1.9-0.2-2.6c0.6-0.7,1.8-0.9,2.5-0.3c0.6,0.5,0.7,1.9-0.1,3c0.6-0.4,1.9-0.7,2.7-0.5
	c0.8,0.2,1.2,0.9,0.8,1.3c-0.4,0.4-1.7,0.6-3,0.4c0.7,0.4,1.4,1.2,1.6,2c0.2,0.8-0.2,1.4-0.8,1.3c-0.5-0.2-1.2-1-1.6-2.1
	c0,0.9-0.4,1.7-1.1,2.1c-0.8,0.4-1.8,0.1-2-0.5c-0.2-0.6,0.3-1.7,1.2-2.4c-0.8,0.2-1.8,0-2.4-0.5
	C1247.1,690.8,1247.1,689.9,1247.6,689.6z M1264.3,700.3c1.2-0.6,3.8-0.2,6,1.3c-1.6-1.8-1.7-4.3-0.5-5.8c1.3-1.7,4.2-2,5.6-0.8
	c1.4,1.2,1.7,4.3-0.3,6.8c1.4-1,4.3-1.6,6.1-1.2c1.9,0.4,2.6,2,1.7,3c-0.9,0.9-3.9,1.5-6.7,0.8c1.7,0.8,3.2,2.8,3.6,4.5
	c0.5,1.9-0.5,3.3-1.8,2.9c-1.1-0.3-2.8-2.3-3.7-4.7c0.1,2-1,4-2.5,4.8c-1.8,1-4,0.3-4.4-1.2c-0.4-1.4,0.6-3.8,2.8-5.4
	c-1.8,0.5-4.2,0.1-5.5-1C1263.1,702.9,1263,701,1264.3,700.3z M1224.5,712c1,0.2,2.4,1.6,3,3.6c-0.1-1.8,1-3.4,2.4-3.7
	c1.6-0.4,3.4,0.8,3.7,2.2c0.3,1.4-1,3.3-3.4,3.9c1.3,0.1,3.3,1.1,4.2,2.2c0.9,1.1,0.6,2.5-0.4,2.6c-1,0.1-3-1-4.4-2.7
	c0.6,1.3,0.6,3.2,0,4.4c-0.6,1.3-1.8,1.7-2.4,0.9c-0.5-0.7-0.6-2.7,0-4.6c-0.9,1.2-2.5,1.9-3.7,1.7c-1.5-0.2-2.5-1.7-2.1-2.8
	c0.4-1.1,2.2-2,4.2-1.9c-1.3-0.5-2.5-1.9-2.8-3.2C1222.6,713,1223.4,711.8,1224.5,712z M1338.3,676.3c0.9-0.5,2.9-0.2,4.5,1
	c-1.2-1.4-1.3-3.3-0.4-4.4c1-1.3,3.2-1.5,4.2-0.6c1.1,0.9,1.3,3.3-0.2,5.2c1.1-0.8,3.3-1.2,4.7-0.9c1.4,0.3,2,1.5,1.3,2.2
	c-0.7,0.7-3,1.1-5.1,0.6c1.3,0.6,2.4,2.1,2.7,3.4c0.3,1.4-0.4,2.5-1.3,2.2c-0.9-0.3-2.2-1.7-2.8-3.6c0.1,1.5-0.8,3-1.9,3.6
	c-1.3,0.8-3,0.2-3.4-0.9c-0.3-1.1,0.5-2.9,2.1-4.1c-1.4,0.4-3.2,0-4.2-0.8C1337.4,678.3,1337.3,676.8,1338.3,676.3z M1320.9,647.1
	c1.1-0.6,3.7-0.2,5.8,1.3c-1.5-1.7-1.6-4.2-0.5-5.6c1.3-1.6,4.1-1.9,5.4-0.8c1.4,1.2,1.6,4.2-0.3,6.6c1.4-1,4.2-1.5,5.9-1.2
	c1.8,0.4,2.6,2,1.7,2.9c-0.9,0.9-3.8,1.4-6.6,0.8c1.6,0.8,3.1,2.7,3.5,4.4c0.4,1.8-0.5,3.2-1.7,2.8c-1.1-0.3-2.8-2.2-3.6-4.6
	c0.1,1.9-1,3.8-2.4,4.7c-1.7,1-3.9,0.3-4.3-1.2c-0.4-1.4,0.6-3.7,2.7-5.3c-1.8,0.5-4.1,0.1-5.4-1
	C1319.8,649.7,1319.7,647.8,1320.9,647.1z M1317.7,668.7c-0.1,0.8,0.4,1.5,1.2,1.6c0.8,0.1,1.5-0.4,1.6-1.2s-0.4-1.5-1.2-1.6
	C1318.6,667.4,1317.8,667.9,1317.7,668.7z M1294.9,696.3c-0.1,0.8,0.4,1.5,1.2,1.6c0.8,0.1,1.5-0.4,1.6-1.2c0.1-0.8-0.4-1.5-1.2-1.6
	C1295.7,694.9,1295,695.5,1294.9,696.3z M1280.1,671.8c-0.1,0.8,0.4,1.5,1.2,1.6c0.8,0.1,1.5-0.4,1.6-1.2c0.1-0.8-0.4-1.5-1.2-1.6
	S1280.2,671,1280.1,671.8z M1268.8,687.5c0.4,0.7,1.3,0.9,2,0.5c0.7-0.4,0.9-1.3,0.5-2c-0.4-0.7-1.3-0.9-2-0.5
	C1268.7,685.9,1268.4,686.8,1268.8,687.5z M1232.4,698c0.4,0.7,1.3,0.9,2,0.5c0.7-0.4,0.9-1.3,0.5-2c-0.4-0.7-1.3-0.9-2-0.5
	C1232.2,696.4,1232,697.3,1232.4,698z M1263.1,708.7c0.2,0.3,0.6,0.5,1,0.3c0.3-0.2,0.5-0.6,0.3-1c-0.2-0.3-0.6-0.5-1-0.3
	C1263,707.9,1262.9,708.4,1263.1,708.7z M1281.4,695.7c0.2,0.3,0.6,0.5,1,0.3c0.3-0.2,0.5-0.6,0.3-1c-0.2-0.3-0.6-0.5-1-0.3
	C1281.3,695,1281.2,695.4,1281.4,695.7z M1305.6,670.1c0.2,0.3,0.6,0.5,1,0.3c0.3-0.2,0.5-0.6,0.3-1c-0.2-0.3-0.6-0.5-1-0.3
	C1305.6,669.3,1305.4,669.7,1305.6,670.1z M1320,657.5c0.2,0.3,0.6,0.5,1,0.3c0.3-0.2,0.5-0.6,0.3-1c-0.2-0.3-0.6-0.5-1-0.3
	C1319.9,656.8,1319.8,657.2,1320,657.5z M1331.3,677c0.2,0.3,0.6,0.5,1,0.3c0.3-0.2,0.5-0.6,0.3-1c-0.2-0.3-0.6-0.5-1-0.3
	C1331.2,676.2,1331.1,676.7,1331.3,677z M1321.6,698.4c0.2,0.3,0.6,0.5,1,0.3c0.3-0.2,0.5-0.6,0.3-1c-0.2-0.3-0.6-0.5-1-0.3
	C1321.5,697.6,1321.4,698,1321.6,698.4z M1316.1,706.2c0.2,0.3,0.6,0.5,1,0.3s0.5-0.6,0.3-1c-0.2-0.3-0.6-0.5-1-0.3
	C1316.1,705.5,1315.9,705.9,1316.1,706.2z M1293.1,712.5c0.2,0.3,0.6,0.5,1,0.3c0.3-0.2,0.5-0.6,0.3-1c-0.2-0.3-0.6-0.5-1-0.3
	C1293,711.7,1292.9,712.2,1293.1,712.5z M1255.5,713.7c0.2,0.3,0.6,0.5,1,0.3c0.3-0.2,0.5-0.6,0.3-1c-0.2-0.3-0.6-0.5-1-0.3
	C1255.4,712.9,1255.3,713.4,1255.5,713.7z M1245.3,715c0.2,0.3,0.6,0.5,1,0.3c0.4-0.2,0.5-0.6,0.3-1c-0.2-0.3-0.6-0.5-1-0.3
	C1245.3,714.3,1245.1,714.7,1245.3,715z M1244.1,702.9c0.1,0.2,0.3,0.2,0.5,0.1c0.2-0.1,0.2-0.3,0.1-0.5c-0.1-0.2-0.3-0.2-0.5-0.1
	C1244.1,702.5,1244,702.7,1244.1,702.9z M1257.4,695.3c0.1,0.2,0.3,0.2,0.5,0.1s0.2-0.3,0.1-0.5c-0.1-0.2-0.3-0.2-0.5-0.1
	C1257.3,694.9,1257.3,695.1,1257.4,695.3z M1264.4,687.3c0.1,0.2,0.3,0.2,0.5,0.1s0.2-0.3,0.1-0.5c-0.1-0.2-0.3-0.2-0.5-0.1
	C1264.3,686.9,1264.3,687.1,1264.4,687.3z M1274,680c0.1,0.2,0.3,0.2,0.5,0.1c0.2-0.1,0.2-0.3,0.1-0.5c-0.1-0.2-0.3-0.2-0.5-0.1
	C1274,679.6,1273.9,679.9,1274,680z M1282,682.2c0.1,0.2,0.3,0.2,0.5,0.1c0.2-0.1,0.2-0.3,0.1-0.5c-0.1-0.2-0.3-0.2-0.5-0.1
	S1281.9,682,1282,682.2z M1292.2,670.6c0.1,0.2,0.3,0.2,0.5,0.1c0.2-0.1,0.2-0.3,0.1-0.5c-0.1-0.2-0.3-0.2-0.5-0.1
	C1292.2,670.2,1292.1,670.5,1292.2,670.6z M1299.2,664.4c0.1,0.2,0.3,0.2,0.5,0.1c0.2-0.1,0.2-0.3,0.1-0.5c-0.1-0.2-0.3-0.2-0.5-0.1
	C1299.2,664,1299.1,664.2,1299.2,664.4z M1285.3,677c0.3-0.1,0.8-0.1,1.4,0.2c-0.4-0.4,0-1,0.2-1.3c0.3-0.3,0.1-0.4,0.5-0.2
	c0.4,0.3,1,1.1,0.5,1.6c0.3-0.2,1.1-0.3,1.5,0c0.3,0.3,0.3,0.1,0.2,0.3c-0.3,0.4-0.7,0.3-1.4,0.2c0.4,0.2,0.8,0.6,0.7,1.1
	c-0.1,0.4,0.1,0.3-0.2,0.2c-0.3-0.1-0.7-0.3-0.9-0.8c0,0.4-0.2,0.7-1,0.9c-0.5,0.1-0.2,0-0.4-0.3c-0.3-0.4-0.1-0.8,0.4-1.1
	c-0.5,0.1-1.1-0.1-1.4-0.6C1285.2,676.9,1285,677.1,1285.3,677z M1326.9,684.8c0.3-0.1,0.7-0.2,1.2,0.2c-0.3-0.4,0-1.1,0.2-1.4
	c0.3-0.4,0.1-0.5,0.4-0.2c0.3,0.3,0.8,1.1,0.4,1.7c0.3-0.2,1-0.4,1.3,0c0.3,0.3,0.3,0.1,0.1,0.4c-0.3,0.4-0.6,0.4-1.2,0.2
	c0.4,0.2,0.7,0.6,0.5,1.2c-0.1,0.4,0.1,0.3-0.2,0.2c-0.2-0.1-0.6-0.3-0.8-0.8c0,0.4-0.2,0.8-0.9,1c-0.4,0.2-0.2,0-0.3-0.3
	c-0.2-0.4-0.1-0.8,0.4-1.2c-0.4,0.1-1-0.1-1.2-0.6C1326.8,684.8,1326.6,685,1326.9,684.8z M1310.8,659.3c0.3-0.1,0.7-0.2,1.2,0.2
	c-0.3-0.4,0-1.1,0.3-1.4c0.3-0.4,0.1-0.5,0.4-0.2c0.3,0.3,0.8,1.1,0.4,1.7c0.3-0.2,1-0.4,1.3,0c0.3,0.3,0.3,0.1,0.1,0.4
	c-0.3,0.4-0.6,0.4-1.2,0.2c0.4,0.2,0.7,0.6,0.5,1.2c-0.1,0.4,0.1,0.3-0.2,0.2c-0.2-0.1-0.6-0.3-0.8-0.8c0,0.4-0.2,0.8-0.9,1
	c-0.4,0.2-0.2,0-0.3-0.3c-0.2-0.4-0.1-0.8,0.4-1.2c-0.4,0.1-1-0.1-1.2-0.6C1310.6,659.3,1310.5,659.5,1310.8,659.3z M1287.7,691.7
	c0.3-0.1,0.7-0.2,1.2,0.2c-0.3-0.4,0-1.1,0.3-1.4c0.3-0.4,0.1-0.5,0.4-0.2c0.3,0.3,0.8,1.1,0.4,1.7c0.3-0.2,1-0.4,1.3,0
	c0.3,0.3,0.3,0.1,0.1,0.4c-0.3,0.4-0.6,0.4-1.2,0.2c0.4,0.2,0.7,0.6,0.5,1.2c-0.1,0.4,0.1,0.3-0.2,0.2c-0.2-0.1-0.6-0.3-0.8-0.8
	c0,0.4-0.2,0.8-0.9,1c-0.4,0.2-0.2,0-0.3-0.3c-0.2-0.4-0.1-0.8,0.4-1.2c-0.4,0.1-1-0.1-1.2-0.6
	C1287.5,691.7,1287.4,691.9,1287.7,691.7z M1261,692.5c0.3-0.1,0.7-0.2,1.2,0.2c-0.3-0.4,0-1.1,0.2-1.4c0.3-0.4,0.1-0.5,0.4-0.2
	c0.3,0.3,0.8,1.1,0.4,1.7c0.3-0.2,1-0.4,1.3,0c0.3,0.3,0.3,0.1,0.1,0.4c-0.3,0.4-0.6,0.4-1.2,0.2c0.4,0.2,0.7,0.6,0.5,1.2
	c-0.1,0.4,0.1,0.3-0.2,0.2c-0.2-0.1-0.6-0.3-0.8-0.8c0,0.4-0.2,0.8-0.9,1c-0.4,0.2-0.2,0-0.3-0.3c-0.2-0.4-0.1-0.8,0.4-1.2
	c-0.4,0.1-1-0.1-1.2-0.6C1260.8,692.4,1260.7,692.6,1261,692.5z M1252.1,706c0.3-0.1,0.7-0.2,1.2,0.2c-0.3-0.4,0-1.1,0.2-1.4
	c0.3-0.4,0.1-0.5,0.4-0.2c0.3,0.3,0.8,1.1,0.4,1.7c0.3-0.2,1-0.4,1.3,0c0.3,0.3,0.3,0.1,0.1,0.4c-0.3,0.4-0.6,0.4-1.2,0.2
	c0.4,0.2,0.7,0.6,0.5,1.2c-0.1,0.4,0.1,0.3-0.2,0.2c-0.2-0.1-0.6-0.3-0.8-0.8c0,0.4-0.2,0.8-0.9,1c-0.4,0.2-0.2,0-0.3-0.3
	c-0.2-0.4-0.1-0.8,0.4-1.2c-0.4,0.1-1-0.1-1.2-0.6C1251.9,706,1251.8,706.2,1252.1,706z M1235.3,708.3c0.3-0.1,0.7-0.2,1.2,0.2
	c-0.3-0.4,0-1.1,0.3-1.4c0.3-0.4,0.1-0.5,0.4-0.2c0.3,0.3,0.8,1.1,0.4,1.7c0.3-0.2,1-0.4,1.3,0c0.3,0.3,0.3,0.1,0.1,0.4
	c-0.3,0.4-0.6,0.4-1.2,0.2c0.4,0.2,0.7,0.6,0.5,1.2c-0.1,0.4,0.1,0.3-0.2,0.2c-0.2-0.1-0.6-0.3-0.8-0.8c0,0.4-0.2,0.8-0.9,1
	c-0.4,0.2-0.2,0-0.3-0.3c-0.2-0.4-0.1-0.8,0.4-1.2c-0.4,0.1-1-0.1-1.2-0.6C1235.2,708.2,1235,708.4,1235.3,708.3z M1235.2,700
	c0.3-0.1,0.7-0.2,1.2,0.2c-0.3-0.4,0-1.1,0.3-1.4c0.3-0.4,0.1-0.5,0.4-0.2c0.3,0.3,0.8,1.1,0.4,1.7c0.3-0.2,1-0.4,1.3,0
	c0.3,0.3,0.3,0.1,0.1,0.4c-0.3,0.4-0.6,0.4-1.2,0.2c0.4,0.2,0.7,0.6,0.5,1.2c-0.1,0.4,0.1,0.3-0.2,0.2c-0.2-0.1-0.6-0.3-0.8-0.8
	c0,0.4-0.2,0.8-0.9,1c-0.4,0.2-0.2,0-0.3-0.3c-0.2-0.4-0.1-0.8,0.4-1.2c-0.4,0.1-1-0.1-1.2-0.6C1235,699.9,1234.9,700.1,1235.2,700z
	 M1285.3,704.6c0.3-0.1,0.7-0.2,1.2,0.2c-0.3-0.4,0-1.1,0.3-1.4c0.3-0.4,0.1-0.5,0.4-0.2c0.3,0.3,0.8,1.1,0.4,1.7
	c0.3-0.2,1-0.4,1.3,0c0.3,0.3,0.3,0.1,0.1,0.4c-0.3,0.4-0.6,0.4-1.2,0.2c0.4,0.2,0.7,0.6,0.5,1.2c-0.1,0.4,0.1,0.3-0.2,0.2
	c-0.2-0.1-0.6-0.3-0.8-0.8c0,0.4-0.2,0.8-0.9,1c-0.4,0.2-0.2,0-0.3-0.3c-0.2-0.4-0.1-0.8,0.4-1.2c-0.4,0.1-1-0.1-1.2-0.6
	C1285.2,704.5,1285,704.7,1285.3,704.6z M1303.8,686.5c0.3-0.1,0.7-0.2,1.2,0.2c-0.3-0.4,0-1.1,0.3-1.4c0.3-0.4,0.1-0.5,0.4-0.2
	c0.3,0.3,0.8,1.1,0.4,1.7c0.3-0.2,1-0.4,1.3,0c0.3,0.3,0.3,0.1,0.1,0.4c-0.3,0.4-0.6,0.4-1.2,0.2c0.4,0.2,0.7,0.6,0.5,1.2
	c-0.1,0.4,0.1,0.3-0.2,0.2c-0.2-0.1-0.6-0.3-0.8-0.8c0,0.4-0.2,0.8-0.9,1c-0.4,0.2-0.2,0-0.3-0.3c-0.2-0.4-0.1-0.8,0.4-1.2
	c-0.4,0.1-1-0.1-1.2-0.6C1303.6,686.5,1303.5,686.7,1303.8,686.5z M1307.6,682c0.3-0.1,0.7-0.2,1.2,0.2c-0.3-0.4,0-1.1,0.3-1.4
	c0.3-0.4,0.1-0.5,0.4-0.2c0.3,0.3,0.8,1.1,0.4,1.7c0.3-0.2,1-0.4,1.3,0c0.3,0.3,0.3,0.1,0.1,0.4c-0.3,0.4-0.6,0.4-1.2,0.2
	c0.4,0.2,0.7,0.6,0.5,1.2c-0.1,0.4,0.1,0.3-0.2,0.2c-0.2-0.1-0.6-0.3-0.8-0.8c0,0.4-0.2,0.8-0.9,1c-0.4,0.2-0.2,0-0.3-0.3
	c-0.2-0.4-0.1-0.8,0.4-1.2c-0.4,0.1-1-0.1-1.2-0.6C1307.4,681.9,1307.3,682.1,1307.6,682z M1306.9,674.9c0.3-0.1,0.7-0.2,1.2,0.2
	c-0.3-0.4,0-1.1,0.3-1.4c0.3-0.4,0.1-0.5,0.4-0.2c0.3,0.3,0.8,1.1,0.4,1.7c0.3-0.2,1-0.4,1.3,0c0.3,0.3,0.3,0.1,0.1,0.4
	c-0.3,0.4-0.6,0.4-1.2,0.2c0.4,0.2,0.7,0.6,0.5,1.2c-0.1,0.4,0.1,0.3-0.2,0.2c-0.2-0.1-0.6-0.3-0.8-0.8c0,0.4-0.2,0.8-0.9,1
	c-0.4,0.2-0.2,0-0.3-0.3c-0.2-0.4-0.1-0.8,0.4-1.2c-0.4,0.1-1-0.1-1.2-0.6C1306.8,674.9,1306.7,675.1,1306.9,674.9z"/>
<g>
	<defs>
		
			<rect id="SVGID_7_" x="1129.4" y="474.9" transform="matrix(0.9936 -0.1127 0.1127 0.9936 -57.033 142.2667)" width="201.5" height="201.5"/>
	</defs>
	<clipPath id="SVGID_8_">
		<use xlink:href="#SVGID_7_"  style="overflow:visible;"/>
	</clipPath>
	<g class="st11">
		<path class="st8" d="M1307.1,630l-7.3-12.8l-50.9,6.6l40.9-24.4l-69.4-122.1l-20.6,65.3l23.8,7.4l-27.1,3.1l-11.8,37.7l27.7,11.1
			l-32.4,3.7l-12.7,40.3l65.8-7.5l4.1,35.8l10.6-1.2l-4.1-35.8L1307.1,630z"/>
	</g>
</g>
</svg>
