<svg width="1440" height="1808" viewBox="0 0 1440 1808" fill="none" xmlns="http://www.w3.org/2000/svg">
<g filter="url(#filter0_d)">
<path d="M1440 595C1282.78 628.865 632.5 661 -1 134C-1 398.44 0 1540.68 0 1808H1440V595Z" fill="#127262"/>
</g>
<g clip-path="url(#clip0)">
<path d="M1210.17 658.411L1201.66 642.651L1139.44 649.208L1189.92 620.725L1109.1 469.967L1082.12 548.861L1110.88 558.56L1077.77 561.496L1062.22 607.004L1095.6 621.323L1056.08 624.827L1039.4 673.553L1119.68 666.434L1123.55 710.111L1136.53 708.961L1132.66 665.284L1210.17 658.411Z" fill="#0C3932"/>
</g>
<path d="M-51.0944 73.7232L-112.866 202.763C-53.2564 227.99 56.6738 244.431 111.425 222.241L80.3643 95.9322L41.6992 151.192L15.4772 73.2471L0.394834 121.297L-6.55679 14.7416L-53.797 152.319L-51.0944 73.7232Z" fill="#0C3932"/>
<path d="M27.2343 304.427C26.1443 304.521 24.5484 305.947 23.7153 307.981C23.9775 306.069 22.9522 304.298 21.4762 303.802C19.8359 303.248 17.7406 304.306 17.3038 305.74C16.8484 307.219 18.0419 309.416 20.5385 310.278C19.1369 310.232 16.8808 311.115 15.8227 312.172C14.7093 313.286 14.9158 314.726 15.957 314.95C16.9981 315.174 19.2961 314.208 20.9364 312.524C20.1622 313.822 19.9997 315.838 20.4699 317.165C20.9954 318.644 22.2644 319.176 22.9514 318.373C23.5722 317.637 23.8979 315.556 23.4343 313.509C24.2587 314.882 25.8699 315.766 27.2451 315.683C28.8923 315.583 30.0988 314.103 29.7399 312.861C29.4064 311.692 27.633 310.51 25.4238 310.4C26.922 309.963 28.3102 308.582 28.7247 307.244C29.2049 305.705 28.3805 304.332 27.2343 304.427ZM20.5629 281.957C20.5414 280.642 18.9586 278.6 16.5968 277.432C18.8715 277.904 21.0807 276.824 21.8048 275.094C22.6094 273.171 21.5168 270.572 19.8323 269.923C18.0985 269.25 15.3607 270.501 14.1153 273.424C14.294 271.746 13.4141 268.964 12.2357 267.611C10.9913 266.181 9.24496 266.309 8.88943 267.54C8.5339 268.771 9.50159 271.611 11.3863 273.715C9.89887 272.677 7.49331 272.317 5.85137 272.764C4.03146 273.27 3.27984 274.748 4.19542 275.642C5.03018 276.454 7.49278 277.012 9.98771 276.637C8.27395 277.509 7.07049 279.367 7.05661 281.027C7.03931 283.013 8.718 284.581 10.2385 284.258C11.6653 283.958 13.2393 281.922 13.5495 279.283C13.9521 281.116 15.4871 282.904 17.062 283.515C18.8655 284.213 20.5839 283.348 20.5629 281.957ZM84.0859 279.233C83.2872 277.647 80.1572 276.085 76.5829 276.059C79.632 275.301 81.6883 272.677 81.5464 270.143C81.3846 267.321 78.5236 264.803 76.0928 264.999C73.58 265.198 70.9903 268.34 71.1876 272.636C70.4148 270.485 67.7072 267.615 65.4729 266.66C63.1195 265.655 61.056 266.838 61.355 268.551C61.6492 270.258 64.4984 273.149 68.04 274.603C65.6156 274.221 62.464 275.192 60.7387 276.711C58.8171 278.399 58.7758 280.644 60.4169 281.188C61.9132 281.686 65.2445 280.912 68.0624 278.983C66.4854 281.059 66.1202 284.031 67.0801 286.068C68.2307 288.502 71.198 289.424 72.8609 288.13C74.4209 286.916 75.144 283.52 73.9678 280.109C75.5434 282.109 78.4652 283.375 80.7467 283.194C83.347 282.985 84.9287 280.914 84.0859 279.233ZM108.18 277.682C107.152 277.77 105.649 279.116 104.865 281.031C105.109 279.23 104.147 277.566 102.757 277.092C101.211 276.57 99.243 277.566 98.8277 278.915C98.3939 280.308 99.5203 282.373 101.872 283.188C100.547 283.143 98.4277 283.974 97.435 284.974C96.3879 286.022 96.5799 287.379 97.5609 287.589C98.5418 287.799 100.708 286.889 102.249 285.3C101.522 286.519 101.368 288.414 101.807 289.672C102.298 291.067 103.498 291.573 104.141 290.808C104.728 290.11 105.034 288.16 104.603 286.228C105.377 287.521 106.895 288.352 108.193 288.278C109.748 288.183 110.877 286.788 110.543 285.62C110.23 284.519 108.559 283.401 106.477 283.305C107.887 282.887 109.197 281.593 109.591 280.329C110.034 278.88 109.26 277.587 108.18 277.682ZM93.8438 309.178C91.51 309.376 88.0884 312.436 86.3045 316.787C86.8693 312.69 84.6732 308.902 81.5122 307.833C77.992 306.647 73.52 308.91 72.5706 311.978C71.5887 315.14 74.1572 319.844 79.4933 321.7C76.4916 321.598 71.6633 323.493 69.4039 325.75C67.0278 328.136 67.4665 331.223 69.6951 331.697C71.9237 332.172 76.8459 330.11 80.3537 326.498C78.7005 329.269 78.3491 333.591 79.3567 336.444C80.4789 339.617 83.2001 340.761 84.6651 339.028C86.0018 337.445 86.6887 333.005 85.7064 328.616C87.4686 331.56 90.9165 333.456 93.8725 333.274C97.4084 333.057 99.98 329.883 99.2186 327.227C98.5015 324.733 94.7025 322.187 89.973 321.959C93.184 321.013 96.1528 318.068 97.0522 315.196C98.0626 311.923 96.3058 308.975 93.8438 309.178ZM163.251 288.487C161.951 289.706 161.343 293.145 162.323 296.584C160.733 293.872 157.64 292.64 155.243 293.492C152.584 294.437 150.972 297.895 151.848 300.177C152.749 302.531 156.494 304.133 160.556 302.728C158.715 304.081 156.714 307.485 156.436 309.897C156.138 312.439 157.852 314.082 159.41 313.317C160.968 312.552 162.938 309.002 163.334 305.194C163.647 307.629 165.469 310.377 167.418 311.608C169.581 312.977 171.744 312.384 171.804 310.656C171.857 309.086 170.175 306.103 167.528 303.942C169.968 304.872 172.916 304.382 174.599 302.89C176.61 301.096 176.652 297.993 174.949 296.76C173.348 295.601 169.88 295.874 166.943 297.963C168.417 295.889 168.801 292.729 167.992 290.591C167.062 288.137 164.627 287.203 163.251 288.487ZM45.1533 332.312C46.0625 333.364 45.9467 334.95 44.8943 335.859C43.8419 336.768 42.2564 336.652 41.3473 335.6C40.4381 334.547 40.5539 332.962 41.6063 332.053C42.6587 331.143 44.2489 331.265 45.1533 332.312ZM43.5511 282.399C44.4602 283.451 44.3445 285.037 43.2921 285.946C42.2397 286.855 40.6542 286.739 39.745 285.687C38.8359 284.634 38.9516 283.049 40.004 282.14C41.0564 281.231 42.6419 281.346 43.5511 282.399ZM74.9997 294.662C75.0825 296.048 74.0249 297.238 72.6348 297.315C71.2446 297.392 70.0596 296.34 69.9822 294.95C69.8995 293.565 70.9571 292.375 72.3472 292.297C73.7326 292.215 74.9224 293.272 74.9997 294.662ZM138.415 275.435C138.498 276.82 137.44 278.01 136.05 278.087C134.66 278.164 133.475 277.112 133.397 275.722C133.315 274.337 134.372 273.147 135.762 273.07C137.148 272.987 138.332 274.049 138.415 275.435ZM103.611 320.319C103.647 321.011 103.123 321.606 102.426 321.647C101.733 321.684 101.138 321.16 101.097 320.462C101.061 319.77 101.584 319.174 102.282 319.133C102.98 319.092 103.57 319.621 103.611 320.319ZM64.3918 318.758C64.4281 319.45 63.9044 320.045 63.2066 320.086C62.5142 320.123 61.919 319.599 61.878 318.901C61.8417 318.209 62.3654 317.613 63.0632 317.572C63.7657 317.537 64.3555 318.065 64.3918 318.758ZM4.50021 304.213C4.53651 304.905 4.01281 305.5 3.31501 305.541C2.62267 305.578 2.02741 305.054 1.9864 304.356C1.95011 303.664 2.4738 303.069 3.1716 303.028C3.8694 302.987 4.45375 303.52 4.50021 304.213ZM8.01444 360.825C8.05074 361.517 7.52704 362.113 6.82924 362.154C6.1369 362.19 5.54164 361.666 5.50063 360.969C5.46434 360.276 5.98803 359.681 6.68583 359.64C7.37817 359.604 7.96798 360.132 8.01444 360.825ZM23.441 367.152C23.4772 367.845 22.9535 368.44 22.2558 368.481C21.5634 368.517 20.9681 367.994 20.9271 367.296C20.8861 366.598 21.4145 366.008 22.1123 365.967C22.8047 365.931 23.3999 366.455 23.441 367.152ZM63.1236 354.458C63.1599 355.15 62.6362 355.745 61.9384 355.786C61.246 355.823 60.6508 355.299 60.6098 354.601C60.5735 353.909 61.0972 353.313 61.795 353.272C62.4928 353.231 63.0873 353.765 63.1236 354.458ZM119.442 320.478C119.478 321.171 118.954 321.766 118.256 321.807C117.564 321.843 116.969 321.32 116.928 320.622C116.892 319.929 117.415 319.334 118.113 319.293C118.805 319.257 119.401 319.781 119.442 320.478ZM135.598 312.748C135.635 313.441 135.111 314.036 134.413 314.077C133.721 314.113 133.126 313.589 133.085 312.892C133.048 312.199 133.572 311.604 134.27 311.563C134.962 311.527 135.557 312.05 135.598 312.748ZM125.855 293.722C125.876 294.065 125.609 294.363 125.266 294.384C124.922 294.404 124.624 294.138 124.604 293.794C124.583 293.45 124.85 293.153 125.193 293.132C125.537 293.111 125.835 293.378 125.855 293.722ZM99.1772 295.258C99.1981 295.602 98.9312 295.899 98.5874 295.92C98.2436 295.941 97.9463 295.674 97.9254 295.33C97.9046 294.986 98.1715 294.689 98.5153 294.668C98.8591 294.647 99.1571 294.904 99.1772 295.258ZM81.3578 290.217C81.3787 290.561 81.1118 290.858 80.768 290.879C80.4241 290.9 80.1269 290.633 80.106 290.289C80.0851 289.945 80.3521 289.648 80.6959 289.627C81.0397 289.606 81.3424 289.869 81.3578 290.217ZM60.2931 288.761C60.314 289.105 60.0471 289.402 59.7033 289.423C59.3594 289.444 59.0622 289.177 59.0413 288.833C59.0204 288.489 59.2874 288.192 59.6312 288.171C59.975 288.15 60.2723 288.417 60.2931 288.761ZM50.6296 299.432C50.6505 299.776 50.3836 300.074 50.0397 300.094C49.6959 300.115 49.3987 299.848 49.3778 299.505C49.3569 299.161 49.6239 298.863 49.9677 298.843C50.3115 298.822 50.6142 299.084 50.6296 299.432ZM24.753 292.23C24.7739 292.574 24.507 292.871 24.1632 292.892C23.8193 292.913 23.5221 292.646 23.5012 292.302C23.4803 291.958 23.7473 291.661 24.0911 291.64C24.4349 291.619 24.7376 291.881 24.753 292.23ZM8.49642 289.715C8.5173 290.058 8.25037 290.356 7.90656 290.376C7.56274 290.397 7.26548 290.13 7.2446 289.787C7.22373 289.443 7.49065 289.146 7.83447 289.125C8.17829 289.104 8.481 289.366 8.49642 289.715ZM40.8237 294.982C40.2801 295.08 39.4771 295.583 38.9636 296.598C39.1898 295.67 38.0392 295.054 37.336 294.891C36.5521 294.711 36.7454 294.372 36.4488 295.076C36.1452 295.805 36.0826 297.573 37.2725 297.859C36.5841 297.911 35.3581 298.399 35.0826 299.304C34.8589 300.059 34.6977 299.817 35.1618 299.969C35.9897 300.244 36.4617 299.798 37.3594 298.908C36.9125 299.57 36.7149 300.598 37.4524 301.132C38.0105 301.536 37.5888 301.643 37.967 301.221C38.3118 300.837 38.6642 300.209 38.5401 299.25C38.8731 299.867 39.5164 300.082 40.9645 299.631C41.7803 299.374 41.2766 299.485 41.275 298.877C41.2716 298.014 40.7706 297.599 39.6829 297.663C40.4446 297.376 41.2052 296.404 41.1101 295.468C41.0307 294.736 41.3986 294.876 40.8237 294.982ZM51.3725 318.854C50.8584 318.899 50.1386 319.311 49.7523 320.264C49.8739 319.368 48.7064 318.634 48.0084 318.399C47.2406 318.139 47.3863 317.823 47.174 318.492C46.9547 319.186 47.0826 320.932 48.2535 321.339C47.5961 321.317 46.4665 321.674 46.2956 322.545C46.1507 323.27 45.9856 323.013 46.4412 323.21C47.268 323.572 47.6697 323.177 48.4428 322.385C48.0817 322.992 47.9933 323.992 48.7609 324.605C49.3403 325.066 48.9427 325.124 49.2616 324.744C49.5526 324.397 49.8255 323.809 49.6146 322.849C50.0017 323.495 50.635 323.777 51.9852 323.477C52.7435 323.307 52.2693 323.365 52.206 322.762C52.1151 321.907 51.592 321.445 50.5484 321.395C51.2534 321.186 51.8799 320.301 51.6926 319.368C51.542 318.632 51.9124 318.807 51.3725 318.854ZM91.2487 294.623C90.7346 294.667 90.0148 295.079 89.6285 296.032C89.7501 295.137 88.5827 294.403 87.8846 294.168C87.1168 293.907 87.2625 293.591 87.0502 294.26C86.8309 294.954 86.9589 296.7 88.1297 297.108C87.4723 297.085 86.3427 297.442 86.1718 298.314C86.0269 299.039 85.8618 298.781 86.3174 298.978C87.1442 299.34 87.5459 298.945 88.319 298.154C87.9579 298.761 87.8696 299.761 88.6371 300.374C89.2165 300.835 88.8189 300.893 89.1379 300.512C89.4288 300.166 89.7017 299.578 89.4908 298.617C89.8779 299.264 90.5113 299.545 91.8615 299.245C92.6197 299.076 92.1455 299.133 92.0822 298.531C91.9914 297.676 91.4682 297.214 90.4246 297.163C91.1296 296.954 91.7561 296.07 91.5688 295.137C91.4237 294.395 91.7886 294.575 91.2487 294.623ZM117.152 306.001C116.638 306.045 115.919 306.458 115.532 307.411C115.654 306.515 114.486 305.781 113.788 305.546C113.021 305.286 113.166 304.969 112.954 305.639C112.735 306.333 112.863 308.079 114.033 308.486C113.376 308.464 112.246 308.821 112.076 309.692C111.931 310.417 111.766 310.16 112.221 310.357C113.048 310.718 113.45 310.324 114.223 309.532C113.862 310.139 113.773 311.139 114.541 311.752C115.12 312.213 114.723 312.271 115.042 311.891C115.333 311.544 115.605 310.956 115.395 309.996C115.782 310.642 116.415 310.923 117.765 310.624C118.523 310.454 118.049 310.511 117.986 309.909C117.895 309.054 117.372 308.592 116.328 308.542C117.033 308.332 117.66 307.448 117.473 306.515C117.332 305.779 117.692 305.954 117.152 306.001ZM143.89 293.291C143.376 293.335 142.656 293.748 142.27 294.701C142.392 293.805 141.224 293.071 140.526 292.836C139.759 292.576 139.904 292.259 139.692 292.929C139.473 293.623 139.601 295.369 140.771 295.776C140.114 295.754 138.984 296.111 138.813 296.982C138.669 297.707 138.503 297.45 138.959 297.647C139.786 298.008 140.188 297.614 140.961 296.822C140.6 297.429 140.511 298.429 141.279 299.042C141.858 299.503 141.461 299.561 141.78 299.181C142.071 298.834 142.343 298.246 142.133 297.286C142.52 297.932 143.153 298.213 144.503 297.914C145.261 297.744 144.787 297.801 144.724 297.199C144.633 296.344 144.11 295.882 143.066 295.831C143.771 295.622 144.398 294.738 144.211 293.805C144.065 293.064 144.43 293.244 143.89 293.291ZM136.232 280.987C135.717 281.031 134.998 281.443 134.611 282.396C134.733 281.501 133.565 280.767 132.867 280.532C132.1 280.271 132.245 279.955 132.033 280.624C131.814 281.318 131.942 283.064 133.113 283.472C132.455 283.449 131.326 283.806 131.155 284.678C131.01 285.403 130.845 285.145 131.3 285.342C132.127 285.704 132.529 285.309 133.302 284.518C132.941 285.125 132.852 286.125 133.62 286.738C134.199 287.199 133.802 287.257 134.121 286.876C134.412 286.53 134.684 285.942 134.474 284.981C134.861 285.628 135.494 285.909 136.844 285.609C137.603 285.44 137.128 285.497 137.065 284.895C136.974 284.04 136.451 283.578 135.407 283.527C136.112 283.318 136.739 282.434 136.552 281.501C136.401 280.764 136.766 280.944 136.232 280.987ZM67.042 335.427C66.5279 335.471 65.8081 335.884 65.4218 336.836C65.5434 335.941 64.376 335.207 63.6779 334.972C62.9101 334.712 63.0558 334.395 62.8435 335.064C62.6242 335.759 62.7521 337.505 63.923 337.912C63.2656 337.89 62.136 338.247 61.9651 339.118C61.8202 339.843 61.6551 339.586 62.1107 339.783C62.9375 340.144 63.3392 339.75 64.1123 338.958C63.7512 339.565 63.6629 340.565 64.4304 341.178C65.0098 341.639 64.6122 341.697 64.9312 341.317C65.2221 340.97 65.495 340.382 65.2841 339.422C65.6712 340.068 66.3045 340.349 67.6547 340.049C68.413 339.88 67.9388 339.937 67.8755 339.335C67.7847 338.48 67.2615 338.018 66.2179 337.967C66.9229 337.758 67.5494 336.874 67.3621 335.941C67.2217 335.205 67.5866 335.385 67.042 335.427ZM22.8369 326.518C22.3228 326.563 21.603 326.975 21.2166 327.928C21.3382 327.032 20.1708 326.298 19.4727 326.063C18.705 325.803 18.8507 325.487 18.6383 326.156C18.4191 326.85 18.547 328.596 19.7178 329.003C19.0604 328.981 17.9309 329.338 17.7599 330.209C17.615 330.934 17.4499 330.677 17.9056 330.874C18.7323 331.236 19.1341 330.841 19.9071 330.049C19.546 330.656 19.4577 331.656 20.2253 332.269C20.8046 332.731 20.407 332.788 20.726 332.408C21.017 332.061 21.2898 331.473 21.079 330.513C21.466 331.159 22.0994 331.441 23.4496 331.141C24.2079 330.971 23.7337 331.029 23.6704 330.426C23.5795 329.572 23.0564 329.109 22.0128 329.059C22.7177 328.85 23.3443 327.966 23.157 327.032C23.0118 326.291 23.3768 326.471 22.8369 326.518ZM12.9083 323.469C12.3942 323.513 11.6743 323.925 11.288 324.878C11.4096 323.983 10.2422 323.249 9.5441 323.014C8.77636 322.753 8.92207 322.437 8.70973 323.106C8.49046 323.8 8.61839 325.547 9.78922 325.954C9.13182 325.932 8.00225 326.288 7.83134 327.16C7.68644 327.885 7.52131 327.628 7.97695 327.824C8.80371 328.186 9.20547 327.791 9.97851 327C9.61743 327.607 9.52909 328.607 10.2966 329.22C10.876 329.681 10.4784 329.739 10.7974 329.359C11.0884 329.012 11.3612 328.424 11.1504 327.463C11.5374 328.11 12.1708 328.391 13.521 328.091C14.2793 327.922 13.8051 327.979 13.7418 327.377C13.6509 326.522 13.1278 326.06 12.0842 326.009C12.7891 325.8 13.4157 324.916 13.2284 323.983C13.0879 323.247 13.4482 323.422 12.9083 323.469ZM7.20568 312.569C6.69157 312.613 5.97177 313.026 5.58546 313.978C5.70703 313.083 4.53962 312.349 3.84153 312.114C3.07379 311.854 3.2195 311.537 3.00716 312.206C2.78788 312.901 2.91581 314.647 4.08665 315.054C3.42924 315.032 2.29967 315.389 2.12876 316.26C1.98386 316.985 1.81873 316.728 2.27438 316.925C3.10114 317.286 3.5029 316.892 4.27594 316.1C3.91486 316.707 3.82652 317.707 4.59407 318.32C5.17345 318.781 4.77585 318.839 5.09482 318.459C5.38579 318.112 5.65863 317.524 5.44778 316.564C5.83483 317.21 6.46822 317.491 7.81842 317.191C8.57668 317.022 8.10248 317.079 8.03918 316.477C7.94832 315.622 7.42521 315.16 6.3816 315.109C7.08656 314.9 7.71308 314.016 7.52579 313.083C7.38066 312.342 7.74557 312.522 7.20568 312.569Z" fill="#FFCD05" fill-opacity="0.6"/>
<path d="M165.979 387.671C164.67 388.878 164.047 392.32 165.013 395.759C163.436 393.041 160.343 391.796 157.949 392.63C155.286 393.565 153.658 397.015 154.527 399.302C155.422 401.658 159.156 403.279 163.222 401.895C161.373 403.237 159.365 406.636 159.065 409.045C158.756 411.586 160.46 413.234 162.027 412.475C163.588 411.718 165.573 408.176 165.987 404.372C166.289 406.812 168.097 409.559 170.044 410.798C172.202 412.173 174.365 411.592 174.435 409.861C174.499 408.291 172.83 405.303 170.192 403.128C172.625 404.066 175.578 403.59 177.267 402.106C179.282 400.324 179.344 397.216 177.644 395.975C176.044 394.814 172.576 395.063 169.636 397.14C171.119 395.075 171.523 391.915 170.713 389.772C169.785 387.341 167.358 386.395 165.979 387.671ZM206.787 378.869C205.813 378.37 203.703 378.73 201.917 380.011C203.155 378.53 203.227 376.485 202.24 375.281C201.144 373.94 198.807 373.723 197.675 374.707C196.504 375.718 196.348 378.213 198.006 380.27C196.843 379.486 194.462 379.035 193.004 379.369C191.469 379.721 190.879 381.051 191.642 381.794C192.405 382.537 194.865 382.939 197.15 382.384C195.804 383.072 194.596 384.694 194.289 386.068C193.949 387.6 194.741 388.725 195.75 388.41C196.667 388.116 198.048 386.525 198.743 384.545C198.712 386.146 199.607 387.751 200.817 388.411C202.265 389.202 204.074 388.588 204.43 387.345C204.768 386.178 203.893 384.235 202.08 382.968C203.582 383.393 205.491 382.961 206.553 382.047C207.777 380.998 207.808 379.397 206.787 378.869ZM213.07 356.287C213.75 355.162 213.494 352.591 212.114 350.346C213.79 351.955 216.235 352.213 217.768 351.132C219.471 349.93 219.926 347.148 218.843 345.703C217.732 344.212 214.748 343.818 212.14 345.633C213.183 344.306 213.915 341.481 213.635 339.709C213.34 337.837 211.793 337.018 210.838 337.872C209.883 338.726 209.194 341.646 209.673 344.43C208.964 342.76 207.117 341.177 205.489 340.684C203.678 340.146 202.256 340.999 202.557 342.243C202.833 343.374 204.623 345.155 206.936 346.163C205.021 345.991 203.014 346.926 202.121 348.325C201.051 349.998 201.641 352.219 203.101 352.752C204.468 353.257 206.883 352.368 208.548 350.297C207.916 352.063 208.267 354.393 209.277 355.747C210.433 357.297 212.349 357.477 213.07 356.287ZM268.337 387.722C268.503 385.954 266.681 382.968 263.666 381.047C266.652 382.025 269.788 380.894 271.014 378.671C272.376 376.195 271.289 372.541 269.126 371.416C266.891 370.25 263.028 371.537 260.913 375.281C261.401 373.048 260.632 369.178 259.246 367.182C257.786 365.081 255.409 364.987 254.752 366.597C254.095 368.2 254.974 372.162 257.202 375.275C255.35 373.664 252.165 372.813 249.896 373.183C247.371 373.593 246.143 375.473 247.245 376.806C248.248 378.022 251.482 379.136 254.894 378.998C252.455 379.92 250.567 382.244 250.298 384.48C249.98 387.153 252.005 389.511 254.101 389.298C256.067 389.097 258.484 386.605 259.299 383.089C259.572 385.621 261.375 388.245 263.404 389.304C265.718 390.508 268.158 389.594 268.337 387.722ZM289.575 399.206C288.657 398.735 286.668 399.077 284.987 400.283C286.151 398.887 286.22 396.966 285.294 395.825C284.261 394.562 282.065 394.36 280.996 395.283C279.888 396.233 279.746 398.581 281.306 400.521C280.207 399.778 277.97 399.357 276.598 399.677C275.154 400.008 274.596 401.261 275.315 401.959C276.035 402.658 278.354 403.038 280.503 402.511C279.239 403.157 278.103 404.68 277.807 405.98C277.482 407.422 278.229 408.488 279.181 408.182C280.049 407.902 281.344 406.413 282.005 404.547C281.974 406.054 282.818 407.564 283.957 408.191C285.326 408.936 287.023 408.354 287.361 407.187C287.68 406.088 286.859 404.253 285.145 403.066C286.562 403.46 288.359 403.06 289.364 402.198C290.509 401.206 290.54 399.699 289.575 399.206ZM260.698 418.276C258.616 417.204 254.091 417.98 250.269 420.718C252.924 417.547 253.075 413.171 250.964 410.587C248.612 407.711 243.621 407.254 241.187 409.348C238.676 411.506 238.353 416.856 241.888 421.262C239.399 419.582 234.302 418.623 231.189 419.335C227.908 420.094 226.64 422.943 228.276 424.528C229.912 426.114 235.178 426.982 240.068 425.785C237.196 427.255 234.602 430.73 233.941 433.682C233.206 436.966 234.904 439.381 237.065 438.691C239.039 438.06 241.98 434.663 243.479 430.423C243.408 433.853 245.322 437.291 247.923 438.707C251.034 440.401 254.899 439.078 255.665 436.423C256.382 433.929 254.516 429.754 250.63 427.049C253.852 427.953 257.932 427.035 260.22 425.079C262.814 422.843 262.892 419.412 260.698 418.276ZM330.495 437.614C328.746 437.956 326.403 440.547 325.407 443.981C325.5 440.839 323.535 438.152 321.051 437.6C318.296 436.989 315.094 439.063 314.624 441.461C314.137 443.934 316.459 447.281 320.647 448.248C318.369 448.416 314.865 450.238 313.348 452.133C311.745 454.129 312.325 456.431 314.051 456.611C315.777 456.79 319.332 454.829 321.69 451.813C320.662 454.042 320.746 457.339 321.743 459.416C322.849 461.725 324.997 462.372 325.965 460.94C326.844 459.638 327.004 456.217 325.909 452.98C327.483 455.064 330.24 456.215 332.458 455.845C335.115 455.393 336.8 452.786 336.012 450.837C335.271 449.004 332.187 447.393 328.589 447.604C330.94 446.63 332.944 444.157 333.394 441.915C333.91 439.342 332.342 437.257 330.495 437.614ZM130.73 378.326C129.146 377.512 125.701 378.1 122.798 380.179C124.812 377.77 124.934 374.441 123.327 372.472C121.539 370.282 117.74 369.941 115.891 371.53C113.979 373.172 113.737 377.241 116.424 380.59C114.528 379.307 110.655 378.583 108.282 379.129C105.782 379.703 104.825 381.87 106.067 383.079C107.31 384.287 111.318 384.94 115.036 384.033C112.852 385.149 110.882 387.792 110.375 390.042C109.818 392.541 111.107 394.377 112.754 393.854C114.255 393.375 116.489 390.787 117.634 387.563C117.583 390.174 119.035 392.787 121.016 393.867C123.38 395.159 126.324 394.152 126.903 392.131C127.449 390.232 126.028 387.06 123.072 385C125.518 385.688 128.627 384.992 130.366 383.499C132.342 381.796 132.4 379.184 130.73 378.326ZM160.352 326.968C158.325 325.923 153.915 326.682 150.198 329.345C152.778 326.259 152.931 321.992 150.868 319.48C148.579 316.683 143.713 316.235 141.344 318.276C138.897 320.38 138.582 325.583 142.026 329.872C139.601 328.233 134.638 327.297 131.604 327.997C128.408 328.736 127.171 331.507 128.772 333.054C130.365 334.595 135.496 335.44 140.253 334.278C137.455 335.707 134.935 339.091 134.291 341.968C133.573 345.169 135.231 347.517 137.337 346.843C139.254 346.228 142.122 342.922 143.586 338.789C143.516 342.132 145.379 345.476 147.91 346.859C150.934 348.508 154.702 347.222 155.449 344.635C156.154 342.201 154.328 338.144 150.546 335.503C153.685 336.384 157.66 335.489 159.881 333.58C162.413 331.412 162.491 328.075 160.352 326.968ZM166.465 364.507C166.676 365.882 165.736 367.164 164.361 367.375C162.987 367.586 161.705 366.646 161.494 365.271C161.282 363.897 162.223 362.615 163.597 362.404C164.972 362.192 166.254 363.133 166.465 364.507ZM207.157 412.013C207.368 413.387 206.428 414.669 205.053 414.88C203.679 415.092 202.397 414.151 202.185 412.777C201.974 411.402 202.914 410.12 204.289 409.909C205.664 409.698 206.947 410.645 207.157 412.013ZM232.312 368.873C232.524 370.247 231.583 371.529 230.209 371.74C228.834 371.951 227.552 371.011 227.341 369.637C227.13 368.262 228.07 366.98 229.445 366.769C230.819 366.558 232.101 367.498 232.312 368.873ZM252.443 395.968C251.777 397.186 250.249 397.632 249.03 396.959C247.811 396.286 247.366 394.765 248.039 393.547C248.705 392.329 250.233 391.882 251.452 392.555C252.67 393.221 253.116 394.749 252.443 395.968ZM316.385 413.362C315.72 414.58 314.192 415.026 312.973 414.354C311.754 413.681 311.309 412.16 311.982 410.941C312.647 409.723 314.175 409.277 315.394 409.95C316.612 410.616 317.051 412.145 316.385 413.362ZM263.056 432.903C262.719 433.509 261.959 433.735 261.346 433.399C260.74 433.062 260.514 432.302 260.85 431.689C261.187 431.084 261.947 430.857 262.56 431.193C263.173 431.529 263.392 432.29 263.056 432.903ZM230.656 410.748C230.319 411.354 229.559 411.58 228.946 411.244C228.341 410.907 228.114 410.147 228.45 409.534C228.787 408.928 229.547 408.702 230.16 409.038C230.774 409.381 230.993 410.142 230.656 410.748ZM187.639 366.611C187.302 367.217 186.542 367.443 185.929 367.107C185.323 366.77 185.097 366.011 185.433 365.398C185.77 364.792 186.53 364.565 187.143 364.901C187.756 365.237 187.968 365.999 187.639 366.611ZM162.183 345.095C161.846 345.701 161.086 345.927 160.474 345.591C159.861 345.255 159.641 344.494 159.977 343.881C160.314 343.275 161.074 343.049 161.687 343.385C162.293 343.722 162.519 344.482 162.183 345.095ZM142.984 379.409C142.647 380.015 141.887 380.241 141.274 379.905C140.661 379.57 140.442 378.809 140.778 378.196C141.115 377.59 141.875 377.364 142.488 377.699C143.101 378.035 143.312 378.797 142.984 379.409ZM160.545 416.443C160.208 417.049 159.448 417.275 158.835 416.939C158.229 416.602 158.003 415.842 158.339 415.229C158.676 414.623 159.436 414.397 160.049 414.733C160.654 415.07 160.873 415.831 160.545 416.443ZM170.254 429.998C169.917 430.604 169.157 430.83 168.544 430.494C167.938 430.157 167.712 429.397 168.048 428.784C168.384 428.171 169.145 427.952 169.758 428.288C170.364 428.625 170.59 429.385 170.254 429.998ZM210.618 440.321C210.281 440.927 209.522 441.153 208.909 440.818C208.303 440.481 208.077 439.721 208.412 439.108C208.749 438.502 209.509 438.276 210.122 438.612C210.735 438.947 210.955 439.716 210.618 440.321ZM276.384 441.448C276.047 442.054 275.287 442.28 274.674 441.944C274.068 441.607 273.842 440.847 274.178 440.234C274.515 439.628 275.274 439.402 275.887 439.738C276.493 440.075 276.72 440.835 276.384 441.448ZM294.179 443.481C293.841 444.086 293.082 444.313 292.469 443.977C291.863 443.64 291.637 442.88 291.972 442.267C292.309 441.661 293.069 441.435 293.682 441.771C294.288 442.108 294.514 442.868 294.179 443.481ZM296.03 422.185C295.866 422.487 295.481 422.597 295.179 422.432C294.877 422.267 294.767 421.883 294.932 421.581C295.097 421.279 295.481 421.169 295.783 421.333C296.085 421.498 296.195 421.882 296.03 422.185ZM272.611 409.315C272.446 409.618 272.062 409.728 271.76 409.563C271.457 409.398 271.347 409.014 271.512 408.711C271.677 408.409 272.061 408.299 272.364 408.464C272.666 408.629 272.782 409.005 272.611 409.315ZM260.191 395.579C260.026 395.881 259.642 395.992 259.34 395.827C259.037 395.662 258.927 395.278 259.092 394.975C259.257 394.673 259.641 394.563 259.944 394.728C260.246 394.893 260.363 395.276 260.191 395.579ZM243.118 383.156C242.953 383.458 242.569 383.568 242.266 383.403C241.964 383.238 241.854 382.854 242.019 382.552C242.184 382.25 242.568 382.14 242.87 382.304C243.173 382.469 243.283 382.853 243.118 383.156ZM229.261 387.064C229.097 387.367 228.712 387.477 228.41 387.312C228.108 387.147 227.998 386.763 228.163 386.461C228.328 386.158 228.712 386.048 229.014 386.213C229.316 386.378 229.434 386.761 229.261 387.064ZM211.163 367.217C210.998 367.519 210.614 367.629 210.312 367.464C210.01 367.299 209.9 366.915 210.064 366.613C210.229 366.31 210.613 366.2 210.916 366.365C211.218 366.53 211.335 366.913 211.163 367.217ZM198.726 356.45C198.561 356.753 198.177 356.863 197.875 356.698C197.572 356.533 197.462 356.149 197.627 355.846C197.792 355.544 198.176 355.434 198.478 355.599C198.781 355.764 198.898 356.147 198.726 356.45ZM223.318 378.085C222.805 377.879 221.857 377.879 220.883 378.466C221.568 377.8 220.92 376.667 220.411 376.155C219.842 375.586 220.186 375.402 219.561 375.841C218.916 376.297 217.924 377.762 218.78 378.637C218.169 378.315 216.872 378.077 216.158 378.697C215.567 379.218 215.559 378.928 215.872 379.302C216.427 379.975 217.064 379.848 218.297 379.571C217.566 379.895 216.853 380.661 217.194 381.505C217.453 382.143 217.039 382.01 217.583 381.853C218.079 381.712 218.711 381.366 219.116 380.488C219.07 381.187 219.501 381.712 220.967 382.099C221.795 382.314 221.309 382.141 221.631 381.625C222.087 380.891 221.882 380.274 220.927 379.75C221.725 379.912 222.885 379.493 223.302 378.649C223.623 377.987 223.861 378.3 223.318 378.085ZM150.849 392.876C150.39 392.64 149.561 392.607 148.728 393.209C149.307 392.515 148.708 391.273 148.241 390.703C147.729 390.075 148.02 389.884 147.485 390.338C146.93 390.81 146.111 392.358 146.887 393.325C146.342 392.956 145.195 392.659 144.587 393.306C144.08 393.844 144.076 393.538 144.358 393.947C144.866 394.692 145.416 394.571 146.492 394.311C145.863 394.634 145.257 395.434 145.582 396.361C145.828 397.06 145.46 396.898 145.932 396.745C146.363 396.606 146.907 396.252 147.238 395.327C147.223 396.08 147.61 396.655 148.913 397.118C149.646 397.377 149.213 397.174 149.48 396.63C149.857 395.857 149.659 395.188 148.802 394.59C149.51 394.788 150.511 394.372 150.848 393.481C151.118 392.776 151.332 393.123 150.849 392.876ZM178.406 347.996C177.947 347.761 177.118 347.728 176.285 348.33C176.863 347.636 176.264 346.394 175.797 345.824C175.285 345.195 175.577 345.005 175.041 345.459C174.487 345.93 173.668 347.478 174.443 348.445C173.898 348.077 172.752 347.779 172.144 348.427C171.636 348.964 171.633 348.658 171.914 349.067C172.423 349.813 172.973 349.692 174.048 349.432C173.42 349.754 172.814 350.555 173.138 351.482C173.384 352.18 173.017 352.018 173.489 351.865C173.92 351.726 174.463 351.373 174.795 350.447C174.779 351.2 175.166 351.775 176.47 352.238C177.202 352.497 176.77 352.294 177.036 351.75C177.413 350.978 177.216 350.308 176.358 349.711C177.067 349.908 178.067 349.492 178.404 348.602C178.676 347.904 178.888 348.243 178.406 347.996ZM219.574 403.914C219.115 403.679 218.286 403.646 217.453 404.248C218.032 403.554 217.432 402.312 216.966 401.742C216.454 401.113 216.745 400.923 216.21 401.377C215.655 401.848 214.836 403.396 215.612 404.363C215.067 403.995 213.92 403.697 213.312 404.345C212.804 404.882 212.801 404.576 213.083 404.985C213.591 405.731 214.141 405.61 215.216 405.35C214.588 405.672 213.982 406.473 214.307 407.4C214.553 408.098 214.185 407.936 214.657 407.783C215.088 407.644 215.631 407.291 215.963 406.365C215.948 407.118 216.335 407.693 217.638 408.156C218.371 408.415 217.938 408.212 218.205 407.668C218.582 406.896 218.384 406.226 217.527 405.629C218.235 405.826 219.235 405.41 219.573 404.52C219.836 403.816 220.057 404.161 219.574 403.914ZM266.231 404.566C265.772 404.33 264.943 404.297 264.11 404.899C264.688 404.205 264.089 402.963 263.623 402.393C263.11 401.765 263.402 401.574 262.867 402.028C262.312 402.5 261.493 404.047 262.268 405.014C261.723 404.646 260.577 404.349 259.969 404.996C259.461 405.533 259.458 405.228 259.74 405.636C260.248 406.382 260.798 406.261 261.873 406.001C261.245 406.324 260.639 407.124 260.964 408.051C261.209 408.749 260.842 408.587 261.314 408.434C261.745 408.295 262.288 407.942 262.62 407.016C262.604 407.77 262.992 408.344 264.295 408.807C265.027 409.067 264.595 408.863 264.862 408.319C265.239 407.547 265.041 406.877 264.184 406.28C264.892 406.478 265.892 406.061 266.229 405.171C266.5 404.466 266.714 404.812 266.231 404.566ZM282.134 427.966C281.675 427.73 280.846 427.697 280.013 428.299C280.591 427.605 279.992 426.363 279.525 425.793C279.013 425.165 279.305 424.974 278.77 425.428C278.215 425.9 277.396 427.448 278.171 428.415C277.626 428.046 276.48 427.749 275.872 428.396C275.364 428.934 275.361 428.628 275.642 429.037C276.151 429.782 276.701 429.661 277.776 429.401C277.148 429.724 276.542 430.524 276.867 431.451C277.112 432.15 276.745 431.988 277.217 431.835C277.648 431.696 278.191 431.342 278.523 430.417C278.507 431.17 278.895 431.745 280.198 432.208C280.93 432.467 280.498 432.264 280.764 431.72C281.141 430.947 280.944 430.278 280.087 429.68C280.795 429.878 281.795 429.462 282.132 428.571C282.404 427.873 282.617 428.213 282.134 427.966ZM311.539 431.4C311.08 431.165 310.251 431.132 309.418 431.734C309.997 431.039 309.397 429.797 308.931 429.228C308.419 428.599 308.71 428.409 308.175 428.863C307.62 429.334 306.801 430.882 307.577 431.849C307.032 431.481 305.885 431.183 305.277 431.83C304.769 432.368 304.766 432.062 305.048 432.471C305.556 433.217 306.106 433.096 307.182 432.835C306.553 433.158 305.947 433.958 306.272 434.885C306.518 435.584 306.15 435.422 306.622 435.269C307.053 435.13 307.597 434.777 307.928 433.851C307.913 434.604 308.3 435.179 309.603 435.642C310.336 435.901 309.903 435.698 310.17 435.154C310.547 434.381 310.349 433.712 309.492 433.115C310.2 433.312 311.201 432.896 311.538 432.006C311.808 431.301 312.022 431.647 311.539 431.4ZM311.586 416.907C311.127 416.671 310.298 416.638 309.465 417.24C310.044 416.546 309.444 415.304 308.978 414.734C308.466 414.106 308.757 413.915 308.222 414.369C307.667 414.841 306.848 416.388 307.624 417.356C307.079 416.987 305.932 416.69 305.324 417.337C304.816 417.875 304.813 417.569 305.095 417.978C305.603 418.723 306.153 418.602 307.228 418.342C306.6 418.665 305.994 419.465 306.319 420.392C306.565 421.091 306.197 420.928 306.669 420.776C307.1 420.637 307.643 420.283 307.975 419.357C307.96 420.111 308.347 420.685 309.65 421.149C310.383 421.408 309.95 421.205 310.217 420.661C310.594 419.888 310.396 419.219 309.539 418.621C310.247 418.819 311.247 418.402 311.585 417.512C311.848 416.808 312.062 417.155 311.586 416.907ZM224.047 426.279C223.588 426.044 222.759 426.011 221.926 426.613C222.504 425.919 221.905 424.676 221.439 424.107C220.926 423.478 221.218 423.288 220.683 423.742C220.128 424.213 219.309 425.761 220.084 426.728C219.539 426.36 218.393 426.062 217.785 426.71C217.277 427.247 217.274 426.941 217.555 427.35C218.064 428.096 218.614 427.975 219.689 427.715C219.061 428.037 218.455 428.837 218.78 429.764C219.025 430.463 218.658 430.301 219.13 430.148C219.561 430.009 220.104 429.656 220.436 428.73C220.42 429.483 220.808 430.058 222.111 430.521C222.843 430.78 222.411 430.577 222.677 430.033C223.054 429.26 222.857 428.591 222 427.994C222.708 428.191 223.708 427.775 224.045 426.885C224.317 426.187 224.531 426.533 224.047 426.279ZM191.326 395.25C190.867 395.014 190.038 394.981 189.205 395.583C189.784 394.889 189.184 393.647 188.718 393.077C188.206 392.449 188.497 392.258 187.962 392.712C187.407 393.184 186.588 394.732 187.364 395.699C186.819 395.33 185.672 395.033 185.064 395.68C184.556 396.218 184.553 395.912 184.835 396.321C185.343 397.066 185.893 396.945 186.968 396.685C186.34 397.008 185.734 397.808 186.059 398.735C186.305 399.434 185.937 399.272 186.409 399.119C186.84 398.98 187.383 398.626 187.715 397.701C187.7 398.454 188.087 399.029 189.39 399.492C190.123 399.751 189.69 399.548 189.957 399.004C190.334 398.231 190.136 397.562 189.279 396.965C189.987 397.162 190.987 396.746 191.325 395.855C191.595 395.15 191.809 395.497 191.326 395.25ZM184.534 387.392C184.075 387.157 183.246 387.124 182.413 387.726C182.991 387.032 182.392 385.79 181.926 385.22C181.413 384.591 181.705 384.401 181.17 384.855C180.615 385.326 179.796 386.874 180.571 387.841C180.026 387.473 178.88 387.175 178.272 387.823C177.764 388.36 177.761 388.054 178.042 388.463C178.551 389.209 179.101 389.088 180.176 388.828C179.548 389.15 178.942 389.951 179.267 390.878C179.512 391.576 179.145 391.414 179.617 391.261C180.048 391.122 180.591 390.769 180.923 389.843C180.907 390.596 181.295 391.171 182.598 391.634C183.33 391.893 182.898 391.69 183.164 391.146C183.541 390.374 183.344 389.704 182.487 389.107C183.195 389.304 184.195 388.888 184.532 387.998C184.804 387.3 185.017 387.639 184.534 387.392ZM185.492 375.128C185.033 374.893 184.204 374.86 183.371 375.462C183.95 374.768 183.35 373.526 182.884 372.956C182.372 372.327 182.663 372.137 182.128 372.591C181.573 373.062 180.754 374.61 181.53 375.577C180.985 375.209 179.838 374.911 179.23 375.559C178.722 376.096 178.719 375.79 179.001 376.199C179.509 376.945 180.059 376.824 181.135 376.564C180.506 376.886 179.9 377.687 180.225 378.614C180.471 379.312 180.103 379.15 180.575 378.997C181.006 378.858 181.55 378.505 181.881 377.579C181.866 378.332 182.253 378.907 183.556 379.37C184.289 379.629 183.856 379.426 184.123 378.882C184.5 378.11 184.302 377.44 183.445 376.843C184.153 377.04 185.154 376.624 185.491 375.734C185.761 375.029 185.975 375.375 185.492 375.128Z" fill="#FFCD05" fill-opacity="0.24"/>
<path d="M629.729 644.952L578.337 778.465C639.752 798.908 750.637 806.619 803.466 780.176L762.531 656.714L728.349 714.853L696.055 639.222L684.813 688.313L669.472 582.638L633.239 723.516L629.729 644.952Z" fill="#0C3932"/>
<g clip-path="url(#clip1)">
<path d="M302.952 292.943L299.04 276.813L241.726 268.022L293.689 254.395L256.786 100.231L214.011 164.578L237.502 180.05L207.133 174.876L182.469 211.996L209.014 232.699L172.771 226.525L146.329 266.261L219.961 278.804L213.137 318.861L225.036 320.888L231.86 280.831L302.952 292.943Z" fill="#0C3932"/>
</g>
<path d="M1186.98 819.208L1206.5 872L1322 868.5L1294 843.5L1266.76 819.015C1258.73 811.797 1252.72 802.605 1249.34 792.35C1243.16 773.589 1246.29 753.004 1257.79 736.938L1263.01 729.642C1276.6 710.651 1292.91 693.765 1311.41 679.528C1336.02 660.6 1363.12 645.164 1391.96 633.657L1457.5 607.5L1449 597.5L1358 626.5L1333.34 636.983C1281.61 658.976 1236.22 693.597 1201.33 737.676L1199.59 739.877C1181.83 762.31 1177.06 792.375 1186.98 819.208Z" fill="#1F1919"/>
<g filter="url(#filter1_d)">
<path d="M1440 1808V858C1132.5 866 882 888.72 685 872.22C471.612 854.348 159.798 586.023 0 656V1808H1440Z" fill="#005245"/>
</g>
<g clip-path="url(#clip2)">
<path d="M343.379 1002.58L331.195 980.02L242.107 989.407L314.391 948.628L198.674 732.789L160.047 845.74L201.226 859.626L153.819 863.83L131.554 928.983L179.351 949.485L122.772 954.501L98.8797 1024.26L213.824 1014.07L219.368 1076.6L237.943 1074.95L232.398 1012.42L343.379 1002.58Z" fill="#0C3932"/>
</g>
<path d="M1075.02 1185.13L974.367 1395.39C1071.5 1436.5 1250.62 1463.29 1339.84 1427.13L1289.23 1221.32L1226.22 1311.36L1183.5 1184.35L1158.92 1262.65L1147.59 1089.02L1070.62 1313.2L1075.02 1185.13Z" fill="#0C3932"/>
<path d="M1422.78 948.344C1422.31 950.07 1423.61 953.333 1426.27 955.745C1423.48 954.273 1420.18 954.863 1418.59 956.852C1416.82 959.069 1417.28 962.875 1419.24 964.358C1421.26 965.886 1425.3 965.273 1428.02 961.925C1427.16 964.054 1427.27 968.019 1428.3 970.23C1429.39 972.558 1431.72 973.052 1432.65 971.569C1433.58 970.092 1433.38 966.017 1431.7 962.557C1433.26 964.473 1436.26 965.847 1438.58 965.863C1441.15 965.881 1442.68 964.232 1441.82 962.721C1441.04 961.35 1438.02 959.698 1434.61 959.254C1437.19 958.754 1439.45 956.773 1440.09 954.608C1440.86 952.015 1439.25 949.336 1437.14 949.187C1435.16 949.053 1432.34 951.116 1430.95 954.453C1431.11 951.904 1429.76 948.998 1427.93 947.606C1425.84 946.032 1423.27 946.521 1422.78 948.344ZM1452.82 919.07C1451.72 919.165 1450.12 920.598 1449.28 922.641C1449.55 920.72 1448.52 918.941 1447.03 918.442C1445.39 917.886 1443.28 918.949 1442.84 920.39C1442.38 921.876 1443.58 924.083 1446.09 924.949C1444.68 924.903 1442.42 925.79 1441.35 926.852C1440.23 927.971 1440.44 929.419 1441.49 929.644C1442.53 929.869 1444.84 928.898 1446.49 927.206C1445.71 928.51 1445.55 930.536 1446.02 931.869C1446.55 933.355 1447.83 933.89 1448.52 933.083C1449.14 932.343 1449.47 930.252 1449 928.196C1449.83 929.575 1451.45 930.464 1452.83 930.38C1454.49 930.28 1455.7 928.792 1455.34 927.544C1455 926.37 1453.22 925.182 1451 925.072C1452.51 924.632 1453.9 923.245 1454.32 921.9C1454.8 920.354 1453.97 918.975 1452.82 919.07ZM1446.12 896.492C1446.09 895.171 1444.5 893.12 1442.13 891.945C1444.42 892.42 1446.64 891.335 1447.36 889.597C1448.17 887.664 1447.07 885.053 1445.38 884.401C1443.64 883.724 1440.89 884.981 1439.64 887.919C1439.82 886.233 1438.93 883.437 1437.75 882.078C1436.5 880.641 1434.74 880.77 1434.39 882.007C1434.03 883.243 1435 886.097 1436.9 888.211C1435.4 887.168 1432.98 886.806 1431.33 887.256C1429.51 887.764 1428.75 889.249 1429.67 890.148C1430.51 890.963 1432.98 891.524 1435.49 891.147C1433.77 892.023 1432.56 893.89 1432.55 895.558C1432.53 897.553 1434.21 899.129 1435.74 898.804C1437.18 898.503 1438.76 896.458 1439.07 893.806C1439.47 895.648 1441.02 897.444 1442.6 898.057C1444.41 898.76 1446.14 897.89 1446.12 896.492ZM1509.94 893.755C1509.14 892.162 1506 890.593 1502.4 890.566C1505.47 889.805 1507.53 887.168 1507.39 884.622C1507.23 881.787 1504.35 879.256 1501.91 879.453C1499.39 879.653 1496.79 882.81 1496.98 887.127C1496.21 884.965 1493.49 882.082 1491.24 881.122C1488.88 880.113 1486.8 881.301 1487.1 883.022C1487.4 884.738 1490.26 887.642 1493.82 889.103C1491.38 888.72 1488.22 889.695 1486.48 891.221C1484.55 892.918 1484.51 895.174 1486.16 895.72C1487.66 896.22 1491.01 895.443 1493.84 893.504C1492.26 895.59 1491.89 898.577 1492.86 900.624C1494.01 903.069 1496.99 903.995 1498.67 902.695C1500.23 901.475 1500.96 898.063 1499.78 894.635C1501.36 896.645 1504.3 897.917 1506.59 897.735C1509.2 897.526 1510.79 895.445 1509.94 893.755ZM1387.78 959.202C1386 959.354 1383.38 961.693 1382.02 965.013C1382.45 961.887 1380.77 958.988 1378.36 958.17C1375.66 957.26 1372.25 958.997 1371.52 961.336C1370.77 963.755 1372.74 967.348 1376.81 968.765C1374.51 968.684 1370.83 970.135 1369.1 971.867C1367.28 973.69 1367.62 976.045 1369.32 976.411C1371.03 976.777 1374.79 975.193 1377.47 972.437C1376.2 974.552 1375.94 977.854 1376.71 980.04C1377.57 982.464 1379.64 983.34 1380.77 982.015C1381.79 980.807 1382.31 977.411 1381.56 974.055C1382.91 976.305 1385.54 977.755 1387.81 977.617C1390.51 977.455 1392.48 975.027 1391.89 972.997C1391.34 971.089 1388.44 969.147 1384.82 968.97C1387.27 968.251 1389.55 965.999 1390.23 963.801C1391.01 961.296 1389.66 959.041 1387.78 959.202ZM1385.59 899.67C1383.31 899.862 1379.96 902.862 1378.21 907.113C1378.76 903.108 1376.62 899.394 1373.52 898.357C1370.08 897.197 1365.7 899.413 1364.77 902.415C1363.81 905.512 1366.32 910.11 1371.54 911.924C1368.6 911.822 1363.87 913.674 1361.66 915.889C1359.34 918.225 1359.76 921.243 1361.95 921.706C1364.13 922.168 1368.95 920.148 1372.38 916.621C1370.76 919.331 1370.42 923.556 1371.41 926.349C1372.51 929.458 1375.17 930.571 1376.6 928.874C1377.91 927.327 1378.58 922.982 1377.62 918.682C1379.35 921.565 1382.72 923.417 1385.61 923.244C1389.07 923.034 1391.59 919.928 1390.84 917.327C1390.15 914.879 1386.42 912.4 1381.8 912.17C1384.94 911.244 1387.84 908.361 1388.72 905.55C1389.71 902.353 1388 899.471 1385.59 899.67ZM1410.83 928.365C1411.74 929.422 1411.63 931.016 1410.57 931.929C1409.51 932.843 1407.92 932.726 1407 931.669C1406.09 930.611 1406.21 929.018 1407.26 928.105C1408.32 927.191 1409.91 927.308 1410.83 928.365ZM1470.82 947.088C1471.74 948.146 1471.62 949.739 1470.56 950.652C1469.51 951.566 1467.91 951.45 1467 950.392C1466.09 949.335 1466.2 947.742 1467.26 946.828C1468.32 945.915 1469.92 946.036 1470.82 947.088ZM1469.21 896.936C1470.13 897.994 1470.01 899.587 1468.95 900.5C1467.9 901.414 1466.3 901.298 1465.39 900.24C1464.48 899.183 1464.59 897.59 1465.65 896.676C1466.71 895.763 1468.3 895.879 1469.21 896.936ZM1500.81 909.259C1500.9 910.651 1499.83 911.846 1498.44 911.924C1497.04 912.002 1495.85 910.944 1495.77 909.548C1495.69 908.156 1496.75 906.96 1498.15 906.882C1499.54 906.799 1500.74 907.862 1500.81 909.259ZM1490.16 933.469C1490.19 934.165 1489.67 934.763 1488.96 934.804C1488.27 934.841 1487.67 934.315 1487.63 933.614C1487.59 932.918 1488.12 932.32 1488.82 932.279C1489.53 932.243 1490.12 932.774 1490.16 933.469ZM1429.98 918.855C1430.01 919.551 1429.49 920.149 1428.79 920.19C1428.09 920.226 1427.49 919.7 1427.45 918.999C1427.41 918.303 1427.94 917.705 1428.64 917.664C1429.34 917.623 1429.93 918.159 1429.98 918.855ZM1396.82 914.124C1396.86 914.82 1396.33 915.418 1395.63 915.459C1394.93 915.5 1394.34 914.969 1394.3 914.268C1394.26 913.572 1394.79 912.974 1395.49 912.933C1396.18 912.897 1396.78 913.423 1396.82 914.124ZM1398.79 953.584C1398.83 954.28 1398.3 954.878 1397.6 954.919C1396.9 954.96 1396.31 954.429 1396.27 953.728C1396.23 953.032 1396.76 952.434 1397.46 952.393C1398.16 952.352 1398.75 952.888 1398.79 953.584ZM1433.51 975.738C1433.54 976.434 1433.02 977.032 1432.32 977.073C1431.62 977.11 1431.02 976.584 1430.98 975.883C1430.95 975.187 1431.47 974.589 1432.17 974.548C1432.87 974.511 1433.46 975.042 1433.51 975.738ZM1449.01 982.096C1449.04 982.792 1448.52 983.39 1447.82 983.431C1447.12 983.467 1446.52 982.941 1446.48 982.24C1446.44 981.539 1446.97 980.946 1447.67 980.905C1448.37 980.869 1448.97 981.395 1449.01 982.096ZM1488.88 969.34C1488.92 970.036 1488.39 970.634 1487.69 970.675C1486.99 970.712 1486.4 970.186 1486.36 969.485C1486.32 968.789 1486.84 968.191 1487.55 968.15C1488.25 968.108 1488.84 968.645 1488.88 969.34ZM1507.2 904.792C1507.22 905.138 1506.96 905.436 1506.61 905.457C1506.26 905.478 1505.97 905.21 1505.94 904.865C1505.92 904.519 1506.19 904.22 1506.54 904.199C1506.88 904.178 1507.19 904.442 1507.2 904.792ZM1486.04 903.329C1486.06 903.674 1485.79 903.973 1485.44 903.994C1485.1 904.015 1484.8 903.747 1484.78 903.401C1484.76 903.056 1485.03 902.757 1485.37 902.736C1485.72 902.715 1486.02 902.983 1486.04 903.329ZM1476.33 914.052C1476.35 914.397 1476.08 914.696 1475.73 914.717C1475.39 914.738 1475.09 914.47 1475.07 914.124C1475.05 913.779 1475.32 913.48 1475.66 913.459C1476.01 913.438 1476.31 913.701 1476.33 914.052ZM1450.33 906.815C1450.35 907.16 1450.08 907.459 1449.73 907.48C1449.39 907.501 1449.09 907.232 1449.07 906.887C1449.05 906.541 1449.32 906.243 1449.66 906.222C1450.01 906.201 1450.31 906.464 1450.33 906.815ZM1433.99 904.287C1434.01 904.633 1433.74 904.931 1433.4 904.952C1433.05 904.973 1432.76 904.705 1432.73 904.36C1432.71 904.014 1432.98 903.715 1433.33 903.694C1433.67 903.673 1433.98 903.937 1433.99 904.287ZM1466.47 909.58C1465.93 909.679 1465.12 910.184 1464.61 911.204C1464.83 910.271 1463.68 909.653 1462.97 909.488C1462.18 909.307 1462.38 908.967 1462.08 909.675C1461.77 910.407 1461.71 912.184 1462.91 912.471C1462.21 912.523 1460.98 913.013 1460.71 913.922C1460.48 914.681 1460.32 914.438 1460.79 914.59C1461.62 914.867 1462.09 914.419 1462.99 913.525C1462.54 914.19 1462.35 915.223 1463.09 915.759C1463.65 916.165 1463.22 916.272 1463.6 915.848C1463.95 915.463 1464.3 914.832 1464.18 913.868C1464.51 914.488 1465.16 914.704 1466.62 914.251C1467.44 913.993 1466.93 914.105 1466.93 913.494C1466.92 912.626 1466.42 912.209 1465.33 912.273C1466.09 911.985 1466.86 911.009 1466.76 910.068C1466.68 909.333 1467.05 909.473 1466.47 909.58ZM1412.68 960.85C1412.16 960.895 1411.44 961.309 1411.05 962.266C1411.17 961.366 1410 960.629 1409.3 960.393C1408.52 960.131 1408.67 959.813 1408.46 960.486C1408.24 961.183 1408.37 962.938 1409.54 963.347C1408.88 963.325 1407.75 963.683 1407.57 964.559C1407.43 965.287 1407.26 965.029 1407.72 965.226C1408.55 965.59 1408.96 965.193 1409.73 964.398C1409.37 965.008 1409.28 966.013 1410.05 966.629C1410.63 967.092 1410.23 967.15 1410.55 966.768C1410.85 966.42 1411.12 965.829 1410.91 964.864C1411.3 965.513 1411.93 965.796 1413.29 965.495C1414.05 965.324 1413.58 965.382 1413.51 964.777C1413.42 963.918 1412.9 963.453 1411.85 963.403C1412.56 963.192 1413.19 962.304 1413 961.366C1412.85 960.622 1413.22 960.802 1412.68 960.85ZM1412.18 907.936C1411.66 907.98 1410.94 908.394 1410.55 909.352C1410.68 908.452 1409.5 907.714 1408.8 907.478C1408.03 907.217 1408.18 906.899 1407.96 907.571C1407.74 908.269 1407.87 910.023 1409.05 910.433C1408.39 910.41 1407.25 910.769 1407.08 911.644C1406.93 912.373 1406.77 912.114 1407.23 912.312C1408.06 912.675 1408.46 912.279 1409.24 911.483C1408.87 912.094 1408.79 913.098 1409.56 913.714C1410.14 914.178 1409.74 914.236 1410.06 913.854C1410.35 913.505 1410.63 912.914 1410.41 911.949C1410.8 912.599 1411.44 912.881 1412.8 912.58C1413.56 912.41 1413.08 912.467 1413.02 911.862C1412.93 911.003 1412.4 910.539 1411.35 910.488C1412.06 910.278 1412.69 909.39 1412.5 908.452C1412.36 907.713 1412.72 907.888 1412.18 907.936ZM1477.07 933.567C1476.56 933.611 1475.83 934.025 1475.45 934.983C1475.57 934.083 1474.39 933.345 1473.69 933.109C1472.92 932.848 1473.07 932.53 1472.86 933.202C1472.63 933.9 1472.76 935.654 1473.94 936.064C1473.28 936.041 1472.14 936.4 1471.97 937.275C1471.83 938.004 1471.66 937.745 1472.12 937.943C1472.95 938.306 1473.35 937.91 1474.13 937.114C1473.77 937.724 1473.68 938.729 1474.45 939.345C1475.03 939.808 1474.63 939.867 1474.95 939.484C1475.25 939.136 1475.52 938.545 1475.31 937.58C1475.7 938.23 1476.33 938.512 1477.69 938.211C1478.45 938.041 1477.97 938.098 1477.91 937.493C1477.82 936.634 1477.29 936.17 1476.25 936.119C1476.95 935.909 1477.58 935.021 1477.4 934.083C1477.24 933.343 1477.62 933.519 1477.07 933.567ZM1492.82 950.219C1492.3 950.263 1491.58 950.678 1491.19 951.635C1491.31 950.735 1490.14 949.998 1489.44 949.762C1488.67 949.5 1488.81 949.182 1488.6 949.854C1488.38 950.552 1488.51 952.307 1489.68 952.716C1489.02 952.693 1487.89 953.052 1487.72 953.927C1487.57 954.656 1487.41 954.397 1487.86 954.595C1488.69 954.959 1489.1 954.562 1489.87 953.767C1489.51 954.377 1489.42 955.381 1490.19 955.997C1490.78 956.461 1490.38 956.519 1490.7 956.137C1490.99 955.788 1491.26 955.198 1491.05 954.232C1491.44 954.882 1492.08 955.165 1493.43 954.863C1494.2 954.693 1493.72 954.751 1493.66 954.145C1493.56 953.287 1493.04 952.822 1491.99 952.771C1492.7 952.561 1493.33 951.673 1493.14 950.735C1493 949.996 1493.37 950.177 1492.82 950.219ZM1448.4 941.267C1447.88 941.312 1447.16 941.726 1446.77 942.683C1446.9 941.784 1445.72 941.046 1445.02 940.81C1444.25 940.548 1444.4 940.231 1444.18 940.903C1443.96 941.6 1444.09 943.355 1445.27 943.764C1444.61 943.742 1443.47 944.1 1443.3 944.976C1443.15 945.704 1442.99 945.446 1443.45 945.644C1444.28 946.007 1444.68 945.611 1445.46 944.815C1445.09 945.425 1445.01 946.43 1445.78 947.046C1446.36 947.509 1445.96 947.567 1446.28 947.185C1446.57 946.837 1446.85 946.246 1446.64 945.281C1447.02 945.931 1447.66 946.213 1449.02 945.912C1449.78 945.742 1449.3 945.799 1449.24 945.194C1449.15 944.335 1448.62 943.871 1447.57 943.82C1448.28 943.61 1448.91 942.721 1448.72 941.784C1448.58 941.039 1448.94 941.22 1448.4 941.267ZM1438.43 938.203C1437.91 938.248 1437.19 938.662 1436.8 939.619C1436.92 938.72 1435.75 937.982 1435.04 937.746C1434.27 937.484 1434.42 937.167 1434.21 937.839C1433.99 938.536 1434.11 940.291 1435.29 940.7C1434.63 940.678 1433.5 941.036 1433.32 941.912C1433.18 942.64 1433.01 942.382 1433.47 942.58C1434.3 942.943 1434.7 942.546 1435.48 941.751C1435.12 942.361 1435.03 943.366 1435.8 943.982C1436.38 944.445 1435.98 944.503 1436.3 944.121C1436.6 943.773 1436.87 943.182 1436.66 942.217C1437.05 942.866 1437.68 943.149 1439.04 942.848C1439.8 942.677 1439.33 942.735 1439.26 942.13C1439.17 941.271 1438.65 940.807 1437.6 940.756C1438.31 940.546 1438.94 939.657 1438.75 938.72C1438.61 937.98 1438.97 938.156 1438.43 938.203ZM1432.7 927.251C1432.18 927.296 1431.46 927.71 1431.07 928.667C1431.19 927.768 1430.02 927.03 1429.32 926.794C1428.54 926.532 1428.69 926.215 1428.48 926.887C1428.26 927.584 1428.38 929.339 1429.56 929.748C1428.9 929.726 1427.77 930.084 1427.59 930.96C1427.45 931.688 1427.28 931.43 1427.74 931.628C1428.57 931.991 1428.97 931.595 1429.75 930.799C1429.39 931.409 1429.3 932.414 1430.07 933.03C1430.65 933.493 1430.25 933.551 1430.57 933.169C1430.87 932.821 1431.14 932.23 1430.93 931.265C1431.32 931.914 1431.95 932.197 1433.31 931.896C1434.07 931.726 1433.6 931.783 1433.53 931.178C1433.44 930.319 1432.92 929.855 1431.87 929.804C1432.58 929.594 1433.21 928.705 1433.02 927.768C1432.87 927.023 1433.24 927.204 1432.7 927.251Z" fill="#FFCD05"/>
<path d="M1433.5 1015.29C1433.67 1013.51 1431.84 1010.51 1428.81 1008.58C1431.81 1009.56 1434.97 1008.43 1436.2 1006.2C1437.58 1003.72 1436.49 1000.04 1434.31 998.91C1432.06 997.741 1428.18 999.023 1426.05 1002.78C1426.54 1000.54 1425.77 996.645 1424.39 994.638C1422.92 992.526 1420.54 992.43 1419.87 994.047C1419.21 995.658 1420.09 999.642 1422.32 1002.77C1420.46 1001.14 1417.27 1000.29 1414.98 1000.67C1412.45 1001.08 1411.21 1002.96 1412.32 1004.31C1413.32 1005.53 1416.57 1006.65 1420 1006.52C1417.55 1007.44 1415.65 1009.77 1415.38 1012.01C1415.06 1014.7 1417.09 1017.07 1419.2 1016.86C1421.17 1016.67 1423.61 1014.16 1424.42 1010.64C1424.69 1013.18 1426.5 1015.82 1428.54 1016.88C1430.86 1018.08 1433.32 1017.17 1433.5 1015.29ZM1408.78 1049.18C1409.85 1048.91 1411.19 1047.22 1411.67 1045.07C1411.73 1047.01 1413.05 1048.59 1414.59 1048.83C1416.31 1049.1 1418.21 1047.7 1418.4 1046.21C1418.6 1044.67 1417.05 1042.69 1414.43 1042.26C1415.83 1042.07 1417.91 1040.82 1418.78 1039.59C1419.7 1038.3 1419.25 1036.91 1418.18 1036.86C1417.11 1036.81 1415 1038.16 1413.66 1040.1C1414.21 1038.69 1414.03 1036.66 1413.34 1035.43C1412.57 1034.05 1411.22 1033.74 1410.68 1034.65C1410.19 1035.48 1410.22 1037.6 1411.02 1039.55C1409.97 1038.32 1408.23 1037.72 1406.88 1038.03C1405.26 1038.41 1404.32 1040.08 1404.88 1041.25C1405.41 1042.35 1407.36 1043.22 1409.57 1042.96C1408.16 1043.65 1407.02 1045.25 1406.83 1046.64C1406.62 1048.25 1407.66 1049.47 1408.78 1049.18ZM1419.17 1070.32C1419.42 1071.62 1421.33 1073.37 1423.86 1074.13C1421.53 1074.05 1419.52 1075.49 1419.1 1077.33C1418.62 1079.37 1420.14 1081.76 1421.92 1082.12C1423.75 1082.49 1426.25 1080.79 1427 1077.69C1427.1 1079.38 1428.44 1081.99 1429.84 1083.13C1431.31 1084.33 1433.02 1083.91 1433.16 1082.64C1433.31 1081.36 1431.87 1078.71 1429.65 1076.94C1431.3 1077.72 1433.74 1077.67 1435.29 1076.95C1437.01 1076.14 1437.51 1074.55 1436.45 1073.82C1435.49 1073.16 1432.95 1073.02 1430.54 1073.81C1432.1 1072.66 1432.97 1070.61 1432.71 1068.97C1432.39 1067 1430.47 1065.73 1429.01 1066.3C1427.65 1066.84 1426.43 1069.12 1426.57 1071.79C1425.86 1070.04 1424.04 1068.53 1422.38 1068.19C1420.47 1067.8 1418.92 1068.94 1419.17 1070.32ZM1356.71 1083.71C1357.76 1085.14 1361.13 1086.16 1364.67 1085.59C1361.78 1086.85 1360.18 1089.8 1360.75 1092.28C1361.39 1095.05 1364.64 1097.06 1367.02 1096.46C1369.47 1095.84 1371.51 1092.29 1370.59 1088.07C1371.72 1090.07 1374.89 1092.46 1377.26 1093.03C1379.76 1093.63 1381.6 1092.11 1381.02 1090.46C1380.44 1088.82 1377.13 1086.44 1373.38 1085.59C1375.85 1085.56 1378.8 1084.07 1380.26 1082.28C1381.88 1080.28 1381.54 1078.05 1379.82 1077.79C1378.26 1077.55 1375.09 1078.87 1372.62 1081.26C1373.83 1078.94 1373.69 1075.93 1372.4 1074.07C1370.85 1071.86 1367.76 1071.44 1366.33 1073C1364.99 1074.47 1364.84 1077.95 1366.58 1081.14C1364.68 1079.42 1361.58 1078.66 1359.35 1079.22C1356.81 1079.87 1355.59 1082.18 1356.71 1083.71ZM1333.1 1089.3C1334.1 1089.04 1335.37 1087.45 1335.82 1085.42C1335.88 1087.25 1337.11 1088.73 1338.57 1088.97C1340.19 1089.23 1341.97 1087.91 1342.16 1086.5C1342.35 1085.05 1340.89 1083.19 1338.42 1082.78C1339.74 1082.6 1341.7 1081.42 1342.52 1080.27C1343.38 1079.05 1342.96 1077.74 1341.95 1077.7C1340.94 1077.65 1338.95 1078.92 1337.69 1080.75C1338.21 1079.42 1338.04 1077.52 1337.39 1076.35C1336.67 1075.05 1335.4 1074.75 1334.89 1075.62C1334.43 1076.41 1334.45 1078.39 1335.2 1080.23C1334.22 1079.08 1332.58 1078.51 1331.3 1078.8C1329.78 1079.16 1328.9 1080.73 1329.42 1081.83C1329.92 1082.87 1331.76 1083.7 1333.84 1083.44C1332.51 1084.09 1331.43 1085.59 1331.26 1086.91C1331.06 1088.42 1332.05 1089.57 1333.1 1089.3ZM1342 1055.68C1344.28 1055.1 1347.15 1051.49 1348.19 1046.88C1348.32 1051.03 1351.13 1054.42 1354.44 1054.94C1358.13 1055.53 1362.18 1052.53 1362.6 1049.33C1363.04 1046.03 1359.71 1041.81 1354.11 1040.87C1357.1 1040.46 1361.56 1037.77 1363.42 1035.16C1365.37 1032.39 1364.42 1029.41 1362.13 1029.31C1359.84 1029.22 1355.32 1032.09 1352.45 1036.26C1353.62 1033.23 1353.24 1028.89 1351.76 1026.24C1350.12 1023.28 1347.23 1022.61 1346.07 1024.57C1345.01 1026.36 1345.08 1030.88 1346.79 1035.06C1344.55 1032.44 1340.81 1031.14 1337.92 1031.82C1334.45 1032.63 1332.44 1036.21 1333.64 1038.71C1334.77 1041.06 1338.96 1042.94 1343.68 1042.37C1340.66 1043.85 1338.22 1047.27 1337.81 1050.26C1337.36 1053.68 1339.6 1056.3 1342 1055.68ZM1276.73 1087.86C1277.81 1086.44 1277.83 1082.93 1276.28 1079.68C1278.32 1082.1 1281.59 1082.8 1283.82 1081.56C1286.29 1080.17 1287.31 1076.48 1286.06 1074.36C1284.77 1072.18 1280.79 1071.23 1277 1073.3C1278.6 1071.65 1280.01 1067.94 1279.88 1065.51C1279.74 1062.94 1277.77 1061.6 1276.35 1062.62C1274.94 1063.64 1273.58 1067.49 1273.83 1071.33C1273.11 1068.97 1270.85 1066.55 1268.71 1065.66C1266.34 1064.67 1264.29 1065.62 1264.52 1067.34C1264.74 1068.9 1266.9 1071.58 1269.89 1073.27C1267.32 1072.76 1264.48 1073.74 1263.06 1075.5C1261.37 1077.62 1261.85 1080.7 1263.75 1081.64C1265.53 1082.51 1268.92 1081.66 1271.48 1079.1C1270.36 1081.4 1270.52 1084.59 1271.68 1086.58C1273.01 1088.85 1275.58 1089.36 1276.73 1087.86ZM1466.18 998.725C1467.91 998.276 1470.1 995.531 1470.89 992.031C1470.99 995.184 1473.13 997.762 1475.65 998.164C1478.45 998.61 1481.53 996.325 1481.85 993.898C1482.19 991.387 1479.65 988.174 1475.4 987.459C1477.68 987.154 1481.06 985.107 1482.48 983.11C1483.97 981.007 1483.24 978.742 1481.5 978.667C1479.76 978.592 1476.31 980.783 1474.13 983.949C1475.02 981.652 1474.73 978.353 1473.61 976.326C1472.36 974.08 1470.16 973.565 1469.28 975.059C1468.47 976.421 1468.53 979.857 1469.82 983.04C1468.12 981.048 1465.28 980.059 1463.07 980.574C1460.44 981.186 1458.9 983.91 1459.82 985.812C1460.68 987.602 1463.87 989.031 1467.46 988.599C1465.17 989.719 1463.3 992.32 1462.99 994.602C1462.65 997.201 1464.35 999.198 1466.18 998.725ZM1478.31 1057.05C1480.53 1056.48 1483.33 1052.96 1484.34 1048.47C1484.47 1052.52 1487.21 1055.82 1490.43 1056.32C1494.02 1056.89 1497.97 1053.97 1498.38 1050.85C1498.81 1047.64 1495.57 1043.53 1490.11 1042.61C1493.03 1042.22 1497.38 1039.61 1499.18 1037.05C1501.09 1034.36 1500.16 1031.45 1497.93 1031.37C1495.7 1031.27 1491.29 1034.07 1488.5 1038.13C1489.64 1035.18 1489.27 1030.96 1487.83 1028.37C1486.22 1025.49 1483.41 1024.84 1482.28 1026.75C1481.26 1028.5 1481.32 1032.89 1482.98 1036.97C1480.8 1034.42 1477.16 1033.16 1474.34 1033.81C1470.97 1034.6 1469.01 1038.08 1470.18 1040.52C1471.27 1042.82 1475.36 1044.64 1479.96 1044.09C1477.02 1045.53 1474.63 1048.86 1474.25 1051.78C1473.8 1055.09 1475.97 1057.65 1478.31 1057.05ZM1448.62 1032.99C1447.55 1032.1 1447.4 1030.51 1448.28 1029.43C1449.17 1028.35 1450.76 1028.2 1451.84 1029.09C1452.92 1029.98 1453.07 1031.57 1452.18 1032.65C1451.29 1033.72 1449.7 1033.88 1448.62 1032.99ZM1386.34 1024.58C1385.26 1023.69 1385.11 1022.1 1386 1021.02C1386.89 1019.94 1388.48 1019.79 1389.56 1020.68C1390.63 1021.57 1390.79 1023.16 1389.9 1024.23C1389.01 1025.31 1387.41 1025.46 1386.34 1024.58ZM1396.33 1073.75C1395.25 1072.86 1395.1 1071.27 1395.99 1070.19C1396.88 1069.11 1398.47 1068.96 1399.54 1069.85C1400.62 1070.74 1400.77 1072.33 1399.88 1073.41C1398.99 1074.49 1397.4 1074.64 1396.33 1073.75ZM1363.11 1066.89C1362.79 1065.53 1363.64 1064.18 1365.01 1063.87C1366.37 1063.56 1367.72 1064.4 1368.03 1065.76C1368.35 1067.12 1367.5 1068.48 1366.14 1068.79C1364.78 1069.1 1363.42 1068.26 1363.11 1066.89ZM1303.53 1096.61C1303.21 1095.25 1304.06 1093.9 1305.42 1093.59C1306.79 1093.28 1308.14 1094.12 1308.45 1095.48C1308.76 1096.84 1307.92 1098.2 1306.55 1098.51C1305.19 1098.82 1303.84 1097.97 1303.53 1096.61ZM1330.45 1046.29C1330.3 1045.61 1330.72 1044.94 1331.4 1044.78C1332.08 1044.62 1332.76 1045.04 1332.92 1045.73C1333.07 1046.41 1332.65 1047.09 1331.97 1047.24C1331.28 1047.4 1330.61 1046.98 1330.45 1046.29ZM1369.56 1041.24C1369.41 1040.56 1369.83 1039.88 1370.51 1039.72C1371.19 1039.57 1371.87 1039.99 1372.03 1040.67C1372.18 1041.35 1371.76 1042.03 1371.08 1042.19C1370.39 1042.34 1369.72 1041.92 1369.56 1041.24ZM1431.34 1045.57C1431.19 1044.89 1431.61 1044.21 1432.29 1044.05C1432.97 1043.9 1433.65 1044.32 1433.81 1045C1433.96 1045.68 1433.54 1046.36 1432.86 1046.52C1432.17 1046.68 1431.5 1046.25 1431.34 1045.57ZM1464.82 1044.68C1464.67 1044 1465.08 1043.32 1465.77 1043.16C1466.45 1043.01 1467.13 1043.43 1467.28 1044.11C1467.44 1044.79 1467.02 1045.47 1466.33 1045.63C1465.65 1045.78 1464.98 1045.36 1464.82 1044.68ZM1456.27 1006.11C1456.12 1005.43 1456.53 1004.75 1457.22 1004.59C1457.9 1004.43 1458.58 1004.86 1458.73 1005.54C1458.89 1006.22 1458.47 1006.9 1457.78 1007.06C1457.1 1007.22 1456.43 1006.79 1456.27 1006.11ZM1418.33 990.08C1418.18 989.4 1418.6 988.722 1419.28 988.564C1419.96 988.412 1420.64 988.831 1420.8 989.515C1420.95 990.195 1420.53 990.872 1419.85 991.03C1419.17 991.183 1418.49 990.759 1418.33 990.08ZM1401.99 986.408C1401.83 985.729 1402.25 985.051 1402.94 984.893C1403.62 984.74 1404.29 985.159 1404.45 985.843C1404.61 986.528 1404.19 987.201 1403.5 987.359C1402.82 987.511 1402.14 987.093 1401.99 986.408ZM1364.81 1005.66C1364.66 1004.98 1365.08 1004.3 1365.76 1004.15C1366.44 1003.99 1367.12 1004.41 1367.28 1005.1C1367.43 1005.78 1367.01 1006.45 1366.33 1006.61C1365.64 1006.77 1364.96 1006.34 1364.81 1005.66ZM1314.74 1048.8C1314.59 1048.12 1315.01 1047.44 1315.69 1047.28C1316.37 1047.13 1317.05 1047.55 1317.21 1048.23C1317.36 1048.91 1316.94 1049.59 1316.26 1049.75C1315.58 1049.9 1314.9 1049.48 1314.74 1048.8ZM1300.04 1059.18C1299.89 1058.5 1300.3 1057.82 1300.99 1057.66C1301.67 1057.51 1302.35 1057.93 1302.5 1058.61C1302.66 1059.29 1302.24 1059.97 1301.55 1060.13C1300.87 1060.28 1300.2 1059.86 1300.04 1059.18ZM1312.89 1076.38C1312.81 1076.05 1313.03 1075.71 1313.36 1075.63C1313.7 1075.55 1314.04 1075.76 1314.12 1076.1C1314.2 1076.44 1313.98 1076.78 1313.65 1076.86C1313.31 1076.93 1312.97 1076.72 1312.89 1076.38ZM1339.06 1070.37C1338.98 1070.03 1339.2 1069.7 1339.53 1069.62C1339.87 1069.54 1340.21 1069.75 1340.29 1070.09C1340.37 1070.43 1340.15 1070.77 1339.81 1070.84C1339.48 1070.92 1339.14 1070.72 1339.06 1070.37ZM1357.56 1072.37C1357.48 1072.03 1357.7 1071.69 1358.03 1071.61C1358.37 1071.53 1358.71 1071.75 1358.79 1072.08C1358.87 1072.42 1358.65 1072.76 1358.31 1072.84C1357.98 1072.92 1357.63 1072.71 1357.56 1072.37ZM1378.67 1070.26C1378.59 1069.93 1378.81 1069.59 1379.14 1069.51C1379.48 1069.43 1379.82 1069.65 1379.9 1069.98C1379.98 1070.32 1379.76 1070.66 1379.43 1070.74C1379.09 1070.82 1378.75 1070.6 1378.67 1070.26ZM1386.45 1058.07C1386.37 1057.73 1386.58 1057.39 1386.92 1057.31C1387.26 1057.23 1387.6 1057.45 1387.68 1057.78C1387.75 1058.12 1387.54 1058.46 1387.2 1058.54C1386.87 1058.62 1386.52 1058.41 1386.45 1058.07ZM1413.29 1060.85C1413.22 1060.51 1413.43 1060.17 1413.77 1060.09C1414.1 1060.01 1414.44 1060.23 1414.52 1060.57C1414.6 1060.9 1414.39 1061.24 1414.05 1061.32C1413.71 1061.4 1413.37 1061.19 1413.29 1060.85ZM1429.82 1060.6C1429.74 1060.27 1429.96 1059.93 1430.29 1059.85C1430.63 1059.77 1430.97 1059.98 1431.05 1060.32C1431.13 1060.66 1430.91 1061 1430.58 1061.08C1430.24 1061.15 1429.89 1060.95 1429.82 1060.6ZM1396.91 1060.83C1397.43 1060.64 1398.14 1060 1398.48 1058.91C1398.41 1059.87 1399.66 1060.28 1400.38 1060.33C1401.19 1060.38 1401.05 1060.74 1401.23 1060C1401.41 1059.22 1401.17 1057.46 1399.94 1057.38C1400.62 1057.21 1401.75 1056.52 1401.87 1055.58C1401.97 1054.79 1402.17 1055 1401.68 1054.93C1400.81 1054.8 1400.42 1055.32 1399.68 1056.35C1400.01 1055.62 1400.04 1054.57 1399.22 1054.17C1398.59 1053.86 1398.99 1053.68 1398.69 1054.16C1398.41 1054.6 1398.17 1055.28 1398.45 1056.21C1398.02 1055.66 1397.35 1055.55 1395.99 1056.24C1395.22 1056.64 1395.7 1056.44 1395.81 1057.04C1395.96 1057.9 1396.52 1058.22 1397.59 1057.98C1396.88 1058.39 1396.29 1059.48 1396.55 1060.39C1396.75 1061.1 1396.36 1061.03 1396.91 1060.83ZM1441.36 1001.27C1441.86 1001.14 1442.51 1000.61 1442.73 999.6C1442.76 1000.51 1444.04 1001.04 1444.77 1001.15C1445.58 1001.28 1445.49 1001.62 1445.58 1000.92C1445.68 1000.2 1445.26 998.489 1444.03 998.282C1444.69 998.194 1445.75 997.65 1445.77 996.759C1445.79 996.016 1446 996.243 1445.51 996.125C1444.64 995.905 1444.3 996.364 1443.67 997.278C1443.93 996.616 1443.85 995.611 1442.98 995.133C1442.33 994.773 1442.71 994.649 1442.46 995.08C1442.23 995.472 1442.06 996.1 1442.43 997.016C1441.94 996.441 1441.27 996.269 1439.98 996.793C1439.26 997.089 1439.72 996.952 1439.88 997.538C1440.11 998.37 1440.71 998.739 1441.75 998.614C1441.09 998.94 1440.62 999.921 1440.96 1000.81C1441.23 1001.52 1440.84 1001.41 1441.36 1001.27ZM1450.71 1053.35C1451.21 1053.22 1451.86 1052.69 1452.08 1051.68C1452.11 1052.59 1453.39 1053.12 1454.12 1053.24C1454.93 1053.37 1454.83 1053.7 1454.93 1053.01C1455.03 1052.28 1454.61 1050.57 1453.38 1050.37C1454.04 1050.28 1455.1 1049.73 1455.12 1048.84C1455.14 1048.1 1455.35 1048.33 1454.86 1048.21C1453.98 1047.99 1453.65 1048.45 1453.02 1049.36C1453.28 1048.7 1453.2 1047.69 1452.33 1047.22C1451.68 1046.86 1452.06 1046.73 1451.81 1047.16C1451.58 1047.56 1451.41 1048.18 1451.78 1049.1C1451.29 1048.53 1450.61 1048.35 1449.33 1048.88C1448.61 1049.17 1449.07 1049.04 1449.23 1049.62C1449.46 1050.45 1450.06 1050.82 1451.1 1050.7C1450.44 1051.02 1449.97 1052.01 1450.31 1052.9C1450.57 1053.6 1450.19 1053.49 1450.71 1053.35ZM1382.44 1038.95C1382.95 1038.82 1383.59 1038.29 1383.81 1037.28C1383.84 1038.19 1385.12 1038.72 1385.85 1038.84C1386.66 1038.97 1386.57 1039.3 1386.66 1038.61C1386.76 1037.88 1386.34 1036.17 1385.12 1035.97C1385.77 1035.88 1386.83 1035.33 1386.85 1034.44C1386.87 1033.7 1387.08 1033.93 1386.6 1033.81C1385.72 1033.59 1385.38 1034.05 1384.75 1034.96C1385.01 1034.3 1384.93 1033.29 1384.06 1032.82C1383.41 1032.46 1383.8 1032.33 1383.54 1032.76C1383.31 1033.16 1383.14 1033.78 1383.51 1034.7C1383.02 1034.12 1382.35 1033.95 1381.06 1034.48C1380.34 1034.77 1380.8 1034.64 1380.96 1035.22C1381.19 1036.05 1381.79 1036.42 1382.83 1036.3C1382.17 1036.62 1381.7 1037.6 1382.04 1038.5C1382.31 1039.2 1381.92 1039.09 1382.44 1038.95ZM1347.02 1069.67C1347.52 1069.54 1348.17 1069.01 1348.39 1068C1348.42 1068.91 1349.7 1069.44 1350.43 1069.55C1351.23 1069.68 1351.14 1070.02 1351.24 1069.32C1351.34 1068.6 1350.92 1066.89 1349.69 1066.68C1350.35 1066.59 1351.41 1066.05 1351.43 1065.16C1351.45 1064.41 1351.66 1064.64 1351.17 1064.52C1350.29 1064.3 1349.96 1064.76 1349.33 1065.68C1349.58 1065.01 1349.5 1064.01 1348.64 1063.53C1347.99 1063.17 1348.37 1063.05 1348.12 1063.48C1347.89 1063.87 1347.72 1064.5 1348.09 1065.41C1347.6 1064.84 1346.92 1064.67 1345.64 1065.19C1344.91 1065.49 1345.37 1065.35 1345.54 1065.94C1345.77 1066.77 1346.37 1067.14 1347.41 1067.01C1346.75 1067.34 1346.27 1068.32 1346.62 1069.21C1346.89 1069.92 1346.49 1069.8 1347.02 1069.67ZM1319.45 1062.75C1319.95 1062.62 1320.59 1062.09 1320.81 1061.09C1320.84 1061.99 1322.12 1062.52 1322.85 1062.64C1323.66 1062.77 1323.57 1063.11 1323.67 1062.41C1323.77 1061.68 1323.35 1059.97 1322.12 1059.77C1322.77 1059.68 1323.83 1059.14 1323.85 1058.24C1323.87 1057.5 1324.08 1057.73 1323.6 1057.61C1322.72 1057.39 1322.39 1057.85 1321.75 1058.76C1322.01 1058.1 1321.93 1057.1 1321.06 1056.62C1320.41 1056.26 1320.8 1056.13 1320.55 1056.56C1320.32 1056.96 1320.14 1057.59 1320.51 1058.5C1320.02 1057.93 1319.35 1057.75 1318.06 1058.28C1317.34 1058.57 1317.8 1058.44 1317.96 1059.02C1318.2 1059.85 1318.79 1060.22 1319.83 1060.1C1319.17 1060.43 1318.7 1061.41 1319.04 1062.3C1319.3 1063 1318.92 1062.89 1319.45 1062.75ZM1295.1 1079.84C1295.6 1079.71 1296.24 1079.18 1296.47 1078.18C1296.5 1079.08 1297.78 1079.61 1298.51 1079.73C1299.31 1079.86 1299.22 1080.2 1299.32 1079.5C1299.42 1078.77 1299 1077.06 1297.77 1076.86C1298.42 1076.77 1299.48 1076.23 1299.51 1075.33C1299.53 1074.59 1299.73 1074.82 1299.25 1074.7C1298.37 1074.48 1298.04 1074.94 1297.41 1075.85C1297.66 1075.19 1297.58 1074.19 1296.72 1073.71C1296.07 1073.35 1296.45 1073.22 1296.2 1073.65C1295.97 1074.05 1295.8 1074.68 1296.17 1075.59C1295.67 1075.02 1295 1074.84 1293.71 1075.37C1292.99 1075.66 1293.45 1075.53 1293.61 1076.11C1293.85 1076.95 1294.44 1077.31 1295.49 1077.19C1294.82 1077.52 1294.35 1078.5 1294.69 1079.39C1294.96 1080.1 1294.57 1079.98 1295.1 1079.84ZM1304.76 1090.74C1305.26 1090.61 1305.9 1090.08 1306.12 1089.08C1306.15 1089.98 1307.43 1090.51 1308.16 1090.63C1308.97 1090.76 1308.88 1091.1 1308.98 1090.4C1309.08 1089.67 1308.66 1087.96 1307.43 1087.76C1308.08 1087.67 1309.14 1087.13 1309.16 1086.23C1309.18 1085.49 1309.39 1085.72 1308.91 1085.6C1308.03 1085.38 1307.7 1085.84 1307.06 1086.75C1307.32 1086.09 1307.24 1085.09 1306.37 1084.61C1305.72 1084.25 1306.11 1084.12 1305.86 1084.55C1305.63 1084.95 1305.45 1085.58 1305.82 1086.49C1305.33 1085.92 1304.66 1085.74 1303.37 1086.27C1302.65 1086.56 1303.11 1086.43 1303.27 1087.01C1303.51 1087.84 1304.1 1088.21 1305.14 1088.09C1304.48 1088.42 1304.01 1089.4 1304.35 1090.29C1304.62 1090.99 1304.23 1090.88 1304.76 1090.74ZM1364.13 1025.17C1364.63 1025.04 1365.28 1024.51 1365.5 1023.5C1365.53 1024.41 1366.81 1024.94 1367.54 1025.06C1368.35 1025.19 1368.26 1025.52 1368.35 1024.83C1368.45 1024.1 1368.03 1022.39 1366.8 1022.19C1367.46 1022.1 1368.52 1021.55 1368.54 1020.66C1368.56 1019.92 1368.77 1020.15 1368.28 1020.03C1367.4 1019.81 1367.07 1020.27 1366.44 1021.18C1366.7 1020.52 1366.62 1019.51 1365.75 1019.04C1365.1 1018.68 1365.48 1018.55 1365.23 1018.98C1365 1019.38 1364.83 1020 1365.2 1020.92C1364.71 1020.34 1364.04 1020.17 1362.75 1020.7C1362.03 1020.99 1362.49 1020.86 1362.65 1021.44C1362.88 1022.27 1363.48 1022.64 1364.52 1022.52C1363.86 1022.84 1363.39 1023.82 1363.73 1024.72C1363.99 1025.42 1363.6 1025.31 1364.13 1025.17ZM1409.42 1026.56C1409.92 1026.43 1410.57 1025.9 1410.79 1024.89C1410.82 1025.8 1412.1 1026.33 1412.83 1026.44C1413.64 1026.57 1413.54 1026.91 1413.64 1026.21C1413.74 1025.49 1413.32 1023.78 1412.09 1023.57C1412.75 1023.48 1413.81 1022.94 1413.83 1022.05C1413.85 1021.31 1414.06 1021.53 1413.57 1021.41C1412.69 1021.19 1412.36 1021.65 1411.73 1022.57C1411.99 1021.91 1411.9 1020.9 1411.04 1020.42C1410.39 1020.06 1410.77 1019.94 1410.52 1020.37C1410.29 1020.76 1410.12 1021.39 1410.49 1022.31C1410 1021.73 1409.32 1021.56 1408.04 1022.08C1407.31 1022.38 1407.77 1022.24 1407.94 1022.83C1408.17 1023.66 1408.77 1024.03 1409.81 1023.9C1409.15 1024.23 1408.68 1025.21 1409.02 1026.1C1409.29 1026.81 1408.89 1026.7 1409.42 1026.56ZM1419.77 1027.91C1420.27 1027.78 1420.92 1027.25 1421.14 1026.24C1421.17 1027.15 1422.45 1027.68 1423.18 1027.79C1423.98 1027.92 1423.89 1028.26 1423.99 1027.56C1424.09 1026.84 1423.67 1025.13 1422.44 1024.92C1423.1 1024.83 1424.16 1024.29 1424.18 1023.4C1424.2 1022.66 1424.41 1022.88 1423.92 1022.76C1423.04 1022.54 1422.71 1023 1422.08 1023.92C1422.33 1023.26 1422.25 1022.25 1421.39 1021.77C1420.74 1021.41 1421.12 1021.29 1420.87 1021.72C1420.64 1022.11 1420.47 1022.74 1420.84 1023.66C1420.35 1023.08 1419.67 1022.91 1418.39 1023.43C1417.66 1023.73 1418.12 1023.59 1418.29 1024.18C1418.52 1025.01 1419.12 1025.38 1420.16 1025.25C1419.5 1025.58 1419.02 1026.56 1419.37 1027.45C1419.63 1028.16 1419.24 1028.05 1419.77 1027.91ZM1427.25 1037.75C1427.76 1037.62 1428.4 1037.09 1428.62 1036.08C1428.65 1036.98 1429.93 1037.52 1430.66 1037.63C1431.47 1037.76 1431.38 1038.1 1431.47 1037.4C1431.57 1036.67 1431.15 1034.97 1429.92 1034.76C1430.58 1034.67 1431.64 1034.13 1431.66 1033.24C1431.68 1032.49 1431.89 1032.72 1431.41 1032.6C1430.53 1032.38 1430.19 1032.84 1429.56 1033.76C1429.82 1033.09 1429.74 1032.09 1428.87 1031.61C1428.22 1031.25 1428.61 1031.13 1428.35 1031.56C1428.12 1031.95 1427.95 1032.58 1428.32 1033.49C1427.83 1032.92 1427.16 1032.75 1425.87 1033.27C1425.15 1033.57 1425.61 1033.43 1425.77 1034.02C1426 1034.85 1426.6 1035.22 1427.64 1035.09C1426.98 1035.42 1426.51 1036.4 1426.85 1037.29C1427.12 1038 1426.73 1037.88 1427.25 1037.75Z" fill="#FFCD05" fill-opacity="0.51"/>
<mask id="mask0" mask-type="alpha" maskUnits="userSpaceOnUse" x="0" y="826" width="1440" height="983">
<path d="M288.5 1808L1440 858C1359.26 860.101 1282.45 863.216 1209.5 866.37C1004.64 875.228 34.9999 1533 7.62939e-06 1533C0.000156403 1601 4.39464e-05 -264.449 0 1808H288.5Z" fill="#005245"/>
</mask>
<g mask="url(#mask0)">
<path d="M1431.5 856.5L1287.5 858.5C1248.32 869.124 1210.64 884.646 1175.35 904.697L-258 1719L57 1950L1287.8 943.068C1328.42 909.841 1373.32 882.239 1421.31 861.009L1431.5 856.5Z" fill="#2D2323"/>
</g>
<path d="M1362.72 1574.7L1419.07 1757.04C1329.43 1779 1171.21 1779.74 1099.56 1739.96L1172.91 1578.95L1214.19 1659.37L1269.36 1561.36L1279.22 1627.74L1314.07 1488.24L1348.01 1679.09L1362.72 1574.7Z" fill="#0C3932"/>
<defs>
<filter id="filter0_d" x="-67" y="36" width="1573" height="1806" filterUnits="userSpaceOnUse" color-interpolation-filters="sRGB">
<feFlood flood-opacity="0" result="BackgroundImageFix"/>
<feColorMatrix in="SourceAlpha" type="matrix" values="0 0 0 0 0 0 0 0 0 0 0 0 0 0 0 0 0 0 127 0"/>
<feOffset dy="-32"/>
<feGaussianBlur stdDeviation="33"/>
<feColorMatrix type="matrix" values="0 0 0 0 0.2375 0 0 0 0 0.192969 0 0 0 0 0.192969 0 0 0 0.67 0"/>
<feBlend mode="normal" in2="BackgroundImageFix" result="effect1_dropShadow"/>
<feBlend mode="normal" in="SourceGraphic" in2="effect1_dropShadow" result="shape"/>
</filter>
<filter id="filter1_d" x="-146" y="428.385" width="1772" height="1495.62" filterUnits="userSpaceOnUse" color-interpolation-filters="sRGB">
<feFlood flood-opacity="0" result="BackgroundImageFix"/>
<feColorMatrix in="SourceAlpha" type="matrix" values="0 0 0 0 0 0 0 0 0 0 0 0 0 0 0 0 0 0 127 0"/>
<feOffset dx="20" dy="-50"/>
<feGaussianBlur stdDeviation="83"/>
<feColorMatrix type="matrix" values="0 0 0 0 0 0 0 0 0 0.321569 0 0 0 0 0.270588 0 0 0 0.77 0"/>
<feBlend mode="normal" in2="BackgroundImageFix" result="effect1_dropShadow"/>
<feBlend mode="normal" in="SourceGraphic" in2="effect1_dropShadow" result="shape"/>
</filter>
<clipPath id="clip0">
<rect width="245.39" height="245.39" fill="white" transform="translate(985 478.672) rotate(-5.06702)"/>
</clipPath>
<clipPath id="clip1">
<rect width="227.404" height="227.404" fill="white" transform="translate(143.513 78.7812) rotate(9.66805)"/>
</clipPath>
<clipPath id="clip2">
<rect width="351.323" height="351.323" fill="white" transform="translate(21 745.25) rotate(-5.06702)"/>
</clipPath>
</defs>
</svg>
