<svg id="Layer_1" data-name="Layer 1" xmlns="http://www.w3.org/2000/svg" viewBox="0 0 1604.9 1459.6"><defs><style>.cls-1{fill:#656565;}.cls-2{fill:#514747;}.cls-3{fill:#c8c8c8;}.cls-4{fill:#e4e4e4;}</style></defs><path class="cls-1" d="M104.93,259.56l-216.8,236.1-101.2,332.1-214.4,417v152.17H860.83l-74.6-336L714.83,53,606.23-57.34l-106.9,80.5-214.6,60.9-52.3,92.7Z" transform="translate(427.47 62.54)"/><path class="cls-1" d="M116.33,304.56l-216.9,856v236.37h1278V1249.06l-167-446.4-70-109L714.73,53.06l-97.2-65.4-106.9,80.5L296,129.06l-52.3,92.7Z" transform="translate(427.47 62.54)"/><path class="cls-2" d="M843.43,1395.06l-269.1-895.9,206.4,55.1-241.5-321.9,174.5,96.4L539.23,84.06,666.73,156l-61-217.6L500,18l-214.6,60.9-52.3,92.7-127.4,82.9-216.8,236.1-101.2,332.1-102.4,199.2-112.8,222.9v152.3C-330.37,1397,843.43,1395.06,843.43,1395.06Z" transform="translate(427.47 62.54)"/><polygon class="cls-3" points="679.1 333.7 669.1 439.9 791.9 346 843.7 439.9 899.5 363.9 970.8 462.4 966.4 294.9 1141 391.3 966.4 146.6 1093.9 218.5 1034.3 0.1 1034.2 0 927.3 80.5 712.7 141.3 660.4 234.1 532.9 317 509.8 342.1 463.9 442 679.1 333.7"/><polygon class="cls-4" points="1170 299.4 1230.4 357.5 1139 100.7 1034.8 1.9 1093.9 218.5 966.4 146.6 1141 391.3 966.4 294.9 1216.3 433 1170 299.4"/></svg>