<svg width="1440" height="1681" viewBox="0 0 1440 1681" fill="none" xmlns="http://www.w3.org/2000/svg">
<g filter="url(#filter0_d)">
<path d="M0 272.751C0 571.574 5.72205e-05 1168.5 0 1564.5H1135.97L1106.92 913.302L898.944 571.074L841.98 774.119L622.535 495.096L588.127 623.8L388.18 345.106L356.066 495.096L102.213 216.074L57.4834 345.106L0 272.751Z" fill="#656565"/>
</g>
<path d="M154.207 744.237L191.291 613.896L23.4111 413.472L0 272.78V1561.5C64.2278 1561.5 680.264 1596.5 874.858 1512.2L406.913 1123.8L512.813 1092.03L154.207 744.237Z" fill="#514747"/>
<path d="M818.659 1022.93L742.58 962.346L680.264 748.495V625.031L622.535 495.344L560.601 727.863L505.931 866.391L598.832 838.227L560.601 1049.46H638.21L560.601 1191.26L670.706 1163.43L982.669 1561.12L1056.07 1351.41L1101.91 1233.18L827.452 1124.13L818.659 1022.93Z" fill="#514747"/>
<path d="M37.221 380.395L102.213 216.322L136.621 356.488L172.94 413.472V563.135L227.228 572.632L268.135 766.179L172.94 862.134L90.3619 536.608L37.221 380.395Z" fill="#514747"/>
<path d="M315.924 633.873L388.18 345.354L389.709 579.51L460.054 694.131L379.387 787.139L491.021 1047.82L939.851 1279.03L1079.78 1561.5L616.5 1559.71L671.853 1426.4L157.648 885.713L315.924 633.873Z" fill="#514747"/>
<path d="M711.995 1078.93L898.944 571.322L911.178 695.114L898.562 828.403L982.669 901.433L948.644 992.148L1133.68 1153.27L1079.78 1288.85L711.995 1078.93Z" fill="#514747"/>
<path d="M392.006 263.159C392.036 263.096 392.219 262.7 392.343 262.128C392.227 262.002 392.105 261.912 392.002 261.849C391.964 261.594 391.796 260.686 391.006 260.009C390.847 259.874 389.9 259.092 388.724 259.379C387.946 259.567 387.508 260.113 387.36 260.306C386.663 261.201 386.753 262.242 386.779 262.478C386.784 262.603 386.791 262.727 386.796 262.852C387.125 263.042 387.175 263.207 387.741 263.465C388.089 263.624 389.359 264.151 390.813 263.728C391.339 263.576 391.74 263.343 392.006 263.159Z" fill="#8C8C8C"/>
<path d="M444.427 261.987C442.82 263.154 440.112 264.799 436.435 265.594C432.785 266.382 429.826 265.974 427.127 265.606C425.289 265.355 424.855 265.25 424.512 265.172C419.777 264.104 419.711 263.467 414.38 261.898C414.38 261.898 409.271 260.144 405.051 260.042C402.218 259.975 401.119 259.965 398.996 260.449C396.998 260.903 394.113 261.676 392.714 262.733C392.643 262.786 392.654 262.491 392.484 262.252C392.338 262.049 392.163 261.919 392.024 261.835C392.017 261.793 392.009 261.734 391.994 261.662C392.027 262.122 392.061 262.582 392.094 263.042C391.842 263.209 391.468 263.423 390.979 263.581C390.81 263.635 389.567 264.02 388.227 263.604C387.578 263.403 387.123 263.081 386.79 262.781C386.813 263.379 386.838 263.976 386.861 264.572C386.94 276.535 387.02 288.498 387.097 300.461C387.106 302.271 387.113 304.082 387.121 305.892C387.676 306.166 388.315 306.36 389.022 306.361C389.934 306.362 390.743 306.041 391.659 305.678C391.846 305.603 392.023 305.527 392.195 305.448C392.195 305.369 392.195 305.29 392.195 305.213C392.594 304.97 393.155 304.647 393.842 304.308C394.243 304.112 396.115 303.204 398.872 302.565C401.734 301.902 404.045 301.877 404.962 301.887C406.924 301.909 408.668 302.161 411.3 302.771C415.186 303.669 416.91 304.322 421.397 305.833C423.559 306.56 423.44 306.601 425.631 307.03C428.946 307.621 431.33 308.024 434.562 307.654C438.761 307.172 441.722 305.687 442.608 305.219C443.666 304.661 444.508 304.102 445.114 303.668C444.889 289.775 444.658 275.881 444.427 261.987Z" fill="#CA323D"/>
<path d="M392.266 305.197C391.928 305.438 391.462 305.714 390.865 305.917C389.837 306.267 388.983 306.212 388.763 306.194C388.1 306.139 387.556 305.959 387.147 305.777C387.177 322.324 387.207 338.87 387.236 355.417C388.093 360.105 388.95 364.794 389.806 369.483C390.596 364.869 391.385 360.256 392.175 355.642C392.204 338.827 392.235 322.012 392.266 305.197Z" fill="#8C8C8C"/>
<path d="M400.983 277.618C402.273 277.524 403.982 277.472 405.572 277.561C407.633 277.676 409.463 277.969 411.011 278.314C411.256 275.23 411.501 272.147 411.746 269.063C412.97 269.238 413.949 269.393 414.577 269.495C417.22 269.922 418.342 270.172 420.14 270.206C420.761 270.218 421.263 270.2 421.568 270.185C421.467 273.422 421.367 276.658 421.266 279.895C422.051 280.061 422.914 280.197 423.847 280.272C426.461 280.485 428.713 280.162 430.425 279.75C430.366 283.275 430.308 286.799 430.249 290.324C429.134 290.374 427.93 290.377 426.652 290.312C424.333 290.195 422.252 289.878 420.459 289.49C420.217 292.621 419.977 295.751 419.736 298.882C418.438 298.605 417.33 298.401 416.483 298.256C413.233 297.698 411.726 297.641 411.054 297.628C410.49 297.616 410.024 297.624 409.702 297.635C409.703 297.627 410.231 287.915 410.231 287.915C410.215 287.913 407.678 287.683 406.786 287.623C405.355 287.526 403.316 287.545 400.696 288.069C400.877 284.577 400.804 281.107 400.983 277.618Z" fill="white"/>
<path d="M-59 498C189.693 569.844 452.716 638.849 729.47 702.679C985.637 761.776 1233.09 811.72 1470.59 853.957" stroke="#F1F2F2" stroke-miterlimit="10"/>
<path d="M-58.3232 511.539C174.34 578.053 417.799 642.268 671.687 702.757C947.534 768.479 1214.48 824.776 1471.26 873" stroke="#F1F2F2" stroke-miterlimit="10"/>
<path d="M121.969 553.526L104.717 549.104L103.065 555.547L120.317 559.969L121.969 553.526Z" fill="#2F3F44"/>
<path d="M153.573 562.326L136.321 557.904L134.67 564.348L151.921 568.77L153.573 562.326Z" fill="#2F3F44"/>
<path d="M240.692 583.235L223.44 578.812L221.789 585.256L239.04 589.678L240.692 583.235Z" fill="#2F3F44"/>
<path d="M272.177 590.82L254.925 586.398L253.273 592.842L270.525 597.264L272.177 590.82Z" fill="#2F3F44"/>
<path d="M359.087 610.758L341.835 606.336L340.183 612.78L357.435 617.202L359.087 610.758Z" fill="#2F3F44"/>
<path d="M390.992 617.781L373.74 613.359L372.089 619.803L389.34 624.225L390.992 617.781Z" fill="#2F3F44"/>
<path d="M108.316 551.441C108.266 551.028 107.98 548.721 105.959 547.576C104.207 546.582 101.993 546.961 100.687 548.048C98.1108 550.178 98.6076 555.373 101.344 556.99C102.641 557.756 104.283 557.639 105.487 557.083C107.719 556.055 108.561 553.454 108.316 551.441Z" fill="#57666C"/>
<path d="M126.556 556.115C126.505 555.702 126.219 553.395 124.198 552.25C122.446 551.256 120.232 551.635 118.927 552.721C116.35 554.852 116.847 560.047 119.583 561.664C120.88 562.43 122.522 562.312 123.726 561.757C125.958 560.738 126.8 558.136 126.556 556.115Z" fill="#57666C"/>
<path d="M138.941 560.181C138.891 559.769 138.605 557.462 136.584 556.316C134.832 555.323 132.618 555.702 131.312 556.788C128.736 558.918 129.233 564.114 131.969 565.73C133.266 566.497 134.908 566.379 136.112 565.823C138.344 564.804 139.186 562.202 138.941 560.181Z" fill="#57666C"/>
<path d="M156.978 564.4C156.928 563.987 156.642 561.68 154.621 560.535C152.869 559.541 150.655 559.92 149.35 561.007C146.773 563.137 147.27 568.332 150.006 569.949C151.303 570.715 152.945 570.598 154.149 570.042C156.381 569.023 157.223 566.421 156.978 564.4Z" fill="#57666C"/>
<path d="M226.421 580.787C226.37 580.374 226.084 578.067 224.063 576.922C222.312 575.928 220.097 576.307 218.792 577.393C216.215 579.524 216.712 584.719 219.449 586.336C220.745 587.102 222.387 586.984 223.592 586.428C225.823 585.41 226.665 582.808 226.421 580.787Z" fill="#57666C"/>
<path d="M245.089 585.73C245.038 585.318 244.752 583.01 242.731 581.865C240.98 580.872 238.765 581.25 237.46 582.337C234.883 584.467 235.38 589.662 238.117 591.279C239.413 592.045 241.055 591.928 242.26 591.372C244.491 590.353 245.333 587.751 245.089 585.73Z" fill="#57666C"/>
<path d="M257.896 588.373C257.846 587.96 257.56 585.653 255.539 584.508C253.787 583.514 251.573 583.893 250.268 584.979C247.691 587.11 248.188 592.305 250.924 593.922C252.221 594.688 253.863 594.57 255.067 594.014C257.307 592.996 258.149 590.394 257.896 588.373Z" fill="#57666C"/>
<path d="M276.169 592.744C276.118 592.331 275.832 590.024 273.811 588.879C272.06 587.885 269.845 588.264 268.54 589.35C265.963 591.481 266.46 596.676 269.197 598.293C270.494 599.059 272.136 598.941 273.34 598.386C275.571 597.367 276.413 594.756 276.169 592.744Z" fill="#57666C"/>
<path d="M344.812 609.062C344.762 608.65 344.476 606.342 342.455 605.197C340.703 604.204 338.489 604.582 337.184 605.669C334.607 607.799 335.104 612.995 337.84 614.611C339.137 615.378 340.779 615.26 341.983 614.704C344.215 613.685 345.057 611.083 344.812 609.062Z" fill="#57666C"/>
<path d="M362.588 613.23C362.537 612.818 362.251 610.51 360.23 609.365C358.479 608.372 356.264 608.75 354.959 609.837C352.382 611.967 352.879 617.162 355.616 618.779C356.912 619.545 358.554 619.428 359.759 618.872C361.998 617.845 362.84 615.243 362.588 613.23Z" fill="#57666C"/>
<path d="M377.257 616.111C377.206 615.698 376.92 613.391 374.899 612.246C373.148 611.252 370.933 611.631 369.628 612.718C367.051 614.848 367.548 620.043 370.285 621.66C371.581 622.426 373.223 622.308 374.428 621.753C376.659 620.734 377.501 618.132 377.257 616.111Z" fill="#57666C"/>
<path d="M395.218 619.974C395.167 619.562 394.881 617.254 392.86 616.109C391.109 615.116 388.894 615.495 387.589 616.581C385.012 618.711 385.509 623.907 388.246 625.523C389.542 626.29 391.184 626.172 392.388 625.616C394.628 624.597 395.47 621.995 395.218 619.974Z" fill="#57666C"/>
<path d="M112.593 558.497C112.947 561.655 113.292 564.813 113.646 567.97C114.766 567.709 115.886 567.448 116.997 567.187C116.643 564.408 116.298 561.621 115.945 558.842C117.965 559.23 119.498 559.221 120.239 559.171C120.635 559.129 122.117 558.943 122.984 557.849C123.22 557.546 123.767 556.847 123.464 556.148C123.228 555.626 122.622 555.34 122.108 555.281C121.654 555.23 121.081 555.272 120.795 555.693C120.719 555.794 120.576 556.249 120.315 556.51C120.028 556.796 119.548 556.805 119.237 556.796C116.736 556.779 116.357 556.729 116.357 556.729C115.389 556.603 114.336 556.333 111.726 555.643C109.073 554.935 106.834 554.203 105.099 553.58C105.099 553.327 105.082 552.965 105.023 552.527C104.939 551.879 104.889 551.55 104.703 551.365C104.265 550.919 103.23 550.877 102.666 551.331C102.27 551.651 102.219 552.131 102.186 552.527C102.177 552.628 102.152 552.906 102.346 553.756C102.421 554.076 102.556 554.657 102.716 554.944C102.985 555.154 103.735 555.5 104.265 555.71C107.12 556.88 109.924 557.79 112.593 558.497Z" fill="#AEC3CE"/>
<path d="M143.101 566.978C143.455 570.135 143.8 573.293 144.154 576.451C145.273 576.19 146.393 575.929 147.505 575.668C147.151 572.889 146.806 570.102 146.452 567.323C148.473 567.71 150.006 567.702 150.747 567.651C151.143 567.609 152.625 567.424 153.492 566.329C153.728 566.026 154.275 565.327 153.972 564.628C153.736 564.106 153.13 563.82 152.616 563.761C152.161 563.711 151.589 563.753 151.303 564.174C151.235 564.275 151.084 564.729 150.823 564.99C150.536 565.277 150.056 565.285 149.745 565.277C147.244 565.26 146.865 565.209 146.865 565.209C145.897 565.083 144.844 564.814 142.234 564.123C139.581 563.416 137.341 562.683 135.607 562.06C135.607 561.808 135.59 561.445 135.531 561.008C135.447 560.359 135.396 560.031 135.211 559.846C134.773 559.399 133.738 559.357 133.173 559.812C132.778 560.132 132.727 560.612 132.693 561.008C132.685 561.109 132.66 561.386 132.853 562.237C132.929 562.557 133.064 563.138 133.224 563.424C133.493 563.635 134.243 563.98 134.773 564.19C137.628 565.361 140.423 566.27 143.101 566.978Z" fill="#AEC3CE"/>
<path d="M230.294 587.909C230.648 591.067 230.993 594.225 231.347 597.382C232.467 597.121 233.587 596.86 234.698 596.599C234.345 593.82 233.999 591.033 233.646 588.255C235.667 588.642 237.199 588.633 237.94 588.583C238.336 588.541 239.818 588.356 240.685 587.261C240.921 586.958 241.468 586.259 241.165 585.56C240.929 585.038 240.323 584.752 239.809 584.693C239.355 584.642 238.782 584.684 238.496 585.105C238.429 585.206 238.277 585.661 238.016 585.922C237.73 586.208 237.25 586.217 236.938 586.208C234.437 586.192 234.058 586.141 234.058 586.141C233.09 586.015 232.037 585.745 229.427 585.055C226.775 584.347 224.535 583.615 222.8 582.992C222.8 582.739 222.783 582.377 222.724 581.939C222.64 581.291 222.59 580.962 222.404 580.777C221.967 580.331 220.931 580.289 220.367 580.744C219.971 581.063 219.92 581.543 219.887 581.939C219.878 582.04 219.853 582.318 220.047 583.169C220.122 583.489 220.257 584.07 220.417 584.356C220.687 584.566 221.436 584.912 221.967 585.122C224.821 586.293 227.625 587.202 230.294 587.909Z" fill="#AEC3CE"/>
<path d="M259.572 594.807C259.925 597.965 260.271 601.123 260.624 604.28C261.744 604.019 262.864 603.758 263.976 603.497C263.622 600.719 263.277 597.931 262.923 595.153C264.944 595.54 269.331 595.784 270.064 595.742C270.459 595.7 271.941 595.515 272.809 594.42C273.045 594.117 273.592 593.418 273.289 592.719C273.053 592.197 272.447 591.911 271.933 591.852C271.478 591.801 270.906 591.843 270.619 592.264C270.544 592.365 270.401 592.82 270.139 593.081C269.853 593.368 268.152 593.452 266.51 593.368C264.009 593.25 263.327 593.039 263.327 593.039C262.359 592.913 261.306 592.643 258.696 591.953C256.044 591.246 255.362 590.193 253.619 589.57C253.619 589.317 253.602 588.955 253.543 588.517C253.459 587.869 253.408 587.541 253.223 587.355C252.785 586.909 251.749 586.867 251.185 587.322C250.789 587.642 250.739 588.122 250.705 588.517C250.697 588.618 250.671 588.896 250.865 589.747C250.941 590.067 251.076 590.648 251.236 590.934C251.505 591.145 252.254 591.49 252.785 591.7C255.648 592.871 256.894 594.1 259.572 594.807Z" fill="#AEC3CE"/>
<path d="M348.795 615.823C349.149 618.981 349.494 622.139 349.848 625.296C350.968 625.035 352.088 624.774 353.199 624.513C352.846 621.735 352.5 618.947 352.147 616.169C354.168 616.556 355.7 616.548 356.441 616.497C356.837 616.455 358.319 616.27 359.186 615.175C359.422 614.872 359.969 614.173 359.666 613.474C359.43 612.952 358.824 612.666 358.31 612.607C357.856 612.556 357.283 612.598 356.997 613.019C356.93 613.12 356.778 613.575 356.517 613.836C356.231 614.122 355.751 614.131 355.439 614.122C352.938 614.106 352.559 614.055 352.559 614.055C351.591 613.929 350.538 613.659 347.928 612.969C345.276 612.262 343.036 611.529 341.301 610.906C341.301 610.653 341.284 610.291 341.225 609.853C341.141 609.205 341.091 608.876 340.905 608.691C340.468 608.245 339.432 608.203 338.868 608.658C338.472 608.978 338.421 609.458 338.388 609.853C338.379 609.954 338.354 610.232 338.548 611.083C338.623 611.403 338.758 611.984 338.918 612.27C339.188 612.48 339.937 612.826 340.468 613.036C343.322 614.207 346.126 615.116 348.795 615.823Z" fill="#AEC3CE"/>
<path d="M378.797 622.72C379.151 625.877 379.496 629.035 379.85 632.193C380.97 631.931 382.09 631.67 383.201 631.409C382.848 628.631 382.502 625.843 382.149 623.065C384.17 623.452 388.557 623.696 389.289 623.654C389.685 623.612 391.167 623.427 392.034 622.332C392.27 622.029 392.817 621.33 392.514 620.631C392.279 620.109 391.672 619.823 391.159 619.764C390.704 619.713 390.131 619.756 389.845 620.177C389.769 620.278 389.626 620.732 389.365 620.993C389.079 621.28 387.378 621.364 385.736 621.28C383.235 621.162 382.553 620.951 382.553 620.951C381.585 620.825 380.532 620.555 377.922 619.865C375.269 619.158 374.587 618.105 372.844 617.482C372.844 617.229 372.827 616.867 372.768 616.429C372.684 615.781 372.634 615.453 372.448 615.267C372.011 614.821 370.975 614.779 370.411 615.234C370.015 615.554 369.964 616.034 369.931 616.429C369.922 616.53 369.897 616.808 370.091 617.659C370.166 617.979 370.301 618.56 370.461 618.846C370.731 619.057 371.48 619.402 372.011 619.612C374.882 620.783 376.12 622.012 378.797 622.72Z" fill="#AEC3CE"/>
<path d="M128.104 635.274C128.551 639.703 128.997 644.133 129.443 648.562C130.866 648.2 132.289 647.829 133.712 647.467C133.266 643.568 132.82 639.67 132.373 635.763C136.474 636.495 140.583 637.228 144.684 637.96C145.189 637.91 147.076 637.649 148.17 636.1C148.473 635.67 149.172 634.685 148.776 633.717C148.482 632.976 147.699 632.58 147.05 632.496C146.469 632.42 145.627 632.546 145.223 633.102C144.911 633.523 145.097 633.86 144.768 634.222C144.406 634.617 143.8 634.643 143.396 634.626C138.739 634.5 132.887 632.799 132.887 632.799C129.578 631.839 130.319 632.243 126.993 631.275C123.616 630.289 120.77 629.254 118.564 628.378C118.555 628.024 118.539 627.519 118.463 626.904C118.353 625.995 118.294 625.54 118.059 625.279C117.503 624.656 116.181 624.589 115.465 625.229C114.96 625.675 114.901 626.357 114.859 626.904C114.85 627.039 114.817 627.443 115.061 628.631C115.154 629.085 115.297 629.717 115.516 630.458C116.164 630.769 116.821 631.073 117.495 631.376C121.149 633.001 124.702 634.272 128.104 635.274Z" fill="#AEC3CE"/>
<path d="M244.829 663.501C245.275 667.93 245.721 672.359 246.168 676.788C247.591 676.426 249.014 676.056 250.437 675.694C249.991 671.795 249.544 667.896 249.098 663.989C253.199 664.722 257.308 665.454 261.409 666.187C261.914 666.136 263.8 665.875 264.895 664.326C265.198 663.897 265.897 662.911 265.501 661.943C265.206 661.202 264.423 660.806 263.775 660.722C263.194 660.646 262.352 660.773 261.948 661.328C261.636 661.749 261.821 662.086 261.493 662.448C261.131 662.844 260.525 662.869 260.12 662.852C255.464 662.726 249.612 661.025 249.612 661.025C246.302 660.065 247.043 660.469 243.717 659.501C240.341 658.516 237.495 657.48 235.289 656.605C235.28 656.251 235.263 655.746 235.187 655.131C235.078 654.222 235.019 653.767 234.783 653.506C234.228 652.883 232.906 652.815 232.19 653.455C231.685 653.902 231.626 654.584 231.584 655.131C231.575 655.266 231.541 655.67 231.786 656.857C231.878 657.312 232.021 657.943 232.24 658.684C232.889 658.996 233.545 659.299 234.219 659.602C237.874 661.227 241.435 662.499 244.829 663.501Z" fill="#AEC3CE"/>
<path d="M364.945 690.319C365.391 694.748 365.838 699.178 366.284 703.607C367.707 703.245 369.13 702.874 370.553 702.512C370.107 698.613 369.661 694.715 369.214 690.808C373.315 691.54 377.424 692.273 381.525 693.005C382.03 692.955 383.916 692.694 385.011 691.144C385.314 690.715 386.013 689.73 385.617 688.761C385.323 688.02 384.539 687.625 383.891 687.54C383.31 687.465 382.468 687.591 382.064 688.147C381.752 688.568 381.938 688.905 381.609 689.267C381.247 689.662 380.641 689.688 380.237 689.671C375.58 689.545 369.728 687.844 369.728 687.844C366.419 686.884 367.16 687.288 363.834 686.32C360.457 685.334 357.611 684.299 355.405 683.423C355.396 683.069 355.379 682.564 355.304 681.949C355.194 681.04 355.135 680.585 354.9 680.324C354.344 679.701 353.022 679.634 352.306 680.274C351.801 680.72 351.742 681.402 351.7 681.949C351.691 682.084 351.658 682.488 351.902 683.676C351.994 684.13 352.138 684.762 352.357 685.503C353.005 685.814 353.662 686.117 354.335 686.421C357.99 688.046 361.543 689.326 364.945 690.319Z" fill="#AEC3CE"/>
<path d="M114.716 621.229C114.632 622.526 114.548 623.823 114.463 625.119C115.954 625.094 117.436 625.077 118.926 625.052C119.221 624.883 119.667 624.589 120.071 624.092C120.888 623.098 120.989 621.928 121.031 621.414C121.882 609.617 120.964 601.205 120.964 601.205C120.417 596.153 120.72 597.803 120.004 590.747C119.819 588.962 119.078 581.746 117.773 571.936C117.343 568.728 116.964 566.05 116.686 564.155C115.499 563.877 114.303 563.6 113.116 563.33C113.251 564.492 113.445 566.21 113.689 568.307C114.783 577.603 115.188 579.876 115.727 584.625C116.299 589.602 116.552 593.551 117.065 601.458C117.385 606.359 117.579 610.282 116.998 615.419C116.762 617.524 116.468 619.259 116.232 620.454C115.735 620.724 115.23 620.976 114.716 621.229Z" fill="#F7FCFE"/>
<path d="M145.114 628.631C145.029 629.928 144.945 631.225 144.861 632.522C146.351 632.496 147.833 632.48 149.324 632.454C149.618 632.286 150.065 631.991 150.469 631.494C151.286 630.501 151.387 629.33 151.429 628.817C152.279 617.02 151.362 608.608 151.362 608.608C150.814 603.555 151.117 605.206 150.402 598.149C150.216 596.364 149.475 589.148 148.17 579.338C147.741 576.13 147.362 573.452 147.084 571.558C145.897 571.28 144.701 571.002 143.514 570.732C143.648 571.894 143.842 573.612 144.086 575.709C145.181 585.005 145.585 587.279 146.124 592.028C146.697 597.004 146.949 600.953 147.463 608.86C147.783 613.761 147.976 617.685 147.395 622.821C147.16 624.926 146.865 626.661 146.629 627.857C146.141 628.118 145.627 628.37 145.114 628.631Z" fill="#F7FCFE"/>
<path d="M232.24 650.18C232.155 651.477 232.071 652.774 231.987 654.07C233.477 654.045 234.959 654.028 236.45 654.003C236.744 653.835 237.191 653.54 237.595 653.043C238.412 652.05 238.513 650.879 238.555 650.365C239.405 638.568 238.488 630.156 238.488 630.156C237.94 625.104 238.243 626.755 237.528 619.698C237.342 617.913 236.601 610.697 235.296 600.887C234.867 597.679 234.488 595.001 234.21 593.106C233.023 592.829 231.827 592.551 230.64 592.281C230.774 593.443 230.968 595.161 231.212 597.258C232.307 606.554 232.711 608.827 233.25 613.577C233.823 618.553 234.075 622.502 234.589 630.409C234.909 635.31 235.102 639.234 234.521 644.37C234.286 646.475 233.991 648.21 233.755 649.406C233.258 649.675 232.753 649.928 232.24 650.18Z" fill="#F7FCFE"/>
<path d="M261.618 657.86C261.534 659.157 261.45 660.453 261.366 661.75C262.856 661.725 264.338 661.708 265.829 661.683C266.123 661.514 266.57 661.22 266.974 660.723C267.791 659.729 267.892 658.559 267.934 658.045C268.784 646.248 267.866 637.836 267.866 637.836C267.319 632.784 267.622 634.434 266.906 627.378C266.721 625.593 265.98 618.376 264.675 608.567C264.246 605.358 263.867 602.681 263.589 600.786C262.402 600.508 261.206 600.23 260.019 599.961C260.153 601.123 260.347 602.841 260.591 604.937C261.686 614.234 262.09 616.507 262.629 621.256C263.201 626.233 263.454 630.182 263.968 638.089C264.288 642.989 264.481 646.913 263.9 652.05C263.665 654.155 263.37 655.89 263.134 657.085C262.637 657.346 262.124 657.599 261.618 657.86Z" fill="#F7FCFE"/>
<path d="M350.758 677.588C350.674 678.885 350.59 680.182 350.505 681.479C351.996 681.453 353.478 681.437 354.968 681.411C355.263 681.243 355.709 680.948 356.113 680.451C356.93 679.458 357.031 678.287 357.073 677.774C357.924 665.977 357.006 657.565 357.006 657.565C356.459 652.512 356.762 654.163 356.046 647.106C355.861 645.321 355.12 638.105 353.815 628.295C353.385 625.087 353.006 622.409 352.728 620.515C351.541 620.237 350.345 619.959 349.158 619.689C349.293 620.851 349.487 622.569 349.731 624.666C350.825 633.962 351.23 636.236 351.769 640.985C352.341 645.961 352.594 649.91 353.107 657.817C353.427 662.718 353.621 666.642 353.04 671.778C352.804 673.883 352.51 675.618 352.274 676.814C351.777 677.075 351.263 677.336 350.758 677.588Z" fill="#F7FCFE"/>
<path d="M380.692 683.76C380.607 685.057 380.523 686.354 380.439 687.651C381.929 687.625 383.412 687.608 384.902 687.583C385.197 687.415 385.643 687.12 386.047 686.623C386.864 685.63 386.965 684.459 387.007 683.946C387.857 672.148 386.94 663.736 386.94 663.736C386.392 658.684 386.695 660.335 385.98 653.278C385.794 651.493 385.053 644.277 383.748 634.467C383.319 631.259 382.94 628.581 382.662 626.687C381.475 626.409 380.279 626.131 379.092 625.861C379.227 627.023 379.42 628.741 379.664 630.838C380.759 640.134 381.163 642.407 381.702 647.157C382.275 652.133 382.527 656.082 383.041 663.989C383.361 668.89 383.555 672.814 382.974 677.95C382.738 680.055 382.443 681.79 382.207 682.986C381.711 683.247 381.205 683.508 380.692 683.76Z" fill="#F7FCFE"/>
<path d="M111.481 649.211C111.524 648.116 111.448 647.131 111.33 646.306C122.975 645.691 134.629 645.076 146.275 644.453C146.275 644.95 146.275 645.438 146.275 645.935C147.715 645.935 149.155 645.935 150.594 645.935C150.679 646.634 150.763 647.333 150.839 648.032C152.447 648.571 154.047 649.101 155.655 649.64C156.245 652.25 157.028 655.888 157.878 660.258C159.31 667.668 160.867 675.685 161.709 684.711C162.316 691.229 162.72 700.087 161.954 710.772C153.92 710.949 145.643 711.269 137.13 711.758C129.644 712.187 122.352 712.734 115.271 713.366C113.376 713.038 111.481 712.709 109.587 712.381C108.804 708.179 108.021 703.986 107.238 699.784C106.64 693.974 105.705 683.061 106.126 672.864C106.261 669.664 106.648 663.433 107.238 656.806C107.431 654.642 107.608 652.848 107.734 651.619C108.93 651.375 110.126 651.122 111.313 650.878C111.397 650.373 111.456 649.817 111.481 649.211Z" fill="#F7FCFE"/>
<path d="M111.104 650.928C109.984 651.164 108.855 651.391 107.735 651.627C107.609 652.856 107.382 655.348 107.188 657.513C106.599 664.139 106.211 670.371 106.077 673.57C105.807 680.096 106.203 686.917 106.607 692.508L113.343 692.053L111.104 650.928Z" fill="#2F3F44"/>
<path d="M113.376 649.615L115.464 691.81L143.429 690.278L141.837 648.26L113.376 649.615Z" fill="#2F3F44"/>
<path d="M161.71 684.72C160.868 675.694 159.319 667.677 157.879 660.267C157.029 655.897 156.246 652.251 155.656 649.649C154.267 649.186 152.877 648.723 151.488 648.26H143.43L145.122 690.126H155.782L162.165 691.019C162.047 688.728 161.887 686.623 161.71 684.72Z" fill="#2F3F44"/>
<path d="M114.589 674.135C119.422 663.702 125.418 654.979 132.289 648.562L113.368 649.463L114.589 674.135Z" fill="#57666C"/>
<path d="M111.095 650.777C109.975 651.013 108.847 651.24 107.727 651.476C107.6 652.706 107.373 655.198 107.179 657.362C106.59 663.989 106.203 670.22 106.068 673.42C105.798 679.946 106.194 686.766 106.598 692.357L108.03 692.265C109.36 687.533 110.893 683.002 112.611 678.716L111.095 650.777Z" fill="#57666C"/>
<path d="M228.552 676.468C228.594 675.374 228.518 674.389 228.4 673.563C240.046 672.949 251.7 672.334 263.345 671.711C263.345 672.208 263.345 672.696 263.345 673.193C264.785 673.193 266.225 673.193 267.665 673.193C267.749 673.892 267.833 674.591 267.909 675.29C269.517 675.829 271.117 676.359 272.725 676.898C273.315 679.508 274.098 683.146 274.948 687.516C276.38 694.926 277.938 702.942 278.78 711.969C279.386 718.486 279.79 727.345 279.024 738.03C270.991 738.207 262.713 738.527 254.2 739.016C246.715 739.445 239.423 739.992 232.341 740.624C230.446 740.295 228.552 739.967 226.657 739.639C225.874 735.437 225.091 731.243 224.308 727.042C223.71 721.232 222.775 710.319 223.196 700.122C223.331 696.922 223.718 690.691 224.308 684.064C224.502 681.9 224.678 680.106 224.805 678.877C226 678.633 227.196 678.38 228.383 678.136C228.476 677.622 228.535 677.066 228.552 676.468Z" fill="#F7FCFE"/>
<path d="M228.181 678.178C227.061 678.414 225.933 678.641 224.813 678.877C224.686 680.106 224.459 682.598 224.265 684.763C223.676 691.389 223.289 697.621 223.154 700.82C222.884 707.346 223.28 714.167 223.684 719.758L230.421 719.303L228.181 678.178Z" fill="#2F3F44"/>
<path d="M230.454 676.872L232.542 719.058L260.507 717.526L258.907 675.508L230.454 676.872Z" fill="#2F3F44"/>
<path d="M278.788 711.976C277.946 702.949 276.396 694.933 274.956 687.523C274.106 683.153 273.323 679.507 272.733 676.905C271.344 676.442 269.955 675.979 268.565 675.516H260.507L262.199 717.382H272.86L279.242 718.275C279.124 715.976 278.964 713.871 278.788 711.976Z" fill="#2F3F44"/>
<path d="M231.667 701.383C236.501 690.951 242.496 682.227 249.367 675.811L230.446 676.712L231.667 701.383Z" fill="#57666C"/>
<path d="M228.164 678.025C227.044 678.261 225.916 678.489 224.796 678.724C224.67 679.954 224.442 682.446 224.249 684.61C223.659 691.237 223.272 697.468 223.137 700.668C222.868 707.194 223.263 714.014 223.668 719.606L225.099 719.513C226.43 714.781 227.962 710.25 229.68 705.964L228.164 678.025Z" fill="#57666C"/>
<path d="M346.009 704.845C346.051 703.751 345.975 702.766 345.857 701.94C357.503 701.326 369.157 700.711 380.802 700.088C380.802 700.585 380.802 701.073 380.802 701.57C382.242 701.57 383.682 701.57 385.122 701.57C385.206 702.269 385.29 702.968 385.366 703.667C386.974 704.205 388.574 704.736 390.182 705.275C390.772 707.885 391.555 711.523 392.405 715.893C393.837 723.303 395.395 731.319 396.237 740.346C396.843 746.863 397.247 755.722 396.481 766.407C388.448 766.584 380.171 766.904 371.657 767.392C364.172 767.822 356.88 768.369 349.798 769.001C347.903 768.672 346.009 768.344 344.114 768.016C343.331 763.814 342.548 759.62 341.765 755.419C341.167 749.608 340.232 738.696 340.653 728.498C340.788 725.299 341.175 719.068 341.765 712.441C341.959 710.277 342.135 708.483 342.262 707.254C343.457 707.01 344.653 706.757 345.84 706.513C345.933 705.999 345.984 705.443 346.009 704.845Z" fill="#F7FCFE"/>
<path d="M345.629 706.555C344.509 706.79 343.381 707.018 342.261 707.254C342.135 708.483 341.907 710.975 341.714 713.139C341.124 719.766 340.737 725.997 340.602 729.197C340.333 735.723 340.728 742.544 341.133 748.135L347.869 747.68L345.629 706.555Z" fill="#2F3F44"/>
<path d="M347.911 705.24L349.991 747.435L377.964 745.903L376.364 703.885L347.911 705.24Z" fill="#2F3F44"/>
<path d="M396.245 740.345C395.403 731.319 393.853 723.302 392.413 715.892C391.563 711.522 390.78 707.876 390.19 705.274C388.801 704.811 387.412 704.348 386.022 703.885H377.964L379.656 745.751H390.317L396.699 746.644C396.581 744.353 396.421 742.248 396.245 740.345Z" fill="#2F3F44"/>
<path d="M349.115 729.76C353.949 719.327 359.944 710.604 366.815 704.188L347.895 705.088L349.115 729.76Z" fill="#57666C"/>
<path d="M345.621 706.402C344.501 706.638 343.373 706.865 342.253 707.101C342.127 708.331 341.899 710.823 341.706 712.987C341.116 719.614 340.729 725.845 340.594 729.045C340.325 735.571 340.721 742.391 341.125 747.982L342.556 747.89C343.887 743.158 345.419 738.627 347.137 734.341L345.621 706.402Z" fill="#57666C"/>
<path d="M266.424 729.635C266.424 729.618 266.407 729.534 266.398 729.483C266.356 729.222 266.23 728.532 266.23 728.473C266.205 728.287 266.062 728.397 266.036 728.405C265.935 728.481 265.817 728.548 265.649 728.666C265.624 728.683 265.531 728.742 265.514 728.742C265.354 728.793 265.228 728.683 265.27 728.54C265.27 728.523 265.312 728.405 265.337 728.287C265.447 727.858 265.716 726.864 265.75 726.746C265.792 726.57 265.691 726.578 265.599 726.586C265.599 726.586 264.437 726.662 264.293 726.671C264.234 726.671 264.218 726.704 264.201 726.738C264.192 726.746 264.167 726.814 264.15 726.847C264.133 726.89 264.108 726.948 264.074 726.991C264.032 727.05 263.999 727.024 263.973 726.999C263.864 726.89 263.308 726.561 262.651 726.603C261.338 726.687 260.765 727.715 260.689 728.439C260.689 728.456 260.681 728.523 260.673 728.523C260.664 728.565 260.656 728.565 260.639 728.574C260.63 728.582 260.597 728.599 260.563 728.624C260.412 728.708 260.016 728.944 259.839 729.054C259.654 729.155 259.527 729.02 259.586 728.835C259.586 728.818 260.614 725.104 260.673 724.928C260.706 724.801 260.647 724.784 260.605 724.793C260.588 724.793 259.241 724.885 259.157 724.885C259.031 724.894 259.005 724.919 258.98 724.953C258.972 724.961 258.963 724.978 258.963 724.995C258.913 725.214 258.475 726.873 258.34 727.285C258.315 727.37 258.29 727.437 258.163 727.504C257.953 727.622 257.532 727.631 257.33 727.639C257.229 727.647 257.085 727.647 256.976 727.631C256.816 727.614 256.698 727.555 256.572 727.496C256.075 727.26 255.679 727.024 255.006 727.075C253.911 727.142 253.17 727.858 253.052 728.793C253.052 728.818 253.035 728.91 253.035 728.986C253.027 729.062 253.018 729.079 252.968 729.113C252.926 729.138 252.757 729.239 252.488 729.399C252.412 729.441 252.185 729.576 251.949 729.668C251.89 729.694 251.747 729.736 251.688 729.744C251.292 729.769 251.124 729.483 251.107 729.264C251.082 728.877 251.461 728.742 251.612 728.734C251.688 728.725 251.789 728.742 251.873 728.793C251.882 728.793 251.924 728.818 251.941 728.818C251.991 728.835 252.025 728.818 252.042 728.801C252.05 728.793 252.067 728.759 252.084 728.742C252.218 728.574 252.825 727.866 252.884 727.791C252.943 727.673 252.875 727.631 252.842 727.605C252.623 727.428 252.168 727.243 251.595 727.277C250.012 727.412 249.591 728.54 249.549 729.045C249.549 729.062 249.541 729.113 249.541 729.121C249.532 729.171 249.507 729.188 249.49 729.205C249.473 729.214 249.414 729.247 249.381 729.273C249.305 729.323 248.884 729.584 248.825 729.626C248.808 729.635 248.749 729.677 248.741 729.677C248.513 729.778 248.446 729.609 248.463 729.525C248.463 729.517 248.884 727.984 248.884 727.984C248.884 727.984 248.96 727.732 248.968 727.706C248.985 727.614 248.96 727.614 248.876 727.622L248.564 727.639C248.244 727.656 247.629 727.698 247.495 727.706C247.301 727.715 247.309 727.706 247.276 727.799C247.259 727.849 247.04 728.658 246.973 728.843C246.956 728.885 246.93 728.969 246.922 728.995C246.888 729.104 246.855 729.113 246.745 729.188L246.417 729.416C245.432 730.089 245.339 730.014 244.909 729.34C244.893 729.315 244.851 729.247 244.842 729.239C244.8 729.188 244.8 729.155 244.893 729.104C245.154 728.936 246.189 728.355 246.105 726.991C246.021 725.66 244.699 724.894 242.729 725.02C239.899 725.197 237.761 727.698 238.022 729.971C238.358 732.649 240.615 732.388 241.819 730.797C241.962 730.62 242.24 730.072 242.24 730.072C242.316 729.904 242.35 729.845 242.409 729.702C242.409 729.702 242.527 729.39 242.535 729.331C242.602 729.096 242.678 729.087 242.813 729.289C242.948 729.534 243.646 730.645 243.975 731.032C244.27 731.394 244.851 731.63 245.288 731.597C245.844 731.563 246.248 731.268 246.476 731.1C246.476 731.1 246.804 730.872 246.846 730.872C246.863 730.847 246.981 730.813 247.031 730.889C247.099 730.931 247.478 731.47 248.345 731.411C248.657 731.394 248.909 731.285 249.078 731.192C249.162 731.142 249.339 731.041 249.423 730.99C249.583 730.898 249.827 730.763 249.928 730.704C250.038 730.637 250.046 730.637 250.147 730.712C250.189 730.746 250.854 731.251 251.688 731.201C252.395 731.159 253.439 730.502 253.515 730.46C253.583 730.426 253.608 730.409 253.667 730.443C253.675 730.443 253.743 730.502 253.751 730.519C253.852 730.628 254.416 731.032 255.225 730.982C255.755 730.948 256.235 730.755 256.597 730.468C256.976 730.148 257.237 729.744 257.304 729.264C257.313 729.205 257.321 729.079 257.321 729.02C257.313 728.961 257.304 728.927 257.448 728.919L257.751 728.902C257.801 728.902 257.894 728.894 257.877 728.986C257.869 729.062 257.818 729.18 257.801 729.331C257.784 729.491 257.818 729.626 257.818 729.651C257.936 730.081 258.315 730.679 259.283 730.729C259.342 730.738 259.46 730.729 259.536 730.721C259.755 730.696 259.991 730.611 260.184 730.502C260.403 730.376 261.068 730.005 261.102 729.988C261.169 729.946 261.211 729.938 261.27 729.98C261.279 729.988 261.296 729.997 261.313 730.014C261.582 730.216 261.818 730.333 262.045 730.426C262.272 730.51 262.567 730.544 262.879 730.527C263.561 730.468 263.898 730.173 263.957 730.131C264.015 730.098 264.041 730.064 264.117 730.123C264.159 730.157 264.462 730.426 265.051 730.392C265.497 730.367 266.053 729.997 266.289 729.854C266.34 729.828 266.398 729.786 266.407 729.786C266.432 729.719 266.432 729.702 266.424 729.635ZM244.253 727.26C244.278 728.144 242.99 728.649 242.846 728.7C242.729 728.742 242.762 728.7 242.779 728.641C242.788 728.582 242.838 728.363 242.88 728.169C242.922 727.984 242.872 727.984 242.745 727.993L241.238 728.085C241.12 728.094 241.103 728.119 241.061 728.254C240.927 728.692 240.775 729.39 240.649 729.668C240.556 729.879 240.514 729.929 240.447 729.997C240.118 730.325 239.798 730.19 239.773 729.71C239.689 728.388 240.952 726.62 242.905 726.511C243.815 726.494 244.27 726.94 244.253 727.26ZM255.191 729.517C254.888 729.534 254.627 729.331 254.61 729.054C254.593 728.784 254.829 728.54 255.132 728.523C255.435 728.506 255.696 728.717 255.713 728.986C255.738 729.256 255.502 729.491 255.191 729.517ZM262.811 729.054C262.508 729.07 262.239 728.86 262.222 728.582C262.205 728.304 262.441 728.06 262.744 728.043C263.047 728.026 263.317 728.237 263.333 728.515C263.35 728.793 263.114 729.037 262.811 729.054Z" fill="#015345"/>
<g filter="url(#filter1_d)">
<path d="M960.326 955.331L207 1561H350.5H1440V598L1331.9 646.161L1200.94 890.018L960.326 955.331Z" fill="#675C5C"/>
</g>
<path d="M1352.46 884.19L1440 598V858.499L1445.54 856.872L1440 862.64V1561.5L1145.03 1323.76L1323.88 1132.89L1247.42 1063L1440 862.64V858.499L1352.46 884.19Z" fill="#9D9D9D"/>
<path d="M1174.57 857.577C1174.71 856.635 1174.99 855.951 1174.57 855.416C1174.34 855.131 1174.03 855.024 1173.61 854.913C1171.98 854.491 1170.61 854.527 1170.48 854.532C1169.56 854.562 1168.35 854.656 1166.93 854.92C1166.4 854.045 1165.88 853.168 1165.36 852.293C1165.09 852.143 1164.68 851.97 1164.18 851.95C1163.77 851.933 1163.52 852.031 1163.24 852.086C1162.4 852.256 1161.85 851.948 1161.12 851.789C1160.01 851.546 1159.52 851.872 1158.23 851.977C1156.45 852.121 1155.53 851.648 1154.04 851.381C1152.59 851.12 1150.48 851.032 1147.68 851.859C1147.46 851.896 1147.13 851.982 1146.8 852.215C1146.14 852.69 1145.95 853.463 1145.9 853.669C1145.58 854.824 1144.19 856.572 1141.42 860.066C1140.23 861.568 1139.17 862.712 1137.04 864.997C1134.91 867.279 1134.43 867.646 1133.29 869.002C1131.57 871.024 1130.4 872.841 1129.68 874.042C1129.36 874.122 1128.92 874.238 1128.4 874.393C1128.14 874.469 1125.76 875.18 1123.83 876.109C1121.39 877.291 1121.44 877.982 1119.35 879.138C1117.13 880.366 1115.13 880.656 1113.61 880.876C1110.6 881.312 1109.96 880.717 1104.47 880.302C1099.33 879.913 1096.76 879.72 1094.13 880.57C1093.53 880.765 1092.06 881.287 1089.76 881.948C1089.24 882.096 1089.03 882.155 1086.66 882.794C1082.47 883.929 1082.26 883.986 1081.8 884.218C1080.98 884.628 1079.29 885.502 1078.14 887.304C1077.74 887.929 1077.83 888.016 1076.88 890.205C1076.22 891.72 1076.01 892.083 1075.34 893.54C1074.7 894.922 1074.17 896.237 1073.12 898.809C1071.8 902.042 1071.14 903.658 1071.03 904.021C1069.88 907.735 1070.52 908.375 1069.38 911.42C1068.38 914.079 1067.03 915.862 1066.71 916.277C1064.8 918.749 1063.89 918.536 1061.34 921.349C1059.22 923.686 1058.11 925.76 1057.85 926.238C1057.14 927.604 1056.01 929.792 1055.68 932.87C1055.46 934.891 1055.66 936.585 1055.87 937.724C1056.07 937.362 1056.42 936.879 1056.99 936.57C1057.89 936.084 1058.86 936.297 1059.2 936.357C1062.4 936.922 1066.71 933.936 1066.99 933.737C1069.03 932.295 1070.1 930.598 1070.88 929.353C1071.78 927.922 1072.87 926.202 1073.03 923.818C1073.11 922.707 1072.97 921.684 1073.05 921.676C1073.15 921.666 1073.34 923.046 1073.69 925.03C1074.26 928.211 1074.34 927.9 1074.49 929.097C1074.59 929.875 1074.96 933.291 1073.7 937.325C1073.44 938.151 1073.17 938.814 1072.98 939.263C1073.28 940.234 1073.59 941.206 1073.89 942.179C1075.03 945.817 1076.16 949.442 1077.26 953.058C1080.85 952.849 1084.43 952.639 1088.02 952.431C1087.8 951.867 1087.42 951.1 1086.73 950.37C1085.11 948.647 1083 948.386 1082.35 948.334C1081.72 946.623 1081.45 945.211 1081.33 944.333C1080.62 939.427 1082 935.392 1083.71 930.396C1084.09 929.28 1084.43 928.395 1084.92 927.41C1086.09 925.031 1087.3 923.662 1088.26 922.443C1092.11 917.543 1094.19 912.16 1095.56 908.623C1095.84 907.914 1096.05 907.331 1096.17 906.971C1096.85 906.98 1097.83 907.038 1098.99 907.284C1102.36 908.001 1104.36 909.713 1106.1 910.934C1111.23 914.514 1116.57 915.508 1119.09 915.974C1122.15 916.542 1124.76 916.544 1126.55 916.444C1127.74 918.831 1128.93 921.553 1130 924.602C1131.59 929.101 1132.55 933.255 1133.14 936.83C1133.78 937.006 1134.31 937.252 1134.75 937.506C1137.87 939.343 1138.47 943.229 1138.59 944.143C1139.37 944.484 1140.16 944.823 1140.94 945.163C1143.49 944.936 1146.03 944.712 1148.58 944.485C1148.52 943.959 1148.37 943.204 1147.96 942.406C1147.25 941.023 1146.16 940.316 1145.59 939.904C1144.47 939.092 1143.01 937.702 1141.63 935.178C1141.32 932.596 1141.07 929.821 1140.95 926.869C1140.78 922.745 1140.87 918.927 1141.1 915.469C1141.85 915.482 1142.96 915.439 1144.27 915.144C1145.3 914.913 1148.39 914.17 1150.74 911.566C1151.28 910.966 1151.94 909.807 1153.25 907.488C1154.41 905.422 1154.99 904.388 1155.35 903.496C1155.8 902.355 1156.95 899.365 1156.49 895.71C1156.35 894.618 1156.17 894.268 1155.82 892.883C1154.62 888.182 1153.55 883.995 1155.35 880.866C1156.38 879.095 1158.03 878.146 1160.62 876.67C1160.99 876.456 1162.52 875.737 1165.57 874.298C1168.37 872.976 1169.41 872.496 1170.45 871.334C1171.4 870.278 1171.89 869.161 1172.16 868.378C1172.23 868.224 1172.36 867.998 1172.58 867.794C1172.95 867.456 1173.33 867.415 1173.59 867.326C1174.65 866.957 1175.1 865.242 1175.18 864.29C1175.22 863.805 1175.15 863.708 1174.98 862.482C1174.61 859.889 1174.42 858.591 1174.57 857.577Z" fill="url(#paint0_linear)"/>
<path d="M1150.81 910.656C1150.67 914.547 1150.68 918.802 1150.94 923.363C1151.18 927.681 1151.62 931.699 1152.15 935.377C1152.13 935.766 1152.15 936.331 1152.51 936.745C1152.76 937.024 1153.18 937.258 1154.84 937.269C1157.05 937.286 1157.52 936.886 1158.23 937.334C1158.76 937.667 1159.02 938.218 1159.37 938.986C1159.7 939.702 1159.84 940.347 1159.9 940.793C1156.66 941.106 1153.41 941.42 1150.16 941.733C1149.88 941.473 1149.45 941.062 1149.01 940.507C1147.83 939.051 1147.48 937.842 1146.91 936.696C1146.44 935.73 1145.61 934.408 1144.08 933.024C1144.14 931.171 1144.12 929.201 1144 927.129C1143.73 922.246 1142.96 917.905 1142.04 914.208C1144.96 913.023 1147.89 911.839 1150.81 910.656Z" fill="url(#paint1_linear)"/>
<path d="M1106.79 910.383C1105.8 913.682 1104.24 917.753 1101.71 922.092C1099.9 925.207 1097.99 927.79 1096.23 929.873C1096.51 930.52 1099.49 937.42 1101.14 939.468C1101.56 939.996 1101.92 940.232 1102.23 940.369C1103.37 940.882 1104.3 940.268 1105.24 940.33C1106.07 940.384 1107.31 941.607 1108.61 943.879C1105.97 944.226 1103.33 944.574 1100.69 944.92C1098.92 943.317 1097.12 941.707 1095.27 940.089C1093.33 938.392 1091.41 936.74 1089.5 935.128C1089.57 934.079 1089.7 932.482 1089.97 930.54C1090.32 927.943 1090.59 927.062 1090.44 925.668C1090.31 924.562 1089.9 922.981 1088.56 921.148C1089.72 911.627 1093.43 907.645 1095.74 904.716C1096.11 904.247 1097.07 904.816 1097.96 905.435C1100.9 907.085 1103.85 908.735 1106.79 910.383Z" fill="url(#paint2_linear)"/>
<path d="M1074.5 929.104C1074.35 927.907 1074.27 928.218 1073.7 925.036C1073.35 923.053 1073.16 921.673 1073.06 921.682C1072.98 921.69 1073.12 922.714 1073.04 923.825C1072.92 925.532 1072.33 926.896 1071.68 928.061C1071.7 926.935 1071.52 926.045 1071.4 925.565C1070.99 926.287 1070.32 927.29 1069.24 928.247C1067.86 929.478 1066.44 930.074 1065.57 930.367C1065.97 930.091 1066.65 929.555 1067.21 928.662C1067.81 927.702 1067.98 926.786 1068.04 926.287C1067.01 927.403 1065.51 928.781 1063.46 929.995C1062.18 930.756 1060.97 931.286 1059.92 931.662C1059.83 930.758 1059.74 929.377 1059.8 927.699C1059.89 925.2 1060.24 923.489 1060.33 922.547C1060.64 922.163 1060.98 921.764 1061.35 921.357C1061.94 920.704 1062.44 920.214 1062.89 919.815C1063.19 920.242 1063.56 920.686 1064.02 921.115C1064.46 921.528 1066.06 922.975 1068.58 923.248C1070.04 923.406 1071.22 923.107 1071.89 922.883C1071.7 921.176 1071.56 919.104 1071.62 916.751C1071.66 915.212 1071.84 913.73 1072.19 910.767C1072.55 907.759 1072.98 904.776 1074.44 902.185C1075.1 901.006 1075.36 900.994 1075.45 901.02C1075.74 901.105 1075.59 902.029 1075.64 903.35C1075.75 906.191 1076.65 906.635 1076.46 908.984C1076.37 910.132 1076.16 910.013 1076.09 911.229C1076.04 911.939 1076.07 912.768 1076.62 915.279C1077.15 917.698 1077.42 918.93 1078.05 919.978C1078.67 921.022 1079.24 921.972 1080.18 922.121C1080.67 922.199 1081.64 922.124 1083.84 919.489C1085.52 917.482 1085.74 916.593 1087.08 914.586C1089.57 910.859 1091.05 910.603 1093.11 906.958C1093.86 905.633 1094.33 904.482 1094.6 903.754C1097.39 903.598 1099.63 903.785 1101.1 903.973C1104.52 904.407 1113.07 905.492 1120.53 910.493C1121.55 911.176 1123.19 912.362 1123.97 911.821C1124.41 911.519 1124.49 910.741 1123.65 906.373C1122.9 902.53 1122.53 901.555 1122.45 899.464C1122.4 898.242 1122.27 894.812 1123.48 894.402C1124.02 894.219 1124.57 894.719 1126.32 896.189C1128.93 898.375 1130.23 899.466 1130.54 899.599C1133.66 900.962 1138.29 898.844 1140.61 895.802C1141.19 895.046 1141.56 894.323 1141.79 893.779C1140.79 892.904 1139.33 891.47 1138.01 889.41C1137.48 888.582 1135.33 885.081 1134.47 877.993C1133.82 872.641 1134.44 869.629 1133.99 868.211C1134.74 867.392 1135.39 866.772 1137.04 865.004C1137.18 864.857 1137.31 864.713 1137.44 864.574C1137.55 864.931 1137.72 865.285 1138.03 865.556C1138.87 866.308 1139.96 865.779 1141.33 866.359C1141.75 866.536 1142.36 866.891 1143.44 868.35C1145.1 870.595 1145.23 871.905 1146.37 874.073C1147.14 875.563 1149.14 879.394 1151.34 879.239C1152.45 879.16 1153.25 878.087 1153.95 877.148C1155.04 875.696 1154.78 874.958 1156.09 872.46C1156.49 871.703 1156.92 870.895 1157.64 869.981C1158.87 868.436 1159.71 868.13 1160.98 866.97C1161.75 866.259 1163.55 864.62 1164.35 862.119C1165.18 859.555 1164.59 857.257 1164.25 855.901C1164.16 855.556 1163.68 853.709 1162.74 852.137C1162.9 852.138 1163.07 852.128 1163.25 852.091C1163.53 852.034 1163.78 851.938 1164.2 851.955C1164.34 851.96 1164.47 851.979 1164.59 852.005C1164.87 852.774 1165.14 853.54 1165.42 854.309C1165.62 854.309 1165.9 854.304 1166.22 854.271C1166.32 854.261 1166.42 854.249 1166.53 854.239C1166.66 854.466 1166.8 854.695 1166.94 854.923C1168.36 854.663 1169.57 854.566 1170.49 854.536C1170.56 854.533 1170.97 854.523 1171.59 854.576C1171.14 854.649 1170.95 854.787 1170.89 854.948C1170.82 855.182 1171.17 855.595 1171.88 856.421C1172.66 857.332 1173.07 857.789 1173.71 857.933C1173.81 857.956 1174.16 858.033 1174.54 857.967C1174.48 858.93 1174.66 860.209 1174.98 862.488C1175.16 863.715 1175.23 863.814 1175.19 864.297C1175.11 865.249 1174.66 866.963 1173.6 867.333C1173.34 867.422 1172.96 867.464 1172.59 867.801C1172.37 868.004 1172.24 868.23 1172.17 868.385C1171.9 869.168 1171.41 870.284 1170.46 871.341C1169.42 872.503 1168.38 872.982 1165.58 874.305C1162.53 875.744 1161 876.462 1160.63 876.676C1158.04 878.152 1156.38 879.102 1155.36 880.873C1153.56 884.003 1154.63 888.189 1155.83 892.889C1156.18 894.273 1156.36 894.624 1156.5 895.716C1156.96 899.372 1155.81 902.359 1155.36 903.503C1155.01 904.394 1154.42 905.427 1153.26 907.494C1151.95 909.814 1151.29 910.973 1150.75 911.572C1148.4 914.178 1145.31 914.919 1144.28 915.151C1142.97 915.447 1141.86 915.488 1141.11 915.475C1140.88 918.933 1140.79 922.751 1140.96 926.875C1141.09 929.827 1141.33 932.603 1141.64 935.184C1143.02 937.708 1144.48 939.099 1145.6 939.911C1146.17 940.323 1147.26 941.03 1147.97 942.412C1148.38 943.209 1148.53 943.965 1148.59 944.491C1146.04 944.718 1143.49 944.943 1140.95 945.17C1140.17 944.829 1139.38 944.49 1138.6 944.149C1138.48 943.235 1137.88 939.349 1134.76 937.512C1134.32 937.257 1133.79 937.013 1133.15 936.836C1132.56 933.261 1131.6 929.107 1130.01 924.608C1128.94 921.559 1127.75 918.835 1126.56 916.45C1124.77 916.551 1122.16 916.549 1119.1 915.981C1116.58 915.514 1111.23 914.52 1106.11 910.94C1104.37 909.721 1102.37 908.008 1099 907.29C1097.84 907.042 1096.86 906.984 1096.18 906.977C1096.06 907.338 1095.85 907.92 1095.57 908.63C1094.2 912.167 1092.12 917.55 1088.27 922.45C1087.31 923.67 1086.1 925.038 1084.93 927.416C1084.44 928.402 1084.1 929.287 1083.72 930.402C1082.01 935.399 1080.64 939.434 1081.34 944.34C1081.46 945.217 1081.73 946.63 1082.36 948.34C1083.01 948.395 1085.12 948.653 1086.74 950.376C1087.42 951.107 1087.81 951.874 1088.03 952.438C1084.44 952.647 1080.86 952.857 1077.27 953.065C1076.17 949.449 1075.04 945.823 1073.9 942.186C1073.6 941.212 1073.29 940.241 1072.99 939.269C1073.18 938.823 1073.45 938.157 1073.71 937.332C1074.97 933.298 1074.6 929.881 1074.5 929.104Z" fill="#FFFEED"/>
<path d="M1174.43 857.965C1174.54 859.031 1174.57 860.237 1174.44 861.551C1174.41 861.856 1174.37 862.155 1174.32 862.443C1173.1 864.09 1172.02 865.387 1171.22 866.311C1170.28 867.391 1169.82 867.837 1169.21 868.269C1167.99 869.126 1166.78 869.49 1165.98 869.662C1165.44 869.808 1164.27 869.888 1163.47 870.401C1162.08 871.282 1160.94 872.535 1161.16 872.849C1161.27 873.018 1161.75 872.903 1162.03 872.784C1162.44 872.608 1162.54 872.362 1163.15 871.679C1163.46 871.327 1163.77 870.989 1164.16 870.678C1164.61 870.33 1165.15 869.89 1165.43 869.775" stroke="black" stroke-miterlimit="10"/>
<path d="M1161.2 872.844C1161.34 873.029 1162.12 872.858 1162.51 872.466C1163.11 871.879 1163.19 871.468 1164.04 870.704C1164.58 870.219 1165.05 870.028 1165.01 869.942C1164.97 869.844 1164.33 870.001 1163.81 870.218C1162.15 870.909 1160.96 872.542 1161.2 872.844Z" fill="black"/>
<path d="M1141.74 874.381C1142.69 876.015 1144.1 878.018 1146.14 879.977C1148.51 882.252 1150.73 883.499 1151.48 883.9C1152.78 884.603 1153.94 885.07 1154.82 885.379C1154.44 885.972 1154.06 886.565 1153.68 887.159C1153.07 886.937 1152.17 886.572 1151.15 885.996C1149.05 884.806 1147.45 883.738 1145.5 881.657C1143.83 879.882 1143.33 878.719 1142.63 877.197C1142.11 876.079 1141.87 875.077 1141.74 874.381Z" fill="#CD4E4E"/>
<path d="M1163.83 879.241C1164.44 879.125 1165.75 878.966 1167.24 879.513C1167.72 879.689 1169.51 880.35 1170.44 882.158C1171.44 884.089 1170.79 886.062 1170.43 887.137C1169.48 890.026 1167.26 891.482 1166.63 891.879C1165.41 892.651 1164.35 892.927 1163.32 893.183C1161.38 893.668 1158.49 894.387 1155.81 892.908C1155.32 892.643 1153.61 891.664 1152.76 889.606C1152.56 889.109 1151.98 887.708 1152.43 886.138C1152.75 884.995 1153.52 884.091 1153.72 883.847C1153.96 883.569 1154.19 883.344 1154.32 883.224C1154.35 883.19 1154.49 883.064 1154.66 882.92C1155.16 882.509 1155.64 882.224 1155.8 882.131C1157.15 881.335 1158.56 880.797 1158.56 880.797C1160.32 880.28 1161.83 879.613 1163.83 879.241Z" fill="#3A2817"/>
<path d="M1153.69 883.875C1155.33 883.482 1157.06 885.38 1157.27 885.612C1158.92 887.47 1159.78 890.973 1158.03 892.484C1157.54 892.912 1156.92 893.098 1156.33 893.157C1156.16 893.079 1155.98 892.992 1155.81 892.895C1155.32 892.629 1153.61 891.65 1152.76 889.593C1152.56 889.096 1151.98 887.694 1152.43 886.124C1152.74 885.038 1153.44 884.166 1153.69 883.875Z" fill="#64512C"/>
<path d="M1165.06 880.21C1164.28 880.285 1162.61 880.738 1162.09 880.95C1161.4 881.235 1160.1 881.775 1158.86 882.638C1159.18 883.039 1159.57 883.569 1159.96 884.224C1160.66 885.403 1161.03 886.396 1161.15 886.742C1161.88 888.794 1161.97 890.603 1161.9 891.871C1162.8 891.813 1164.42 891.583 1166.11 890.561C1167.16 889.93 1167.89 889.201 1168.37 888.636C1168.46 887.499 1168.41 886.27 1167.66 884.287C1167.44 883.71 1167.07 882.76 1166.3 881.677C1165.86 881.043 1165.41 880.556 1165.06 880.21Z" fill="#E8E8E8"/>
<path d="M1164.61 888.666L1166.39 887.845L1164.51 882.921L1162.63 883.477L1164.61 888.666Z" fill="#CD4E4E"/>
<path d="M1167.21 885.715L1166.61 883.965L1161.71 885.571L1162.53 887.675L1167.21 885.715Z" fill="#CD4E4E"/>
<defs>
<filter id="filter0_d" x="-146" y="0.0742188" width="1467.97" height="1680.43" filterUnits="userSpaceOnUse" color-interpolation-filters="sRGB">
<feFlood flood-opacity="0" result="BackgroundImageFix"/>
<feColorMatrix in="SourceAlpha" type="matrix" values="0 0 0 0 0 0 0 0 0 0 0 0 0 0 0 0 0 0 127 0"/>
<feOffset dx="20" dy="-50"/>
<feGaussianBlur stdDeviation="83"/>
<feColorMatrix type="matrix" values="0 0 0 0 0.229167 0 0 0 0 0.184288 0 0 0 0 0.184288 0 0 0 0.47 0"/>
<feBlend mode="normal" in2="BackgroundImageFix" result="effect1_dropShadow"/>
<feBlend mode="normal" in="SourceGraphic" in2="effect1_dropShadow" result="shape"/>
</filter>
<filter id="filter1_d" x="-3" y="481" width="1453" height="1183" filterUnits="userSpaceOnUse" color-interpolation-filters="sRGB">
<feFlood flood-opacity="0" result="BackgroundImageFix"/>
<feColorMatrix in="SourceAlpha" type="matrix" values="0 0 0 0 0 0 0 0 0 0 0 0 0 0 0 0 0 0 127 0"/>
<feOffset dx="-100" dy="-7"/>
<feGaussianBlur stdDeviation="55"/>
<feColorMatrix type="matrix" values="0 0 0 0 0.275 0 0 0 0 0.258958 0 0 0 0 0.258958 0 0 0 0.54 0"/>
<feBlend mode="normal" in2="BackgroundImageFix" result="effect1_dropShadow"/>
<feBlend mode="normal" in="SourceGraphic" in2="effect1_dropShadow" result="shape"/>
</filter>
<linearGradient id="paint0_linear" x1="1106.07" y1="863.41" x2="1130.03" y2="949.641" gradientUnits="userSpaceOnUse">
<stop stop-color="#543400"/>
<stop offset="0.1276" stop-color="#523201"/>
<stop offset="0.2221" stop-color="#4D2E04"/>
<stop offset="0.306" stop-color="#442608"/>
<stop offset="0.3832" stop-color="#381B0C"/>
<stop offset="0.4219" stop-color="#31120E"/>
</linearGradient>
<linearGradient id="paint1_linear" x1="1152.33" y1="941.522" x2="1149.36" y2="910.795" gradientUnits="userSpaceOnUse">
<stop stop-color="#FFFCD9"/>
<stop offset="0.5008" stop-color="#FEF9D6"/>
<stop offset="0.684" stop-color="#F7F2CE"/>
<stop offset="0.8151" stop-color="#EEE8C1"/>
<stop offset="0.9206" stop-color="#E0DAB0"/>
<stop offset="1" stop-color="#D1CB9E"/>
</linearGradient>
<linearGradient id="paint2_linear" x1="1100.29" y1="944.96" x2="1096.39" y2="904.516" gradientUnits="userSpaceOnUse">
<stop stop-color="#FFFCD9"/>
<stop offset="0.5008" stop-color="#FEF9D6"/>
<stop offset="0.684" stop-color="#F7F2CE"/>
<stop offset="0.8151" stop-color="#EEE8C1"/>
<stop offset="0.9206" stop-color="#E0DAB0"/>
<stop offset="1" stop-color="#D1CB9E"/>
</linearGradient>
</defs>
</svg>
