<svg id="Layer_1" data-name="Layer 1" xmlns="http://www.w3.org/2000/svg" viewBox="0 0 552.73 369.84"><defs><style>.cls-1{fill:none;stroke:#ffcd05;stroke-miterlimit:10;stroke-width:3px;}.cls-2{fill:#fff;}</style></defs><g id="Layer_2" data-name="Layer 2"><path class="cls-1" d="M1157.81,555.33c.31,1.64,2.29,2.4,5.94,4,1.55.69,3.9,1.75,6.81,3.14a56.69,56.69,0,0,0-1.4,5.76,54.56,54.56,0,0,0-.87,7.51,16.35,16.35,0,0,1,3.32-1,10.45,10.45,0,0,1,5.59,0c2.28.86,3.4,3.1,4,4.36,3.57,7.39,5.35,11.08,9.78,21.47a80.43,80.43,0,0,0,6.63,12.4,58.52,58.52,0,0,0,6.29-2.62,90.44,90.44,0,0,0,10.82-6.46c5.63-3.75,6.13-4.55,8.38-4.89a25.42,25.42,0,0,1,7.33.35c2.91.57,3.61,1.24,5.24.87.6-.13,1.8-.52,4.89-4,3.54-4,2.72-4.36,4.71-5.94,2.43-1.91,4.15-1.79,6.11-4.19a10.32,10.32,0,0,0,1.57-2.62c1,.88,2.32,2,4,3.32a63.84,63.84,0,0,0,9.43,5.76c5.8,3,9.11,4.67,14,5.59a35.2,35.2,0,0,0,8.9.52,38.25,38.25,0,0,0,4.89-3.14,39.11,39.11,0,0,0,6.63-6.46c7.39-8.86,11.09-13.29,16.24-19.55,6.22-7.57,8.44-9.89,8.73-14.14a36.19,36.19,0,0,0-.52-7.33c-.69-4.14-1.61-5.44-2.1-8.9a26.9,26.9,0,0,1,.17-8.38,30.91,30.91,0,0,0,8.9-5.94c1.94-1.86,1.63-2,3.84-4.19,4.42-4.26,6.4-4.19,8.73-7.68,1.08-1.62,2.1-3.15,2.1-5.24s-1.09-3.17-.52-5.06a5.33,5.33,0,0,1,2.44-3c1.75-.89,2.67.2,5.94,0,3.07-.19,3.55-1.23,5.06-.7,1.76.62,2.54,2.53,3.49,4.89a22.08,22.08,0,0,1,1.57,8.56,29.06,29.06,0,0,1-1.22,7.51c-1.21,4.7-2.21,5.74-3.14,9.78a35.12,35.12,0,0,0-.87,6.63c1.07.87,2.59,2.12,4.36,3.67,2.34,2,4.76,4.14,7,6.46,4.33,4.52,3.52,5.27,7.51,9.43,3.06,3.19,4.9,5.11,8,6.46,2.81,1.21,3.51.61,11.52,2.44,4.83,1.1,6,1.64,6.81,2.79,1.89,2.58,1,6.56.87,7.33-.37,1.75-.79,1.69-1.4,4s-1.07,4.08-.52,6.11a8.44,8.44,0,0,0,7.69,6.11l2.62-3.49c.33,1.29.85,3.43,1.4,6.11,1.28,6.3.83,6.43,1.75,8.73,1.2,3,2.52,4.13,2.1,6.29a9.43,9.43,0,0,1-1.4,3,24.71,24.71,0,0,1-2.79,3.84,32.68,32.68,0,0,0,19.2-4.36c5.26-2.82,5.67-4.49,5.76-5.06.07-.41.15-1.43-1.4-4.19-2.12-3.78-3.76-4.48-5.41-7-.61-.92-3-4.8-2.44-9.08.51-3.87,2.86-3.65,5.59-9.95a41.42,41.42,0,0,0,2.62-8.9c.71-3.89.21-4.14.87-6.11.83-2.47,2.22-3.89,7.33-8.38,7.82-6.88,8.35-6.89,9.6-8.9a26.83,26.83,0,0,0,3.32-9.43c.68-3.69.25-5.08,1.4-9.25.78-2.86,1.22-3.06,1.57-5.24.12-.72.43-2.92-.35-8-.71-4.67-1.25-4.69-1.92-9.43a33.26,33.26,0,0,1-.17-7.33c.25-3,.72-3.66,1-4,1.71-1.85,5.06-1.25,7.16-.87,1.74.31,3.54.64,4.89,2.1s1.35,2.82,1.92,2.79c1-.05,1-4.27,1.92-4.36.74-.08,1.45,2.57,3,7.16,2.4,7.27,3.29,8.74,3.49,12.4a25.71,25.71,0,0,1-.17,4.71,24.6,24.6,0,0,1,2.27,1.92,27,27,0,0,1,4.54,5.94,29.72,29.72,0,0,1,2.1,4.54,41.25,41.25,0,0,0,5.24,1.57c5.13,1.18,8,1.84,11.17.52.4-.17,5.39-2.32,6.29-6.46.33-1.54,0-2.77.87-3.49s2.46,0,4.36.35c2.4.4,5.82-1,12.57-3.84,3.29-1.38,5-2.22,6.29-1.4,1,.63,1.08,1.75,2.62,3a7.71,7.71,0,0,0,3,1.4c.08,1.11.23,2.75.52,4.71a32.65,32.65,0,0,0,1.4,6.81c1.94,4.89,7.89,7.64,12.57,8.21,1.84.22,7.45.9,9.78-2.44,1.63-2.34.82-5.47.7-5.94-.67-2.57-2.56-4.55-4.89-7-1.87-2-2.9-2.6-3-4a6.13,6.13,0,0,1,1.57-3.67c1.39-1.92,2.16-1.7,2.79-3,.33-.65.36-1.18-.52-6.11-.66-3.66-.88-4.52-1.57-5.59a9.18,9.18,0,0,0-2.1-2.27c-1.76-1.34-3-1.21-4.19-1.92-2.06-1.21-2.55-3.92-3-6.29-1.27-7.11,1.9-13.07,3-15a21.39,21.39,0,0,1,5.41-6.63c1.68-1.31,4.85-3.78,8.21-3a5.56,5.56,0,0,1,2.79,1.57c1.34,1.43,1.32,3.12,1.57,4.36.94,4.68,6.58,7.42,8.21,8.21s6,2.92,11.17,1.4c4.87-1.43,7.3-5.2,8.9-7.68,1.19-1.83,2.74-4.31,2.44-7.51-.08-.83-.31-3.37-2.1-4.54-.75-.49-2-.57-4.36-.7-3.09-.17-3.51.08-4.19-.35-2-1.24-1.51-5.3-1.4-6.29.56-4.88,3.06-6.29,4.89-11.52a25.63,25.63,0,0,0,1.4-7.86,76.87,76.87,0,0,0,3.49-17.63,74.06,74.06,0,0,0,.17-9.08c-.79-.62-2-1.63-3.49-3-5.09-4.68-6.59-7.71-10-8a5.22,5.22,0,0,0-3,.52c-1.69.92-2.22,2.66-3,4.54a45.69,45.69,0,0,1-4,7.51,25.32,25.32,0,0,1-6.29,6.29c-3,2.25-5.27,4-8.73,4.71-3.3.67-5.84,0-10.48-1.22a46.89,46.89,0,0,1-9.78-3.84c-4.29-2.17-6.43-3.26-8-5.24a16.91,16.91,0,0,1-3.84-9.43,13.08,13.08,0,0,0-.52-4.19,8.1,8.1,0,0,0-2.62-4,7.39,7.39,0,0,0-4.71-1.22c-7.25.22-14.4-1.89-21.65-2.27a83.2,83.2,0,0,1-21.3-4,13.27,13.27,0,0,0,2.27-3.32,14.6,14.6,0,0,0,1.22-7.51c-.43-6.32.16-13,.87-21,.68-7.64,1.07-11.53,3.32-14.49a94.67,94.67,0,0,1,7.68-8c2.52-2.4,3.32-2.95,4-4.54,1.08-2.47.81-4.92.35-9.08-.26-2.36-.41-3.56-1-4.36-1.49-1.87-3.69-1.35-6.81-2.62-2.71-1.1-4-2.68-5.94-4.54-2.73-2.61-3.51-2.64-13.09-9.08-9.89-6.64-14.83-9.95-19.9-13.79-4.87-3.68-7.7-6.11-12.75-7.33-2.68-.65-4.93-.61-9.43-.52-6.19.12-12.26.95-19.73.17-1.53-.16-3.77-.45-4.71-2.1s-.18-3.55.17-4.36a65.1,65.1,0,0,1-6.29-5.76c-1-1-1.71-1.88-3-2.1s-2,.56-4.71,1.05c-1.74.31-3,.54-3.67-.17s-.45-2.2-.17-3c.35-1,.8-1,.87-1.57.27-2.12-5.57-4.31-6.63-4.71-1.94-.73-2.69-.72-3.32-.52a5.11,5.11,0,0,0-2.79,2.79c-.64,1.44-.33,2.35-.7,2.44-.65.17-2.34-2.47-2.51-5.39a8.64,8.64,0,0,1,.31-2.8c-1,.14-2.44.37-4.15.73-1.46.3-7.08,1.52-17,6.13-6.16,2.85-7.41,4-8,5.61a8.08,8.08,0,0,0,.42,5.5,10.09,10.09,0,0,0,4.78,5.19c1.68.87,3.36,1,6.65,1.14,2.92.15,4.83,0,10.28.1a8.75,8.75,0,0,1,4.67.93,5.79,5.79,0,0,1,2.8,3.53,3.76,3.76,0,0,1-.21,2.8c-.66,1.06-2,1.29-5.5,1.56-4.37.34-6.77.34-10,1.14-2.48.62-3.21,1.17-3.53,1.87-.5,1.09,0,2.52.62,4.47a18.53,18.53,0,0,0,.83,2.08,15.94,15.94,0,0,1-6.65.73c-2.91-.32-4.07-1.32-9.14-3.63s-7.75-3.53-10.59-3.74a20.2,20.2,0,0,0-8.52,1.35c-3,1.11-3,1.83-7.68,4.36-1.75.94-1,.43-9.87,4.26-3.9,1.68-5,2.18-6.44,1.77s-1.51-1.11-4.67-4c-2.61-2.42-3.94-3.64-5.5-4a8.34,8.34,0,0,0-5.19,1c-2.76,1.26-3,2.54-6.33,4.88a16.35,16.35,0,0,1-5.61,3c-1.25.31-4.57.86-9.14-1.66l3.53-1.56q.36-4.26.73-8.52a18.94,18.94,0,0,0-3.95,0c-5.11.54-8.66,3-11.94,5.4a42.28,42.28,0,0,0-8.2,7.79l3,2a21.8,21.8,0,0,1-4.36,2.39c-3.75,1.52-6.06,1.19-7.27,3.12a5.75,5.75,0,0,0-.73,2.91c0,1.76.86,2.42.62,3.63s-1.15,1.85-2.39,2.6a26.43,26.43,0,0,1-8.83,3.22c-5,.8-8.26,1.31-11.94-.21-1.84-.76-4.58-1.88-5.19-4.47-.52-2.2.66-4.71,2.91-6.54a28.71,28.71,0,0,0-3.32-1.25c-5.32-1.63-6.76-.38-13-1.56a24.74,24.74,0,0,0-6.75-.73c-1.91.1-3,.44-3.74,1.14-.51.46-1,1.11-1.56,3.63-1,4.2-.46,5.43-1.56,7.68a19.19,19.19,0,0,1-2.18,2.91,57.47,57.47,0,0,1-5.5,6c-2.47,2.33-3.49,2.83-3.63,4.26a3.35,3.35,0,0,0,1.25,3,3.66,3.66,0,0,0,2.8.31c2-.42,6.45-.38,17.14,1.35l-1.77,4c-2.26,3.78-5.23,8.46-9,13.67A180.92,180.92,0,0,1,1166.78,369a163.18,163.18,0,0,1-18,16.86,9.56,9.56,0,0,1-.89,3.44c-.85,1.8-2.29,3.36-5.32,5.1-4.5,2.58-6.93,2.35-12.31,4.44-3.5,1.36-5.23,2.06-6.65,3.22-3.46,2.8-4.47,6.44-6.32,13.09-2.08,7.47-3.46,12.41-1.66,16.08a9.64,9.64,0,0,1,1.22,5,9.81,9.81,0,0,1-.89,3.33c-3.13,6.52-27.28,21.63-27.28,21.63s-7.18,4.49-9.32,10a7.93,7.93,0,0,0-.44,5.32,7,7,0,0,0,1.55,2.66,41.6,41.6,0,0,0-3.22,3.22c-2.3,2.57-4.23,4.71-5.1,7.76a15.85,15.85,0,0,0-.33,5.32c.14,4.17,1,4.3,2.66,12a5.31,5.31,0,0,0,1.22,2.88c1.09,1.13,2.24.9,3.66,2.33a4.13,4.13,0,0,1,1.22,1.89,4.74,4.74,0,0,1-.78,3.44c-1.61,2.94-2.11,6.37-3.22,9.54-1.4,4-1.56,4.66-1.66,5.66-.2,1.92.11,2.56-.44,3.66-1.12,2.26-4,2.94-4.77,3.11-3.49.81-4.68-1-7,.11-2.07,1-2.94,3.24-3.44,4.55-.86,2.26-.51,3.56-.78,7.43a49.61,49.61,0,0,1-.78,6c5.37-.89,9.76-1.94,12.86-2.77a99.28,99.28,0,0,0,17-6.21c6.42-3,8.11-4.72,9.09-6.76a13.24,13.24,0,0,0,.89-7.65,15.79,15.79,0,0,0-2.44-5.77,18.24,18.24,0,0,0-1.89-2.44,6.73,6.73,0,0,1-3.66.89c-.78,0-2.08-.12-2.55-.89-.69-1.14.82-3.19,1.77-4.55,4.37-6.19,2.43-5.21,6.21-10.09a61.64,61.64,0,0,1,15.19-14.31c4.78-3.15,9.16-6,15.64-7.21,5.41-1,9.56-.25,17.85,1.22,11.46,2,10.17,3.89,17.3,4.21a32.17,32.17,0,0,1,10.65,2.77c1,.47,2.58,1.27,3,2.77.25.91.06,2-.89,3.55-1.12,1.86-2.74,3.52-8.1,7-3.1,2-4.7,2.84-5.88,5a6.48,6.48,0,0,0-.89,3.11c0,1.75.93,3,2.44,5,1.76,2.34,2.38,2.36,3.88,4.55a9.85,9.85,0,0,1,2,3.88c.16.85.27,2.38-1.33,6.1a41.06,41.06,0,0,1-3.22,5.88,63.33,63.33,0,0,0-4.33,7.87A3.56,3.56,0,0,0,1157.81,555.33Z" transform="translate(-1055.87 -247.34)"/><circle class="cls-2" cx="213.4" cy="148.99" r="6.24"/><circle class="cls-2" cx="244.91" cy="139.8" r="6.24"/><circle class="cls-2" cx="255.07" cy="172.92" r="6.24"/><circle class="cls-2" cx="177.72" cy="282.61" r="6.24"/><circle class="cls-2" cx="498.58" cy="268.4" r="6.24"/></g></svg>