<svg width="18" height="14" viewBox="0 0 18 14" fill="none" xmlns="http://www.w3.org/2000/svg">
<path d="M17.0611 1.66066C16.4351 1.94128 15.7626 2.1309 15.0556 2.2166C15.7851 1.77503 16.3308 1.08003 16.591 0.261302C15.9057 0.673137 15.1555 0.963023 14.3733 1.11836C13.8473 0.550172 13.1505 0.173569 12.3912 0.0470186C11.6319 -0.0795316 10.8526 0.0510516 10.1742 0.418495C9.49577 0.785938 8.95625 1.36968 8.6394 2.0791C8.32254 2.78852 8.24607 3.58391 8.42186 4.3418C7.0331 4.27126 5.67453 3.90611 4.4343 3.27003C3.19408 2.63395 2.09992 1.74117 1.22285 0.649633C0.92295 1.17297 0.75051 1.77973 0.75051 2.42594C0.750175 3.00767 0.891785 3.58049 1.16278 4.09358C1.43377 4.60667 1.82576 5.04416 2.30397 5.36724C1.74937 5.34938 1.20701 5.19778 0.722019 4.92506V4.97056C0.721963 5.78647 1.00095 6.57726 1.51163 7.20877C2.02232 7.84027 2.73325 8.27359 3.5238 8.43519C3.00932 8.57605 2.46992 8.5968 1.94635 8.49587C2.16939 9.19791 2.60387 9.81181 3.18894 10.2516C3.77402 10.6915 4.48041 10.9352 5.20922 10.9487C3.97202 11.9312 2.44409 12.4642 0.871218 12.4618C0.5926 12.4619 0.314218 12.4455 0.0375061 12.4125C1.63406 13.451 3.49257 14.0021 5.39065 14C11.8159 14 15.3285 8.61647 15.3285 3.9474C15.3285 3.79571 15.3247 3.6425 15.318 3.49081C16.0012 2.99097 16.591 2.37201 17.0596 1.66293L17.0611 1.66066Z" fill="#005245"/>
</svg>
